{
  "header": {
    "keySignatures": [],
    "meta": [],
    "name": "",
    "ppq": 384,
    "tempos": [
      {
        "bpm": 111.000111000111,
        "ticks": 0
      }
    ],
    "timeSignatures": [
      {
        "ticks": 0,
        "timeSignature": [
          4,
          4
        ],
        "measures": 0
      }
    ]
  },
  "tracks": [
    {
      "channel": 9,
      "controlChanges": {
        "0": [
          {
            "number": 0,
            "ticks": 736,
            "time": 1.036035,
            "value": 0
          }
        ],
        "6": [
          {
            "number": 6,
            "ticks": 1444,
            "time": 2.032655625,
            "value": 0.015748031496062992
          },
          {
            "number": 6,
            "ticks": 1456,
            "time": 2.0495475,
            "value": 0.5039370078740157
          }
        ],
        "7": [
          {
            "number": 7,
            "ticks": 748,
            "time": 1.052926875,
            "value": 1
          }
        ],
        "10": [
          {
            "number": 10,
            "ticks": 752,
            "time": 1.0585575,
            "value": 0.5039370078740157
          }
        ],
        "11": [
          {
            "number": 11,
            "ticks": 756,
            "time": 1.064188125,
            "value": 1
          }
        ],
        "32": [
          {
            "number": 32,
            "ticks": 740,
            "time": 1.041665625,
            "value": 0
          }
        ],
        "91": [
          {
            "number": 91,
            "ticks": 760,
            "time": 1.06981875,
            "value": 0.47244094488188976
          }
        ],
        "93": [
          {
            "number": 93,
            "ticks": 764,
            "time": 1.075449375,
            "value": 0
          }
        ],
        "100": [
          {
            "number": 100,
            "ticks": 1440,
            "time": 2.027025,
            "value": 0
          },
          {
            "number": 100,
            "ticks": 1452,
            "time": 2.043916875,
            "value": 0.015748031496062992
          },
          {
            "number": 100,
            "ticks": 1464,
            "time": 2.06080875,
            "value": 1
          }
        ],
        "101": [
          {
            "number": 101,
            "ticks": 1436,
            "time": 2.0213943750000003,
            "value": 0
          },
          {
            "number": 101,
            "ticks": 1448,
            "time": 2.03828625,
            "value": 0
          },
          {
            "number": 101,
            "ticks": 1460,
            "time": 2.0551781250000003,
            "value": 1
          }
        ],
        "121": [
          {
            "number": 121,
            "ticks": 420,
            "time": 0.591215625,
            "value": 0
          }
        ]
      },
      "pitchBends": [],
      "instrument": {
        "family": "drums",
        "name": "standard kit",
        "number": 0
      },
      "name": "Bass Drum",
      "notes": [
        {
          "duration": 0.03378375,
          "durationTicks": 24,
          "midi": 36,
          "name": "C2",
          "ticks": 1536,
          "time": 2.16216,
          "velocity": 1
        },
        {
          "duration": 0.03378375,
          "durationTicks": 24,
          "midi": 36,
          "name": "C2",
          "ticks": 2112,
          "time": 2.97297,
          "velocity": 0.984251968503937
        },
        {
          "duration": 0.03378375,
          "durationTicks": 24,
          "midi": 36,
          "name": "C2",
          "ticks": 2304,
          "time": 3.24324,
          "velocity": 0.984251968503937
        },
        {
          "duration": 0.03378374999999956,
          "durationTicks": 24,
          "midi": 36,
          "name": "C2",
          "ticks": 3072,
          "time": 4.32432,
          "velocity": 0.968503937007874
        },
        {
          "duration": 0.03378374999999956,
          "durationTicks": 24,
          "midi": 36,
          "name": "C2",
          "ticks": 3264,
          "time": 4.59459,
          "velocity": 0.9921259842519685
        },
        {
          "duration": 0.03378374999999956,
          "durationTicks": 24,
          "midi": 36,
          "name": "C2",
          "ticks": 3648,
          "time": 5.13513,
          "velocity": 0.968503937007874
        },
        {
          "duration": 0.03378374999999956,
          "durationTicks": 24,
          "midi": 36,
          "name": "C2",
          "ticks": 3840,
          "time": 5.4054,
          "velocity": 0.968503937007874
        },
        {
          "duration": 0.03378374999999956,
          "durationTicks": 24,
          "midi": 36,
          "name": "C2",
          "ticks": 4608,
          "time": 6.48648,
          "velocity": 1
        },
        {
          "duration": 0.03378374999999956,
          "durationTicks": 24,
          "midi": 36,
          "name": "C2",
          "ticks": 5184,
          "time": 7.29729,
          "velocity": 0.984251968503937
        },
        {
          "duration": 0.03378374999999956,
          "durationTicks": 24,
          "midi": 36,
          "name": "C2",
          "ticks": 5376,
          "time": 7.56756,
          "velocity": 0.984251968503937
        },
        {
          "duration": 0.03378374999999956,
          "durationTicks": 24,
          "midi": 36,
          "name": "C2",
          "ticks": 6144,
          "time": 8.64864,
          "velocity": 0.968503937007874
        },
        {
          "duration": 0.03378374999999956,
          "durationTicks": 24,
          "midi": 36,
          "name": "C2",
          "ticks": 6336,
          "time": 8.91891,
          "velocity": 0.9921259842519685
        },
        {
          "duration": 0.03378374999999956,
          "durationTicks": 24,
          "midi": 36,
          "name": "C2",
          "ticks": 6720,
          "time": 9.45945,
          "velocity": 0.968503937007874
        },
        {
          "duration": 0.03378374999999956,
          "durationTicks": 24,
          "midi": 36,
          "name": "C2",
          "ticks": 6912,
          "time": 9.72972,
          "velocity": 0.968503937007874
        },
        {
          "duration": 0.03378374999999956,
          "durationTicks": 24,
          "midi": 36,
          "name": "C2",
          "ticks": 7680,
          "time": 10.8108,
          "velocity": 1
        },
        {
          "duration": 0.03378374999999956,
          "durationTicks": 24,
          "midi": 36,
          "name": "C2",
          "ticks": 8256,
          "time": 11.62161,
          "velocity": 0.984251968503937
        },
        {
          "duration": 0.03378374999999956,
          "durationTicks": 24,
          "midi": 36,
          "name": "C2",
          "ticks": 8448,
          "time": 11.89188,
          "velocity": 0.984251968503937
        },
        {
          "duration": 0.03378374999999956,
          "durationTicks": 24,
          "midi": 36,
          "name": "C2",
          "ticks": 9216,
          "time": 12.97296,
          "velocity": 0.968503937007874
        },
        {
          "duration": 0.03378374999999956,
          "durationTicks": 24,
          "midi": 36,
          "name": "C2",
          "ticks": 9408,
          "time": 13.24323,
          "velocity": 0.9921259842519685
        },
        {
          "duration": 0.03378374999999956,
          "durationTicks": 24,
          "midi": 36,
          "name": "C2",
          "ticks": 9792,
          "time": 13.78377,
          "velocity": 0.968503937007874
        },
        {
          "duration": 0.03378374999999956,
          "durationTicks": 24,
          "midi": 36,
          "name": "C2",
          "ticks": 9984,
          "time": 14.05404,
          "velocity": 0.968503937007874
        },
        {
          "duration": 0.03378374999999956,
          "durationTicks": 24,
          "midi": 36,
          "name": "C2",
          "ticks": 10752,
          "time": 15.13512,
          "velocity": 1
        },
        {
          "duration": 0.03378374999999956,
          "durationTicks": 24,
          "midi": 36,
          "name": "C2",
          "ticks": 11328,
          "time": 15.94593,
          "velocity": 0.984251968503937
        },
        {
          "duration": 0.033783750000001334,
          "durationTicks": 24,
          "midi": 36,
          "name": "C2",
          "ticks": 11520,
          "time": 16.2162,
          "velocity": 0.984251968503937
        },
        {
          "duration": 0.033783750000001334,
          "durationTicks": 24,
          "midi": 36,
          "name": "C2",
          "ticks": 12288,
          "time": 17.29728,
          "velocity": 0.968503937007874
        },
        {
          "duration": 0.033783750000001334,
          "durationTicks": 24,
          "midi": 36,
          "name": "C2",
          "ticks": 12480,
          "time": 17.56755,
          "velocity": 0.9921259842519685
        },
        {
          "duration": 0.033783750000001334,
          "durationTicks": 24,
          "midi": 36,
          "name": "C2",
          "ticks": 12864,
          "time": 18.10809,
          "velocity": 0.968503937007874
        },
        {
          "duration": 0.033783750000001334,
          "durationTicks": 24,
          "midi": 36,
          "name": "C2",
          "ticks": 13056,
          "time": 18.37836,
          "velocity": 0.968503937007874
        },
        {
          "duration": 0.033783750000001334,
          "durationTicks": 24,
          "midi": 36,
          "name": "C2",
          "ticks": 13824,
          "time": 19.45944,
          "velocity": 1
        },
        {
          "duration": 0.033783750000001334,
          "durationTicks": 24,
          "midi": 36,
          "name": "C2",
          "ticks": 14400,
          "time": 20.27025,
          "velocity": 0.984251968503937
        },
        {
          "duration": 0.033783750000001334,
          "durationTicks": 24,
          "midi": 36,
          "name": "C2",
          "ticks": 14592,
          "time": 20.54052,
          "velocity": 0.984251968503937
        },
        {
          "duration": 0.033783750000001334,
          "durationTicks": 24,
          "midi": 36,
          "name": "C2",
          "ticks": 15360,
          "time": 21.6216,
          "velocity": 0.968503937007874
        },
        {
          "duration": 0.033783750000001334,
          "durationTicks": 24,
          "midi": 36,
          "name": "C2",
          "ticks": 15552,
          "time": 21.89187,
          "velocity": 0.9921259842519685
        },
        {
          "duration": 0.033783750000001334,
          "durationTicks": 24,
          "midi": 36,
          "name": "C2",
          "ticks": 15936,
          "time": 22.43241,
          "velocity": 0.968503937007874
        },
        {
          "duration": 0.033783750000001334,
          "durationTicks": 24,
          "midi": 36,
          "name": "C2",
          "ticks": 16128,
          "time": 22.70268,
          "velocity": 0.968503937007874
        },
        {
          "duration": 0.033783750000001334,
          "durationTicks": 24,
          "midi": 36,
          "name": "C2",
          "ticks": 16896,
          "time": 23.78376,
          "velocity": 1
        },
        {
          "duration": 0.033783750000001334,
          "durationTicks": 24,
          "midi": 36,
          "name": "C2",
          "ticks": 17472,
          "time": 24.59457,
          "velocity": 0.984251968503937
        },
        {
          "duration": 0.033783750000001334,
          "durationTicks": 24,
          "midi": 36,
          "name": "C2",
          "ticks": 17664,
          "time": 24.86484,
          "velocity": 0.984251968503937
        },
        {
          "duration": 0.033783750000001334,
          "durationTicks": 24,
          "midi": 36,
          "name": "C2",
          "ticks": 18432,
          "time": 25.94592,
          "velocity": 0.968503937007874
        },
        {
          "duration": 0.033783750000001334,
          "durationTicks": 24,
          "midi": 36,
          "name": "C2",
          "ticks": 18624,
          "time": 26.21619,
          "velocity": 0.9921259842519685
        },
        {
          "duration": 0.033783750000001334,
          "durationTicks": 24,
          "midi": 36,
          "name": "C2",
          "ticks": 19008,
          "time": 26.75673,
          "velocity": 0.968503937007874
        },
        {
          "duration": 0.033783750000001334,
          "durationTicks": 24,
          "midi": 36,
          "name": "C2",
          "ticks": 19200,
          "time": 27.027,
          "velocity": 0.968503937007874
        },
        {
          "duration": 0.033783750000001334,
          "durationTicks": 24,
          "midi": 36,
          "name": "C2",
          "ticks": 19968,
          "time": 28.10808,
          "velocity": 1
        },
        {
          "duration": 0.033783750000001334,
          "durationTicks": 24,
          "midi": 36,
          "name": "C2",
          "ticks": 20544,
          "time": 28.91889,
          "velocity": 0.984251968503937
        },
        {
          "duration": 0.033783750000001334,
          "durationTicks": 24,
          "midi": 36,
          "name": "C2",
          "ticks": 20736,
          "time": 29.18916,
          "velocity": 0.984251968503937
        },
        {
          "duration": 0.033783750000001334,
          "durationTicks": 24,
          "midi": 36,
          "name": "C2",
          "ticks": 21504,
          "time": 30.27024,
          "velocity": 0.968503937007874
        },
        {
          "duration": 0.033783750000001334,
          "durationTicks": 24,
          "midi": 36,
          "name": "C2",
          "ticks": 21696,
          "time": 30.54051,
          "velocity": 0.9921259842519685
        },
        {
          "duration": 0.033783750000001334,
          "durationTicks": 24,
          "midi": 36,
          "name": "C2",
          "ticks": 22080,
          "time": 31.08105,
          "velocity": 0.968503937007874
        },
        {
          "duration": 0.033783750000001334,
          "durationTicks": 24,
          "midi": 36,
          "name": "C2",
          "ticks": 22272,
          "time": 31.35132,
          "velocity": 0.968503937007874
        },
        {
          "duration": 0.03378374999999778,
          "durationTicks": 24,
          "midi": 36,
          "name": "C2",
          "ticks": 23040,
          "time": 32.4324,
          "velocity": 1
        },
        {
          "duration": 0.03378374999999778,
          "durationTicks": 24,
          "midi": 36,
          "name": "C2",
          "ticks": 23616,
          "time": 33.243210000000005,
          "velocity": 0.984251968503937
        },
        {
          "duration": 0.03378374999999778,
          "durationTicks": 24,
          "midi": 36,
          "name": "C2",
          "ticks": 23808,
          "time": 33.51348,
          "velocity": 0.984251968503937
        },
        {
          "duration": 0.03378374999999778,
          "durationTicks": 24,
          "midi": 36,
          "name": "C2",
          "ticks": 24576,
          "time": 34.59456,
          "velocity": 0.968503937007874
        },
        {
          "duration": 0.033783750000004886,
          "durationTicks": 24,
          "midi": 36,
          "name": "C2",
          "ticks": 24768,
          "time": 34.86483,
          "velocity": 0.9921259842519685
        },
        {
          "duration": 0.03378374999999778,
          "durationTicks": 24,
          "midi": 36,
          "name": "C2",
          "ticks": 25152,
          "time": 35.405370000000005,
          "velocity": 0.968503937007874
        },
        {
          "duration": 0.03378374999999778,
          "durationTicks": 24,
          "midi": 36,
          "name": "C2",
          "ticks": 25344,
          "time": 35.67564,
          "velocity": 0.968503937007874
        },
        {
          "duration": 0.03378374999999778,
          "durationTicks": 24,
          "midi": 36,
          "name": "C2",
          "ticks": 26112,
          "time": 36.75672,
          "velocity": 1
        },
        {
          "duration": 0.03378374999999778,
          "durationTicks": 24,
          "midi": 36,
          "name": "C2",
          "ticks": 26688,
          "time": 37.567530000000005,
          "velocity": 0.984251968503937
        },
        {
          "duration": 0.03378374999999778,
          "durationTicks": 24,
          "midi": 36,
          "name": "C2",
          "ticks": 26880,
          "time": 37.8378,
          "velocity": 0.984251968503937
        },
        {
          "duration": 0.03378374999999778,
          "durationTicks": 24,
          "midi": 36,
          "name": "C2",
          "ticks": 27648,
          "time": 38.91888,
          "velocity": 0.968503937007874
        },
        {
          "duration": 0.033783750000004886,
          "durationTicks": 24,
          "midi": 36,
          "name": "C2",
          "ticks": 27840,
          "time": 39.18915,
          "velocity": 0.9921259842519685
        },
        {
          "duration": 0.03378374999999778,
          "durationTicks": 24,
          "midi": 36,
          "name": "C2",
          "ticks": 28224,
          "time": 39.729690000000005,
          "velocity": 0.968503937007874
        },
        {
          "duration": 0.03378374999999778,
          "durationTicks": 24,
          "midi": 36,
          "name": "C2",
          "ticks": 28416,
          "time": 39.99996,
          "velocity": 0.968503937007874
        },
        {
          "duration": 0.03378374999999778,
          "durationTicks": 24,
          "midi": 36,
          "name": "C2",
          "ticks": 29184,
          "time": 41.08104,
          "velocity": 1
        },
        {
          "duration": 0.03378374999999778,
          "durationTicks": 24,
          "midi": 36,
          "name": "C2",
          "ticks": 29760,
          "time": 41.891850000000005,
          "velocity": 0.984251968503937
        },
        {
          "duration": 0.03378374999999778,
          "durationTicks": 24,
          "midi": 36,
          "name": "C2",
          "ticks": 29952,
          "time": 42.16212,
          "velocity": 0.984251968503937
        },
        {
          "duration": 0.03378374999999778,
          "durationTicks": 24,
          "midi": 36,
          "name": "C2",
          "ticks": 30720,
          "time": 43.2432,
          "velocity": 0.968503937007874
        },
        {
          "duration": 0.033783750000004886,
          "durationTicks": 24,
          "midi": 36,
          "name": "C2",
          "ticks": 30912,
          "time": 43.51347,
          "velocity": 0.9921259842519685
        },
        {
          "duration": 0.03378374999999778,
          "durationTicks": 24,
          "midi": 36,
          "name": "C2",
          "ticks": 31296,
          "time": 44.054010000000005,
          "velocity": 0.968503937007874
        },
        {
          "duration": 0.03378374999999778,
          "durationTicks": 24,
          "midi": 36,
          "name": "C2",
          "ticks": 31488,
          "time": 44.32428,
          "velocity": 0.968503937007874
        },
        {
          "duration": 0.03378374999999778,
          "durationTicks": 24,
          "midi": 36,
          "name": "C2",
          "ticks": 32256,
          "time": 45.40536,
          "velocity": 1
        },
        {
          "duration": 0.03378374999999778,
          "durationTicks": 24,
          "midi": 36,
          "name": "C2",
          "ticks": 32832,
          "time": 46.216170000000005,
          "velocity": 0.984251968503937
        },
        {
          "duration": 0.03378374999999778,
          "durationTicks": 24,
          "midi": 36,
          "name": "C2",
          "ticks": 33024,
          "time": 46.48644,
          "velocity": 0.984251968503937
        },
        {
          "duration": 0.03378374999999778,
          "durationTicks": 24,
          "midi": 36,
          "name": "C2",
          "ticks": 33792,
          "time": 47.56752,
          "velocity": 0.968503937007874
        },
        {
          "duration": 0.033783750000004886,
          "durationTicks": 24,
          "midi": 36,
          "name": "C2",
          "ticks": 33984,
          "time": 47.83779,
          "velocity": 0.9921259842519685
        },
        {
          "duration": 0.03378374999999778,
          "durationTicks": 24,
          "midi": 36,
          "name": "C2",
          "ticks": 34368,
          "time": 48.378330000000005,
          "velocity": 0.968503937007874
        },
        {
          "duration": 0.03378374999999778,
          "durationTicks": 24,
          "midi": 36,
          "name": "C2",
          "ticks": 34560,
          "time": 48.6486,
          "velocity": 0.968503937007874
        },
        {
          "duration": 0.03378374999999778,
          "durationTicks": 24,
          "midi": 36,
          "name": "C2",
          "ticks": 35328,
          "time": 49.72968,
          "velocity": 1
        },
        {
          "duration": 0.03378374999999778,
          "durationTicks": 24,
          "midi": 36,
          "name": "C2",
          "ticks": 35904,
          "time": 50.540490000000005,
          "velocity": 0.984251968503937
        },
        {
          "duration": 0.03378374999999778,
          "durationTicks": 24,
          "midi": 36,
          "name": "C2",
          "ticks": 36096,
          "time": 50.81076,
          "velocity": 0.984251968503937
        },
        {
          "duration": 0.03378374999999778,
          "durationTicks": 24,
          "midi": 36,
          "name": "C2",
          "ticks": 36864,
          "time": 51.89184,
          "velocity": 0.968503937007874
        },
        {
          "duration": 0.033783750000004886,
          "durationTicks": 24,
          "midi": 36,
          "name": "C2",
          "ticks": 37056,
          "time": 52.16211,
          "velocity": 0.9921259842519685
        },
        {
          "duration": 0.03378374999999778,
          "durationTicks": 24,
          "midi": 36,
          "name": "C2",
          "ticks": 37440,
          "time": 52.702650000000006,
          "velocity": 0.968503937007874
        },
        {
          "duration": 0.03378374999999778,
          "durationTicks": 24,
          "midi": 36,
          "name": "C2",
          "ticks": 37632,
          "time": 52.97292,
          "velocity": 0.968503937007874
        },
        {
          "duration": 0.03378374999999778,
          "durationTicks": 24,
          "midi": 36,
          "name": "C2",
          "ticks": 38400,
          "time": 54.054,
          "velocity": 1
        },
        {
          "duration": 0.03378374999999778,
          "durationTicks": 24,
          "midi": 36,
          "name": "C2",
          "ticks": 38976,
          "time": 54.864810000000006,
          "velocity": 0.984251968503937
        },
        {
          "duration": 0.03378374999999778,
          "durationTicks": 24,
          "midi": 36,
          "name": "C2",
          "ticks": 39168,
          "time": 55.13508,
          "velocity": 0.984251968503937
        },
        {
          "duration": 0.03378374999999778,
          "durationTicks": 24,
          "midi": 36,
          "name": "C2",
          "ticks": 39936,
          "time": 56.21616,
          "velocity": 0.968503937007874
        },
        {
          "duration": 0.033783750000004886,
          "durationTicks": 24,
          "midi": 36,
          "name": "C2",
          "ticks": 40128,
          "time": 56.48643,
          "velocity": 0.9921259842519685
        },
        {
          "duration": 0.03378374999999778,
          "durationTicks": 24,
          "midi": 36,
          "name": "C2",
          "ticks": 40512,
          "time": 57.026970000000006,
          "velocity": 0.968503937007874
        },
        {
          "duration": 0.03378374999999778,
          "durationTicks": 24,
          "midi": 36,
          "name": "C2",
          "ticks": 40704,
          "time": 57.29724,
          "velocity": 0.968503937007874
        },
        {
          "duration": 0.03378374999999778,
          "durationTicks": 24,
          "midi": 36,
          "name": "C2",
          "ticks": 41472,
          "time": 58.37832,
          "velocity": 1
        },
        {
          "duration": 0.03378374999999778,
          "durationTicks": 24,
          "midi": 36,
          "name": "C2",
          "ticks": 42048,
          "time": 59.189130000000006,
          "velocity": 0.984251968503937
        },
        {
          "duration": 0.03378374999999778,
          "durationTicks": 24,
          "midi": 36,
          "name": "C2",
          "ticks": 42240,
          "time": 59.4594,
          "velocity": 0.984251968503937
        },
        {
          "duration": 0.03378374999999778,
          "durationTicks": 24,
          "midi": 36,
          "name": "C2",
          "ticks": 43008,
          "time": 60.54048,
          "velocity": 0.968503937007874
        },
        {
          "duration": 0.033783750000004886,
          "durationTicks": 24,
          "midi": 36,
          "name": "C2",
          "ticks": 43200,
          "time": 60.81075,
          "velocity": 0.9921259842519685
        },
        {
          "duration": 0.03378374999999778,
          "durationTicks": 24,
          "midi": 36,
          "name": "C2",
          "ticks": 43584,
          "time": 61.351290000000006,
          "velocity": 0.968503937007874
        },
        {
          "duration": 0.03378374999999778,
          "durationTicks": 24,
          "midi": 36,
          "name": "C2",
          "ticks": 43776,
          "time": 61.62156,
          "velocity": 0.968503937007874
        },
        {
          "duration": 0.03378374999999778,
          "durationTicks": 24,
          "midi": 36,
          "name": "C2",
          "ticks": 44544,
          "time": 62.70264,
          "velocity": 1
        },
        {
          "duration": 0.03378374999999778,
          "durationTicks": 24,
          "midi": 36,
          "name": "C2",
          "ticks": 45120,
          "time": 63.513450000000006,
          "velocity": 0.984251968503937
        },
        {
          "duration": 0.03378374999999778,
          "durationTicks": 24,
          "midi": 36,
          "name": "C2",
          "ticks": 45312,
          "time": 63.78372,
          "velocity": 0.984251968503937
        },
        {
          "duration": 0.03378374999999778,
          "durationTicks": 24,
          "midi": 36,
          "name": "C2",
          "ticks": 46080,
          "time": 64.8648,
          "velocity": 0.968503937007874
        },
        {
          "duration": 0.03378374999999778,
          "durationTicks": 24,
          "midi": 36,
          "name": "C2",
          "ticks": 46272,
          "time": 65.13507,
          "velocity": 0.9921259842519685
        },
        {
          "duration": 0.03378374999999778,
          "durationTicks": 24,
          "midi": 36,
          "name": "C2",
          "ticks": 46656,
          "time": 65.67561,
          "velocity": 0.968503937007874
        },
        {
          "duration": 0.03378374999999778,
          "durationTicks": 24,
          "midi": 36,
          "name": "C2",
          "ticks": 46848,
          "time": 65.94588,
          "velocity": 0.968503937007874
        },
        {
          "duration": 0.03378374999999778,
          "durationTicks": 24,
          "midi": 36,
          "name": "C2",
          "ticks": 47616,
          "time": 67.02696,
          "velocity": 1
        },
        {
          "duration": 0.03378374999999778,
          "durationTicks": 24,
          "midi": 36,
          "name": "C2",
          "ticks": 48192,
          "time": 67.83777,
          "velocity": 0.984251968503937
        },
        {
          "duration": 0.03378374999999778,
          "durationTicks": 24,
          "midi": 36,
          "name": "C2",
          "ticks": 48384,
          "time": 68.10804,
          "velocity": 0.984251968503937
        },
        {
          "duration": 0.03378374999999778,
          "durationTicks": 24,
          "midi": 36,
          "name": "C2",
          "ticks": 49152,
          "time": 69.18912,
          "velocity": 0.968503937007874
        },
        {
          "duration": 0.03378374999999778,
          "durationTicks": 24,
          "midi": 36,
          "name": "C2",
          "ticks": 49344,
          "time": 69.45939,
          "velocity": 0.9921259842519685
        },
        {
          "duration": 0.03378374999999778,
          "durationTicks": 24,
          "midi": 36,
          "name": "C2",
          "ticks": 49728,
          "time": 69.99993,
          "velocity": 0.968503937007874
        },
        {
          "duration": 0.03378374999999778,
          "durationTicks": 24,
          "midi": 36,
          "name": "C2",
          "ticks": 49920,
          "time": 70.2702,
          "velocity": 0.968503937007874
        },
        {
          "duration": 0.03378374999999778,
          "durationTicks": 24,
          "midi": 36,
          "name": "C2",
          "ticks": 50688,
          "time": 71.35128,
          "velocity": 1
        },
        {
          "duration": 0.03378374999999778,
          "durationTicks": 24,
          "midi": 36,
          "name": "C2",
          "ticks": 51264,
          "time": 72.16209,
          "velocity": 0.984251968503937
        },
        {
          "duration": 0.03378374999999778,
          "durationTicks": 24,
          "midi": 36,
          "name": "C2",
          "ticks": 51456,
          "time": 72.43236,
          "velocity": 0.984251968503937
        },
        {
          "duration": 0.03378374999999778,
          "durationTicks": 24,
          "midi": 36,
          "name": "C2",
          "ticks": 52224,
          "time": 73.51344,
          "velocity": 0.968503937007874
        },
        {
          "duration": 0.03378374999999778,
          "durationTicks": 24,
          "midi": 36,
          "name": "C2",
          "ticks": 52416,
          "time": 73.78371,
          "velocity": 0.9921259842519685
        },
        {
          "duration": 0.03378374999999778,
          "durationTicks": 24,
          "midi": 36,
          "name": "C2",
          "ticks": 52800,
          "time": 74.32425,
          "velocity": 0.968503937007874
        },
        {
          "duration": 0.03378374999999778,
          "durationTicks": 24,
          "midi": 36,
          "name": "C2",
          "ticks": 52992,
          "time": 74.59452,
          "velocity": 0.968503937007874
        },
        {
          "duration": 0.03378374999999778,
          "durationTicks": 24,
          "midi": 36,
          "name": "C2",
          "ticks": 53760,
          "time": 75.6756,
          "velocity": 1
        },
        {
          "duration": 0.03378374999999778,
          "durationTicks": 24,
          "midi": 36,
          "name": "C2",
          "ticks": 54336,
          "time": 76.48641,
          "velocity": 0.984251968503937
        },
        {
          "duration": 0.03378374999999778,
          "durationTicks": 24,
          "midi": 36,
          "name": "C2",
          "ticks": 54528,
          "time": 76.75668,
          "velocity": 0.984251968503937
        },
        {
          "duration": 0.03378374999999778,
          "durationTicks": 24,
          "midi": 36,
          "name": "C2",
          "ticks": 55296,
          "time": 77.83776,
          "velocity": 0.968503937007874
        },
        {
          "duration": 0.03378374999999778,
          "durationTicks": 24,
          "midi": 36,
          "name": "C2",
          "ticks": 55488,
          "time": 78.10803,
          "velocity": 0.9921259842519685
        },
        {
          "duration": 0.03378374999999778,
          "durationTicks": 24,
          "midi": 36,
          "name": "C2",
          "ticks": 55872,
          "time": 78.64857,
          "velocity": 0.968503937007874
        },
        {
          "duration": 0.03378374999999778,
          "durationTicks": 24,
          "midi": 36,
          "name": "C2",
          "ticks": 56064,
          "time": 78.91884,
          "velocity": 0.968503937007874
        },
        {
          "duration": 0.03378374999999778,
          "durationTicks": 24,
          "midi": 36,
          "name": "C2",
          "ticks": 56832,
          "time": 79.99992,
          "velocity": 1
        },
        {
          "duration": 0.03378374999999778,
          "durationTicks": 24,
          "midi": 36,
          "name": "C2",
          "ticks": 57408,
          "time": 80.81073,
          "velocity": 0.984251968503937
        },
        {
          "duration": 0.03378374999999778,
          "durationTicks": 24,
          "midi": 36,
          "name": "C2",
          "ticks": 57600,
          "time": 81.081,
          "velocity": 0.984251968503937
        },
        {
          "duration": 0.03378374999999778,
          "durationTicks": 24,
          "midi": 36,
          "name": "C2",
          "ticks": 58368,
          "time": 82.16208,
          "velocity": 0.968503937007874
        },
        {
          "duration": 0.03378374999999778,
          "durationTicks": 24,
          "midi": 36,
          "name": "C2",
          "ticks": 58560,
          "time": 82.43235,
          "velocity": 0.9921259842519685
        },
        {
          "duration": 0.03378374999999778,
          "durationTicks": 24,
          "midi": 36,
          "name": "C2",
          "ticks": 58944,
          "time": 82.97289,
          "velocity": 0.968503937007874
        },
        {
          "duration": 0.03378374999999778,
          "durationTicks": 24,
          "midi": 36,
          "name": "C2",
          "ticks": 59136,
          "time": 83.24316,
          "velocity": 0.968503937007874
        },
        {
          "duration": 0.03378374999999778,
          "durationTicks": 24,
          "midi": 36,
          "name": "C2",
          "ticks": 59904,
          "time": 84.32424,
          "velocity": 1
        },
        {
          "duration": 0.03378374999999778,
          "durationTicks": 24,
          "midi": 36,
          "name": "C2",
          "ticks": 60480,
          "time": 85.13505,
          "velocity": 0.984251968503937
        },
        {
          "duration": 0.03378374999999778,
          "durationTicks": 24,
          "midi": 36,
          "name": "C2",
          "ticks": 60672,
          "time": 85.40532,
          "velocity": 0.984251968503937
        },
        {
          "duration": 0.03378374999999778,
          "durationTicks": 24,
          "midi": 36,
          "name": "C2",
          "ticks": 61440,
          "time": 86.4864,
          "velocity": 0.968503937007874
        },
        {
          "duration": 0.03378374999999778,
          "durationTicks": 24,
          "midi": 36,
          "name": "C2",
          "ticks": 61632,
          "time": 86.75667,
          "velocity": 0.9921259842519685
        },
        {
          "duration": 0.03378374999999778,
          "durationTicks": 24,
          "midi": 36,
          "name": "C2",
          "ticks": 62016,
          "time": 87.29721,
          "velocity": 0.968503937007874
        },
        {
          "duration": 0.03378374999999778,
          "durationTicks": 24,
          "midi": 36,
          "name": "C2",
          "ticks": 62208,
          "time": 87.56748,
          "velocity": 0.968503937007874
        },
        {
          "duration": 0.03378374999999778,
          "durationTicks": 24,
          "midi": 36,
          "name": "C2",
          "ticks": 62976,
          "time": 88.64856,
          "velocity": 1
        },
        {
          "duration": 0.03378374999999778,
          "durationTicks": 24,
          "midi": 36,
          "name": "C2",
          "ticks": 63552,
          "time": 89.45937,
          "velocity": 0.984251968503937
        },
        {
          "duration": 0.03378374999999778,
          "durationTicks": 24,
          "midi": 36,
          "name": "C2",
          "ticks": 63744,
          "time": 89.72964,
          "velocity": 0.984251968503937
        },
        {
          "duration": 0.03378374999999778,
          "durationTicks": 24,
          "midi": 36,
          "name": "C2",
          "ticks": 64512,
          "time": 90.81072,
          "velocity": 0.968503937007874
        },
        {
          "duration": 0.03378374999999778,
          "durationTicks": 24,
          "midi": 36,
          "name": "C2",
          "ticks": 64704,
          "time": 91.08099,
          "velocity": 0.9921259842519685
        },
        {
          "duration": 0.03378374999999778,
          "durationTicks": 24,
          "midi": 36,
          "name": "C2",
          "ticks": 65088,
          "time": 91.62153,
          "velocity": 0.968503937007874
        },
        {
          "duration": 0.03378374999999778,
          "durationTicks": 24,
          "midi": 36,
          "name": "C2",
          "ticks": 65280,
          "time": 91.8918,
          "velocity": 0.968503937007874
        },
        {
          "duration": 0.03378374999999778,
          "durationTicks": 24,
          "midi": 36,
          "name": "C2",
          "ticks": 66048,
          "time": 92.97288,
          "velocity": 1
        },
        {
          "duration": 0.03378374999999778,
          "durationTicks": 24,
          "midi": 36,
          "name": "C2",
          "ticks": 66624,
          "time": 93.78369,
          "velocity": 0.984251968503937
        },
        {
          "duration": 0.03378374999999778,
          "durationTicks": 24,
          "midi": 36,
          "name": "C2",
          "ticks": 66816,
          "time": 94.05396,
          "velocity": 0.984251968503937
        },
        {
          "duration": 0.03378374999999778,
          "durationTicks": 24,
          "midi": 36,
          "name": "C2",
          "ticks": 67584,
          "time": 95.13504,
          "velocity": 0.968503937007874
        },
        {
          "duration": 0.03378374999999778,
          "durationTicks": 24,
          "midi": 36,
          "name": "C2",
          "ticks": 67776,
          "time": 95.40531,
          "velocity": 0.9921259842519685
        },
        {
          "duration": 0.03378374999999778,
          "durationTicks": 24,
          "midi": 36,
          "name": "C2",
          "ticks": 68160,
          "time": 95.94585000000001,
          "velocity": 0.968503937007874
        },
        {
          "duration": 0.03378374999999778,
          "durationTicks": 24,
          "midi": 36,
          "name": "C2",
          "ticks": 68352,
          "time": 96.21612,
          "velocity": 0.968503937007874
        },
        {
          "duration": 0.03378374999999778,
          "durationTicks": 24,
          "midi": 36,
          "name": "C2",
          "ticks": 69120,
          "time": 97.2972,
          "velocity": 1
        },
        {
          "duration": 0.03378374999999778,
          "durationTicks": 24,
          "midi": 36,
          "name": "C2",
          "ticks": 69696,
          "time": 98.10801000000001,
          "velocity": 0.984251968503937
        },
        {
          "duration": 0.03378374999999778,
          "durationTicks": 24,
          "midi": 36,
          "name": "C2",
          "ticks": 69888,
          "time": 98.37828,
          "velocity": 0.984251968503937
        },
        {
          "duration": 0.03378374999999778,
          "durationTicks": 24,
          "midi": 36,
          "name": "C2",
          "ticks": 70656,
          "time": 99.45936,
          "velocity": 0.968503937007874
        },
        {
          "duration": 0.03378374999999778,
          "durationTicks": 24,
          "midi": 36,
          "name": "C2",
          "ticks": 70848,
          "time": 99.72963,
          "velocity": 0.9921259842519685
        },
        {
          "duration": 0.03378374999999778,
          "durationTicks": 24,
          "midi": 36,
          "name": "C2",
          "ticks": 71232,
          "time": 100.27017000000001,
          "velocity": 0.968503937007874
        },
        {
          "duration": 0.03378374999999778,
          "durationTicks": 24,
          "midi": 36,
          "name": "C2",
          "ticks": 71424,
          "time": 100.54044,
          "velocity": 0.968503937007874
        },
        {
          "duration": 0.03378374999999778,
          "durationTicks": 24,
          "midi": 36,
          "name": "C2",
          "ticks": 72192,
          "time": 101.62152,
          "velocity": 1
        },
        {
          "duration": 0.03378374999999778,
          "durationTicks": 24,
          "midi": 36,
          "name": "C2",
          "ticks": 72768,
          "time": 102.43233000000001,
          "velocity": 0.984251968503937
        },
        {
          "duration": 0.03378374999999778,
          "durationTicks": 24,
          "midi": 36,
          "name": "C2",
          "ticks": 72960,
          "time": 102.7026,
          "velocity": 0.984251968503937
        },
        {
          "duration": 0.03378374999999778,
          "durationTicks": 24,
          "midi": 36,
          "name": "C2",
          "ticks": 73728,
          "time": 103.78368,
          "velocity": 0.968503937007874
        },
        {
          "duration": 0.03378374999999778,
          "durationTicks": 24,
          "midi": 36,
          "name": "C2",
          "ticks": 73920,
          "time": 104.05395,
          "velocity": 0.9921259842519685
        },
        {
          "duration": 0.03378374999999778,
          "durationTicks": 24,
          "midi": 36,
          "name": "C2",
          "ticks": 74304,
          "time": 104.59449000000001,
          "velocity": 0.968503937007874
        },
        {
          "duration": 0.03378374999999778,
          "durationTicks": 24,
          "midi": 36,
          "name": "C2",
          "ticks": 74496,
          "time": 104.86476,
          "velocity": 0.968503937007874
        },
        {
          "duration": 0.03378374999999778,
          "durationTicks": 24,
          "midi": 36,
          "name": "C2",
          "ticks": 75264,
          "time": 105.94584,
          "velocity": 1
        },
        {
          "duration": 0.03378374999999778,
          "durationTicks": 24,
          "midi": 36,
          "name": "C2",
          "ticks": 75840,
          "time": 106.75665000000001,
          "velocity": 0.984251968503937
        },
        {
          "duration": 0.03378374999999778,
          "durationTicks": 24,
          "midi": 36,
          "name": "C2",
          "ticks": 76032,
          "time": 107.02692,
          "velocity": 0.984251968503937
        },
        {
          "duration": 0.03378374999999778,
          "durationTicks": 24,
          "midi": 36,
          "name": "C2",
          "ticks": 76800,
          "time": 108.108,
          "velocity": 0.968503937007874
        },
        {
          "duration": 0.03378374999999778,
          "durationTicks": 24,
          "midi": 36,
          "name": "C2",
          "ticks": 76992,
          "time": 108.37827,
          "velocity": 0.9921259842519685
        },
        {
          "duration": 0.03378374999999778,
          "durationTicks": 24,
          "midi": 36,
          "name": "C2",
          "ticks": 77376,
          "time": 108.91881000000001,
          "velocity": 0.968503937007874
        },
        {
          "duration": 0.03378374999999778,
          "durationTicks": 24,
          "midi": 36,
          "name": "C2",
          "ticks": 77568,
          "time": 109.18908,
          "velocity": 0.968503937007874
        },
        {
          "duration": 0.03378374999999778,
          "durationTicks": 24,
          "midi": 36,
          "name": "C2",
          "ticks": 78336,
          "time": 110.27016,
          "velocity": 1
        },
        {
          "duration": 0.03378374999999778,
          "durationTicks": 24,
          "midi": 36,
          "name": "C2",
          "ticks": 78912,
          "time": 111.08097000000001,
          "velocity": 0.984251968503937
        },
        {
          "duration": 0.03378374999999778,
          "durationTicks": 24,
          "midi": 36,
          "name": "C2",
          "ticks": 79104,
          "time": 111.35124,
          "velocity": 0.984251968503937
        },
        {
          "duration": 0.03378374999999778,
          "durationTicks": 24,
          "midi": 36,
          "name": "C2",
          "ticks": 79872,
          "time": 112.43232,
          "velocity": 0.968503937007874
        },
        {
          "duration": 0.03378374999999778,
          "durationTicks": 24,
          "midi": 36,
          "name": "C2",
          "ticks": 80064,
          "time": 112.70259,
          "velocity": 0.9921259842519685
        },
        {
          "duration": 0.03378374999999778,
          "durationTicks": 24,
          "midi": 36,
          "name": "C2",
          "ticks": 80448,
          "time": 113.24313000000001,
          "velocity": 0.968503937007874
        },
        {
          "duration": 0.03378374999999778,
          "durationTicks": 24,
          "midi": 36,
          "name": "C2",
          "ticks": 80640,
          "time": 113.5134,
          "velocity": 0.968503937007874
        },
        {
          "duration": 0.03378374999999778,
          "durationTicks": 24,
          "midi": 36,
          "name": "C2",
          "ticks": 81408,
          "time": 114.59448,
          "velocity": 1
        },
        {
          "duration": 0.03378374999999778,
          "durationTicks": 24,
          "midi": 36,
          "name": "C2",
          "ticks": 81984,
          "time": 115.40529000000001,
          "velocity": 0.984251968503937
        },
        {
          "duration": 0.03378374999999778,
          "durationTicks": 24,
          "midi": 36,
          "name": "C2",
          "ticks": 82176,
          "time": 115.67556,
          "velocity": 0.984251968503937
        },
        {
          "duration": 0.03378374999999778,
          "durationTicks": 24,
          "midi": 36,
          "name": "C2",
          "ticks": 82944,
          "time": 116.75664,
          "velocity": 0.968503937007874
        },
        {
          "duration": 0.03378374999999778,
          "durationTicks": 24,
          "midi": 36,
          "name": "C2",
          "ticks": 83136,
          "time": 117.02691,
          "velocity": 0.9921259842519685
        },
        {
          "duration": 0.03378374999999778,
          "durationTicks": 24,
          "midi": 36,
          "name": "C2",
          "ticks": 83520,
          "time": 117.56745000000001,
          "velocity": 0.968503937007874
        },
        {
          "duration": 0.03378374999999778,
          "durationTicks": 24,
          "midi": 36,
          "name": "C2",
          "ticks": 83712,
          "time": 117.83772,
          "velocity": 0.968503937007874
        },
        {
          "duration": 0.03378374999999778,
          "durationTicks": 24,
          "midi": 36,
          "name": "C2",
          "ticks": 84480,
          "time": 118.9188,
          "velocity": 1
        },
        {
          "duration": 0.03378374999999778,
          "durationTicks": 24,
          "midi": 36,
          "name": "C2",
          "ticks": 85056,
          "time": 119.72961000000001,
          "velocity": 0.984251968503937
        },
        {
          "duration": 0.03378374999999778,
          "durationTicks": 24,
          "midi": 36,
          "name": "C2",
          "ticks": 85248,
          "time": 119.99988,
          "velocity": 0.984251968503937
        },
        {
          "duration": 0.03378374999999778,
          "durationTicks": 24,
          "midi": 36,
          "name": "C2",
          "ticks": 86016,
          "time": 121.08096,
          "velocity": 0.968503937007874
        },
        {
          "duration": 0.03378374999999778,
          "durationTicks": 24,
          "midi": 36,
          "name": "C2",
          "ticks": 86208,
          "time": 121.35123,
          "velocity": 0.9921259842519685
        },
        {
          "duration": 0.03378374999999778,
          "durationTicks": 24,
          "midi": 36,
          "name": "C2",
          "ticks": 86592,
          "time": 121.89177000000001,
          "velocity": 0.968503937007874
        },
        {
          "duration": 0.03378374999999778,
          "durationTicks": 24,
          "midi": 36,
          "name": "C2",
          "ticks": 86784,
          "time": 122.16204,
          "velocity": 0.968503937007874
        },
        {
          "duration": 0.03378374999999778,
          "durationTicks": 24,
          "midi": 36,
          "name": "C2",
          "ticks": 87552,
          "time": 123.24312,
          "velocity": 1
        },
        {
          "duration": 0.03378374999999778,
          "durationTicks": 24,
          "midi": 36,
          "name": "C2",
          "ticks": 88128,
          "time": 124.05393000000001,
          "velocity": 0.984251968503937
        },
        {
          "duration": 0.03378374999999778,
          "durationTicks": 24,
          "midi": 36,
          "name": "C2",
          "ticks": 88320,
          "time": 124.3242,
          "velocity": 0.984251968503937
        },
        {
          "duration": 0.03378374999999778,
          "durationTicks": 24,
          "midi": 36,
          "name": "C2",
          "ticks": 89088,
          "time": 125.40528,
          "velocity": 0.968503937007874
        },
        {
          "duration": 0.03378374999999778,
          "durationTicks": 24,
          "midi": 36,
          "name": "C2",
          "ticks": 89280,
          "time": 125.67555,
          "velocity": 0.9921259842519685
        },
        {
          "duration": 0.03378374999999778,
          "durationTicks": 24,
          "midi": 36,
          "name": "C2",
          "ticks": 89664,
          "time": 126.21609000000001,
          "velocity": 0.968503937007874
        },
        {
          "duration": 0.03378374999999778,
          "durationTicks": 24,
          "midi": 36,
          "name": "C2",
          "ticks": 89856,
          "time": 126.48636,
          "velocity": 0.968503937007874
        },
        {
          "duration": 0.03378374999999778,
          "durationTicks": 24,
          "midi": 36,
          "name": "C2",
          "ticks": 90624,
          "time": 127.56744,
          "velocity": 1
        },
        {
          "duration": 0.03378374999999778,
          "durationTicks": 24,
          "midi": 36,
          "name": "C2",
          "ticks": 91200,
          "time": 128.37825,
          "velocity": 0.984251968503937
        },
        {
          "duration": 0.03378374999999778,
          "durationTicks": 24,
          "midi": 36,
          "name": "C2",
          "ticks": 91392,
          "time": 128.64852000000002,
          "velocity": 0.984251968503937
        },
        {
          "duration": 0.03378374999999778,
          "durationTicks": 24,
          "midi": 36,
          "name": "C2",
          "ticks": 92160,
          "time": 129.7296,
          "velocity": 0.968503937007874
        },
        {
          "duration": 0.03378374999999778,
          "durationTicks": 24,
          "midi": 36,
          "name": "C2",
          "ticks": 92352,
          "time": 129.99987000000002,
          "velocity": 0.9921259842519685
        },
        {
          "duration": 0.03378374999999778,
          "durationTicks": 24,
          "midi": 36,
          "name": "C2",
          "ticks": 92736,
          "time": 130.54041,
          "velocity": 0.968503937007874
        },
        {
          "duration": 0.0337837500000262,
          "durationTicks": 24,
          "midi": 36,
          "name": "C2",
          "ticks": 92928,
          "time": 130.81068,
          "velocity": 0.968503937007874
        },
        {
          "duration": 0.03378374999999778,
          "durationTicks": 24,
          "midi": 36,
          "name": "C2",
          "ticks": 93696,
          "time": 131.89176,
          "velocity": 1
        },
        {
          "duration": 0.03378374999999778,
          "durationTicks": 24,
          "midi": 36,
          "name": "C2",
          "ticks": 94272,
          "time": 132.70257,
          "velocity": 0.984251968503937
        },
        {
          "duration": 0.03378374999999778,
          "durationTicks": 24,
          "midi": 36,
          "name": "C2",
          "ticks": 94464,
          "time": 132.97284000000002,
          "velocity": 0.984251968503937
        },
        {
          "duration": 0.03378374999999778,
          "durationTicks": 24,
          "midi": 36,
          "name": "C2",
          "ticks": 95232,
          "time": 134.05392,
          "velocity": 0.968503937007874
        },
        {
          "duration": 0.03378374999999778,
          "durationTicks": 24,
          "midi": 36,
          "name": "C2",
          "ticks": 95424,
          "time": 134.32419000000002,
          "velocity": 0.9921259842519685
        },
        {
          "duration": 0.03378374999999778,
          "durationTicks": 24,
          "midi": 36,
          "name": "C2",
          "ticks": 95808,
          "time": 134.86473,
          "velocity": 0.968503937007874
        },
        {
          "duration": 0.0337837500000262,
          "durationTicks": 24,
          "midi": 36,
          "name": "C2",
          "ticks": 96000,
          "time": 135.135,
          "velocity": 0.968503937007874
        },
        {
          "duration": 0.03378374999999778,
          "durationTicks": 24,
          "midi": 36,
          "name": "C2",
          "ticks": 96768,
          "time": 136.21608,
          "velocity": 1
        },
        {
          "duration": 0.03378374999999778,
          "durationTicks": 24,
          "midi": 36,
          "name": "C2",
          "ticks": 97344,
          "time": 137.02689,
          "velocity": 0.984251968503937
        },
        {
          "duration": 0.03378374999999778,
          "durationTicks": 24,
          "midi": 36,
          "name": "C2",
          "ticks": 97536,
          "time": 137.29716000000002,
          "velocity": 0.984251968503937
        },
        {
          "duration": 0.03378374999999778,
          "durationTicks": 24,
          "midi": 36,
          "name": "C2",
          "ticks": 98304,
          "time": 138.37824,
          "velocity": 0.968503937007874
        },
        {
          "duration": 0.03378374999999778,
          "durationTicks": 24,
          "midi": 36,
          "name": "C2",
          "ticks": 98496,
          "time": 138.64851000000002,
          "velocity": 0.9921259842519685
        },
        {
          "duration": 0.03378374999999778,
          "durationTicks": 24,
          "midi": 36,
          "name": "C2",
          "ticks": 98880,
          "time": 139.18905,
          "velocity": 0.968503937007874
        },
        {
          "duration": 0.0337837500000262,
          "durationTicks": 24,
          "midi": 36,
          "name": "C2",
          "ticks": 99072,
          "time": 139.45932,
          "velocity": 0.968503937007874
        },
        {
          "duration": 0.03378374999999778,
          "durationTicks": 24,
          "midi": 36,
          "name": "C2",
          "ticks": 99840,
          "time": 140.5404,
          "velocity": 1
        },
        {
          "duration": 0.03378374999999778,
          "durationTicks": 24,
          "midi": 36,
          "name": "C2",
          "ticks": 100416,
          "time": 141.35121,
          "velocity": 0.984251968503937
        },
        {
          "duration": 0.03378374999999778,
          "durationTicks": 24,
          "midi": 36,
          "name": "C2",
          "ticks": 100608,
          "time": 141.62148000000002,
          "velocity": 0.984251968503937
        },
        {
          "duration": 0.03378374999999778,
          "durationTicks": 24,
          "midi": 36,
          "name": "C2",
          "ticks": 101376,
          "time": 142.70256,
          "velocity": 0.968503937007874
        },
        {
          "duration": 0.03378374999999778,
          "durationTicks": 24,
          "midi": 36,
          "name": "C2",
          "ticks": 101568,
          "time": 142.97283000000002,
          "velocity": 0.9921259842519685
        },
        {
          "duration": 0.03378374999999778,
          "durationTicks": 24,
          "midi": 36,
          "name": "C2",
          "ticks": 101952,
          "time": 143.51337,
          "velocity": 0.968503937007874
        },
        {
          "duration": 0.0337837500000262,
          "durationTicks": 24,
          "midi": 36,
          "name": "C2",
          "ticks": 102144,
          "time": 143.78364,
          "velocity": 0.968503937007874
        },
        {
          "duration": 0.03378374999999778,
          "durationTicks": 24,
          "midi": 36,
          "name": "C2",
          "ticks": 102912,
          "time": 144.86472,
          "velocity": 1
        },
        {
          "duration": 0.03378374999999778,
          "durationTicks": 24,
          "midi": 36,
          "name": "C2",
          "ticks": 103488,
          "time": 145.67553,
          "velocity": 0.984251968503937
        },
        {
          "duration": 0.03378374999999778,
          "durationTicks": 24,
          "midi": 36,
          "name": "C2",
          "ticks": 103680,
          "time": 145.94580000000002,
          "velocity": 0.984251968503937
        },
        {
          "duration": 0.03378374999999778,
          "durationTicks": 24,
          "midi": 36,
          "name": "C2",
          "ticks": 104448,
          "time": 147.02688,
          "velocity": 0.968503937007874
        },
        {
          "duration": 0.03378374999999778,
          "durationTicks": 24,
          "midi": 36,
          "name": "C2",
          "ticks": 104640,
          "time": 147.29715000000002,
          "velocity": 0.9921259842519685
        },
        {
          "duration": 0.03378374999999778,
          "durationTicks": 24,
          "midi": 36,
          "name": "C2",
          "ticks": 105024,
          "time": 147.83769,
          "velocity": 0.968503937007874
        },
        {
          "duration": 0.0337837500000262,
          "durationTicks": 24,
          "midi": 36,
          "name": "C2",
          "ticks": 105216,
          "time": 148.10796,
          "velocity": 0.968503937007874
        },
        {
          "duration": 0.03378374999999778,
          "durationTicks": 24,
          "midi": 36,
          "name": "C2",
          "ticks": 105984,
          "time": 149.18904,
          "velocity": 1
        },
        {
          "duration": 0.03378374999999778,
          "durationTicks": 24,
          "midi": 36,
          "name": "C2",
          "ticks": 106560,
          "time": 149.99985,
          "velocity": 0.984251968503937
        },
        {
          "duration": 0.03378374999999778,
          "durationTicks": 24,
          "midi": 36,
          "name": "C2",
          "ticks": 106752,
          "time": 150.27012000000002,
          "velocity": 0.984251968503937
        },
        {
          "duration": 0.03378374999999778,
          "durationTicks": 24,
          "midi": 36,
          "name": "C2",
          "ticks": 107520,
          "time": 151.3512,
          "velocity": 0.968503937007874
        },
        {
          "duration": 0.03378374999999778,
          "durationTicks": 24,
          "midi": 36,
          "name": "C2",
          "ticks": 107712,
          "time": 151.62147000000002,
          "velocity": 0.9921259842519685
        },
        {
          "duration": 0.03378374999999778,
          "durationTicks": 24,
          "midi": 36,
          "name": "C2",
          "ticks": 108096,
          "time": 152.16201,
          "velocity": 0.968503937007874
        },
        {
          "duration": 0.0337837500000262,
          "durationTicks": 24,
          "midi": 36,
          "name": "C2",
          "ticks": 108288,
          "time": 152.43228,
          "velocity": 0.968503937007874
        },
        {
          "duration": 0.03378374999999778,
          "durationTicks": 24,
          "midi": 36,
          "name": "C2",
          "ticks": 109056,
          "time": 153.51336,
          "velocity": 1
        },
        {
          "duration": 0.03378374999999778,
          "durationTicks": 24,
          "midi": 36,
          "name": "C2",
          "ticks": 109632,
          "time": 154.32417,
          "velocity": 0.984251968503937
        },
        {
          "duration": 0.03378374999999778,
          "durationTicks": 24,
          "midi": 36,
          "name": "C2",
          "ticks": 109824,
          "time": 154.59444000000002,
          "velocity": 0.984251968503937
        },
        {
          "duration": 0.03378374999999778,
          "durationTicks": 24,
          "midi": 36,
          "name": "C2",
          "ticks": 110592,
          "time": 155.67552,
          "velocity": 0.968503937007874
        },
        {
          "duration": 0.03378374999999778,
          "durationTicks": 24,
          "midi": 36,
          "name": "C2",
          "ticks": 110784,
          "time": 155.94579000000002,
          "velocity": 0.9921259842519685
        },
        {
          "duration": 0.03378374999999778,
          "durationTicks": 24,
          "midi": 36,
          "name": "C2",
          "ticks": 111168,
          "time": 156.48633,
          "velocity": 0.968503937007874
        },
        {
          "duration": 0.0337837500000262,
          "durationTicks": 24,
          "midi": 36,
          "name": "C2",
          "ticks": 111360,
          "time": 156.7566,
          "velocity": 0.968503937007874
        },
        {
          "duration": 0.03378374999999778,
          "durationTicks": 24,
          "midi": 36,
          "name": "C2",
          "ticks": 112128,
          "time": 157.83768,
          "velocity": 1
        },
        {
          "duration": 0.03378374999999778,
          "durationTicks": 24,
          "midi": 36,
          "name": "C2",
          "ticks": 112704,
          "time": 158.64849,
          "velocity": 0.984251968503937
        },
        {
          "duration": 0.03378374999999778,
          "durationTicks": 24,
          "midi": 36,
          "name": "C2",
          "ticks": 112896,
          "time": 158.91876000000002,
          "velocity": 0.984251968503937
        },
        {
          "duration": 0.03378374999999778,
          "durationTicks": 24,
          "midi": 36,
          "name": "C2",
          "ticks": 113664,
          "time": 159.99984,
          "velocity": 0.968503937007874
        },
        {
          "duration": 0.03378374999999778,
          "durationTicks": 24,
          "midi": 36,
          "name": "C2",
          "ticks": 113856,
          "time": 160.27011000000002,
          "velocity": 0.9921259842519685
        },
        {
          "duration": 0.03378374999999778,
          "durationTicks": 24,
          "midi": 36,
          "name": "C2",
          "ticks": 114240,
          "time": 160.81065,
          "velocity": 0.968503937007874
        },
        {
          "duration": 0.0337837500000262,
          "durationTicks": 24,
          "midi": 36,
          "name": "C2",
          "ticks": 114432,
          "time": 161.08092,
          "velocity": 0.968503937007874
        },
        {
          "duration": 0.03378374999999778,
          "durationTicks": 24,
          "midi": 36,
          "name": "C2",
          "ticks": 115200,
          "time": 162.162,
          "velocity": 1
        },
        {
          "duration": 0.03378374999999778,
          "durationTicks": 24,
          "midi": 36,
          "name": "C2",
          "ticks": 115776,
          "time": 162.97281,
          "velocity": 0.984251968503937
        },
        {
          "duration": 0.03378374999999778,
          "durationTicks": 24,
          "midi": 36,
          "name": "C2",
          "ticks": 115968,
          "time": 163.24308000000002,
          "velocity": 0.984251968503937
        },
        {
          "duration": 0.03378374999999778,
          "durationTicks": 24,
          "midi": 36,
          "name": "C2",
          "ticks": 116736,
          "time": 164.32416,
          "velocity": 0.968503937007874
        },
        {
          "duration": 0.03378374999999778,
          "durationTicks": 24,
          "midi": 36,
          "name": "C2",
          "ticks": 116928,
          "time": 164.59443000000002,
          "velocity": 0.9921259842519685
        },
        {
          "duration": 0.03378374999999778,
          "durationTicks": 24,
          "midi": 36,
          "name": "C2",
          "ticks": 117312,
          "time": 165.13497,
          "velocity": 0.968503937007874
        },
        {
          "duration": 0.0337837500000262,
          "durationTicks": 24,
          "midi": 36,
          "name": "C2",
          "ticks": 117504,
          "time": 165.40524,
          "velocity": 0.968503937007874
        },
        {
          "duration": 0.03378374999999778,
          "durationTicks": 24,
          "midi": 36,
          "name": "C2",
          "ticks": 118272,
          "time": 166.48632,
          "velocity": 1
        },
        {
          "duration": 0.03378374999999778,
          "durationTicks": 24,
          "midi": 36,
          "name": "C2",
          "ticks": 118848,
          "time": 167.29713,
          "velocity": 0.984251968503937
        },
        {
          "duration": 0.03378374999999778,
          "durationTicks": 24,
          "midi": 36,
          "name": "C2",
          "ticks": 119040,
          "time": 167.56740000000002,
          "velocity": 0.984251968503937
        },
        {
          "duration": 0.03378374999999778,
          "durationTicks": 24,
          "midi": 36,
          "name": "C2",
          "ticks": 119808,
          "time": 168.64848,
          "velocity": 0.968503937007874
        },
        {
          "duration": 0.03378374999999778,
          "durationTicks": 24,
          "midi": 36,
          "name": "C2",
          "ticks": 120000,
          "time": 168.91875000000002,
          "velocity": 0.9921259842519685
        },
        {
          "duration": 0.03378374999999778,
          "durationTicks": 24,
          "midi": 36,
          "name": "C2",
          "ticks": 120384,
          "time": 169.45929,
          "velocity": 0.968503937007874
        },
        {
          "duration": 0.0337837500000262,
          "durationTicks": 24,
          "midi": 36,
          "name": "C2",
          "ticks": 120576,
          "time": 169.72956,
          "velocity": 0.968503937007874
        },
        {
          "duration": 0.03378374999999778,
          "durationTicks": 24,
          "midi": 36,
          "name": "C2",
          "ticks": 121344,
          "time": 170.81064,
          "velocity": 1
        },
        {
          "duration": 0.03378374999999778,
          "durationTicks": 24,
          "midi": 36,
          "name": "C2",
          "ticks": 121920,
          "time": 171.62145,
          "velocity": 0.984251968503937
        },
        {
          "duration": 0.03378374999999778,
          "durationTicks": 24,
          "midi": 36,
          "name": "C2",
          "ticks": 122112,
          "time": 171.89172000000002,
          "velocity": 0.984251968503937
        },
        {
          "duration": 0.03378374999999778,
          "durationTicks": 24,
          "midi": 36,
          "name": "C2",
          "ticks": 122880,
          "time": 172.9728,
          "velocity": 0.968503937007874
        },
        {
          "duration": 0.03378374999999778,
          "durationTicks": 24,
          "midi": 36,
          "name": "C2",
          "ticks": 123072,
          "time": 173.24307000000002,
          "velocity": 0.9921259842519685
        },
        {
          "duration": 0.03378374999999778,
          "durationTicks": 24,
          "midi": 36,
          "name": "C2",
          "ticks": 123456,
          "time": 173.78361,
          "velocity": 0.968503937007874
        },
        {
          "duration": 0.0337837500000262,
          "durationTicks": 24,
          "midi": 36,
          "name": "C2",
          "ticks": 123648,
          "time": 174.05388,
          "velocity": 0.968503937007874
        },
        {
          "duration": 0.03378374999999778,
          "durationTicks": 24,
          "midi": 36,
          "name": "C2",
          "ticks": 124416,
          "time": 175.13496,
          "velocity": 1
        },
        {
          "duration": 0.03378374999999778,
          "durationTicks": 24,
          "midi": 36,
          "name": "C2",
          "ticks": 124992,
          "time": 175.94577,
          "velocity": 0.984251968503937
        },
        {
          "duration": 0.03378374999999778,
          "durationTicks": 24,
          "midi": 36,
          "name": "C2",
          "ticks": 125184,
          "time": 176.21604000000002,
          "velocity": 0.984251968503937
        },
        {
          "duration": 0.03378374999999778,
          "durationTicks": 24,
          "midi": 36,
          "name": "C2",
          "ticks": 125952,
          "time": 177.29712,
          "velocity": 0.968503937007874
        },
        {
          "duration": 0.03378374999999778,
          "durationTicks": 24,
          "midi": 36,
          "name": "C2",
          "ticks": 126144,
          "time": 177.56739000000002,
          "velocity": 0.9921259842519685
        },
        {
          "duration": 0.03378374999999778,
          "durationTicks": 24,
          "midi": 36,
          "name": "C2",
          "ticks": 126528,
          "time": 178.10793,
          "velocity": 0.968503937007874
        },
        {
          "duration": 0.0337837500000262,
          "durationTicks": 24,
          "midi": 36,
          "name": "C2",
          "ticks": 126720,
          "time": 178.3782,
          "velocity": 0.968503937007874
        },
        {
          "duration": 0.03378374999999778,
          "durationTicks": 24,
          "midi": 36,
          "name": "C2",
          "ticks": 127488,
          "time": 179.45928,
          "velocity": 1
        },
        {
          "duration": 0.03378374999999778,
          "durationTicks": 24,
          "midi": 36,
          "name": "C2",
          "ticks": 128064,
          "time": 180.27009,
          "velocity": 0.984251968503937
        },
        {
          "duration": 0.03378374999999778,
          "durationTicks": 24,
          "midi": 36,
          "name": "C2",
          "ticks": 128256,
          "time": 180.54036000000002,
          "velocity": 0.984251968503937
        },
        {
          "duration": 0.03378374999999778,
          "durationTicks": 24,
          "midi": 36,
          "name": "C2",
          "ticks": 129024,
          "time": 181.62144,
          "velocity": 0.968503937007874
        },
        {
          "duration": 0.03378374999999778,
          "durationTicks": 24,
          "midi": 36,
          "name": "C2",
          "ticks": 129216,
          "time": 181.89171000000002,
          "velocity": 0.9921259842519685
        },
        {
          "duration": 0.03378374999999778,
          "durationTicks": 24,
          "midi": 36,
          "name": "C2",
          "ticks": 129600,
          "time": 182.43225,
          "velocity": 0.968503937007874
        },
        {
          "duration": 0.0337837500000262,
          "durationTicks": 24,
          "midi": 36,
          "name": "C2",
          "ticks": 129792,
          "time": 182.70252,
          "velocity": 0.968503937007874
        },
        {
          "duration": 0.03378374999999778,
          "durationTicks": 24,
          "midi": 36,
          "name": "C2",
          "ticks": 130560,
          "time": 183.7836,
          "velocity": 1
        },
        {
          "duration": 0.03378374999999778,
          "durationTicks": 24,
          "midi": 36,
          "name": "C2",
          "ticks": 131136,
          "time": 184.59441,
          "velocity": 0.984251968503937
        },
        {
          "duration": 0.03378374999999778,
          "durationTicks": 24,
          "midi": 36,
          "name": "C2",
          "ticks": 131328,
          "time": 184.86468000000002,
          "velocity": 0.984251968503937
        },
        {
          "duration": 0.03378374999999778,
          "durationTicks": 24,
          "midi": 36,
          "name": "C2",
          "ticks": 132096,
          "time": 185.94576,
          "velocity": 0.968503937007874
        },
        {
          "duration": 0.03378374999999778,
          "durationTicks": 24,
          "midi": 36,
          "name": "C2",
          "ticks": 132288,
          "time": 186.21603000000002,
          "velocity": 0.9921259842519685
        },
        {
          "duration": 0.03378374999999778,
          "durationTicks": 24,
          "midi": 36,
          "name": "C2",
          "ticks": 132672,
          "time": 186.75657,
          "velocity": 0.968503937007874
        },
        {
          "duration": 0.0337837500000262,
          "durationTicks": 24,
          "midi": 36,
          "name": "C2",
          "ticks": 132864,
          "time": 187.02684,
          "velocity": 0.968503937007874
        },
        {
          "duration": 0.03378374999999778,
          "durationTicks": 24,
          "midi": 36,
          "name": "C2",
          "ticks": 133632,
          "time": 188.10792,
          "velocity": 1
        },
        {
          "duration": 0.03378374999999778,
          "durationTicks": 24,
          "midi": 36,
          "name": "C2",
          "ticks": 134208,
          "time": 188.91873,
          "velocity": 0.984251968503937
        },
        {
          "duration": 0.03378374999999778,
          "durationTicks": 24,
          "midi": 36,
          "name": "C2",
          "ticks": 134400,
          "time": 189.18900000000002,
          "velocity": 0.984251968503937
        },
        {
          "duration": 0.03378374999999778,
          "durationTicks": 24,
          "midi": 36,
          "name": "C2",
          "ticks": 135168,
          "time": 190.27008,
          "velocity": 0.968503937007874
        },
        {
          "duration": 0.03378374999999778,
          "durationTicks": 24,
          "midi": 36,
          "name": "C2",
          "ticks": 135360,
          "time": 190.54035000000002,
          "velocity": 0.9921259842519685
        },
        {
          "duration": 0.03378374999999778,
          "durationTicks": 24,
          "midi": 36,
          "name": "C2",
          "ticks": 135744,
          "time": 191.08089,
          "velocity": 0.968503937007874
        },
        {
          "duration": 0.0337837500000262,
          "durationTicks": 24,
          "midi": 36,
          "name": "C2",
          "ticks": 135936,
          "time": 191.35116,
          "velocity": 0.968503937007874
        },
        {
          "duration": 0.03378374999999778,
          "durationTicks": 24,
          "midi": 36,
          "name": "C2",
          "ticks": 136704,
          "time": 192.43224,
          "velocity": 1
        },
        {
          "duration": 0.03378374999999778,
          "durationTicks": 24,
          "midi": 36,
          "name": "C2",
          "ticks": 137280,
          "time": 193.24305,
          "velocity": 0.984251968503937
        },
        {
          "duration": 0.03378374999999778,
          "durationTicks": 24,
          "midi": 36,
          "name": "C2",
          "ticks": 137472,
          "time": 193.51332000000002,
          "velocity": 0.984251968503937
        },
        {
          "duration": 0.03378374999999778,
          "durationTicks": 24,
          "midi": 36,
          "name": "C2",
          "ticks": 138240,
          "time": 194.5944,
          "velocity": 0.968503937007874
        },
        {
          "duration": 0.03378374999999778,
          "durationTicks": 24,
          "midi": 36,
          "name": "C2",
          "ticks": 138432,
          "time": 194.86467000000002,
          "velocity": 0.9921259842519685
        },
        {
          "duration": 0.03378374999999778,
          "durationTicks": 24,
          "midi": 36,
          "name": "C2",
          "ticks": 138816,
          "time": 195.40521,
          "velocity": 0.968503937007874
        },
        {
          "duration": 0.0337837500000262,
          "durationTicks": 24,
          "midi": 36,
          "name": "C2",
          "ticks": 139008,
          "time": 195.67548,
          "velocity": 0.968503937007874
        },
        {
          "duration": 0.03378374999999778,
          "durationTicks": 24,
          "midi": 36,
          "name": "C2",
          "ticks": 139776,
          "time": 196.75656,
          "velocity": 1
        },
        {
          "duration": 0.03378374999999778,
          "durationTicks": 24,
          "midi": 36,
          "name": "C2",
          "ticks": 140352,
          "time": 197.56737,
          "velocity": 0.984251968503937
        },
        {
          "duration": 0.03378374999999778,
          "durationTicks": 24,
          "midi": 36,
          "name": "C2",
          "ticks": 140544,
          "time": 197.83764000000002,
          "velocity": 0.984251968503937
        },
        {
          "duration": 0.03378374999999778,
          "durationTicks": 24,
          "midi": 36,
          "name": "C2",
          "ticks": 141312,
          "time": 198.91872,
          "velocity": 0.968503937007874
        },
        {
          "duration": 0.03378374999999778,
          "durationTicks": 24,
          "midi": 36,
          "name": "C2",
          "ticks": 141504,
          "time": 199.18899000000002,
          "velocity": 0.9921259842519685
        },
        {
          "duration": 0.03378374999999778,
          "durationTicks": 24,
          "midi": 36,
          "name": "C2",
          "ticks": 141888,
          "time": 199.72953,
          "velocity": 0.968503937007874
        },
        {
          "duration": 0.0337837500000262,
          "durationTicks": 24,
          "midi": 36,
          "name": "C2",
          "ticks": 142080,
          "time": 199.9998,
          "velocity": 0.968503937007874
        },
        {
          "duration": 0.03378374999999778,
          "durationTicks": 24,
          "midi": 36,
          "name": "C2",
          "ticks": 142848,
          "time": 201.08088,
          "velocity": 1
        },
        {
          "duration": 0.03378374999999778,
          "durationTicks": 24,
          "midi": 36,
          "name": "C2",
          "ticks": 143424,
          "time": 201.89169,
          "velocity": 0.984251968503937
        },
        {
          "duration": 0.03378374999999778,
          "durationTicks": 24,
          "midi": 36,
          "name": "C2",
          "ticks": 143616,
          "time": 202.16196000000002,
          "velocity": 0.984251968503937
        },
        {
          "duration": 0.03378374999999778,
          "durationTicks": 24,
          "midi": 36,
          "name": "C2",
          "ticks": 144384,
          "time": 203.24304,
          "velocity": 0.968503937007874
        },
        {
          "duration": 0.03378374999999778,
          "durationTicks": 24,
          "midi": 36,
          "name": "C2",
          "ticks": 144576,
          "time": 203.51331000000002,
          "velocity": 0.9921259842519685
        },
        {
          "duration": 0.03378374999999778,
          "durationTicks": 24,
          "midi": 36,
          "name": "C2",
          "ticks": 144960,
          "time": 204.05385,
          "velocity": 0.968503937007874
        },
        {
          "duration": 0.0337837500000262,
          "durationTicks": 24,
          "midi": 36,
          "name": "C2",
          "ticks": 145152,
          "time": 204.32412,
          "velocity": 0.968503937007874
        },
        {
          "duration": 0.03378374999999778,
          "durationTicks": 24,
          "midi": 36,
          "name": "C2",
          "ticks": 145920,
          "time": 205.4052,
          "velocity": 1
        },
        {
          "duration": 0.03378374999999778,
          "durationTicks": 24,
          "midi": 36,
          "name": "C2",
          "ticks": 146496,
          "time": 206.21601,
          "velocity": 0.984251968503937
        },
        {
          "duration": 0.03378374999999778,
          "durationTicks": 24,
          "midi": 36,
          "name": "C2",
          "ticks": 146688,
          "time": 206.48628000000002,
          "velocity": 0.984251968503937
        },
        {
          "duration": 0.03378374999999778,
          "durationTicks": 24,
          "midi": 36,
          "name": "C2",
          "ticks": 147456,
          "time": 207.56736,
          "velocity": 0.968503937007874
        },
        {
          "duration": 0.03378374999999778,
          "durationTicks": 24,
          "midi": 36,
          "name": "C2",
          "ticks": 147648,
          "time": 207.83763000000002,
          "velocity": 0.9921259842519685
        },
        {
          "duration": 0.03378374999999778,
          "durationTicks": 24,
          "midi": 36,
          "name": "C2",
          "ticks": 148032,
          "time": 208.37817,
          "velocity": 0.968503937007874
        },
        {
          "duration": 0.0337837500000262,
          "durationTicks": 24,
          "midi": 36,
          "name": "C2",
          "ticks": 148224,
          "time": 208.64844,
          "velocity": 0.968503937007874
        },
        {
          "duration": 0.03378374999999778,
          "durationTicks": 24,
          "midi": 36,
          "name": "C2",
          "ticks": 148992,
          "time": 209.72952,
          "velocity": 1
        },
        {
          "duration": 0.03378374999999778,
          "durationTicks": 24,
          "midi": 36,
          "name": "C2",
          "ticks": 149568,
          "time": 210.54033,
          "velocity": 0.984251968503937
        },
        {
          "duration": 0.03378374999999778,
          "durationTicks": 24,
          "midi": 36,
          "name": "C2",
          "ticks": 149760,
          "time": 210.81060000000002,
          "velocity": 0.984251968503937
        },
        {
          "duration": 0.03378374999999778,
          "durationTicks": 24,
          "midi": 36,
          "name": "C2",
          "ticks": 150528,
          "time": 211.89168,
          "velocity": 0.968503937007874
        },
        {
          "duration": 0.03378374999999778,
          "durationTicks": 24,
          "midi": 36,
          "name": "C2",
          "ticks": 150720,
          "time": 212.16195000000002,
          "velocity": 0.9921259842519685
        },
        {
          "duration": 0.03378374999999778,
          "durationTicks": 24,
          "midi": 36,
          "name": "C2",
          "ticks": 151104,
          "time": 212.70249,
          "velocity": 1
        }
      ]
    },
    {
      "channel": 9,
      "controlChanges": {},
      "pitchBends": [],
      "instrument": {
        "family": "drums",
        "name": "standard kit",
        "number": 0
      },
      "name": "Snare Dru",
      "notes": [
        {
          "duration": 0.03378375,
          "durationTicks": 24,
          "midi": 38,
          "name": "D2",
          "ticks": 1920,
          "time": 2.7027,
          "velocity": 1
        },
        {
          "duration": 0.03378375,
          "durationTicks": 24,
          "midi": 38,
          "name": "D2",
          "ticks": 2688,
          "time": 3.78378,
          "velocity": 0.984251968503937
        },
        {
          "duration": 0.03378374999999956,
          "durationTicks": 24,
          "midi": 38,
          "name": "D2",
          "ticks": 3456,
          "time": 4.86486,
          "velocity": 1
        },
        {
          "duration": 0.03378374999999956,
          "durationTicks": 24,
          "midi": 38,
          "name": "D2",
          "ticks": 4224,
          "time": 5.94594,
          "velocity": 0.984251968503937
        },
        {
          "duration": 0.03378374999999956,
          "durationTicks": 24,
          "midi": 38,
          "name": "D2",
          "ticks": 4992,
          "time": 7.02702,
          "velocity": 1
        },
        {
          "duration": 0.03378374999999956,
          "durationTicks": 24,
          "midi": 38,
          "name": "D2",
          "ticks": 5760,
          "time": 8.1081,
          "velocity": 0.984251968503937
        },
        {
          "duration": 0.03378374999999956,
          "durationTicks": 24,
          "midi": 38,
          "name": "D2",
          "ticks": 6528,
          "time": 9.18918,
          "velocity": 1
        },
        {
          "duration": 0.03378374999999956,
          "durationTicks": 24,
          "midi": 38,
          "name": "D2",
          "ticks": 7296,
          "time": 10.27026,
          "velocity": 0.984251968503937
        },
        {
          "duration": 0.03378374999999956,
          "durationTicks": 24,
          "midi": 38,
          "name": "D2",
          "ticks": 8064,
          "time": 11.35134,
          "velocity": 1
        },
        {
          "duration": 0.03378374999999956,
          "durationTicks": 24,
          "midi": 38,
          "name": "D2",
          "ticks": 8832,
          "time": 12.43242,
          "velocity": 0.984251968503937
        },
        {
          "duration": 0.03378374999999956,
          "durationTicks": 24,
          "midi": 38,
          "name": "D2",
          "ticks": 9600,
          "time": 13.5135,
          "velocity": 1
        },
        {
          "duration": 0.03378374999999956,
          "durationTicks": 24,
          "midi": 38,
          "name": "D2",
          "ticks": 10368,
          "time": 14.59458,
          "velocity": 0.984251968503937
        },
        {
          "duration": 0.03378374999999956,
          "durationTicks": 24,
          "midi": 38,
          "name": "D2",
          "ticks": 11136,
          "time": 15.67566,
          "velocity": 1
        },
        {
          "duration": 0.033783750000001334,
          "durationTicks": 24,
          "midi": 38,
          "name": "D2",
          "ticks": 11904,
          "time": 16.75674,
          "velocity": 0.984251968503937
        },
        {
          "duration": 0.033783750000001334,
          "durationTicks": 24,
          "midi": 38,
          "name": "D2",
          "ticks": 12672,
          "time": 17.83782,
          "velocity": 1
        },
        {
          "duration": 0.033783750000001334,
          "durationTicks": 24,
          "midi": 38,
          "name": "D2",
          "ticks": 13440,
          "time": 18.9189,
          "velocity": 0.984251968503937
        },
        {
          "duration": 0.033783750000001334,
          "durationTicks": 24,
          "midi": 38,
          "name": "D2",
          "ticks": 14208,
          "time": 19.99998,
          "velocity": 1
        },
        {
          "duration": 0.033783750000001334,
          "durationTicks": 24,
          "midi": 38,
          "name": "D2",
          "ticks": 14976,
          "time": 21.08106,
          "velocity": 0.984251968503937
        },
        {
          "duration": 0.033783750000001334,
          "durationTicks": 24,
          "midi": 38,
          "name": "D2",
          "ticks": 15744,
          "time": 22.16214,
          "velocity": 1
        },
        {
          "duration": 0.033783750000001334,
          "durationTicks": 24,
          "midi": 38,
          "name": "D2",
          "ticks": 16512,
          "time": 23.24322,
          "velocity": 0.984251968503937
        },
        {
          "duration": 0.033783750000001334,
          "durationTicks": 24,
          "midi": 38,
          "name": "D2",
          "ticks": 17280,
          "time": 24.3243,
          "velocity": 1
        },
        {
          "duration": 0.033783750000001334,
          "durationTicks": 24,
          "midi": 38,
          "name": "D2",
          "ticks": 18048,
          "time": 25.40538,
          "velocity": 0.984251968503937
        },
        {
          "duration": 0.033783750000001334,
          "durationTicks": 24,
          "midi": 38,
          "name": "D2",
          "ticks": 18816,
          "time": 26.48646,
          "velocity": 1
        },
        {
          "duration": 0.033783750000001334,
          "durationTicks": 24,
          "midi": 38,
          "name": "D2",
          "ticks": 19584,
          "time": 27.56754,
          "velocity": 0.984251968503937
        },
        {
          "duration": 0.033783750000001334,
          "durationTicks": 24,
          "midi": 38,
          "name": "D2",
          "ticks": 20352,
          "time": 28.64862,
          "velocity": 1
        },
        {
          "duration": 0.033783750000001334,
          "durationTicks": 24,
          "midi": 38,
          "name": "D2",
          "ticks": 21120,
          "time": 29.7297,
          "velocity": 0.984251968503937
        },
        {
          "duration": 0.033783750000001334,
          "durationTicks": 24,
          "midi": 38,
          "name": "D2",
          "ticks": 21888,
          "time": 30.81078,
          "velocity": 1
        },
        {
          "duration": 0.033783750000001334,
          "durationTicks": 24,
          "midi": 38,
          "name": "D2",
          "ticks": 22656,
          "time": 31.89186,
          "velocity": 0.984251968503937
        },
        {
          "duration": 0.03378374999999778,
          "durationTicks": 24,
          "midi": 38,
          "name": "D2",
          "ticks": 23424,
          "time": 32.97294,
          "velocity": 1
        },
        {
          "duration": 0.03378374999999778,
          "durationTicks": 24,
          "midi": 38,
          "name": "D2",
          "ticks": 24192,
          "time": 34.05402,
          "velocity": 0.984251968503937
        },
        {
          "duration": 0.03378374999999778,
          "durationTicks": 24,
          "midi": 38,
          "name": "D2",
          "ticks": 24960,
          "time": 35.1351,
          "velocity": 1
        },
        {
          "duration": 0.03378374999999778,
          "durationTicks": 24,
          "midi": 38,
          "name": "D2",
          "ticks": 25728,
          "time": 36.21618,
          "velocity": 0.984251968503937
        },
        {
          "duration": 0.03378374999999778,
          "durationTicks": 24,
          "midi": 38,
          "name": "D2",
          "ticks": 26496,
          "time": 37.29726,
          "velocity": 1
        },
        {
          "duration": 0.03378374999999778,
          "durationTicks": 24,
          "midi": 38,
          "name": "D2",
          "ticks": 27264,
          "time": 38.37834,
          "velocity": 0.984251968503937
        },
        {
          "duration": 0.03378374999999778,
          "durationTicks": 24,
          "midi": 38,
          "name": "D2",
          "ticks": 28032,
          "time": 39.45942,
          "velocity": 1
        },
        {
          "duration": 0.03378374999999778,
          "durationTicks": 24,
          "midi": 38,
          "name": "D2",
          "ticks": 28800,
          "time": 40.5405,
          "velocity": 0.984251968503937
        },
        {
          "duration": 0.03378374999999778,
          "durationTicks": 24,
          "midi": 38,
          "name": "D2",
          "ticks": 29568,
          "time": 41.62158,
          "velocity": 1
        },
        {
          "duration": 0.03378374999999778,
          "durationTicks": 24,
          "midi": 38,
          "name": "D2",
          "ticks": 30336,
          "time": 42.70266,
          "velocity": 0.984251968503937
        },
        {
          "duration": 0.03378374999999778,
          "durationTicks": 24,
          "midi": 38,
          "name": "D2",
          "ticks": 31104,
          "time": 43.78374,
          "velocity": 1
        },
        {
          "duration": 0.03378374999999778,
          "durationTicks": 24,
          "midi": 38,
          "name": "D2",
          "ticks": 31872,
          "time": 44.86482,
          "velocity": 0.984251968503937
        },
        {
          "duration": 0.03378374999999778,
          "durationTicks": 24,
          "midi": 38,
          "name": "D2",
          "ticks": 32640,
          "time": 45.9459,
          "velocity": 1
        },
        {
          "duration": 0.03378374999999778,
          "durationTicks": 24,
          "midi": 38,
          "name": "D2",
          "ticks": 33408,
          "time": 47.02698,
          "velocity": 0.984251968503937
        },
        {
          "duration": 0.03378374999999778,
          "durationTicks": 24,
          "midi": 38,
          "name": "D2",
          "ticks": 34176,
          "time": 48.10806,
          "velocity": 1
        },
        {
          "duration": 0.03378374999999778,
          "durationTicks": 24,
          "midi": 38,
          "name": "D2",
          "ticks": 34944,
          "time": 49.18914,
          "velocity": 0.984251968503937
        },
        {
          "duration": 0.03378374999999778,
          "durationTicks": 24,
          "midi": 38,
          "name": "D2",
          "ticks": 35712,
          "time": 50.27022,
          "velocity": 1
        },
        {
          "duration": 0.03378374999999778,
          "durationTicks": 24,
          "midi": 38,
          "name": "D2",
          "ticks": 36480,
          "time": 51.3513,
          "velocity": 0.984251968503937
        },
        {
          "duration": 0.03378374999999778,
          "durationTicks": 24,
          "midi": 38,
          "name": "D2",
          "ticks": 37248,
          "time": 52.43238,
          "velocity": 1
        },
        {
          "duration": 0.03378374999999778,
          "durationTicks": 24,
          "midi": 38,
          "name": "D2",
          "ticks": 38016,
          "time": 53.51346,
          "velocity": 0.984251968503937
        },
        {
          "duration": 0.03378374999999778,
          "durationTicks": 24,
          "midi": 38,
          "name": "D2",
          "ticks": 38784,
          "time": 54.59454,
          "velocity": 1
        },
        {
          "duration": 0.03378374999999778,
          "durationTicks": 24,
          "midi": 38,
          "name": "D2",
          "ticks": 39552,
          "time": 55.67562,
          "velocity": 0.984251968503937
        },
        {
          "duration": 0.03378374999999778,
          "durationTicks": 24,
          "midi": 38,
          "name": "D2",
          "ticks": 40320,
          "time": 56.7567,
          "velocity": 1
        },
        {
          "duration": 0.03378374999999778,
          "durationTicks": 24,
          "midi": 38,
          "name": "D2",
          "ticks": 41856,
          "time": 58.91886,
          "velocity": 1
        },
        {
          "duration": 0.03378374999999778,
          "durationTicks": 24,
          "midi": 38,
          "name": "D2",
          "ticks": 42624,
          "time": 59.99994,
          "velocity": 0.984251968503937
        },
        {
          "duration": 0.03378374999999778,
          "durationTicks": 24,
          "midi": 38,
          "name": "D2",
          "ticks": 43392,
          "time": 61.08102,
          "velocity": 1
        },
        {
          "duration": 0.03378374999999778,
          "durationTicks": 24,
          "midi": 38,
          "name": "D2",
          "ticks": 44160,
          "time": 62.1621,
          "velocity": 0.984251968503937
        },
        {
          "duration": 0.03378374999999778,
          "durationTicks": 24,
          "midi": 38,
          "name": "D2",
          "ticks": 44928,
          "time": 63.24318,
          "velocity": 1
        },
        {
          "duration": 0.03378374999999778,
          "durationTicks": 24,
          "midi": 38,
          "name": "D2",
          "ticks": 45696,
          "time": 64.32426000000001,
          "velocity": 0.984251968503937
        },
        {
          "duration": 0.03378375000001199,
          "durationTicks": 24,
          "midi": 38,
          "name": "D2",
          "ticks": 46464,
          "time": 65.40534,
          "velocity": 1
        },
        {
          "duration": 0.03378374999999778,
          "durationTicks": 24,
          "midi": 38,
          "name": "D2",
          "ticks": 47232,
          "time": 66.48642000000001,
          "velocity": 0.984251968503937
        },
        {
          "duration": 0.03378375000001199,
          "durationTicks": 24,
          "midi": 38,
          "name": "D2",
          "ticks": 48000,
          "time": 67.5675,
          "velocity": 1
        },
        {
          "duration": 0.03378374999999778,
          "durationTicks": 24,
          "midi": 38,
          "name": "D2",
          "ticks": 48768,
          "time": 68.64858000000001,
          "velocity": 0.984251968503937
        },
        {
          "duration": 0.03378375000001199,
          "durationTicks": 24,
          "midi": 38,
          "name": "D2",
          "ticks": 49536,
          "time": 69.72966,
          "velocity": 1
        },
        {
          "duration": 0.03378374999999778,
          "durationTicks": 24,
          "midi": 38,
          "name": "D2",
          "ticks": 50304,
          "time": 70.81074000000001,
          "velocity": 0.984251968503937
        },
        {
          "duration": 0.03378375000001199,
          "durationTicks": 24,
          "midi": 38,
          "name": "D2",
          "ticks": 51072,
          "time": 71.89182,
          "velocity": 1
        },
        {
          "duration": 0.03378374999999778,
          "durationTicks": 24,
          "midi": 38,
          "name": "D2",
          "ticks": 51840,
          "time": 72.97290000000001,
          "velocity": 0.984251968503937
        },
        {
          "duration": 0.03378375000001199,
          "durationTicks": 24,
          "midi": 38,
          "name": "D2",
          "ticks": 52608,
          "time": 74.05398,
          "velocity": 1
        },
        {
          "duration": 0.03378374999999778,
          "durationTicks": 24,
          "midi": 38,
          "name": "D2",
          "ticks": 53376,
          "time": 75.13506000000001,
          "velocity": 0.984251968503937
        },
        {
          "duration": 0.03378375000001199,
          "durationTicks": 24,
          "midi": 38,
          "name": "D2",
          "ticks": 54144,
          "time": 76.21614,
          "velocity": 1
        },
        {
          "duration": 0.03378374999999778,
          "durationTicks": 24,
          "midi": 38,
          "name": "D2",
          "ticks": 54912,
          "time": 77.29722000000001,
          "velocity": 0.984251968503937
        },
        {
          "duration": 0.03378375000001199,
          "durationTicks": 24,
          "midi": 38,
          "name": "D2",
          "ticks": 55680,
          "time": 78.3783,
          "velocity": 1
        },
        {
          "duration": 0.03378374999999778,
          "durationTicks": 24,
          "midi": 38,
          "name": "D2",
          "ticks": 56448,
          "time": 79.45938000000001,
          "velocity": 0.984251968503937
        },
        {
          "duration": 0.03378375000001199,
          "durationTicks": 24,
          "midi": 38,
          "name": "D2",
          "ticks": 57216,
          "time": 80.54046,
          "velocity": 1
        },
        {
          "duration": 0.03378374999999778,
          "durationTicks": 24,
          "midi": 38,
          "name": "D2",
          "ticks": 57984,
          "time": 81.62154000000001,
          "velocity": 0.984251968503937
        },
        {
          "duration": 0.03378375000001199,
          "durationTicks": 24,
          "midi": 38,
          "name": "D2",
          "ticks": 58752,
          "time": 82.70262,
          "velocity": 1
        },
        {
          "duration": 0.03378374999999778,
          "durationTicks": 24,
          "midi": 38,
          "name": "D2",
          "ticks": 59520,
          "time": 83.78370000000001,
          "velocity": 0.984251968503937
        },
        {
          "duration": 0.03378375000001199,
          "durationTicks": 24,
          "midi": 38,
          "name": "D2",
          "ticks": 60288,
          "time": 84.86478,
          "velocity": 1
        },
        {
          "duration": 0.03378374999999778,
          "durationTicks": 24,
          "midi": 38,
          "name": "D2",
          "ticks": 61056,
          "time": 85.94586000000001,
          "velocity": 0.984251968503937
        },
        {
          "duration": 0.03378375000001199,
          "durationTicks": 24,
          "midi": 38,
          "name": "D2",
          "ticks": 61824,
          "time": 87.02694,
          "velocity": 1
        },
        {
          "duration": 0.03378374999999778,
          "durationTicks": 24,
          "midi": 38,
          "name": "D2",
          "ticks": 62592,
          "time": 88.10802000000001,
          "velocity": 0.984251968503937
        },
        {
          "duration": 0.03378375000001199,
          "durationTicks": 24,
          "midi": 38,
          "name": "D2",
          "ticks": 63360,
          "time": 89.1891,
          "velocity": 1
        },
        {
          "duration": 0.03378374999999778,
          "durationTicks": 24,
          "midi": 38,
          "name": "D2",
          "ticks": 64128,
          "time": 90.27018000000001,
          "velocity": 0.984251968503937
        },
        {
          "duration": 0.03378375000001199,
          "durationTicks": 24,
          "midi": 38,
          "name": "D2",
          "ticks": 64896,
          "time": 91.35126,
          "velocity": 1
        },
        {
          "duration": 0.03378374999999778,
          "durationTicks": 24,
          "midi": 38,
          "name": "D2",
          "ticks": 65664,
          "time": 92.43234000000001,
          "velocity": 0.984251968503937
        },
        {
          "duration": 0.03378375000001199,
          "durationTicks": 24,
          "midi": 38,
          "name": "D2",
          "ticks": 66432,
          "time": 93.51342,
          "velocity": 1
        },
        {
          "duration": 0.03378374999999778,
          "durationTicks": 24,
          "midi": 38,
          "name": "D2",
          "ticks": 67200,
          "time": 94.59450000000001,
          "velocity": 0.984251968503937
        },
        {
          "duration": 0.03378375000001199,
          "durationTicks": 24,
          "midi": 38,
          "name": "D2",
          "ticks": 67968,
          "time": 95.67558,
          "velocity": 1
        },
        {
          "duration": 0.03378374999999778,
          "durationTicks": 24,
          "midi": 38,
          "name": "D2",
          "ticks": 68736,
          "time": 96.75666000000001,
          "velocity": 0.984251968503937
        },
        {
          "duration": 0.03378375000001199,
          "durationTicks": 24,
          "midi": 38,
          "name": "D2",
          "ticks": 69504,
          "time": 97.83774,
          "velocity": 1
        },
        {
          "duration": 0.03378374999999778,
          "durationTicks": 24,
          "midi": 38,
          "name": "D2",
          "ticks": 70272,
          "time": 98.91882000000001,
          "velocity": 0.984251968503937
        },
        {
          "duration": 0.03378375000001199,
          "durationTicks": 24,
          "midi": 38,
          "name": "D2",
          "ticks": 71040,
          "time": 99.9999,
          "velocity": 1
        },
        {
          "duration": 0.03378374999999778,
          "durationTicks": 24,
          "midi": 38,
          "name": "D2",
          "ticks": 71808,
          "time": 101.08098000000001,
          "velocity": 0.984251968503937
        },
        {
          "duration": 0.03378375000001199,
          "durationTicks": 24,
          "midi": 38,
          "name": "D2",
          "ticks": 72576,
          "time": 102.16206,
          "velocity": 1
        },
        {
          "duration": 0.03378374999999778,
          "durationTicks": 24,
          "midi": 38,
          "name": "D2",
          "ticks": 73344,
          "time": 103.24314000000001,
          "velocity": 0.984251968503937
        },
        {
          "duration": 0.03378375000001199,
          "durationTicks": 24,
          "midi": 38,
          "name": "D2",
          "ticks": 74112,
          "time": 104.32422,
          "velocity": 1
        },
        {
          "duration": 0.03378374999999778,
          "durationTicks": 24,
          "midi": 38,
          "name": "D2",
          "ticks": 74880,
          "time": 105.40530000000001,
          "velocity": 0.984251968503937
        },
        {
          "duration": 0.03378375000001199,
          "durationTicks": 24,
          "midi": 38,
          "name": "D2",
          "ticks": 75648,
          "time": 106.48638,
          "velocity": 1
        },
        {
          "duration": 0.03378374999999778,
          "durationTicks": 24,
          "midi": 38,
          "name": "D2",
          "ticks": 76416,
          "time": 107.56746000000001,
          "velocity": 0.984251968503937
        },
        {
          "duration": 0.03378375000001199,
          "durationTicks": 24,
          "midi": 38,
          "name": "D2",
          "ticks": 77184,
          "time": 108.64854,
          "velocity": 1
        },
        {
          "duration": 0.03378375000001199,
          "durationTicks": 24,
          "midi": 38,
          "name": "D2",
          "ticks": 78720,
          "time": 110.8107,
          "velocity": 1
        },
        {
          "duration": 0.03378374999999778,
          "durationTicks": 24,
          "midi": 38,
          "name": "D2",
          "ticks": 79488,
          "time": 111.89178000000001,
          "velocity": 0.984251968503937
        },
        {
          "duration": 0.03378375000001199,
          "durationTicks": 24,
          "midi": 38,
          "name": "D2",
          "ticks": 80256,
          "time": 112.97286,
          "velocity": 1
        },
        {
          "duration": 0.03378374999999778,
          "durationTicks": 24,
          "midi": 38,
          "name": "D2",
          "ticks": 81024,
          "time": 114.05394000000001,
          "velocity": 0.984251968503937
        },
        {
          "duration": 0.03378375000001199,
          "durationTicks": 24,
          "midi": 38,
          "name": "D2",
          "ticks": 81792,
          "time": 115.13502,
          "velocity": 1
        },
        {
          "duration": 0.03378374999999778,
          "durationTicks": 24,
          "midi": 38,
          "name": "D2",
          "ticks": 82560,
          "time": 116.21610000000001,
          "velocity": 0.984251968503937
        },
        {
          "duration": 0.03378375000001199,
          "durationTicks": 24,
          "midi": 38,
          "name": "D2",
          "ticks": 83328,
          "time": 117.29718,
          "velocity": 1
        },
        {
          "duration": 0.03378374999999778,
          "durationTicks": 24,
          "midi": 38,
          "name": "D2",
          "ticks": 84096,
          "time": 118.37826000000001,
          "velocity": 0.984251968503937
        },
        {
          "duration": 0.03378375000001199,
          "durationTicks": 24,
          "midi": 38,
          "name": "D2",
          "ticks": 84864,
          "time": 119.45934,
          "velocity": 1
        },
        {
          "duration": 0.03378374999999778,
          "durationTicks": 24,
          "midi": 38,
          "name": "D2",
          "ticks": 85632,
          "time": 120.54042000000001,
          "velocity": 0.984251968503937
        },
        {
          "duration": 0.03378375000001199,
          "durationTicks": 24,
          "midi": 38,
          "name": "D2",
          "ticks": 86400,
          "time": 121.6215,
          "velocity": 1
        },
        {
          "duration": 0.03378374999999778,
          "durationTicks": 24,
          "midi": 38,
          "name": "D2",
          "ticks": 87168,
          "time": 122.70258000000001,
          "velocity": 0.984251968503937
        },
        {
          "duration": 0.03378375000001199,
          "durationTicks": 24,
          "midi": 38,
          "name": "D2",
          "ticks": 87936,
          "time": 123.78366,
          "velocity": 1
        },
        {
          "duration": 0.03378374999999778,
          "durationTicks": 24,
          "midi": 38,
          "name": "D2",
          "ticks": 88704,
          "time": 124.86474000000001,
          "velocity": 0.984251968503937
        },
        {
          "duration": 0.03378375000001199,
          "durationTicks": 24,
          "midi": 38,
          "name": "D2",
          "ticks": 89472,
          "time": 125.94582,
          "velocity": 1
        },
        {
          "duration": 0.03378374999999778,
          "durationTicks": 24,
          "midi": 38,
          "name": "D2",
          "ticks": 90240,
          "time": 127.02690000000001,
          "velocity": 0.984251968503937
        },
        {
          "duration": 0.03378374999999778,
          "durationTicks": 24,
          "midi": 38,
          "name": "D2",
          "ticks": 91008,
          "time": 128.10798,
          "velocity": 1
        },
        {
          "duration": 0.03378374999999778,
          "durationTicks": 24,
          "midi": 38,
          "name": "D2",
          "ticks": 91776,
          "time": 129.18906,
          "velocity": 0.984251968503937
        },
        {
          "duration": 0.03378374999999778,
          "durationTicks": 24,
          "midi": 38,
          "name": "D2",
          "ticks": 92544,
          "time": 130.27014,
          "velocity": 1
        },
        {
          "duration": 0.03378374999999778,
          "durationTicks": 24,
          "midi": 38,
          "name": "D2",
          "ticks": 93312,
          "time": 131.35122,
          "velocity": 0.984251968503937
        },
        {
          "duration": 0.03378374999999778,
          "durationTicks": 24,
          "midi": 38,
          "name": "D2",
          "ticks": 94080,
          "time": 132.4323,
          "velocity": 1
        },
        {
          "duration": 0.03378374999999778,
          "durationTicks": 24,
          "midi": 38,
          "name": "D2",
          "ticks": 94848,
          "time": 133.51338,
          "velocity": 0.984251968503937
        },
        {
          "duration": 0.03378374999999778,
          "durationTicks": 24,
          "midi": 38,
          "name": "D2",
          "ticks": 95616,
          "time": 134.59446,
          "velocity": 1
        },
        {
          "duration": 0.03378374999999778,
          "durationTicks": 24,
          "midi": 38,
          "name": "D2",
          "ticks": 96384,
          "time": 135.67554,
          "velocity": 0.984251968503937
        },
        {
          "duration": 0.03378374999999778,
          "durationTicks": 24,
          "midi": 38,
          "name": "D2",
          "ticks": 97152,
          "time": 136.75662,
          "velocity": 1
        },
        {
          "duration": 0.03378374999999778,
          "durationTicks": 24,
          "midi": 38,
          "name": "D2",
          "ticks": 97920,
          "time": 137.8377,
          "velocity": 0.984251968503937
        },
        {
          "duration": 0.03378374999999778,
          "durationTicks": 24,
          "midi": 38,
          "name": "D2",
          "ticks": 98688,
          "time": 138.91878,
          "velocity": 1
        },
        {
          "duration": 0.03378374999999778,
          "durationTicks": 24,
          "midi": 38,
          "name": "D2",
          "ticks": 99456,
          "time": 139.99986,
          "velocity": 0.984251968503937
        },
        {
          "duration": 0.03378374999999778,
          "durationTicks": 24,
          "midi": 38,
          "name": "D2",
          "ticks": 100224,
          "time": 141.08094,
          "velocity": 1
        },
        {
          "duration": 0.03378374999999778,
          "durationTicks": 24,
          "midi": 38,
          "name": "D2",
          "ticks": 100992,
          "time": 142.16202,
          "velocity": 0.984251968503937
        },
        {
          "duration": 0.03378374999999778,
          "durationTicks": 24,
          "midi": 38,
          "name": "D2",
          "ticks": 101760,
          "time": 143.2431,
          "velocity": 1
        },
        {
          "duration": 0.03378374999999778,
          "durationTicks": 24,
          "midi": 38,
          "name": "D2",
          "ticks": 102528,
          "time": 144.32418,
          "velocity": 0.984251968503937
        },
        {
          "duration": 0.03378374999999778,
          "durationTicks": 24,
          "midi": 38,
          "name": "D2",
          "ticks": 103296,
          "time": 145.40526,
          "velocity": 1
        },
        {
          "duration": 0.03378374999999778,
          "durationTicks": 24,
          "midi": 38,
          "name": "D2",
          "ticks": 104064,
          "time": 146.48634,
          "velocity": 0.984251968503937
        },
        {
          "duration": 0.03378374999999778,
          "durationTicks": 24,
          "midi": 38,
          "name": "D2",
          "ticks": 104832,
          "time": 147.56742,
          "velocity": 1
        },
        {
          "duration": 0.03378374999999778,
          "durationTicks": 24,
          "midi": 38,
          "name": "D2",
          "ticks": 105600,
          "time": 148.6485,
          "velocity": 0.984251968503937
        },
        {
          "duration": 0.03378374999999778,
          "durationTicks": 24,
          "midi": 38,
          "name": "D2",
          "ticks": 106368,
          "time": 149.72958,
          "velocity": 1
        },
        {
          "duration": 0.03378374999999778,
          "durationTicks": 24,
          "midi": 38,
          "name": "D2",
          "ticks": 107136,
          "time": 150.81066,
          "velocity": 0.984251968503937
        },
        {
          "duration": 0.03378374999999778,
          "durationTicks": 24,
          "midi": 38,
          "name": "D2",
          "ticks": 107904,
          "time": 151.89174,
          "velocity": 1
        },
        {
          "duration": 0.03378374999999778,
          "durationTicks": 24,
          "midi": 38,
          "name": "D2",
          "ticks": 108672,
          "time": 152.97282,
          "velocity": 0.984251968503937
        },
        {
          "duration": 0.03378374999999778,
          "durationTicks": 24,
          "midi": 38,
          "name": "D2",
          "ticks": 109440,
          "time": 154.0539,
          "velocity": 1
        },
        {
          "duration": 0.03378374999999778,
          "durationTicks": 24,
          "midi": 38,
          "name": "D2",
          "ticks": 110208,
          "time": 155.13498,
          "velocity": 0.984251968503937
        },
        {
          "duration": 0.03378374999999778,
          "durationTicks": 24,
          "midi": 38,
          "name": "D2",
          "ticks": 110976,
          "time": 156.21606,
          "velocity": 1
        },
        {
          "duration": 0.03378374999999778,
          "durationTicks": 24,
          "midi": 38,
          "name": "D2",
          "ticks": 111744,
          "time": 157.29714,
          "velocity": 0.984251968503937
        },
        {
          "duration": 0.03378374999999778,
          "durationTicks": 24,
          "midi": 38,
          "name": "D2",
          "ticks": 112512,
          "time": 158.37822,
          "velocity": 1
        },
        {
          "duration": 0.03378374999999778,
          "durationTicks": 24,
          "midi": 38,
          "name": "D2",
          "ticks": 113280,
          "time": 159.4593,
          "velocity": 0.984251968503937
        },
        {
          "duration": 0.03378374999999778,
          "durationTicks": 24,
          "midi": 38,
          "name": "D2",
          "ticks": 114048,
          "time": 160.54038,
          "velocity": 1
        },
        {
          "duration": 0.03378374999999778,
          "durationTicks": 24,
          "midi": 38,
          "name": "D2",
          "ticks": 115584,
          "time": 162.70254,
          "velocity": 1
        },
        {
          "duration": 0.03378374999999778,
          "durationTicks": 24,
          "midi": 38,
          "name": "D2",
          "ticks": 116352,
          "time": 163.78362,
          "velocity": 0.984251968503937
        },
        {
          "duration": 0.03378374999999778,
          "durationTicks": 24,
          "midi": 38,
          "name": "D2",
          "ticks": 117120,
          "time": 164.8647,
          "velocity": 1
        },
        {
          "duration": 0.03378374999999778,
          "durationTicks": 24,
          "midi": 38,
          "name": "D2",
          "ticks": 117888,
          "time": 165.94578,
          "velocity": 0.984251968503937
        },
        {
          "duration": 0.03378374999999778,
          "durationTicks": 24,
          "midi": 38,
          "name": "D2",
          "ticks": 118656,
          "time": 167.02686,
          "velocity": 1
        },
        {
          "duration": 0.03378374999999778,
          "durationTicks": 24,
          "midi": 38,
          "name": "D2",
          "ticks": 119424,
          "time": 168.10794,
          "velocity": 0.984251968503937
        },
        {
          "duration": 0.03378374999999778,
          "durationTicks": 24,
          "midi": 38,
          "name": "D2",
          "ticks": 120192,
          "time": 169.18902,
          "velocity": 1
        },
        {
          "duration": 0.03378374999999778,
          "durationTicks": 24,
          "midi": 38,
          "name": "D2",
          "ticks": 120960,
          "time": 170.2701,
          "velocity": 0.984251968503937
        },
        {
          "duration": 0.03378374999999778,
          "durationTicks": 24,
          "midi": 38,
          "name": "D2",
          "ticks": 121728,
          "time": 171.35118,
          "velocity": 1
        },
        {
          "duration": 0.03378374999999778,
          "durationTicks": 24,
          "midi": 38,
          "name": "D2",
          "ticks": 122496,
          "time": 172.43226,
          "velocity": 0.984251968503937
        },
        {
          "duration": 0.03378374999999778,
          "durationTicks": 24,
          "midi": 38,
          "name": "D2",
          "ticks": 123264,
          "time": 173.51334,
          "velocity": 1
        },
        {
          "duration": 0.03378374999999778,
          "durationTicks": 24,
          "midi": 38,
          "name": "D2",
          "ticks": 124032,
          "time": 174.59442,
          "velocity": 0.984251968503937
        },
        {
          "duration": 0.03378374999999778,
          "durationTicks": 24,
          "midi": 38,
          "name": "D2",
          "ticks": 124800,
          "time": 175.6755,
          "velocity": 1
        },
        {
          "duration": 0.03378374999999778,
          "durationTicks": 24,
          "midi": 38,
          "name": "D2",
          "ticks": 125568,
          "time": 176.75658,
          "velocity": 0.984251968503937
        },
        {
          "duration": 0.03378374999999778,
          "durationTicks": 24,
          "midi": 38,
          "name": "D2",
          "ticks": 126336,
          "time": 177.83766,
          "velocity": 1
        },
        {
          "duration": 0.03378374999999778,
          "durationTicks": 24,
          "midi": 38,
          "name": "D2",
          "ticks": 127104,
          "time": 178.91874,
          "velocity": 0.984251968503937
        },
        {
          "duration": 0.03378374999999778,
          "durationTicks": 24,
          "midi": 38,
          "name": "D2",
          "ticks": 127872,
          "time": 179.99982,
          "velocity": 1
        },
        {
          "duration": 0.03378374999999778,
          "durationTicks": 24,
          "midi": 38,
          "name": "D2",
          "ticks": 128640,
          "time": 181.0809,
          "velocity": 0.984251968503937
        },
        {
          "duration": 0.03378374999999778,
          "durationTicks": 24,
          "midi": 38,
          "name": "D2",
          "ticks": 129408,
          "time": 182.16198,
          "velocity": 1
        },
        {
          "duration": 0.03378374999999778,
          "durationTicks": 24,
          "midi": 38,
          "name": "D2",
          "ticks": 130176,
          "time": 183.24306,
          "velocity": 0.984251968503937
        },
        {
          "duration": 0.03378374999999778,
          "durationTicks": 24,
          "midi": 38,
          "name": "D2",
          "ticks": 130944,
          "time": 184.32414,
          "velocity": 1
        },
        {
          "duration": 0.03378374999999778,
          "durationTicks": 24,
          "midi": 38,
          "name": "D2",
          "ticks": 131712,
          "time": 185.40522,
          "velocity": 0.984251968503937
        },
        {
          "duration": 0.03378374999999778,
          "durationTicks": 24,
          "midi": 38,
          "name": "D2",
          "ticks": 132480,
          "time": 186.4863,
          "velocity": 1
        },
        {
          "duration": 0.03378374999999778,
          "durationTicks": 24,
          "midi": 38,
          "name": "D2",
          "ticks": 133248,
          "time": 187.56738,
          "velocity": 0.984251968503937
        },
        {
          "duration": 0.03378374999999778,
          "durationTicks": 24,
          "midi": 38,
          "name": "D2",
          "ticks": 134016,
          "time": 188.64846,
          "velocity": 1
        },
        {
          "duration": 0.03378374999999778,
          "durationTicks": 24,
          "midi": 38,
          "name": "D2",
          "ticks": 134784,
          "time": 189.72954000000001,
          "velocity": 0.984251968503937
        },
        {
          "duration": 0.03378374999999778,
          "durationTicks": 24,
          "midi": 38,
          "name": "D2",
          "ticks": 135552,
          "time": 190.81062,
          "velocity": 1
        },
        {
          "duration": 0.03378374999999778,
          "durationTicks": 24,
          "midi": 38,
          "name": "D2",
          "ticks": 136320,
          "time": 191.89170000000001,
          "velocity": 0.984251968503937
        },
        {
          "duration": 0.03378374999999778,
          "durationTicks": 24,
          "midi": 38,
          "name": "D2",
          "ticks": 137088,
          "time": 192.97278,
          "velocity": 1
        },
        {
          "duration": 0.03378374999999778,
          "durationTicks": 24,
          "midi": 38,
          "name": "D2",
          "ticks": 137856,
          "time": 194.05386000000001,
          "velocity": 0.984251968503937
        },
        {
          "duration": 0.03378374999999778,
          "durationTicks": 24,
          "midi": 38,
          "name": "D2",
          "ticks": 138624,
          "time": 195.13494,
          "velocity": 1
        },
        {
          "duration": 0.03378374999999778,
          "durationTicks": 24,
          "midi": 38,
          "name": "D2",
          "ticks": 139392,
          "time": 196.21602000000001,
          "velocity": 0.984251968503937
        },
        {
          "duration": 0.03378374999999778,
          "durationTicks": 24,
          "midi": 38,
          "name": "D2",
          "ticks": 140160,
          "time": 197.2971,
          "velocity": 1
        },
        {
          "duration": 0.03378374999999778,
          "durationTicks": 24,
          "midi": 38,
          "name": "D2",
          "ticks": 140928,
          "time": 198.37818000000001,
          "velocity": 0.984251968503937
        },
        {
          "duration": 0.03378374999999778,
          "durationTicks": 24,
          "midi": 38,
          "name": "D2",
          "ticks": 141696,
          "time": 199.45926,
          "velocity": 1
        },
        {
          "duration": 0.03378374999999778,
          "durationTicks": 24,
          "midi": 38,
          "name": "D2",
          "ticks": 142464,
          "time": 200.54034000000001,
          "velocity": 0.984251968503937
        },
        {
          "duration": 0.03378374999999778,
          "durationTicks": 24,
          "midi": 38,
          "name": "D2",
          "ticks": 143232,
          "time": 201.62142,
          "velocity": 1
        },
        {
          "duration": 0.03378374999999778,
          "durationTicks": 24,
          "midi": 38,
          "name": "D2",
          "ticks": 144000,
          "time": 202.70250000000001,
          "velocity": 0.984251968503937
        },
        {
          "duration": 0.03378374999999778,
          "durationTicks": 24,
          "midi": 38,
          "name": "D2",
          "ticks": 144768,
          "time": 203.78358,
          "velocity": 1
        },
        {
          "duration": 0.03378374999999778,
          "durationTicks": 24,
          "midi": 38,
          "name": "D2",
          "ticks": 145536,
          "time": 204.86466000000001,
          "velocity": 0.984251968503937
        },
        {
          "duration": 0.03378374999999778,
          "durationTicks": 24,
          "midi": 38,
          "name": "D2",
          "ticks": 146304,
          "time": 205.94574,
          "velocity": 1
        },
        {
          "duration": 0.03378374999999778,
          "durationTicks": 24,
          "midi": 38,
          "name": "D2",
          "ticks": 147072,
          "time": 207.02682000000001,
          "velocity": 0.984251968503937
        },
        {
          "duration": 0.03378374999999778,
          "durationTicks": 24,
          "midi": 38,
          "name": "D2",
          "ticks": 147840,
          "time": 208.1079,
          "velocity": 1
        },
        {
          "duration": 0.03378374999999778,
          "durationTicks": 24,
          "midi": 38,
          "name": "D2",
          "ticks": 148608,
          "time": 209.18898000000002,
          "velocity": 0.984251968503937
        },
        {
          "duration": 0.03378374999999778,
          "durationTicks": 24,
          "midi": 38,
          "name": "D2",
          "ticks": 149376,
          "time": 210.27006,
          "velocity": 1
        },
        {
          "duration": 0.03378374999999778,
          "durationTicks": 24,
          "midi": 38,
          "name": "D2",
          "ticks": 150144,
          "time": 211.35114000000002,
          "velocity": 0.984251968503937
        },
        {
          "duration": 0.03378374999999778,
          "durationTicks": 24,
          "midi": 38,
          "name": "D2",
          "ticks": 150912,
          "time": 212.43222,
          "velocity": 1
        }
      ]
    },
    {
      "channel": 9,
      "controlChanges": {},
      "pitchBends": [],
      "instrument": {
        "family": "drums",
        "name": "standard kit",
        "number": 0
      },
      "name": "Cl HHat  ",
      "notes": [
        {
          "duration": 0.033783750000001334,
          "durationTicks": 24,
          "midi": 42,
          "name": "F#2",
          "ticks": 17474,
          "time": 24.597385312500002,
          "velocity": 0.8503937007874016
        },
        {
          "duration": 0.03378374999999778,
          "durationTicks": 24,
          "midi": 42,
          "name": "F#2",
          "ticks": 17572,
          "time": 24.735335625,
          "velocity": 0.905511811023622
        },
        {
          "duration": 0.033783750000001334,
          "durationTicks": 24,
          "midi": 42,
          "name": "F#2",
          "ticks": 17666,
          "time": 24.867655312500002,
          "velocity": 0.905511811023622
        },
        {
          "duration": 0.03378374999999778,
          "durationTicks": 24,
          "midi": 42,
          "name": "F#2",
          "ticks": 17764,
          "time": 25.005605625,
          "velocity": 0.9291338582677166
        },
        {
          "duration": 0.03378374999999778,
          "durationTicks": 24,
          "midi": 42,
          "name": "F#2",
          "ticks": 17952,
          "time": 25.270245000000003,
          "velocity": 0.9291338582677166
        },
        {
          "duration": 0.033783750000001334,
          "durationTicks": 24,
          "midi": 42,
          "name": "F#2",
          "ticks": 18052,
          "time": 25.411010625,
          "velocity": 0.9291338582677166
        },
        {
          "duration": 0.03378374999999778,
          "durationTicks": 24,
          "midi": 42,
          "name": "F#2",
          "ticks": 18146,
          "time": 25.543330312500004,
          "velocity": 0.5748031496062992
        },
        {
          "duration": 0.033783750000001334,
          "durationTicks": 24,
          "midi": 42,
          "name": "F#2",
          "ticks": 18240,
          "time": 25.67565,
          "velocity": 0.9291338582677166
        },
        {
          "duration": 0.03378374999999778,
          "durationTicks": 24,
          "midi": 42,
          "name": "F#2",
          "ticks": 18338,
          "time": 25.813600312500004,
          "velocity": 0.9291338582677166
        },
        {
          "duration": 0.033783750000001334,
          "durationTicks": 24,
          "midi": 42,
          "name": "F#2",
          "ticks": 19202,
          "time": 27.029815312500002,
          "velocity": 0.9291338582677166
        },
        {
          "duration": 0.033783750000001334,
          "durationTicks": 24,
          "midi": 42,
          "name": "F#2",
          "ticks": 19296,
          "time": 27.162135,
          "velocity": 0.9291338582677166
        },
        {
          "duration": 0.033783750000001334,
          "durationTicks": 24,
          "midi": 42,
          "name": "F#2",
          "ticks": 19486,
          "time": 27.4295896875,
          "velocity": 0.7559055118110236
        },
        {
          "duration": 0.033783750000001334,
          "durationTicks": 24,
          "midi": 42,
          "name": "F#2",
          "ticks": 19586,
          "time": 27.570355312500002,
          "velocity": 0.9291338582677166
        },
        {
          "duration": 0.033783750000001334,
          "durationTicks": 24,
          "midi": 42,
          "name": "F#2",
          "ticks": 19778,
          "time": 27.840625312500002,
          "velocity": 0.9291338582677166
        },
        {
          "duration": 0.033783750000001334,
          "durationTicks": 24,
          "midi": 42,
          "name": "F#2",
          "ticks": 20542,
          "time": 28.9160746875,
          "velocity": 0.6850393700787402
        },
        {
          "duration": 0.03378374999999778,
          "durationTicks": 24,
          "midi": 42,
          "name": "F#2",
          "ticks": 20642,
          "time": 29.056840312500004,
          "velocity": 0.7007874015748031
        },
        {
          "duration": 0.033783750000001334,
          "durationTicks": 24,
          "midi": 42,
          "name": "F#2",
          "ticks": 20740,
          "time": 29.194790625,
          "velocity": 0.9291338582677166
        },
        {
          "duration": 0.03378374999999778,
          "durationTicks": 24,
          "midi": 42,
          "name": "F#2",
          "ticks": 20834,
          "time": 29.327110312500004,
          "velocity": 0.9291338582677166
        },
        {
          "duration": 0.03378374999999778,
          "durationTicks": 24,
          "midi": 42,
          "name": "F#2",
          "ticks": 21024,
          "time": 29.594565000000003,
          "velocity": 0.8818897637795275
        },
        {
          "duration": 0.033783750000001334,
          "durationTicks": 24,
          "midi": 42,
          "name": "F#2",
          "ticks": 21120,
          "time": 29.7297,
          "velocity": 0.9291338582677166
        },
        {
          "duration": 0.03378374999999778,
          "durationTicks": 24,
          "midi": 42,
          "name": "F#2",
          "ticks": 21220,
          "time": 29.870465625,
          "velocity": 0.6929133858267716
        },
        {
          "duration": 0.033783750000001334,
          "durationTicks": 24,
          "midi": 42,
          "name": "F#2",
          "ticks": 21314,
          "time": 30.002785312500002,
          "velocity": 0.9291338582677166
        },
        {
          "duration": 0.03378374999999778,
          "durationTicks": 24,
          "midi": 42,
          "name": "F#2",
          "ticks": 21408,
          "time": 30.135105000000003,
          "velocity": 0.9291338582677166
        },
        {
          "duration": 0.033783750000001334,
          "durationTicks": 24,
          "midi": 42,
          "name": "F#2",
          "ticks": 22276,
          "time": 31.356950625,
          "velocity": 0.9291338582677166
        },
        {
          "duration": 0.03378374999999778,
          "durationTicks": 24,
          "midi": 42,
          "name": "F#2",
          "ticks": 22370,
          "time": 31.489270312500004,
          "velocity": 0.9291338582677166
        },
        {
          "duration": 0.03378374999999778,
          "durationTicks": 24,
          "midi": 42,
          "name": "F#2",
          "ticks": 22562,
          "time": 31.759540312500004,
          "velocity": 0.8031496062992126
        },
        {
          "duration": 0.033783750000001334,
          "durationTicks": 24,
          "midi": 42,
          "name": "F#2",
          "ticks": 22654,
          "time": 31.8890446875,
          "velocity": 0.9291338582677166
        },
        {
          "duration": 0.03378374999999778,
          "durationTicks": 24,
          "midi": 42,
          "name": "F#2",
          "ticks": 22852,
          "time": 32.167760625,
          "velocity": 0.9291338582677166
        },
        {
          "duration": 0.03378374999999778,
          "durationTicks": 24,
          "midi": 42,
          "name": "F#2",
          "ticks": 23618,
          "time": 33.2460253125,
          "velocity": 0.8503937007874016
        },
        {
          "duration": 0.033783750000004886,
          "durationTicks": 24,
          "midi": 42,
          "name": "F#2",
          "ticks": 23710,
          "time": 33.3755296875,
          "velocity": 0.905511811023622
        },
        {
          "duration": 0.03378374999999778,
          "durationTicks": 24,
          "midi": 42,
          "name": "F#2",
          "ticks": 23810,
          "time": 33.516295312500006,
          "velocity": 0.905511811023622
        },
        {
          "duration": 0.03378374999999778,
          "durationTicks": 24,
          "midi": 42,
          "name": "F#2",
          "ticks": 23908,
          "time": 33.654245625,
          "velocity": 0.9291338582677166
        },
        {
          "duration": 0.033783750000004886,
          "durationTicks": 24,
          "midi": 42,
          "name": "F#2",
          "ticks": 24100,
          "time": 33.924515625,
          "velocity": 0.9291338582677166
        },
        {
          "duration": 0.03378374999999778,
          "durationTicks": 24,
          "midi": 42,
          "name": "F#2",
          "ticks": 24192,
          "time": 34.05402,
          "velocity": 0.9291338582677166
        },
        {
          "duration": 0.033783750000004886,
          "durationTicks": 24,
          "midi": 42,
          "name": "F#2",
          "ticks": 24288,
          "time": 34.189155,
          "velocity": 0.5748031496062992
        },
        {
          "duration": 0.03378374999999778,
          "durationTicks": 24,
          "midi": 42,
          "name": "F#2",
          "ticks": 24388,
          "time": 34.329920625,
          "velocity": 0.9291338582677166
        },
        {
          "duration": 0.033783750000004886,
          "durationTicks": 24,
          "midi": 42,
          "name": "F#2",
          "ticks": 24482,
          "time": 34.4622403125,
          "velocity": 0.9291338582677166
        },
        {
          "duration": 0.03378374999999778,
          "durationTicks": 24,
          "midi": 42,
          "name": "F#2",
          "ticks": 25344,
          "time": 35.67564,
          "velocity": 0.9291338582677166
        },
        {
          "duration": 0.033783750000004886,
          "durationTicks": 24,
          "midi": 42,
          "name": "F#2",
          "ticks": 25444,
          "time": 35.816405625,
          "velocity": 0.9291338582677166
        },
        {
          "duration": 0.03378374999999778,
          "durationTicks": 24,
          "midi": 42,
          "name": "F#2",
          "ticks": 25632,
          "time": 36.081045,
          "velocity": 0.7559055118110236
        },
        {
          "duration": 0.03378374999999778,
          "durationTicks": 24,
          "midi": 42,
          "name": "F#2",
          "ticks": 25730,
          "time": 36.2189953125,
          "velocity": 0.9291338582677166
        },
        {
          "duration": 0.033783750000004886,
          "durationTicks": 24,
          "midi": 42,
          "name": "F#2",
          "ticks": 25922,
          "time": 36.489265312499995,
          "velocity": 0.9291338582677166
        },
        {
          "duration": 0.03378374999999778,
          "durationTicks": 24,
          "midi": 42,
          "name": "F#2",
          "ticks": 26688,
          "time": 37.567530000000005,
          "velocity": 0.6850393700787402
        },
        {
          "duration": 0.03378374999999778,
          "durationTicks": 24,
          "midi": 42,
          "name": "F#2",
          "ticks": 26786,
          "time": 37.7054803125,
          "velocity": 0.7007874015748031
        },
        {
          "duration": 0.03378374999999778,
          "durationTicks": 24,
          "midi": 42,
          "name": "F#2",
          "ticks": 26878,
          "time": 37.834984687500004,
          "velocity": 0.9291338582677166
        },
        {
          "duration": 0.033783750000004886,
          "durationTicks": 24,
          "midi": 42,
          "name": "F#2",
          "ticks": 26978,
          "time": 37.9757503125,
          "velocity": 0.9291338582677166
        },
        {
          "duration": 0.03378374999999778,
          "durationTicks": 24,
          "midi": 42,
          "name": "F#2",
          "ticks": 27170,
          "time": 38.2460203125,
          "velocity": 0.8818897637795275
        },
        {
          "duration": 0.03378374999999778,
          "durationTicks": 24,
          "midi": 42,
          "name": "F#2",
          "ticks": 27268,
          "time": 38.383970625,
          "velocity": 0.9291338582677166
        },
        {
          "duration": 0.033783750000004886,
          "durationTicks": 24,
          "midi": 42,
          "name": "F#2",
          "ticks": 27360,
          "time": 38.513475,
          "velocity": 0.6929133858267716
        },
        {
          "duration": 0.03378374999999778,
          "durationTicks": 24,
          "midi": 42,
          "name": "F#2",
          "ticks": 27456,
          "time": 38.648610000000005,
          "velocity": 0.9291338582677166
        },
        {
          "duration": 0.03378374999999778,
          "durationTicks": 24,
          "midi": 42,
          "name": "F#2",
          "ticks": 27556,
          "time": 38.789375625000005,
          "velocity": 0.9291338582677166
        },
        {
          "duration": 0.03378374999999778,
          "durationTicks": 24,
          "midi": 42,
          "name": "F#2",
          "ticks": 28416,
          "time": 39.99996,
          "velocity": 0.9291338582677166
        },
        {
          "duration": 0.033783750000004886,
          "durationTicks": 24,
          "midi": 42,
          "name": "F#2",
          "ticks": 28512,
          "time": 40.135095,
          "velocity": 0.9291338582677166
        },
        {
          "duration": 0.03378374999999778,
          "durationTicks": 24,
          "midi": 42,
          "name": "F#2",
          "ticks": 28706,
          "time": 40.4081803125,
          "velocity": 0.8031496062992126
        },
        {
          "duration": 0.03378374999999778,
          "durationTicks": 24,
          "midi": 42,
          "name": "F#2",
          "ticks": 28800,
          "time": 40.5405,
          "velocity": 0.9291338582677166
        },
        {
          "duration": 0.03378374999999778,
          "durationTicks": 24,
          "midi": 42,
          "name": "F#2",
          "ticks": 28990,
          "time": 40.80795468750001,
          "velocity": 0.9291338582677166
        },
        {
          "duration": 0.033783750000004886,
          "durationTicks": 24,
          "midi": 42,
          "name": "F#2",
          "ticks": 29762,
          "time": 41.894665312499995,
          "velocity": 0.8503937007874016
        },
        {
          "duration": 0.03378374999999778,
          "durationTicks": 24,
          "midi": 42,
          "name": "F#2",
          "ticks": 29856,
          "time": 42.026985,
          "velocity": 0.905511811023622
        },
        {
          "duration": 0.03378374999999778,
          "durationTicks": 24,
          "midi": 42,
          "name": "F#2",
          "ticks": 29954,
          "time": 42.1649353125,
          "velocity": 0.905511811023622
        },
        {
          "duration": 0.033783750000004886,
          "durationTicks": 24,
          "midi": 42,
          "name": "F#2",
          "ticks": 30046,
          "time": 42.2944396875,
          "velocity": 0.9291338582677166
        },
        {
          "duration": 0.03378374999999778,
          "durationTicks": 24,
          "midi": 42,
          "name": "F#2",
          "ticks": 30244,
          "time": 42.573155625000005,
          "velocity": 0.9291338582677166
        },
        {
          "duration": 0.03378374999999778,
          "durationTicks": 24,
          "midi": 42,
          "name": "F#2",
          "ticks": 30338,
          "time": 42.7054753125,
          "velocity": 0.9291338582677166
        },
        {
          "duration": 0.033783750000004886,
          "durationTicks": 24,
          "midi": 42,
          "name": "F#2",
          "ticks": 30436,
          "time": 42.843425625,
          "velocity": 0.5748031496062992
        },
        {
          "duration": 0.03378374999999778,
          "durationTicks": 24,
          "midi": 42,
          "name": "F#2",
          "ticks": 30528,
          "time": 42.972930000000005,
          "velocity": 0.9291338582677166
        },
        {
          "duration": 0.03378374999999778,
          "durationTicks": 24,
          "midi": 42,
          "name": "F#2",
          "ticks": 30624,
          "time": 43.108065,
          "velocity": 0.9291338582677166
        },
        {
          "duration": 0.03378374999999778,
          "durationTicks": 24,
          "midi": 42,
          "name": "F#2",
          "ticks": 31492,
          "time": 44.329910625000004,
          "velocity": 0.9291338582677166
        },
        {
          "duration": 0.033783750000004886,
          "durationTicks": 24,
          "midi": 42,
          "name": "F#2",
          "ticks": 31584,
          "time": 44.459415,
          "velocity": 0.9291338582677166
        },
        {
          "duration": 0.03378374999999778,
          "durationTicks": 24,
          "midi": 42,
          "name": "F#2",
          "ticks": 31780,
          "time": 44.735315625000005,
          "velocity": 0.7559055118110236
        },
        {
          "duration": 0.03378374999999778,
          "durationTicks": 24,
          "midi": 42,
          "name": "F#2",
          "ticks": 31874,
          "time": 44.8676353125,
          "velocity": 0.9291338582677166
        },
        {
          "duration": 0.033783750000004886,
          "durationTicks": 24,
          "midi": 42,
          "name": "F#2",
          "ticks": 32066,
          "time": 45.137905312499996,
          "velocity": 0.9291338582677166
        },
        {
          "duration": 0.03378374999999778,
          "durationTicks": 24,
          "midi": 42,
          "name": "F#2",
          "ticks": 32836,
          "time": 46.22180062500001,
          "velocity": 0.6850393700787402
        },
        {
          "duration": 0.03378374999999778,
          "durationTicks": 24,
          "midi": 42,
          "name": "F#2",
          "ticks": 32930,
          "time": 46.3541203125,
          "velocity": 0.7007874015748031
        },
        {
          "duration": 0.03378374999999778,
          "durationTicks": 24,
          "midi": 42,
          "name": "F#2",
          "ticks": 33024,
          "time": 46.48644,
          "velocity": 0.9291338582677166
        },
        {
          "duration": 0.033783750000004886,
          "durationTicks": 24,
          "midi": 42,
          "name": "F#2",
          "ticks": 33122,
          "time": 46.6243903125,
          "velocity": 0.9291338582677166
        },
        {
          "duration": 0.03378374999999778,
          "durationTicks": 24,
          "midi": 42,
          "name": "F#2",
          "ticks": 33314,
          "time": 46.8946603125,
          "velocity": 0.8818897637795275
        },
        {
          "duration": 0.03378374999999778,
          "durationTicks": 24,
          "midi": 42,
          "name": "F#2",
          "ticks": 33412,
          "time": 47.032610625000004,
          "velocity": 0.9291338582677166
        },
        {
          "duration": 0.033783750000004886,
          "durationTicks": 24,
          "midi": 42,
          "name": "F#2",
          "ticks": 33506,
          "time": 47.1649303125,
          "velocity": 0.6929133858267716
        },
        {
          "duration": 0.03378374999999778,
          "durationTicks": 24,
          "midi": 42,
          "name": "F#2",
          "ticks": 33604,
          "time": 47.30288062500001,
          "velocity": 0.9291338582677166
        },
        {
          "duration": 0.03378374999999778,
          "durationTicks": 24,
          "midi": 42,
          "name": "F#2",
          "ticks": 33696,
          "time": 47.432385000000004,
          "velocity": 0.9291338582677166
        },
        {
          "duration": 0.03378374999999778,
          "durationTicks": 24,
          "midi": 42,
          "name": "F#2",
          "ticks": 34562,
          "time": 48.6514153125,
          "velocity": 0.9291338582677166
        },
        {
          "duration": 0.033783750000004886,
          "durationTicks": 24,
          "midi": 42,
          "name": "F#2",
          "ticks": 34660,
          "time": 48.789365625,
          "velocity": 0.9291338582677166
        },
        {
          "duration": 0.03378374999999778,
          "durationTicks": 24,
          "midi": 42,
          "name": "F#2",
          "ticks": 34848,
          "time": 49.054005000000004,
          "velocity": 0.8031496062992126
        },
        {
          "duration": 0.03378374999999778,
          "durationTicks": 24,
          "midi": 42,
          "name": "F#2",
          "ticks": 34948,
          "time": 49.194770625000004,
          "velocity": 0.9291338582677166
        },
        {
          "duration": 0.03378374999999778,
          "durationTicks": 24,
          "midi": 42,
          "name": "F#2",
          "ticks": 35136,
          "time": 49.459410000000005,
          "velocity": 0.9291338582677166
        },
        {
          "duration": 0.03378374999999778,
          "durationTicks": 24,
          "midi": 42,
          "name": "F#2",
          "ticks": 35904,
          "time": 50.540490000000005,
          "velocity": 0.8503937007874016
        },
        {
          "duration": 0.03378374999999778,
          "durationTicks": 24,
          "midi": 42,
          "name": "F#2",
          "ticks": 36004,
          "time": 50.681255625000006,
          "velocity": 0.905511811023622
        },
        {
          "duration": 0.03378374999999778,
          "durationTicks": 24,
          "midi": 42,
          "name": "F#2",
          "ticks": 36098,
          "time": 50.8135753125,
          "velocity": 0.905511811023622
        },
        {
          "duration": 0.033783750000004886,
          "durationTicks": 24,
          "midi": 42,
          "name": "F#2",
          "ticks": 36192,
          "time": 50.945895,
          "velocity": 0.9291338582677166
        },
        {
          "duration": 0.03378374999999778,
          "durationTicks": 24,
          "midi": 42,
          "name": "F#2",
          "ticks": 36382,
          "time": 51.213349687500006,
          "velocity": 0.9291338582677166
        },
        {
          "duration": 0.03378374999999778,
          "durationTicks": 24,
          "midi": 42,
          "name": "F#2",
          "ticks": 36482,
          "time": 51.3541153125,
          "velocity": 0.9291338582677166
        },
        {
          "duration": 0.033783750000004886,
          "durationTicks": 24,
          "midi": 42,
          "name": "F#2",
          "ticks": 36580,
          "time": 51.492065625,
          "velocity": 0.5748031496062992
        },
        {
          "duration": 0.033783750000004886,
          "durationTicks": 24,
          "midi": 42,
          "name": "F#2",
          "ticks": 36674,
          "time": 51.624385312499996,
          "velocity": 0.9291338582677166
        },
        {
          "duration": 0.03378374999999778,
          "durationTicks": 24,
          "midi": 42,
          "name": "F#2",
          "ticks": 36772,
          "time": 51.762335625000006,
          "velocity": 0.9291338582677166
        },
        {
          "duration": 0.03378374999999778,
          "durationTicks": 24,
          "midi": 42,
          "name": "F#2",
          "ticks": 37636,
          "time": 52.978550625000004,
          "velocity": 0.9291338582677166
        },
        {
          "duration": 0.033783750000004886,
          "durationTicks": 24,
          "midi": 42,
          "name": "F#2",
          "ticks": 37730,
          "time": 53.1108703125,
          "velocity": 0.9291338582677166
        },
        {
          "duration": 0.03378374999999778,
          "durationTicks": 24,
          "midi": 42,
          "name": "F#2",
          "ticks": 37920,
          "time": 53.378325000000004,
          "velocity": 0.7559055118110236
        },
        {
          "duration": 0.03378374999999778,
          "durationTicks": 24,
          "midi": 42,
          "name": "F#2",
          "ticks": 38016,
          "time": 53.51346,
          "velocity": 0.9291338582677166
        },
        {
          "duration": 0.033783750000004886,
          "durationTicks": 24,
          "midi": 42,
          "name": "F#2",
          "ticks": 38210,
          "time": 53.786545312499996,
          "velocity": 0.9291338582677166
        },
        {
          "duration": 0.03378374999999778,
          "durationTicks": 24,
          "midi": 42,
          "name": "F#2",
          "ticks": 38976,
          "time": 54.864810000000006,
          "velocity": 0.6850393700787402
        },
        {
          "duration": 0.03378374999999778,
          "durationTicks": 24,
          "midi": 42,
          "name": "F#2",
          "ticks": 39072,
          "time": 54.999945000000004,
          "velocity": 0.7007874015748031
        },
        {
          "duration": 0.03378374999999778,
          "durationTicks": 24,
          "midi": 42,
          "name": "F#2",
          "ticks": 39172,
          "time": 55.140710625000004,
          "velocity": 0.9291338582677166
        },
        {
          "duration": 0.033783750000004886,
          "durationTicks": 24,
          "midi": 42,
          "name": "F#2",
          "ticks": 39266,
          "time": 55.2730303125,
          "velocity": 0.9291338582677166
        },
        {
          "duration": 0.03378374999999778,
          "durationTicks": 24,
          "midi": 42,
          "name": "F#2",
          "ticks": 39458,
          "time": 55.5433003125,
          "velocity": 0.8818897637795275
        },
        {
          "duration": 0.03378374999999778,
          "durationTicks": 24,
          "midi": 42,
          "name": "F#2",
          "ticks": 39550,
          "time": 55.672804687500005,
          "velocity": 0.9291338582677166
        },
        {
          "duration": 0.033783750000004886,
          "durationTicks": 24,
          "midi": 42,
          "name": "F#2",
          "ticks": 39650,
          "time": 55.8135703125,
          "velocity": 0.6929133858267716
        },
        {
          "duration": 0.03378374999999778,
          "durationTicks": 24,
          "midi": 42,
          "name": "F#2",
          "ticks": 39748,
          "time": 55.95152062500001,
          "velocity": 0.9291338582677166
        },
        {
          "duration": 0.03378374999999778,
          "durationTicks": 24,
          "midi": 42,
          "name": "F#2",
          "ticks": 39842,
          "time": 56.0838403125,
          "velocity": 0.9291338582677166
        },
        {
          "duration": 0.03378374999999778,
          "durationTicks": 24,
          "midi": 42,
          "name": "F#2",
          "ticks": 40706,
          "time": 57.3000553125,
          "velocity": 0.9291338582677166
        },
        {
          "duration": 0.033783750000004886,
          "durationTicks": 24,
          "midi": 42,
          "name": "F#2",
          "ticks": 40804,
          "time": 57.438005625,
          "velocity": 0.9291338582677166
        },
        {
          "duration": 0.03378374999999778,
          "durationTicks": 24,
          "midi": 42,
          "name": "F#2",
          "ticks": 40996,
          "time": 57.708275625000006,
          "velocity": 0.8031496062992126
        },
        {
          "duration": 0.03378374999999778,
          "durationTicks": 24,
          "midi": 42,
          "name": "F#2",
          "ticks": 41088,
          "time": 57.83778,
          "velocity": 0.9291338582677166
        },
        {
          "duration": 0.03378374999999778,
          "durationTicks": 24,
          "midi": 42,
          "name": "F#2",
          "ticks": 41284,
          "time": 58.11368062500001,
          "velocity": 0.9291338582677166
        },
        {
          "duration": 0.03378374999999778,
          "durationTicks": 24,
          "midi": 42,
          "name": "F#2",
          "ticks": 42052,
          "time": 59.19476062500001,
          "velocity": 0.8503937007874016
        },
        {
          "duration": 0.03378374999999778,
          "durationTicks": 24,
          "midi": 42,
          "name": "F#2",
          "ticks": 42144,
          "time": 59.324265000000004,
          "velocity": 0.905511811023622
        },
        {
          "duration": 0.03378374999999778,
          "durationTicks": 24,
          "midi": 42,
          "name": "F#2",
          "ticks": 42240,
          "time": 59.4594,
          "velocity": 0.905511811023622
        },
        {
          "duration": 0.033783750000004886,
          "durationTicks": 24,
          "midi": 42,
          "name": "F#2",
          "ticks": 42340,
          "time": 59.600165625,
          "velocity": 0.9291338582677166
        },
        {
          "duration": 0.03378374999999778,
          "durationTicks": 24,
          "midi": 42,
          "name": "F#2",
          "ticks": 42528,
          "time": 59.864805000000004,
          "velocity": 0.9291338582677166
        },
        {
          "duration": 0.03378374999999778,
          "durationTicks": 24,
          "midi": 42,
          "name": "F#2",
          "ticks": 42626,
          "time": 60.0027553125,
          "velocity": 0.9291338582677166
        },
        {
          "duration": 0.033783750000004886,
          "durationTicks": 24,
          "midi": 42,
          "name": "F#2",
          "ticks": 42718,
          "time": 60.1322596875,
          "velocity": 0.5748031496062992
        },
        {
          "duration": 0.033783750000004886,
          "durationTicks": 24,
          "midi": 42,
          "name": "F#2",
          "ticks": 42818,
          "time": 60.273025312499996,
          "velocity": 0.9291338582677166
        },
        {
          "duration": 0.03378374999999778,
          "durationTicks": 24,
          "midi": 42,
          "name": "F#2",
          "ticks": 42916,
          "time": 60.410975625000006,
          "velocity": 0.9291338582677166
        },
        {
          "duration": 0.03378374999999778,
          "durationTicks": 24,
          "midi": 42,
          "name": "F#2",
          "ticks": 43774,
          "time": 61.618744687500005,
          "velocity": 0.9291338582677166
        },
        {
          "duration": 0.033783750000004886,
          "durationTicks": 24,
          "midi": 42,
          "name": "F#2",
          "ticks": 43874,
          "time": 61.7595103125,
          "velocity": 0.9291338582677166
        },
        {
          "duration": 0.03378374999999778,
          "durationTicks": 24,
          "midi": 42,
          "name": "F#2",
          "ticks": 44066,
          "time": 62.0297803125,
          "velocity": 0.7559055118110236
        },
        {
          "duration": 0.03378374999999778,
          "durationTicks": 24,
          "midi": 42,
          "name": "F#2",
          "ticks": 44164,
          "time": 62.167730625000004,
          "velocity": 0.9291338582677166
        },
        {
          "duration": 0.03378374999999778,
          "durationTicks": 24,
          "midi": 42,
          "name": "F#2",
          "ticks": 44352,
          "time": 62.432370000000006,
          "velocity": 0.9291338582677166
        },
        {
          "duration": 0.033783750000004886,
          "durationTicks": 24,
          "midi": 42,
          "name": "F#2",
          "ticks": 45122,
          "time": 63.516265312499996,
          "velocity": 0.6850393700787402
        },
        {
          "duration": 0.03378374999999778,
          "durationTicks": 24,
          "midi": 42,
          "name": "F#2",
          "ticks": 45220,
          "time": 63.654215625000006,
          "velocity": 0.7007874015748031
        },
        {
          "duration": 0.03378374999999778,
          "durationTicks": 24,
          "midi": 42,
          "name": "F#2",
          "ticks": 45312,
          "time": 63.78372,
          "velocity": 0.9291338582677166
        },
        {
          "duration": 0.033783750000004886,
          "durationTicks": 24,
          "midi": 42,
          "name": "F#2",
          "ticks": 45408,
          "time": 63.918855,
          "velocity": 0.9291338582677166
        },
        {
          "duration": 0.03378375000001199,
          "durationTicks": 24,
          "midi": 42,
          "name": "F#2",
          "ticks": 45602,
          "time": 64.1919403125,
          "velocity": 0.8818897637795275
        },
        {
          "duration": 0.03378374999999778,
          "durationTicks": 24,
          "midi": 42,
          "name": "F#2",
          "ticks": 45696,
          "time": 64.32426000000001,
          "velocity": 0.9291338582677166
        },
        {
          "duration": 0.03378374999999778,
          "durationTicks": 24,
          "midi": 42,
          "name": "F#2",
          "ticks": 45794,
          "time": 64.4622103125,
          "velocity": 0.6929133858267716
        },
        {
          "duration": 0.03378374999999778,
          "durationTicks": 24,
          "midi": 42,
          "name": "F#2",
          "ticks": 45886,
          "time": 64.5917146875,
          "velocity": 0.9291338582677166
        },
        {
          "duration": 0.03378374999999778,
          "durationTicks": 24,
          "midi": 42,
          "name": "F#2",
          "ticks": 45986,
          "time": 64.7324803125,
          "velocity": 0.9291338582677166
        },
        {
          "duration": 0.03378375000001199,
          "durationTicks": 24,
          "midi": 42,
          "name": "F#2",
          "ticks": 46850,
          "time": 65.94869531249999,
          "velocity": 0.9291338582677166
        },
        {
          "duration": 0.03378374999999778,
          "durationTicks": 24,
          "midi": 42,
          "name": "F#2",
          "ticks": 46942,
          "time": 66.0781996875,
          "velocity": 0.9291338582677166
        },
        {
          "duration": 0.03378375000001199,
          "durationTicks": 24,
          "midi": 42,
          "name": "F#2",
          "ticks": 47140,
          "time": 66.356915625,
          "velocity": 0.8031496062992126
        },
        {
          "duration": 0.03378374999999778,
          "durationTicks": 24,
          "midi": 42,
          "name": "F#2",
          "ticks": 47234,
          "time": 66.4892353125,
          "velocity": 0.9291338582677166
        },
        {
          "duration": 0.03378374999999778,
          "durationTicks": 24,
          "midi": 42,
          "name": "F#2",
          "ticks": 47424,
          "time": 66.75669,
          "velocity": 0.9291338582677166
        },
        {
          "duration": 0.03378374999999778,
          "durationTicks": 24,
          "midi": 42,
          "name": "F#2",
          "ticks": 48196,
          "time": 67.843400625,
          "velocity": 0.8503937007874016
        },
        {
          "duration": 0.03378374999999778,
          "durationTicks": 24,
          "midi": 42,
          "name": "F#2",
          "ticks": 48290,
          "time": 67.9757203125,
          "velocity": 0.905511811023622
        },
        {
          "duration": 0.03378374999999778,
          "durationTicks": 24,
          "midi": 42,
          "name": "F#2",
          "ticks": 48388,
          "time": 68.11367062500001,
          "velocity": 0.905511811023622
        },
        {
          "duration": 0.03378374999999778,
          "durationTicks": 24,
          "midi": 42,
          "name": "F#2",
          "ticks": 48480,
          "time": 68.24317500000001,
          "velocity": 0.9291338582677166
        },
        {
          "duration": 0.03378375000001199,
          "durationTicks": 24,
          "midi": 42,
          "name": "F#2",
          "ticks": 48676,
          "time": 68.519075625,
          "velocity": 0.9291338582677166
        },
        {
          "duration": 0.03378374999999778,
          "durationTicks": 24,
          "midi": 42,
          "name": "F#2",
          "ticks": 48770,
          "time": 68.6513953125,
          "velocity": 0.9291338582677166
        },
        {
          "duration": 0.03378374999999778,
          "durationTicks": 24,
          "midi": 42,
          "name": "F#2",
          "ticks": 48864,
          "time": 68.783715,
          "velocity": 0.5748031496062992
        },
        {
          "duration": 0.03378374999999778,
          "durationTicks": 24,
          "midi": 42,
          "name": "F#2",
          "ticks": 48962,
          "time": 68.9216653125,
          "velocity": 0.9291338582677166
        },
        {
          "duration": 0.03378374999999778,
          "durationTicks": 24,
          "midi": 42,
          "name": "F#2",
          "ticks": 49054,
          "time": 69.0511696875,
          "velocity": 0.9291338582677166
        },
        {
          "duration": 0.03378374999999778,
          "durationTicks": 24,
          "midi": 42,
          "name": "F#2",
          "ticks": 49920,
          "time": 70.2702,
          "velocity": 0.9291338582677166
        },
        {
          "duration": 0.03378374999999778,
          "durationTicks": 24,
          "midi": 42,
          "name": "F#2",
          "ticks": 50018,
          "time": 70.40815031250001,
          "velocity": 0.9291338582677166
        },
        {
          "duration": 0.03378374999999778,
          "durationTicks": 24,
          "midi": 42,
          "name": "F#2",
          "ticks": 50210,
          "time": 70.67842031250001,
          "velocity": 0.7559055118110236
        },
        {
          "duration": 0.03378375000001199,
          "durationTicks": 24,
          "midi": 42,
          "name": "F#2",
          "ticks": 50308,
          "time": 70.81637062499999,
          "velocity": 0.9291338582677166
        },
        {
          "duration": 0.03378374999999778,
          "durationTicks": 24,
          "midi": 42,
          "name": "F#2",
          "ticks": 50500,
          "time": 71.086640625,
          "velocity": 0.9291338582677166
        },
        {
          "duration": 0.03378374999999778,
          "durationTicks": 24,
          "midi": 42,
          "name": "F#2",
          "ticks": 51266,
          "time": 72.16490531250001,
          "velocity": 0.6850393700787402
        },
        {
          "duration": 0.03378375000001199,
          "durationTicks": 24,
          "midi": 42,
          "name": "F#2",
          "ticks": 51364,
          "time": 72.30285562499999,
          "velocity": 0.7007874015748031
        },
        {
          "duration": 0.03378374999999778,
          "durationTicks": 24,
          "midi": 42,
          "name": "F#2",
          "ticks": 51458,
          "time": 72.43517531250001,
          "velocity": 0.9291338582677166
        },
        {
          "duration": 0.03378374999999778,
          "durationTicks": 24,
          "midi": 42,
          "name": "F#2",
          "ticks": 51556,
          "time": 72.573125625,
          "velocity": 0.9291338582677166
        },
        {
          "duration": 0.03378374999999778,
          "durationTicks": 24,
          "midi": 42,
          "name": "F#2",
          "ticks": 51744,
          "time": 72.837765,
          "velocity": 0.8818897637795275
        },
        {
          "duration": 0.03378375000001199,
          "durationTicks": 24,
          "midi": 42,
          "name": "F#2",
          "ticks": 51844,
          "time": 72.97853062499999,
          "velocity": 0.9291338582677166
        },
        {
          "duration": 0.03378374999999778,
          "durationTicks": 24,
          "midi": 42,
          "name": "F#2",
          "ticks": 51938,
          "time": 73.1108503125,
          "velocity": 0.6929133858267716
        },
        {
          "duration": 0.03378374999999778,
          "durationTicks": 24,
          "midi": 42,
          "name": "F#2",
          "ticks": 52032,
          "time": 73.24317,
          "velocity": 0.9291338582677166
        },
        {
          "duration": 0.03378375000001199,
          "durationTicks": 24,
          "midi": 42,
          "name": "F#2",
          "ticks": 52130,
          "time": 73.3811203125,
          "velocity": 0.9291338582677166
        },
        {
          "duration": 0.03378374999999778,
          "durationTicks": 24,
          "midi": 42,
          "name": "F#2",
          "ticks": 52994,
          "time": 74.59733531250001,
          "velocity": 0.9291338582677166
        },
        {
          "duration": 0.03378374999999778,
          "durationTicks": 24,
          "midi": 42,
          "name": "F#2",
          "ticks": 53088,
          "time": 74.72965500000001,
          "velocity": 0.9291338582677166
        },
        {
          "duration": 0.03378374999999778,
          "durationTicks": 24,
          "midi": 42,
          "name": "F#2",
          "ticks": 53278,
          "time": 74.9971096875,
          "velocity": 0.8031496062992126
        },
        {
          "duration": 0.03378374999999778,
          "durationTicks": 24,
          "midi": 42,
          "name": "F#2",
          "ticks": 53378,
          "time": 75.13787531250001,
          "velocity": 0.9291338582677166
        },
        {
          "duration": 0.03378374999999778,
          "durationTicks": 24,
          "midi": 42,
          "name": "F#2",
          "ticks": 53570,
          "time": 75.40814531250001,
          "velocity": 0.9291338582677166
        },
        {
          "duration": 0.03378374999999778,
          "durationTicks": 24,
          "midi": 42,
          "name": "F#2",
          "ticks": 54334,
          "time": 76.4835946875,
          "velocity": 0.8503937007874016
        },
        {
          "duration": 0.03378375000001199,
          "durationTicks": 24,
          "midi": 42,
          "name": "F#2",
          "ticks": 54434,
          "time": 76.6243603125,
          "velocity": 0.905511811023622
        },
        {
          "duration": 0.03378374999999778,
          "durationTicks": 24,
          "midi": 42,
          "name": "F#2",
          "ticks": 54532,
          "time": 76.762310625,
          "velocity": 0.905511811023622
        },
        {
          "duration": 0.03378374999999778,
          "durationTicks": 24,
          "midi": 42,
          "name": "F#2",
          "ticks": 54626,
          "time": 76.89463031250001,
          "velocity": 0.9291338582677166
        },
        {
          "duration": 0.03378374999999778,
          "durationTicks": 24,
          "midi": 42,
          "name": "F#2",
          "ticks": 54816,
          "time": 77.162085,
          "velocity": 0.9291338582677166
        },
        {
          "duration": 0.03378374999999778,
          "durationTicks": 24,
          "midi": 42,
          "name": "F#2",
          "ticks": 54912,
          "time": 77.29722000000001,
          "velocity": 0.9291338582677166
        },
        {
          "duration": 0.03378374999999778,
          "durationTicks": 24,
          "midi": 42,
          "name": "F#2",
          "ticks": 55012,
          "time": 77.437985625,
          "velocity": 0.5748031496062992
        },
        {
          "duration": 0.03378374999999778,
          "durationTicks": 24,
          "midi": 42,
          "name": "F#2",
          "ticks": 55106,
          "time": 77.57030531250001,
          "velocity": 0.9291338582677166
        },
        {
          "duration": 0.03378375000001199,
          "durationTicks": 24,
          "midi": 42,
          "name": "F#2",
          "ticks": 55200,
          "time": 77.702625,
          "velocity": 0.9291338582677166
        },
        {
          "duration": 0.03378374999999778,
          "durationTicks": 24,
          "midi": 42,
          "name": "F#2",
          "ticks": 56068,
          "time": 78.924470625,
          "velocity": 0.9291338582677166
        },
        {
          "duration": 0.03378374999999778,
          "durationTicks": 24,
          "midi": 42,
          "name": "F#2",
          "ticks": 56162,
          "time": 79.05679031250001,
          "velocity": 0.9291338582677166
        },
        {
          "duration": 0.03378374999999778,
          "durationTicks": 24,
          "midi": 42,
          "name": "F#2",
          "ticks": 56354,
          "time": 79.32706031250001,
          "velocity": 0.7559055118110236
        },
        {
          "duration": 0.03378375000001199,
          "durationTicks": 24,
          "midi": 42,
          "name": "F#2",
          "ticks": 56446,
          "time": 79.45656468749999,
          "velocity": 0.9291338582677166
        },
        {
          "duration": 0.03378374999999778,
          "durationTicks": 24,
          "midi": 42,
          "name": "F#2",
          "ticks": 56644,
          "time": 79.735280625,
          "velocity": 0.9291338582677166
        },
        {
          "duration": 0.03378374999999778,
          "durationTicks": 24,
          "midi": 42,
          "name": "F#2",
          "ticks": 57410,
          "time": 80.81354531250001,
          "velocity": 0.6850393700787402
        },
        {
          "duration": 0.03378374999999778,
          "durationTicks": 24,
          "midi": 42,
          "name": "F#2",
          "ticks": 57502,
          "time": 80.9430496875,
          "velocity": 0.7007874015748031
        },
        {
          "duration": 0.03378374999999778,
          "durationTicks": 24,
          "midi": 42,
          "name": "F#2",
          "ticks": 57602,
          "time": 81.08381531250001,
          "velocity": 0.9291338582677166
        },
        {
          "duration": 0.03378374999999778,
          "durationTicks": 24,
          "midi": 42,
          "name": "F#2",
          "ticks": 57700,
          "time": 81.221765625,
          "velocity": 0.9291338582677166
        },
        {
          "duration": 0.03378374999999778,
          "durationTicks": 24,
          "midi": 42,
          "name": "F#2",
          "ticks": 57892,
          "time": 81.492035625,
          "velocity": 0.8818897637795275
        },
        {
          "duration": 0.03378374999999778,
          "durationTicks": 24,
          "midi": 42,
          "name": "F#2",
          "ticks": 57984,
          "time": 81.62154000000001,
          "velocity": 0.9291338582677166
        },
        {
          "duration": 0.03378374999999778,
          "durationTicks": 24,
          "midi": 42,
          "name": "F#2",
          "ticks": 58080,
          "time": 81.756675,
          "velocity": 0.6929133858267716
        },
        {
          "duration": 0.03378374999999778,
          "durationTicks": 24,
          "midi": 42,
          "name": "F#2",
          "ticks": 58180,
          "time": 81.897440625,
          "velocity": 0.9291338582677166
        },
        {
          "duration": 0.03378375000001199,
          "durationTicks": 24,
          "midi": 42,
          "name": "F#2",
          "ticks": 58274,
          "time": 82.0297603125,
          "velocity": 0.9291338582677166
        },
        {
          "duration": 0.03378374999999778,
          "durationTicks": 24,
          "midi": 42,
          "name": "F#2",
          "ticks": 59136,
          "time": 83.24316,
          "velocity": 0.9291338582677166
        },
        {
          "duration": 0.03378374999999778,
          "durationTicks": 24,
          "midi": 42,
          "name": "F#2",
          "ticks": 59236,
          "time": 83.383925625,
          "velocity": 0.9291338582677166
        },
        {
          "duration": 0.03378374999999778,
          "durationTicks": 24,
          "midi": 42,
          "name": "F#2",
          "ticks": 59424,
          "time": 83.648565,
          "velocity": 0.8031496062992126
        },
        {
          "duration": 0.03378374999999778,
          "durationTicks": 24,
          "midi": 42,
          "name": "F#2",
          "ticks": 59522,
          "time": 83.78651531250001,
          "velocity": 0.9291338582677166
        },
        {
          "duration": 0.03378374999999778,
          "durationTicks": 24,
          "midi": 42,
          "name": "F#2",
          "ticks": 59714,
          "time": 84.05678531250001,
          "velocity": 0.9291338582677166
        },
        {
          "duration": 0.03378374999999778,
          "durationTicks": 24,
          "midi": 42,
          "name": "F#2",
          "ticks": 60480,
          "time": 85.13505,
          "velocity": 0.8503937007874016
        },
        {
          "duration": 0.03378375000001199,
          "durationTicks": 24,
          "midi": 42,
          "name": "F#2",
          "ticks": 60578,
          "time": 85.2730003125,
          "velocity": 0.905511811023622
        },
        {
          "duration": 0.03378374999999778,
          "durationTicks": 24,
          "midi": 42,
          "name": "F#2",
          "ticks": 60670,
          "time": 85.4025046875,
          "velocity": 0.905511811023622
        },
        {
          "duration": 0.03378374999999778,
          "durationTicks": 24,
          "midi": 42,
          "name": "F#2",
          "ticks": 60770,
          "time": 85.54327031250001,
          "velocity": 0.9291338582677166
        },
        {
          "duration": 0.03378374999999778,
          "durationTicks": 24,
          "midi": 42,
          "name": "F#2",
          "ticks": 60962,
          "time": 85.81354031250001,
          "velocity": 0.9291338582677166
        },
        {
          "duration": 0.03378375000001199,
          "durationTicks": 24,
          "midi": 42,
          "name": "F#2",
          "ticks": 61060,
          "time": 85.95149062499999,
          "velocity": 0.9291338582677166
        },
        {
          "duration": 0.03378374999999778,
          "durationTicks": 24,
          "midi": 42,
          "name": "F#2",
          "ticks": 61152,
          "time": 86.080995,
          "velocity": 0.5748031496062992
        },
        {
          "duration": 0.03378374999999778,
          "durationTicks": 24,
          "midi": 42,
          "name": "F#2",
          "ticks": 61248,
          "time": 86.21613,
          "velocity": 0.9291338582677166
        },
        {
          "duration": 0.03378375000001199,
          "durationTicks": 24,
          "midi": 42,
          "name": "F#2",
          "ticks": 61348,
          "time": 86.35689562499999,
          "velocity": 0.9291338582677166
        },
        {
          "duration": 0.03378374999999778,
          "durationTicks": 24,
          "midi": 42,
          "name": "F#2",
          "ticks": 62208,
          "time": 87.56748,
          "velocity": 0.9291338582677166
        },
        {
          "duration": 0.03378374999999778,
          "durationTicks": 24,
          "midi": 42,
          "name": "F#2",
          "ticks": 62304,
          "time": 87.70261500000001,
          "velocity": 0.9291338582677166
        },
        {
          "duration": 0.03378374999999778,
          "durationTicks": 24,
          "midi": 42,
          "name": "F#2",
          "ticks": 62498,
          "time": 87.97570031250001,
          "velocity": 0.7559055118110236
        },
        {
          "duration": 0.03378374999999778,
          "durationTicks": 24,
          "midi": 42,
          "name": "F#2",
          "ticks": 62592,
          "time": 88.10802000000001,
          "velocity": 0.9291338582677166
        },
        {
          "duration": 0.03378374999999778,
          "durationTicks": 24,
          "midi": 42,
          "name": "F#2",
          "ticks": 62782,
          "time": 88.3754746875,
          "velocity": 0.9291338582677166
        },
        {
          "duration": 0.03378374999999778,
          "durationTicks": 24,
          "midi": 42,
          "name": "F#2",
          "ticks": 63554,
          "time": 89.46218531250001,
          "velocity": 0.6850393700787402
        },
        {
          "duration": 0.03378375000001199,
          "durationTicks": 24,
          "midi": 42,
          "name": "F#2",
          "ticks": 63648,
          "time": 89.594505,
          "velocity": 0.7007874015748031
        },
        {
          "duration": 0.03378374999999778,
          "durationTicks": 24,
          "midi": 42,
          "name": "F#2",
          "ticks": 63746,
          "time": 89.73245531250001,
          "velocity": 0.9291338582677166
        },
        {
          "duration": 0.03378374999999778,
          "durationTicks": 24,
          "midi": 42,
          "name": "F#2",
          "ticks": 63838,
          "time": 89.8619596875,
          "velocity": 0.9291338582677166
        },
        {
          "duration": 0.03378374999999778,
          "durationTicks": 24,
          "midi": 42,
          "name": "F#2",
          "ticks": 64036,
          "time": 90.140675625,
          "velocity": 0.8818897637795275
        },
        {
          "duration": 0.03378374999999778,
          "durationTicks": 24,
          "midi": 42,
          "name": "F#2",
          "ticks": 64130,
          "time": 90.27299531250002,
          "velocity": 0.9291338582677166
        },
        {
          "duration": 0.03378374999999778,
          "durationTicks": 24,
          "midi": 42,
          "name": "F#2",
          "ticks": 64228,
          "time": 90.410945625,
          "velocity": 0.6929133858267716
        },
        {
          "duration": 0.03378374999999778,
          "durationTicks": 24,
          "midi": 42,
          "name": "F#2",
          "ticks": 64320,
          "time": 90.54045,
          "velocity": 0.9291338582677166
        },
        {
          "duration": 0.03378375000001199,
          "durationTicks": 24,
          "midi": 42,
          "name": "F#2",
          "ticks": 64416,
          "time": 90.675585,
          "velocity": 0.9291338582677166
        },
        {
          "duration": 0.03378374999999778,
          "durationTicks": 24,
          "midi": 42,
          "name": "F#2",
          "ticks": 65284,
          "time": 91.897430625,
          "velocity": 0.9291338582677166
        },
        {
          "duration": 0.03378374999999778,
          "durationTicks": 24,
          "midi": 42,
          "name": "F#2",
          "ticks": 65376,
          "time": 92.02693500000001,
          "velocity": 0.9291338582677166
        },
        {
          "duration": 0.03378374999999778,
          "durationTicks": 24,
          "midi": 42,
          "name": "F#2",
          "ticks": 65572,
          "time": 92.302835625,
          "velocity": 0.8031496062992126
        },
        {
          "duration": 0.03378374999999778,
          "durationTicks": 24,
          "midi": 42,
          "name": "F#2",
          "ticks": 65666,
          "time": 92.43515531250002,
          "velocity": 0.9291338582677166
        },
        {
          "duration": 0.03378374999999778,
          "durationTicks": 24,
          "midi": 42,
          "name": "F#2",
          "ticks": 65858,
          "time": 92.70542531250001,
          "velocity": 0.9291338582677166
        },
        {
          "duration": 0.03378374999999778,
          "durationTicks": 24,
          "midi": 42,
          "name": "F#2",
          "ticks": 66628,
          "time": 93.789320625,
          "velocity": 0.8503937007874016
        },
        {
          "duration": 0.03378375000001199,
          "durationTicks": 24,
          "midi": 42,
          "name": "F#2",
          "ticks": 66722,
          "time": 93.9216403125,
          "velocity": 0.905511811023622
        },
        {
          "duration": 0.03378374999999778,
          "durationTicks": 24,
          "midi": 42,
          "name": "F#2",
          "ticks": 66816,
          "time": 94.05396,
          "velocity": 0.905511811023622
        },
        {
          "duration": 0.03378374999999778,
          "durationTicks": 24,
          "midi": 42,
          "name": "F#2",
          "ticks": 66914,
          "time": 94.19191031250001,
          "velocity": 0.9291338582677166
        },
        {
          "duration": 0.03378374999999778,
          "durationTicks": 24,
          "midi": 42,
          "name": "F#2",
          "ticks": 67106,
          "time": 94.46218031250001,
          "velocity": 0.9291338582677166
        },
        {
          "duration": 0.03378375000001199,
          "durationTicks": 24,
          "midi": 42,
          "name": "F#2",
          "ticks": 67204,
          "time": 94.60013062499999,
          "velocity": 0.9291338582677166
        },
        {
          "duration": 0.03378374999999778,
          "durationTicks": 24,
          "midi": 42,
          "name": "F#2",
          "ticks": 67298,
          "time": 94.7324503125,
          "velocity": 0.5748031496062992
        },
        {
          "duration": 0.03378374999999778,
          "durationTicks": 24,
          "midi": 42,
          "name": "F#2",
          "ticks": 67396,
          "time": 94.870400625,
          "velocity": 0.9291338582677166
        },
        {
          "duration": 0.03378375000001199,
          "durationTicks": 24,
          "midi": 42,
          "name": "F#2",
          "ticks": 67488,
          "time": 94.999905,
          "velocity": 0.9291338582677166
        },
        {
          "duration": 0.03378374999999778,
          "durationTicks": 24,
          "midi": 42,
          "name": "F#2",
          "ticks": 68354,
          "time": 96.21893531250001,
          "velocity": 0.9291338582677166
        },
        {
          "duration": 0.03378374999999778,
          "durationTicks": 24,
          "midi": 42,
          "name": "F#2",
          "ticks": 68452,
          "time": 96.356885625,
          "velocity": 0.9291338582677166
        },
        {
          "duration": 0.03378374999999778,
          "durationTicks": 24,
          "midi": 42,
          "name": "F#2",
          "ticks": 68640,
          "time": 96.621525,
          "velocity": 0.7559055118110236
        },
        {
          "duration": 0.03378375000001199,
          "durationTicks": 24,
          "midi": 42,
          "name": "F#2",
          "ticks": 68740,
          "time": 96.76229062499999,
          "velocity": 0.9291338582677166
        },
        {
          "duration": 0.03378374999999778,
          "durationTicks": 24,
          "midi": 42,
          "name": "F#2",
          "ticks": 68928,
          "time": 97.02693000000001,
          "velocity": 0.9291338582677166
        },
        {
          "duration": 0.03378374999999778,
          "durationTicks": 24,
          "midi": 42,
          "name": "F#2",
          "ticks": 69696,
          "time": 98.10801000000001,
          "velocity": 0.6850393700787402
        },
        {
          "duration": 0.03378375000001199,
          "durationTicks": 24,
          "midi": 42,
          "name": "F#2",
          "ticks": 69796,
          "time": 98.248775625,
          "velocity": 0.7007874015748031
        },
        {
          "duration": 0.03378374999999778,
          "durationTicks": 24,
          "midi": 42,
          "name": "F#2",
          "ticks": 69890,
          "time": 98.38109531250001,
          "velocity": 0.9291338582677166
        },
        {
          "duration": 0.03378374999999778,
          "durationTicks": 24,
          "midi": 42,
          "name": "F#2",
          "ticks": 69984,
          "time": 98.51341500000001,
          "velocity": 0.9291338582677166
        },
        {
          "duration": 0.03378374999999778,
          "durationTicks": 24,
          "midi": 42,
          "name": "F#2",
          "ticks": 70174,
          "time": 98.7808696875,
          "velocity": 0.8818897637795275
        },
        {
          "duration": 0.03378374999999778,
          "durationTicks": 24,
          "midi": 42,
          "name": "F#2",
          "ticks": 70274,
          "time": 98.92163531250002,
          "velocity": 0.9291338582677166
        },
        {
          "duration": 0.03378374999999778,
          "durationTicks": 24,
          "midi": 42,
          "name": "F#2",
          "ticks": 70372,
          "time": 99.059585625,
          "velocity": 0.6929133858267716
        },
        {
          "duration": 0.03378374999999778,
          "durationTicks": 24,
          "midi": 42,
          "name": "F#2",
          "ticks": 70466,
          "time": 99.19190531250001,
          "velocity": 0.9291338582677166
        },
        {
          "duration": 0.03378375000001199,
          "durationTicks": 24,
          "midi": 42,
          "name": "F#2",
          "ticks": 70564,
          "time": 99.329855625,
          "velocity": 0.9291338582677166
        },
        {
          "duration": 0.03378374999999778,
          "durationTicks": 24,
          "midi": 42,
          "name": "F#2",
          "ticks": 71428,
          "time": 100.546070625,
          "velocity": 0.9291338582677166
        },
        {
          "duration": 0.03378374999999778,
          "durationTicks": 24,
          "midi": 42,
          "name": "F#2",
          "ticks": 71522,
          "time": 100.67839031250001,
          "velocity": 0.9291338582677166
        },
        {
          "duration": 0.03378374999999778,
          "durationTicks": 24,
          "midi": 42,
          "name": "F#2",
          "ticks": 71712,
          "time": 100.945845,
          "velocity": 0.8031496062992126
        },
        {
          "duration": 0.03378374999999778,
          "durationTicks": 24,
          "midi": 42,
          "name": "F#2",
          "ticks": 71808,
          "time": 101.08098000000001,
          "velocity": 0.9291338582677166
        },
        {
          "duration": 0.03378374999999778,
          "durationTicks": 24,
          "midi": 42,
          "name": "F#2",
          "ticks": 72002,
          "time": 101.35406531250001,
          "velocity": 0.9291338582677166
        },
        {
          "duration": 0.03378374999999778,
          "durationTicks": 24,
          "midi": 42,
          "name": "F#2",
          "ticks": 72768,
          "time": 102.43233000000001,
          "velocity": 0.8503937007874016
        },
        {
          "duration": 0.03378375000001199,
          "durationTicks": 24,
          "midi": 42,
          "name": "F#2",
          "ticks": 72864,
          "time": 102.567465,
          "velocity": 0.905511811023622
        },
        {
          "duration": 0.03378374999999778,
          "durationTicks": 24,
          "midi": 42,
          "name": "F#2",
          "ticks": 72964,
          "time": 102.708230625,
          "velocity": 0.905511811023622
        },
        {
          "duration": 0.03378374999999778,
          "durationTicks": 24,
          "midi": 42,
          "name": "F#2",
          "ticks": 73058,
          "time": 102.84055031250001,
          "velocity": 0.9291338582677166
        },
        {
          "duration": 0.03378374999999778,
          "durationTicks": 24,
          "midi": 42,
          "name": "F#2",
          "ticks": 73250,
          "time": 103.11082031250001,
          "velocity": 0.9291338582677166
        },
        {
          "duration": 0.03378375000001199,
          "durationTicks": 24,
          "midi": 42,
          "name": "F#2",
          "ticks": 73342,
          "time": 103.24032468749999,
          "velocity": 0.9291338582677166
        },
        {
          "duration": 0.03378374999999778,
          "durationTicks": 24,
          "midi": 42,
          "name": "F#2",
          "ticks": 73442,
          "time": 103.3810903125,
          "velocity": 0.5748031496062992
        },
        {
          "duration": 0.03378374999999778,
          "durationTicks": 24,
          "midi": 42,
          "name": "F#2",
          "ticks": 73540,
          "time": 103.519040625,
          "velocity": 0.9291338582677166
        },
        {
          "duration": 0.03378375000001199,
          "durationTicks": 24,
          "midi": 42,
          "name": "F#2",
          "ticks": 73634,
          "time": 103.6513603125,
          "velocity": 0.9291338582677166
        },
        {
          "duration": 0.03378374999999778,
          "durationTicks": 24,
          "midi": 42,
          "name": "F#2",
          "ticks": 74498,
          "time": 104.86757531250001,
          "velocity": 0.9291338582677166
        },
        {
          "duration": 0.03378374999999778,
          "durationTicks": 24,
          "midi": 42,
          "name": "F#2",
          "ticks": 74596,
          "time": 105.005525625,
          "velocity": 0.9291338582677166
        },
        {
          "duration": 0.03378374999999778,
          "durationTicks": 24,
          "midi": 42,
          "name": "F#2",
          "ticks": 74788,
          "time": 105.275795625,
          "velocity": 0.7559055118110236
        },
        {
          "duration": 0.03378374999999778,
          "durationTicks": 24,
          "midi": 42,
          "name": "F#2",
          "ticks": 74880,
          "time": 105.40530000000001,
          "velocity": 0.9291338582677166
        },
        {
          "duration": 0.03378374999999778,
          "durationTicks": 24,
          "midi": 42,
          "name": "F#2",
          "ticks": 75076,
          "time": 105.681200625,
          "velocity": 0.9291338582677166
        },
        {
          "duration": 0.03378374999999778,
          "durationTicks": 24,
          "midi": 42,
          "name": "F#2",
          "ticks": 75844,
          "time": 106.762280625,
          "velocity": 0.6850393700787402
        },
        {
          "duration": 0.03378375000001199,
          "durationTicks": 24,
          "midi": 42,
          "name": "F#2",
          "ticks": 75936,
          "time": 106.891785,
          "velocity": 0.7007874015748031
        },
        {
          "duration": 0.03378374999999778,
          "durationTicks": 24,
          "midi": 42,
          "name": "F#2",
          "ticks": 76032,
          "time": 107.02692,
          "velocity": 0.9291338582677166
        },
        {
          "duration": 0.03378374999999778,
          "durationTicks": 24,
          "midi": 42,
          "name": "F#2",
          "ticks": 76132,
          "time": 107.167685625,
          "velocity": 0.9291338582677166
        },
        {
          "duration": 0.03378374999999778,
          "durationTicks": 24,
          "midi": 42,
          "name": "F#2",
          "ticks": 76320,
          "time": 107.432325,
          "velocity": 0.8818897637795275
        },
        {
          "duration": 0.03378374999999778,
          "durationTicks": 24,
          "midi": 42,
          "name": "F#2",
          "ticks": 76418,
          "time": 107.57027531250002,
          "velocity": 0.9291338582677166
        },
        {
          "duration": 0.03378374999999778,
          "durationTicks": 24,
          "midi": 42,
          "name": "F#2",
          "ticks": 76510,
          "time": 107.6997796875,
          "velocity": 0.6929133858267716
        },
        {
          "duration": 0.03378374999999778,
          "durationTicks": 24,
          "midi": 42,
          "name": "F#2",
          "ticks": 76610,
          "time": 107.84054531250001,
          "velocity": 0.9291338582677166
        },
        {
          "duration": 0.03378375000001199,
          "durationTicks": 24,
          "midi": 42,
          "name": "F#2",
          "ticks": 76708,
          "time": 107.978495625,
          "velocity": 0.9291338582677166
        },
        {
          "duration": 0.03378374999999778,
          "durationTicks": 24,
          "midi": 42,
          "name": "F#2",
          "ticks": 77566,
          "time": 109.1862646875,
          "velocity": 0.9291338582677166
        },
        {
          "duration": 0.03378374999999778,
          "durationTicks": 24,
          "midi": 42,
          "name": "F#2",
          "ticks": 77666,
          "time": 109.32703031250001,
          "velocity": 0.9291338582677166
        },
        {
          "duration": 0.03378374999999778,
          "durationTicks": 24,
          "midi": 42,
          "name": "F#2",
          "ticks": 77858,
          "time": 109.59730031250001,
          "velocity": 0.8031496062992126
        },
        {
          "duration": 0.03378375000001199,
          "durationTicks": 24,
          "midi": 42,
          "name": "F#2",
          "ticks": 77956,
          "time": 109.73525062499999,
          "velocity": 0.9291338582677166
        },
        {
          "duration": 0.03378374999999778,
          "durationTicks": 24,
          "midi": 42,
          "name": "F#2",
          "ticks": 78144,
          "time": 109.99989000000001,
          "velocity": 0.9291338582677166
        },
        {
          "duration": 0.03378374999999778,
          "durationTicks": 24,
          "midi": 42,
          "name": "F#2",
          "ticks": 78914,
          "time": 111.08378531250001,
          "velocity": 0.8503937007874016
        },
        {
          "duration": 0.03378375000001199,
          "durationTicks": 24,
          "midi": 42,
          "name": "F#2",
          "ticks": 79012,
          "time": 111.221735625,
          "velocity": 0.905511811023622
        },
        {
          "duration": 0.03378374999999778,
          "durationTicks": 24,
          "midi": 42,
          "name": "F#2",
          "ticks": 79104,
          "time": 111.35124,
          "velocity": 0.905511811023622
        },
        {
          "duration": 0.03378374999999778,
          "durationTicks": 24,
          "midi": 42,
          "name": "F#2",
          "ticks": 79200,
          "time": 111.48637500000001,
          "velocity": 0.9291338582677166
        },
        {
          "duration": 0.03378374999999778,
          "durationTicks": 24,
          "midi": 42,
          "name": "F#2",
          "ticks": 79394,
          "time": 111.75946031250001,
          "velocity": 0.9291338582677166
        },
        {
          "duration": 0.03378374999999778,
          "durationTicks": 24,
          "midi": 42,
          "name": "F#2",
          "ticks": 79488,
          "time": 111.89178000000001,
          "velocity": 0.9291338582677166
        },
        {
          "duration": 0.03378374999999778,
          "durationTicks": 24,
          "midi": 42,
          "name": "F#2",
          "ticks": 79586,
          "time": 112.0297303125,
          "velocity": 0.5748031496062992
        },
        {
          "duration": 0.03378374999999778,
          "durationTicks": 24,
          "midi": 42,
          "name": "F#2",
          "ticks": 79678,
          "time": 112.1592346875,
          "velocity": 0.9291338582677166
        },
        {
          "duration": 0.03378375000001199,
          "durationTicks": 24,
          "midi": 42,
          "name": "F#2",
          "ticks": 79778,
          "time": 112.3000003125,
          "velocity": 0.9291338582677166
        },
        {
          "duration": 0.03378374999999778,
          "durationTicks": 24,
          "midi": 42,
          "name": "F#2",
          "ticks": 80642,
          "time": 113.51621531250001,
          "velocity": 0.9291338582677166
        },
        {
          "duration": 0.03378374999999778,
          "durationTicks": 24,
          "midi": 42,
          "name": "F#2",
          "ticks": 80734,
          "time": 113.6457196875,
          "velocity": 0.9291338582677166
        },
        {
          "duration": 0.03378374999999778,
          "durationTicks": 24,
          "midi": 42,
          "name": "F#2",
          "ticks": 80932,
          "time": 113.924435625,
          "velocity": 0.7559055118110236
        },
        {
          "duration": 0.03378374999999778,
          "durationTicks": 24,
          "midi": 42,
          "name": "F#2",
          "ticks": 81026,
          "time": 114.05675531250002,
          "velocity": 0.9291338582677166
        },
        {
          "duration": 0.03378374999999778,
          "durationTicks": 24,
          "midi": 42,
          "name": "F#2",
          "ticks": 81216,
          "time": 114.32421000000001,
          "velocity": 0.9291338582677166
        },
        {
          "duration": 0.03378374999999778,
          "durationTicks": 24,
          "midi": 42,
          "name": "F#2",
          "ticks": 81988,
          "time": 115.410920625,
          "velocity": 0.6850393700787402
        },
        {
          "duration": 0.03378375000001199,
          "durationTicks": 24,
          "midi": 42,
          "name": "F#2",
          "ticks": 82082,
          "time": 115.5432403125,
          "velocity": 0.7007874015748031
        },
        {
          "duration": 0.03378374999999778,
          "durationTicks": 24,
          "midi": 42,
          "name": "F#2",
          "ticks": 82180,
          "time": 115.681190625,
          "velocity": 0.9291338582677166
        },
        {
          "duration": 0.03378374999999778,
          "durationTicks": 24,
          "midi": 42,
          "name": "F#2",
          "ticks": 82272,
          "time": 115.81069500000001,
          "velocity": 0.9291338582677166
        },
        {
          "duration": 0.03378374999999778,
          "durationTicks": 24,
          "midi": 42,
          "name": "F#2",
          "ticks": 82468,
          "time": 116.086595625,
          "velocity": 0.8818897637795275
        },
        {
          "duration": 0.03378374999999778,
          "durationTicks": 24,
          "midi": 42,
          "name": "F#2",
          "ticks": 82562,
          "time": 116.21891531250002,
          "velocity": 0.9291338582677166
        },
        {
          "duration": 0.03378374999999778,
          "durationTicks": 24,
          "midi": 42,
          "name": "F#2",
          "ticks": 82656,
          "time": 116.351235,
          "velocity": 0.6929133858267716
        },
        {
          "duration": 0.03378374999999778,
          "durationTicks": 24,
          "midi": 42,
          "name": "F#2",
          "ticks": 82754,
          "time": 116.48918531250001,
          "velocity": 0.9291338582677166
        },
        {
          "duration": 0.03378374999999778,
          "durationTicks": 24,
          "midi": 42,
          "name": "F#2",
          "ticks": 82846,
          "time": 116.6186896875,
          "velocity": 0.9291338582677166
        },
        {
          "duration": 0.03378374999999778,
          "durationTicks": 24,
          "midi": 42,
          "name": "F#2",
          "ticks": 83712,
          "time": 117.83772,
          "velocity": 0.9291338582677166
        },
        {
          "duration": 0.03378374999999778,
          "durationTicks": 24,
          "midi": 42,
          "name": "F#2",
          "ticks": 83810,
          "time": 117.97567031250001,
          "velocity": 0.9291338582677166
        },
        {
          "duration": 0.03378374999999778,
          "durationTicks": 24,
          "midi": 42,
          "name": "F#2",
          "ticks": 84002,
          "time": 118.24594031250001,
          "velocity": 0.8031496062992126
        },
        {
          "duration": 0.03378375000001199,
          "durationTicks": 24,
          "midi": 42,
          "name": "F#2",
          "ticks": 84100,
          "time": 118.38389062499999,
          "velocity": 0.9291338582677166
        },
        {
          "duration": 0.03378374999999778,
          "durationTicks": 24,
          "midi": 42,
          "name": "F#2",
          "ticks": 84292,
          "time": 118.654160625,
          "velocity": 0.9291338582677166
        },
        {
          "duration": 0.03378374999999778,
          "durationTicks": 24,
          "midi": 42,
          "name": "F#2",
          "ticks": 85058,
          "time": 119.73242531250001,
          "velocity": 0.8503937007874016
        },
        {
          "duration": 0.03378375000001199,
          "durationTicks": 24,
          "midi": 42,
          "name": "F#2",
          "ticks": 85156,
          "time": 119.870375625,
          "velocity": 0.905511811023622
        },
        {
          "duration": 0.03378374999999778,
          "durationTicks": 24,
          "midi": 42,
          "name": "F#2",
          "ticks": 85250,
          "time": 120.00269531250001,
          "velocity": 0.905511811023622
        },
        {
          "duration": 0.03378374999999778,
          "durationTicks": 24,
          "midi": 42,
          "name": "F#2",
          "ticks": 85348,
          "time": 120.140645625,
          "velocity": 0.9291338582677166
        },
        {
          "duration": 0.03378374999999778,
          "durationTicks": 24,
          "midi": 42,
          "name": "F#2",
          "ticks": 85536,
          "time": 120.405285,
          "velocity": 0.9291338582677166
        },
        {
          "duration": 0.03378375000001199,
          "durationTicks": 24,
          "midi": 42,
          "name": "F#2",
          "ticks": 85636,
          "time": 120.54605062499999,
          "velocity": 0.9291338582677166
        },
        {
          "duration": 0.03378374999999778,
          "durationTicks": 24,
          "midi": 42,
          "name": "F#2",
          "ticks": 85730,
          "time": 120.67837031250001,
          "velocity": 0.5748031496062992
        },
        {
          "duration": 0.03378374999999778,
          "durationTicks": 24,
          "midi": 42,
          "name": "F#2",
          "ticks": 85824,
          "time": 120.81069000000001,
          "velocity": 0.9291338582677166
        },
        {
          "duration": 0.03378375000001199,
          "durationTicks": 24,
          "midi": 42,
          "name": "F#2",
          "ticks": 85922,
          "time": 120.9486403125,
          "velocity": 0.9291338582677166
        },
        {
          "duration": 0.03378374999999778,
          "durationTicks": 24,
          "midi": 42,
          "name": "F#2",
          "ticks": 86786,
          "time": 122.16485531250001,
          "velocity": 0.9291338582677166
        },
        {
          "duration": 0.03378374999999778,
          "durationTicks": 24,
          "midi": 42,
          "name": "F#2",
          "ticks": 86880,
          "time": 122.29717500000001,
          "velocity": 0.9291338582677166
        },
        {
          "duration": 0.03378374999999778,
          "durationTicks": 24,
          "midi": 42,
          "name": "F#2",
          "ticks": 87070,
          "time": 122.5646296875,
          "velocity": 0.7559055118110236
        },
        {
          "duration": 0.03378374999999778,
          "durationTicks": 24,
          "midi": 42,
          "name": "F#2",
          "ticks": 87170,
          "time": 122.70539531250002,
          "velocity": 0.9291338582677166
        },
        {
          "duration": 0.03378374999999778,
          "durationTicks": 24,
          "midi": 42,
          "name": "F#2",
          "ticks": 87362,
          "time": 122.97566531250001,
          "velocity": 0.9291338582677166
        },
        {
          "duration": 0.03378374999999778,
          "durationTicks": 24,
          "midi": 42,
          "name": "F#2",
          "ticks": 88126,
          "time": 124.0511146875,
          "velocity": 0.6850393700787402
        },
        {
          "duration": 0.03378375000001199,
          "durationTicks": 24,
          "midi": 42,
          "name": "F#2",
          "ticks": 88226,
          "time": 124.1918803125,
          "velocity": 0.7007874015748031
        },
        {
          "duration": 0.03378374999999778,
          "durationTicks": 24,
          "midi": 42,
          "name": "F#2",
          "ticks": 88324,
          "time": 124.329830625,
          "velocity": 0.9291338582677166
        },
        {
          "duration": 0.03378374999999778,
          "durationTicks": 24,
          "midi": 42,
          "name": "F#2",
          "ticks": 88418,
          "time": 124.46215031250001,
          "velocity": 0.9291338582677166
        },
        {
          "duration": 0.03378374999999778,
          "durationTicks": 24,
          "midi": 42,
          "name": "F#2",
          "ticks": 88608,
          "time": 124.729605,
          "velocity": 0.8818897637795275
        },
        {
          "duration": 0.03378374999999778,
          "durationTicks": 24,
          "midi": 42,
          "name": "F#2",
          "ticks": 88704,
          "time": 124.86474000000001,
          "velocity": 0.9291338582677166
        },
        {
          "duration": 0.03378374999999778,
          "durationTicks": 24,
          "midi": 42,
          "name": "F#2",
          "ticks": 88804,
          "time": 125.005505625,
          "velocity": 0.6929133858267716
        },
        {
          "duration": 0.03378374999999778,
          "durationTicks": 24,
          "midi": 42,
          "name": "F#2",
          "ticks": 88898,
          "time": 125.13782531250001,
          "velocity": 0.9291338582677166
        },
        {
          "duration": 0.03378375000001199,
          "durationTicks": 24,
          "midi": 42,
          "name": "F#2",
          "ticks": 88992,
          "time": 125.270145,
          "velocity": 0.9291338582677166
        },
        {
          "duration": 0.03378374999999778,
          "durationTicks": 24,
          "midi": 42,
          "name": "F#2",
          "ticks": 89860,
          "time": 126.491990625,
          "velocity": 0.9291338582677166
        },
        {
          "duration": 0.03378374999999778,
          "durationTicks": 24,
          "midi": 42,
          "name": "F#2",
          "ticks": 89954,
          "time": 126.62431031250001,
          "velocity": 0.9291338582677166
        },
        {
          "duration": 0.03378374999999778,
          "durationTicks": 24,
          "midi": 42,
          "name": "F#2",
          "ticks": 90146,
          "time": 126.89458031250001,
          "velocity": 0.8031496062992126
        },
        {
          "duration": 0.03378375000001199,
          "durationTicks": 24,
          "midi": 42,
          "name": "F#2",
          "ticks": 90238,
          "time": 127.0240846875,
          "velocity": 0.9291338582677166
        },
        {
          "duration": 0.03378374999999778,
          "durationTicks": 24,
          "midi": 42,
          "name": "F#2",
          "ticks": 90436,
          "time": 127.302800625,
          "velocity": 0.9291338582677166
        },
        {
          "duration": 0.03378374999999778,
          "durationTicks": 24,
          "midi": 42,
          "name": "F#2",
          "ticks": 91202,
          "time": 128.3810653125,
          "velocity": 0.8503937007874016
        },
        {
          "duration": 0.03378374999999778,
          "durationTicks": 24,
          "midi": 42,
          "name": "F#2",
          "ticks": 91294,
          "time": 128.5105696875,
          "velocity": 0.905511811023622
        },
        {
          "duration": 0.03378374999999778,
          "durationTicks": 24,
          "midi": 42,
          "name": "F#2",
          "ticks": 91394,
          "time": 128.6513353125,
          "velocity": 0.905511811023622
        },
        {
          "duration": 0.03378374999999778,
          "durationTicks": 24,
          "midi": 42,
          "name": "F#2",
          "ticks": 91492,
          "time": 128.789285625,
          "velocity": 0.9291338582677166
        },
        {
          "duration": 0.03378374999999778,
          "durationTicks": 24,
          "midi": 42,
          "name": "F#2",
          "ticks": 91684,
          "time": 129.059555625,
          "velocity": 0.9291338582677166
        },
        {
          "duration": 0.03378374999999778,
          "durationTicks": 24,
          "midi": 42,
          "name": "F#2",
          "ticks": 91776,
          "time": 129.18906,
          "velocity": 0.9291338582677166
        },
        {
          "duration": 0.03378374999999778,
          "durationTicks": 24,
          "midi": 42,
          "name": "F#2",
          "ticks": 91872,
          "time": 129.324195,
          "velocity": 0.5748031496062992
        },
        {
          "duration": 0.03378374999999778,
          "durationTicks": 24,
          "midi": 42,
          "name": "F#2",
          "ticks": 91972,
          "time": 129.464960625,
          "velocity": 0.9291338582677166
        },
        {
          "duration": 0.03378374999999778,
          "durationTicks": 24,
          "midi": 42,
          "name": "F#2",
          "ticks": 92066,
          "time": 129.5972803125,
          "velocity": 0.9291338582677166
        },
        {
          "duration": 0.0337837500000262,
          "durationTicks": 24,
          "midi": 42,
          "name": "F#2",
          "ticks": 92928,
          "time": 130.81068,
          "velocity": 0.9291338582677166
        },
        {
          "duration": 0.03378374999999778,
          "durationTicks": 24,
          "midi": 42,
          "name": "F#2",
          "ticks": 93028,
          "time": 130.951445625,
          "velocity": 0.9291338582677166
        },
        {
          "duration": 0.0337837500000262,
          "durationTicks": 24,
          "midi": 42,
          "name": "F#2",
          "ticks": 93216,
          "time": 131.216085,
          "velocity": 0.7559055118110236
        },
        {
          "duration": 0.03378374999999778,
          "durationTicks": 24,
          "midi": 42,
          "name": "F#2",
          "ticks": 93314,
          "time": 131.3540353125,
          "velocity": 0.9291338582677166
        },
        {
          "duration": 0.03378374999999778,
          "durationTicks": 24,
          "midi": 42,
          "name": "F#2",
          "ticks": 93506,
          "time": 131.6243053125,
          "velocity": 0.9291338582677166
        },
        {
          "duration": 0.03378374999999778,
          "durationTicks": 24,
          "midi": 42,
          "name": "F#2",
          "ticks": 94272,
          "time": 132.70257,
          "velocity": 0.6850393700787402
        },
        {
          "duration": 0.03378374999999778,
          "durationTicks": 24,
          "midi": 42,
          "name": "F#2",
          "ticks": 94370,
          "time": 132.84052031250002,
          "velocity": 0.7007874015748031
        },
        {
          "duration": 0.03378374999999778,
          "durationTicks": 24,
          "midi": 42,
          "name": "F#2",
          "ticks": 94462,
          "time": 132.9700246875,
          "velocity": 0.9291338582677166
        },
        {
          "duration": 0.03378374999999778,
          "durationTicks": 24,
          "midi": 42,
          "name": "F#2",
          "ticks": 94562,
          "time": 133.1107903125,
          "velocity": 0.9291338582677166
        },
        {
          "duration": 0.03378374999999778,
          "durationTicks": 24,
          "midi": 42,
          "name": "F#2",
          "ticks": 94754,
          "time": 133.3810603125,
          "velocity": 0.8818897637795275
        },
        {
          "duration": 0.03378374999999778,
          "durationTicks": 24,
          "midi": 42,
          "name": "F#2",
          "ticks": 94852,
          "time": 133.519010625,
          "velocity": 0.9291338582677166
        },
        {
          "duration": 0.03378374999999778,
          "durationTicks": 24,
          "midi": 42,
          "name": "F#2",
          "ticks": 94944,
          "time": 133.648515,
          "velocity": 0.6929133858267716
        },
        {
          "duration": 0.03378374999999778,
          "durationTicks": 24,
          "midi": 42,
          "name": "F#2",
          "ticks": 95040,
          "time": 133.78365,
          "velocity": 0.9291338582677166
        },
        {
          "duration": 0.03378374999999778,
          "durationTicks": 24,
          "midi": 42,
          "name": "F#2",
          "ticks": 95140,
          "time": 133.924415625,
          "velocity": 0.9291338582677166
        },
        {
          "duration": 0.0337837500000262,
          "durationTicks": 24,
          "midi": 42,
          "name": "F#2",
          "ticks": 96000,
          "time": 135.135,
          "velocity": 0.9291338582677166
        },
        {
          "duration": 0.03378374999999778,
          "durationTicks": 24,
          "midi": 42,
          "name": "F#2",
          "ticks": 96096,
          "time": 135.270135,
          "velocity": 0.9291338582677166
        },
        {
          "duration": 0.03378374999999778,
          "durationTicks": 24,
          "midi": 42,
          "name": "F#2",
          "ticks": 96290,
          "time": 135.5432203125,
          "velocity": 0.8031496062992126
        },
        {
          "duration": 0.03378374999999778,
          "durationTicks": 24,
          "midi": 42,
          "name": "F#2",
          "ticks": 96384,
          "time": 135.67554,
          "velocity": 0.9291338582677166
        },
        {
          "duration": 0.03378374999999778,
          "durationTicks": 24,
          "midi": 42,
          "name": "F#2",
          "ticks": 96574,
          "time": 135.9429946875,
          "velocity": 0.9291338582677166
        },
        {
          "duration": 0.03378374999999778,
          "durationTicks": 24,
          "midi": 42,
          "name": "F#2",
          "ticks": 97346,
          "time": 137.0297053125,
          "velocity": 0.8503937007874016
        },
        {
          "duration": 0.03378374999999778,
          "durationTicks": 24,
          "midi": 42,
          "name": "F#2",
          "ticks": 97440,
          "time": 137.162025,
          "velocity": 0.905511811023622
        },
        {
          "duration": 0.03378374999999778,
          "durationTicks": 24,
          "midi": 42,
          "name": "F#2",
          "ticks": 97538,
          "time": 137.2999753125,
          "velocity": 0.905511811023622
        },
        {
          "duration": 0.03378374999999778,
          "durationTicks": 24,
          "midi": 42,
          "name": "F#2",
          "ticks": 97630,
          "time": 137.4294796875,
          "velocity": 0.9291338582677166
        },
        {
          "duration": 0.03378374999999778,
          "durationTicks": 24,
          "midi": 42,
          "name": "F#2",
          "ticks": 97828,
          "time": 137.708195625,
          "velocity": 0.9291338582677166
        },
        {
          "duration": 0.03378374999999778,
          "durationTicks": 24,
          "midi": 42,
          "name": "F#2",
          "ticks": 97922,
          "time": 137.8405153125,
          "velocity": 0.9291338582677166
        },
        {
          "duration": 0.03378374999999778,
          "durationTicks": 24,
          "midi": 42,
          "name": "F#2",
          "ticks": 98020,
          "time": 137.978465625,
          "velocity": 0.5748031496062992
        },
        {
          "duration": 0.03378374999999778,
          "durationTicks": 24,
          "midi": 42,
          "name": "F#2",
          "ticks": 98112,
          "time": 138.10797,
          "velocity": 0.9291338582677166
        },
        {
          "duration": 0.03378374999999778,
          "durationTicks": 24,
          "midi": 42,
          "name": "F#2",
          "ticks": 98208,
          "time": 138.243105,
          "velocity": 0.9291338582677166
        },
        {
          "duration": 0.03378374999999778,
          "durationTicks": 24,
          "midi": 42,
          "name": "F#2",
          "ticks": 99076,
          "time": 139.46495062500003,
          "velocity": 0.9291338582677166
        },
        {
          "duration": 0.03378374999999778,
          "durationTicks": 24,
          "midi": 42,
          "name": "F#2",
          "ticks": 99168,
          "time": 139.594455,
          "velocity": 0.9291338582677166
        },
        {
          "duration": 0.0337837500000262,
          "durationTicks": 24,
          "midi": 42,
          "name": "F#2",
          "ticks": 99364,
          "time": 139.870355625,
          "velocity": 0.7559055118110236
        },
        {
          "duration": 0.03378374999999778,
          "durationTicks": 24,
          "midi": 42,
          "name": "F#2",
          "ticks": 99458,
          "time": 140.0026753125,
          "velocity": 0.9291338582677166
        },
        {
          "duration": 0.03378374999999778,
          "durationTicks": 24,
          "midi": 42,
          "name": "F#2",
          "ticks": 99650,
          "time": 140.27294531249998,
          "velocity": 0.9291338582677166
        },
        {
          "duration": 0.03378374999999778,
          "durationTicks": 24,
          "midi": 42,
          "name": "F#2",
          "ticks": 100420,
          "time": 141.35684062500002,
          "velocity": 0.6850393700787402
        },
        {
          "duration": 0.03378374999999778,
          "durationTicks": 24,
          "midi": 42,
          "name": "F#2",
          "ticks": 100514,
          "time": 141.4891603125,
          "velocity": 0.7007874015748031
        },
        {
          "duration": 0.03378374999999778,
          "durationTicks": 24,
          "midi": 42,
          "name": "F#2",
          "ticks": 100608,
          "time": 141.62148000000002,
          "velocity": 0.9291338582677166
        },
        {
          "duration": 0.03378374999999778,
          "durationTicks": 24,
          "midi": 42,
          "name": "F#2",
          "ticks": 100706,
          "time": 141.7594303125,
          "velocity": 0.9291338582677166
        },
        {
          "duration": 0.03378374999999778,
          "durationTicks": 24,
          "midi": 42,
          "name": "F#2",
          "ticks": 100898,
          "time": 142.02970031249998,
          "velocity": 0.8818897637795275
        },
        {
          "duration": 0.03378374999999778,
          "durationTicks": 24,
          "midi": 42,
          "name": "F#2",
          "ticks": 100996,
          "time": 142.16765062500002,
          "velocity": 0.9291338582677166
        },
        {
          "duration": 0.03378374999999778,
          "durationTicks": 24,
          "midi": 42,
          "name": "F#2",
          "ticks": 101090,
          "time": 142.2999703125,
          "velocity": 0.6929133858267716
        },
        {
          "duration": 0.03378374999999778,
          "durationTicks": 24,
          "midi": 42,
          "name": "F#2",
          "ticks": 101188,
          "time": 142.437920625,
          "velocity": 0.9291338582677166
        },
        {
          "duration": 0.03378374999999778,
          "durationTicks": 24,
          "midi": 42,
          "name": "F#2",
          "ticks": 101280,
          "time": 142.56742500000001,
          "velocity": 0.9291338582677166
        },
        {
          "duration": 0.0337837500000262,
          "durationTicks": 24,
          "midi": 42,
          "name": "F#2",
          "ticks": 102146,
          "time": 143.78645531249998,
          "velocity": 0.9291338582677166
        },
        {
          "duration": 0.03378374999999778,
          "durationTicks": 24,
          "midi": 42,
          "name": "F#2",
          "ticks": 102244,
          "time": 143.92440562500002,
          "velocity": 0.9291338582677166
        },
        {
          "duration": 0.0337837500000262,
          "durationTicks": 24,
          "midi": 42,
          "name": "F#2",
          "ticks": 102432,
          "time": 144.189045,
          "velocity": 0.8031496062992126
        },
        {
          "duration": 0.03378374999999778,
          "durationTicks": 24,
          "midi": 42,
          "name": "F#2",
          "ticks": 102532,
          "time": 144.32981062500002,
          "velocity": 0.9291338582677166
        },
        {
          "duration": 0.03378374999999778,
          "durationTicks": 24,
          "midi": 42,
          "name": "F#2",
          "ticks": 102720,
          "time": 144.59445,
          "velocity": 0.9291338582677166
        },
        {
          "duration": 0.03378374999999778,
          "durationTicks": 24,
          "midi": 42,
          "name": "F#2",
          "ticks": 103488,
          "time": 145.67553,
          "velocity": 0.8503937007874016
        },
        {
          "duration": 0.03378374999999778,
          "durationTicks": 24,
          "midi": 42,
          "name": "F#2",
          "ticks": 103588,
          "time": 145.816295625,
          "velocity": 0.905511811023622
        },
        {
          "duration": 0.0337837500000262,
          "durationTicks": 24,
          "midi": 42,
          "name": "F#2",
          "ticks": 103682,
          "time": 145.94861531249998,
          "velocity": 0.905511811023622
        },
        {
          "duration": 0.03378374999999778,
          "durationTicks": 24,
          "midi": 42,
          "name": "F#2",
          "ticks": 103776,
          "time": 146.080935,
          "velocity": 0.9291338582677166
        },
        {
          "duration": 0.0337837500000262,
          "durationTicks": 24,
          "midi": 42,
          "name": "F#2",
          "ticks": 103966,
          "time": 146.3483896875,
          "velocity": 0.9291338582677166
        },
        {
          "duration": 0.03378374999999778,
          "durationTicks": 24,
          "midi": 42,
          "name": "F#2",
          "ticks": 104066,
          "time": 146.4891553125,
          "velocity": 0.9291338582677166
        },
        {
          "duration": 0.03378374999999778,
          "durationTicks": 24,
          "midi": 42,
          "name": "F#2",
          "ticks": 104164,
          "time": 146.627105625,
          "velocity": 0.5748031496062992
        },
        {
          "duration": 0.03378374999999778,
          "durationTicks": 24,
          "midi": 42,
          "name": "F#2",
          "ticks": 104258,
          "time": 146.75942531249999,
          "velocity": 0.9291338582677166
        },
        {
          "duration": 0.03378374999999778,
          "durationTicks": 24,
          "midi": 42,
          "name": "F#2",
          "ticks": 104356,
          "time": 146.89737562500002,
          "velocity": 0.9291338582677166
        },
        {
          "duration": 0.03378374999999778,
          "durationTicks": 24,
          "midi": 42,
          "name": "F#2",
          "ticks": 105220,
          "time": 148.11359062500003,
          "velocity": 0.9291338582677166
        },
        {
          "duration": 0.03378374999999778,
          "durationTicks": 24,
          "midi": 42,
          "name": "F#2",
          "ticks": 105314,
          "time": 148.2459103125,
          "velocity": 0.9291338582677166
        },
        {
          "duration": 0.0337837500000262,
          "durationTicks": 24,
          "midi": 42,
          "name": "F#2",
          "ticks": 105504,
          "time": 148.513365,
          "velocity": 0.7559055118110236
        },
        {
          "duration": 0.03378374999999778,
          "durationTicks": 24,
          "midi": 42,
          "name": "F#2",
          "ticks": 105600,
          "time": 148.6485,
          "velocity": 0.9291338582677166
        },
        {
          "duration": 0.03378374999999778,
          "durationTicks": 24,
          "midi": 42,
          "name": "F#2",
          "ticks": 105794,
          "time": 148.92158531249999,
          "velocity": 0.9291338582677166
        },
        {
          "duration": 0.03378374999999778,
          "durationTicks": 24,
          "midi": 42,
          "name": "F#2",
          "ticks": 106560,
          "time": 149.99985,
          "velocity": 0.6850393700787402
        },
        {
          "duration": 0.03378374999999778,
          "durationTicks": 24,
          "midi": 42,
          "name": "F#2",
          "ticks": 106656,
          "time": 150.134985,
          "velocity": 0.7007874015748031
        },
        {
          "duration": 0.03378374999999778,
          "durationTicks": 24,
          "midi": 42,
          "name": "F#2",
          "ticks": 106756,
          "time": 150.27575062500003,
          "velocity": 0.9291338582677166
        },
        {
          "duration": 0.03378374999999778,
          "durationTicks": 24,
          "midi": 42,
          "name": "F#2",
          "ticks": 106850,
          "time": 150.4080703125,
          "velocity": 0.9291338582677166
        },
        {
          "duration": 0.03378374999999778,
          "durationTicks": 24,
          "midi": 42,
          "name": "F#2",
          "ticks": 107042,
          "time": 150.67834031249998,
          "velocity": 0.8818897637795275
        },
        {
          "duration": 0.03378374999999778,
          "durationTicks": 24,
          "midi": 42,
          "name": "F#2",
          "ticks": 107134,
          "time": 150.80784468750002,
          "velocity": 0.9291338582677166
        },
        {
          "duration": 0.03378374999999778,
          "durationTicks": 24,
          "midi": 42,
          "name": "F#2",
          "ticks": 107234,
          "time": 150.9486103125,
          "velocity": 0.6929133858267716
        },
        {
          "duration": 0.03378374999999778,
          "durationTicks": 24,
          "midi": 42,
          "name": "F#2",
          "ticks": 107332,
          "time": 151.086560625,
          "velocity": 0.9291338582677166
        },
        {
          "duration": 0.03378374999999778,
          "durationTicks": 24,
          "midi": 42,
          "name": "F#2",
          "ticks": 107426,
          "time": 151.2188803125,
          "velocity": 0.9291338582677166
        },
        {
          "duration": 0.0337837500000262,
          "durationTicks": 24,
          "midi": 42,
          "name": "F#2",
          "ticks": 108290,
          "time": 152.43509531249998,
          "velocity": 0.9291338582677166
        },
        {
          "duration": 0.03378374999999778,
          "durationTicks": 24,
          "midi": 42,
          "name": "F#2",
          "ticks": 108388,
          "time": 152.57304562500002,
          "velocity": 0.9291338582677166
        },
        {
          "duration": 0.0337837500000262,
          "durationTicks": 24,
          "midi": 42,
          "name": "F#2",
          "ticks": 108580,
          "time": 152.843315625,
          "velocity": 0.8031496062992126
        },
        {
          "duration": 0.03378374999999778,
          "durationTicks": 24,
          "midi": 42,
          "name": "F#2",
          "ticks": 108672,
          "time": 152.97282,
          "velocity": 0.9291338582677166
        },
        {
          "duration": 0.03378374999999778,
          "durationTicks": 24,
          "midi": 42,
          "name": "F#2",
          "ticks": 108868,
          "time": 153.248720625,
          "velocity": 0.9291338582677166
        },
        {
          "duration": 0.03378374999999778,
          "durationTicks": 24,
          "midi": 42,
          "name": "F#2",
          "ticks": 109636,
          "time": 154.32980062500002,
          "velocity": 0.8503937007874016
        },
        {
          "duration": 0.03378374999999778,
          "durationTicks": 24,
          "midi": 42,
          "name": "F#2",
          "ticks": 109728,
          "time": 154.459305,
          "velocity": 0.905511811023622
        },
        {
          "duration": 0.03378374999999778,
          "durationTicks": 24,
          "midi": 42,
          "name": "F#2",
          "ticks": 109824,
          "time": 154.59444000000002,
          "velocity": 0.905511811023622
        },
        {
          "duration": 0.03378374999999778,
          "durationTicks": 24,
          "midi": 42,
          "name": "F#2",
          "ticks": 109924,
          "time": 154.73520562500002,
          "velocity": 0.9291338582677166
        },
        {
          "duration": 0.0337837500000262,
          "durationTicks": 24,
          "midi": 42,
          "name": "F#2",
          "ticks": 110112,
          "time": 154.999845,
          "velocity": 0.9291338582677166
        },
        {
          "duration": 0.03378374999999778,
          "durationTicks": 24,
          "midi": 42,
          "name": "F#2",
          "ticks": 110210,
          "time": 155.1377953125,
          "velocity": 0.9291338582677166
        },
        {
          "duration": 0.03378374999999778,
          "durationTicks": 24,
          "midi": 42,
          "name": "F#2",
          "ticks": 110302,
          "time": 155.2672996875,
          "velocity": 0.5748031496062992
        },
        {
          "duration": 0.03378374999999778,
          "durationTicks": 24,
          "midi": 42,
          "name": "F#2",
          "ticks": 110402,
          "time": 155.40806531249999,
          "velocity": 0.9291338582677166
        },
        {
          "duration": 0.03378374999999778,
          "durationTicks": 24,
          "midi": 42,
          "name": "F#2",
          "ticks": 110500,
          "time": 155.54601562500002,
          "velocity": 0.9291338582677166
        },
        {
          "duration": 0.03378374999999778,
          "durationTicks": 24,
          "midi": 42,
          "name": "F#2",
          "ticks": 111358,
          "time": 156.75378468750003,
          "velocity": 0.9291338582677166
        },
        {
          "duration": 0.03378374999999778,
          "durationTicks": 24,
          "midi": 42,
          "name": "F#2",
          "ticks": 111458,
          "time": 156.8945503125,
          "velocity": 0.9291338582677166
        },
        {
          "duration": 0.03378374999999778,
          "durationTicks": 24,
          "midi": 42,
          "name": "F#2",
          "ticks": 111650,
          "time": 157.16482031249998,
          "velocity": 0.7559055118110236
        },
        {
          "duration": 0.03378374999999778,
          "durationTicks": 24,
          "midi": 42,
          "name": "F#2",
          "ticks": 111748,
          "time": 157.30277062500002,
          "velocity": 0.9291338582677166
        },
        {
          "duration": 0.03378374999999778,
          "durationTicks": 24,
          "midi": 42,
          "name": "F#2",
          "ticks": 111936,
          "time": 157.56741,
          "velocity": 0.9291338582677166
        },
        {
          "duration": 0.03378374999999778,
          "durationTicks": 24,
          "midi": 42,
          "name": "F#2",
          "ticks": 112706,
          "time": 158.6513053125,
          "velocity": 0.6850393700787402
        },
        {
          "duration": 0.03378374999999778,
          "durationTicks": 24,
          "midi": 42,
          "name": "F#2",
          "ticks": 112804,
          "time": 158.789255625,
          "velocity": 0.7007874015748031
        },
        {
          "duration": 0.03378374999999778,
          "durationTicks": 24,
          "midi": 42,
          "name": "F#2",
          "ticks": 112896,
          "time": 158.91876000000002,
          "velocity": 0.9291338582677166
        },
        {
          "duration": 0.03378374999999778,
          "durationTicks": 24,
          "midi": 42,
          "name": "F#2",
          "ticks": 112992,
          "time": 159.053895,
          "velocity": 0.9291338582677166
        },
        {
          "duration": 0.03378374999999778,
          "durationTicks": 24,
          "midi": 42,
          "name": "F#2",
          "ticks": 113186,
          "time": 159.32698031249998,
          "velocity": 0.8818897637795275
        },
        {
          "duration": 0.03378374999999778,
          "durationTicks": 24,
          "midi": 42,
          "name": "F#2",
          "ticks": 113280,
          "time": 159.4593,
          "velocity": 0.9291338582677166
        },
        {
          "duration": 0.03378374999999778,
          "durationTicks": 24,
          "midi": 42,
          "name": "F#2",
          "ticks": 113378,
          "time": 159.5972503125,
          "velocity": 0.6929133858267716
        },
        {
          "duration": 0.03378374999999778,
          "durationTicks": 24,
          "midi": 42,
          "name": "F#2",
          "ticks": 113470,
          "time": 159.7267546875,
          "velocity": 0.9291338582677166
        },
        {
          "duration": 0.03378374999999778,
          "durationTicks": 24,
          "midi": 42,
          "name": "F#2",
          "ticks": 113570,
          "time": 159.8675203125,
          "velocity": 0.9291338582677166
        },
        {
          "duration": 0.0337837500000262,
          "durationTicks": 24,
          "midi": 42,
          "name": "F#2",
          "ticks": 114434,
          "time": 161.08373531249998,
          "velocity": 0.9291338582677166
        },
        {
          "duration": 0.03378374999999778,
          "durationTicks": 24,
          "midi": 42,
          "name": "F#2",
          "ticks": 114526,
          "time": 161.21323968750002,
          "velocity": 0.9291338582677166
        },
        {
          "duration": 0.0337837500000262,
          "durationTicks": 24,
          "midi": 42,
          "name": "F#2",
          "ticks": 114724,
          "time": 161.491955625,
          "velocity": 0.8031496062992126
        },
        {
          "duration": 0.03378374999999778,
          "durationTicks": 24,
          "midi": 42,
          "name": "F#2",
          "ticks": 114818,
          "time": 161.6242753125,
          "velocity": 0.9291338582677166
        },
        {
          "duration": 0.03378374999999778,
          "durationTicks": 24,
          "midi": 42,
          "name": "F#2",
          "ticks": 115008,
          "time": 161.89173,
          "velocity": 0.9291338582677166
        },
        {
          "duration": 0.03378374999999778,
          "durationTicks": 24,
          "midi": 42,
          "name": "F#2",
          "ticks": 115780,
          "time": 162.97844062500002,
          "velocity": 0.8503937007874016
        },
        {
          "duration": 0.03378374999999778,
          "durationTicks": 24,
          "midi": 42,
          "name": "F#2",
          "ticks": 115874,
          "time": 163.1107603125,
          "velocity": 0.905511811023622
        },
        {
          "duration": 0.03378374999999778,
          "durationTicks": 24,
          "midi": 42,
          "name": "F#2",
          "ticks": 115972,
          "time": 163.24871062500003,
          "velocity": 0.905511811023622
        },
        {
          "duration": 0.03378374999999778,
          "durationTicks": 24,
          "midi": 42,
          "name": "F#2",
          "ticks": 116064,
          "time": 163.378215,
          "velocity": 0.9291338582677166
        },
        {
          "duration": 0.0337837500000262,
          "durationTicks": 24,
          "midi": 42,
          "name": "F#2",
          "ticks": 116260,
          "time": 163.654115625,
          "velocity": 0.9291338582677166
        },
        {
          "duration": 0.03378374999999778,
          "durationTicks": 24,
          "midi": 42,
          "name": "F#2",
          "ticks": 116354,
          "time": 163.7864353125,
          "velocity": 0.9291338582677166
        },
        {
          "duration": 0.03378374999999778,
          "durationTicks": 24,
          "midi": 42,
          "name": "F#2",
          "ticks": 116448,
          "time": 163.918755,
          "velocity": 0.5748031496062992
        },
        {
          "duration": 0.03378374999999778,
          "durationTicks": 24,
          "midi": 42,
          "name": "F#2",
          "ticks": 116546,
          "time": 164.0567053125,
          "velocity": 0.9291338582677166
        },
        {
          "duration": 0.03378374999999778,
          "durationTicks": 24,
          "midi": 42,
          "name": "F#2",
          "ticks": 116638,
          "time": 164.18620968750002,
          "velocity": 0.9291338582677166
        },
        {
          "duration": 0.0337837500000262,
          "durationTicks": 24,
          "midi": 42,
          "name": "F#2",
          "ticks": 117504,
          "time": 165.40524,
          "velocity": 0.9291338582677166
        },
        {
          "duration": 0.03378374999999778,
          "durationTicks": 24,
          "midi": 42,
          "name": "F#2",
          "ticks": 117602,
          "time": 165.5431903125,
          "velocity": 0.9291338582677166
        },
        {
          "duration": 0.03378374999999778,
          "durationTicks": 24,
          "midi": 42,
          "name": "F#2",
          "ticks": 117794,
          "time": 165.81346031249998,
          "velocity": 0.7559055118110236
        },
        {
          "duration": 0.03378374999999778,
          "durationTicks": 24,
          "midi": 42,
          "name": "F#2",
          "ticks": 117892,
          "time": 165.95141062500002,
          "velocity": 0.9291338582677166
        },
        {
          "duration": 0.03378374999999778,
          "durationTicks": 24,
          "midi": 42,
          "name": "F#2",
          "ticks": 118084,
          "time": 166.221680625,
          "velocity": 0.9291338582677166
        },
        {
          "duration": 0.03378374999999778,
          "durationTicks": 24,
          "midi": 42,
          "name": "F#2",
          "ticks": 118850,
          "time": 167.2999453125,
          "velocity": 0.6850393700787402
        },
        {
          "duration": 0.03378374999999778,
          "durationTicks": 24,
          "midi": 42,
          "name": "F#2",
          "ticks": 118948,
          "time": 167.437895625,
          "velocity": 0.7007874015748031
        },
        {
          "duration": 0.0337837500000262,
          "durationTicks": 24,
          "midi": 42,
          "name": "F#2",
          "ticks": 119042,
          "time": 167.57021531249998,
          "velocity": 0.9291338582677166
        },
        {
          "duration": 0.03378374999999778,
          "durationTicks": 24,
          "midi": 42,
          "name": "F#2",
          "ticks": 119140,
          "time": 167.70816562500002,
          "velocity": 0.9291338582677166
        },
        {
          "duration": 0.0337837500000262,
          "durationTicks": 24,
          "midi": 42,
          "name": "F#2",
          "ticks": 119328,
          "time": 167.972805,
          "velocity": 0.8818897637795275
        },
        {
          "duration": 0.03378374999999778,
          "durationTicks": 24,
          "midi": 42,
          "name": "F#2",
          "ticks": 119428,
          "time": 168.11357062500002,
          "velocity": 0.9291338582677166
        },
        {
          "duration": 0.03378374999999778,
          "durationTicks": 24,
          "midi": 42,
          "name": "F#2",
          "ticks": 119522,
          "time": 168.2458903125,
          "velocity": 0.6929133858267716
        },
        {
          "duration": 0.03378374999999778,
          "durationTicks": 24,
          "midi": 42,
          "name": "F#2",
          "ticks": 119616,
          "time": 168.37821,
          "velocity": 0.9291338582677166
        },
        {
          "duration": 0.03378374999999778,
          "durationTicks": 24,
          "midi": 42,
          "name": "F#2",
          "ticks": 119714,
          "time": 168.5161603125,
          "velocity": 0.9291338582677166
        },
        {
          "duration": 0.0337837500000262,
          "durationTicks": 24,
          "midi": 42,
          "name": "F#2",
          "ticks": 120578,
          "time": 169.73237531249998,
          "velocity": 0.9291338582677166
        },
        {
          "duration": 0.03378374999999778,
          "durationTicks": 24,
          "midi": 42,
          "name": "F#2",
          "ticks": 120672,
          "time": 169.864695,
          "velocity": 0.9291338582677166
        },
        {
          "duration": 0.0337837500000262,
          "durationTicks": 24,
          "midi": 42,
          "name": "F#2",
          "ticks": 120862,
          "time": 170.1321496875,
          "velocity": 0.8031496062992126
        },
        {
          "duration": 0.03378374999999778,
          "durationTicks": 24,
          "midi": 42,
          "name": "F#2",
          "ticks": 120962,
          "time": 170.2729153125,
          "velocity": 0.9291338582677166
        },
        {
          "duration": 0.03378374999999778,
          "durationTicks": 24,
          "midi": 42,
          "name": "F#2",
          "ticks": 121154,
          "time": 170.5431853125,
          "velocity": 0.9291338582677166
        },
        {
          "duration": 0.03378374999999778,
          "durationTicks": 24,
          "midi": 42,
          "name": "F#2",
          "ticks": 121918,
          "time": 171.61863468750002,
          "velocity": 0.8503937007874016
        },
        {
          "duration": 0.03378374999999778,
          "durationTicks": 24,
          "midi": 42,
          "name": "F#2",
          "ticks": 122018,
          "time": 171.7594003125,
          "velocity": 0.905511811023622
        },
        {
          "duration": 0.03378374999999778,
          "durationTicks": 24,
          "midi": 42,
          "name": "F#2",
          "ticks": 122116,
          "time": 171.89735062500003,
          "velocity": 0.905511811023622
        },
        {
          "duration": 0.03378374999999778,
          "durationTicks": 24,
          "midi": 42,
          "name": "F#2",
          "ticks": 122210,
          "time": 172.0296703125,
          "velocity": 0.9291338582677166
        },
        {
          "duration": 0.0337837500000262,
          "durationTicks": 24,
          "midi": 42,
          "name": "F#2",
          "ticks": 122400,
          "time": 172.297125,
          "velocity": 0.9291338582677166
        },
        {
          "duration": 0.03378374999999778,
          "durationTicks": 24,
          "midi": 42,
          "name": "F#2",
          "ticks": 122496,
          "time": 172.43226,
          "velocity": 0.9291338582677166
        },
        {
          "duration": 0.03378374999999778,
          "durationTicks": 24,
          "midi": 42,
          "name": "F#2",
          "ticks": 122596,
          "time": 172.573025625,
          "velocity": 0.5748031496062992
        },
        {
          "duration": 0.03378374999999778,
          "durationTicks": 24,
          "midi": 42,
          "name": "F#2",
          "ticks": 122690,
          "time": 172.7053453125,
          "velocity": 0.9291338582677166
        },
        {
          "duration": 0.03378374999999778,
          "durationTicks": 24,
          "midi": 42,
          "name": "F#2",
          "ticks": 122784,
          "time": 172.83766500000002,
          "velocity": 0.9291338582677166
        },
        {
          "duration": 0.03378374999999778,
          "durationTicks": 24,
          "midi": 42,
          "name": "F#2",
          "ticks": 123652,
          "time": 174.05951062500003,
          "velocity": 0.9291338582677166
        },
        {
          "duration": 0.03378374999999778,
          "durationTicks": 24,
          "midi": 42,
          "name": "F#2",
          "ticks": 123746,
          "time": 174.1918303125,
          "velocity": 0.9291338582677166
        },
        {
          "duration": 0.03378374999999778,
          "durationTicks": 24,
          "midi": 42,
          "name": "F#2",
          "ticks": 123938,
          "time": 174.46210031249998,
          "velocity": 0.7559055118110236
        },
        {
          "duration": 0.03378374999999778,
          "durationTicks": 24,
          "midi": 42,
          "name": "F#2",
          "ticks": 124030,
          "time": 174.59160468750002,
          "velocity": 0.9291338582677166
        },
        {
          "duration": 0.03378374999999778,
          "durationTicks": 24,
          "midi": 42,
          "name": "F#2",
          "ticks": 124228,
          "time": 174.870320625,
          "velocity": 0.9291338582677166
        },
        {
          "duration": 0.03378374999999778,
          "durationTicks": 24,
          "midi": 42,
          "name": "F#2",
          "ticks": 124994,
          "time": 175.9485853125,
          "velocity": 0.6850393700787402
        },
        {
          "duration": 0.03378374999999778,
          "durationTicks": 24,
          "midi": 42,
          "name": "F#2",
          "ticks": 125086,
          "time": 176.0780896875,
          "velocity": 0.7007874015748031
        },
        {
          "duration": 0.0337837500000262,
          "durationTicks": 24,
          "midi": 42,
          "name": "F#2",
          "ticks": 125186,
          "time": 176.21885531249998,
          "velocity": 0.9291338582677166
        },
        {
          "duration": 0.03378374999999778,
          "durationTicks": 24,
          "midi": 42,
          "name": "F#2",
          "ticks": 125284,
          "time": 176.35680562500002,
          "velocity": 0.9291338582677166
        },
        {
          "duration": 0.0337837500000262,
          "durationTicks": 24,
          "midi": 42,
          "name": "F#2",
          "ticks": 125476,
          "time": 176.627075625,
          "velocity": 0.8818897637795275
        },
        {
          "duration": 0.03378374999999778,
          "durationTicks": 24,
          "midi": 42,
          "name": "F#2",
          "ticks": 125568,
          "time": 176.75658,
          "velocity": 0.9291338582677166
        },
        {
          "duration": 0.03378374999999778,
          "durationTicks": 24,
          "midi": 42,
          "name": "F#2",
          "ticks": 125664,
          "time": 176.891715,
          "velocity": 0.6929133858267716
        },
        {
          "duration": 0.03378374999999778,
          "durationTicks": 24,
          "midi": 42,
          "name": "F#2",
          "ticks": 125764,
          "time": 177.032480625,
          "velocity": 0.9291338582677166
        },
        {
          "duration": 0.03378374999999778,
          "durationTicks": 24,
          "midi": 42,
          "name": "F#2",
          "ticks": 125858,
          "time": 177.1648003125,
          "velocity": 0.9291338582677166
        },
        {
          "duration": 0.0337837500000262,
          "durationTicks": 24,
          "midi": 42,
          "name": "F#2",
          "ticks": 126720,
          "time": 178.3782,
          "velocity": 0.9291338582677166
        },
        {
          "duration": 0.03378374999999778,
          "durationTicks": 24,
          "midi": 42,
          "name": "F#2",
          "ticks": 126820,
          "time": 178.51896562500002,
          "velocity": 0.9291338582677166
        },
        {
          "duration": 0.0337837500000262,
          "durationTicks": 24,
          "midi": 42,
          "name": "F#2",
          "ticks": 127008,
          "time": 178.783605,
          "velocity": 0.8031496062992126
        },
        {
          "duration": 0.03378374999999778,
          "durationTicks": 24,
          "midi": 42,
          "name": "F#2",
          "ticks": 127106,
          "time": 178.9215553125,
          "velocity": 0.9291338582677166
        },
        {
          "duration": 0.03378374999999778,
          "durationTicks": 24,
          "midi": 42,
          "name": "F#2",
          "ticks": 127298,
          "time": 179.1918253125,
          "velocity": 0.9291338582677166
        },
        {
          "duration": 0.03378374999999778,
          "durationTicks": 24,
          "midi": 42,
          "name": "F#2",
          "ticks": 128064,
          "time": 180.27009,
          "velocity": 0.8503937007874016
        },
        {
          "duration": 0.03378374999999778,
          "durationTicks": 24,
          "midi": 42,
          "name": "F#2",
          "ticks": 128162,
          "time": 180.4080403125,
          "velocity": 0.905511811023622
        },
        {
          "duration": 0.03378374999999778,
          "durationTicks": 24,
          "midi": 42,
          "name": "F#2",
          "ticks": 128254,
          "time": 180.53754468750003,
          "velocity": 0.905511811023622
        },
        {
          "duration": 0.03378374999999778,
          "durationTicks": 24,
          "midi": 42,
          "name": "F#2",
          "ticks": 128354,
          "time": 180.6783103125,
          "velocity": 0.9291338582677166
        },
        {
          "duration": 0.03378374999999778,
          "durationTicks": 24,
          "midi": 42,
          "name": "F#2",
          "ticks": 128546,
          "time": 180.94858031249998,
          "velocity": 0.9291338582677166
        },
        {
          "duration": 0.03378374999999778,
          "durationTicks": 24,
          "midi": 42,
          "name": "F#2",
          "ticks": 128644,
          "time": 181.08653062500002,
          "velocity": 0.9291338582677166
        },
        {
          "duration": 0.03378374999999778,
          "durationTicks": 24,
          "midi": 42,
          "name": "F#2",
          "ticks": 128736,
          "time": 181.216035,
          "velocity": 0.5748031496062992
        },
        {
          "duration": 0.03378374999999778,
          "durationTicks": 24,
          "midi": 42,
          "name": "F#2",
          "ticks": 128832,
          "time": 181.35117,
          "velocity": 0.9291338582677166
        },
        {
          "duration": 0.03378374999999778,
          "durationTicks": 24,
          "midi": 42,
          "name": "F#2",
          "ticks": 128932,
          "time": 181.49193562500002,
          "velocity": 0.9291338582677166
        },
        {
          "duration": 0.0337837500000262,
          "durationTicks": 24,
          "midi": 42,
          "name": "F#2",
          "ticks": 129792,
          "time": 182.70252,
          "velocity": 0.9291338582677166
        },
        {
          "duration": 0.03378374999999778,
          "durationTicks": 24,
          "midi": 42,
          "name": "F#2",
          "ticks": 129888,
          "time": 182.837655,
          "velocity": 0.9291338582677166
        },
        {
          "duration": 0.03378374999999778,
          "durationTicks": 24,
          "midi": 42,
          "name": "F#2",
          "ticks": 130082,
          "time": 183.11074031249998,
          "velocity": 0.7559055118110236
        },
        {
          "duration": 0.03378374999999778,
          "durationTicks": 24,
          "midi": 42,
          "name": "F#2",
          "ticks": 130176,
          "time": 183.24306,
          "velocity": 0.9291338582677166
        },
        {
          "duration": 0.03378374999999778,
          "durationTicks": 24,
          "midi": 42,
          "name": "F#2",
          "ticks": 130366,
          "time": 183.5105146875,
          "velocity": 0.9291338582677166
        },
        {
          "duration": 0.03378374999999778,
          "durationTicks": 24,
          "midi": 42,
          "name": "F#2",
          "ticks": 131138,
          "time": 184.5972253125,
          "velocity": 0.6850393700787402
        },
        {
          "duration": 0.03378374999999778,
          "durationTicks": 24,
          "midi": 42,
          "name": "F#2",
          "ticks": 131232,
          "time": 184.729545,
          "velocity": 0.7007874015748031
        },
        {
          "duration": 0.0337837500000262,
          "durationTicks": 24,
          "midi": 42,
          "name": "F#2",
          "ticks": 131330,
          "time": 184.86749531249998,
          "velocity": 0.9291338582677166
        },
        {
          "duration": 0.03378374999999778,
          "durationTicks": 24,
          "midi": 42,
          "name": "F#2",
          "ticks": 131422,
          "time": 184.99699968750002,
          "velocity": 0.9291338582677166
        },
        {
          "duration": 0.0337837500000262,
          "durationTicks": 24,
          "midi": 42,
          "name": "F#2",
          "ticks": 131620,
          "time": 185.275715625,
          "velocity": 0.8818897637795275
        },
        {
          "duration": 0.03378374999999778,
          "durationTicks": 24,
          "midi": 42,
          "name": "F#2",
          "ticks": 131714,
          "time": 185.4080353125,
          "velocity": 0.9291338582677166
        },
        {
          "duration": 0.03378374999999778,
          "durationTicks": 24,
          "midi": 42,
          "name": "F#2",
          "ticks": 131812,
          "time": 185.54598562500001,
          "velocity": 0.6929133858267716
        },
        {
          "duration": 0.03378374999999778,
          "durationTicks": 24,
          "midi": 42,
          "name": "F#2",
          "ticks": 131904,
          "time": 185.67549,
          "velocity": 0.9291338582677166
        },
        {
          "duration": 0.03378374999999778,
          "durationTicks": 24,
          "midi": 42,
          "name": "F#2",
          "ticks": 132000,
          "time": 185.81062500000002,
          "velocity": 0.9291338582677166
        },
        {
          "duration": 0.03378374999999778,
          "durationTicks": 24,
          "midi": 42,
          "name": "F#2",
          "ticks": 132868,
          "time": 187.03247062500003,
          "velocity": 0.9291338582677166
        },
        {
          "duration": 0.03378374999999778,
          "durationTicks": 24,
          "midi": 42,
          "name": "F#2",
          "ticks": 132960,
          "time": 187.161975,
          "velocity": 0.9291338582677166
        },
        {
          "duration": 0.0337837500000262,
          "durationTicks": 24,
          "midi": 42,
          "name": "F#2",
          "ticks": 133156,
          "time": 187.437875625,
          "velocity": 0.8031496062992126
        },
        {
          "duration": 0.03378374999999778,
          "durationTicks": 24,
          "midi": 42,
          "name": "F#2",
          "ticks": 133250,
          "time": 187.5701953125,
          "velocity": 0.9291338582677166
        },
        {
          "duration": 0.03378374999999778,
          "durationTicks": 24,
          "midi": 42,
          "name": "F#2",
          "ticks": 133442,
          "time": 187.8404653125,
          "velocity": 0.9291338582677166
        },
        {
          "duration": 0.03378374999999778,
          "durationTicks": 24,
          "midi": 42,
          "name": "F#2",
          "ticks": 134212,
          "time": 188.92436062500002,
          "velocity": 0.8503937007874016
        },
        {
          "duration": 0.03378374999999778,
          "durationTicks": 24,
          "midi": 42,
          "name": "F#2",
          "ticks": 134306,
          "time": 189.0566803125,
          "velocity": 0.905511811023622
        },
        {
          "duration": 0.03378374999999778,
          "durationTicks": 24,
          "midi": 42,
          "name": "F#2",
          "ticks": 134400,
          "time": 189.18900000000002,
          "velocity": 0.905511811023622
        },
        {
          "duration": 0.03378374999999778,
          "durationTicks": 24,
          "midi": 42,
          "name": "F#2",
          "ticks": 134498,
          "time": 189.3269503125,
          "velocity": 0.9291338582677166
        },
        {
          "duration": 0.03378374999999778,
          "durationTicks": 24,
          "midi": 42,
          "name": "F#2",
          "ticks": 134690,
          "time": 189.59722031249999,
          "velocity": 0.9291338582677166
        },
        {
          "duration": 0.03378374999999778,
          "durationTicks": 24,
          "midi": 42,
          "name": "F#2",
          "ticks": 134788,
          "time": 189.73517062500002,
          "velocity": 0.9291338582677166
        },
        {
          "duration": 0.03378374999999778,
          "durationTicks": 24,
          "midi": 42,
          "name": "F#2",
          "ticks": 134882,
          "time": 189.8674903125,
          "velocity": 0.5748031496062992
        },
        {
          "duration": 0.03378374999999778,
          "durationTicks": 24,
          "midi": 42,
          "name": "F#2",
          "ticks": 134980,
          "time": 190.005440625,
          "velocity": 0.9291338582677166
        },
        {
          "duration": 0.03378374999999778,
          "durationTicks": 24,
          "midi": 42,
          "name": "F#2",
          "ticks": 135072,
          "time": 190.13494500000002,
          "velocity": 0.9291338582677166
        },
        {
          "duration": 0.0337837500000262,
          "durationTicks": 24,
          "midi": 42,
          "name": "F#2",
          "ticks": 135938,
          "time": 191.35397531249998,
          "velocity": 0.9291338582677166
        },
        {
          "duration": 0.03378374999999778,
          "durationTicks": 24,
          "midi": 42,
          "name": "F#2",
          "ticks": 136036,
          "time": 191.49192562500002,
          "velocity": 0.9291338582677166
        },
        {
          "duration": 0.0337837500000262,
          "durationTicks": 24,
          "midi": 42,
          "name": "F#2",
          "ticks": 136224,
          "time": 191.756565,
          "velocity": 0.7559055118110236
        },
        {
          "duration": 0.03378374999999778,
          "durationTicks": 24,
          "midi": 42,
          "name": "F#2",
          "ticks": 136324,
          "time": 191.89733062500002,
          "velocity": 0.9291338582677166
        },
        {
          "duration": 0.03378374999999778,
          "durationTicks": 24,
          "midi": 42,
          "name": "F#2",
          "ticks": 136512,
          "time": 192.16197,
          "velocity": 0.9291338582677166
        },
        {
          "duration": 0.03378374999999778,
          "durationTicks": 24,
          "midi": 42,
          "name": "F#2",
          "ticks": 137280,
          "time": 193.24305,
          "velocity": 0.6850393700787402
        },
        {
          "duration": 0.03378374999999778,
          "durationTicks": 24,
          "midi": 42,
          "name": "F#2",
          "ticks": 137380,
          "time": 193.383815625,
          "velocity": 0.7007874015748031
        },
        {
          "duration": 0.0337837500000262,
          "durationTicks": 24,
          "midi": 42,
          "name": "F#2",
          "ticks": 137474,
          "time": 193.51613531249998,
          "velocity": 0.9291338582677166
        },
        {
          "duration": 0.03378374999999778,
          "durationTicks": 24,
          "midi": 42,
          "name": "F#2",
          "ticks": 137568,
          "time": 193.648455,
          "velocity": 0.9291338582677166
        },
        {
          "duration": 0.0337837500000262,
          "durationTicks": 24,
          "midi": 42,
          "name": "F#2",
          "ticks": 137758,
          "time": 193.9159096875,
          "velocity": 0.8818897637795275
        },
        {
          "duration": 0.03378374999999778,
          "durationTicks": 24,
          "midi": 42,
          "name": "F#2",
          "ticks": 137858,
          "time": 194.0566753125,
          "velocity": 0.9291338582677166
        },
        {
          "duration": 0.03378374999999778,
          "durationTicks": 24,
          "midi": 42,
          "name": "F#2",
          "ticks": 137956,
          "time": 194.19462562500001,
          "velocity": 0.6929133858267716
        },
        {
          "duration": 0.03378374999999778,
          "durationTicks": 24,
          "midi": 42,
          "name": "F#2",
          "ticks": 138050,
          "time": 194.3269453125,
          "velocity": 0.9291338582677166
        },
        {
          "duration": 0.03378374999999778,
          "durationTicks": 24,
          "midi": 42,
          "name": "F#2",
          "ticks": 138148,
          "time": 194.46489562500003,
          "velocity": 0.9291338582677166
        },
        {
          "duration": 0.03378374999999778,
          "durationTicks": 24,
          "midi": 42,
          "name": "F#2",
          "ticks": 139012,
          "time": 195.68111062500003,
          "velocity": 0.9291338582677166
        },
        {
          "duration": 0.03378374999999778,
          "durationTicks": 24,
          "midi": 42,
          "name": "F#2",
          "ticks": 139106,
          "time": 195.8134303125,
          "velocity": 0.9291338582677166
        },
        {
          "duration": 0.0337837500000262,
          "durationTicks": 24,
          "midi": 42,
          "name": "F#2",
          "ticks": 139296,
          "time": 196.080885,
          "velocity": 0.8031496062992126
        },
        {
          "duration": 0.03378374999999778,
          "durationTicks": 24,
          "midi": 42,
          "name": "F#2",
          "ticks": 139392,
          "time": 196.21602000000001,
          "velocity": 0.9291338582677166
        },
        {
          "duration": 0.03378374999999778,
          "durationTicks": 24,
          "midi": 42,
          "name": "F#2",
          "ticks": 139586,
          "time": 196.4891053125,
          "velocity": 0.9291338582677166
        },
        {
          "duration": 0.03378374999999778,
          "durationTicks": 24,
          "midi": 42,
          "name": "F#2",
          "ticks": 140352,
          "time": 197.56737,
          "velocity": 0.8503937007874016
        },
        {
          "duration": 0.03378374999999778,
          "durationTicks": 24,
          "midi": 42,
          "name": "F#2",
          "ticks": 140448,
          "time": 197.702505,
          "velocity": 0.905511811023622
        },
        {
          "duration": 0.03378374999999778,
          "durationTicks": 24,
          "midi": 42,
          "name": "F#2",
          "ticks": 140548,
          "time": 197.84327062500003,
          "velocity": 0.905511811023622
        },
        {
          "duration": 0.03378374999999778,
          "durationTicks": 24,
          "midi": 42,
          "name": "F#2",
          "ticks": 140642,
          "time": 197.9755903125,
          "velocity": 0.9291338582677166
        },
        {
          "duration": 0.03378374999999778,
          "durationTicks": 24,
          "midi": 42,
          "name": "F#2",
          "ticks": 140834,
          "time": 198.24586031249999,
          "velocity": 0.9291338582677166
        },
        {
          "duration": 0.03378374999999778,
          "durationTicks": 24,
          "midi": 42,
          "name": "F#2",
          "ticks": 140926,
          "time": 198.37536468750002,
          "velocity": 0.9291338582677166
        },
        {
          "duration": 0.03378374999999778,
          "durationTicks": 24,
          "midi": 42,
          "name": "F#2",
          "ticks": 141026,
          "time": 198.5161303125,
          "velocity": 0.5748031496062992
        },
        {
          "duration": 0.03378374999999778,
          "durationTicks": 24,
          "midi": 42,
          "name": "F#2",
          "ticks": 141124,
          "time": 198.654080625,
          "velocity": 0.9291338582677166
        },
        {
          "duration": 0.03378374999999778,
          "durationTicks": 24,
          "midi": 42,
          "name": "F#2",
          "ticks": 141218,
          "time": 198.7864003125,
          "velocity": 0.9291338582677166
        },
        {
          "duration": 0.0337837500000262,
          "durationTicks": 24,
          "midi": 42,
          "name": "F#2",
          "ticks": 142082,
          "time": 200.00261531249998,
          "velocity": 0.9291338582677166
        },
        {
          "duration": 0.03378374999999778,
          "durationTicks": 24,
          "midi": 42,
          "name": "F#2",
          "ticks": 142180,
          "time": 200.14056562500002,
          "velocity": 0.9291338582677166
        },
        {
          "duration": 0.0337837500000262,
          "durationTicks": 24,
          "midi": 42,
          "name": "F#2",
          "ticks": 142372,
          "time": 200.410835625,
          "velocity": 0.7559055118110236
        },
        {
          "duration": 0.03378374999999778,
          "durationTicks": 24,
          "midi": 42,
          "name": "F#2",
          "ticks": 142464,
          "time": 200.54034000000001,
          "velocity": 0.9291338582677166
        },
        {
          "duration": 0.03378374999999778,
          "durationTicks": 24,
          "midi": 42,
          "name": "F#2",
          "ticks": 142660,
          "time": 200.816240625,
          "velocity": 0.9291338582677166
        },
        {
          "duration": 0.03378374999999778,
          "durationTicks": 24,
          "midi": 42,
          "name": "F#2",
          "ticks": 143428,
          "time": 201.89732062500002,
          "velocity": 0.6850393700787402
        },
        {
          "duration": 0.03378374999999778,
          "durationTicks": 24,
          "midi": 42,
          "name": "F#2",
          "ticks": 143520,
          "time": 202.026825,
          "velocity": 0.7007874015748031
        },
        {
          "duration": 0.03378374999999778,
          "durationTicks": 24,
          "midi": 42,
          "name": "F#2",
          "ticks": 143616,
          "time": 202.16196000000002,
          "velocity": 0.9291338582677166
        },
        {
          "duration": 0.03378374999999778,
          "durationTicks": 24,
          "midi": 42,
          "name": "F#2",
          "ticks": 143716,
          "time": 202.30272562500002,
          "velocity": 0.9291338582677166
        },
        {
          "duration": 0.0337837500000262,
          "durationTicks": 24,
          "midi": 42,
          "name": "F#2",
          "ticks": 143904,
          "time": 202.567365,
          "velocity": 0.8818897637795275
        },
        {
          "duration": 0.03378374999999778,
          "durationTicks": 24,
          "midi": 42,
          "name": "F#2",
          "ticks": 144002,
          "time": 202.7053153125,
          "velocity": 0.9291338582677166
        },
        {
          "duration": 0.03378374999999778,
          "durationTicks": 24,
          "midi": 42,
          "name": "F#2",
          "ticks": 144094,
          "time": 202.83481968750002,
          "velocity": 0.6929133858267716
        },
        {
          "duration": 0.03378374999999778,
          "durationTicks": 24,
          "midi": 42,
          "name": "F#2",
          "ticks": 144194,
          "time": 202.9755853125,
          "velocity": 0.9291338582677166
        },
        {
          "duration": 0.03378374999999778,
          "durationTicks": 24,
          "midi": 42,
          "name": "F#2",
          "ticks": 144292,
          "time": 203.11353562500003,
          "velocity": 0.9291338582677166
        },
        {
          "duration": 0.03378374999999778,
          "durationTicks": 24,
          "midi": 42,
          "name": "F#2",
          "ticks": 145150,
          "time": 204.32130468750003,
          "velocity": 0.9291338582677166
        },
        {
          "duration": 0.03378374999999778,
          "durationTicks": 24,
          "midi": 42,
          "name": "F#2",
          "ticks": 145250,
          "time": 204.4620703125,
          "velocity": 0.9291338582677166
        },
        {
          "duration": 0.03378374999999778,
          "durationTicks": 24,
          "midi": 42,
          "name": "F#2",
          "ticks": 145442,
          "time": 204.73234031249999,
          "velocity": 0.8031496062992126
        },
        {
          "duration": 0.03378374999999778,
          "durationTicks": 24,
          "midi": 42,
          "name": "F#2",
          "ticks": 145540,
          "time": 204.87029062500002,
          "velocity": 0.9291338582677166
        },
        {
          "duration": 0.03378374999999778,
          "durationTicks": 24,
          "midi": 42,
          "name": "F#2",
          "ticks": 145728,
          "time": 205.13493,
          "velocity": 0.9291338582677166
        },
        {
          "duration": 0.03378374999999778,
          "durationTicks": 24,
          "midi": 42,
          "name": "F#2",
          "ticks": 146498,
          "time": 206.2188253125,
          "velocity": 0.8503937007874016
        },
        {
          "duration": 0.03378374999999778,
          "durationTicks": 24,
          "midi": 42,
          "name": "F#2",
          "ticks": 146596,
          "time": 206.356775625,
          "velocity": 0.905511811023622
        },
        {
          "duration": 0.03378374999999778,
          "durationTicks": 24,
          "midi": 42,
          "name": "F#2",
          "ticks": 146688,
          "time": 206.48628000000002,
          "velocity": 0.905511811023622
        },
        {
          "duration": 0.03378374999999778,
          "durationTicks": 24,
          "midi": 42,
          "name": "F#2",
          "ticks": 146784,
          "time": 206.621415,
          "velocity": 0.9291338582677166
        },
        {
          "duration": 0.03378374999999778,
          "durationTicks": 24,
          "midi": 42,
          "name": "F#2",
          "ticks": 146978,
          "time": 206.89450031249999,
          "velocity": 0.9291338582677166
        },
        {
          "duration": 0.03378374999999778,
          "durationTicks": 24,
          "midi": 42,
          "name": "F#2",
          "ticks": 147072,
          "time": 207.02682000000001,
          "velocity": 0.9291338582677166
        },
        {
          "duration": 0.03378374999999778,
          "durationTicks": 24,
          "midi": 42,
          "name": "F#2",
          "ticks": 147170,
          "time": 207.1647703125,
          "velocity": 0.5748031496062992
        },
        {
          "duration": 0.03378374999999778,
          "durationTicks": 24,
          "midi": 42,
          "name": "F#2",
          "ticks": 147262,
          "time": 207.2942746875,
          "velocity": 0.9291338582677166
        },
        {
          "duration": 0.03378374999999778,
          "durationTicks": 24,
          "midi": 42,
          "name": "F#2",
          "ticks": 147362,
          "time": 207.4350403125,
          "velocity": 0.9291338582677166
        },
        {
          "duration": 0.0337837500000262,
          "durationTicks": 24,
          "midi": 42,
          "name": "F#2",
          "ticks": 148226,
          "time": 208.65125531249998,
          "velocity": 0.9291338582677166
        },
        {
          "duration": 0.03378374999999778,
          "durationTicks": 24,
          "midi": 42,
          "name": "F#2",
          "ticks": 148318,
          "time": 208.78075968750002,
          "velocity": 0.9291338582677166
        },
        {
          "duration": 0.0337837500000262,
          "durationTicks": 24,
          "midi": 42,
          "name": "F#2",
          "ticks": 148516,
          "time": 209.059475625,
          "velocity": 0.7559055118110236
        },
        {
          "duration": 0.03378374999999778,
          "durationTicks": 24,
          "midi": 42,
          "name": "F#2",
          "ticks": 148610,
          "time": 209.1917953125,
          "velocity": 0.9291338582677166
        },
        {
          "duration": 0.03378374999999778,
          "durationTicks": 24,
          "midi": 42,
          "name": "F#2",
          "ticks": 148800,
          "time": 209.45925,
          "velocity": 0.9291338582677166
        },
        {
          "duration": 0.03378374999999778,
          "durationTicks": 24,
          "midi": 42,
          "name": "F#2",
          "ticks": 149572,
          "time": 210.54596062500002,
          "velocity": 0.6850393700787402
        },
        {
          "duration": 0.03378374999999778,
          "durationTicks": 24,
          "midi": 42,
          "name": "F#2",
          "ticks": 149666,
          "time": 210.6782803125,
          "velocity": 0.7007874015748031
        },
        {
          "duration": 0.03378374999999778,
          "durationTicks": 24,
          "midi": 42,
          "name": "F#2",
          "ticks": 149764,
          "time": 210.81623062500003,
          "velocity": 0.9291338582677166
        },
        {
          "duration": 0.03378374999999778,
          "durationTicks": 24,
          "midi": 42,
          "name": "F#2",
          "ticks": 149856,
          "time": 210.945735,
          "velocity": 0.9291338582677166
        },
        {
          "duration": 0.0337837500000262,
          "durationTicks": 24,
          "midi": 42,
          "name": "F#2",
          "ticks": 150052,
          "time": 211.221635625,
          "velocity": 0.8818897637795275
        },
        {
          "duration": 0.03378374999999778,
          "durationTicks": 24,
          "midi": 42,
          "name": "F#2",
          "ticks": 150146,
          "time": 211.3539553125,
          "velocity": 0.9291338582677166
        },
        {
          "duration": 0.03378374999999778,
          "durationTicks": 24,
          "midi": 42,
          "name": "F#2",
          "ticks": 150240,
          "time": 211.486275,
          "velocity": 0.6929133858267716
        },
        {
          "duration": 0.03378374999999778,
          "durationTicks": 24,
          "midi": 42,
          "name": "F#2",
          "ticks": 150338,
          "time": 211.6242253125,
          "velocity": 0.9291338582677166
        },
        {
          "duration": 0.03378374999999778,
          "durationTicks": 24,
          "midi": 42,
          "name": "F#2",
          "ticks": 150430,
          "time": 211.75372968750003,
          "velocity": 0.9291338582677166
        },
        {
          "duration": 0.03378374999999778,
          "durationTicks": 24,
          "midi": 42,
          "name": "F#2",
          "ticks": 151104,
          "time": 212.70249,
          "velocity": 0.9291338582677166
        }
      ]
    },
    {
      "channel": 9,
      "controlChanges": {},
      "pitchBends": [],
      "instrument": {
        "family": "drums",
        "name": "standard kit",
        "number": 0
      },
      "name": "High Tom ",
      "notes": [
        {
          "duration": 0.03378374999999778,
          "durationTicks": 24,
          "midi": 50,
          "name": "D3",
          "ticks": 40704,
          "time": 57.29724,
          "velocity": 0.968503937007874
        },
        {
          "duration": 0.033783750000004886,
          "durationTicks": 24,
          "midi": 50,
          "name": "D3",
          "ticks": 40800,
          "time": 57.432375,
          "velocity": 0.984251968503937
        },
        {
          "duration": 0.03378374999999778,
          "durationTicks": 24,
          "midi": 50,
          "name": "D3",
          "ticks": 40992,
          "time": 57.702645000000004,
          "velocity": 0.8740157480314961
        },
        {
          "duration": 0.03378374999999778,
          "durationTicks": 24,
          "midi": 50,
          "name": "D3",
          "ticks": 41088,
          "time": 57.83778,
          "velocity": 0.984251968503937
        },
        {
          "duration": 0.033783750000004886,
          "durationTicks": 24,
          "midi": 50,
          "name": "D3",
          "ticks": 41184,
          "time": 57.972915,
          "velocity": 0.8582677165354331
        },
        {
          "duration": 0.03378374999999778,
          "durationTicks": 24,
          "midi": 50,
          "name": "D3",
          "ticks": 41280,
          "time": 58.108050000000006,
          "velocity": 1
        },
        {
          "duration": 0.03378374999999778,
          "durationTicks": 24,
          "midi": 50,
          "name": "D3",
          "ticks": 41376,
          "time": 58.243185000000004,
          "velocity": 0.8740157480314961
        },
        {
          "duration": 0.03378374999999778,
          "durationTicks": 24,
          "midi": 50,
          "name": "D3",
          "ticks": 77568,
          "time": 109.18908,
          "velocity": 0.968503937007874
        },
        {
          "duration": 0.03378374999999778,
          "durationTicks": 24,
          "midi": 50,
          "name": "D3",
          "ticks": 77664,
          "time": 109.32421500000001,
          "velocity": 0.984251968503937
        },
        {
          "duration": 0.03378374999999778,
          "durationTicks": 24,
          "midi": 50,
          "name": "D3",
          "ticks": 77856,
          "time": 109.594485,
          "velocity": 0.8740157480314961
        },
        {
          "duration": 0.03378374999999778,
          "durationTicks": 24,
          "midi": 50,
          "name": "D3",
          "ticks": 77952,
          "time": 109.72962000000001,
          "velocity": 0.984251968503937
        },
        {
          "duration": 0.03378374999999778,
          "durationTicks": 24,
          "midi": 50,
          "name": "D3",
          "ticks": 78048,
          "time": 109.864755,
          "velocity": 0.8582677165354331
        },
        {
          "duration": 0.03378374999999778,
          "durationTicks": 24,
          "midi": 50,
          "name": "D3",
          "ticks": 78144,
          "time": 109.99989000000001,
          "velocity": 1
        },
        {
          "duration": 0.03378375000001199,
          "durationTicks": 24,
          "midi": 50,
          "name": "D3",
          "ticks": 78240,
          "time": 110.135025,
          "velocity": 0.8740157480314961
        },
        {
          "duration": 0.0337837500000262,
          "durationTicks": 24,
          "midi": 50,
          "name": "D3",
          "ticks": 114432,
          "time": 161.08092,
          "velocity": 0.968503937007874
        },
        {
          "duration": 0.03378374999999778,
          "durationTicks": 24,
          "midi": 50,
          "name": "D3",
          "ticks": 114528,
          "time": 161.216055,
          "velocity": 0.984251968503937
        },
        {
          "duration": 0.0337837500000262,
          "durationTicks": 24,
          "midi": 50,
          "name": "D3",
          "ticks": 114720,
          "time": 161.486325,
          "velocity": 0.8740157480314961
        },
        {
          "duration": 0.03378374999999778,
          "durationTicks": 24,
          "midi": 50,
          "name": "D3",
          "ticks": 114816,
          "time": 161.62146,
          "velocity": 0.984251968503937
        },
        {
          "duration": 0.03378374999999778,
          "durationTicks": 24,
          "midi": 50,
          "name": "D3",
          "ticks": 114912,
          "time": 161.756595,
          "velocity": 0.8582677165354331
        },
        {
          "duration": 0.03378374999999778,
          "durationTicks": 24,
          "midi": 50,
          "name": "D3",
          "ticks": 115008,
          "time": 161.89173,
          "velocity": 1
        },
        {
          "duration": 0.03378374999999778,
          "durationTicks": 24,
          "midi": 50,
          "name": "D3",
          "ticks": 115104,
          "time": 162.02686500000002,
          "velocity": 0.8740157480314961
        }
      ]
    },
    {
      "channel": 9,
      "controlChanges": {},
      "pitchBends": [],
      "instrument": {
        "family": "drums",
        "name": "standard kit",
        "number": 0
      },
      "name": "Rim      ",
      "notes": [
        {
          "duration": 0.03378374999999778,
          "durationTicks": 24,
          "midi": 37,
          "name": "C#2",
          "ticks": 55872,
          "time": 78.64857,
          "velocity": 0.952755905511811
        },
        {
          "duration": 0.03378374999999778,
          "durationTicks": 24,
          "midi": 37,
          "name": "C#2",
          "ticks": 58944,
          "time": 82.97289,
          "velocity": 0.952755905511811
        },
        {
          "duration": 0.03378374999999778,
          "durationTicks": 24,
          "midi": 37,
          "name": "C#2",
          "ticks": 62016,
          "time": 87.29721,
          "velocity": 0.952755905511811
        },
        {
          "duration": 0.03378374999999778,
          "durationTicks": 24,
          "midi": 37,
          "name": "C#2",
          "ticks": 65088,
          "time": 91.62153,
          "velocity": 0.952755905511811
        },
        {
          "duration": 0.03378374999999778,
          "durationTicks": 24,
          "midi": 37,
          "name": "C#2",
          "ticks": 68160,
          "time": 95.94585000000001,
          "velocity": 0.952755905511811
        },
        {
          "duration": 0.03378374999999778,
          "durationTicks": 24,
          "midi": 37,
          "name": "C#2",
          "ticks": 71232,
          "time": 100.27017000000001,
          "velocity": 0.952755905511811
        },
        {
          "duration": 0.03378374999999778,
          "durationTicks": 24,
          "midi": 37,
          "name": "C#2",
          "ticks": 74304,
          "time": 104.59449000000001,
          "velocity": 0.952755905511811
        },
        {
          "duration": 0.03378374999999778,
          "durationTicks": 24,
          "midi": 37,
          "name": "C#2",
          "ticks": 77376,
          "time": 108.91881000000001,
          "velocity": 0.952755905511811
        },
        {
          "duration": 0.03378374999999778,
          "durationTicks": 24,
          "midi": 37,
          "name": "C#2",
          "ticks": 80448,
          "time": 113.24313000000001,
          "velocity": 0.952755905511811
        },
        {
          "duration": 0.03378374999999778,
          "durationTicks": 24,
          "midi": 37,
          "name": "C#2",
          "ticks": 83520,
          "time": 117.56745000000001,
          "velocity": 0.952755905511811
        },
        {
          "duration": 0.03378374999999778,
          "durationTicks": 24,
          "midi": 37,
          "name": "C#2",
          "ticks": 86592,
          "time": 121.89177000000001,
          "velocity": 0.952755905511811
        },
        {
          "duration": 0.03378374999999778,
          "durationTicks": 24,
          "midi": 37,
          "name": "C#2",
          "ticks": 89664,
          "time": 126.21609000000001,
          "velocity": 0.952755905511811
        },
        {
          "duration": 0.03378374999999778,
          "durationTicks": 24,
          "midi": 37,
          "name": "C#2",
          "ticks": 117312,
          "time": 165.13497,
          "velocity": 0.952755905511811
        },
        {
          "duration": 0.03378374999999778,
          "durationTicks": 24,
          "midi": 37,
          "name": "C#2",
          "ticks": 120384,
          "time": 169.45929,
          "velocity": 0.952755905511811
        },
        {
          "duration": 0.03378374999999778,
          "durationTicks": 24,
          "midi": 37,
          "name": "C#2",
          "ticks": 123456,
          "time": 173.78361,
          "velocity": 0.952755905511811
        },
        {
          "duration": 0.03378374999999778,
          "durationTicks": 24,
          "midi": 37,
          "name": "C#2",
          "ticks": 126528,
          "time": 178.10793,
          "velocity": 0.952755905511811
        },
        {
          "duration": 0.03378374999999778,
          "durationTicks": 24,
          "midi": 37,
          "name": "C#2",
          "ticks": 129600,
          "time": 182.43225,
          "velocity": 0.952755905511811
        },
        {
          "duration": 0.03378374999999778,
          "durationTicks": 24,
          "midi": 37,
          "name": "C#2",
          "ticks": 132672,
          "time": 186.75657,
          "velocity": 0.952755905511811
        },
        {
          "duration": 0.03378374999999778,
          "durationTicks": 24,
          "midi": 37,
          "name": "C#2",
          "ticks": 135744,
          "time": 191.08089,
          "velocity": 0.952755905511811
        },
        {
          "duration": 0.03378374999999778,
          "durationTicks": 24,
          "midi": 37,
          "name": "C#2",
          "ticks": 138816,
          "time": 195.40521,
          "velocity": 0.952755905511811
        },
        {
          "duration": 0.03378374999999778,
          "durationTicks": 24,
          "midi": 37,
          "name": "C#2",
          "ticks": 141888,
          "time": 199.72953,
          "velocity": 0.952755905511811
        },
        {
          "duration": 0.03378374999999778,
          "durationTicks": 24,
          "midi": 37,
          "name": "C#2",
          "ticks": 144960,
          "time": 204.05385,
          "velocity": 0.952755905511811
        },
        {
          "duration": 0.03378374999999778,
          "durationTicks": 24,
          "midi": 37,
          "name": "C#2",
          "ticks": 148032,
          "time": 208.37817,
          "velocity": 0.952755905511811
        }
      ]
    },
    {
      "channel": 9,
      "controlChanges": {},
      "pitchBends": [],
      "instrument": {
        "family": "drums",
        "name": "standard kit",
        "number": 0
      },
      "name": "Tambourin",
      "notes": [
        {
          "duration": 0.03378375,
          "durationTicks": 24,
          "midi": 54,
          "name": "F#3",
          "ticks": 1730,
          "time": 2.4352453124999998,
          "velocity": 0.7165354330708661
        },
        {
          "duration": 0.03378375,
          "durationTicks": 24,
          "midi": 54,
          "name": "F#3",
          "ticks": 1824,
          "time": 2.567565,
          "velocity": 0.6692913385826772
        },
        {
          "duration": 0.03378375,
          "durationTicks": 24,
          "midi": 54,
          "name": "F#3",
          "ticks": 2114,
          "time": 2.9757853125,
          "velocity": 0.7165354330708661
        },
        {
          "duration": 0.03378375,
          "durationTicks": 24,
          "midi": 54,
          "name": "F#3",
          "ticks": 2212,
          "time": 3.1137356250000003,
          "velocity": 0.6456692913385826
        },
        {
          "duration": 0.03378375,
          "durationTicks": 24,
          "midi": 54,
          "name": "F#3",
          "ticks": 2496,
          "time": 3.51351,
          "velocity": 0.6929133858267716
        },
        {
          "duration": 0.03378375,
          "durationTicks": 24,
          "midi": 54,
          "name": "F#3",
          "ticks": 2592,
          "time": 3.648645,
          "velocity": 0.6220472440944882
        },
        {
          "duration": 0.03378374999999956,
          "durationTicks": 24,
          "midi": 54,
          "name": "F#3",
          "ticks": 2880,
          "time": 4.05405,
          "velocity": 0.7165354330708661
        },
        {
          "duration": 0.03378374999999956,
          "durationTicks": 24,
          "midi": 54,
          "name": "F#3",
          "ticks": 2978,
          "time": 4.1920003125,
          "velocity": 0.5984251968503937
        },
        {
          "duration": 0.033783750000000445,
          "durationTicks": 24,
          "midi": 54,
          "name": "F#3",
          "ticks": 3268,
          "time": 4.6002206249999995,
          "velocity": 0.7165354330708661
        },
        {
          "duration": 0.033783750000000445,
          "durationTicks": 24,
          "midi": 54,
          "name": "F#3",
          "ticks": 3362,
          "time": 4.7325403125,
          "velocity": 0.6692913385826772
        },
        {
          "duration": 0.03378374999999956,
          "durationTicks": 24,
          "midi": 54,
          "name": "F#3",
          "ticks": 3648,
          "time": 5.13513,
          "velocity": 0.7165354330708661
        },
        {
          "duration": 0.033783750000000445,
          "durationTicks": 24,
          "midi": 54,
          "name": "F#3",
          "ticks": 3748,
          "time": 5.2758956249999995,
          "velocity": 0.6456692913385826
        },
        {
          "duration": 0.033783750000000445,
          "durationTicks": 24,
          "midi": 54,
          "name": "F#3",
          "ticks": 4034,
          "time": 5.6784853125,
          "velocity": 0.6929133858267716
        },
        {
          "duration": 0.03378374999999956,
          "durationTicks": 24,
          "midi": 54,
          "name": "F#3",
          "ticks": 4126,
          "time": 5.8079896875,
          "velocity": 0.6220472440944882
        },
        {
          "duration": 0.033783750000000445,
          "durationTicks": 24,
          "midi": 54,
          "name": "F#3",
          "ticks": 4418,
          "time": 6.2190253125,
          "velocity": 0.7165354330708661
        },
        {
          "duration": 0.033783750000000445,
          "durationTicks": 24,
          "midi": 54,
          "name": "F#3",
          "ticks": 4516,
          "time": 6.356975625,
          "velocity": 0.5984251968503937
        },
        {
          "duration": 0.033783750000000445,
          "durationTicks": 24,
          "midi": 54,
          "name": "F#3",
          "ticks": 4804,
          "time": 6.762380625,
          "velocity": 0.7165354330708661
        },
        {
          "duration": 0.033783750000000445,
          "durationTicks": 24,
          "midi": 54,
          "name": "F#3",
          "ticks": 4898,
          "time": 6.8947003125,
          "velocity": 0.6692913385826772
        },
        {
          "duration": 0.03378374999999956,
          "durationTicks": 24,
          "midi": 54,
          "name": "F#3",
          "ticks": 5182,
          "time": 7.2944746875,
          "velocity": 0.7165354330708661
        },
        {
          "duration": 0.033783750000000445,
          "durationTicks": 24,
          "midi": 54,
          "name": "F#3",
          "ticks": 5282,
          "time": 7.4352403125,
          "velocity": 0.6456692913385826
        },
        {
          "duration": 0.033783750000000445,
          "durationTicks": 24,
          "midi": 54,
          "name": "F#3",
          "ticks": 5572,
          "time": 7.843460625,
          "velocity": 0.6929133858267716
        },
        {
          "duration": 0.03378374999999956,
          "durationTicks": 24,
          "midi": 54,
          "name": "F#3",
          "ticks": 5664,
          "time": 7.972965,
          "velocity": 0.6220472440944882
        },
        {
          "duration": 0.03378374999999956,
          "durationTicks": 24,
          "midi": 54,
          "name": "F#3",
          "ticks": 5954,
          "time": 8.381185312500001,
          "velocity": 0.7165354330708661
        },
        {
          "duration": 0.03378374999999956,
          "durationTicks": 24,
          "midi": 54,
          "name": "F#3",
          "ticks": 6048,
          "time": 8.513505,
          "velocity": 0.5984251968503937
        },
        {
          "duration": 0.03378374999999956,
          "durationTicks": 24,
          "midi": 54,
          "name": "F#3",
          "ticks": 6338,
          "time": 8.9217253125,
          "velocity": 0.7165354330708661
        },
        {
          "duration": 0.03378374999999956,
          "durationTicks": 24,
          "midi": 54,
          "name": "F#3",
          "ticks": 6436,
          "time": 9.059675625,
          "velocity": 0.6692913385826772
        },
        {
          "duration": 0.03378374999999956,
          "durationTicks": 24,
          "midi": 54,
          "name": "F#3",
          "ticks": 6720,
          "time": 9.45945,
          "velocity": 0.7165354330708661
        },
        {
          "duration": 0.03378374999999956,
          "durationTicks": 24,
          "midi": 54,
          "name": "F#3",
          "ticks": 6816,
          "time": 9.594585,
          "velocity": 0.6456692913385826
        },
        {
          "duration": 0.03378374999999956,
          "durationTicks": 24,
          "midi": 54,
          "name": "F#3",
          "ticks": 7104,
          "time": 9.99999,
          "velocity": 0.6929133858267716
        },
        {
          "duration": 0.03378374999999956,
          "durationTicks": 24,
          "midi": 54,
          "name": "F#3",
          "ticks": 7202,
          "time": 10.1379403125,
          "velocity": 0.6220472440944882
        },
        {
          "duration": 0.03378374999999956,
          "durationTicks": 24,
          "midi": 54,
          "name": "F#3",
          "ticks": 7492,
          "time": 10.546160625,
          "velocity": 0.7165354330708661
        },
        {
          "duration": 0.03378374999999956,
          "durationTicks": 24,
          "midi": 54,
          "name": "F#3",
          "ticks": 7586,
          "time": 10.6784803125,
          "velocity": 0.5984251968503937
        },
        {
          "duration": 0.03378374999999956,
          "durationTicks": 24,
          "midi": 54,
          "name": "F#3",
          "ticks": 7872,
          "time": 11.08107,
          "velocity": 0.7165354330708661
        },
        {
          "duration": 0.03378374999999956,
          "durationTicks": 24,
          "midi": 54,
          "name": "F#3",
          "ticks": 7972,
          "time": 11.221835625,
          "velocity": 0.6692913385826772
        },
        {
          "duration": 0.03378374999999956,
          "durationTicks": 24,
          "midi": 54,
          "name": "F#3",
          "ticks": 8258,
          "time": 11.6244253125,
          "velocity": 0.7165354330708661
        },
        {
          "duration": 0.03378374999999956,
          "durationTicks": 24,
          "midi": 54,
          "name": "F#3",
          "ticks": 8350,
          "time": 11.753929687500001,
          "velocity": 0.6456692913385826
        },
        {
          "duration": 0.03378374999999956,
          "durationTicks": 24,
          "midi": 54,
          "name": "F#3",
          "ticks": 8642,
          "time": 12.1649653125,
          "velocity": 0.6929133858267716
        },
        {
          "duration": 0.03378374999999956,
          "durationTicks": 24,
          "midi": 54,
          "name": "F#3",
          "ticks": 8740,
          "time": 12.302915625,
          "velocity": 0.6220472440944882
        },
        {
          "duration": 0.03378374999999956,
          "durationTicks": 24,
          "midi": 54,
          "name": "F#3",
          "ticks": 9028,
          "time": 12.708320625,
          "velocity": 0.7165354330708661
        },
        {
          "duration": 0.03378374999999956,
          "durationTicks": 24,
          "midi": 54,
          "name": "F#3",
          "ticks": 9122,
          "time": 12.8406403125,
          "velocity": 0.5984251968503937
        },
        {
          "duration": 0.03378374999999956,
          "durationTicks": 24,
          "midi": 54,
          "name": "F#3",
          "ticks": 9406,
          "time": 13.240414687500001,
          "velocity": 0.7165354330708661
        },
        {
          "duration": 0.03378374999999956,
          "durationTicks": 24,
          "midi": 54,
          "name": "F#3",
          "ticks": 9506,
          "time": 13.3811803125,
          "velocity": 0.6692913385826772
        },
        {
          "duration": 0.03378374999999956,
          "durationTicks": 24,
          "midi": 54,
          "name": "F#3",
          "ticks": 9796,
          "time": 13.789400625,
          "velocity": 0.7165354330708661
        },
        {
          "duration": 0.03378374999999956,
          "durationTicks": 24,
          "midi": 54,
          "name": "F#3",
          "ticks": 9888,
          "time": 13.918905,
          "velocity": 0.6456692913385826
        },
        {
          "duration": 0.03378374999999956,
          "durationTicks": 24,
          "midi": 54,
          "name": "F#3",
          "ticks": 10178,
          "time": 14.3271253125,
          "velocity": 0.6929133858267716
        },
        {
          "duration": 0.03378374999999956,
          "durationTicks": 24,
          "midi": 54,
          "name": "F#3",
          "ticks": 10272,
          "time": 14.459445,
          "velocity": 0.6220472440944882
        },
        {
          "duration": 0.03378374999999956,
          "durationTicks": 24,
          "midi": 54,
          "name": "F#3",
          "ticks": 10562,
          "time": 14.8676653125,
          "velocity": 0.7165354330708661
        },
        {
          "duration": 0.03378374999999956,
          "durationTicks": 24,
          "midi": 54,
          "name": "F#3",
          "ticks": 10660,
          "time": 15.005615625,
          "velocity": 0.5984251968503937
        },
        {
          "duration": 0.03378374999999956,
          "durationTicks": 24,
          "midi": 54,
          "name": "F#3",
          "ticks": 10944,
          "time": 15.40539,
          "velocity": 0.7165354330708661
        },
        {
          "duration": 0.03378374999999956,
          "durationTicks": 24,
          "midi": 54,
          "name": "F#3",
          "ticks": 11040,
          "time": 15.540525,
          "velocity": 0.6692913385826772
        },
        {
          "duration": 0.03378374999999956,
          "durationTicks": 24,
          "midi": 54,
          "name": "F#3",
          "ticks": 11328,
          "time": 15.94593,
          "velocity": 0.7165354330708661
        },
        {
          "duration": 0.033783750000001334,
          "durationTicks": 24,
          "midi": 54,
          "name": "F#3",
          "ticks": 11426,
          "time": 16.0838803125,
          "velocity": 0.6456692913385826
        },
        {
          "duration": 0.03378374999999778,
          "durationTicks": 24,
          "midi": 54,
          "name": "F#3",
          "ticks": 11716,
          "time": 16.492100625000003,
          "velocity": 0.6929133858267716
        },
        {
          "duration": 0.033783750000001334,
          "durationTicks": 24,
          "midi": 54,
          "name": "F#3",
          "ticks": 11810,
          "time": 16.6244203125,
          "velocity": 0.6220472440944882
        },
        {
          "duration": 0.033783750000001334,
          "durationTicks": 24,
          "midi": 54,
          "name": "F#3",
          "ticks": 12096,
          "time": 17.02701,
          "velocity": 0.7165354330708661
        },
        {
          "duration": 0.033783750000001334,
          "durationTicks": 24,
          "midi": 54,
          "name": "F#3",
          "ticks": 12196,
          "time": 17.167775625,
          "velocity": 0.5984251968503937
        },
        {
          "duration": 0.033783750000001334,
          "durationTicks": 24,
          "midi": 54,
          "name": "F#3",
          "ticks": 12482,
          "time": 17.5703653125,
          "velocity": 0.7165354330708661
        },
        {
          "duration": 0.033783750000001334,
          "durationTicks": 24,
          "midi": 54,
          "name": "F#3",
          "ticks": 12574,
          "time": 17.699869687499998,
          "velocity": 0.6692913385826772
        },
        {
          "duration": 0.033783750000001334,
          "durationTicks": 24,
          "midi": 54,
          "name": "F#3",
          "ticks": 12866,
          "time": 18.1109053125,
          "velocity": 0.7165354330708661
        },
        {
          "duration": 0.03378374999999778,
          "durationTicks": 24,
          "midi": 54,
          "name": "F#3",
          "ticks": 12964,
          "time": 18.248855625,
          "velocity": 0.6456692913385826
        },
        {
          "duration": 0.033783750000001334,
          "durationTicks": 24,
          "midi": 54,
          "name": "F#3",
          "ticks": 13252,
          "time": 18.654260625,
          "velocity": 0.6929133858267716
        },
        {
          "duration": 0.03378374999999778,
          "durationTicks": 24,
          "midi": 54,
          "name": "F#3",
          "ticks": 13346,
          "time": 18.786580312500003,
          "velocity": 0.6220472440944882
        },
        {
          "duration": 0.033783750000001334,
          "durationTicks": 24,
          "midi": 54,
          "name": "F#3",
          "ticks": 13630,
          "time": 19.1863546875,
          "velocity": 0.7165354330708661
        },
        {
          "duration": 0.03378374999999778,
          "durationTicks": 24,
          "midi": 54,
          "name": "F#3",
          "ticks": 13730,
          "time": 19.327120312500004,
          "velocity": 0.5984251968503937
        },
        {
          "duration": 0.033783750000001334,
          "durationTicks": 24,
          "midi": 54,
          "name": "F#3",
          "ticks": 14020,
          "time": 19.735340625,
          "velocity": 0.7165354330708661
        },
        {
          "duration": 0.03378374999999778,
          "durationTicks": 24,
          "midi": 54,
          "name": "F#3",
          "ticks": 14112,
          "time": 19.864845000000003,
          "velocity": 0.6692913385826772
        },
        {
          "duration": 0.033783750000001334,
          "durationTicks": 24,
          "midi": 54,
          "name": "F#3",
          "ticks": 14402,
          "time": 20.2730653125,
          "velocity": 0.7165354330708661
        },
        {
          "duration": 0.03378374999999778,
          "durationTicks": 24,
          "midi": 54,
          "name": "F#3",
          "ticks": 14496,
          "time": 20.405385000000003,
          "velocity": 0.6456692913385826
        },
        {
          "duration": 0.033783750000001334,
          "durationTicks": 24,
          "midi": 54,
          "name": "F#3",
          "ticks": 14786,
          "time": 20.813605312500002,
          "velocity": 0.6929133858267716
        },
        {
          "duration": 0.03378374999999778,
          "durationTicks": 24,
          "midi": 54,
          "name": "F#3",
          "ticks": 14884,
          "time": 20.951555625,
          "velocity": 0.6220472440944882
        },
        {
          "duration": 0.033783750000001334,
          "durationTicks": 24,
          "midi": 54,
          "name": "F#3",
          "ticks": 15168,
          "time": 21.35133,
          "velocity": 0.7165354330708661
        },
        {
          "duration": 0.03378374999999778,
          "durationTicks": 24,
          "midi": 54,
          "name": "F#3",
          "ticks": 15264,
          "time": 21.486465000000003,
          "velocity": 0.5984251968503937
        },
        {
          "duration": 0.033783750000001334,
          "durationTicks": 24,
          "midi": 54,
          "name": "F#3",
          "ticks": 15552,
          "time": 21.89187,
          "velocity": 0.7165354330708661
        },
        {
          "duration": 0.03378374999999778,
          "durationTicks": 24,
          "midi": 54,
          "name": "F#3",
          "ticks": 15650,
          "time": 22.029820312500004,
          "velocity": 0.6692913385826772
        },
        {
          "duration": 0.033783750000001334,
          "durationTicks": 24,
          "midi": 54,
          "name": "F#3",
          "ticks": 15940,
          "time": 22.438040625,
          "velocity": 0.7165354330708661
        },
        {
          "duration": 0.03378374999999778,
          "durationTicks": 24,
          "midi": 54,
          "name": "F#3",
          "ticks": 16034,
          "time": 22.570360312500004,
          "velocity": 0.6456692913385826
        },
        {
          "duration": 0.033783750000001334,
          "durationTicks": 24,
          "midi": 54,
          "name": "F#3",
          "ticks": 16320,
          "time": 22.97295,
          "velocity": 0.6929133858267716
        },
        {
          "duration": 0.03378374999999778,
          "durationTicks": 24,
          "midi": 54,
          "name": "F#3",
          "ticks": 16420,
          "time": 23.113715625,
          "velocity": 0.6220472440944882
        },
        {
          "duration": 0.033783750000001334,
          "durationTicks": 24,
          "midi": 54,
          "name": "F#3",
          "ticks": 16706,
          "time": 23.516305312500002,
          "velocity": 0.7165354330708661
        },
        {
          "duration": 0.033783750000001334,
          "durationTicks": 24,
          "midi": 54,
          "name": "F#3",
          "ticks": 16798,
          "time": 23.645809687499998,
          "velocity": 0.5984251968503937
        },
        {
          "duration": 0.03378374999999778,
          "durationTicks": 24,
          "midi": 54,
          "name": "F#3",
          "ticks": 41472,
          "time": 58.37832,
          "velocity": 0.8976377952755905
        },
        {
          "duration": 0.033783750000004886,
          "durationTicks": 24,
          "midi": 54,
          "name": "F#3",
          "ticks": 41572,
          "time": 58.519085625,
          "velocity": 0.7480314960629921
        },
        {
          "duration": 0.033783750000004886,
          "durationTicks": 24,
          "midi": 54,
          "name": "F#3",
          "ticks": 41666,
          "time": 58.651405312499996,
          "velocity": 0.6456692913385826
        },
        {
          "duration": 0.03378374999999778,
          "durationTicks": 24,
          "midi": 54,
          "name": "F#3",
          "ticks": 41760,
          "time": 58.783725000000004,
          "velocity": 0.7086614173228346
        },
        {
          "duration": 0.03378374999999778,
          "durationTicks": 24,
          "midi": 54,
          "name": "F#3",
          "ticks": 41858,
          "time": 58.9216753125,
          "velocity": 0.8818897637795275
        },
        {
          "duration": 0.033783750000004886,
          "durationTicks": 24,
          "midi": 54,
          "name": "F#3",
          "ticks": 41950,
          "time": 59.0511796875,
          "velocity": 0.7480314960629921
        },
        {
          "duration": 0.033783750000004886,
          "durationTicks": 24,
          "midi": 54,
          "name": "F#3",
          "ticks": 42050,
          "time": 59.191945312499996,
          "velocity": 0.5748031496062992
        },
        {
          "duration": 0.03378374999999778,
          "durationTicks": 24,
          "midi": 54,
          "name": "F#3",
          "ticks": 42148,
          "time": 59.329895625000006,
          "velocity": 0.6692913385826772
        },
        {
          "duration": 0.03378374999999778,
          "durationTicks": 24,
          "midi": 54,
          "name": "F#3",
          "ticks": 42242,
          "time": 59.4622153125,
          "velocity": 0.8818897637795275
        },
        {
          "duration": 0.033783750000004886,
          "durationTicks": 24,
          "midi": 54,
          "name": "F#3",
          "ticks": 42340,
          "time": 59.600165625,
          "velocity": 0.7480314960629921
        },
        {
          "duration": 0.033783750000004886,
          "durationTicks": 24,
          "midi": 54,
          "name": "F#3",
          "ticks": 42432,
          "time": 59.72967,
          "velocity": 0.5984251968503937
        },
        {
          "duration": 0.03378374999999778,
          "durationTicks": 24,
          "midi": 54,
          "name": "F#3",
          "ticks": 42528,
          "time": 59.864805000000004,
          "velocity": 0.6692913385826772
        },
        {
          "duration": 0.03378374999999778,
          "durationTicks": 24,
          "midi": 54,
          "name": "F#3",
          "ticks": 42628,
          "time": 60.005570625000004,
          "velocity": 0.8976377952755905
        },
        {
          "duration": 0.033783750000004886,
          "durationTicks": 24,
          "midi": 54,
          "name": "F#3",
          "ticks": 42722,
          "time": 60.1378903125,
          "velocity": 0.7480314960629921
        },
        {
          "duration": 0.03378374999999778,
          "durationTicks": 24,
          "midi": 54,
          "name": "F#3",
          "ticks": 42816,
          "time": 60.270210000000006,
          "velocity": 0.5826771653543307
        },
        {
          "duration": 0.03378374999999778,
          "durationTicks": 24,
          "midi": 54,
          "name": "F#3",
          "ticks": 42914,
          "time": 60.4081603125,
          "velocity": 0.7480314960629921
        },
        {
          "duration": 0.03378374999999778,
          "durationTicks": 24,
          "midi": 54,
          "name": "F#3",
          "ticks": 43006,
          "time": 60.537664687500005,
          "velocity": 0.8976377952755905
        },
        {
          "duration": 0.033783750000004886,
          "durationTicks": 24,
          "midi": 54,
          "name": "F#3",
          "ticks": 43106,
          "time": 60.6784303125,
          "velocity": 0.7480314960629921
        },
        {
          "duration": 0.03378374999999778,
          "durationTicks": 24,
          "midi": 54,
          "name": "F#3",
          "ticks": 43204,
          "time": 60.81638062500001,
          "velocity": 0.6456692913385826
        },
        {
          "duration": 0.03378374999999778,
          "durationTicks": 24,
          "midi": 54,
          "name": "F#3",
          "ticks": 43298,
          "time": 60.9487003125,
          "velocity": 0.7086614173228346
        },
        {
          "duration": 0.03378374999999778,
          "durationTicks": 24,
          "midi": 54,
          "name": "F#3",
          "ticks": 43396,
          "time": 61.086650625000004,
          "velocity": 0.8818897637795275
        },
        {
          "duration": 0.033783750000004886,
          "durationTicks": 24,
          "midi": 54,
          "name": "F#3",
          "ticks": 43488,
          "time": 61.216155,
          "velocity": 0.7480314960629921
        },
        {
          "duration": 0.03378374999999778,
          "durationTicks": 24,
          "midi": 54,
          "name": "F#3",
          "ticks": 43584,
          "time": 61.351290000000006,
          "velocity": 0.5748031496062992
        },
        {
          "duration": 0.03378374999999778,
          "durationTicks": 24,
          "midi": 54,
          "name": "F#3",
          "ticks": 43684,
          "time": 61.492055625000006,
          "velocity": 0.6692913385826772
        },
        {
          "duration": 0.03378374999999778,
          "durationTicks": 24,
          "midi": 54,
          "name": "F#3",
          "ticks": 43778,
          "time": 61.6243753125,
          "velocity": 0.8818897637795275
        },
        {
          "duration": 0.033783750000004886,
          "durationTicks": 24,
          "midi": 54,
          "name": "F#3",
          "ticks": 43872,
          "time": 61.756695,
          "velocity": 0.7480314960629921
        },
        {
          "duration": 0.033783750000004886,
          "durationTicks": 24,
          "midi": 54,
          "name": "F#3",
          "ticks": 43970,
          "time": 61.894645312499996,
          "velocity": 0.5984251968503937
        },
        {
          "duration": 0.03378374999999778,
          "durationTicks": 24,
          "midi": 54,
          "name": "F#3",
          "ticks": 44062,
          "time": 62.02414968750001,
          "velocity": 0.6692913385826772
        },
        {
          "duration": 0.03378374999999778,
          "durationTicks": 24,
          "midi": 54,
          "name": "F#3",
          "ticks": 44162,
          "time": 62.1649153125,
          "velocity": 0.8976377952755905
        },
        {
          "duration": 0.033783750000004886,
          "durationTicks": 24,
          "midi": 54,
          "name": "F#3",
          "ticks": 44260,
          "time": 62.302865625,
          "velocity": 0.7480314960629921
        },
        {
          "duration": 0.033783750000004886,
          "durationTicks": 24,
          "midi": 54,
          "name": "F#3",
          "ticks": 44354,
          "time": 62.435185312499996,
          "velocity": 0.5826771653543307
        },
        {
          "duration": 0.03378374999999778,
          "durationTicks": 24,
          "midi": 54,
          "name": "F#3",
          "ticks": 44452,
          "time": 62.573135625000006,
          "velocity": 0.7480314960629921
        },
        {
          "duration": 0.03378374999999778,
          "durationTicks": 24,
          "midi": 54,
          "name": "F#3",
          "ticks": 44544,
          "time": 62.70264,
          "velocity": 0.8976377952755905
        },
        {
          "duration": 0.033783750000004886,
          "durationTicks": 24,
          "midi": 54,
          "name": "F#3",
          "ticks": 44640,
          "time": 62.837775,
          "velocity": 0.7480314960629921
        },
        {
          "duration": 0.03378374999999778,
          "durationTicks": 24,
          "midi": 54,
          "name": "F#3",
          "ticks": 44740,
          "time": 62.97854062500001,
          "velocity": 0.6456692913385826
        },
        {
          "duration": 0.03378374999999778,
          "durationTicks": 24,
          "midi": 54,
          "name": "F#3",
          "ticks": 44834,
          "time": 63.1108603125,
          "velocity": 0.7086614173228346
        },
        {
          "duration": 0.03378374999999778,
          "durationTicks": 24,
          "midi": 54,
          "name": "F#3",
          "ticks": 44928,
          "time": 63.24318,
          "velocity": 0.8818897637795275
        },
        {
          "duration": 0.033783750000004886,
          "durationTicks": 24,
          "midi": 54,
          "name": "F#3",
          "ticks": 45026,
          "time": 63.3811303125,
          "velocity": 0.7480314960629921
        },
        {
          "duration": 0.03378374999999778,
          "durationTicks": 24,
          "midi": 54,
          "name": "F#3",
          "ticks": 45118,
          "time": 63.51063468750001,
          "velocity": 0.5748031496062992
        },
        {
          "duration": 0.03378374999999778,
          "durationTicks": 24,
          "midi": 54,
          "name": "F#3",
          "ticks": 45218,
          "time": 63.6514003125,
          "velocity": 0.6692913385826772
        },
        {
          "duration": 0.03378374999999778,
          "durationTicks": 24,
          "midi": 54,
          "name": "F#3",
          "ticks": 45316,
          "time": 63.789350625000004,
          "velocity": 0.8818897637795275
        },
        {
          "duration": 0.033783750000004886,
          "durationTicks": 24,
          "midi": 54,
          "name": "F#3",
          "ticks": 45410,
          "time": 63.9216703125,
          "velocity": 0.7480314960629921
        },
        {
          "duration": 0.03378374999999778,
          "durationTicks": 24,
          "midi": 54,
          "name": "F#3",
          "ticks": 45508,
          "time": 64.05962062500001,
          "velocity": 0.5984251968503937
        },
        {
          "duration": 0.03378374999999778,
          "durationTicks": 24,
          "midi": 54,
          "name": "F#3",
          "ticks": 45600,
          "time": 64.189125,
          "velocity": 0.6692913385826772
        },
        {
          "duration": 0.03378374999999778,
          "durationTicks": 24,
          "midi": 54,
          "name": "F#3",
          "ticks": 45696,
          "time": 64.32426000000001,
          "velocity": 0.8976377952755905
        },
        {
          "duration": 0.03378374999999778,
          "durationTicks": 24,
          "midi": 54,
          "name": "F#3",
          "ticks": 45796,
          "time": 64.46502562500001,
          "velocity": 0.7480314960629921
        },
        {
          "duration": 0.03378374999999778,
          "durationTicks": 24,
          "midi": 54,
          "name": "F#3",
          "ticks": 45890,
          "time": 64.5973453125,
          "velocity": 0.5826771653543307
        },
        {
          "duration": 0.03378375000001199,
          "durationTicks": 24,
          "midi": 54,
          "name": "F#3",
          "ticks": 45984,
          "time": 64.729665,
          "velocity": 0.7480314960629921
        },
        {
          "duration": 0.03378375000001199,
          "durationTicks": 24,
          "midi": 54,
          "name": "F#3",
          "ticks": 46082,
          "time": 64.86761531249999,
          "velocity": 0.8976377952755905
        },
        {
          "duration": 0.03378374999999778,
          "durationTicks": 24,
          "midi": 54,
          "name": "F#3",
          "ticks": 46174,
          "time": 64.9971196875,
          "velocity": 0.7480314960629921
        },
        {
          "duration": 0.03378374999999778,
          "durationTicks": 24,
          "midi": 54,
          "name": "F#3",
          "ticks": 46274,
          "time": 65.1378853125,
          "velocity": 0.6456692913385826
        },
        {
          "duration": 0.03378375000001199,
          "durationTicks": 24,
          "midi": 54,
          "name": "F#3",
          "ticks": 46372,
          "time": 65.275835625,
          "velocity": 0.7086614173228346
        },
        {
          "duration": 0.03378374999999778,
          "durationTicks": 24,
          "midi": 54,
          "name": "F#3",
          "ticks": 46466,
          "time": 65.4081553125,
          "velocity": 0.8818897637795275
        },
        {
          "duration": 0.03378374999999778,
          "durationTicks": 24,
          "midi": 54,
          "name": "F#3",
          "ticks": 46564,
          "time": 65.54610562500001,
          "velocity": 0.7480314960629921
        },
        {
          "duration": 0.03378374999999778,
          "durationTicks": 24,
          "midi": 54,
          "name": "F#3",
          "ticks": 46656,
          "time": 65.67561,
          "velocity": 0.5748031496062992
        },
        {
          "duration": 0.03378375000001199,
          "durationTicks": 24,
          "midi": 54,
          "name": "F#3",
          "ticks": 46752,
          "time": 65.810745,
          "velocity": 0.6692913385826772
        },
        {
          "duration": 0.03378374999999778,
          "durationTicks": 24,
          "midi": 54,
          "name": "F#3",
          "ticks": 46852,
          "time": 65.95151062500001,
          "velocity": 0.8818897637795275
        },
        {
          "duration": 0.03378374999999778,
          "durationTicks": 24,
          "midi": 54,
          "name": "F#3",
          "ticks": 46946,
          "time": 66.0838303125,
          "velocity": 0.7480314960629921
        },
        {
          "duration": 0.03378374999999778,
          "durationTicks": 24,
          "midi": 54,
          "name": "F#3",
          "ticks": 47040,
          "time": 66.21615,
          "velocity": 0.5984251968503937
        },
        {
          "duration": 0.03378375000001199,
          "durationTicks": 24,
          "midi": 54,
          "name": "F#3",
          "ticks": 47138,
          "time": 66.3541003125,
          "velocity": 0.6692913385826772
        },
        {
          "duration": 0.03378374999999778,
          "durationTicks": 24,
          "midi": 54,
          "name": "F#3",
          "ticks": 47230,
          "time": 66.4836046875,
          "velocity": 0.8976377952755905
        },
        {
          "duration": 0.03378374999999778,
          "durationTicks": 24,
          "midi": 54,
          "name": "F#3",
          "ticks": 47330,
          "time": 66.6243703125,
          "velocity": 0.7480314960629921
        },
        {
          "duration": 0.03378374999999778,
          "durationTicks": 24,
          "midi": 54,
          "name": "F#3",
          "ticks": 47428,
          "time": 66.762320625,
          "velocity": 0.5826771653543307
        },
        {
          "duration": 0.03378374999999778,
          "durationTicks": 24,
          "midi": 54,
          "name": "F#3",
          "ticks": 47522,
          "time": 66.8946403125,
          "velocity": 0.7480314960629921
        },
        {
          "duration": 0.03378374999999778,
          "durationTicks": 24,
          "midi": 54,
          "name": "F#3",
          "ticks": 47620,
          "time": 67.03259062500001,
          "velocity": 0.8976377952755905
        },
        {
          "duration": 0.03378374999999778,
          "durationTicks": 24,
          "midi": 54,
          "name": "F#3",
          "ticks": 47712,
          "time": 67.16209500000001,
          "velocity": 0.7480314960629921
        },
        {
          "duration": 0.03378374999999778,
          "durationTicks": 24,
          "midi": 54,
          "name": "F#3",
          "ticks": 47808,
          "time": 67.29723,
          "velocity": 0.6456692913385826
        },
        {
          "duration": 0.03378375000001199,
          "durationTicks": 24,
          "midi": 54,
          "name": "F#3",
          "ticks": 47908,
          "time": 67.437995625,
          "velocity": 0.7086614173228346
        },
        {
          "duration": 0.03378374999999778,
          "durationTicks": 24,
          "midi": 54,
          "name": "F#3",
          "ticks": 48002,
          "time": 67.5703153125,
          "velocity": 0.8818897637795275
        },
        {
          "duration": 0.03378374999999778,
          "durationTicks": 24,
          "midi": 54,
          "name": "F#3",
          "ticks": 48096,
          "time": 67.702635,
          "velocity": 0.7480314960629921
        },
        {
          "duration": 0.03378374999999778,
          "durationTicks": 24,
          "midi": 54,
          "name": "F#3",
          "ticks": 48194,
          "time": 67.8405853125,
          "velocity": 0.5748031496062992
        },
        {
          "duration": 0.03378374999999778,
          "durationTicks": 24,
          "midi": 54,
          "name": "F#3",
          "ticks": 48286,
          "time": 67.9700896875,
          "velocity": 0.6692913385826772
        },
        {
          "duration": 0.03378375000001199,
          "durationTicks": 24,
          "midi": 54,
          "name": "F#3",
          "ticks": 48386,
          "time": 68.1108553125,
          "velocity": 0.8818897637795275
        },
        {
          "duration": 0.03378374999999778,
          "durationTicks": 24,
          "midi": 54,
          "name": "F#3",
          "ticks": 48484,
          "time": 68.248805625,
          "velocity": 0.7480314960629921
        },
        {
          "duration": 0.03378374999999778,
          "durationTicks": 24,
          "midi": 54,
          "name": "F#3",
          "ticks": 48578,
          "time": 68.3811253125,
          "velocity": 0.5984251968503937
        },
        {
          "duration": 0.03378375000001199,
          "durationTicks": 24,
          "midi": 54,
          "name": "F#3",
          "ticks": 48676,
          "time": 68.519075625,
          "velocity": 0.6692913385826772
        },
        {
          "duration": 0.03378374999999778,
          "durationTicks": 24,
          "midi": 54,
          "name": "F#3",
          "ticks": 48768,
          "time": 68.64858000000001,
          "velocity": 0.8976377952755905
        },
        {
          "duration": 0.03378374999999778,
          "durationTicks": 24,
          "midi": 54,
          "name": "F#3",
          "ticks": 48864,
          "time": 68.783715,
          "velocity": 0.7480314960629921
        },
        {
          "duration": 0.03378374999999778,
          "durationTicks": 24,
          "midi": 54,
          "name": "F#3",
          "ticks": 48964,
          "time": 68.924480625,
          "velocity": 0.5826771653543307
        },
        {
          "duration": 0.03378374999999778,
          "durationTicks": 24,
          "midi": 54,
          "name": "F#3",
          "ticks": 49058,
          "time": 69.0568003125,
          "velocity": 0.7480314960629921
        },
        {
          "duration": 0.03378374999999778,
          "durationTicks": 24,
          "midi": 54,
          "name": "F#3",
          "ticks": 49152,
          "time": 69.18912,
          "velocity": 0.8976377952755905
        },
        {
          "duration": 0.03378374999999778,
          "durationTicks": 24,
          "midi": 54,
          "name": "F#3",
          "ticks": 49250,
          "time": 69.32707031250001,
          "velocity": 0.7480314960629921
        },
        {
          "duration": 0.03378374999999778,
          "durationTicks": 24,
          "midi": 54,
          "name": "F#3",
          "ticks": 49342,
          "time": 69.4565746875,
          "velocity": 0.6456692913385826
        },
        {
          "duration": 0.03378374999999778,
          "durationTicks": 24,
          "midi": 54,
          "name": "F#3",
          "ticks": 49442,
          "time": 69.59734031250001,
          "velocity": 0.7086614173228346
        },
        {
          "duration": 0.03378375000001199,
          "durationTicks": 24,
          "midi": 54,
          "name": "F#3",
          "ticks": 49540,
          "time": 69.73529062499999,
          "velocity": 0.8818897637795275
        },
        {
          "duration": 0.03378374999999778,
          "durationTicks": 24,
          "midi": 54,
          "name": "F#3",
          "ticks": 49634,
          "time": 69.8676103125,
          "velocity": 0.7480314960629921
        },
        {
          "duration": 0.03378374999999778,
          "durationTicks": 24,
          "midi": 54,
          "name": "F#3",
          "ticks": 49732,
          "time": 70.005560625,
          "velocity": 0.5748031496062992
        },
        {
          "duration": 0.03378375000001199,
          "durationTicks": 24,
          "midi": 54,
          "name": "F#3",
          "ticks": 49824,
          "time": 70.135065,
          "velocity": 0.6692913385826772
        },
        {
          "duration": 0.03378374999999778,
          "durationTicks": 24,
          "midi": 54,
          "name": "F#3",
          "ticks": 49920,
          "time": 70.2702,
          "velocity": 0.8818897637795275
        },
        {
          "duration": 0.03378374999999778,
          "durationTicks": 24,
          "midi": 54,
          "name": "F#3",
          "ticks": 50020,
          "time": 70.410965625,
          "velocity": 0.7480314960629921
        },
        {
          "duration": 0.03378374999999778,
          "durationTicks": 24,
          "midi": 54,
          "name": "F#3",
          "ticks": 50114,
          "time": 70.5432853125,
          "velocity": 0.5984251968503937
        },
        {
          "duration": 0.03378374999999778,
          "durationTicks": 24,
          "midi": 54,
          "name": "F#3",
          "ticks": 50208,
          "time": 70.675605,
          "velocity": 0.6692913385826772
        },
        {
          "duration": 0.03378374999999778,
          "durationTicks": 24,
          "midi": 54,
          "name": "F#3",
          "ticks": 50306,
          "time": 70.81355531250001,
          "velocity": 0.8976377952755905
        },
        {
          "duration": 0.03378374999999778,
          "durationTicks": 24,
          "midi": 54,
          "name": "F#3",
          "ticks": 50398,
          "time": 70.9430596875,
          "velocity": 0.7480314960629921
        },
        {
          "duration": 0.03378374999999778,
          "durationTicks": 24,
          "midi": 54,
          "name": "F#3",
          "ticks": 50498,
          "time": 71.08382531250001,
          "velocity": 0.5826771653543307
        },
        {
          "duration": 0.03378375000001199,
          "durationTicks": 24,
          "midi": 54,
          "name": "F#3",
          "ticks": 50596,
          "time": 71.22177562499999,
          "velocity": 0.7480314960629921
        },
        {
          "duration": 0.03378374999999778,
          "durationTicks": 24,
          "midi": 54,
          "name": "F#3",
          "ticks": 50690,
          "time": 71.35409531250001,
          "velocity": 0.8976377952755905
        },
        {
          "duration": 0.03378374999999778,
          "durationTicks": 24,
          "midi": 54,
          "name": "F#3",
          "ticks": 50788,
          "time": 71.492045625,
          "velocity": 0.7480314960629921
        },
        {
          "duration": 0.03378374999999778,
          "durationTicks": 24,
          "midi": 54,
          "name": "F#3",
          "ticks": 50880,
          "time": 71.62155,
          "velocity": 0.6456692913385826
        },
        {
          "duration": 0.03378374999999778,
          "durationTicks": 24,
          "midi": 54,
          "name": "F#3",
          "ticks": 50976,
          "time": 71.756685,
          "velocity": 0.7086614173228346
        },
        {
          "duration": 0.03378375000001199,
          "durationTicks": 24,
          "midi": 54,
          "name": "F#3",
          "ticks": 51076,
          "time": 71.89745062499999,
          "velocity": 0.8818897637795275
        },
        {
          "duration": 0.03378374999999778,
          "durationTicks": 24,
          "midi": 54,
          "name": "F#3",
          "ticks": 51170,
          "time": 72.0297703125,
          "velocity": 0.7480314960629921
        },
        {
          "duration": 0.03378374999999778,
          "durationTicks": 24,
          "midi": 54,
          "name": "F#3",
          "ticks": 51264,
          "time": 72.16209,
          "velocity": 0.5748031496062992
        },
        {
          "duration": 0.03378375000001199,
          "durationTicks": 24,
          "midi": 54,
          "name": "F#3",
          "ticks": 51362,
          "time": 72.3000403125,
          "velocity": 0.6692913385826772
        },
        {
          "duration": 0.03378374999999778,
          "durationTicks": 24,
          "midi": 54,
          "name": "F#3",
          "ticks": 51454,
          "time": 72.4295446875,
          "velocity": 0.8818897637795275
        },
        {
          "duration": 0.03378374999999778,
          "durationTicks": 24,
          "midi": 54,
          "name": "F#3",
          "ticks": 51554,
          "time": 72.57031031250001,
          "velocity": 0.7480314960629921
        },
        {
          "duration": 0.03378374999999778,
          "durationTicks": 24,
          "midi": 54,
          "name": "F#3",
          "ticks": 51652,
          "time": 72.708260625,
          "velocity": 0.5984251968503937
        },
        {
          "duration": 0.03378374999999778,
          "durationTicks": 24,
          "midi": 54,
          "name": "F#3",
          "ticks": 51746,
          "time": 72.84058031250001,
          "velocity": 0.6692913385826772
        },
        {
          "duration": 0.03378375000001199,
          "durationTicks": 24,
          "midi": 54,
          "name": "F#3",
          "ticks": 51844,
          "time": 72.97853062499999,
          "velocity": 0.8976377952755905
        },
        {
          "duration": 0.03378374999999778,
          "durationTicks": 24,
          "midi": 54,
          "name": "F#3",
          "ticks": 51936,
          "time": 73.108035,
          "velocity": 0.7480314960629921
        },
        {
          "duration": 0.03378374999999778,
          "durationTicks": 24,
          "midi": 54,
          "name": "F#3",
          "ticks": 52032,
          "time": 73.24317,
          "velocity": 0.5826771653543307
        },
        {
          "duration": 0.03378375000001199,
          "durationTicks": 24,
          "midi": 54,
          "name": "F#3",
          "ticks": 52132,
          "time": 73.38393562499999,
          "velocity": 0.7480314960629921
        },
        {
          "duration": 0.03378374999999778,
          "durationTicks": 24,
          "midi": 54,
          "name": "F#3",
          "ticks": 52226,
          "time": 73.51625531250001,
          "velocity": 0.8976377952755905
        },
        {
          "duration": 0.03378374999999778,
          "durationTicks": 24,
          "midi": 54,
          "name": "F#3",
          "ticks": 52320,
          "time": 73.64857500000001,
          "velocity": 0.7480314960629921
        },
        {
          "duration": 0.03378374999999778,
          "durationTicks": 24,
          "midi": 54,
          "name": "F#3",
          "ticks": 52418,
          "time": 73.7865253125,
          "velocity": 0.6456692913385826
        },
        {
          "duration": 0.03378374999999778,
          "durationTicks": 24,
          "midi": 54,
          "name": "F#3",
          "ticks": 52510,
          "time": 73.9160296875,
          "velocity": 0.7086614173228346
        },
        {
          "duration": 0.03378374999999778,
          "durationTicks": 24,
          "midi": 54,
          "name": "F#3",
          "ticks": 52610,
          "time": 74.05679531250001,
          "velocity": 0.8818897637795275
        },
        {
          "duration": 0.03378374999999778,
          "durationTicks": 24,
          "midi": 54,
          "name": "F#3",
          "ticks": 52708,
          "time": 74.194745625,
          "velocity": 0.7480314960629921
        },
        {
          "duration": 0.03378374999999778,
          "durationTicks": 24,
          "midi": 54,
          "name": "F#3",
          "ticks": 52802,
          "time": 74.32706531250001,
          "velocity": 0.5748031496062992
        },
        {
          "duration": 0.03378375000001199,
          "durationTicks": 24,
          "midi": 54,
          "name": "F#3",
          "ticks": 52900,
          "time": 74.46501562499999,
          "velocity": 0.6692913385826772
        },
        {
          "duration": 0.03378374999999778,
          "durationTicks": 24,
          "midi": 54,
          "name": "F#3",
          "ticks": 52992,
          "time": 74.59452,
          "velocity": 0.8818897637795275
        },
        {
          "duration": 0.03378374999999778,
          "durationTicks": 24,
          "midi": 54,
          "name": "F#3",
          "ticks": 53088,
          "time": 74.72965500000001,
          "velocity": 0.7480314960629921
        },
        {
          "duration": 0.03378374999999778,
          "durationTicks": 24,
          "midi": 54,
          "name": "F#3",
          "ticks": 53188,
          "time": 74.870420625,
          "velocity": 0.5984251968503937
        },
        {
          "duration": 0.03378374999999778,
          "durationTicks": 24,
          "midi": 54,
          "name": "F#3",
          "ticks": 53282,
          "time": 75.00274031250001,
          "velocity": 0.6692913385826772
        },
        {
          "duration": 0.03378374999999778,
          "durationTicks": 24,
          "midi": 54,
          "name": "F#3",
          "ticks": 53376,
          "time": 75.13506000000001,
          "velocity": 0.8976377952755905
        },
        {
          "duration": 0.03378374999999778,
          "durationTicks": 24,
          "midi": 54,
          "name": "F#3",
          "ticks": 53474,
          "time": 75.2730103125,
          "velocity": 0.7480314960629921
        },
        {
          "duration": 0.03378374999999778,
          "durationTicks": 24,
          "midi": 54,
          "name": "F#3",
          "ticks": 53566,
          "time": 75.4025146875,
          "velocity": 0.5826771653543307
        },
        {
          "duration": 0.03378375000001199,
          "durationTicks": 24,
          "midi": 54,
          "name": "F#3",
          "ticks": 53666,
          "time": 75.5432803125,
          "velocity": 0.7480314960629921
        },
        {
          "duration": 0.03378374999999778,
          "durationTicks": 24,
          "midi": 54,
          "name": "F#3",
          "ticks": 78336,
          "time": 110.27016,
          "velocity": 0.8976377952755905
        },
        {
          "duration": 0.03378374999999778,
          "durationTicks": 24,
          "midi": 54,
          "name": "F#3",
          "ticks": 78432,
          "time": 110.40529500000001,
          "velocity": 0.7480314960629921
        },
        {
          "duration": 0.03378374999999778,
          "durationTicks": 24,
          "midi": 54,
          "name": "F#3",
          "ticks": 78532,
          "time": 110.546060625,
          "velocity": 0.6456692913385826
        },
        {
          "duration": 0.03378374999999778,
          "durationTicks": 24,
          "midi": 54,
          "name": "F#3",
          "ticks": 78626,
          "time": 110.67838031250001,
          "velocity": 0.7086614173228346
        },
        {
          "duration": 0.03378375000001199,
          "durationTicks": 24,
          "midi": 54,
          "name": "F#3",
          "ticks": 78720,
          "time": 110.8107,
          "velocity": 0.8818897637795275
        },
        {
          "duration": 0.03378374999999778,
          "durationTicks": 24,
          "midi": 54,
          "name": "F#3",
          "ticks": 78818,
          "time": 110.9486503125,
          "velocity": 0.7480314960629921
        },
        {
          "duration": 0.03378374999999778,
          "durationTicks": 24,
          "midi": 54,
          "name": "F#3",
          "ticks": 78910,
          "time": 111.0781546875,
          "velocity": 0.5748031496062992
        },
        {
          "duration": 0.03378375000001199,
          "durationTicks": 24,
          "midi": 54,
          "name": "F#3",
          "ticks": 79010,
          "time": 111.2189203125,
          "velocity": 0.6692913385826772
        },
        {
          "duration": 0.03378374999999778,
          "durationTicks": 24,
          "midi": 54,
          "name": "F#3",
          "ticks": 79108,
          "time": 111.356870625,
          "velocity": 0.8818897637795275
        },
        {
          "duration": 0.03378374999999778,
          "durationTicks": 24,
          "midi": 54,
          "name": "F#3",
          "ticks": 79202,
          "time": 111.48919031250001,
          "velocity": 0.7480314960629921
        },
        {
          "duration": 0.03378374999999778,
          "durationTicks": 24,
          "midi": 54,
          "name": "F#3",
          "ticks": 79300,
          "time": 111.627140625,
          "velocity": 0.5984251968503937
        },
        {
          "duration": 0.03378374999999778,
          "durationTicks": 24,
          "midi": 54,
          "name": "F#3",
          "ticks": 79392,
          "time": 111.756645,
          "velocity": 0.6692913385826772
        },
        {
          "duration": 0.03378374999999778,
          "durationTicks": 24,
          "midi": 54,
          "name": "F#3",
          "ticks": 79488,
          "time": 111.89178000000001,
          "velocity": 0.8976377952755905
        },
        {
          "duration": 0.03378374999999778,
          "durationTicks": 24,
          "midi": 54,
          "name": "F#3",
          "ticks": 79588,
          "time": 112.032545625,
          "velocity": 0.7480314960629921
        },
        {
          "duration": 0.03378374999999778,
          "durationTicks": 24,
          "midi": 54,
          "name": "F#3",
          "ticks": 79682,
          "time": 112.16486531250001,
          "velocity": 0.5826771653543307
        },
        {
          "duration": 0.03378375000001199,
          "durationTicks": 24,
          "midi": 54,
          "name": "F#3",
          "ticks": 79776,
          "time": 112.297185,
          "velocity": 0.7480314960629921
        },
        {
          "duration": 0.03378374999999778,
          "durationTicks": 24,
          "midi": 54,
          "name": "F#3",
          "ticks": 79874,
          "time": 112.43513531250001,
          "velocity": 0.8976377952755905
        },
        {
          "duration": 0.03378374999999778,
          "durationTicks": 24,
          "midi": 54,
          "name": "F#3",
          "ticks": 79966,
          "time": 112.5646396875,
          "velocity": 0.7480314960629921
        },
        {
          "duration": 0.03378374999999778,
          "durationTicks": 24,
          "midi": 54,
          "name": "F#3",
          "ticks": 80066,
          "time": 112.7054053125,
          "velocity": 0.6456692913385826
        },
        {
          "duration": 0.03378374999999778,
          "durationTicks": 24,
          "midi": 54,
          "name": "F#3",
          "ticks": 80164,
          "time": 112.843355625,
          "velocity": 0.7086614173228346
        },
        {
          "duration": 0.03378374999999778,
          "durationTicks": 24,
          "midi": 54,
          "name": "F#3",
          "ticks": 80258,
          "time": 112.97567531250002,
          "velocity": 0.8818897637795275
        },
        {
          "duration": 0.03378374999999778,
          "durationTicks": 24,
          "midi": 54,
          "name": "F#3",
          "ticks": 80356,
          "time": 113.113625625,
          "velocity": 0.7480314960629921
        },
        {
          "duration": 0.03378374999999778,
          "durationTicks": 24,
          "midi": 54,
          "name": "F#3",
          "ticks": 80448,
          "time": 113.24313000000001,
          "velocity": 0.5748031496062992
        },
        {
          "duration": 0.03378375000001199,
          "durationTicks": 24,
          "midi": 54,
          "name": "F#3",
          "ticks": 80544,
          "time": 113.378265,
          "velocity": 0.6692913385826772
        },
        {
          "duration": 0.03378374999999778,
          "durationTicks": 24,
          "midi": 54,
          "name": "F#3",
          "ticks": 80644,
          "time": 113.519030625,
          "velocity": 0.8818897637795275
        },
        {
          "duration": 0.03378374999999778,
          "durationTicks": 24,
          "midi": 54,
          "name": "F#3",
          "ticks": 80738,
          "time": 113.65135031250001,
          "velocity": 0.7480314960629921
        },
        {
          "duration": 0.03378374999999778,
          "durationTicks": 24,
          "midi": 54,
          "name": "F#3",
          "ticks": 80832,
          "time": 113.78367,
          "velocity": 0.5984251968503937
        },
        {
          "duration": 0.03378374999999778,
          "durationTicks": 24,
          "midi": 54,
          "name": "F#3",
          "ticks": 80930,
          "time": 113.92162031250001,
          "velocity": 0.6692913385826772
        },
        {
          "duration": 0.03378375000001199,
          "durationTicks": 24,
          "midi": 54,
          "name": "F#3",
          "ticks": 81022,
          "time": 114.05112468749999,
          "velocity": 0.8976377952755905
        },
        {
          "duration": 0.03378374999999778,
          "durationTicks": 24,
          "midi": 54,
          "name": "F#3",
          "ticks": 81122,
          "time": 114.1918903125,
          "velocity": 0.7480314960629921
        },
        {
          "duration": 0.03378374999999778,
          "durationTicks": 24,
          "midi": 54,
          "name": "F#3",
          "ticks": 81220,
          "time": 114.329840625,
          "velocity": 0.5826771653543307
        },
        {
          "duration": 0.03378375000001199,
          "durationTicks": 24,
          "midi": 54,
          "name": "F#3",
          "ticks": 81314,
          "time": 114.4621603125,
          "velocity": 0.7480314960629921
        },
        {
          "duration": 0.03378374999999778,
          "durationTicks": 24,
          "midi": 54,
          "name": "F#3",
          "ticks": 81412,
          "time": 114.600110625,
          "velocity": 0.8976377952755905
        },
        {
          "duration": 0.03378374999999778,
          "durationTicks": 24,
          "midi": 54,
          "name": "F#3",
          "ticks": 81504,
          "time": 114.72961500000001,
          "velocity": 0.7480314960629921
        },
        {
          "duration": 0.03378374999999778,
          "durationTicks": 24,
          "midi": 54,
          "name": "F#3",
          "ticks": 81600,
          "time": 114.86475,
          "velocity": 0.6456692913385826
        },
        {
          "duration": 0.03378374999999778,
          "durationTicks": 24,
          "midi": 54,
          "name": "F#3",
          "ticks": 81700,
          "time": 115.005515625,
          "velocity": 0.7086614173228346
        },
        {
          "duration": 0.03378374999999778,
          "durationTicks": 24,
          "midi": 54,
          "name": "F#3",
          "ticks": 81794,
          "time": 115.13783531250002,
          "velocity": 0.8818897637795275
        },
        {
          "duration": 0.03378374999999778,
          "durationTicks": 24,
          "midi": 54,
          "name": "F#3",
          "ticks": 81888,
          "time": 115.270155,
          "velocity": 0.7480314960629921
        },
        {
          "duration": 0.03378374999999778,
          "durationTicks": 24,
          "midi": 54,
          "name": "F#3",
          "ticks": 81986,
          "time": 115.40810531250001,
          "velocity": 0.5748031496062992
        },
        {
          "duration": 0.03378374999999778,
          "durationTicks": 24,
          "midi": 54,
          "name": "F#3",
          "ticks": 82078,
          "time": 115.5376096875,
          "velocity": 0.6692913385826772
        },
        {
          "duration": 0.03378374999999778,
          "durationTicks": 24,
          "midi": 54,
          "name": "F#3",
          "ticks": 82178,
          "time": 115.67837531250001,
          "velocity": 0.8818897637795275
        },
        {
          "duration": 0.03378374999999778,
          "durationTicks": 24,
          "midi": 54,
          "name": "F#3",
          "ticks": 82276,
          "time": 115.816325625,
          "velocity": 0.7480314960629921
        },
        {
          "duration": 0.03378374999999778,
          "durationTicks": 24,
          "midi": 54,
          "name": "F#3",
          "ticks": 82370,
          "time": 115.9486453125,
          "velocity": 0.5984251968503937
        },
        {
          "duration": 0.03378374999999778,
          "durationTicks": 24,
          "midi": 54,
          "name": "F#3",
          "ticks": 82468,
          "time": 116.086595625,
          "velocity": 0.6692913385826772
        },
        {
          "duration": 0.03378374999999778,
          "durationTicks": 24,
          "midi": 54,
          "name": "F#3",
          "ticks": 82560,
          "time": 116.21610000000001,
          "velocity": 0.8976377952755905
        },
        {
          "duration": 0.03378374999999778,
          "durationTicks": 24,
          "midi": 54,
          "name": "F#3",
          "ticks": 82656,
          "time": 116.351235,
          "velocity": 0.7480314960629921
        },
        {
          "duration": 0.03378374999999778,
          "durationTicks": 24,
          "midi": 54,
          "name": "F#3",
          "ticks": 82756,
          "time": 116.492000625,
          "velocity": 0.5826771653543307
        },
        {
          "duration": 0.03378375000001199,
          "durationTicks": 24,
          "midi": 54,
          "name": "F#3",
          "ticks": 82850,
          "time": 116.6243203125,
          "velocity": 0.7480314960629921
        },
        {
          "duration": 0.03378374999999778,
          "durationTicks": 24,
          "midi": 54,
          "name": "F#3",
          "ticks": 82944,
          "time": 116.75664,
          "velocity": 0.8976377952755905
        },
        {
          "duration": 0.03378374999999778,
          "durationTicks": 24,
          "midi": 54,
          "name": "F#3",
          "ticks": 83042,
          "time": 116.89459031250001,
          "velocity": 0.7480314960629921
        },
        {
          "duration": 0.03378374999999778,
          "durationTicks": 24,
          "midi": 54,
          "name": "F#3",
          "ticks": 83134,
          "time": 117.0240946875,
          "velocity": 0.6456692913385826
        },
        {
          "duration": 0.03378374999999778,
          "durationTicks": 24,
          "midi": 54,
          "name": "F#3",
          "ticks": 83234,
          "time": 117.16486031250001,
          "velocity": 0.7086614173228346
        },
        {
          "duration": 0.03378375000001199,
          "durationTicks": 24,
          "midi": 54,
          "name": "F#3",
          "ticks": 83332,
          "time": 117.30281062499999,
          "velocity": 0.8818897637795275
        },
        {
          "duration": 0.03378374999999778,
          "durationTicks": 24,
          "midi": 54,
          "name": "F#3",
          "ticks": 83426,
          "time": 117.43513031250001,
          "velocity": 0.7480314960629921
        },
        {
          "duration": 0.03378374999999778,
          "durationTicks": 24,
          "midi": 54,
          "name": "F#3",
          "ticks": 83524,
          "time": 117.573080625,
          "velocity": 0.5748031496062992
        },
        {
          "duration": 0.03378375000001199,
          "durationTicks": 24,
          "midi": 54,
          "name": "F#3",
          "ticks": 83616,
          "time": 117.702585,
          "velocity": 0.6692913385826772
        },
        {
          "duration": 0.03378374999999778,
          "durationTicks": 24,
          "midi": 54,
          "name": "F#3",
          "ticks": 83712,
          "time": 117.83772,
          "velocity": 0.8818897637795275
        },
        {
          "duration": 0.03378374999999778,
          "durationTicks": 24,
          "midi": 54,
          "name": "F#3",
          "ticks": 83812,
          "time": 117.978485625,
          "velocity": 0.7480314960629921
        },
        {
          "duration": 0.03378374999999778,
          "durationTicks": 24,
          "midi": 54,
          "name": "F#3",
          "ticks": 83906,
          "time": 118.1108053125,
          "velocity": 0.5984251968503937
        },
        {
          "duration": 0.03378374999999778,
          "durationTicks": 24,
          "midi": 54,
          "name": "F#3",
          "ticks": 84000,
          "time": 118.243125,
          "velocity": 0.6692913385826772
        },
        {
          "duration": 0.03378374999999778,
          "durationTicks": 24,
          "midi": 54,
          "name": "F#3",
          "ticks": 84098,
          "time": 118.38107531250002,
          "velocity": 0.8976377952755905
        },
        {
          "duration": 0.03378374999999778,
          "durationTicks": 24,
          "midi": 54,
          "name": "F#3",
          "ticks": 84190,
          "time": 118.5105796875,
          "velocity": 0.7480314960629921
        },
        {
          "duration": 0.03378374999999778,
          "durationTicks": 24,
          "midi": 54,
          "name": "F#3",
          "ticks": 84290,
          "time": 118.65134531250001,
          "velocity": 0.5826771653543307
        },
        {
          "duration": 0.03378375000001199,
          "durationTicks": 24,
          "midi": 54,
          "name": "F#3",
          "ticks": 84388,
          "time": 118.789295625,
          "velocity": 0.7480314960629921
        },
        {
          "duration": 0.03378374999999778,
          "durationTicks": 24,
          "midi": 54,
          "name": "F#3",
          "ticks": 84482,
          "time": 118.92161531250001,
          "velocity": 0.8976377952755905
        },
        {
          "duration": 0.03378374999999778,
          "durationTicks": 24,
          "midi": 54,
          "name": "F#3",
          "ticks": 84580,
          "time": 119.059565625,
          "velocity": 0.7480314960629921
        },
        {
          "duration": 0.03378374999999778,
          "durationTicks": 24,
          "midi": 54,
          "name": "F#3",
          "ticks": 84672,
          "time": 119.18907,
          "velocity": 0.6456692913385826
        },
        {
          "duration": 0.03378374999999778,
          "durationTicks": 24,
          "midi": 54,
          "name": "F#3",
          "ticks": 84768,
          "time": 119.324205,
          "velocity": 0.7086614173228346
        },
        {
          "duration": 0.03378375000001199,
          "durationTicks": 24,
          "midi": 54,
          "name": "F#3",
          "ticks": 84868,
          "time": 119.46497062499999,
          "velocity": 0.8818897637795275
        },
        {
          "duration": 0.03378374999999778,
          "durationTicks": 24,
          "midi": 54,
          "name": "F#3",
          "ticks": 84962,
          "time": 119.59729031250001,
          "velocity": 0.7480314960629921
        },
        {
          "duration": 0.03378374999999778,
          "durationTicks": 24,
          "midi": 54,
          "name": "F#3",
          "ticks": 85056,
          "time": 119.72961000000001,
          "velocity": 0.5748031496062992
        },
        {
          "duration": 0.03378375000001199,
          "durationTicks": 24,
          "midi": 54,
          "name": "F#3",
          "ticks": 85154,
          "time": 119.8675603125,
          "velocity": 0.6692913385826772
        },
        {
          "duration": 0.03378374999999778,
          "durationTicks": 24,
          "midi": 54,
          "name": "F#3",
          "ticks": 85246,
          "time": 119.9970646875,
          "velocity": 0.8818897637795275
        },
        {
          "duration": 0.03378374999999778,
          "durationTicks": 24,
          "midi": 54,
          "name": "F#3",
          "ticks": 85346,
          "time": 120.13783031250001,
          "velocity": 0.7480314960629921
        },
        {
          "duration": 0.03378374999999778,
          "durationTicks": 24,
          "midi": 54,
          "name": "F#3",
          "ticks": 85444,
          "time": 120.275780625,
          "velocity": 0.5984251968503937
        },
        {
          "duration": 0.03378374999999778,
          "durationTicks": 24,
          "midi": 54,
          "name": "F#3",
          "ticks": 85538,
          "time": 120.40810031250001,
          "velocity": 0.6692913385826772
        },
        {
          "duration": 0.03378375000001199,
          "durationTicks": 24,
          "midi": 54,
          "name": "F#3",
          "ticks": 85636,
          "time": 120.54605062499999,
          "velocity": 0.8976377952755905
        },
        {
          "duration": 0.03378374999999778,
          "durationTicks": 24,
          "midi": 54,
          "name": "F#3",
          "ticks": 85728,
          "time": 120.675555,
          "velocity": 0.7480314960629921
        },
        {
          "duration": 0.03378374999999778,
          "durationTicks": 24,
          "midi": 54,
          "name": "F#3",
          "ticks": 85824,
          "time": 120.81069000000001,
          "velocity": 0.5826771653543307
        },
        {
          "duration": 0.03378375000001199,
          "durationTicks": 24,
          "midi": 54,
          "name": "F#3",
          "ticks": 85924,
          "time": 120.951455625,
          "velocity": 0.7480314960629921
        },
        {
          "duration": 0.03378374999999778,
          "durationTicks": 24,
          "midi": 54,
          "name": "F#3",
          "ticks": 86018,
          "time": 121.08377531250001,
          "velocity": 0.8976377952755905
        },
        {
          "duration": 0.03378374999999778,
          "durationTicks": 24,
          "midi": 54,
          "name": "F#3",
          "ticks": 86112,
          "time": 121.21609500000001,
          "velocity": 0.7480314960629921
        },
        {
          "duration": 0.03378374999999778,
          "durationTicks": 24,
          "midi": 54,
          "name": "F#3",
          "ticks": 86210,
          "time": 121.3540453125,
          "velocity": 0.6456692913385826
        },
        {
          "duration": 0.03378374999999778,
          "durationTicks": 24,
          "midi": 54,
          "name": "F#3",
          "ticks": 86302,
          "time": 121.4835496875,
          "velocity": 0.7086614173228346
        },
        {
          "duration": 0.03378374999999778,
          "durationTicks": 24,
          "midi": 54,
          "name": "F#3",
          "ticks": 86402,
          "time": 121.62431531250002,
          "velocity": 0.8818897637795275
        },
        {
          "duration": 0.03378374999999778,
          "durationTicks": 24,
          "midi": 54,
          "name": "F#3",
          "ticks": 86500,
          "time": 121.762265625,
          "velocity": 0.7480314960629921
        },
        {
          "duration": 0.03378374999999778,
          "durationTicks": 24,
          "midi": 54,
          "name": "F#3",
          "ticks": 86594,
          "time": 121.89458531250001,
          "velocity": 0.5748031496062992
        },
        {
          "duration": 0.03378375000001199,
          "durationTicks": 24,
          "midi": 54,
          "name": "F#3",
          "ticks": 86692,
          "time": 122.032535625,
          "velocity": 0.6692913385826772
        },
        {
          "duration": 0.03378374999999778,
          "durationTicks": 24,
          "midi": 54,
          "name": "F#3",
          "ticks": 86784,
          "time": 122.16204,
          "velocity": 0.8818897637795275
        },
        {
          "duration": 0.03378374999999778,
          "durationTicks": 24,
          "midi": 54,
          "name": "F#3",
          "ticks": 86880,
          "time": 122.29717500000001,
          "velocity": 0.7480314960629921
        },
        {
          "duration": 0.03378374999999778,
          "durationTicks": 24,
          "midi": 54,
          "name": "F#3",
          "ticks": 86980,
          "time": 122.437940625,
          "velocity": 0.5984251968503937
        },
        {
          "duration": 0.03378374999999778,
          "durationTicks": 24,
          "midi": 54,
          "name": "F#3",
          "ticks": 87074,
          "time": 122.57026031250001,
          "velocity": 0.6692913385826772
        },
        {
          "duration": 0.03378374999999778,
          "durationTicks": 24,
          "midi": 54,
          "name": "F#3",
          "ticks": 87168,
          "time": 122.70258000000001,
          "velocity": 0.8976377952755905
        },
        {
          "duration": 0.03378374999999778,
          "durationTicks": 24,
          "midi": 54,
          "name": "F#3",
          "ticks": 87266,
          "time": 122.84053031250001,
          "velocity": 0.7480314960629921
        },
        {
          "duration": 0.03378374999999778,
          "durationTicks": 24,
          "midi": 54,
          "name": "F#3",
          "ticks": 87358,
          "time": 122.9700346875,
          "velocity": 0.5826771653543307
        },
        {
          "duration": 0.03378375000001199,
          "durationTicks": 24,
          "midi": 54,
          "name": "F#3",
          "ticks": 87458,
          "time": 123.1108003125,
          "velocity": 0.7480314960629921
        },
        {
          "duration": 0.03378374999999778,
          "durationTicks": 24,
          "midi": 54,
          "name": "F#3",
          "ticks": 87556,
          "time": 123.248750625,
          "velocity": 0.8976377952755905
        },
        {
          "duration": 0.03378374999999778,
          "durationTicks": 24,
          "midi": 54,
          "name": "F#3",
          "ticks": 87650,
          "time": 123.38107031250001,
          "velocity": 0.7480314960629921
        },
        {
          "duration": 0.03378374999999778,
          "durationTicks": 24,
          "midi": 54,
          "name": "F#3",
          "ticks": 87748,
          "time": 123.519020625,
          "velocity": 0.6456692913385826
        },
        {
          "duration": 0.03378374999999778,
          "durationTicks": 24,
          "midi": 54,
          "name": "F#3",
          "ticks": 87840,
          "time": 123.648525,
          "velocity": 0.7086614173228346
        },
        {
          "duration": 0.03378375000001199,
          "durationTicks": 24,
          "midi": 54,
          "name": "F#3",
          "ticks": 87936,
          "time": 123.78366,
          "velocity": 0.8818897637795275
        },
        {
          "duration": 0.03378374999999778,
          "durationTicks": 24,
          "midi": 54,
          "name": "F#3",
          "ticks": 88036,
          "time": 123.924425625,
          "velocity": 0.7480314960629921
        },
        {
          "duration": 0.03378374999999778,
          "durationTicks": 24,
          "midi": 54,
          "name": "F#3",
          "ticks": 88130,
          "time": 124.05674531250001,
          "velocity": 0.5748031496062992
        },
        {
          "duration": 0.03378375000001199,
          "durationTicks": 24,
          "midi": 54,
          "name": "F#3",
          "ticks": 88224,
          "time": 124.189065,
          "velocity": 0.6692913385826772
        },
        {
          "duration": 0.03378374999999778,
          "durationTicks": 24,
          "midi": 54,
          "name": "F#3",
          "ticks": 88322,
          "time": 124.32701531250001,
          "velocity": 0.8818897637795275
        },
        {
          "duration": 0.03378374999999778,
          "durationTicks": 24,
          "midi": 54,
          "name": "F#3",
          "ticks": 88414,
          "time": 124.4565196875,
          "velocity": 0.7480314960629921
        },
        {
          "duration": 0.03378374999999778,
          "durationTicks": 24,
          "midi": 54,
          "name": "F#3",
          "ticks": 88514,
          "time": 124.5972853125,
          "velocity": 0.5984251968503937
        },
        {
          "duration": 0.03378374999999778,
          "durationTicks": 24,
          "midi": 54,
          "name": "F#3",
          "ticks": 88612,
          "time": 124.735235625,
          "velocity": 0.6692913385826772
        },
        {
          "duration": 0.03378374999999778,
          "durationTicks": 24,
          "midi": 54,
          "name": "F#3",
          "ticks": 88706,
          "time": 124.86755531250002,
          "velocity": 0.8976377952755905
        },
        {
          "duration": 0.03378374999999778,
          "durationTicks": 24,
          "midi": 54,
          "name": "F#3",
          "ticks": 88804,
          "time": 125.005505625,
          "velocity": 0.7480314960629921
        },
        {
          "duration": 0.03378374999999778,
          "durationTicks": 24,
          "midi": 54,
          "name": "F#3",
          "ticks": 88896,
          "time": 125.13501000000001,
          "velocity": 0.5826771653543307
        },
        {
          "duration": 0.03378375000001199,
          "durationTicks": 24,
          "midi": 54,
          "name": "F#3",
          "ticks": 88992,
          "time": 125.270145,
          "velocity": 0.7480314960629921
        },
        {
          "duration": 0.03378374999999778,
          "durationTicks": 24,
          "midi": 54,
          "name": "F#3",
          "ticks": 89092,
          "time": 125.410910625,
          "velocity": 0.8976377952755905
        },
        {
          "duration": 0.03378374999999778,
          "durationTicks": 24,
          "midi": 54,
          "name": "F#3",
          "ticks": 89186,
          "time": 125.54323031250001,
          "velocity": 0.7480314960629921
        },
        {
          "duration": 0.03378374999999778,
          "durationTicks": 24,
          "midi": 54,
          "name": "F#3",
          "ticks": 89280,
          "time": 125.67555,
          "velocity": 0.6456692913385826
        },
        {
          "duration": 0.03378374999999778,
          "durationTicks": 24,
          "midi": 54,
          "name": "F#3",
          "ticks": 89378,
          "time": 125.81350031250001,
          "velocity": 0.7086614173228346
        },
        {
          "duration": 0.03378375000001199,
          "durationTicks": 24,
          "midi": 54,
          "name": "F#3",
          "ticks": 89470,
          "time": 125.9430046875,
          "velocity": 0.8818897637795275
        },
        {
          "duration": 0.03378374999999778,
          "durationTicks": 24,
          "midi": 54,
          "name": "F#3",
          "ticks": 89570,
          "time": 126.08377031250001,
          "velocity": 0.7480314960629921
        },
        {
          "duration": 0.03378374999999778,
          "durationTicks": 24,
          "midi": 54,
          "name": "F#3",
          "ticks": 89668,
          "time": 126.221720625,
          "velocity": 0.5748031496062992
        },
        {
          "duration": 0.03378375000001199,
          "durationTicks": 24,
          "midi": 54,
          "name": "F#3",
          "ticks": 89762,
          "time": 126.3540403125,
          "velocity": 0.6692913385826772
        },
        {
          "duration": 0.03378374999999778,
          "durationTicks": 24,
          "midi": 54,
          "name": "F#3",
          "ticks": 89860,
          "time": 126.491990625,
          "velocity": 0.8818897637795275
        },
        {
          "duration": 0.03378374999999778,
          "durationTicks": 24,
          "midi": 54,
          "name": "F#3",
          "ticks": 89952,
          "time": 126.62149500000001,
          "velocity": 0.7480314960629921
        },
        {
          "duration": 0.03378374999999778,
          "durationTicks": 24,
          "midi": 54,
          "name": "F#3",
          "ticks": 90048,
          "time": 126.75663,
          "velocity": 0.5984251968503937
        },
        {
          "duration": 0.03378374999999778,
          "durationTicks": 24,
          "midi": 54,
          "name": "F#3",
          "ticks": 90148,
          "time": 126.897395625,
          "velocity": 0.6692913385826772
        },
        {
          "duration": 0.03378374999999778,
          "durationTicks": 24,
          "midi": 54,
          "name": "F#3",
          "ticks": 90242,
          "time": 127.02971531250002,
          "velocity": 0.8976377952755905
        },
        {
          "duration": 0.03378374999999778,
          "durationTicks": 24,
          "midi": 54,
          "name": "F#3",
          "ticks": 90336,
          "time": 127.162035,
          "velocity": 0.7480314960629921
        },
        {
          "duration": 0.03378374999999778,
          "durationTicks": 24,
          "midi": 54,
          "name": "F#3",
          "ticks": 90434,
          "time": 127.29998531250001,
          "velocity": 0.5826771653543307
        },
        {
          "duration": 0.03378374999999778,
          "durationTicks": 24,
          "midi": 54,
          "name": "F#3",
          "ticks": 90526,
          "time": 127.4294896875,
          "velocity": 0.7480314960629921
        },
        {
          "duration": 0.03378374999999778,
          "durationTicks": 24,
          "midi": 54,
          "name": "F#3",
          "ticks": 92160,
          "time": 129.7296,
          "velocity": 0.8976377952755905
        },
        {
          "duration": 0.03378374999999778,
          "durationTicks": 24,
          "midi": 54,
          "name": "F#3",
          "ticks": 92260,
          "time": 129.870365625,
          "velocity": 0.7480314960629921
        },
        {
          "duration": 0.03378374999999778,
          "durationTicks": 24,
          "midi": 54,
          "name": "F#3",
          "ticks": 92354,
          "time": 130.0026853125,
          "velocity": 0.6456692913385826
        },
        {
          "duration": 0.03378374999999778,
          "durationTicks": 24,
          "midi": 54,
          "name": "F#3",
          "ticks": 92448,
          "time": 130.135005,
          "velocity": 0.7086614173228346
        },
        {
          "duration": 0.03378374999999778,
          "durationTicks": 24,
          "midi": 54,
          "name": "F#3",
          "ticks": 92546,
          "time": 130.27295531250002,
          "velocity": 0.8818897637795275
        },
        {
          "duration": 0.03378374999999778,
          "durationTicks": 24,
          "midi": 54,
          "name": "F#3",
          "ticks": 92638,
          "time": 130.4024596875,
          "velocity": 0.7480314960629921
        },
        {
          "duration": 0.03378374999999778,
          "durationTicks": 24,
          "midi": 54,
          "name": "F#3",
          "ticks": 92738,
          "time": 130.5432253125,
          "velocity": 0.5748031496062992
        },
        {
          "duration": 0.03378374999999778,
          "durationTicks": 24,
          "midi": 54,
          "name": "F#3",
          "ticks": 92836,
          "time": 130.681175625,
          "velocity": 0.6692913385826772
        },
        {
          "duration": 0.03378374999999778,
          "durationTicks": 24,
          "midi": 54,
          "name": "F#3",
          "ticks": 92930,
          "time": 130.8134953125,
          "velocity": 0.8818897637795275
        },
        {
          "duration": 0.03378374999999778,
          "durationTicks": 24,
          "midi": 54,
          "name": "F#3",
          "ticks": 93028,
          "time": 130.951445625,
          "velocity": 0.7480314960629921
        },
        {
          "duration": 0.03378374999999778,
          "durationTicks": 24,
          "midi": 54,
          "name": "F#3",
          "ticks": 93120,
          "time": 131.08095,
          "velocity": 0.5984251968503937
        },
        {
          "duration": 0.0337837500000262,
          "durationTicks": 24,
          "midi": 54,
          "name": "F#3",
          "ticks": 93216,
          "time": 131.216085,
          "velocity": 0.6692913385826772
        },
        {
          "duration": 0.03378374999999778,
          "durationTicks": 24,
          "midi": 54,
          "name": "F#3",
          "ticks": 93316,
          "time": 131.356850625,
          "velocity": 0.8976377952755905
        },
        {
          "duration": 0.03378374999999778,
          "durationTicks": 24,
          "midi": 54,
          "name": "F#3",
          "ticks": 93410,
          "time": 131.48917031250002,
          "velocity": 0.7480314960629921
        },
        {
          "duration": 0.03378374999999778,
          "durationTicks": 24,
          "midi": 54,
          "name": "F#3",
          "ticks": 93504,
          "time": 131.62149,
          "velocity": 0.5826771653543307
        },
        {
          "duration": 0.03378374999999778,
          "durationTicks": 24,
          "midi": 54,
          "name": "F#3",
          "ticks": 93602,
          "time": 131.7594403125,
          "velocity": 0.7480314960629921
        },
        {
          "duration": 0.03378374999999778,
          "durationTicks": 24,
          "midi": 54,
          "name": "F#3",
          "ticks": 95232,
          "time": 134.05392,
          "velocity": 0.8976377952755905
        },
        {
          "duration": 0.03378374999999778,
          "durationTicks": 24,
          "midi": 54,
          "name": "F#3",
          "ticks": 95328,
          "time": 134.189055,
          "velocity": 0.7480314960629921
        },
        {
          "duration": 0.03378374999999778,
          "durationTicks": 24,
          "midi": 54,
          "name": "F#3",
          "ticks": 95428,
          "time": 134.329820625,
          "velocity": 0.6456692913385826
        },
        {
          "duration": 0.0337837500000262,
          "durationTicks": 24,
          "midi": 54,
          "name": "F#3",
          "ticks": 95522,
          "time": 134.4621403125,
          "velocity": 0.7086614173228346
        },
        {
          "duration": 0.03378374999999778,
          "durationTicks": 24,
          "midi": 54,
          "name": "F#3",
          "ticks": 95616,
          "time": 134.59446,
          "velocity": 0.8818897637795275
        },
        {
          "duration": 0.03378374999999778,
          "durationTicks": 24,
          "midi": 54,
          "name": "F#3",
          "ticks": 95714,
          "time": 134.7324103125,
          "velocity": 0.7480314960629921
        },
        {
          "duration": 0.03378374999999778,
          "durationTicks": 24,
          "midi": 54,
          "name": "F#3",
          "ticks": 95806,
          "time": 134.8619146875,
          "velocity": 0.5748031496062992
        },
        {
          "duration": 0.03378374999999778,
          "durationTicks": 24,
          "midi": 54,
          "name": "F#3",
          "ticks": 95906,
          "time": 135.00268031250002,
          "velocity": 0.6692913385826772
        },
        {
          "duration": 0.03378374999999778,
          "durationTicks": 24,
          "midi": 54,
          "name": "F#3",
          "ticks": 96004,
          "time": 135.140630625,
          "velocity": 0.8818897637795275
        },
        {
          "duration": 0.03378374999999778,
          "durationTicks": 24,
          "midi": 54,
          "name": "F#3",
          "ticks": 96098,
          "time": 135.2729503125,
          "velocity": 0.7480314960629921
        },
        {
          "duration": 0.03378374999999778,
          "durationTicks": 24,
          "midi": 54,
          "name": "F#3",
          "ticks": 96196,
          "time": 135.410900625,
          "velocity": 0.5984251968503937
        },
        {
          "duration": 0.0337837500000262,
          "durationTicks": 24,
          "midi": 54,
          "name": "F#3",
          "ticks": 96288,
          "time": 135.540405,
          "velocity": 0.6692913385826772
        },
        {
          "duration": 0.03378374999999778,
          "durationTicks": 24,
          "midi": 54,
          "name": "F#3",
          "ticks": 96384,
          "time": 135.67554,
          "velocity": 0.8976377952755905
        },
        {
          "duration": 0.03378374999999778,
          "durationTicks": 24,
          "midi": 54,
          "name": "F#3",
          "ticks": 96484,
          "time": 135.816305625,
          "velocity": 0.7480314960629921
        },
        {
          "duration": 0.03378374999999778,
          "durationTicks": 24,
          "midi": 54,
          "name": "F#3",
          "ticks": 96578,
          "time": 135.9486253125,
          "velocity": 0.5826771653543307
        },
        {
          "duration": 0.03378374999999778,
          "durationTicks": 24,
          "midi": 54,
          "name": "F#3",
          "ticks": 96672,
          "time": 136.080945,
          "velocity": 0.7480314960629921
        },
        {
          "duration": 0.03378374999999778,
          "durationTicks": 24,
          "midi": 54,
          "name": "F#3",
          "ticks": 98308,
          "time": 138.38387062500001,
          "velocity": 0.8976377952755905
        },
        {
          "duration": 0.03378374999999778,
          "durationTicks": 24,
          "midi": 54,
          "name": "F#3",
          "ticks": 98400,
          "time": 138.513375,
          "velocity": 0.7480314960629921
        },
        {
          "duration": 0.03378374999999778,
          "durationTicks": 24,
          "midi": 54,
          "name": "F#3",
          "ticks": 98496,
          "time": 138.64851000000002,
          "velocity": 0.6456692913385826
        },
        {
          "duration": 0.03378374999999778,
          "durationTicks": 24,
          "midi": 54,
          "name": "F#3",
          "ticks": 98596,
          "time": 138.78927562500002,
          "velocity": 0.7086614173228346
        },
        {
          "duration": 0.03378374999999778,
          "durationTicks": 24,
          "midi": 54,
          "name": "F#3",
          "ticks": 98690,
          "time": 138.9215953125,
          "velocity": 0.8818897637795275
        },
        {
          "duration": 0.03378374999999778,
          "durationTicks": 24,
          "midi": 54,
          "name": "F#3",
          "ticks": 98784,
          "time": 139.05391500000002,
          "velocity": 0.7480314960629921
        },
        {
          "duration": 0.03378374999999778,
          "durationTicks": 24,
          "midi": 54,
          "name": "F#3",
          "ticks": 98882,
          "time": 139.1918653125,
          "velocity": 0.5748031496062992
        },
        {
          "duration": 0.03378374999999778,
          "durationTicks": 24,
          "midi": 54,
          "name": "F#3",
          "ticks": 98974,
          "time": 139.3213696875,
          "velocity": 0.6692913385826772
        },
        {
          "duration": 0.0337837500000262,
          "durationTicks": 24,
          "midi": 54,
          "name": "F#3",
          "ticks": 99074,
          "time": 139.46213531249998,
          "velocity": 0.8818897637795275
        },
        {
          "duration": 0.03378374999999778,
          "durationTicks": 24,
          "midi": 54,
          "name": "F#3",
          "ticks": 99172,
          "time": 139.60008562500002,
          "velocity": 0.7480314960629921
        },
        {
          "duration": 0.03378374999999778,
          "durationTicks": 24,
          "midi": 54,
          "name": "F#3",
          "ticks": 99266,
          "time": 139.7324053125,
          "velocity": 0.5984251968503937
        },
        {
          "duration": 0.0337837500000262,
          "durationTicks": 24,
          "midi": 54,
          "name": "F#3",
          "ticks": 99364,
          "time": 139.870355625,
          "velocity": 0.6692913385826772
        },
        {
          "duration": 0.03378374999999778,
          "durationTicks": 24,
          "midi": 54,
          "name": "F#3",
          "ticks": 99456,
          "time": 139.99986,
          "velocity": 0.8976377952755905
        },
        {
          "duration": 0.03378374999999778,
          "durationTicks": 24,
          "midi": 54,
          "name": "F#3",
          "ticks": 99552,
          "time": 140.134995,
          "velocity": 0.7480314960629921
        },
        {
          "duration": 0.03378374999999778,
          "durationTicks": 24,
          "midi": 54,
          "name": "F#3",
          "ticks": 99652,
          "time": 140.275760625,
          "velocity": 0.5826771653543307
        },
        {
          "duration": 0.03378374999999778,
          "durationTicks": 24,
          "midi": 54,
          "name": "F#3",
          "ticks": 99746,
          "time": 140.4080803125,
          "velocity": 0.7480314960629921
        },
        {
          "duration": 0.03378374999999778,
          "durationTicks": 24,
          "midi": 54,
          "name": "F#3",
          "ticks": 101378,
          "time": 142.7053753125,
          "velocity": 0.8976377952755905
        },
        {
          "duration": 0.03378374999999778,
          "durationTicks": 24,
          "midi": 54,
          "name": "F#3",
          "ticks": 101476,
          "time": 142.843325625,
          "velocity": 0.7480314960629921
        },
        {
          "duration": 0.03378374999999778,
          "durationTicks": 24,
          "midi": 54,
          "name": "F#3",
          "ticks": 101568,
          "time": 142.97283000000002,
          "velocity": 0.6456692913385826
        },
        {
          "duration": 0.03378374999999778,
          "durationTicks": 24,
          "midi": 54,
          "name": "F#3",
          "ticks": 101664,
          "time": 143.107965,
          "velocity": 0.7086614173228346
        },
        {
          "duration": 0.03378374999999778,
          "durationTicks": 24,
          "midi": 54,
          "name": "F#3",
          "ticks": 101764,
          "time": 143.248730625,
          "velocity": 0.8818897637795275
        },
        {
          "duration": 0.03378374999999778,
          "durationTicks": 24,
          "midi": 54,
          "name": "F#3",
          "ticks": 101858,
          "time": 143.3810503125,
          "velocity": 0.7480314960629921
        },
        {
          "duration": 0.03378374999999778,
          "durationTicks": 24,
          "midi": 54,
          "name": "F#3",
          "ticks": 101952,
          "time": 143.51337,
          "velocity": 0.5748031496062992
        },
        {
          "duration": 0.03378374999999778,
          "durationTicks": 24,
          "midi": 54,
          "name": "F#3",
          "ticks": 102050,
          "time": 143.6513203125,
          "velocity": 0.6692913385826772
        },
        {
          "duration": 0.03378374999999778,
          "durationTicks": 24,
          "midi": 54,
          "name": "F#3",
          "ticks": 102142,
          "time": 143.78082468750003,
          "velocity": 0.8818897637795275
        },
        {
          "duration": 0.03378374999999778,
          "durationTicks": 24,
          "midi": 54,
          "name": "F#3",
          "ticks": 102242,
          "time": 143.9215903125,
          "velocity": 0.7480314960629921
        },
        {
          "duration": 0.03378374999999778,
          "durationTicks": 24,
          "midi": 54,
          "name": "F#3",
          "ticks": 102340,
          "time": 144.059540625,
          "velocity": 0.5984251968503937
        },
        {
          "duration": 0.03378374999999778,
          "durationTicks": 24,
          "midi": 54,
          "name": "F#3",
          "ticks": 102434,
          "time": 144.19186031249998,
          "velocity": 0.6692913385826772
        },
        {
          "duration": 0.03378374999999778,
          "durationTicks": 24,
          "midi": 54,
          "name": "F#3",
          "ticks": 102532,
          "time": 144.32981062500002,
          "velocity": 0.8976377952755905
        },
        {
          "duration": 0.03378374999999778,
          "durationTicks": 24,
          "midi": 54,
          "name": "F#3",
          "ticks": 102624,
          "time": 144.459315,
          "velocity": 0.7480314960629921
        },
        {
          "duration": 0.03378374999999778,
          "durationTicks": 24,
          "midi": 54,
          "name": "F#3",
          "ticks": 102720,
          "time": 144.59445,
          "velocity": 0.5826771653543307
        },
        {
          "duration": 0.03378374999999778,
          "durationTicks": 24,
          "midi": 54,
          "name": "F#3",
          "ticks": 102820,
          "time": 144.73521562500002,
          "velocity": 0.7480314960629921
        },
        {
          "duration": 0.03378374999999778,
          "durationTicks": 24,
          "midi": 54,
          "name": "F#3",
          "ticks": 104452,
          "time": 147.03251062500001,
          "velocity": 0.8976377952755905
        },
        {
          "duration": 0.03378374999999778,
          "durationTicks": 24,
          "midi": 54,
          "name": "F#3",
          "ticks": 104546,
          "time": 147.1648303125,
          "velocity": 0.7480314960629921
        },
        {
          "duration": 0.03378374999999778,
          "durationTicks": 24,
          "midi": 54,
          "name": "F#3",
          "ticks": 104644,
          "time": 147.30278062500003,
          "velocity": 0.6456692913385826
        },
        {
          "duration": 0.03378374999999778,
          "durationTicks": 24,
          "midi": 54,
          "name": "F#3",
          "ticks": 104736,
          "time": 147.432285,
          "velocity": 0.7086614173228346
        },
        {
          "duration": 0.03378374999999778,
          "durationTicks": 24,
          "midi": 54,
          "name": "F#3",
          "ticks": 104832,
          "time": 147.56742,
          "velocity": 0.8818897637795275
        },
        {
          "duration": 0.03378374999999778,
          "durationTicks": 24,
          "midi": 54,
          "name": "F#3",
          "ticks": 104932,
          "time": 147.70818562500003,
          "velocity": 0.7480314960629921
        },
        {
          "duration": 0.03378374999999778,
          "durationTicks": 24,
          "midi": 54,
          "name": "F#3",
          "ticks": 105026,
          "time": 147.8405053125,
          "velocity": 0.5748031496062992
        },
        {
          "duration": 0.03378374999999778,
          "durationTicks": 24,
          "midi": 54,
          "name": "F#3",
          "ticks": 105120,
          "time": 147.972825,
          "velocity": 0.6692913385826772
        },
        {
          "duration": 0.0337837500000262,
          "durationTicks": 24,
          "midi": 54,
          "name": "F#3",
          "ticks": 105218,
          "time": 148.11077531249998,
          "velocity": 0.8818897637795275
        },
        {
          "duration": 0.03378374999999778,
          "durationTicks": 24,
          "midi": 54,
          "name": "F#3",
          "ticks": 105310,
          "time": 148.24027968750002,
          "velocity": 0.7480314960629921
        },
        {
          "duration": 0.03378374999999778,
          "durationTicks": 24,
          "midi": 54,
          "name": "F#3",
          "ticks": 105410,
          "time": 148.3810453125,
          "velocity": 0.5984251968503937
        },
        {
          "duration": 0.0337837500000262,
          "durationTicks": 24,
          "midi": 54,
          "name": "F#3",
          "ticks": 105508,
          "time": 148.518995625,
          "velocity": 0.6692913385826772
        },
        {
          "duration": 0.03378374999999778,
          "durationTicks": 24,
          "midi": 54,
          "name": "F#3",
          "ticks": 105602,
          "time": 148.6513153125,
          "velocity": 0.8976377952755905
        },
        {
          "duration": 0.03378374999999778,
          "durationTicks": 24,
          "midi": 54,
          "name": "F#3",
          "ticks": 105700,
          "time": 148.789265625,
          "velocity": 0.7480314960629921
        },
        {
          "duration": 0.03378374999999778,
          "durationTicks": 24,
          "midi": 54,
          "name": "F#3",
          "ticks": 105792,
          "time": 148.91877,
          "velocity": 0.5826771653543307
        },
        {
          "duration": 0.03378374999999778,
          "durationTicks": 24,
          "midi": 54,
          "name": "F#3",
          "ticks": 105888,
          "time": 149.05390500000001,
          "velocity": 0.7480314960629921
        },
        {
          "duration": 0.03378374999999778,
          "durationTicks": 24,
          "midi": 54,
          "name": "F#3",
          "ticks": 107522,
          "time": 151.3540153125,
          "velocity": 0.8976377952755905
        },
        {
          "duration": 0.03378374999999778,
          "durationTicks": 24,
          "midi": 54,
          "name": "F#3",
          "ticks": 107620,
          "time": 151.491965625,
          "velocity": 0.7480314960629921
        },
        {
          "duration": 0.03378374999999778,
          "durationTicks": 24,
          "midi": 54,
          "name": "F#3",
          "ticks": 107714,
          "time": 151.6242853125,
          "velocity": 0.6456692913385826
        },
        {
          "duration": 0.03378374999999778,
          "durationTicks": 24,
          "midi": 54,
          "name": "F#3",
          "ticks": 107812,
          "time": 151.76223562500002,
          "velocity": 0.7086614173228346
        },
        {
          "duration": 0.03378374999999778,
          "durationTicks": 24,
          "midi": 54,
          "name": "F#3",
          "ticks": 107904,
          "time": 151.89174,
          "velocity": 0.8818897637795275
        },
        {
          "duration": 0.03378374999999778,
          "durationTicks": 24,
          "midi": 54,
          "name": "F#3",
          "ticks": 108000,
          "time": 152.02687500000002,
          "velocity": 0.7480314960629921
        },
        {
          "duration": 0.03378374999999778,
          "durationTicks": 24,
          "midi": 54,
          "name": "F#3",
          "ticks": 108100,
          "time": 152.16764062500002,
          "velocity": 0.5748031496062992
        },
        {
          "duration": 0.03378374999999778,
          "durationTicks": 24,
          "midi": 54,
          "name": "F#3",
          "ticks": 108194,
          "time": 152.2999603125,
          "velocity": 0.6692913385826772
        },
        {
          "duration": 0.0337837500000262,
          "durationTicks": 24,
          "midi": 54,
          "name": "F#3",
          "ticks": 108288,
          "time": 152.43228,
          "velocity": 0.8818897637795275
        },
        {
          "duration": 0.03378374999999778,
          "durationTicks": 24,
          "midi": 54,
          "name": "F#3",
          "ticks": 108386,
          "time": 152.5702303125,
          "velocity": 0.7480314960629921
        },
        {
          "duration": 0.03378374999999778,
          "durationTicks": 24,
          "midi": 54,
          "name": "F#3",
          "ticks": 108478,
          "time": 152.6997346875,
          "velocity": 0.5984251968503937
        },
        {
          "duration": 0.03378374999999778,
          "durationTicks": 24,
          "midi": 54,
          "name": "F#3",
          "ticks": 108578,
          "time": 152.84050031249998,
          "velocity": 0.6692913385826772
        },
        {
          "duration": 0.03378374999999778,
          "durationTicks": 24,
          "midi": 54,
          "name": "F#3",
          "ticks": 108676,
          "time": 152.97845062500002,
          "velocity": 0.8976377952755905
        },
        {
          "duration": 0.03378374999999778,
          "durationTicks": 24,
          "midi": 54,
          "name": "F#3",
          "ticks": 108770,
          "time": 153.1107703125,
          "velocity": 0.7480314960629921
        },
        {
          "duration": 0.03378374999999778,
          "durationTicks": 24,
          "midi": 54,
          "name": "F#3",
          "ticks": 108868,
          "time": 153.248720625,
          "velocity": 0.5826771653543307
        },
        {
          "duration": 0.03378374999999778,
          "durationTicks": 24,
          "midi": 54,
          "name": "F#3",
          "ticks": 108960,
          "time": 153.37822500000001,
          "velocity": 0.7480314960629921
        },
        {
          "duration": 0.03378374999999778,
          "durationTicks": 24,
          "midi": 54,
          "name": "F#3",
          "ticks": 110590,
          "time": 155.67270468750002,
          "velocity": 0.8976377952755905
        },
        {
          "duration": 0.03378374999999778,
          "durationTicks": 24,
          "midi": 54,
          "name": "F#3",
          "ticks": 110690,
          "time": 155.8134703125,
          "velocity": 0.7480314960629921
        },
        {
          "duration": 0.03378374999999778,
          "durationTicks": 24,
          "midi": 54,
          "name": "F#3",
          "ticks": 110788,
          "time": 155.95142062500003,
          "velocity": 0.6456692913385826
        },
        {
          "duration": 0.03378374999999778,
          "durationTicks": 24,
          "midi": 54,
          "name": "F#3",
          "ticks": 110882,
          "time": 156.0837403125,
          "velocity": 0.7086614173228346
        },
        {
          "duration": 0.03378374999999778,
          "durationTicks": 24,
          "midi": 54,
          "name": "F#3",
          "ticks": 110980,
          "time": 156.221690625,
          "velocity": 0.8818897637795275
        },
        {
          "duration": 0.03378374999999778,
          "durationTicks": 24,
          "midi": 54,
          "name": "F#3",
          "ticks": 111072,
          "time": 156.35119500000002,
          "velocity": 0.7480314960629921
        },
        {
          "duration": 0.03378374999999778,
          "durationTicks": 24,
          "midi": 54,
          "name": "F#3",
          "ticks": 111168,
          "time": 156.48633,
          "velocity": 0.5748031496062992
        },
        {
          "duration": 0.03378374999999778,
          "durationTicks": 24,
          "midi": 54,
          "name": "F#3",
          "ticks": 111268,
          "time": 156.627095625,
          "velocity": 0.6692913385826772
        },
        {
          "duration": 0.0337837500000262,
          "durationTicks": 24,
          "midi": 54,
          "name": "F#3",
          "ticks": 111362,
          "time": 156.75941531249998,
          "velocity": 0.8818897637795275
        },
        {
          "duration": 0.03378374999999778,
          "durationTicks": 24,
          "midi": 54,
          "name": "F#3",
          "ticks": 111456,
          "time": 156.891735,
          "velocity": 0.7480314960629921
        },
        {
          "duration": 0.03378374999999778,
          "durationTicks": 24,
          "midi": 54,
          "name": "F#3",
          "ticks": 111554,
          "time": 157.0296853125,
          "velocity": 0.5984251968503937
        },
        {
          "duration": 0.0337837500000262,
          "durationTicks": 24,
          "midi": 54,
          "name": "F#3",
          "ticks": 111646,
          "time": 157.1591896875,
          "velocity": 0.6692913385826772
        },
        {
          "duration": 0.03378374999999778,
          "durationTicks": 24,
          "midi": 54,
          "name": "F#3",
          "ticks": 111746,
          "time": 157.2999553125,
          "velocity": 0.8976377952755905
        },
        {
          "duration": 0.03378374999999778,
          "durationTicks": 24,
          "midi": 54,
          "name": "F#3",
          "ticks": 111844,
          "time": 157.437905625,
          "velocity": 0.7480314960629921
        },
        {
          "duration": 0.03378374999999778,
          "durationTicks": 24,
          "midi": 54,
          "name": "F#3",
          "ticks": 111938,
          "time": 157.57022531249999,
          "velocity": 0.5826771653543307
        },
        {
          "duration": 0.03378374999999778,
          "durationTicks": 24,
          "midi": 54,
          "name": "F#3",
          "ticks": 112036,
          "time": 157.70817562500002,
          "velocity": 0.7480314960629921
        },
        {
          "duration": 0.03378374999999778,
          "durationTicks": 24,
          "midi": 54,
          "name": "F#3",
          "ticks": 113666,
          "time": 160.0026553125,
          "velocity": 0.8976377952755905
        },
        {
          "duration": 0.03378374999999778,
          "durationTicks": 24,
          "midi": 54,
          "name": "F#3",
          "ticks": 113758,
          "time": 160.1321596875,
          "velocity": 0.7480314960629921
        },
        {
          "duration": 0.03378374999999778,
          "durationTicks": 24,
          "midi": 54,
          "name": "F#3",
          "ticks": 113858,
          "time": 160.2729253125,
          "velocity": 0.6456692913385826
        },
        {
          "duration": 0.03378374999999778,
          "durationTicks": 24,
          "midi": 54,
          "name": "F#3",
          "ticks": 113956,
          "time": 160.41087562500002,
          "velocity": 0.7086614173228346
        },
        {
          "duration": 0.03378374999999778,
          "durationTicks": 24,
          "midi": 54,
          "name": "F#3",
          "ticks": 114050,
          "time": 160.5431953125,
          "velocity": 0.8818897637795275
        },
        {
          "duration": 0.03378374999999778,
          "durationTicks": 24,
          "midi": 54,
          "name": "F#3",
          "ticks": 114148,
          "time": 160.68114562500003,
          "velocity": 0.7480314960629921
        },
        {
          "duration": 0.03378374999999778,
          "durationTicks": 24,
          "midi": 54,
          "name": "F#3",
          "ticks": 114240,
          "time": 160.81065,
          "velocity": 0.5748031496062992
        },
        {
          "duration": 0.03378374999999778,
          "durationTicks": 24,
          "midi": 54,
          "name": "F#3",
          "ticks": 114336,
          "time": 160.945785,
          "velocity": 0.6692913385826772
        },
        {
          "duration": 0.03378374999999778,
          "durationTicks": 24,
          "midi": 54,
          "name": "F#3",
          "ticks": 114436,
          "time": 161.08655062500003,
          "velocity": 0.8818897637795275
        },
        {
          "duration": 0.03378374999999778,
          "durationTicks": 24,
          "midi": 54,
          "name": "F#3",
          "ticks": 114530,
          "time": 161.2188703125,
          "velocity": 0.7480314960629921
        },
        {
          "duration": 0.03378374999999778,
          "durationTicks": 24,
          "midi": 54,
          "name": "F#3",
          "ticks": 114624,
          "time": 161.35119,
          "velocity": 0.5984251968503937
        },
        {
          "duration": 0.03378374999999778,
          "durationTicks": 24,
          "midi": 54,
          "name": "F#3",
          "ticks": 114722,
          "time": 161.48914031249998,
          "velocity": 0.6692913385826772
        },
        {
          "duration": 0.03378374999999778,
          "durationTicks": 24,
          "midi": 54,
          "name": "F#3",
          "ticks": 114814,
          "time": 161.61864468750002,
          "velocity": 0.8976377952755905
        },
        {
          "duration": 0.03378374999999778,
          "durationTicks": 24,
          "midi": 54,
          "name": "F#3",
          "ticks": 114914,
          "time": 161.7594103125,
          "velocity": 0.7480314960629921
        },
        {
          "duration": 0.03378374999999778,
          "durationTicks": 24,
          "midi": 54,
          "name": "F#3",
          "ticks": 115012,
          "time": 161.897360625,
          "velocity": 0.5826771653543307
        },
        {
          "duration": 0.03378374999999778,
          "durationTicks": 24,
          "midi": 54,
          "name": "F#3",
          "ticks": 115106,
          "time": 162.0296803125,
          "velocity": 0.7480314960629921
        },
        {
          "duration": 0.03378374999999778,
          "durationTicks": 24,
          "midi": 54,
          "name": "F#3",
          "ticks": 115204,
          "time": 162.16763062500002,
          "velocity": 0.8976377952755905
        },
        {
          "duration": 0.03378374999999778,
          "durationTicks": 24,
          "midi": 54,
          "name": "F#3",
          "ticks": 115296,
          "time": 162.297135,
          "velocity": 0.7480314960629921
        },
        {
          "duration": 0.03378374999999778,
          "durationTicks": 24,
          "midi": 54,
          "name": "F#3",
          "ticks": 115392,
          "time": 162.43227000000002,
          "velocity": 0.6456692913385826
        },
        {
          "duration": 0.03378374999999778,
          "durationTicks": 24,
          "midi": 54,
          "name": "F#3",
          "ticks": 115492,
          "time": 162.57303562500002,
          "velocity": 0.7086614173228346
        },
        {
          "duration": 0.03378374999999778,
          "durationTicks": 24,
          "midi": 54,
          "name": "F#3",
          "ticks": 115586,
          "time": 162.7053553125,
          "velocity": 0.8818897637795275
        },
        {
          "duration": 0.03378374999999778,
          "durationTicks": 24,
          "midi": 54,
          "name": "F#3",
          "ticks": 115680,
          "time": 162.83767500000002,
          "velocity": 0.7480314960629921
        },
        {
          "duration": 0.03378374999999778,
          "durationTicks": 24,
          "midi": 54,
          "name": "F#3",
          "ticks": 115778,
          "time": 162.9756253125,
          "velocity": 0.5748031496062992
        },
        {
          "duration": 0.03378374999999778,
          "durationTicks": 24,
          "midi": 54,
          "name": "F#3",
          "ticks": 115870,
          "time": 163.1051296875,
          "velocity": 0.6692913385826772
        },
        {
          "duration": 0.0337837500000262,
          "durationTicks": 24,
          "midi": 54,
          "name": "F#3",
          "ticks": 115970,
          "time": 163.24589531249998,
          "velocity": 0.8818897637795275
        },
        {
          "duration": 0.03378374999999778,
          "durationTicks": 24,
          "midi": 54,
          "name": "F#3",
          "ticks": 116068,
          "time": 163.38384562500002,
          "velocity": 0.7480314960629921
        },
        {
          "duration": 0.03378374999999778,
          "durationTicks": 24,
          "midi": 54,
          "name": "F#3",
          "ticks": 116162,
          "time": 163.5161653125,
          "velocity": 0.5984251968503937
        },
        {
          "duration": 0.0337837500000262,
          "durationTicks": 24,
          "midi": 54,
          "name": "F#3",
          "ticks": 116260,
          "time": 163.654115625,
          "velocity": 0.6692913385826772
        },
        {
          "duration": 0.03378374999999778,
          "durationTicks": 24,
          "midi": 54,
          "name": "F#3",
          "ticks": 116352,
          "time": 163.78362,
          "velocity": 0.8976377952755905
        },
        {
          "duration": 0.03378374999999778,
          "durationTicks": 24,
          "midi": 54,
          "name": "F#3",
          "ticks": 116448,
          "time": 163.918755,
          "velocity": 0.7480314960629921
        },
        {
          "duration": 0.03378374999999778,
          "durationTicks": 24,
          "midi": 54,
          "name": "F#3",
          "ticks": 116548,
          "time": 164.059520625,
          "velocity": 0.5826771653543307
        },
        {
          "duration": 0.03378374999999778,
          "durationTicks": 24,
          "midi": 54,
          "name": "F#3",
          "ticks": 116642,
          "time": 164.1918403125,
          "velocity": 0.7480314960629921
        },
        {
          "duration": 0.03378374999999778,
          "durationTicks": 24,
          "midi": 54,
          "name": "F#3",
          "ticks": 116736,
          "time": 164.32416,
          "velocity": 0.8976377952755905
        },
        {
          "duration": 0.03378374999999778,
          "durationTicks": 24,
          "midi": 54,
          "name": "F#3",
          "ticks": 116834,
          "time": 164.4621103125,
          "velocity": 0.7480314960629921
        },
        {
          "duration": 0.03378374999999778,
          "durationTicks": 24,
          "midi": 54,
          "name": "F#3",
          "ticks": 116926,
          "time": 164.59161468750003,
          "velocity": 0.6456692913385826
        },
        {
          "duration": 0.03378374999999778,
          "durationTicks": 24,
          "midi": 54,
          "name": "F#3",
          "ticks": 117026,
          "time": 164.7323803125,
          "velocity": 0.7086614173228346
        },
        {
          "duration": 0.03378374999999778,
          "durationTicks": 24,
          "midi": 54,
          "name": "F#3",
          "ticks": 117124,
          "time": 164.870330625,
          "velocity": 0.8818897637795275
        },
        {
          "duration": 0.03378374999999778,
          "durationTicks": 24,
          "midi": 54,
          "name": "F#3",
          "ticks": 117218,
          "time": 165.0026503125,
          "velocity": 0.7480314960629921
        },
        {
          "duration": 0.03378374999999778,
          "durationTicks": 24,
          "midi": 54,
          "name": "F#3",
          "ticks": 117316,
          "time": 165.14060062500002,
          "velocity": 0.5748031496062992
        },
        {
          "duration": 0.03378374999999778,
          "durationTicks": 24,
          "midi": 54,
          "name": "F#3",
          "ticks": 117408,
          "time": 165.270105,
          "velocity": 0.6692913385826772
        },
        {
          "duration": 0.0337837500000262,
          "durationTicks": 24,
          "midi": 54,
          "name": "F#3",
          "ticks": 117504,
          "time": 165.40524,
          "velocity": 0.8818897637795275
        },
        {
          "duration": 0.03378374999999778,
          "durationTicks": 24,
          "midi": 54,
          "name": "F#3",
          "ticks": 117604,
          "time": 165.54600562500002,
          "velocity": 0.7480314960629921
        },
        {
          "duration": 0.03378374999999778,
          "durationTicks": 24,
          "midi": 54,
          "name": "F#3",
          "ticks": 117698,
          "time": 165.6783253125,
          "velocity": 0.5984251968503937
        },
        {
          "duration": 0.0337837500000262,
          "durationTicks": 24,
          "midi": 54,
          "name": "F#3",
          "ticks": 117792,
          "time": 165.810645,
          "velocity": 0.6692913385826772
        },
        {
          "duration": 0.03378374999999778,
          "durationTicks": 24,
          "midi": 54,
          "name": "F#3",
          "ticks": 117890,
          "time": 165.9485953125,
          "velocity": 0.8976377952755905
        },
        {
          "duration": 0.03378374999999778,
          "durationTicks": 24,
          "midi": 54,
          "name": "F#3",
          "ticks": 117982,
          "time": 166.0780996875,
          "velocity": 0.7480314960629921
        },
        {
          "duration": 0.03378374999999778,
          "durationTicks": 24,
          "midi": 54,
          "name": "F#3",
          "ticks": 118082,
          "time": 166.2188653125,
          "velocity": 0.5826771653543307
        },
        {
          "duration": 0.03378374999999778,
          "durationTicks": 24,
          "midi": 54,
          "name": "F#3",
          "ticks": 118180,
          "time": 166.35681562500002,
          "velocity": 0.7480314960629921
        },
        {
          "duration": 0.03378374999999778,
          "durationTicks": 24,
          "midi": 54,
          "name": "F#3",
          "ticks": 118274,
          "time": 166.4891353125,
          "velocity": 0.8976377952755905
        },
        {
          "duration": 0.03378374999999778,
          "durationTicks": 24,
          "midi": 54,
          "name": "F#3",
          "ticks": 118372,
          "time": 166.627085625,
          "velocity": 0.7480314960629921
        },
        {
          "duration": 0.03378374999999778,
          "durationTicks": 24,
          "midi": 54,
          "name": "F#3",
          "ticks": 118464,
          "time": 166.75659000000002,
          "velocity": 0.6456692913385826
        },
        {
          "duration": 0.03378374999999778,
          "durationTicks": 24,
          "midi": 54,
          "name": "F#3",
          "ticks": 118560,
          "time": 166.891725,
          "velocity": 0.7086614173228346
        },
        {
          "duration": 0.03378374999999778,
          "durationTicks": 24,
          "midi": 54,
          "name": "F#3",
          "ticks": 118660,
          "time": 167.032490625,
          "velocity": 0.8818897637795275
        },
        {
          "duration": 0.03378374999999778,
          "durationTicks": 24,
          "midi": 54,
          "name": "F#3",
          "ticks": 118754,
          "time": 167.1648103125,
          "velocity": 0.7480314960629921
        },
        {
          "duration": 0.03378374999999778,
          "durationTicks": 24,
          "midi": 54,
          "name": "F#3",
          "ticks": 118848,
          "time": 167.29713,
          "velocity": 0.5748031496062992
        },
        {
          "duration": 0.03378374999999778,
          "durationTicks": 24,
          "midi": 54,
          "name": "F#3",
          "ticks": 118946,
          "time": 167.4350803125,
          "velocity": 0.6692913385826772
        },
        {
          "duration": 0.03378374999999778,
          "durationTicks": 24,
          "midi": 54,
          "name": "F#3",
          "ticks": 119038,
          "time": 167.56458468750003,
          "velocity": 0.8818897637795275
        },
        {
          "duration": 0.03378374999999778,
          "durationTicks": 24,
          "midi": 54,
          "name": "F#3",
          "ticks": 119138,
          "time": 167.7053503125,
          "velocity": 0.7480314960629921
        },
        {
          "duration": 0.03378374999999778,
          "durationTicks": 24,
          "midi": 54,
          "name": "F#3",
          "ticks": 119236,
          "time": 167.843300625,
          "velocity": 0.5984251968503937
        },
        {
          "duration": 0.03378374999999778,
          "durationTicks": 24,
          "midi": 54,
          "name": "F#3",
          "ticks": 119330,
          "time": 167.97562031249998,
          "velocity": 0.6692913385826772
        },
        {
          "duration": 0.03378374999999778,
          "durationTicks": 24,
          "midi": 54,
          "name": "F#3",
          "ticks": 119428,
          "time": 168.11357062500002,
          "velocity": 0.8976377952755905
        },
        {
          "duration": 0.03378374999999778,
          "durationTicks": 24,
          "midi": 54,
          "name": "F#3",
          "ticks": 119520,
          "time": 168.243075,
          "velocity": 0.7480314960629921
        },
        {
          "duration": 0.03378374999999778,
          "durationTicks": 24,
          "midi": 54,
          "name": "F#3",
          "ticks": 119616,
          "time": 168.37821,
          "velocity": 0.5826771653543307
        },
        {
          "duration": 0.03378374999999778,
          "durationTicks": 24,
          "midi": 54,
          "name": "F#3",
          "ticks": 119716,
          "time": 168.51897562500002,
          "velocity": 0.7480314960629921
        },
        {
          "duration": 0.03378374999999778,
          "durationTicks": 24,
          "midi": 54,
          "name": "F#3",
          "ticks": 119810,
          "time": 168.6512953125,
          "velocity": 0.8976377952755905
        },
        {
          "duration": 0.03378374999999778,
          "durationTicks": 24,
          "midi": 54,
          "name": "F#3",
          "ticks": 119904,
          "time": 168.783615,
          "velocity": 0.7480314960629921
        },
        {
          "duration": 0.03378374999999778,
          "durationTicks": 24,
          "midi": 54,
          "name": "F#3",
          "ticks": 120002,
          "time": 168.9215653125,
          "velocity": 0.6456692913385826
        },
        {
          "duration": 0.03378374999999778,
          "durationTicks": 24,
          "midi": 54,
          "name": "F#3",
          "ticks": 120094,
          "time": 169.05106968750002,
          "velocity": 0.7086614173228346
        },
        {
          "duration": 0.03378374999999778,
          "durationTicks": 24,
          "midi": 54,
          "name": "F#3",
          "ticks": 120194,
          "time": 169.1918353125,
          "velocity": 0.8818897637795275
        },
        {
          "duration": 0.03378374999999778,
          "durationTicks": 24,
          "midi": 54,
          "name": "F#3",
          "ticks": 120292,
          "time": 169.32978562500003,
          "velocity": 0.7480314960629921
        },
        {
          "duration": 0.03378374999999778,
          "durationTicks": 24,
          "midi": 54,
          "name": "F#3",
          "ticks": 120386,
          "time": 169.4621053125,
          "velocity": 0.5748031496062992
        },
        {
          "duration": 0.03378374999999778,
          "durationTicks": 24,
          "midi": 54,
          "name": "F#3",
          "ticks": 120484,
          "time": 169.600055625,
          "velocity": 0.6692913385826772
        },
        {
          "duration": 0.0337837500000262,
          "durationTicks": 24,
          "midi": 54,
          "name": "F#3",
          "ticks": 120576,
          "time": 169.72956,
          "velocity": 0.8818897637795275
        },
        {
          "duration": 0.03378374999999778,
          "durationTicks": 24,
          "midi": 54,
          "name": "F#3",
          "ticks": 120672,
          "time": 169.864695,
          "velocity": 0.7480314960629921
        },
        {
          "duration": 0.03378374999999778,
          "durationTicks": 24,
          "midi": 54,
          "name": "F#3",
          "ticks": 120772,
          "time": 170.005460625,
          "velocity": 0.5984251968503937
        },
        {
          "duration": 0.03378374999999778,
          "durationTicks": 24,
          "midi": 54,
          "name": "F#3",
          "ticks": 120866,
          "time": 170.13778031249998,
          "velocity": 0.6692913385826772
        },
        {
          "duration": 0.03378374999999778,
          "durationTicks": 24,
          "midi": 54,
          "name": "F#3",
          "ticks": 120960,
          "time": 170.2701,
          "velocity": 0.8976377952755905
        },
        {
          "duration": 0.03378374999999778,
          "durationTicks": 24,
          "midi": 54,
          "name": "F#3",
          "ticks": 121058,
          "time": 170.4080503125,
          "velocity": 0.7480314960629921
        },
        {
          "duration": 0.03378374999999778,
          "durationTicks": 24,
          "midi": 54,
          "name": "F#3",
          "ticks": 121150,
          "time": 170.5375546875,
          "velocity": 0.5826771653543307
        },
        {
          "duration": 0.03378374999999778,
          "durationTicks": 24,
          "midi": 54,
          "name": "F#3",
          "ticks": 121250,
          "time": 170.6783203125,
          "velocity": 0.7480314960629921
        },
        {
          "duration": 0.03378374999999778,
          "durationTicks": 24,
          "midi": 54,
          "name": "F#3",
          "ticks": 121348,
          "time": 170.81627062500002,
          "velocity": 0.8976377952755905
        },
        {
          "duration": 0.03378374999999778,
          "durationTicks": 24,
          "midi": 54,
          "name": "F#3",
          "ticks": 121442,
          "time": 170.9485903125,
          "velocity": 0.7480314960629921
        },
        {
          "duration": 0.03378374999999778,
          "durationTicks": 24,
          "midi": 54,
          "name": "F#3",
          "ticks": 121540,
          "time": 171.08654062500003,
          "velocity": 0.6456692913385826
        },
        {
          "duration": 0.03378374999999778,
          "durationTicks": 24,
          "midi": 54,
          "name": "F#3",
          "ticks": 121632,
          "time": 171.216045,
          "velocity": 0.7086614173228346
        },
        {
          "duration": 0.03378374999999778,
          "durationTicks": 24,
          "midi": 54,
          "name": "F#3",
          "ticks": 121728,
          "time": 171.35118,
          "velocity": 0.8818897637795275
        },
        {
          "duration": 0.03378374999999778,
          "durationTicks": 24,
          "midi": 54,
          "name": "F#3",
          "ticks": 121828,
          "time": 171.49194562500003,
          "velocity": 0.7480314960629921
        },
        {
          "duration": 0.03378374999999778,
          "durationTicks": 24,
          "midi": 54,
          "name": "F#3",
          "ticks": 121922,
          "time": 171.6242653125,
          "velocity": 0.5748031496062992
        },
        {
          "duration": 0.03378374999999778,
          "durationTicks": 24,
          "midi": 54,
          "name": "F#3",
          "ticks": 122016,
          "time": 171.756585,
          "velocity": 0.6692913385826772
        },
        {
          "duration": 0.0337837500000262,
          "durationTicks": 24,
          "midi": 54,
          "name": "F#3",
          "ticks": 122114,
          "time": 171.89453531249998,
          "velocity": 0.8818897637795275
        },
        {
          "duration": 0.03378374999999778,
          "durationTicks": 24,
          "midi": 54,
          "name": "F#3",
          "ticks": 122206,
          "time": 172.02403968750002,
          "velocity": 0.7480314960629921
        },
        {
          "duration": 0.03378374999999778,
          "durationTicks": 24,
          "midi": 54,
          "name": "F#3",
          "ticks": 122306,
          "time": 172.1648053125,
          "velocity": 0.5984251968503937
        },
        {
          "duration": 0.0337837500000262,
          "durationTicks": 24,
          "midi": 54,
          "name": "F#3",
          "ticks": 122404,
          "time": 172.302755625,
          "velocity": 0.6692913385826772
        },
        {
          "duration": 0.03378374999999778,
          "durationTicks": 24,
          "midi": 54,
          "name": "F#3",
          "ticks": 122498,
          "time": 172.4350753125,
          "velocity": 0.8976377952755905
        },
        {
          "duration": 0.03378374999999778,
          "durationTicks": 24,
          "midi": 54,
          "name": "F#3",
          "ticks": 122596,
          "time": 172.573025625,
          "velocity": 0.7480314960629921
        },
        {
          "duration": 0.03378374999999778,
          "durationTicks": 24,
          "midi": 54,
          "name": "F#3",
          "ticks": 122688,
          "time": 172.70253,
          "velocity": 0.5826771653543307
        },
        {
          "duration": 0.03378374999999778,
          "durationTicks": 24,
          "midi": 54,
          "name": "F#3",
          "ticks": 122784,
          "time": 172.83766500000002,
          "velocity": 0.7480314960629921
        },
        {
          "duration": 0.03378374999999778,
          "durationTicks": 24,
          "midi": 54,
          "name": "F#3",
          "ticks": 122884,
          "time": 172.97843062500002,
          "velocity": 0.8976377952755905
        },
        {
          "duration": 0.03378374999999778,
          "durationTicks": 24,
          "midi": 54,
          "name": "F#3",
          "ticks": 122978,
          "time": 173.1107503125,
          "velocity": 0.7480314960629921
        },
        {
          "duration": 0.03378374999999778,
          "durationTicks": 24,
          "midi": 54,
          "name": "F#3",
          "ticks": 123072,
          "time": 173.24307000000002,
          "velocity": 0.6456692913385826
        },
        {
          "duration": 0.03378374999999778,
          "durationTicks": 24,
          "midi": 54,
          "name": "F#3",
          "ticks": 123170,
          "time": 173.3810203125,
          "velocity": 0.7086614173228346
        },
        {
          "duration": 0.03378374999999778,
          "durationTicks": 24,
          "midi": 54,
          "name": "F#3",
          "ticks": 123262,
          "time": 173.5105246875,
          "velocity": 0.8818897637795275
        },
        {
          "duration": 0.03378374999999778,
          "durationTicks": 24,
          "midi": 54,
          "name": "F#3",
          "ticks": 123362,
          "time": 173.6512903125,
          "velocity": 0.7480314960629921
        },
        {
          "duration": 0.03378374999999778,
          "durationTicks": 24,
          "midi": 54,
          "name": "F#3",
          "ticks": 123460,
          "time": 173.78924062500002,
          "velocity": 0.5748031496062992
        },
        {
          "duration": 0.03378374999999778,
          "durationTicks": 24,
          "midi": 54,
          "name": "F#3",
          "ticks": 123554,
          "time": 173.9215603125,
          "velocity": 0.6692913385826772
        },
        {
          "duration": 0.03378374999999778,
          "durationTicks": 24,
          "midi": 54,
          "name": "F#3",
          "ticks": 123652,
          "time": 174.05951062500003,
          "velocity": 0.8818897637795275
        },
        {
          "duration": 0.03378374999999778,
          "durationTicks": 24,
          "midi": 54,
          "name": "F#3",
          "ticks": 123744,
          "time": 174.189015,
          "velocity": 0.7480314960629921
        },
        {
          "duration": 0.03378374999999778,
          "durationTicks": 24,
          "midi": 54,
          "name": "F#3",
          "ticks": 123840,
          "time": 174.32415,
          "velocity": 0.5984251968503937
        },
        {
          "duration": 0.0337837500000262,
          "durationTicks": 24,
          "midi": 54,
          "name": "F#3",
          "ticks": 123940,
          "time": 174.464915625,
          "velocity": 0.6692913385826772
        },
        {
          "duration": 0.03378374999999778,
          "durationTicks": 24,
          "midi": 54,
          "name": "F#3",
          "ticks": 124034,
          "time": 174.5972353125,
          "velocity": 0.8976377952755905
        },
        {
          "duration": 0.03378374999999778,
          "durationTicks": 24,
          "midi": 54,
          "name": "F#3",
          "ticks": 124128,
          "time": 174.729555,
          "velocity": 0.7480314960629921
        },
        {
          "duration": 0.03378374999999778,
          "durationTicks": 24,
          "midi": 54,
          "name": "F#3",
          "ticks": 124226,
          "time": 174.8675053125,
          "velocity": 0.5826771653543307
        },
        {
          "duration": 0.03378374999999778,
          "durationTicks": 24,
          "midi": 54,
          "name": "F#3",
          "ticks": 124318,
          "time": 174.99700968750003,
          "velocity": 0.7480314960629921
        },
        {
          "duration": 0.03378374999999778,
          "durationTicks": 24,
          "midi": 54,
          "name": "F#3",
          "ticks": 124418,
          "time": 175.1377753125,
          "velocity": 0.8976377952755905
        },
        {
          "duration": 0.03378374999999778,
          "durationTicks": 24,
          "midi": 54,
          "name": "F#3",
          "ticks": 124516,
          "time": 175.275725625,
          "velocity": 0.7480314960629921
        },
        {
          "duration": 0.03378374999999778,
          "durationTicks": 24,
          "midi": 54,
          "name": "F#3",
          "ticks": 124610,
          "time": 175.4080453125,
          "velocity": 0.6456692913385826
        },
        {
          "duration": 0.03378374999999778,
          "durationTicks": 24,
          "midi": 54,
          "name": "F#3",
          "ticks": 124708,
          "time": 175.54599562500002,
          "velocity": 0.7086614173228346
        },
        {
          "duration": 0.03378374999999778,
          "durationTicks": 24,
          "midi": 54,
          "name": "F#3",
          "ticks": 124800,
          "time": 175.6755,
          "velocity": 0.8818897637795275
        },
        {
          "duration": 0.03378374999999778,
          "durationTicks": 24,
          "midi": 54,
          "name": "F#3",
          "ticks": 124896,
          "time": 175.81063500000002,
          "velocity": 0.7480314960629921
        },
        {
          "duration": 0.03378374999999778,
          "durationTicks": 24,
          "midi": 54,
          "name": "F#3",
          "ticks": 124996,
          "time": 175.95140062500002,
          "velocity": 0.5748031496062992
        },
        {
          "duration": 0.03378374999999778,
          "durationTicks": 24,
          "midi": 54,
          "name": "F#3",
          "ticks": 125090,
          "time": 176.0837203125,
          "velocity": 0.6692913385826772
        },
        {
          "duration": 0.03378374999999778,
          "durationTicks": 24,
          "midi": 54,
          "name": "F#3",
          "ticks": 125184,
          "time": 176.21604000000002,
          "velocity": 0.8818897637795275
        },
        {
          "duration": 0.03378374999999778,
          "durationTicks": 24,
          "midi": 54,
          "name": "F#3",
          "ticks": 125282,
          "time": 176.3539903125,
          "velocity": 0.7480314960629921
        },
        {
          "duration": 0.03378374999999778,
          "durationTicks": 24,
          "midi": 54,
          "name": "F#3",
          "ticks": 125374,
          "time": 176.4834946875,
          "velocity": 0.5984251968503937
        },
        {
          "duration": 0.03378374999999778,
          "durationTicks": 24,
          "midi": 54,
          "name": "F#3",
          "ticks": 125474,
          "time": 176.62426031249998,
          "velocity": 0.6692913385826772
        },
        {
          "duration": 0.03378374999999778,
          "durationTicks": 24,
          "midi": 54,
          "name": "F#3",
          "ticks": 125572,
          "time": 176.76221062500002,
          "velocity": 0.8976377952755905
        },
        {
          "duration": 0.03378374999999778,
          "durationTicks": 24,
          "midi": 54,
          "name": "F#3",
          "ticks": 125666,
          "time": 176.8945303125,
          "velocity": 0.7480314960629921
        },
        {
          "duration": 0.03378374999999778,
          "durationTicks": 24,
          "midi": 54,
          "name": "F#3",
          "ticks": 125764,
          "time": 177.032480625,
          "velocity": 0.5826771653543307
        },
        {
          "duration": 0.03378374999999778,
          "durationTicks": 24,
          "midi": 54,
          "name": "F#3",
          "ticks": 125856,
          "time": 177.16198500000002,
          "velocity": 0.7480314960629921
        },
        {
          "duration": 0.03378374999999778,
          "durationTicks": 24,
          "midi": 54,
          "name": "F#3",
          "ticks": 125952,
          "time": 177.29712,
          "velocity": 0.8976377952755905
        },
        {
          "duration": 0.03378374999999778,
          "durationTicks": 24,
          "midi": 54,
          "name": "F#3",
          "ticks": 126052,
          "time": 177.437885625,
          "velocity": 0.7480314960629921
        },
        {
          "duration": 0.03378374999999778,
          "durationTicks": 24,
          "midi": 54,
          "name": "F#3",
          "ticks": 126146,
          "time": 177.5702053125,
          "velocity": 0.6456692913385826
        },
        {
          "duration": 0.03378374999999778,
          "durationTicks": 24,
          "midi": 54,
          "name": "F#3",
          "ticks": 126240,
          "time": 177.702525,
          "velocity": 0.7086614173228346
        },
        {
          "duration": 0.03378374999999778,
          "durationTicks": 24,
          "midi": 54,
          "name": "F#3",
          "ticks": 126338,
          "time": 177.8404753125,
          "velocity": 0.8818897637795275
        },
        {
          "duration": 0.03378374999999778,
          "durationTicks": 24,
          "midi": 54,
          "name": "F#3",
          "ticks": 126430,
          "time": 177.96997968750003,
          "velocity": 0.7480314960629921
        },
        {
          "duration": 0.03378374999999778,
          "durationTicks": 24,
          "midi": 54,
          "name": "F#3",
          "ticks": 126530,
          "time": 178.1107453125,
          "velocity": 0.5748031496062992
        },
        {
          "duration": 0.03378374999999778,
          "durationTicks": 24,
          "midi": 54,
          "name": "F#3",
          "ticks": 126628,
          "time": 178.248695625,
          "velocity": 0.6692913385826772
        },
        {
          "duration": 0.0337837500000262,
          "durationTicks": 24,
          "midi": 54,
          "name": "F#3",
          "ticks": 126722,
          "time": 178.38101531249998,
          "velocity": 0.8818897637795275
        },
        {
          "duration": 0.03378374999999778,
          "durationTicks": 24,
          "midi": 54,
          "name": "F#3",
          "ticks": 126820,
          "time": 178.51896562500002,
          "velocity": 0.7480314960629921
        },
        {
          "duration": 0.03378374999999778,
          "durationTicks": 24,
          "midi": 54,
          "name": "F#3",
          "ticks": 126912,
          "time": 178.64847,
          "velocity": 0.5984251968503937
        },
        {
          "duration": 0.0337837500000262,
          "durationTicks": 24,
          "midi": 54,
          "name": "F#3",
          "ticks": 127008,
          "time": 178.783605,
          "velocity": 0.6692913385826772
        },
        {
          "duration": 0.03378374999999778,
          "durationTicks": 24,
          "midi": 54,
          "name": "F#3",
          "ticks": 127108,
          "time": 178.92437062500002,
          "velocity": 0.8976377952755905
        },
        {
          "duration": 0.03378374999999778,
          "durationTicks": 24,
          "midi": 54,
          "name": "F#3",
          "ticks": 127202,
          "time": 179.0566903125,
          "velocity": 0.7480314960629921
        },
        {
          "duration": 0.03378374999999778,
          "durationTicks": 24,
          "midi": 54,
          "name": "F#3",
          "ticks": 127296,
          "time": 179.18901,
          "velocity": 0.5826771653543307
        },
        {
          "duration": 0.03378374999999778,
          "durationTicks": 24,
          "midi": 54,
          "name": "F#3",
          "ticks": 127394,
          "time": 179.3269603125,
          "velocity": 0.7480314960629921
        },
        {
          "duration": 0.03378374999999778,
          "durationTicks": 24,
          "midi": 54,
          "name": "F#3",
          "ticks": 127486,
          "time": 179.45646468750002,
          "velocity": 0.8976377952755905
        },
        {
          "duration": 0.03378374999999778,
          "durationTicks": 24,
          "midi": 54,
          "name": "F#3",
          "ticks": 127586,
          "time": 179.5972303125,
          "velocity": 0.7480314960629921
        },
        {
          "duration": 0.03378374999999778,
          "durationTicks": 24,
          "midi": 54,
          "name": "F#3",
          "ticks": 127684,
          "time": 179.73518062500003,
          "velocity": 0.6456692913385826
        },
        {
          "duration": 0.03378374999999778,
          "durationTicks": 24,
          "midi": 54,
          "name": "F#3",
          "ticks": 127778,
          "time": 179.8675003125,
          "velocity": 0.7086614173228346
        },
        {
          "duration": 0.03378374999999778,
          "durationTicks": 24,
          "midi": 54,
          "name": "F#3",
          "ticks": 127876,
          "time": 180.005450625,
          "velocity": 0.8818897637795275
        },
        {
          "duration": 0.03378374999999778,
          "durationTicks": 24,
          "midi": 54,
          "name": "F#3",
          "ticks": 127968,
          "time": 180.13495500000002,
          "velocity": 0.7480314960629921
        },
        {
          "duration": 0.03378374999999778,
          "durationTicks": 24,
          "midi": 54,
          "name": "F#3",
          "ticks": 128064,
          "time": 180.27009,
          "velocity": 0.5748031496062992
        },
        {
          "duration": 0.03378374999999778,
          "durationTicks": 24,
          "midi": 54,
          "name": "F#3",
          "ticks": 128164,
          "time": 180.410855625,
          "velocity": 0.6692913385826772
        },
        {
          "duration": 0.0337837500000262,
          "durationTicks": 24,
          "midi": 54,
          "name": "F#3",
          "ticks": 128258,
          "time": 180.54317531249998,
          "velocity": 0.8818897637795275
        },
        {
          "duration": 0.03378374999999778,
          "durationTicks": 24,
          "midi": 54,
          "name": "F#3",
          "ticks": 128352,
          "time": 180.675495,
          "velocity": 0.7480314960629921
        },
        {
          "duration": 0.03378374999999778,
          "durationTicks": 24,
          "midi": 54,
          "name": "F#3",
          "ticks": 128450,
          "time": 180.8134453125,
          "velocity": 0.5984251968503937
        },
        {
          "duration": 0.0337837500000262,
          "durationTicks": 24,
          "midi": 54,
          "name": "F#3",
          "ticks": 128542,
          "time": 180.9429496875,
          "velocity": 0.6692913385826772
        },
        {
          "duration": 0.03378374999999778,
          "durationTicks": 24,
          "midi": 54,
          "name": "F#3",
          "ticks": 128642,
          "time": 181.0837153125,
          "velocity": 0.8976377952755905
        },
        {
          "duration": 0.03378374999999778,
          "durationTicks": 24,
          "midi": 54,
          "name": "F#3",
          "ticks": 128740,
          "time": 181.221665625,
          "velocity": 0.7480314960629921
        },
        {
          "duration": 0.03378374999999778,
          "durationTicks": 24,
          "midi": 54,
          "name": "F#3",
          "ticks": 128834,
          "time": 181.3539853125,
          "velocity": 0.5826771653543307
        },
        {
          "duration": 0.03378374999999778,
          "durationTicks": 24,
          "midi": 54,
          "name": "F#3",
          "ticks": 128932,
          "time": 181.49193562500002,
          "velocity": 0.7480314960629921
        },
        {
          "duration": 0.03378374999999778,
          "durationTicks": 24,
          "midi": 54,
          "name": "F#3",
          "ticks": 129024,
          "time": 181.62144,
          "velocity": 0.8976377952755905
        },
        {
          "duration": 0.03378374999999778,
          "durationTicks": 24,
          "midi": 54,
          "name": "F#3",
          "ticks": 129120,
          "time": 181.756575,
          "velocity": 0.7480314960629921
        },
        {
          "duration": 0.03378374999999778,
          "durationTicks": 24,
          "midi": 54,
          "name": "F#3",
          "ticks": 129220,
          "time": 181.89734062500003,
          "velocity": 0.6456692913385826
        },
        {
          "duration": 0.03378374999999778,
          "durationTicks": 24,
          "midi": 54,
          "name": "F#3",
          "ticks": 129314,
          "time": 182.0296603125,
          "velocity": 0.7086614173228346
        },
        {
          "duration": 0.03378374999999778,
          "durationTicks": 24,
          "midi": 54,
          "name": "F#3",
          "ticks": 129408,
          "time": 182.16198,
          "velocity": 0.8818897637795275
        },
        {
          "duration": 0.03378374999999778,
          "durationTicks": 24,
          "midi": 54,
          "name": "F#3",
          "ticks": 129506,
          "time": 182.2999303125,
          "velocity": 0.7480314960629921
        },
        {
          "duration": 0.03378374999999778,
          "durationTicks": 24,
          "midi": 54,
          "name": "F#3",
          "ticks": 129598,
          "time": 182.42943468750002,
          "velocity": 0.5748031496062992
        },
        {
          "duration": 0.03378374999999778,
          "durationTicks": 24,
          "midi": 54,
          "name": "F#3",
          "ticks": 129698,
          "time": 182.5702003125,
          "velocity": 0.6692913385826772
        },
        {
          "duration": 0.03378374999999778,
          "durationTicks": 24,
          "midi": 54,
          "name": "F#3",
          "ticks": 129796,
          "time": 182.70815062500003,
          "velocity": 0.8818897637795275
        },
        {
          "duration": 0.03378374999999778,
          "durationTicks": 24,
          "midi": 54,
          "name": "F#3",
          "ticks": 129890,
          "time": 182.8404703125,
          "velocity": 0.7480314960629921
        },
        {
          "duration": 0.03378374999999778,
          "durationTicks": 24,
          "midi": 54,
          "name": "F#3",
          "ticks": 129988,
          "time": 182.978420625,
          "velocity": 0.5984251968503937
        },
        {
          "duration": 0.0337837500000262,
          "durationTicks": 24,
          "midi": 54,
          "name": "F#3",
          "ticks": 130080,
          "time": 183.107925,
          "velocity": 0.6692913385826772
        },
        {
          "duration": 0.03378374999999778,
          "durationTicks": 24,
          "midi": 54,
          "name": "F#3",
          "ticks": 130176,
          "time": 183.24306,
          "velocity": 0.8976377952755905
        },
        {
          "duration": 0.03378374999999778,
          "durationTicks": 24,
          "midi": 54,
          "name": "F#3",
          "ticks": 130276,
          "time": 183.38382562500001,
          "velocity": 0.7480314960629921
        },
        {
          "duration": 0.03378374999999778,
          "durationTicks": 24,
          "midi": 54,
          "name": "F#3",
          "ticks": 130370,
          "time": 183.5161453125,
          "velocity": 0.5826771653543307
        },
        {
          "duration": 0.03378374999999778,
          "durationTicks": 24,
          "midi": 54,
          "name": "F#3",
          "ticks": 130464,
          "time": 183.64846500000002,
          "velocity": 0.7480314960629921
        },
        {
          "duration": 0.03378374999999778,
          "durationTicks": 24,
          "midi": 54,
          "name": "F#3",
          "ticks": 130562,
          "time": 183.7864153125,
          "velocity": 0.8976377952755905
        },
        {
          "duration": 0.03378374999999778,
          "durationTicks": 24,
          "midi": 54,
          "name": "F#3",
          "ticks": 130654,
          "time": 183.9159196875,
          "velocity": 0.7480314960629921
        },
        {
          "duration": 0.03378374999999778,
          "durationTicks": 24,
          "midi": 54,
          "name": "F#3",
          "ticks": 130754,
          "time": 184.0566853125,
          "velocity": 0.6456692913385826
        },
        {
          "duration": 0.03378374999999778,
          "durationTicks": 24,
          "midi": 54,
          "name": "F#3",
          "ticks": 130852,
          "time": 184.19463562500002,
          "velocity": 0.7086614173228346
        },
        {
          "duration": 0.03378374999999778,
          "durationTicks": 24,
          "midi": 54,
          "name": "F#3",
          "ticks": 130946,
          "time": 184.3269553125,
          "velocity": 0.8818897637795275
        },
        {
          "duration": 0.03378374999999778,
          "durationTicks": 24,
          "midi": 54,
          "name": "F#3",
          "ticks": 131044,
          "time": 184.46490562500003,
          "velocity": 0.7480314960629921
        },
        {
          "duration": 0.03378374999999778,
          "durationTicks": 24,
          "midi": 54,
          "name": "F#3",
          "ticks": 131136,
          "time": 184.59441,
          "velocity": 0.5748031496062992
        },
        {
          "duration": 0.03378374999999778,
          "durationTicks": 24,
          "midi": 54,
          "name": "F#3",
          "ticks": 131232,
          "time": 184.729545,
          "velocity": 0.6692913385826772
        },
        {
          "duration": 0.03378374999999778,
          "durationTicks": 24,
          "midi": 54,
          "name": "F#3",
          "ticks": 131332,
          "time": 184.87031062500003,
          "velocity": 0.8818897637795275
        },
        {
          "duration": 0.03378374999999778,
          "durationTicks": 24,
          "midi": 54,
          "name": "F#3",
          "ticks": 131426,
          "time": 185.0026303125,
          "velocity": 0.7480314960629921
        },
        {
          "duration": 0.03378374999999778,
          "durationTicks": 24,
          "midi": 54,
          "name": "F#3",
          "ticks": 131520,
          "time": 185.13495,
          "velocity": 0.5984251968503937
        },
        {
          "duration": 0.03378374999999778,
          "durationTicks": 24,
          "midi": 54,
          "name": "F#3",
          "ticks": 131618,
          "time": 185.27290031249998,
          "velocity": 0.6692913385826772
        },
        {
          "duration": 0.03378374999999778,
          "durationTicks": 24,
          "midi": 54,
          "name": "F#3",
          "ticks": 131710,
          "time": 185.40240468750002,
          "velocity": 0.8976377952755905
        },
        {
          "duration": 0.03378374999999778,
          "durationTicks": 24,
          "midi": 54,
          "name": "F#3",
          "ticks": 131810,
          "time": 185.5431703125,
          "velocity": 0.7480314960629921
        },
        {
          "duration": 0.03378374999999778,
          "durationTicks": 24,
          "midi": 54,
          "name": "F#3",
          "ticks": 131908,
          "time": 185.681120625,
          "velocity": 0.5826771653543307
        },
        {
          "duration": 0.03378374999999778,
          "durationTicks": 24,
          "midi": 54,
          "name": "F#3",
          "ticks": 132002,
          "time": 185.8134403125,
          "velocity": 0.7480314960629921
        },
        {
          "duration": 0.03378374999999778,
          "durationTicks": 24,
          "midi": 54,
          "name": "F#3",
          "ticks": 132100,
          "time": 185.95139062500002,
          "velocity": 0.8976377952755905
        },
        {
          "duration": 0.03378374999999778,
          "durationTicks": 24,
          "midi": 54,
          "name": "F#3",
          "ticks": 132192,
          "time": 186.080895,
          "velocity": 0.7480314960629921
        },
        {
          "duration": 0.03378374999999778,
          "durationTicks": 24,
          "midi": 54,
          "name": "F#3",
          "ticks": 132288,
          "time": 186.21603000000002,
          "velocity": 0.6456692913385826
        },
        {
          "duration": 0.03378374999999778,
          "durationTicks": 24,
          "midi": 54,
          "name": "F#3",
          "ticks": 132388,
          "time": 186.35679562500002,
          "velocity": 0.7086614173228346
        },
        {
          "duration": 0.03378374999999778,
          "durationTicks": 24,
          "midi": 54,
          "name": "F#3",
          "ticks": 132482,
          "time": 186.4891153125,
          "velocity": 0.8818897637795275
        },
        {
          "duration": 0.03378374999999778,
          "durationTicks": 24,
          "midi": 54,
          "name": "F#3",
          "ticks": 132576,
          "time": 186.62143500000002,
          "velocity": 0.7480314960629921
        },
        {
          "duration": 0.03378374999999778,
          "durationTicks": 24,
          "midi": 54,
          "name": "F#3",
          "ticks": 132674,
          "time": 186.7593853125,
          "velocity": 0.5748031496062992
        },
        {
          "duration": 0.03378374999999778,
          "durationTicks": 24,
          "midi": 54,
          "name": "F#3",
          "ticks": 132766,
          "time": 186.8888896875,
          "velocity": 0.6692913385826772
        },
        {
          "duration": 0.0337837500000262,
          "durationTicks": 24,
          "midi": 54,
          "name": "F#3",
          "ticks": 132866,
          "time": 187.02965531249998,
          "velocity": 0.8818897637795275
        },
        {
          "duration": 0.03378374999999778,
          "durationTicks": 24,
          "midi": 54,
          "name": "F#3",
          "ticks": 132964,
          "time": 187.16760562500002,
          "velocity": 0.7480314960629921
        },
        {
          "duration": 0.03378374999999778,
          "durationTicks": 24,
          "midi": 54,
          "name": "F#3",
          "ticks": 133058,
          "time": 187.2999253125,
          "velocity": 0.5984251968503937
        },
        {
          "duration": 0.0337837500000262,
          "durationTicks": 24,
          "midi": 54,
          "name": "F#3",
          "ticks": 133156,
          "time": 187.437875625,
          "velocity": 0.6692913385826772
        },
        {
          "duration": 0.03378374999999778,
          "durationTicks": 24,
          "midi": 54,
          "name": "F#3",
          "ticks": 133248,
          "time": 187.56738,
          "velocity": 0.8976377952755905
        },
        {
          "duration": 0.03378374999999778,
          "durationTicks": 24,
          "midi": 54,
          "name": "F#3",
          "ticks": 133344,
          "time": 187.702515,
          "velocity": 0.7480314960629921
        },
        {
          "duration": 0.03378374999999778,
          "durationTicks": 24,
          "midi": 54,
          "name": "F#3",
          "ticks": 133444,
          "time": 187.843280625,
          "velocity": 0.5826771653543307
        },
        {
          "duration": 0.03378374999999778,
          "durationTicks": 24,
          "midi": 54,
          "name": "F#3",
          "ticks": 133538,
          "time": 187.9756003125,
          "velocity": 0.7480314960629921
        },
        {
          "duration": 0.03378374999999778,
          "durationTicks": 24,
          "midi": 54,
          "name": "F#3",
          "ticks": 133632,
          "time": 188.10792,
          "velocity": 0.8976377952755905
        },
        {
          "duration": 0.03378374999999778,
          "durationTicks": 24,
          "midi": 54,
          "name": "F#3",
          "ticks": 133730,
          "time": 188.2458703125,
          "velocity": 0.7480314960629921
        },
        {
          "duration": 0.03378374999999778,
          "durationTicks": 24,
          "midi": 54,
          "name": "F#3",
          "ticks": 133822,
          "time": 188.37537468750003,
          "velocity": 0.6456692913385826
        },
        {
          "duration": 0.03378374999999778,
          "durationTicks": 24,
          "midi": 54,
          "name": "F#3",
          "ticks": 133922,
          "time": 188.5161403125,
          "velocity": 0.7086614173228346
        },
        {
          "duration": 0.03378374999999778,
          "durationTicks": 24,
          "midi": 54,
          "name": "F#3",
          "ticks": 134020,
          "time": 188.654090625,
          "velocity": 0.8818897637795275
        },
        {
          "duration": 0.03378374999999778,
          "durationTicks": 24,
          "midi": 54,
          "name": "F#3",
          "ticks": 134114,
          "time": 188.7864103125,
          "velocity": 0.7480314960629921
        },
        {
          "duration": 0.03378374999999778,
          "durationTicks": 24,
          "midi": 54,
          "name": "F#3",
          "ticks": 134212,
          "time": 188.92436062500002,
          "velocity": 0.5748031496062992
        },
        {
          "duration": 0.03378374999999778,
          "durationTicks": 24,
          "midi": 54,
          "name": "F#3",
          "ticks": 134304,
          "time": 189.053865,
          "velocity": 0.6692913385826772
        },
        {
          "duration": 0.03378374999999778,
          "durationTicks": 24,
          "midi": 54,
          "name": "F#3",
          "ticks": 134400,
          "time": 189.18900000000002,
          "velocity": 0.8818897637795275
        },
        {
          "duration": 0.03378374999999778,
          "durationTicks": 24,
          "midi": 54,
          "name": "F#3",
          "ticks": 134500,
          "time": 189.32976562500002,
          "velocity": 0.7480314960629921
        },
        {
          "duration": 0.03378374999999778,
          "durationTicks": 24,
          "midi": 54,
          "name": "F#3",
          "ticks": 134594,
          "time": 189.4620853125,
          "velocity": 0.5984251968503937
        },
        {
          "duration": 0.0337837500000262,
          "durationTicks": 24,
          "midi": 54,
          "name": "F#3",
          "ticks": 134688,
          "time": 189.594405,
          "velocity": 0.6692913385826772
        },
        {
          "duration": 0.03378374999999778,
          "durationTicks": 24,
          "midi": 54,
          "name": "F#3",
          "ticks": 134786,
          "time": 189.7323553125,
          "velocity": 0.8976377952755905
        },
        {
          "duration": 0.03378374999999778,
          "durationTicks": 24,
          "midi": 54,
          "name": "F#3",
          "ticks": 134878,
          "time": 189.86185968750002,
          "velocity": 0.7480314960629921
        },
        {
          "duration": 0.03378374999999778,
          "durationTicks": 24,
          "midi": 54,
          "name": "F#3",
          "ticks": 134978,
          "time": 190.0026253125,
          "velocity": 0.5826771653543307
        },
        {
          "duration": 0.03378374999999778,
          "durationTicks": 24,
          "midi": 54,
          "name": "F#3",
          "ticks": 135076,
          "time": 190.14057562500003,
          "velocity": 0.7480314960629921
        },
        {
          "duration": 0.03378374999999778,
          "durationTicks": 24,
          "midi": 54,
          "name": "F#3",
          "ticks": 135170,
          "time": 190.2728953125,
          "velocity": 0.8976377952755905
        },
        {
          "duration": 0.03378374999999778,
          "durationTicks": 24,
          "midi": 54,
          "name": "F#3",
          "ticks": 135268,
          "time": 190.410845625,
          "velocity": 0.7480314960629921
        },
        {
          "duration": 0.03378374999999778,
          "durationTicks": 24,
          "midi": 54,
          "name": "F#3",
          "ticks": 135360,
          "time": 190.54035000000002,
          "velocity": 0.6456692913385826
        },
        {
          "duration": 0.03378374999999778,
          "durationTicks": 24,
          "midi": 54,
          "name": "F#3",
          "ticks": 135456,
          "time": 190.675485,
          "velocity": 0.7086614173228346
        },
        {
          "duration": 0.03378374999999778,
          "durationTicks": 24,
          "midi": 54,
          "name": "F#3",
          "ticks": 135556,
          "time": 190.816250625,
          "velocity": 0.8818897637795275
        },
        {
          "duration": 0.03378374999999778,
          "durationTicks": 24,
          "midi": 54,
          "name": "F#3",
          "ticks": 135650,
          "time": 190.9485703125,
          "velocity": 0.7480314960629921
        },
        {
          "duration": 0.03378374999999778,
          "durationTicks": 24,
          "midi": 54,
          "name": "F#3",
          "ticks": 135744,
          "time": 191.08089,
          "velocity": 0.5748031496062992
        },
        {
          "duration": 0.03378374999999778,
          "durationTicks": 24,
          "midi": 54,
          "name": "F#3",
          "ticks": 135842,
          "time": 191.2188403125,
          "velocity": 0.6692913385826772
        },
        {
          "duration": 0.03378374999999778,
          "durationTicks": 24,
          "midi": 54,
          "name": "F#3",
          "ticks": 135934,
          "time": 191.34834468750003,
          "velocity": 0.8818897637795275
        },
        {
          "duration": 0.03378374999999778,
          "durationTicks": 24,
          "midi": 54,
          "name": "F#3",
          "ticks": 136034,
          "time": 191.4891103125,
          "velocity": 0.7480314960629921
        },
        {
          "duration": 0.03378374999999778,
          "durationTicks": 24,
          "midi": 54,
          "name": "F#3",
          "ticks": 136132,
          "time": 191.627060625,
          "velocity": 0.5984251968503937
        },
        {
          "duration": 0.03378374999999778,
          "durationTicks": 24,
          "midi": 54,
          "name": "F#3",
          "ticks": 136226,
          "time": 191.75938031249999,
          "velocity": 0.6692913385826772
        },
        {
          "duration": 0.03378374999999778,
          "durationTicks": 24,
          "midi": 54,
          "name": "F#3",
          "ticks": 136324,
          "time": 191.89733062500002,
          "velocity": 0.8976377952755905
        },
        {
          "duration": 0.03378374999999778,
          "durationTicks": 24,
          "midi": 54,
          "name": "F#3",
          "ticks": 136416,
          "time": 192.026835,
          "velocity": 0.7480314960629921
        },
        {
          "duration": 0.03378374999999778,
          "durationTicks": 24,
          "midi": 54,
          "name": "F#3",
          "ticks": 136512,
          "time": 192.16197,
          "velocity": 0.5826771653543307
        },
        {
          "duration": 0.03378374999999778,
          "durationTicks": 24,
          "midi": 54,
          "name": "F#3",
          "ticks": 136612,
          "time": 192.30273562500003,
          "velocity": 0.7480314960629921
        },
        {
          "duration": 0.03378374999999778,
          "durationTicks": 24,
          "midi": 54,
          "name": "F#3",
          "ticks": 136706,
          "time": 192.4350553125,
          "velocity": 0.8976377952755905
        },
        {
          "duration": 0.03378374999999778,
          "durationTicks": 24,
          "midi": 54,
          "name": "F#3",
          "ticks": 136800,
          "time": 192.567375,
          "velocity": 0.7480314960629921
        },
        {
          "duration": 0.03378374999999778,
          "durationTicks": 24,
          "midi": 54,
          "name": "F#3",
          "ticks": 136898,
          "time": 192.7053253125,
          "velocity": 0.6456692913385826
        },
        {
          "duration": 0.03378374999999778,
          "durationTicks": 24,
          "midi": 54,
          "name": "F#3",
          "ticks": 136990,
          "time": 192.83482968750002,
          "velocity": 0.7086614173228346
        },
        {
          "duration": 0.03378374999999778,
          "durationTicks": 24,
          "midi": 54,
          "name": "F#3",
          "ticks": 137090,
          "time": 192.9755953125,
          "velocity": 0.8818897637795275
        },
        {
          "duration": 0.03378374999999778,
          "durationTicks": 24,
          "midi": 54,
          "name": "F#3",
          "ticks": 137188,
          "time": 193.11354562500003,
          "velocity": 0.7480314960629921
        },
        {
          "duration": 0.03378374999999778,
          "durationTicks": 24,
          "midi": 54,
          "name": "F#3",
          "ticks": 137282,
          "time": 193.2458653125,
          "velocity": 0.5748031496062992
        },
        {
          "duration": 0.03378374999999778,
          "durationTicks": 24,
          "midi": 54,
          "name": "F#3",
          "ticks": 137380,
          "time": 193.383815625,
          "velocity": 0.6692913385826772
        },
        {
          "duration": 0.03378374999999778,
          "durationTicks": 24,
          "midi": 54,
          "name": "F#3",
          "ticks": 137472,
          "time": 193.51332000000002,
          "velocity": 0.8818897637795275
        },
        {
          "duration": 0.03378374999999778,
          "durationTicks": 24,
          "midi": 54,
          "name": "F#3",
          "ticks": 137568,
          "time": 193.648455,
          "velocity": 0.7480314960629921
        },
        {
          "duration": 0.03378374999999778,
          "durationTicks": 24,
          "midi": 54,
          "name": "F#3",
          "ticks": 137668,
          "time": 193.789220625,
          "velocity": 0.5984251968503937
        },
        {
          "duration": 0.03378374999999778,
          "durationTicks": 24,
          "midi": 54,
          "name": "F#3",
          "ticks": 137762,
          "time": 193.92154031249999,
          "velocity": 0.6692913385826772
        },
        {
          "duration": 0.03378374999999778,
          "durationTicks": 24,
          "midi": 54,
          "name": "F#3",
          "ticks": 137856,
          "time": 194.05386000000001,
          "velocity": 0.8976377952755905
        },
        {
          "duration": 0.03378374999999778,
          "durationTicks": 24,
          "midi": 54,
          "name": "F#3",
          "ticks": 137954,
          "time": 194.1918103125,
          "velocity": 0.7480314960629921
        },
        {
          "duration": 0.03378374999999778,
          "durationTicks": 24,
          "midi": 54,
          "name": "F#3",
          "ticks": 138046,
          "time": 194.3213146875,
          "velocity": 0.5826771653543307
        },
        {
          "duration": 0.03378374999999778,
          "durationTicks": 24,
          "midi": 54,
          "name": "F#3",
          "ticks": 138146,
          "time": 194.4620803125,
          "velocity": 0.7480314960629921
        },
        {
          "duration": 0.03378374999999778,
          "durationTicks": 24,
          "midi": 54,
          "name": "F#3",
          "ticks": 138244,
          "time": 194.60003062500002,
          "velocity": 0.8976377952755905
        },
        {
          "duration": 0.03378374999999778,
          "durationTicks": 24,
          "midi": 54,
          "name": "F#3",
          "ticks": 138338,
          "time": 194.7323503125,
          "velocity": 0.7480314960629921
        },
        {
          "duration": 0.03378374999999778,
          "durationTicks": 24,
          "midi": 54,
          "name": "F#3",
          "ticks": 138436,
          "time": 194.87030062500003,
          "velocity": 0.6456692913385826
        },
        {
          "duration": 0.03378374999999778,
          "durationTicks": 24,
          "midi": 54,
          "name": "F#3",
          "ticks": 138528,
          "time": 194.999805,
          "velocity": 0.7086614173228346
        },
        {
          "duration": 0.03378374999999778,
          "durationTicks": 24,
          "midi": 54,
          "name": "F#3",
          "ticks": 138624,
          "time": 195.13494,
          "velocity": 0.8818897637795275
        },
        {
          "duration": 0.03378374999999778,
          "durationTicks": 24,
          "midi": 54,
          "name": "F#3",
          "ticks": 138724,
          "time": 195.27570562500003,
          "velocity": 0.7480314960629921
        },
        {
          "duration": 0.03378374999999778,
          "durationTicks": 24,
          "midi": 54,
          "name": "F#3",
          "ticks": 138818,
          "time": 195.4080253125,
          "velocity": 0.5748031496062992
        },
        {
          "duration": 0.03378374999999778,
          "durationTicks": 24,
          "midi": 54,
          "name": "F#3",
          "ticks": 138912,
          "time": 195.540345,
          "velocity": 0.6692913385826772
        },
        {
          "duration": 0.0337837500000262,
          "durationTicks": 24,
          "midi": 54,
          "name": "F#3",
          "ticks": 139010,
          "time": 195.67829531249998,
          "velocity": 0.8818897637795275
        },
        {
          "duration": 0.03378374999999778,
          "durationTicks": 24,
          "midi": 54,
          "name": "F#3",
          "ticks": 139102,
          "time": 195.80779968750002,
          "velocity": 0.7480314960629921
        },
        {
          "duration": 0.03378374999999778,
          "durationTicks": 24,
          "midi": 54,
          "name": "F#3",
          "ticks": 139202,
          "time": 195.9485653125,
          "velocity": 0.5984251968503937
        },
        {
          "duration": 0.0337837500000262,
          "durationTicks": 24,
          "midi": 54,
          "name": "F#3",
          "ticks": 139300,
          "time": 196.086515625,
          "velocity": 0.6692913385826772
        },
        {
          "duration": 0.03378374999999778,
          "durationTicks": 24,
          "midi": 54,
          "name": "F#3",
          "ticks": 139394,
          "time": 196.2188353125,
          "velocity": 0.8976377952755905
        },
        {
          "duration": 0.03378374999999778,
          "durationTicks": 24,
          "midi": 54,
          "name": "F#3",
          "ticks": 139492,
          "time": 196.35678562500001,
          "velocity": 0.7480314960629921
        },
        {
          "duration": 0.03378374999999778,
          "durationTicks": 24,
          "midi": 54,
          "name": "F#3",
          "ticks": 139584,
          "time": 196.48629,
          "velocity": 0.5826771653543307
        },
        {
          "duration": 0.03378374999999778,
          "durationTicks": 24,
          "midi": 54,
          "name": "F#3",
          "ticks": 139680,
          "time": 196.62142500000002,
          "velocity": 0.7480314960629921
        },
        {
          "duration": 0.03378374999999778,
          "durationTicks": 24,
          "midi": 54,
          "name": "F#3",
          "ticks": 139780,
          "time": 196.76219062500002,
          "velocity": 0.8976377952755905
        },
        {
          "duration": 0.03378374999999778,
          "durationTicks": 24,
          "midi": 54,
          "name": "F#3",
          "ticks": 139874,
          "time": 196.8945103125,
          "velocity": 0.7480314960629921
        },
        {
          "duration": 0.03378374999999778,
          "durationTicks": 24,
          "midi": 54,
          "name": "F#3",
          "ticks": 139968,
          "time": 197.02683000000002,
          "velocity": 0.6456692913385826
        },
        {
          "duration": 0.03378374999999778,
          "durationTicks": 24,
          "midi": 54,
          "name": "F#3",
          "ticks": 140066,
          "time": 197.1647803125,
          "velocity": 0.7086614173228346
        },
        {
          "duration": 0.03378374999999778,
          "durationTicks": 24,
          "midi": 54,
          "name": "F#3",
          "ticks": 140158,
          "time": 197.2942846875,
          "velocity": 0.8818897637795275
        },
        {
          "duration": 0.03378374999999778,
          "durationTicks": 24,
          "midi": 54,
          "name": "F#3",
          "ticks": 140258,
          "time": 197.4350503125,
          "velocity": 0.7480314960629921
        },
        {
          "duration": 0.03378374999999778,
          "durationTicks": 24,
          "midi": 54,
          "name": "F#3",
          "ticks": 140356,
          "time": 197.57300062500002,
          "velocity": 0.5748031496062992
        },
        {
          "duration": 0.03378374999999778,
          "durationTicks": 24,
          "midi": 54,
          "name": "F#3",
          "ticks": 140450,
          "time": 197.7053203125,
          "velocity": 0.6692913385826772
        },
        {
          "duration": 0.03378374999999778,
          "durationTicks": 24,
          "midi": 54,
          "name": "F#3",
          "ticks": 140548,
          "time": 197.84327062500003,
          "velocity": 0.8818897637795275
        },
        {
          "duration": 0.03378374999999778,
          "durationTicks": 24,
          "midi": 54,
          "name": "F#3",
          "ticks": 140640,
          "time": 197.972775,
          "velocity": 0.7480314960629921
        },
        {
          "duration": 0.03378374999999778,
          "durationTicks": 24,
          "midi": 54,
          "name": "F#3",
          "ticks": 140736,
          "time": 198.10791,
          "velocity": 0.5984251968503937
        },
        {
          "duration": 0.0337837500000262,
          "durationTicks": 24,
          "midi": 54,
          "name": "F#3",
          "ticks": 140836,
          "time": 198.248675625,
          "velocity": 0.6692913385826772
        },
        {
          "duration": 0.03378374999999778,
          "durationTicks": 24,
          "midi": 54,
          "name": "F#3",
          "ticks": 140930,
          "time": 198.3809953125,
          "velocity": 0.8976377952755905
        },
        {
          "duration": 0.03378374999999778,
          "durationTicks": 24,
          "midi": 54,
          "name": "F#3",
          "ticks": 141024,
          "time": 198.513315,
          "velocity": 0.7480314960629921
        },
        {
          "duration": 0.03378374999999778,
          "durationTicks": 24,
          "midi": 54,
          "name": "F#3",
          "ticks": 141122,
          "time": 198.6512653125,
          "velocity": 0.5826771653543307
        },
        {
          "duration": 0.03378374999999778,
          "durationTicks": 24,
          "midi": 54,
          "name": "F#3",
          "ticks": 141214,
          "time": 198.78076968750003,
          "velocity": 0.7480314960629921
        },
        {
          "duration": 0.03378374999999778,
          "durationTicks": 24,
          "midi": 54,
          "name": "F#3",
          "ticks": 141314,
          "time": 198.9215353125,
          "velocity": 0.8976377952755905
        },
        {
          "duration": 0.03378374999999778,
          "durationTicks": 24,
          "midi": 54,
          "name": "F#3",
          "ticks": 141412,
          "time": 199.059485625,
          "velocity": 0.7480314960629921
        },
        {
          "duration": 0.03378374999999778,
          "durationTicks": 24,
          "midi": 54,
          "name": "F#3",
          "ticks": 141506,
          "time": 199.1918053125,
          "velocity": 0.6456692913385826
        },
        {
          "duration": 0.03378374999999778,
          "durationTicks": 24,
          "midi": 54,
          "name": "F#3",
          "ticks": 141604,
          "time": 199.32975562500002,
          "velocity": 0.7086614173228346
        },
        {
          "duration": 0.03378374999999778,
          "durationTicks": 24,
          "midi": 54,
          "name": "F#3",
          "ticks": 141696,
          "time": 199.45926,
          "velocity": 0.8818897637795275
        },
        {
          "duration": 0.03378374999999778,
          "durationTicks": 24,
          "midi": 54,
          "name": "F#3",
          "ticks": 141792,
          "time": 199.59439500000002,
          "velocity": 0.7480314960629921
        },
        {
          "duration": 0.03378374999999778,
          "durationTicks": 24,
          "midi": 54,
          "name": "F#3",
          "ticks": 141892,
          "time": 199.73516062500002,
          "velocity": 0.5748031496062992
        },
        {
          "duration": 0.03378374999999778,
          "durationTicks": 24,
          "midi": 54,
          "name": "F#3",
          "ticks": 141986,
          "time": 199.8674803125,
          "velocity": 0.6692913385826772
        },
        {
          "duration": 0.0337837500000262,
          "durationTicks": 24,
          "midi": 54,
          "name": "F#3",
          "ticks": 142080,
          "time": 199.9998,
          "velocity": 0.8818897637795275
        },
        {
          "duration": 0.03378374999999778,
          "durationTicks": 24,
          "midi": 54,
          "name": "F#3",
          "ticks": 142178,
          "time": 200.1377503125,
          "velocity": 0.7480314960629921
        },
        {
          "duration": 0.03378374999999778,
          "durationTicks": 24,
          "midi": 54,
          "name": "F#3",
          "ticks": 142270,
          "time": 200.2672546875,
          "velocity": 0.5984251968503937
        },
        {
          "duration": 0.03378374999999778,
          "durationTicks": 24,
          "midi": 54,
          "name": "F#3",
          "ticks": 142370,
          "time": 200.40802031249999,
          "velocity": 0.6692913385826772
        },
        {
          "duration": 0.03378374999999778,
          "durationTicks": 24,
          "midi": 54,
          "name": "F#3",
          "ticks": 142468,
          "time": 200.54597062500002,
          "velocity": 0.8976377952755905
        },
        {
          "duration": 0.03378374999999778,
          "durationTicks": 24,
          "midi": 54,
          "name": "F#3",
          "ticks": 142562,
          "time": 200.6782903125,
          "velocity": 0.7480314960629921
        },
        {
          "duration": 0.03378374999999778,
          "durationTicks": 24,
          "midi": 54,
          "name": "F#3",
          "ticks": 142660,
          "time": 200.816240625,
          "velocity": 0.5826771653543307
        },
        {
          "duration": 0.03378374999999778,
          "durationTicks": 24,
          "midi": 54,
          "name": "F#3",
          "ticks": 142752,
          "time": 200.94574500000002,
          "velocity": 0.7480314960629921
        },
        {
          "duration": 0.03378374999999778,
          "durationTicks": 24,
          "midi": 54,
          "name": "F#3",
          "ticks": 142848,
          "time": 201.08088,
          "velocity": 0.8976377952755905
        },
        {
          "duration": 0.03378374999999778,
          "durationTicks": 24,
          "midi": 54,
          "name": "F#3",
          "ticks": 142948,
          "time": 201.221645625,
          "velocity": 0.7480314960629921
        },
        {
          "duration": 0.03378374999999778,
          "durationTicks": 24,
          "midi": 54,
          "name": "F#3",
          "ticks": 143042,
          "time": 201.3539653125,
          "velocity": 0.6456692913385826
        },
        {
          "duration": 0.03378374999999778,
          "durationTicks": 24,
          "midi": 54,
          "name": "F#3",
          "ticks": 143136,
          "time": 201.486285,
          "velocity": 0.7086614173228346
        },
        {
          "duration": 0.03378374999999778,
          "durationTicks": 24,
          "midi": 54,
          "name": "F#3",
          "ticks": 143234,
          "time": 201.6242353125,
          "velocity": 0.8818897637795275
        },
        {
          "duration": 0.03378374999999778,
          "durationTicks": 24,
          "midi": 54,
          "name": "F#3",
          "ticks": 143326,
          "time": 201.75373968750003,
          "velocity": 0.7480314960629921
        },
        {
          "duration": 0.03378374999999778,
          "durationTicks": 24,
          "midi": 54,
          "name": "F#3",
          "ticks": 143426,
          "time": 201.8945053125,
          "velocity": 0.5748031496062992
        },
        {
          "duration": 0.03378374999999778,
          "durationTicks": 24,
          "midi": 54,
          "name": "F#3",
          "ticks": 143524,
          "time": 202.032455625,
          "velocity": 0.6692913385826772
        },
        {
          "duration": 0.0337837500000262,
          "durationTicks": 24,
          "midi": 54,
          "name": "F#3",
          "ticks": 143618,
          "time": 202.16477531249998,
          "velocity": 0.8818897637795275
        },
        {
          "duration": 0.03378374999999778,
          "durationTicks": 24,
          "midi": 54,
          "name": "F#3",
          "ticks": 143716,
          "time": 202.30272562500002,
          "velocity": 0.7480314960629921
        },
        {
          "duration": 0.03378374999999778,
          "durationTicks": 24,
          "midi": 54,
          "name": "F#3",
          "ticks": 143808,
          "time": 202.43223,
          "velocity": 0.5984251968503937
        },
        {
          "duration": 0.0337837500000262,
          "durationTicks": 24,
          "midi": 54,
          "name": "F#3",
          "ticks": 143904,
          "time": 202.567365,
          "velocity": 0.6692913385826772
        },
        {
          "duration": 0.03378374999999778,
          "durationTicks": 24,
          "midi": 54,
          "name": "F#3",
          "ticks": 144004,
          "time": 202.70813062500002,
          "velocity": 0.8976377952755905
        },
        {
          "duration": 0.03378374999999778,
          "durationTicks": 24,
          "midi": 54,
          "name": "F#3",
          "ticks": 144098,
          "time": 202.8404503125,
          "velocity": 0.7480314960629921
        },
        {
          "duration": 0.03378374999999778,
          "durationTicks": 24,
          "midi": 54,
          "name": "F#3",
          "ticks": 144192,
          "time": 202.97277,
          "velocity": 0.5826771653543307
        },
        {
          "duration": 0.03378374999999778,
          "durationTicks": 24,
          "midi": 54,
          "name": "F#3",
          "ticks": 144290,
          "time": 203.1107203125,
          "velocity": 0.7480314960629921
        },
        {
          "duration": 0.03378374999999778,
          "durationTicks": 24,
          "midi": 54,
          "name": "F#3",
          "ticks": 144382,
          "time": 203.24022468750002,
          "velocity": 0.8976377952755905
        },
        {
          "duration": 0.03378374999999778,
          "durationTicks": 24,
          "midi": 54,
          "name": "F#3",
          "ticks": 144482,
          "time": 203.3809903125,
          "velocity": 0.7480314960629921
        },
        {
          "duration": 0.03378374999999778,
          "durationTicks": 24,
          "midi": 54,
          "name": "F#3",
          "ticks": 144580,
          "time": 203.51894062500003,
          "velocity": 0.6456692913385826
        },
        {
          "duration": 0.03378374999999778,
          "durationTicks": 24,
          "midi": 54,
          "name": "F#3",
          "ticks": 144674,
          "time": 203.6512603125,
          "velocity": 0.7086614173228346
        },
        {
          "duration": 0.03378374999999778,
          "durationTicks": 24,
          "midi": 54,
          "name": "F#3",
          "ticks": 144772,
          "time": 203.789210625,
          "velocity": 0.8818897637795275
        },
        {
          "duration": 0.03378374999999778,
          "durationTicks": 24,
          "midi": 54,
          "name": "F#3",
          "ticks": 144864,
          "time": 203.91871500000002,
          "velocity": 0.7480314960629921
        },
        {
          "duration": 0.03378374999999778,
          "durationTicks": 24,
          "midi": 54,
          "name": "F#3",
          "ticks": 144960,
          "time": 204.05385,
          "velocity": 0.5748031496062992
        },
        {
          "duration": 0.03378374999999778,
          "durationTicks": 24,
          "midi": 54,
          "name": "F#3",
          "ticks": 145060,
          "time": 204.194615625,
          "velocity": 0.6692913385826772
        },
        {
          "duration": 0.0337837500000262,
          "durationTicks": 24,
          "midi": 54,
          "name": "F#3",
          "ticks": 145154,
          "time": 204.32693531249998,
          "velocity": 0.8818897637795275
        },
        {
          "duration": 0.03378374999999778,
          "durationTicks": 24,
          "midi": 54,
          "name": "F#3",
          "ticks": 145248,
          "time": 204.459255,
          "velocity": 0.7480314960629921
        },
        {
          "duration": 0.03378374999999778,
          "durationTicks": 24,
          "midi": 54,
          "name": "F#3",
          "ticks": 145346,
          "time": 204.5972053125,
          "velocity": 0.5984251968503937
        },
        {
          "duration": 0.0337837500000262,
          "durationTicks": 24,
          "midi": 54,
          "name": "F#3",
          "ticks": 145438,
          "time": 204.7267096875,
          "velocity": 0.6692913385826772
        },
        {
          "duration": 0.03378374999999778,
          "durationTicks": 24,
          "midi": 54,
          "name": "F#3",
          "ticks": 145538,
          "time": 204.8674753125,
          "velocity": 0.8976377952755905
        },
        {
          "duration": 0.03378374999999778,
          "durationTicks": 24,
          "midi": 54,
          "name": "F#3",
          "ticks": 145636,
          "time": 205.00542562500002,
          "velocity": 0.7480314960629921
        },
        {
          "duration": 0.03378374999999778,
          "durationTicks": 24,
          "midi": 54,
          "name": "F#3",
          "ticks": 145730,
          "time": 205.1377453125,
          "velocity": 0.5826771653543307
        },
        {
          "duration": 0.03378374999999778,
          "durationTicks": 24,
          "midi": 54,
          "name": "F#3",
          "ticks": 145828,
          "time": 205.27569562500003,
          "velocity": 0.7480314960629921
        },
        {
          "duration": 0.03378374999999778,
          "durationTicks": 24,
          "midi": 54,
          "name": "F#3",
          "ticks": 145920,
          "time": 205.4052,
          "velocity": 0.8976377952755905
        },
        {
          "duration": 0.03378374999999778,
          "durationTicks": 24,
          "midi": 54,
          "name": "F#3",
          "ticks": 146016,
          "time": 205.540335,
          "velocity": 0.7480314960629921
        },
        {
          "duration": 0.03378374999999778,
          "durationTicks": 24,
          "midi": 54,
          "name": "F#3",
          "ticks": 146116,
          "time": 205.68110062500003,
          "velocity": 0.6456692913385826
        },
        {
          "duration": 0.03378374999999778,
          "durationTicks": 24,
          "midi": 54,
          "name": "F#3",
          "ticks": 146210,
          "time": 205.8134203125,
          "velocity": 0.7086614173228346
        },
        {
          "duration": 0.03378374999999778,
          "durationTicks": 24,
          "midi": 54,
          "name": "F#3",
          "ticks": 146304,
          "time": 205.94574,
          "velocity": 0.8818897637795275
        },
        {
          "duration": 0.03378374999999778,
          "durationTicks": 24,
          "midi": 54,
          "name": "F#3",
          "ticks": 146402,
          "time": 206.0836903125,
          "velocity": 0.7480314960629921
        },
        {
          "duration": 0.03378374999999778,
          "durationTicks": 24,
          "midi": 54,
          "name": "F#3",
          "ticks": 146494,
          "time": 206.21319468750002,
          "velocity": 0.5748031496062992
        },
        {
          "duration": 0.03378374999999778,
          "durationTicks": 24,
          "midi": 54,
          "name": "F#3",
          "ticks": 146594,
          "time": 206.3539603125,
          "velocity": 0.6692913385826772
        },
        {
          "duration": 0.03378374999999778,
          "durationTicks": 24,
          "midi": 54,
          "name": "F#3",
          "ticks": 146692,
          "time": 206.49191062500003,
          "velocity": 0.8818897637795275
        },
        {
          "duration": 0.03378374999999778,
          "durationTicks": 24,
          "midi": 54,
          "name": "F#3",
          "ticks": 146786,
          "time": 206.6242303125,
          "velocity": 0.7480314960629921
        },
        {
          "duration": 0.03378374999999778,
          "durationTicks": 24,
          "midi": 54,
          "name": "F#3",
          "ticks": 146884,
          "time": 206.762180625,
          "velocity": 0.5984251968503937
        },
        {
          "duration": 0.0337837500000262,
          "durationTicks": 24,
          "midi": 54,
          "name": "F#3",
          "ticks": 146976,
          "time": 206.891685,
          "velocity": 0.6692913385826772
        },
        {
          "duration": 0.03378374999999778,
          "durationTicks": 24,
          "midi": 54,
          "name": "F#3",
          "ticks": 147072,
          "time": 207.02682000000001,
          "velocity": 0.8976377952755905
        },
        {
          "duration": 0.03378374999999778,
          "durationTicks": 24,
          "midi": 54,
          "name": "F#3",
          "ticks": 147172,
          "time": 207.16758562500002,
          "velocity": 0.7480314960629921
        },
        {
          "duration": 0.03378374999999778,
          "durationTicks": 24,
          "midi": 54,
          "name": "F#3",
          "ticks": 147266,
          "time": 207.2999053125,
          "velocity": 0.5826771653543307
        },
        {
          "duration": 0.03378374999999778,
          "durationTicks": 24,
          "midi": 54,
          "name": "F#3",
          "ticks": 147360,
          "time": 207.43222500000002,
          "velocity": 0.7480314960629921
        },
        {
          "duration": 0.03378374999999778,
          "durationTicks": 24,
          "midi": 54,
          "name": "F#3",
          "ticks": 147458,
          "time": 207.5701753125,
          "velocity": 0.8976377952755905
        },
        {
          "duration": 0.03378374999999778,
          "durationTicks": 24,
          "midi": 54,
          "name": "F#3",
          "ticks": 147550,
          "time": 207.6996796875,
          "velocity": 0.7480314960629921
        },
        {
          "duration": 0.03378374999999778,
          "durationTicks": 24,
          "midi": 54,
          "name": "F#3",
          "ticks": 147650,
          "time": 207.8404453125,
          "velocity": 0.6456692913385826
        },
        {
          "duration": 0.03378374999999778,
          "durationTicks": 24,
          "midi": 54,
          "name": "F#3",
          "ticks": 147748,
          "time": 207.97839562500002,
          "velocity": 0.7086614173228346
        },
        {
          "duration": 0.03378374999999778,
          "durationTicks": 24,
          "midi": 54,
          "name": "F#3",
          "ticks": 147842,
          "time": 208.1107153125,
          "velocity": 0.8818897637795275
        },
        {
          "duration": 0.03378374999999778,
          "durationTicks": 24,
          "midi": 54,
          "name": "F#3",
          "ticks": 147940,
          "time": 208.24866562500003,
          "velocity": 0.7480314960629921
        },
        {
          "duration": 0.03378374999999778,
          "durationTicks": 24,
          "midi": 54,
          "name": "F#3",
          "ticks": 148032,
          "time": 208.37817,
          "velocity": 0.5748031496062992
        },
        {
          "duration": 0.03378374999999778,
          "durationTicks": 24,
          "midi": 54,
          "name": "F#3",
          "ticks": 148128,
          "time": 208.513305,
          "velocity": 0.6692913385826772
        },
        {
          "duration": 0.03378374999999778,
          "durationTicks": 24,
          "midi": 54,
          "name": "F#3",
          "ticks": 148228,
          "time": 208.65407062500003,
          "velocity": 0.8818897637795275
        },
        {
          "duration": 0.03378374999999778,
          "durationTicks": 24,
          "midi": 54,
          "name": "F#3",
          "ticks": 148322,
          "time": 208.7863903125,
          "velocity": 0.7480314960629921
        },
        {
          "duration": 0.03378374999999778,
          "durationTicks": 24,
          "midi": 54,
          "name": "F#3",
          "ticks": 148416,
          "time": 208.91871,
          "velocity": 0.5984251968503937
        },
        {
          "duration": 0.03378374999999778,
          "durationTicks": 24,
          "midi": 54,
          "name": "F#3",
          "ticks": 148514,
          "time": 209.0566603125,
          "velocity": 0.6692913385826772
        },
        {
          "duration": 0.03378374999999778,
          "durationTicks": 24,
          "midi": 54,
          "name": "F#3",
          "ticks": 148606,
          "time": 209.18616468750002,
          "velocity": 0.8976377952755905
        },
        {
          "duration": 0.03378374999999778,
          "durationTicks": 24,
          "midi": 54,
          "name": "F#3",
          "ticks": 148706,
          "time": 209.3269303125,
          "velocity": 0.7480314960629921
        },
        {
          "duration": 0.03378374999999778,
          "durationTicks": 24,
          "midi": 54,
          "name": "F#3",
          "ticks": 148804,
          "time": 209.464880625,
          "velocity": 0.5826771653543307
        },
        {
          "duration": 0.03378374999999778,
          "durationTicks": 24,
          "midi": 54,
          "name": "F#3",
          "ticks": 148898,
          "time": 209.5972003125,
          "velocity": 0.7480314960629921
        },
        {
          "duration": 0.03378374999999778,
          "durationTicks": 24,
          "midi": 54,
          "name": "F#3",
          "ticks": 148996,
          "time": 209.73515062500002,
          "velocity": 0.8976377952755905
        },
        {
          "duration": 0.03378374999999778,
          "durationTicks": 24,
          "midi": 54,
          "name": "F#3",
          "ticks": 149088,
          "time": 209.864655,
          "velocity": 0.7480314960629921
        },
        {
          "duration": 0.03378374999999778,
          "durationTicks": 24,
          "midi": 54,
          "name": "F#3",
          "ticks": 149184,
          "time": 209.99979000000002,
          "velocity": 0.6456692913385826
        },
        {
          "duration": 0.03378374999999778,
          "durationTicks": 24,
          "midi": 54,
          "name": "F#3",
          "ticks": 149284,
          "time": 210.14055562500002,
          "velocity": 0.7086614173228346
        },
        {
          "duration": 0.03378374999999778,
          "durationTicks": 24,
          "midi": 54,
          "name": "F#3",
          "ticks": 149378,
          "time": 210.2728753125,
          "velocity": 0.8818897637795275
        },
        {
          "duration": 0.03378374999999778,
          "durationTicks": 24,
          "midi": 54,
          "name": "F#3",
          "ticks": 149472,
          "time": 210.40519500000002,
          "velocity": 0.7480314960629921
        },
        {
          "duration": 0.03378374999999778,
          "durationTicks": 24,
          "midi": 54,
          "name": "F#3",
          "ticks": 149570,
          "time": 210.5431453125,
          "velocity": 0.5748031496062992
        },
        {
          "duration": 0.03378374999999778,
          "durationTicks": 24,
          "midi": 54,
          "name": "F#3",
          "ticks": 149662,
          "time": 210.6726496875,
          "velocity": 0.6692913385826772
        },
        {
          "duration": 0.0337837500000262,
          "durationTicks": 24,
          "midi": 54,
          "name": "F#3",
          "ticks": 149762,
          "time": 210.81341531249998,
          "velocity": 0.8818897637795275
        },
        {
          "duration": 0.03378374999999778,
          "durationTicks": 24,
          "midi": 54,
          "name": "F#3",
          "ticks": 149860,
          "time": 210.95136562500002,
          "velocity": 0.7480314960629921
        },
        {
          "duration": 0.03378374999999778,
          "durationTicks": 24,
          "midi": 54,
          "name": "F#3",
          "ticks": 149954,
          "time": 211.0836853125,
          "velocity": 0.5984251968503937
        },
        {
          "duration": 0.0337837500000262,
          "durationTicks": 24,
          "midi": 54,
          "name": "F#3",
          "ticks": 150052,
          "time": 211.221635625,
          "velocity": 0.6692913385826772
        },
        {
          "duration": 0.03378374999999778,
          "durationTicks": 24,
          "midi": 54,
          "name": "F#3",
          "ticks": 150144,
          "time": 211.35114000000002,
          "velocity": 0.8976377952755905
        },
        {
          "duration": 0.03378374999999778,
          "durationTicks": 24,
          "midi": 54,
          "name": "F#3",
          "ticks": 150240,
          "time": 211.486275,
          "velocity": 0.7480314960629921
        },
        {
          "duration": 0.03378374999999778,
          "durationTicks": 24,
          "midi": 54,
          "name": "F#3",
          "ticks": 150340,
          "time": 211.627040625,
          "velocity": 0.5826771653543307
        },
        {
          "duration": 0.03378374999999778,
          "durationTicks": 24,
          "midi": 54,
          "name": "F#3",
          "ticks": 150434,
          "time": 211.7593603125,
          "velocity": 0.7480314960629921
        },
        {
          "duration": 0.03378374999999778,
          "durationTicks": 24,
          "midi": 54,
          "name": "F#3",
          "ticks": 150528,
          "time": 211.89168,
          "velocity": 0.8976377952755905
        },
        {
          "duration": 0.03378374999999778,
          "durationTicks": 24,
          "midi": 54,
          "name": "F#3",
          "ticks": 150626,
          "time": 212.0296303125,
          "velocity": 0.7480314960629921
        },
        {
          "duration": 0.03378374999999778,
          "durationTicks": 24,
          "midi": 54,
          "name": "F#3",
          "ticks": 150718,
          "time": 212.15913468750003,
          "velocity": 0.6456692913385826
        },
        {
          "duration": 0.03378374999999778,
          "durationTicks": 24,
          "midi": 54,
          "name": "F#3",
          "ticks": 150818,
          "time": 212.2999003125,
          "velocity": 0.7086614173228346
        },
        {
          "duration": 0.03378374999999778,
          "durationTicks": 24,
          "midi": 54,
          "name": "F#3",
          "ticks": 150916,
          "time": 212.437850625,
          "velocity": 0.8818897637795275
        },
        {
          "duration": 0.03378374999999778,
          "durationTicks": 24,
          "midi": 54,
          "name": "F#3",
          "ticks": 151010,
          "time": 212.5701703125,
          "velocity": 0.7480314960629921
        },
        {
          "duration": 0.03378374999999778,
          "durationTicks": 24,
          "midi": 54,
          "name": "F#3",
          "ticks": 151104,
          "time": 212.70249,
          "velocity": 0.9133858267716536
        }
      ]
    },
    {
      "channel": 9,
      "controlChanges": {},
      "pitchBends": [],
      "instrument": {
        "family": "drums",
        "name": "standard kit",
        "number": 0
      },
      "name": "Shaker   ",
      "notes": [
        {
          "duration": 0.03378375,
          "durationTicks": 24,
          "midi": 82,
          "name": "A#5",
          "ticks": 1728,
          "time": 2.43243,
          "velocity": 0.8582677165354331
        },
        {
          "duration": 0.03378374999999956,
          "durationTicks": 24,
          "midi": 82,
          "name": "A#5",
          "ticks": 2880,
          "time": 4.05405,
          "velocity": 0.7401574803149606
        },
        {
          "duration": 0.03378374999999956,
          "durationTicks": 24,
          "midi": 82,
          "name": "A#5",
          "ticks": 2976,
          "time": 4.189185,
          "velocity": 0.8346456692913385
        },
        {
          "duration": 0.03378374999999956,
          "durationTicks": 24,
          "midi": 82,
          "name": "A#5",
          "ticks": 3072,
          "time": 4.32432,
          "velocity": 0.889763779527559
        },
        {
          "duration": 0.03378374999999956,
          "durationTicks": 24,
          "midi": 82,
          "name": "A#5",
          "ticks": 3264,
          "time": 4.59459,
          "velocity": 0.8031496062992126
        },
        {
          "duration": 0.03378374999999956,
          "durationTicks": 24,
          "midi": 82,
          "name": "A#5",
          "ticks": 4512,
          "time": 6.351345,
          "velocity": 0.8188976377952756
        },
        {
          "duration": 0.03378374999999956,
          "durationTicks": 24,
          "midi": 82,
          "name": "A#5",
          "ticks": 4800,
          "time": 6.75675,
          "velocity": 0.8582677165354331
        },
        {
          "duration": 0.03378374999999956,
          "durationTicks": 24,
          "midi": 82,
          "name": "A#5",
          "ticks": 5952,
          "time": 8.37837,
          "velocity": 0.7401574803149606
        },
        {
          "duration": 0.03378374999999956,
          "durationTicks": 24,
          "midi": 82,
          "name": "A#5",
          "ticks": 6048,
          "time": 8.513505,
          "velocity": 0.8346456692913385
        },
        {
          "duration": 0.03378374999999956,
          "durationTicks": 24,
          "midi": 82,
          "name": "A#5",
          "ticks": 6144,
          "time": 8.64864,
          "velocity": 0.889763779527559
        },
        {
          "duration": 0.03378374999999956,
          "durationTicks": 24,
          "midi": 82,
          "name": "A#5",
          "ticks": 6336,
          "time": 8.91891,
          "velocity": 0.8031496062992126
        },
        {
          "duration": 0.03378374999999956,
          "durationTicks": 24,
          "midi": 82,
          "name": "A#5",
          "ticks": 7584,
          "time": 10.675665,
          "velocity": 0.8188976377952756
        },
        {
          "duration": 0.03378374999999956,
          "durationTicks": 24,
          "midi": 82,
          "name": "A#5",
          "ticks": 7872,
          "time": 11.08107,
          "velocity": 0.8582677165354331
        },
        {
          "duration": 0.03378374999999956,
          "durationTicks": 24,
          "midi": 82,
          "name": "A#5",
          "ticks": 9024,
          "time": 12.70269,
          "velocity": 0.7401574803149606
        },
        {
          "duration": 0.03378374999999956,
          "durationTicks": 24,
          "midi": 82,
          "name": "A#5",
          "ticks": 9120,
          "time": 12.837825,
          "velocity": 0.8346456692913385
        },
        {
          "duration": 0.03378374999999956,
          "durationTicks": 24,
          "midi": 82,
          "name": "A#5",
          "ticks": 9216,
          "time": 12.97296,
          "velocity": 0.889763779527559
        },
        {
          "duration": 0.03378374999999956,
          "durationTicks": 24,
          "midi": 82,
          "name": "A#5",
          "ticks": 9408,
          "time": 13.24323,
          "velocity": 0.8031496062992126
        },
        {
          "duration": 0.03378374999999956,
          "durationTicks": 24,
          "midi": 82,
          "name": "A#5",
          "ticks": 10656,
          "time": 14.999985,
          "velocity": 0.8188976377952756
        },
        {
          "duration": 0.03378374999999956,
          "durationTicks": 24,
          "midi": 82,
          "name": "A#5",
          "ticks": 10944,
          "time": 15.40539,
          "velocity": 0.8582677165354331
        },
        {
          "duration": 0.033783750000001334,
          "durationTicks": 24,
          "midi": 82,
          "name": "A#5",
          "ticks": 12096,
          "time": 17.02701,
          "velocity": 0.7401574803149606
        },
        {
          "duration": 0.03378374999999778,
          "durationTicks": 24,
          "midi": 82,
          "name": "A#5",
          "ticks": 12192,
          "time": 17.162145000000002,
          "velocity": 0.8346456692913385
        },
        {
          "duration": 0.033783750000001334,
          "durationTicks": 24,
          "midi": 82,
          "name": "A#5",
          "ticks": 12288,
          "time": 17.29728,
          "velocity": 0.889763779527559
        },
        {
          "duration": 0.033783750000001334,
          "durationTicks": 24,
          "midi": 82,
          "name": "A#5",
          "ticks": 12480,
          "time": 17.56755,
          "velocity": 0.8031496062992126
        },
        {
          "duration": 0.03378374999999778,
          "durationTicks": 24,
          "midi": 82,
          "name": "A#5",
          "ticks": 13728,
          "time": 19.324305000000003,
          "velocity": 0.8188976377952756
        },
        {
          "duration": 0.033783750000001334,
          "durationTicks": 24,
          "midi": 82,
          "name": "A#5",
          "ticks": 14016,
          "time": 19.72971,
          "velocity": 0.8582677165354331
        },
        {
          "duration": 0.033783750000001334,
          "durationTicks": 24,
          "midi": 82,
          "name": "A#5",
          "ticks": 15168,
          "time": 21.35133,
          "velocity": 0.7401574803149606
        },
        {
          "duration": 0.03378374999999778,
          "durationTicks": 24,
          "midi": 82,
          "name": "A#5",
          "ticks": 15264,
          "time": 21.486465000000003,
          "velocity": 0.8346456692913385
        },
        {
          "duration": 0.033783750000001334,
          "durationTicks": 24,
          "midi": 82,
          "name": "A#5",
          "ticks": 15360,
          "time": 21.6216,
          "velocity": 0.889763779527559
        },
        {
          "duration": 0.033783750000001334,
          "durationTicks": 24,
          "midi": 82,
          "name": "A#5",
          "ticks": 15552,
          "time": 21.89187,
          "velocity": 0.8031496062992126
        },
        {
          "duration": 0.03378374999999778,
          "durationTicks": 24,
          "midi": 82,
          "name": "A#5",
          "ticks": 16800,
          "time": 23.648625000000003,
          "velocity": 0.8188976377952756
        },
        {
          "duration": 0.033783750000001334,
          "durationTicks": 24,
          "midi": 82,
          "name": "A#5",
          "ticks": 17088,
          "time": 24.05403,
          "velocity": 0.8582677165354331
        },
        {
          "duration": 0.033783750000001334,
          "durationTicks": 24,
          "midi": 82,
          "name": "A#5",
          "ticks": 18240,
          "time": 25.67565,
          "velocity": 0.7401574803149606
        },
        {
          "duration": 0.03378374999999778,
          "durationTicks": 24,
          "midi": 82,
          "name": "A#5",
          "ticks": 18336,
          "time": 25.810785000000003,
          "velocity": 0.8346456692913385
        },
        {
          "duration": 0.033783750000001334,
          "durationTicks": 24,
          "midi": 82,
          "name": "A#5",
          "ticks": 18432,
          "time": 25.94592,
          "velocity": 0.889763779527559
        },
        {
          "duration": 0.033783750000001334,
          "durationTicks": 24,
          "midi": 82,
          "name": "A#5",
          "ticks": 18624,
          "time": 26.21619,
          "velocity": 0.8031496062992126
        },
        {
          "duration": 0.03378374999999778,
          "durationTicks": 24,
          "midi": 82,
          "name": "A#5",
          "ticks": 19872,
          "time": 27.972945000000003,
          "velocity": 0.8188976377952756
        },
        {
          "duration": 0.033783750000001334,
          "durationTicks": 24,
          "midi": 82,
          "name": "A#5",
          "ticks": 20160,
          "time": 28.37835,
          "velocity": 0.8582677165354331
        },
        {
          "duration": 0.033783750000001334,
          "durationTicks": 24,
          "midi": 82,
          "name": "A#5",
          "ticks": 21312,
          "time": 29.99997,
          "velocity": 0.7401574803149606
        },
        {
          "duration": 0.03378374999999778,
          "durationTicks": 24,
          "midi": 82,
          "name": "A#5",
          "ticks": 21408,
          "time": 30.135105000000003,
          "velocity": 0.8346456692913385
        },
        {
          "duration": 0.033783750000001334,
          "durationTicks": 24,
          "midi": 82,
          "name": "A#5",
          "ticks": 21504,
          "time": 30.27024,
          "velocity": 0.889763779527559
        },
        {
          "duration": 0.033783750000001334,
          "durationTicks": 24,
          "midi": 82,
          "name": "A#5",
          "ticks": 21696,
          "time": 30.54051,
          "velocity": 0.8031496062992126
        },
        {
          "duration": 0.03378374999999778,
          "durationTicks": 24,
          "midi": 82,
          "name": "A#5",
          "ticks": 22944,
          "time": 32.297265,
          "velocity": 0.8188976377952756
        },
        {
          "duration": 0.033783750000004886,
          "durationTicks": 24,
          "midi": 82,
          "name": "A#5",
          "ticks": 23232,
          "time": 32.70267,
          "velocity": 0.8582677165354331
        },
        {
          "duration": 0.03378374999999778,
          "durationTicks": 24,
          "midi": 82,
          "name": "A#5",
          "ticks": 24384,
          "time": 34.324290000000005,
          "velocity": 0.7401574803149606
        },
        {
          "duration": 0.03378374999999778,
          "durationTicks": 24,
          "midi": 82,
          "name": "A#5",
          "ticks": 24480,
          "time": 34.459425,
          "velocity": 0.8346456692913385
        },
        {
          "duration": 0.03378374999999778,
          "durationTicks": 24,
          "midi": 82,
          "name": "A#5",
          "ticks": 24576,
          "time": 34.59456,
          "velocity": 0.889763779527559
        },
        {
          "duration": 0.033783750000004886,
          "durationTicks": 24,
          "midi": 82,
          "name": "A#5",
          "ticks": 24768,
          "time": 34.86483,
          "velocity": 0.8031496062992126
        },
        {
          "duration": 0.03378374999999778,
          "durationTicks": 24,
          "midi": 82,
          "name": "A#5",
          "ticks": 26016,
          "time": 36.621585,
          "velocity": 0.8188976377952756
        },
        {
          "duration": 0.033783750000004886,
          "durationTicks": 24,
          "midi": 82,
          "name": "A#5",
          "ticks": 26304,
          "time": 37.02699,
          "velocity": 0.8582677165354331
        },
        {
          "duration": 0.03378374999999778,
          "durationTicks": 24,
          "midi": 82,
          "name": "A#5",
          "ticks": 27456,
          "time": 38.648610000000005,
          "velocity": 0.7401574803149606
        },
        {
          "duration": 0.03378374999999778,
          "durationTicks": 24,
          "midi": 82,
          "name": "A#5",
          "ticks": 27552,
          "time": 38.783745,
          "velocity": 0.8346456692913385
        },
        {
          "duration": 0.03378374999999778,
          "durationTicks": 24,
          "midi": 82,
          "name": "A#5",
          "ticks": 27648,
          "time": 38.91888,
          "velocity": 0.889763779527559
        },
        {
          "duration": 0.033783750000004886,
          "durationTicks": 24,
          "midi": 82,
          "name": "A#5",
          "ticks": 27840,
          "time": 39.18915,
          "velocity": 0.8031496062992126
        },
        {
          "duration": 0.03378374999999778,
          "durationTicks": 24,
          "midi": 82,
          "name": "A#5",
          "ticks": 29088,
          "time": 40.945905,
          "velocity": 0.8188976377952756
        },
        {
          "duration": 0.033783750000004886,
          "durationTicks": 24,
          "midi": 82,
          "name": "A#5",
          "ticks": 29376,
          "time": 41.35131,
          "velocity": 0.8582677165354331
        },
        {
          "duration": 0.03378374999999778,
          "durationTicks": 24,
          "midi": 82,
          "name": "A#5",
          "ticks": 30528,
          "time": 42.972930000000005,
          "velocity": 0.7401574803149606
        },
        {
          "duration": 0.03378374999999778,
          "durationTicks": 24,
          "midi": 82,
          "name": "A#5",
          "ticks": 30624,
          "time": 43.108065,
          "velocity": 0.8346456692913385
        },
        {
          "duration": 0.03378374999999778,
          "durationTicks": 24,
          "midi": 82,
          "name": "A#5",
          "ticks": 30720,
          "time": 43.2432,
          "velocity": 0.889763779527559
        },
        {
          "duration": 0.033783750000004886,
          "durationTicks": 24,
          "midi": 82,
          "name": "A#5",
          "ticks": 30912,
          "time": 43.51347,
          "velocity": 0.8031496062992126
        },
        {
          "duration": 0.03378374999999778,
          "durationTicks": 24,
          "midi": 82,
          "name": "A#5",
          "ticks": 32160,
          "time": 45.270225,
          "velocity": 0.8188976377952756
        },
        {
          "duration": 0.033783750000004886,
          "durationTicks": 24,
          "midi": 82,
          "name": "A#5",
          "ticks": 32448,
          "time": 45.67563,
          "velocity": 0.8582677165354331
        },
        {
          "duration": 0.03378374999999778,
          "durationTicks": 24,
          "midi": 82,
          "name": "A#5",
          "ticks": 33600,
          "time": 47.297250000000005,
          "velocity": 0.7401574803149606
        },
        {
          "duration": 0.03378374999999778,
          "durationTicks": 24,
          "midi": 82,
          "name": "A#5",
          "ticks": 33696,
          "time": 47.432385000000004,
          "velocity": 0.8346456692913385
        },
        {
          "duration": 0.03378374999999778,
          "durationTicks": 24,
          "midi": 82,
          "name": "A#5",
          "ticks": 33792,
          "time": 47.56752,
          "velocity": 0.889763779527559
        },
        {
          "duration": 0.033783750000004886,
          "durationTicks": 24,
          "midi": 82,
          "name": "A#5",
          "ticks": 33984,
          "time": 47.83779,
          "velocity": 0.8031496062992126
        },
        {
          "duration": 0.03378374999999778,
          "durationTicks": 24,
          "midi": 82,
          "name": "A#5",
          "ticks": 35232,
          "time": 49.594545000000004,
          "velocity": 0.8188976377952756
        },
        {
          "duration": 0.033783750000004886,
          "durationTicks": 24,
          "midi": 82,
          "name": "A#5",
          "ticks": 35520,
          "time": 49.99995,
          "velocity": 0.8582677165354331
        },
        {
          "duration": 0.03378374999999778,
          "durationTicks": 24,
          "midi": 82,
          "name": "A#5",
          "ticks": 36672,
          "time": 51.621570000000006,
          "velocity": 0.7401574803149606
        },
        {
          "duration": 0.03378374999999778,
          "durationTicks": 24,
          "midi": 82,
          "name": "A#5",
          "ticks": 36768,
          "time": 51.756705000000004,
          "velocity": 0.8346456692913385
        },
        {
          "duration": 0.03378374999999778,
          "durationTicks": 24,
          "midi": 82,
          "name": "A#5",
          "ticks": 36864,
          "time": 51.89184,
          "velocity": 0.889763779527559
        },
        {
          "duration": 0.033783750000004886,
          "durationTicks": 24,
          "midi": 82,
          "name": "A#5",
          "ticks": 37056,
          "time": 52.16211,
          "velocity": 0.8031496062992126
        },
        {
          "duration": 0.03378374999999778,
          "durationTicks": 24,
          "midi": 82,
          "name": "A#5",
          "ticks": 38304,
          "time": 53.918865000000004,
          "velocity": 0.8188976377952756
        },
        {
          "duration": 0.033783750000004886,
          "durationTicks": 24,
          "midi": 82,
          "name": "A#5",
          "ticks": 38592,
          "time": 54.32427,
          "velocity": 0.8582677165354331
        },
        {
          "duration": 0.03378374999999778,
          "durationTicks": 24,
          "midi": 82,
          "name": "A#5",
          "ticks": 39744,
          "time": 55.945890000000006,
          "velocity": 0.7401574803149606
        },
        {
          "duration": 0.03378374999999778,
          "durationTicks": 24,
          "midi": 82,
          "name": "A#5",
          "ticks": 39840,
          "time": 56.081025000000004,
          "velocity": 0.8346456692913385
        },
        {
          "duration": 0.03378374999999778,
          "durationTicks": 24,
          "midi": 82,
          "name": "A#5",
          "ticks": 39936,
          "time": 56.21616,
          "velocity": 0.889763779527559
        },
        {
          "duration": 0.033783750000004886,
          "durationTicks": 24,
          "midi": 82,
          "name": "A#5",
          "ticks": 40128,
          "time": 56.48643,
          "velocity": 0.8031496062992126
        },
        {
          "duration": 0.03378374999999778,
          "durationTicks": 24,
          "midi": 82,
          "name": "A#5",
          "ticks": 41376,
          "time": 58.243185000000004,
          "velocity": 0.8188976377952756
        },
        {
          "duration": 0.033783750000004886,
          "durationTicks": 24,
          "midi": 82,
          "name": "A#5",
          "ticks": 41664,
          "time": 58.64859,
          "velocity": 0.8582677165354331
        },
        {
          "duration": 0.03378374999999778,
          "durationTicks": 24,
          "midi": 82,
          "name": "A#5",
          "ticks": 42816,
          "time": 60.270210000000006,
          "velocity": 0.7401574803149606
        },
        {
          "duration": 0.03378374999999778,
          "durationTicks": 24,
          "midi": 82,
          "name": "A#5",
          "ticks": 42912,
          "time": 60.405345000000004,
          "velocity": 0.8346456692913385
        },
        {
          "duration": 0.03378374999999778,
          "durationTicks": 24,
          "midi": 82,
          "name": "A#5",
          "ticks": 43008,
          "time": 60.54048,
          "velocity": 0.889763779527559
        },
        {
          "duration": 0.033783750000004886,
          "durationTicks": 24,
          "midi": 82,
          "name": "A#5",
          "ticks": 43200,
          "time": 60.81075,
          "velocity": 0.8031496062992126
        },
        {
          "duration": 0.03378374999999778,
          "durationTicks": 24,
          "midi": 82,
          "name": "A#5",
          "ticks": 44448,
          "time": 62.567505000000004,
          "velocity": 0.8188976377952756
        },
        {
          "duration": 0.033783750000004886,
          "durationTicks": 24,
          "midi": 82,
          "name": "A#5",
          "ticks": 44736,
          "time": 62.97291,
          "velocity": 0.8582677165354331
        },
        {
          "duration": 0.03378374999999778,
          "durationTicks": 24,
          "midi": 82,
          "name": "A#5",
          "ticks": 45888,
          "time": 64.59453,
          "velocity": 0.7401574803149606
        },
        {
          "duration": 0.03378375000001199,
          "durationTicks": 24,
          "midi": 82,
          "name": "A#5",
          "ticks": 45984,
          "time": 64.729665,
          "velocity": 0.8346456692913385
        },
        {
          "duration": 0.03378374999999778,
          "durationTicks": 24,
          "midi": 82,
          "name": "A#5",
          "ticks": 46080,
          "time": 64.8648,
          "velocity": 0.889763779527559
        },
        {
          "duration": 0.03378374999999778,
          "durationTicks": 24,
          "midi": 82,
          "name": "A#5",
          "ticks": 46272,
          "time": 65.13507,
          "velocity": 0.8031496062992126
        },
        {
          "duration": 0.03378375000001199,
          "durationTicks": 24,
          "midi": 82,
          "name": "A#5",
          "ticks": 47520,
          "time": 66.891825,
          "velocity": 0.8188976377952756
        },
        {
          "duration": 0.03378374999999778,
          "durationTicks": 24,
          "midi": 82,
          "name": "A#5",
          "ticks": 47808,
          "time": 67.29723,
          "velocity": 0.8582677165354331
        },
        {
          "duration": 0.03378374999999778,
          "durationTicks": 24,
          "midi": 82,
          "name": "A#5",
          "ticks": 48960,
          "time": 68.91885,
          "velocity": 0.7401574803149606
        },
        {
          "duration": 0.03378375000001199,
          "durationTicks": 24,
          "midi": 82,
          "name": "A#5",
          "ticks": 49056,
          "time": 69.053985,
          "velocity": 0.8346456692913385
        },
        {
          "duration": 0.03378374999999778,
          "durationTicks": 24,
          "midi": 82,
          "name": "A#5",
          "ticks": 49152,
          "time": 69.18912,
          "velocity": 0.889763779527559
        },
        {
          "duration": 0.03378374999999778,
          "durationTicks": 24,
          "midi": 82,
          "name": "A#5",
          "ticks": 49344,
          "time": 69.45939,
          "velocity": 0.8031496062992126
        },
        {
          "duration": 0.03378375000001199,
          "durationTicks": 24,
          "midi": 82,
          "name": "A#5",
          "ticks": 50592,
          "time": 71.216145,
          "velocity": 0.8188976377952756
        },
        {
          "duration": 0.03378374999999778,
          "durationTicks": 24,
          "midi": 82,
          "name": "A#5",
          "ticks": 50880,
          "time": 71.62155,
          "velocity": 0.8582677165354331
        },
        {
          "duration": 0.03378374999999778,
          "durationTicks": 24,
          "midi": 82,
          "name": "A#5",
          "ticks": 52032,
          "time": 73.24317,
          "velocity": 0.7401574803149606
        },
        {
          "duration": 0.03378375000001199,
          "durationTicks": 24,
          "midi": 82,
          "name": "A#5",
          "ticks": 52128,
          "time": 73.378305,
          "velocity": 0.8346456692913385
        },
        {
          "duration": 0.03378374999999778,
          "durationTicks": 24,
          "midi": 82,
          "name": "A#5",
          "ticks": 52224,
          "time": 73.51344,
          "velocity": 0.889763779527559
        },
        {
          "duration": 0.03378374999999778,
          "durationTicks": 24,
          "midi": 82,
          "name": "A#5",
          "ticks": 52416,
          "time": 73.78371,
          "velocity": 0.8031496062992126
        },
        {
          "duration": 0.03378375000001199,
          "durationTicks": 24,
          "midi": 82,
          "name": "A#5",
          "ticks": 53664,
          "time": 75.540465,
          "velocity": 0.8188976377952756
        },
        {
          "duration": 0.03378374999999778,
          "durationTicks": 24,
          "midi": 82,
          "name": "A#5",
          "ticks": 53952,
          "time": 75.94587,
          "velocity": 0.8582677165354331
        },
        {
          "duration": 0.03378374999999778,
          "durationTicks": 24,
          "midi": 82,
          "name": "A#5",
          "ticks": 55104,
          "time": 77.56749,
          "velocity": 0.7401574803149606
        },
        {
          "duration": 0.03378375000001199,
          "durationTicks": 24,
          "midi": 82,
          "name": "A#5",
          "ticks": 55200,
          "time": 77.702625,
          "velocity": 0.8346456692913385
        },
        {
          "duration": 0.03378374999999778,
          "durationTicks": 24,
          "midi": 82,
          "name": "A#5",
          "ticks": 55296,
          "time": 77.83776,
          "velocity": 0.889763779527559
        },
        {
          "duration": 0.03378374999999778,
          "durationTicks": 24,
          "midi": 82,
          "name": "A#5",
          "ticks": 55488,
          "time": 78.10803,
          "velocity": 0.8031496062992126
        },
        {
          "duration": 0.03378375000001199,
          "durationTicks": 24,
          "midi": 82,
          "name": "A#5",
          "ticks": 56736,
          "time": 79.864785,
          "velocity": 0.8188976377952756
        },
        {
          "duration": 0.03378374999999778,
          "durationTicks": 24,
          "midi": 82,
          "name": "A#5",
          "ticks": 57024,
          "time": 80.27019,
          "velocity": 0.8582677165354331
        },
        {
          "duration": 0.03378374999999778,
          "durationTicks": 24,
          "midi": 82,
          "name": "A#5",
          "ticks": 58176,
          "time": 81.89181,
          "velocity": 0.7401574803149606
        },
        {
          "duration": 0.03378375000001199,
          "durationTicks": 24,
          "midi": 82,
          "name": "A#5",
          "ticks": 58272,
          "time": 82.026945,
          "velocity": 0.8346456692913385
        },
        {
          "duration": 0.03378374999999778,
          "durationTicks": 24,
          "midi": 82,
          "name": "A#5",
          "ticks": 58368,
          "time": 82.16208,
          "velocity": 0.889763779527559
        },
        {
          "duration": 0.03378374999999778,
          "durationTicks": 24,
          "midi": 82,
          "name": "A#5",
          "ticks": 58560,
          "time": 82.43235,
          "velocity": 0.8031496062992126
        },
        {
          "duration": 0.03378375000001199,
          "durationTicks": 24,
          "midi": 82,
          "name": "A#5",
          "ticks": 59808,
          "time": 84.189105,
          "velocity": 0.8188976377952756
        },
        {
          "duration": 0.03378374999999778,
          "durationTicks": 24,
          "midi": 82,
          "name": "A#5",
          "ticks": 60096,
          "time": 84.59451,
          "velocity": 0.8582677165354331
        },
        {
          "duration": 0.03378374999999778,
          "durationTicks": 24,
          "midi": 82,
          "name": "A#5",
          "ticks": 61248,
          "time": 86.21613,
          "velocity": 0.7401574803149606
        },
        {
          "duration": 0.03378375000001199,
          "durationTicks": 24,
          "midi": 82,
          "name": "A#5",
          "ticks": 61344,
          "time": 86.351265,
          "velocity": 0.8346456692913385
        },
        {
          "duration": 0.03378374999999778,
          "durationTicks": 24,
          "midi": 82,
          "name": "A#5",
          "ticks": 61440,
          "time": 86.4864,
          "velocity": 0.889763779527559
        },
        {
          "duration": 0.03378374999999778,
          "durationTicks": 24,
          "midi": 82,
          "name": "A#5",
          "ticks": 61632,
          "time": 86.75667,
          "velocity": 0.8031496062992126
        },
        {
          "duration": 0.03378375000001199,
          "durationTicks": 24,
          "midi": 82,
          "name": "A#5",
          "ticks": 62880,
          "time": 88.513425,
          "velocity": 0.8188976377952756
        },
        {
          "duration": 0.03378374999999778,
          "durationTicks": 24,
          "midi": 82,
          "name": "A#5",
          "ticks": 63168,
          "time": 88.91883,
          "velocity": 0.8582677165354331
        },
        {
          "duration": 0.03378374999999778,
          "durationTicks": 24,
          "midi": 82,
          "name": "A#5",
          "ticks": 64320,
          "time": 90.54045,
          "velocity": 0.7401574803149606
        },
        {
          "duration": 0.03378375000001199,
          "durationTicks": 24,
          "midi": 82,
          "name": "A#5",
          "ticks": 64416,
          "time": 90.675585,
          "velocity": 0.8346456692913385
        },
        {
          "duration": 0.03378374999999778,
          "durationTicks": 24,
          "midi": 82,
          "name": "A#5",
          "ticks": 64512,
          "time": 90.81072,
          "velocity": 0.889763779527559
        },
        {
          "duration": 0.03378374999999778,
          "durationTicks": 24,
          "midi": 82,
          "name": "A#5",
          "ticks": 64704,
          "time": 91.08099,
          "velocity": 0.8031496062992126
        },
        {
          "duration": 0.03378375000001199,
          "durationTicks": 24,
          "midi": 82,
          "name": "A#5",
          "ticks": 65952,
          "time": 92.837745,
          "velocity": 0.8188976377952756
        },
        {
          "duration": 0.03378374999999778,
          "durationTicks": 24,
          "midi": 82,
          "name": "A#5",
          "ticks": 66240,
          "time": 93.24315,
          "velocity": 0.8582677165354331
        },
        {
          "duration": 0.03378374999999778,
          "durationTicks": 24,
          "midi": 82,
          "name": "A#5",
          "ticks": 67392,
          "time": 94.86477000000001,
          "velocity": 0.7401574803149606
        },
        {
          "duration": 0.03378375000001199,
          "durationTicks": 24,
          "midi": 82,
          "name": "A#5",
          "ticks": 67488,
          "time": 94.999905,
          "velocity": 0.8346456692913385
        },
        {
          "duration": 0.03378374999999778,
          "durationTicks": 24,
          "midi": 82,
          "name": "A#5",
          "ticks": 67584,
          "time": 95.13504,
          "velocity": 0.889763779527559
        },
        {
          "duration": 0.03378374999999778,
          "durationTicks": 24,
          "midi": 82,
          "name": "A#5",
          "ticks": 67776,
          "time": 95.40531,
          "velocity": 0.8031496062992126
        },
        {
          "duration": 0.03378375000001199,
          "durationTicks": 24,
          "midi": 82,
          "name": "A#5",
          "ticks": 69024,
          "time": 97.162065,
          "velocity": 0.8188976377952756
        },
        {
          "duration": 0.03378374999999778,
          "durationTicks": 24,
          "midi": 82,
          "name": "A#5",
          "ticks": 69312,
          "time": 97.56747,
          "velocity": 0.8582677165354331
        },
        {
          "duration": 0.03378374999999778,
          "durationTicks": 24,
          "midi": 82,
          "name": "A#5",
          "ticks": 70464,
          "time": 99.18909000000001,
          "velocity": 0.7401574803149606
        },
        {
          "duration": 0.03378375000001199,
          "durationTicks": 24,
          "midi": 82,
          "name": "A#5",
          "ticks": 70560,
          "time": 99.324225,
          "velocity": 0.8346456692913385
        },
        {
          "duration": 0.03378374999999778,
          "durationTicks": 24,
          "midi": 82,
          "name": "A#5",
          "ticks": 70656,
          "time": 99.45936,
          "velocity": 0.889763779527559
        },
        {
          "duration": 0.03378374999999778,
          "durationTicks": 24,
          "midi": 82,
          "name": "A#5",
          "ticks": 70848,
          "time": 99.72963,
          "velocity": 0.8031496062992126
        },
        {
          "duration": 0.03378375000001199,
          "durationTicks": 24,
          "midi": 82,
          "name": "A#5",
          "ticks": 72096,
          "time": 101.486385,
          "velocity": 0.8188976377952756
        },
        {
          "duration": 0.03378374999999778,
          "durationTicks": 24,
          "midi": 82,
          "name": "A#5",
          "ticks": 72384,
          "time": 101.89179,
          "velocity": 0.8582677165354331
        },
        {
          "duration": 0.03378374999999778,
          "durationTicks": 24,
          "midi": 82,
          "name": "A#5",
          "ticks": 73536,
          "time": 103.51341000000001,
          "velocity": 0.7401574803149606
        },
        {
          "duration": 0.03378375000001199,
          "durationTicks": 24,
          "midi": 82,
          "name": "A#5",
          "ticks": 73632,
          "time": 103.648545,
          "velocity": 0.8346456692913385
        },
        {
          "duration": 0.03378374999999778,
          "durationTicks": 24,
          "midi": 82,
          "name": "A#5",
          "ticks": 73728,
          "time": 103.78368,
          "velocity": 0.889763779527559
        },
        {
          "duration": 0.03378374999999778,
          "durationTicks": 24,
          "midi": 82,
          "name": "A#5",
          "ticks": 73920,
          "time": 104.05395,
          "velocity": 0.8031496062992126
        },
        {
          "duration": 0.03378375000001199,
          "durationTicks": 24,
          "midi": 82,
          "name": "A#5",
          "ticks": 75168,
          "time": 105.810705,
          "velocity": 0.8188976377952756
        },
        {
          "duration": 0.03378374999999778,
          "durationTicks": 24,
          "midi": 82,
          "name": "A#5",
          "ticks": 75456,
          "time": 106.21611,
          "velocity": 0.8582677165354331
        },
        {
          "duration": 0.03378374999999778,
          "durationTicks": 24,
          "midi": 82,
          "name": "A#5",
          "ticks": 76608,
          "time": 107.83773000000001,
          "velocity": 0.7401574803149606
        },
        {
          "duration": 0.03378375000001199,
          "durationTicks": 24,
          "midi": 82,
          "name": "A#5",
          "ticks": 76704,
          "time": 107.972865,
          "velocity": 0.8346456692913385
        },
        {
          "duration": 0.03378374999999778,
          "durationTicks": 24,
          "midi": 82,
          "name": "A#5",
          "ticks": 76800,
          "time": 108.108,
          "velocity": 0.889763779527559
        },
        {
          "duration": 0.03378374999999778,
          "durationTicks": 24,
          "midi": 82,
          "name": "A#5",
          "ticks": 76992,
          "time": 108.37827,
          "velocity": 0.8031496062992126
        },
        {
          "duration": 0.03378375000001199,
          "durationTicks": 24,
          "midi": 82,
          "name": "A#5",
          "ticks": 78240,
          "time": 110.135025,
          "velocity": 0.8188976377952756
        },
        {
          "duration": 0.03378374999999778,
          "durationTicks": 24,
          "midi": 82,
          "name": "A#5",
          "ticks": 78528,
          "time": 110.54043,
          "velocity": 0.8582677165354331
        },
        {
          "duration": 0.03378374999999778,
          "durationTicks": 24,
          "midi": 82,
          "name": "A#5",
          "ticks": 79680,
          "time": 112.16205000000001,
          "velocity": 0.7401574803149606
        },
        {
          "duration": 0.03378375000001199,
          "durationTicks": 24,
          "midi": 82,
          "name": "A#5",
          "ticks": 79776,
          "time": 112.297185,
          "velocity": 0.8346456692913385
        },
        {
          "duration": 0.03378374999999778,
          "durationTicks": 24,
          "midi": 82,
          "name": "A#5",
          "ticks": 79872,
          "time": 112.43232,
          "velocity": 0.889763779527559
        },
        {
          "duration": 0.03378374999999778,
          "durationTicks": 24,
          "midi": 82,
          "name": "A#5",
          "ticks": 80064,
          "time": 112.70259,
          "velocity": 0.8031496062992126
        },
        {
          "duration": 0.03378375000001199,
          "durationTicks": 24,
          "midi": 82,
          "name": "A#5",
          "ticks": 81312,
          "time": 114.459345,
          "velocity": 0.8188976377952756
        },
        {
          "duration": 0.03378374999999778,
          "durationTicks": 24,
          "midi": 82,
          "name": "A#5",
          "ticks": 81600,
          "time": 114.86475,
          "velocity": 0.8582677165354331
        },
        {
          "duration": 0.03378374999999778,
          "durationTicks": 24,
          "midi": 82,
          "name": "A#5",
          "ticks": 82752,
          "time": 116.48637000000001,
          "velocity": 0.7401574803149606
        },
        {
          "duration": 0.03378375000001199,
          "durationTicks": 24,
          "midi": 82,
          "name": "A#5",
          "ticks": 82848,
          "time": 116.621505,
          "velocity": 0.8346456692913385
        },
        {
          "duration": 0.03378374999999778,
          "durationTicks": 24,
          "midi": 82,
          "name": "A#5",
          "ticks": 82944,
          "time": 116.75664,
          "velocity": 0.889763779527559
        },
        {
          "duration": 0.03378374999999778,
          "durationTicks": 24,
          "midi": 82,
          "name": "A#5",
          "ticks": 83136,
          "time": 117.02691,
          "velocity": 0.8031496062992126
        },
        {
          "duration": 0.03378375000001199,
          "durationTicks": 24,
          "midi": 82,
          "name": "A#5",
          "ticks": 84384,
          "time": 118.783665,
          "velocity": 0.8188976377952756
        },
        {
          "duration": 0.03378374999999778,
          "durationTicks": 24,
          "midi": 82,
          "name": "A#5",
          "ticks": 84672,
          "time": 119.18907,
          "velocity": 0.8582677165354331
        },
        {
          "duration": 0.03378374999999778,
          "durationTicks": 24,
          "midi": 82,
          "name": "A#5",
          "ticks": 85824,
          "time": 120.81069000000001,
          "velocity": 0.7401574803149606
        },
        {
          "duration": 0.03378375000001199,
          "durationTicks": 24,
          "midi": 82,
          "name": "A#5",
          "ticks": 85920,
          "time": 120.945825,
          "velocity": 0.8346456692913385
        },
        {
          "duration": 0.03378374999999778,
          "durationTicks": 24,
          "midi": 82,
          "name": "A#5",
          "ticks": 86016,
          "time": 121.08096,
          "velocity": 0.889763779527559
        },
        {
          "duration": 0.03378374999999778,
          "durationTicks": 24,
          "midi": 82,
          "name": "A#5",
          "ticks": 86208,
          "time": 121.35123,
          "velocity": 0.8031496062992126
        },
        {
          "duration": 0.03378375000001199,
          "durationTicks": 24,
          "midi": 82,
          "name": "A#5",
          "ticks": 87456,
          "time": 123.107985,
          "velocity": 0.8188976377952756
        },
        {
          "duration": 0.03378374999999778,
          "durationTicks": 24,
          "midi": 82,
          "name": "A#5",
          "ticks": 87744,
          "time": 123.51339,
          "velocity": 0.8582677165354331
        },
        {
          "duration": 0.03378374999999778,
          "durationTicks": 24,
          "midi": 82,
          "name": "A#5",
          "ticks": 88896,
          "time": 125.13501000000001,
          "velocity": 0.7401574803149606
        },
        {
          "duration": 0.03378375000001199,
          "durationTicks": 24,
          "midi": 82,
          "name": "A#5",
          "ticks": 88992,
          "time": 125.270145,
          "velocity": 0.8346456692913385
        },
        {
          "duration": 0.03378374999999778,
          "durationTicks": 24,
          "midi": 82,
          "name": "A#5",
          "ticks": 89088,
          "time": 125.40528,
          "velocity": 0.889763779527559
        },
        {
          "duration": 0.03378374999999778,
          "durationTicks": 24,
          "midi": 82,
          "name": "A#5",
          "ticks": 89280,
          "time": 125.67555,
          "velocity": 0.8031496062992126
        },
        {
          "duration": 0.03378375000001199,
          "durationTicks": 24,
          "midi": 82,
          "name": "A#5",
          "ticks": 90528,
          "time": 127.432305,
          "velocity": 0.8188976377952756
        },
        {
          "duration": 0.03378374999999778,
          "durationTicks": 24,
          "midi": 82,
          "name": "A#5",
          "ticks": 90816,
          "time": 127.83771,
          "velocity": 0.8582677165354331
        },
        {
          "duration": 0.03378374999999778,
          "durationTicks": 24,
          "midi": 82,
          "name": "A#5",
          "ticks": 91968,
          "time": 129.45933,
          "velocity": 0.7401574803149606
        },
        {
          "duration": 0.03378374999999778,
          "durationTicks": 24,
          "midi": 82,
          "name": "A#5",
          "ticks": 92064,
          "time": 129.594465,
          "velocity": 0.8346456692913385
        },
        {
          "duration": 0.03378374999999778,
          "durationTicks": 24,
          "midi": 82,
          "name": "A#5",
          "ticks": 92160,
          "time": 129.7296,
          "velocity": 0.889763779527559
        },
        {
          "duration": 0.03378374999999778,
          "durationTicks": 24,
          "midi": 82,
          "name": "A#5",
          "ticks": 92352,
          "time": 129.99987000000002,
          "velocity": 0.8031496062992126
        },
        {
          "duration": 0.03378374999999778,
          "durationTicks": 24,
          "midi": 82,
          "name": "A#5",
          "ticks": 93600,
          "time": 131.756625,
          "velocity": 0.8188976377952756
        },
        {
          "duration": 0.03378374999999778,
          "durationTicks": 24,
          "midi": 82,
          "name": "A#5",
          "ticks": 93888,
          "time": 132.16203000000002,
          "velocity": 0.8582677165354331
        },
        {
          "duration": 0.03378374999999778,
          "durationTicks": 24,
          "midi": 82,
          "name": "A#5",
          "ticks": 95040,
          "time": 133.78365,
          "velocity": 0.7401574803149606
        },
        {
          "duration": 0.03378374999999778,
          "durationTicks": 24,
          "midi": 82,
          "name": "A#5",
          "ticks": 95136,
          "time": 133.918785,
          "velocity": 0.8346456692913385
        },
        {
          "duration": 0.03378374999999778,
          "durationTicks": 24,
          "midi": 82,
          "name": "A#5",
          "ticks": 95232,
          "time": 134.05392,
          "velocity": 0.889763779527559
        },
        {
          "duration": 0.03378374999999778,
          "durationTicks": 24,
          "midi": 82,
          "name": "A#5",
          "ticks": 95424,
          "time": 134.32419000000002,
          "velocity": 0.8031496062992126
        },
        {
          "duration": 0.03378374999999778,
          "durationTicks": 24,
          "midi": 82,
          "name": "A#5",
          "ticks": 96672,
          "time": 136.080945,
          "velocity": 0.8188976377952756
        },
        {
          "duration": 0.03378374999999778,
          "durationTicks": 24,
          "midi": 82,
          "name": "A#5",
          "ticks": 96960,
          "time": 136.48635000000002,
          "velocity": 0.8582677165354331
        },
        {
          "duration": 0.03378374999999778,
          "durationTicks": 24,
          "midi": 82,
          "name": "A#5",
          "ticks": 98112,
          "time": 138.10797,
          "velocity": 0.7401574803149606
        },
        {
          "duration": 0.03378374999999778,
          "durationTicks": 24,
          "midi": 82,
          "name": "A#5",
          "ticks": 98208,
          "time": 138.243105,
          "velocity": 0.8346456692913385
        },
        {
          "duration": 0.03378374999999778,
          "durationTicks": 24,
          "midi": 82,
          "name": "A#5",
          "ticks": 98304,
          "time": 138.37824,
          "velocity": 0.889763779527559
        },
        {
          "duration": 0.03378374999999778,
          "durationTicks": 24,
          "midi": 82,
          "name": "A#5",
          "ticks": 98496,
          "time": 138.64851000000002,
          "velocity": 0.8031496062992126
        },
        {
          "duration": 0.03378374999999778,
          "durationTicks": 24,
          "midi": 82,
          "name": "A#5",
          "ticks": 99744,
          "time": 140.405265,
          "velocity": 0.8188976377952756
        },
        {
          "duration": 0.03378374999999778,
          "durationTicks": 24,
          "midi": 82,
          "name": "A#5",
          "ticks": 100032,
          "time": 140.81067000000002,
          "velocity": 0.8582677165354331
        },
        {
          "duration": 0.03378374999999778,
          "durationTicks": 24,
          "midi": 82,
          "name": "A#5",
          "ticks": 101184,
          "time": 142.43229,
          "velocity": 0.7401574803149606
        },
        {
          "duration": 0.03378374999999778,
          "durationTicks": 24,
          "midi": 82,
          "name": "A#5",
          "ticks": 101280,
          "time": 142.56742500000001,
          "velocity": 0.8346456692913385
        },
        {
          "duration": 0.03378374999999778,
          "durationTicks": 24,
          "midi": 82,
          "name": "A#5",
          "ticks": 101376,
          "time": 142.70256,
          "velocity": 0.889763779527559
        },
        {
          "duration": 0.03378374999999778,
          "durationTicks": 24,
          "midi": 82,
          "name": "A#5",
          "ticks": 101568,
          "time": 142.97283000000002,
          "velocity": 0.8031496062992126
        },
        {
          "duration": 0.03378374999999778,
          "durationTicks": 24,
          "midi": 82,
          "name": "A#5",
          "ticks": 102816,
          "time": 144.72958500000001,
          "velocity": 0.8188976377952756
        },
        {
          "duration": 0.03378374999999778,
          "durationTicks": 24,
          "midi": 82,
          "name": "A#5",
          "ticks": 103104,
          "time": 145.13499000000002,
          "velocity": 0.8582677165354331
        },
        {
          "duration": 0.03378374999999778,
          "durationTicks": 24,
          "midi": 82,
          "name": "A#5",
          "ticks": 104256,
          "time": 146.75661,
          "velocity": 0.7401574803149606
        },
        {
          "duration": 0.03378374999999778,
          "durationTicks": 24,
          "midi": 82,
          "name": "A#5",
          "ticks": 104352,
          "time": 146.89174500000001,
          "velocity": 0.8346456692913385
        },
        {
          "duration": 0.03378374999999778,
          "durationTicks": 24,
          "midi": 82,
          "name": "A#5",
          "ticks": 104448,
          "time": 147.02688,
          "velocity": 0.889763779527559
        },
        {
          "duration": 0.03378374999999778,
          "durationTicks": 24,
          "midi": 82,
          "name": "A#5",
          "ticks": 104640,
          "time": 147.29715000000002,
          "velocity": 0.8031496062992126
        },
        {
          "duration": 0.03378374999999778,
          "durationTicks": 24,
          "midi": 82,
          "name": "A#5",
          "ticks": 105888,
          "time": 149.05390500000001,
          "velocity": 0.8188976377952756
        },
        {
          "duration": 0.03378374999999778,
          "durationTicks": 24,
          "midi": 82,
          "name": "A#5",
          "ticks": 106176,
          "time": 149.45931000000002,
          "velocity": 0.8582677165354331
        },
        {
          "duration": 0.03378374999999778,
          "durationTicks": 24,
          "midi": 82,
          "name": "A#5",
          "ticks": 107328,
          "time": 151.08093,
          "velocity": 0.7401574803149606
        },
        {
          "duration": 0.03378374999999778,
          "durationTicks": 24,
          "midi": 82,
          "name": "A#5",
          "ticks": 107424,
          "time": 151.21606500000001,
          "velocity": 0.8346456692913385
        },
        {
          "duration": 0.03378374999999778,
          "durationTicks": 24,
          "midi": 82,
          "name": "A#5",
          "ticks": 107520,
          "time": 151.3512,
          "velocity": 0.889763779527559
        },
        {
          "duration": 0.03378374999999778,
          "durationTicks": 24,
          "midi": 82,
          "name": "A#5",
          "ticks": 107712,
          "time": 151.62147000000002,
          "velocity": 0.8031496062992126
        },
        {
          "duration": 0.03378374999999778,
          "durationTicks": 24,
          "midi": 82,
          "name": "A#5",
          "ticks": 108960,
          "time": 153.37822500000001,
          "velocity": 0.8188976377952756
        },
        {
          "duration": 0.03378374999999778,
          "durationTicks": 24,
          "midi": 82,
          "name": "A#5",
          "ticks": 109248,
          "time": 153.78363000000002,
          "velocity": 0.8582677165354331
        },
        {
          "duration": 0.03378374999999778,
          "durationTicks": 24,
          "midi": 82,
          "name": "A#5",
          "ticks": 110400,
          "time": 155.40525,
          "velocity": 0.7401574803149606
        },
        {
          "duration": 0.03378374999999778,
          "durationTicks": 24,
          "midi": 82,
          "name": "A#5",
          "ticks": 110496,
          "time": 155.54038500000001,
          "velocity": 0.8346456692913385
        },
        {
          "duration": 0.03378374999999778,
          "durationTicks": 24,
          "midi": 82,
          "name": "A#5",
          "ticks": 110592,
          "time": 155.67552,
          "velocity": 0.889763779527559
        },
        {
          "duration": 0.03378374999999778,
          "durationTicks": 24,
          "midi": 82,
          "name": "A#5",
          "ticks": 110784,
          "time": 155.94579000000002,
          "velocity": 0.8031496062992126
        },
        {
          "duration": 0.03378374999999778,
          "durationTicks": 24,
          "midi": 82,
          "name": "A#5",
          "ticks": 112032,
          "time": 157.70254500000001,
          "velocity": 0.8188976377952756
        },
        {
          "duration": 0.03378374999999778,
          "durationTicks": 24,
          "midi": 82,
          "name": "A#5",
          "ticks": 112320,
          "time": 158.10795000000002,
          "velocity": 0.8582677165354331
        },
        {
          "duration": 0.03378374999999778,
          "durationTicks": 24,
          "midi": 82,
          "name": "A#5",
          "ticks": 113472,
          "time": 159.72957,
          "velocity": 0.7401574803149606
        },
        {
          "duration": 0.03378374999999778,
          "durationTicks": 24,
          "midi": 82,
          "name": "A#5",
          "ticks": 113568,
          "time": 159.86470500000001,
          "velocity": 0.8346456692913385
        },
        {
          "duration": 0.03378374999999778,
          "durationTicks": 24,
          "midi": 82,
          "name": "A#5",
          "ticks": 113664,
          "time": 159.99984,
          "velocity": 0.889763779527559
        },
        {
          "duration": 0.03378374999999778,
          "durationTicks": 24,
          "midi": 82,
          "name": "A#5",
          "ticks": 113856,
          "time": 160.27011000000002,
          "velocity": 0.8031496062992126
        },
        {
          "duration": 0.03378374999999778,
          "durationTicks": 24,
          "midi": 82,
          "name": "A#5",
          "ticks": 115104,
          "time": 162.02686500000002,
          "velocity": 0.8188976377952756
        },
        {
          "duration": 0.03378374999999778,
          "durationTicks": 24,
          "midi": 82,
          "name": "A#5",
          "ticks": 115392,
          "time": 162.43227000000002,
          "velocity": 0.8582677165354331
        },
        {
          "duration": 0.03378374999999778,
          "durationTicks": 24,
          "midi": 82,
          "name": "A#5",
          "ticks": 116544,
          "time": 164.05389,
          "velocity": 0.7401574803149606
        },
        {
          "duration": 0.03378374999999778,
          "durationTicks": 24,
          "midi": 82,
          "name": "A#5",
          "ticks": 116640,
          "time": 164.18902500000002,
          "velocity": 0.8346456692913385
        },
        {
          "duration": 0.03378374999999778,
          "durationTicks": 24,
          "midi": 82,
          "name": "A#5",
          "ticks": 116736,
          "time": 164.32416,
          "velocity": 0.889763779527559
        },
        {
          "duration": 0.03378374999999778,
          "durationTicks": 24,
          "midi": 82,
          "name": "A#5",
          "ticks": 116928,
          "time": 164.59443000000002,
          "velocity": 0.8031496062992126
        },
        {
          "duration": 0.03378374999999778,
          "durationTicks": 24,
          "midi": 82,
          "name": "A#5",
          "ticks": 118176,
          "time": 166.35118500000002,
          "velocity": 0.8188976377952756
        },
        {
          "duration": 0.03378374999999778,
          "durationTicks": 24,
          "midi": 82,
          "name": "A#5",
          "ticks": 118464,
          "time": 166.75659000000002,
          "velocity": 0.8582677165354331
        },
        {
          "duration": 0.03378374999999778,
          "durationTicks": 24,
          "midi": 82,
          "name": "A#5",
          "ticks": 119616,
          "time": 168.37821,
          "velocity": 0.7401574803149606
        },
        {
          "duration": 0.03378374999999778,
          "durationTicks": 24,
          "midi": 82,
          "name": "A#5",
          "ticks": 119712,
          "time": 168.51334500000002,
          "velocity": 0.8346456692913385
        },
        {
          "duration": 0.03378374999999778,
          "durationTicks": 24,
          "midi": 82,
          "name": "A#5",
          "ticks": 119808,
          "time": 168.64848,
          "velocity": 0.889763779527559
        },
        {
          "duration": 0.03378374999999778,
          "durationTicks": 24,
          "midi": 82,
          "name": "A#5",
          "ticks": 120000,
          "time": 168.91875000000002,
          "velocity": 0.8031496062992126
        },
        {
          "duration": 0.03378374999999778,
          "durationTicks": 24,
          "midi": 82,
          "name": "A#5",
          "ticks": 121248,
          "time": 170.67550500000002,
          "velocity": 0.8188976377952756
        },
        {
          "duration": 0.03378374999999778,
          "durationTicks": 24,
          "midi": 82,
          "name": "A#5",
          "ticks": 121536,
          "time": 171.08091000000002,
          "velocity": 0.8582677165354331
        },
        {
          "duration": 0.03378374999999778,
          "durationTicks": 24,
          "midi": 82,
          "name": "A#5",
          "ticks": 122688,
          "time": 172.70253,
          "velocity": 0.7401574803149606
        },
        {
          "duration": 0.03378374999999778,
          "durationTicks": 24,
          "midi": 82,
          "name": "A#5",
          "ticks": 122784,
          "time": 172.83766500000002,
          "velocity": 0.8346456692913385
        },
        {
          "duration": 0.03378374999999778,
          "durationTicks": 24,
          "midi": 82,
          "name": "A#5",
          "ticks": 122880,
          "time": 172.9728,
          "velocity": 0.889763779527559
        },
        {
          "duration": 0.03378374999999778,
          "durationTicks": 24,
          "midi": 82,
          "name": "A#5",
          "ticks": 123072,
          "time": 173.24307000000002,
          "velocity": 0.8031496062992126
        },
        {
          "duration": 0.03378374999999778,
          "durationTicks": 24,
          "midi": 82,
          "name": "A#5",
          "ticks": 124320,
          "time": 174.99982500000002,
          "velocity": 0.8188976377952756
        },
        {
          "duration": 0.03378374999999778,
          "durationTicks": 24,
          "midi": 82,
          "name": "A#5",
          "ticks": 124608,
          "time": 175.40523000000002,
          "velocity": 0.8582677165354331
        },
        {
          "duration": 0.03378374999999778,
          "durationTicks": 24,
          "midi": 82,
          "name": "A#5",
          "ticks": 125760,
          "time": 177.02685,
          "velocity": 0.7401574803149606
        },
        {
          "duration": 0.03378374999999778,
          "durationTicks": 24,
          "midi": 82,
          "name": "A#5",
          "ticks": 125856,
          "time": 177.16198500000002,
          "velocity": 0.8346456692913385
        },
        {
          "duration": 0.03378374999999778,
          "durationTicks": 24,
          "midi": 82,
          "name": "A#5",
          "ticks": 125952,
          "time": 177.29712,
          "velocity": 0.889763779527559
        },
        {
          "duration": 0.03378374999999778,
          "durationTicks": 24,
          "midi": 82,
          "name": "A#5",
          "ticks": 126144,
          "time": 177.56739000000002,
          "velocity": 0.8031496062992126
        },
        {
          "duration": 0.03378374999999778,
          "durationTicks": 24,
          "midi": 82,
          "name": "A#5",
          "ticks": 127392,
          "time": 179.32414500000002,
          "velocity": 0.8188976377952756
        },
        {
          "duration": 0.03378374999999778,
          "durationTicks": 24,
          "midi": 82,
          "name": "A#5",
          "ticks": 127680,
          "time": 179.72955000000002,
          "velocity": 0.8582677165354331
        },
        {
          "duration": 0.03378374999999778,
          "durationTicks": 24,
          "midi": 82,
          "name": "A#5",
          "ticks": 128832,
          "time": 181.35117,
          "velocity": 0.7401574803149606
        },
        {
          "duration": 0.03378374999999778,
          "durationTicks": 24,
          "midi": 82,
          "name": "A#5",
          "ticks": 128928,
          "time": 181.48630500000002,
          "velocity": 0.8346456692913385
        },
        {
          "duration": 0.03378374999999778,
          "durationTicks": 24,
          "midi": 82,
          "name": "A#5",
          "ticks": 129024,
          "time": 181.62144,
          "velocity": 0.889763779527559
        },
        {
          "duration": 0.03378374999999778,
          "durationTicks": 24,
          "midi": 82,
          "name": "A#5",
          "ticks": 129216,
          "time": 181.89171000000002,
          "velocity": 0.8031496062992126
        },
        {
          "duration": 0.03378374999999778,
          "durationTicks": 24,
          "midi": 82,
          "name": "A#5",
          "ticks": 130464,
          "time": 183.64846500000002,
          "velocity": 0.8188976377952756
        },
        {
          "duration": 0.03378374999999778,
          "durationTicks": 24,
          "midi": 82,
          "name": "A#5",
          "ticks": 130752,
          "time": 184.05387000000002,
          "velocity": 0.8582677165354331
        },
        {
          "duration": 0.03378374999999778,
          "durationTicks": 24,
          "midi": 82,
          "name": "A#5",
          "ticks": 131904,
          "time": 185.67549,
          "velocity": 0.7401574803149606
        },
        {
          "duration": 0.03378374999999778,
          "durationTicks": 24,
          "midi": 82,
          "name": "A#5",
          "ticks": 132000,
          "time": 185.81062500000002,
          "velocity": 0.8346456692913385
        },
        {
          "duration": 0.03378374999999778,
          "durationTicks": 24,
          "midi": 82,
          "name": "A#5",
          "ticks": 132096,
          "time": 185.94576,
          "velocity": 0.889763779527559
        },
        {
          "duration": 0.03378374999999778,
          "durationTicks": 24,
          "midi": 82,
          "name": "A#5",
          "ticks": 132288,
          "time": 186.21603000000002,
          "velocity": 0.8031496062992126
        },
        {
          "duration": 0.03378374999999778,
          "durationTicks": 24,
          "midi": 82,
          "name": "A#5",
          "ticks": 133536,
          "time": 187.97278500000002,
          "velocity": 0.8188976377952756
        },
        {
          "duration": 0.03378374999999778,
          "durationTicks": 24,
          "midi": 82,
          "name": "A#5",
          "ticks": 133824,
          "time": 188.37819000000002,
          "velocity": 0.8582677165354331
        },
        {
          "duration": 0.03378374999999778,
          "durationTicks": 24,
          "midi": 82,
          "name": "A#5",
          "ticks": 134976,
          "time": 189.99981,
          "velocity": 0.7401574803149606
        },
        {
          "duration": 0.03378374999999778,
          "durationTicks": 24,
          "midi": 82,
          "name": "A#5",
          "ticks": 135072,
          "time": 190.13494500000002,
          "velocity": 0.8346456692913385
        },
        {
          "duration": 0.03378374999999778,
          "durationTicks": 24,
          "midi": 82,
          "name": "A#5",
          "ticks": 135168,
          "time": 190.27008,
          "velocity": 0.889763779527559
        },
        {
          "duration": 0.03378374999999778,
          "durationTicks": 24,
          "midi": 82,
          "name": "A#5",
          "ticks": 135360,
          "time": 190.54035000000002,
          "velocity": 0.8031496062992126
        },
        {
          "duration": 0.03378374999999778,
          "durationTicks": 24,
          "midi": 82,
          "name": "A#5",
          "ticks": 136608,
          "time": 192.29710500000002,
          "velocity": 0.8188976377952756
        },
        {
          "duration": 0.03378374999999778,
          "durationTicks": 24,
          "midi": 82,
          "name": "A#5",
          "ticks": 136896,
          "time": 192.70251000000002,
          "velocity": 0.8582677165354331
        },
        {
          "duration": 0.03378374999999778,
          "durationTicks": 24,
          "midi": 82,
          "name": "A#5",
          "ticks": 138048,
          "time": 194.32413,
          "velocity": 0.7401574803149606
        },
        {
          "duration": 0.03378374999999778,
          "durationTicks": 24,
          "midi": 82,
          "name": "A#5",
          "ticks": 138144,
          "time": 194.45926500000002,
          "velocity": 0.8346456692913385
        },
        {
          "duration": 0.03378374999999778,
          "durationTicks": 24,
          "midi": 82,
          "name": "A#5",
          "ticks": 138240,
          "time": 194.5944,
          "velocity": 0.889763779527559
        },
        {
          "duration": 0.03378374999999778,
          "durationTicks": 24,
          "midi": 82,
          "name": "A#5",
          "ticks": 138432,
          "time": 194.86467000000002,
          "velocity": 0.8031496062992126
        },
        {
          "duration": 0.03378374999999778,
          "durationTicks": 24,
          "midi": 82,
          "name": "A#5",
          "ticks": 139680,
          "time": 196.62142500000002,
          "velocity": 0.8188976377952756
        },
        {
          "duration": 0.03378374999999778,
          "durationTicks": 24,
          "midi": 82,
          "name": "A#5",
          "ticks": 139968,
          "time": 197.02683000000002,
          "velocity": 0.8582677165354331
        },
        {
          "duration": 0.03378374999999778,
          "durationTicks": 24,
          "midi": 82,
          "name": "A#5",
          "ticks": 141120,
          "time": 198.64845,
          "velocity": 0.7401574803149606
        },
        {
          "duration": 0.03378374999999778,
          "durationTicks": 24,
          "midi": 82,
          "name": "A#5",
          "ticks": 141216,
          "time": 198.78358500000002,
          "velocity": 0.8346456692913385
        },
        {
          "duration": 0.03378374999999778,
          "durationTicks": 24,
          "midi": 82,
          "name": "A#5",
          "ticks": 141312,
          "time": 198.91872,
          "velocity": 0.889763779527559
        },
        {
          "duration": 0.03378374999999778,
          "durationTicks": 24,
          "midi": 82,
          "name": "A#5",
          "ticks": 141504,
          "time": 199.18899000000002,
          "velocity": 0.8031496062992126
        },
        {
          "duration": 0.03378374999999778,
          "durationTicks": 24,
          "midi": 82,
          "name": "A#5",
          "ticks": 142752,
          "time": 200.94574500000002,
          "velocity": 0.8188976377952756
        },
        {
          "duration": 0.03378374999999778,
          "durationTicks": 24,
          "midi": 82,
          "name": "A#5",
          "ticks": 143040,
          "time": 201.35115000000002,
          "velocity": 0.8582677165354331
        },
        {
          "duration": 0.03378374999999778,
          "durationTicks": 24,
          "midi": 82,
          "name": "A#5",
          "ticks": 144192,
          "time": 202.97277,
          "velocity": 0.7401574803149606
        },
        {
          "duration": 0.03378374999999778,
          "durationTicks": 24,
          "midi": 82,
          "name": "A#5",
          "ticks": 144288,
          "time": 203.10790500000002,
          "velocity": 0.8346456692913385
        },
        {
          "duration": 0.03378374999999778,
          "durationTicks": 24,
          "midi": 82,
          "name": "A#5",
          "ticks": 144384,
          "time": 203.24304,
          "velocity": 0.889763779527559
        },
        {
          "duration": 0.03378374999999778,
          "durationTicks": 24,
          "midi": 82,
          "name": "A#5",
          "ticks": 144576,
          "time": 203.51331000000002,
          "velocity": 0.8031496062992126
        },
        {
          "duration": 0.03378374999999778,
          "durationTicks": 24,
          "midi": 82,
          "name": "A#5",
          "ticks": 145824,
          "time": 205.27006500000002,
          "velocity": 0.8188976377952756
        },
        {
          "duration": 0.03378374999999778,
          "durationTicks": 24,
          "midi": 82,
          "name": "A#5",
          "ticks": 146112,
          "time": 205.67547000000002,
          "velocity": 0.8582677165354331
        },
        {
          "duration": 0.03378374999999778,
          "durationTicks": 24,
          "midi": 82,
          "name": "A#5",
          "ticks": 147264,
          "time": 207.29709,
          "velocity": 0.7401574803149606
        },
        {
          "duration": 0.03378374999999778,
          "durationTicks": 24,
          "midi": 82,
          "name": "A#5",
          "ticks": 147360,
          "time": 207.43222500000002,
          "velocity": 0.8346456692913385
        },
        {
          "duration": 0.03378374999999778,
          "durationTicks": 24,
          "midi": 82,
          "name": "A#5",
          "ticks": 147456,
          "time": 207.56736,
          "velocity": 0.889763779527559
        },
        {
          "duration": 0.03378374999999778,
          "durationTicks": 24,
          "midi": 82,
          "name": "A#5",
          "ticks": 147648,
          "time": 207.83763000000002,
          "velocity": 0.8031496062992126
        },
        {
          "duration": 0.03378374999999778,
          "durationTicks": 24,
          "midi": 82,
          "name": "A#5",
          "ticks": 148896,
          "time": 209.59438500000002,
          "velocity": 0.8188976377952756
        },
        {
          "duration": 0.03378374999999778,
          "durationTicks": 24,
          "midi": 82,
          "name": "A#5",
          "ticks": 149184,
          "time": 209.99979000000002,
          "velocity": 0.8582677165354331
        },
        {
          "duration": 0.03378374999999778,
          "durationTicks": 24,
          "midi": 82,
          "name": "A#5",
          "ticks": 150336,
          "time": 211.62141,
          "velocity": 0.7401574803149606
        },
        {
          "duration": 0.03378374999999778,
          "durationTicks": 24,
          "midi": 82,
          "name": "A#5",
          "ticks": 150432,
          "time": 211.75654500000002,
          "velocity": 0.8346456692913385
        },
        {
          "duration": 0.03378374999999778,
          "durationTicks": 24,
          "midi": 82,
          "name": "A#5",
          "ticks": 150528,
          "time": 211.89168,
          "velocity": 0.889763779527559
        },
        {
          "duration": 0.03378374999999778,
          "durationTicks": 24,
          "midi": 82,
          "name": "A#5",
          "ticks": 150720,
          "time": 212.16195000000002,
          "velocity": 0.8031496062992126
        }
      ]
    },
    {
      "channel": 0,
      "controlChanges": {
        "0": [
          {
            "number": 0,
            "ticks": 448,
            "time": 0.63063,
            "value": 0
          }
        ],
        "32": [
          {
            "number": 32,
            "ticks": 452,
            "time": 0.636260625,
            "value": 0
          }
        ],
        "121": [
          {
            "number": 121,
            "ticks": 384,
            "time": 0.54054,
            "value": 0
          }
        ]
      },
      "pitchBends": [],
      "instrument": {
        "family": "piano",
        "name": "acoustic grand piano",
        "number": 0
      },
      "name": "E.Piano  ",
      "notes": []
    },
    {
      "channel": 0,
      "controlChanges": {
        "6": [
          {
            "number": 6,
            "ticks": 1156,
            "time": 1.627250625,
            "value": 0.015748031496062992
          },
          {
            "number": 6,
            "ticks": 1168,
            "time": 1.6441425,
            "value": 0.5039370078740157
          }
        ],
        "7": [
          {
            "number": 7,
            "ticks": 460,
            "time": 0.647521875,
            "value": 1
          }
        ],
        "10": [
          {
            "number": 10,
            "ticks": 464,
            "time": 0.6531525,
            "value": 0.6929133858267716
          }
        ],
        "11": [
          {
            "number": 11,
            "ticks": 468,
            "time": 0.658783125,
            "value": 1
          }
        ],
        "91": [
          {
            "number": 91,
            "ticks": 472,
            "time": 0.66441375,
            "value": 0.5511811023622047
          }
        ],
        "93": [
          {
            "number": 93,
            "ticks": 476,
            "time": 0.670044375,
            "value": 1
          }
        ],
        "100": [
          {
            "number": 100,
            "ticks": 1152,
            "time": 1.62162,
            "value": 0
          },
          {
            "number": 100,
            "ticks": 1164,
            "time": 1.638511875,
            "value": 0.015748031496062992
          },
          {
            "number": 100,
            "ticks": 1176,
            "time": 1.65540375,
            "value": 1
          }
        ],
        "101": [
          {
            "number": 101,
            "ticks": 1148,
            "time": 1.615989375,
            "value": 0
          },
          {
            "number": 101,
            "ticks": 1160,
            "time": 1.63288125,
            "value": 0
          },
          {
            "number": 101,
            "ticks": 1172,
            "time": 1.649773125,
            "value": 1
          }
        ]
      },
      "pitchBends": [],
      "instrument": {
        "family": "piano",
        "name": "electric piano 2",
        "number": 5
      },
      "name": "",
      "notes": [
        {
          "duration": 0.4335581250000011,
          "durationTicks": 308,
          "midi": 66,
          "name": "F#4",
          "ticks": 18432,
          "time": 25.94592,
          "velocity": 0.5669291338582677
        },
        {
          "duration": 0.447634687499999,
          "durationTicks": 318,
          "midi": 62,
          "name": "D4",
          "ticks": 18432,
          "time": 25.94592,
          "velocity": 0.5354330708661418
        },
        {
          "duration": 0.4054050000000018,
          "durationTicks": 288,
          "midi": 66,
          "name": "F#4",
          "ticks": 21504,
          "time": 30.27024,
          "velocity": 0.5196850393700787
        },
        {
          "duration": 0.4335581250000011,
          "durationTicks": 308,
          "midi": 62,
          "name": "D4",
          "ticks": 21504,
          "time": 30.27024,
          "velocity": 0.49606299212598426
        },
        {
          "duration": 0.4054050000000018,
          "durationTicks": 288,
          "midi": 66,
          "name": "F#4",
          "ticks": 24576,
          "time": 34.59456,
          "velocity": 0.5354330708661418
        },
        {
          "duration": 0.4054050000000018,
          "durationTicks": 288,
          "midi": 62,
          "name": "D4",
          "ticks": 24576,
          "time": 34.59456,
          "velocity": 0.49606299212598426
        },
        {
          "duration": 0.4335581249999976,
          "durationTicks": 308,
          "midi": 62,
          "name": "D4",
          "ticks": 27648,
          "time": 38.91888,
          "velocity": 0.4881889763779528
        },
        {
          "duration": 0.4222968750000007,
          "durationTicks": 300,
          "midi": 66,
          "name": "F#4",
          "ticks": 27648,
          "time": 38.91888,
          "velocity": 0.5196850393700787
        },
        {
          "duration": 0.5715084375000004,
          "durationTicks": 406,
          "midi": 66,
          "name": "F#4",
          "ticks": 29184,
          "time": 41.08104,
          "velocity": 0.5354330708661418
        },
        {
          "duration": 0.5996615625000032,
          "durationTicks": 426,
          "midi": 57,
          "name": "A3",
          "ticks": 29184,
          "time": 41.08104,
          "velocity": 0.49606299212598426
        },
        {
          "duration": 0.5715084375000004,
          "durationTicks": 406,
          "midi": 62,
          "name": "D4",
          "ticks": 29184,
          "time": 41.08104,
          "velocity": 0.5748031496062992
        },
        {
          "duration": 0.8586703124999957,
          "durationTicks": 610,
          "midi": 55,
          "name": "G3",
          "ticks": 29760,
          "time": 41.891850000000005,
          "velocity": 0.49606299212598426
        },
        {
          "duration": 0.8614856249999931,
          "durationTicks": 612,
          "midi": 59,
          "name": "B3",
          "ticks": 29760,
          "time": 41.891850000000005,
          "velocity": 0.6062992125984252
        },
        {
          "duration": 0.8811928124999966,
          "durationTicks": 626,
          "midi": 62,
          "name": "D4",
          "ticks": 29760,
          "time": 41.891850000000005,
          "velocity": 0.49606299212598426
        },
        {
          "duration": 0.5123868750000042,
          "durationTicks": 364,
          "midi": 66,
          "name": "F#4",
          "ticks": 30720,
          "time": 43.2432,
          "velocity": 0.5511811023622047
        },
        {
          "duration": 0.5574318749999989,
          "durationTicks": 396,
          "midi": 59,
          "name": "B3",
          "ticks": 30720,
          "time": 43.2432,
          "velocity": 0.5511811023622047
        },
        {
          "duration": 0.5602471874999964,
          "durationTicks": 398,
          "midi": 62,
          "name": "D4",
          "ticks": 30720,
          "time": 43.2432,
          "velocity": 0.6062992125984252
        },
        {
          "duration": 0.9740981249999905,
          "durationTicks": 692,
          "midi": 61,
          "name": "C#4",
          "ticks": 31296,
          "time": 44.054010000000005,
          "velocity": 0.4409448818897638
        },
        {
          "duration": 0.9909899999999965,
          "durationTicks": 704,
          "midi": 64,
          "name": "E4",
          "ticks": 31296,
          "time": 44.054010000000005,
          "velocity": 0.49606299212598426
        },
        {
          "duration": 0.993805312500001,
          "durationTicks": 706,
          "midi": 57,
          "name": "A3",
          "ticks": 31296,
          "time": 44.054010000000005,
          "velocity": 0.4645669291338583
        },
        {
          "duration": 0.5658778124999984,
          "durationTicks": 402,
          "midi": 57,
          "name": "A3",
          "ticks": 32256,
          "time": 45.40536,
          "velocity": 0.5196850393700787
        },
        {
          "duration": 0.54054,
          "durationTicks": 384,
          "midi": 66,
          "name": "F#4",
          "ticks": 32256,
          "time": 45.40536,
          "velocity": 0.48031496062992124
        },
        {
          "duration": 0.546170625000002,
          "durationTicks": 388,
          "midi": 62,
          "name": "D4",
          "ticks": 32256,
          "time": 45.40536,
          "velocity": 0.5669291338582677
        },
        {
          "duration": 0.7854721874999981,
          "durationTicks": 558,
          "midi": 59,
          "name": "B3",
          "ticks": 32832,
          "time": 46.216170000000005,
          "velocity": 0.5905511811023622
        },
        {
          "duration": 0.7911028125000001,
          "durationTicks": 562,
          "midi": 55,
          "name": "G3",
          "ticks": 32832,
          "time": 46.216170000000005,
          "velocity": 0.5275590551181102
        },
        {
          "duration": 0.8051793749999945,
          "durationTicks": 572,
          "midi": 62,
          "name": "D4",
          "ticks": 32832,
          "time": 46.216170000000005,
          "velocity": 0.5984251968503937
        },
        {
          "duration": 0.4757878124999948,
          "durationTicks": 338,
          "midi": 62,
          "name": "D4",
          "ticks": 33792,
          "time": 47.56752,
          "velocity": 0.6220472440944882
        },
        {
          "duration": 0.4926796875000008,
          "durationTicks": 350,
          "midi": 59,
          "name": "B3",
          "ticks": 33792,
          "time": 47.56752,
          "velocity": 0.5118110236220472
        },
        {
          "duration": 0.46171125000000046,
          "durationTicks": 328,
          "midi": 66,
          "name": "F#4",
          "ticks": 33792,
          "time": 47.56752,
          "velocity": 0.5354330708661418
        },
        {
          "duration": 0.8305171874999928,
          "durationTicks": 590,
          "midi": 57,
          "name": "A3",
          "ticks": 34368,
          "time": 48.378330000000005,
          "velocity": 0.49606299212598426
        },
        {
          "duration": 0.8277018749999954,
          "durationTicks": 588,
          "midi": 61,
          "name": "C#4",
          "ticks": 34368,
          "time": 48.378330000000005,
          "velocity": 0.5118110236220472
        },
        {
          "duration": 0.8333324999999974,
          "durationTicks": 592,
          "midi": 64,
          "name": "E4",
          "ticks": 34368,
          "time": 48.378330000000005,
          "velocity": 0.5433070866141733
        },
        {
          "duration": 0.4926796875000008,
          "durationTicks": 350,
          "midi": 62,
          "name": "D4",
          "ticks": 35328,
          "time": 49.72968,
          "velocity": 0.6062992125984252
        },
        {
          "duration": 0.47860312499999935,
          "durationTicks": 340,
          "midi": 66,
          "name": "F#4",
          "ticks": 35328,
          "time": 49.72968,
          "velocity": 0.5354330708661418
        },
        {
          "duration": 0.5377246875000026,
          "durationTicks": 382,
          "midi": 57,
          "name": "A3",
          "ticks": 35328,
          "time": 49.72968,
          "velocity": 0.5118110236220472
        },
        {
          "duration": 0.7770262499999987,
          "durationTicks": 552,
          "midi": 59,
          "name": "B3",
          "ticks": 35904,
          "time": 50.540490000000005,
          "velocity": 0.5511811023622047
        },
        {
          "duration": 0.7770262499999987,
          "durationTicks": 552,
          "midi": 55,
          "name": "G3",
          "ticks": 35904,
          "time": 50.540490000000005,
          "velocity": 0.5039370078740157
        },
        {
          "duration": 0.796733437499995,
          "durationTicks": 566,
          "midi": 62,
          "name": "D4",
          "ticks": 35904,
          "time": 50.540490000000005,
          "velocity": 0.5669291338582677
        },
        {
          "duration": 0.4757878124999948,
          "durationTicks": 338,
          "midi": 66,
          "name": "F#4",
          "ticks": 36864,
          "time": 51.89184,
          "velocity": 0.5196850393700787
        },
        {
          "duration": 0.5067562500000022,
          "durationTicks": 360,
          "midi": 62,
          "name": "D4",
          "ticks": 36864,
          "time": 51.89184,
          "velocity": 0.5905511811023622
        },
        {
          "duration": 0.5377246875000026,
          "durationTicks": 382,
          "midi": 59,
          "name": "B3",
          "ticks": 36864,
          "time": 51.89184,
          "velocity": 0.49606299212598426
        },
        {
          "duration": 0.8164406249999985,
          "durationTicks": 580,
          "midi": 57,
          "name": "A3",
          "ticks": 37440,
          "time": 52.702650000000006,
          "velocity": 0.49606299212598426
        },
        {
          "duration": 0.8164406249999985,
          "durationTicks": 580,
          "midi": 64,
          "name": "E4",
          "ticks": 37440,
          "time": 52.702650000000006,
          "velocity": 0.5433070866141733
        },
        {
          "duration": 0.802364062499997,
          "durationTicks": 570,
          "midi": 61,
          "name": "C#4",
          "ticks": 37440,
          "time": 52.702650000000006,
          "velocity": 0.5354330708661418
        },
        {
          "duration": 0.5180174999999991,
          "durationTicks": 368,
          "midi": 57,
          "name": "A3",
          "ticks": 38400,
          "time": 54.054,
          "velocity": 0.5590551181102362
        },
        {
          "duration": 0.4645265624999979,
          "durationTicks": 330,
          "midi": 66,
          "name": "F#4",
          "ticks": 38400,
          "time": 54.054,
          "velocity": 0.5118110236220472
        },
        {
          "duration": 0.47860312499999935,
          "durationTicks": 340,
          "midi": 62,
          "name": "D4",
          "ticks": 38400,
          "time": 54.054,
          "velocity": 0.5984251968503937
        },
        {
          "duration": 0.7291659374999924,
          "durationTicks": 518,
          "midi": 62,
          "name": "D4",
          "ticks": 38976,
          "time": 54.864810000000006,
          "velocity": 0.5748031496062992
        },
        {
          "duration": 0.709458749999996,
          "durationTicks": 504,
          "midi": 59,
          "name": "B3",
          "ticks": 38976,
          "time": 54.864810000000006,
          "velocity": 0.5590551181102362
        },
        {
          "duration": 0.7122740624999935,
          "durationTicks": 506,
          "midi": 55,
          "name": "G3",
          "ticks": 38976,
          "time": 54.864810000000006,
          "velocity": 0.5433070866141733
        },
        {
          "duration": 0.5067562500000022,
          "durationTicks": 360,
          "midi": 59,
          "name": "B3",
          "ticks": 39936,
          "time": 56.21616,
          "velocity": 0.49606299212598426
        },
        {
          "duration": 0.47860312499999935,
          "durationTicks": 340,
          "midi": 66,
          "name": "F#4",
          "ticks": 39936,
          "time": 56.21616,
          "velocity": 0.5354330708661418
        },
        {
          "duration": 0.4814184374999968,
          "durationTicks": 342,
          "midi": 62,
          "name": "D4",
          "ticks": 39936,
          "time": 56.21616,
          "velocity": 0.6299212598425197
        },
        {
          "duration": 0.8192559374999959,
          "durationTicks": 582,
          "midi": 57,
          "name": "A3",
          "ticks": 40512,
          "time": 57.026970000000006,
          "velocity": 0.5354330708661418
        },
        {
          "duration": 0.802364062499997,
          "durationTicks": 570,
          "midi": 61,
          "name": "C#4",
          "ticks": 40512,
          "time": 57.026970000000006,
          "velocity": 0.5826771653543307
        },
        {
          "duration": 0.8474090624999917,
          "durationTicks": 602,
          "midi": 64,
          "name": "E4",
          "ticks": 40512,
          "time": 57.026970000000006,
          "velocity": 0.5748031496062992
        },
        {
          "duration": 0.349098749999996,
          "durationTicks": 248,
          "midi": 62,
          "name": "D4",
          "ticks": 41472,
          "time": 58.37832,
          "velocity": 0.6299212598425197
        },
        {
          "duration": 0.3659906249999949,
          "durationTicks": 260,
          "midi": 57,
          "name": "A3",
          "ticks": 41472,
          "time": 58.37832,
          "velocity": 0.5984251968503937
        },
        {
          "duration": 0.3350221875000017,
          "durationTicks": 238,
          "midi": 66,
          "name": "F#4",
          "ticks": 41472,
          "time": 58.37832,
          "velocity": 0.6141732283464567
        },
        {
          "duration": 0.29842312499999935,
          "durationTicks": 212,
          "midi": 66,
          "name": "F#4",
          "ticks": 41856,
          "time": 58.91886,
          "velocity": 0.6141732283464567
        },
        {
          "duration": 0.3293915624999997,
          "durationTicks": 234,
          "midi": 62,
          "name": "D4",
          "ticks": 41856,
          "time": 58.91886,
          "velocity": 0.6850393700787402
        },
        {
          "duration": 0.34628343749999857,
          "durationTicks": 246,
          "midi": 57,
          "name": "A3",
          "ticks": 41856,
          "time": 58.91886,
          "velocity": 0.6456692913385826
        },
        {
          "duration": 0.15765749999999912,
          "durationTicks": 112,
          "midi": 55,
          "name": "G3",
          "ticks": 42240,
          "time": 59.4594,
          "velocity": 0.7007874015748031
        },
        {
          "duration": 0.12950437499999623,
          "durationTicks": 92,
          "midi": 62,
          "name": "D4",
          "ticks": 42240,
          "time": 59.4594,
          "velocity": 0.7165354330708661
        },
        {
          "duration": 0.12950437499999623,
          "durationTicks": 92,
          "midi": 59,
          "name": "B3",
          "ticks": 42240,
          "time": 59.4594,
          "velocity": 0.7401574803149606
        },
        {
          "duration": 0.2533781250000047,
          "durationTicks": 180,
          "midi": 59,
          "name": "B3",
          "ticks": 42432,
          "time": 59.72967,
          "velocity": 0.6692913385826772
        },
        {
          "duration": 0.28716187500000245,
          "durationTicks": 204,
          "midi": 62,
          "name": "D4",
          "ticks": 42432,
          "time": 59.72967,
          "velocity": 0.6535433070866141
        },
        {
          "duration": 0.2561934375000021,
          "durationTicks": 182,
          "midi": 55,
          "name": "G3",
          "ticks": 42432,
          "time": 59.72967,
          "velocity": 0.5511811023622047
        },
        {
          "duration": 0.2027025000000009,
          "durationTicks": 144,
          "midi": 59,
          "name": "B3",
          "ticks": 43008,
          "time": 60.54048,
          "velocity": 0.7007874015748031
        },
        {
          "duration": 0.13231968750000078,
          "durationTicks": 94,
          "midi": 66,
          "name": "F#4",
          "ticks": 43008,
          "time": 60.54048,
          "velocity": 0.6141732283464567
        },
        {
          "duration": 0.191441250000004,
          "durationTicks": 136,
          "midi": 62,
          "name": "D4",
          "ticks": 43008,
          "time": 60.54048,
          "velocity": 0.7559055118110236
        },
        {
          "duration": 0.17736468750000256,
          "durationTicks": 126,
          "midi": 62,
          "name": "D4",
          "ticks": 43200,
          "time": 60.81075,
          "velocity": 0.7007874015748031
        },
        {
          "duration": 0.1970718749999989,
          "durationTicks": 140,
          "midi": 66,
          "name": "F#4",
          "ticks": 43200,
          "time": 60.81075,
          "velocity": 0.6771653543307087
        },
        {
          "duration": 0.2252250000000089,
          "durationTicks": 160,
          "midi": 59,
          "name": "B3",
          "ticks": 43200,
          "time": 60.81075,
          "velocity": 0.6692913385826772
        },
        {
          "duration": 0.9487603124999922,
          "durationTicks": 674,
          "midi": 64,
          "name": "E4",
          "ticks": 43584,
          "time": 61.351290000000006,
          "velocity": 0.6850393700787402
        },
        {
          "duration": 0.9318684374999933,
          "durationTicks": 662,
          "midi": 61,
          "name": "C#4",
          "ticks": 43584,
          "time": 61.351290000000006,
          "velocity": 0.7322834645669292
        },
        {
          "duration": 0.9487603124999922,
          "durationTicks": 674,
          "midi": 57,
          "name": "A3",
          "ticks": 43584,
          "time": 61.351290000000006,
          "velocity": 0.6535433070866141
        },
        {
          "duration": 0.38569781250000545,
          "durationTicks": 274,
          "midi": 66,
          "name": "F#4",
          "ticks": 44544,
          "time": 62.70264,
          "velocity": 0.6535433070866141
        },
        {
          "duration": 0.3885131250000029,
          "durationTicks": 276,
          "midi": 62,
          "name": "D4",
          "ticks": 44544,
          "time": 62.70264,
          "velocity": 0.7559055118110236
        },
        {
          "duration": 0.4054050000000018,
          "durationTicks": 288,
          "midi": 57,
          "name": "A3",
          "ticks": 44544,
          "time": 62.70264,
          "velocity": 0.6692913385826772
        },
        {
          "duration": 0.2899771874999999,
          "durationTicks": 206,
          "midi": 66,
          "name": "F#4",
          "ticks": 44928,
          "time": 63.24318,
          "velocity": 0.6771653543307087
        },
        {
          "duration": 0.3068690624999988,
          "durationTicks": 218,
          "midi": 62,
          "name": "D4",
          "ticks": 44928,
          "time": 63.24318,
          "velocity": 0.7716535433070866
        },
        {
          "duration": 0.32094562500000023,
          "durationTicks": 228,
          "midi": 57,
          "name": "A3",
          "ticks": 44928,
          "time": 63.24318,
          "velocity": 0.7007874015748031
        },
        {
          "duration": 0.191441250000004,
          "durationTicks": 136,
          "midi": 55,
          "name": "G3",
          "ticks": 45312,
          "time": 63.78372,
          "velocity": 0.6850393700787402
        },
        {
          "duration": 0.17736468750000256,
          "durationTicks": 126,
          "midi": 59,
          "name": "B3",
          "ticks": 45312,
          "time": 63.78372,
          "velocity": 0.7401574803149606
        },
        {
          "duration": 0.16047281249999656,
          "durationTicks": 114,
          "midi": 62,
          "name": "D4",
          "ticks": 45312,
          "time": 63.78372,
          "velocity": 0.7165354330708661
        },
        {
          "duration": 0.21114843750000034,
          "durationTicks": 150,
          "midi": 59,
          "name": "B3",
          "ticks": 45504,
          "time": 64.05399,
          "velocity": 0.7165354330708661
        },
        {
          "duration": 0.2139637500000049,
          "durationTicks": 152,
          "midi": 55,
          "name": "G3",
          "ticks": 45504,
          "time": 64.05399,
          "velocity": 0.6456692913385826
        },
        {
          "duration": 0.21677906250000945,
          "durationTicks": 154,
          "midi": 62,
          "name": "D4",
          "ticks": 45504,
          "time": 64.05399,
          "velocity": 0.7401574803149606
        },
        {
          "duration": 0.1801799999999929,
          "durationTicks": 128,
          "midi": 66,
          "name": "F#4",
          "ticks": 46080,
          "time": 64.8648,
          "velocity": 0.6771653543307087
        },
        {
          "duration": 0.18299531249999745,
          "durationTicks": 130,
          "midi": 62,
          "name": "D4",
          "ticks": 46080,
          "time": 64.8648,
          "velocity": 0.7716535433070866
        },
        {
          "duration": 0.185810625000002,
          "durationTicks": 132,
          "midi": 59,
          "name": "B3",
          "ticks": 46080,
          "time": 64.8648,
          "velocity": 0.7007874015748031
        },
        {
          "duration": 0.1914412500000111,
          "durationTicks": 136,
          "midi": 62,
          "name": "D4",
          "ticks": 46272,
          "time": 65.13507,
          "velocity": 0.7559055118110236
        },
        {
          "duration": 0.22804031249999923,
          "durationTicks": 162,
          "midi": 59,
          "name": "B3",
          "ticks": 46272,
          "time": 65.13507,
          "velocity": 0.7007874015748031
        },
        {
          "duration": 0.197071875000006,
          "durationTicks": 140,
          "midi": 66,
          "name": "F#4",
          "ticks": 46272,
          "time": 65.13507,
          "velocity": 0.7007874015748031
        },
        {
          "duration": 0.8924540624999935,
          "durationTicks": 634,
          "midi": 61,
          "name": "C#4",
          "ticks": 46656,
          "time": 65.67561,
          "velocity": 0.7322834645669292
        },
        {
          "duration": 0.9093459374999924,
          "durationTicks": 646,
          "midi": 64,
          "name": "E4",
          "ticks": 46656,
          "time": 65.67561,
          "velocity": 0.7165354330708661
        },
        {
          "duration": 0.895269374999998,
          "durationTicks": 636,
          "midi": 57,
          "name": "A3",
          "ticks": 46656,
          "time": 65.67561,
          "velocity": 0.6535433070866141
        },
        {
          "duration": 0.3350221875000017,
          "durationTicks": 238,
          "midi": 66,
          "name": "F#4",
          "ticks": 47616,
          "time": 67.02696,
          "velocity": 0.6771653543307087
        },
        {
          "duration": 0.33783750000000623,
          "durationTicks": 240,
          "midi": 62,
          "name": "D4",
          "ticks": 47616,
          "time": 67.02696,
          "velocity": 0.7401574803149606
        },
        {
          "duration": 0.3547293750000051,
          "durationTicks": 252,
          "midi": 57,
          "name": "A3",
          "ticks": 47616,
          "time": 67.02696,
          "velocity": 0.6535433070866141
        },
        {
          "duration": 0.33220687500001134,
          "durationTicks": 236,
          "midi": 62,
          "name": "D4",
          "ticks": 48000,
          "time": 67.5675,
          "velocity": 0.7559055118110236
        },
        {
          "duration": 0.3293915625000068,
          "durationTicks": 234,
          "midi": 66,
          "name": "F#4",
          "ticks": 48000,
          "time": 67.5675,
          "velocity": 0.6771653543307087
        },
        {
          "duration": 0.3490987500000102,
          "durationTicks": 248,
          "midi": 57,
          "name": "A3",
          "ticks": 48000,
          "time": 67.5675,
          "velocity": 0.6850393700787402
        },
        {
          "duration": 0.174549374999998,
          "durationTicks": 124,
          "midi": 59,
          "name": "B3",
          "ticks": 48384,
          "time": 68.10804,
          "velocity": 0.7716535433070866
        },
        {
          "duration": 0.1801799999999929,
          "durationTicks": 128,
          "midi": 62,
          "name": "D4",
          "ticks": 48384,
          "time": 68.10804,
          "velocity": 0.7559055118110236
        },
        {
          "duration": 0.1970718749999918,
          "durationTicks": 140,
          "midi": 55,
          "name": "G3",
          "ticks": 48384,
          "time": 68.10804,
          "velocity": 0.6850393700787402
        },
        {
          "duration": 0.21114843750000034,
          "durationTicks": 150,
          "midi": 59,
          "name": "B3",
          "ticks": 48576,
          "time": 68.37831,
          "velocity": 0.7007874015748031
        },
        {
          "duration": 0.22804031249999923,
          "durationTicks": 162,
          "midi": 55,
          "name": "G3",
          "ticks": 48576,
          "time": 68.37831,
          "velocity": 0.6299212598425197
        },
        {
          "duration": 0.22804031249999923,
          "durationTicks": 162,
          "midi": 62,
          "name": "D4",
          "ticks": 48576,
          "time": 68.37831,
          "velocity": 0.7165354330708661
        },
        {
          "duration": 0.17736468750000256,
          "durationTicks": 126,
          "midi": 62,
          "name": "D4",
          "ticks": 49152,
          "time": 69.18912,
          "velocity": 0.7401574803149606
        },
        {
          "duration": 0.19425656250000145,
          "durationTicks": 138,
          "midi": 59,
          "name": "B3",
          "ticks": 49152,
          "time": 69.18912,
          "velocity": 0.6220472440944882
        },
        {
          "duration": 0.17736468750000256,
          "durationTicks": 126,
          "midi": 66,
          "name": "F#4",
          "ticks": 49152,
          "time": 69.18912,
          "velocity": 0.6535433070866141
        },
        {
          "duration": 0.2083331249999958,
          "durationTicks": 148,
          "midi": 62,
          "name": "D4",
          "ticks": 49344,
          "time": 69.45939,
          "velocity": 0.7165354330708661
        },
        {
          "duration": 0.24211687499999357,
          "durationTicks": 172,
          "midi": 59,
          "name": "B3",
          "ticks": 49344,
          "time": 69.45939,
          "velocity": 0.6456692913385826
        },
        {
          "duration": 0.197071875000006,
          "durationTicks": 140,
          "midi": 66,
          "name": "F#4",
          "ticks": 49344,
          "time": 69.45939,
          "velocity": 0.6771653543307087
        },
        {
          "duration": 0.8671162499999951,
          "durationTicks": 616,
          "midi": 61,
          "name": "C#4",
          "ticks": 49728,
          "time": 69.99993,
          "velocity": 0.7007874015748031
        },
        {
          "duration": 0.8811928125000037,
          "durationTicks": 626,
          "midi": 64,
          "name": "E4",
          "ticks": 49728,
          "time": 69.99993,
          "velocity": 0.6850393700787402
        },
        {
          "duration": 0.8980846875000026,
          "durationTicks": 638,
          "midi": 57,
          "name": "A3",
          "ticks": 49728,
          "time": 69.99993,
          "velocity": 0.6535433070866141
        },
        {
          "duration": 0.3237609375000119,
          "durationTicks": 230,
          "midi": 66,
          "name": "F#4",
          "ticks": 50688,
          "time": 71.35128,
          "velocity": 0.6771653543307087
        },
        {
          "duration": 0.3237609375000119,
          "durationTicks": 230,
          "midi": 57,
          "name": "A3",
          "ticks": 50688,
          "time": 71.35128,
          "velocity": 0.6535433070866141
        },
        {
          "duration": 0.326576249999988,
          "durationTicks": 232,
          "midi": 62,
          "name": "D4",
          "ticks": 50688,
          "time": 71.35128,
          "velocity": 0.7401574803149606
        },
        {
          "duration": 0.306869062500013,
          "durationTicks": 218,
          "midi": 62,
          "name": "D4",
          "ticks": 51072,
          "time": 71.89182,
          "velocity": 0.7716535433070866
        },
        {
          "duration": 0.2899771875000141,
          "durationTicks": 206,
          "midi": 66,
          "name": "F#4",
          "ticks": 51072,
          "time": 71.89182,
          "velocity": 0.6535433070866141
        },
        {
          "duration": 0.32657625000000223,
          "durationTicks": 232,
          "midi": 57,
          "name": "A3",
          "ticks": 51072,
          "time": 71.89182,
          "velocity": 0.6692913385826772
        },
        {
          "duration": 0.18299531249999745,
          "durationTicks": 130,
          "midi": 62,
          "name": "D4",
          "ticks": 51456,
          "time": 72.43236,
          "velocity": 0.7165354330708661
        },
        {
          "duration": 0.18299531249999745,
          "durationTicks": 130,
          "midi": 59,
          "name": "B3",
          "ticks": 51456,
          "time": 72.43236,
          "velocity": 0.7165354330708661
        },
        {
          "duration": 0.2027025000000009,
          "durationTicks": 144,
          "midi": 55,
          "name": "G3",
          "ticks": 51456,
          "time": 72.43236,
          "velocity": 0.6692913385826772
        },
        {
          "duration": 0.22522499999999468,
          "durationTicks": 160,
          "midi": 62,
          "name": "D4",
          "ticks": 51648,
          "time": 72.70263,
          "velocity": 0.7007874015748031
        },
        {
          "duration": 0.2083331249999958,
          "durationTicks": 148,
          "midi": 59,
          "name": "B3",
          "ticks": 51648,
          "time": 72.70263,
          "velocity": 0.7007874015748031
        },
        {
          "duration": 0.2139637500000049,
          "durationTicks": 152,
          "midi": 55,
          "name": "G3",
          "ticks": 51648,
          "time": 72.70263,
          "velocity": 0.6220472440944882
        },
        {
          "duration": 0.16891875000000312,
          "durationTicks": 120,
          "midi": 59,
          "name": "B3",
          "ticks": 52224,
          "time": 73.51344,
          "velocity": 0.6692913385826772
        },
        {
          "duration": 0.15765749999999912,
          "durationTicks": 112,
          "midi": 62,
          "name": "D4",
          "ticks": 52224,
          "time": 73.51344,
          "velocity": 0.7165354330708661
        },
        {
          "duration": 0.14076562500000023,
          "durationTicks": 100,
          "midi": 66,
          "name": "F#4",
          "ticks": 52224,
          "time": 73.51344,
          "velocity": 0.6535433070866141
        },
        {
          "duration": 0.17736468750000256,
          "durationTicks": 126,
          "midi": 66,
          "name": "F#4",
          "ticks": 52416,
          "time": 73.78371,
          "velocity": 0.6141732283464567
        },
        {
          "duration": 0.21114843750000034,
          "durationTicks": 150,
          "midi": 59,
          "name": "B3",
          "ticks": 52416,
          "time": 73.78371,
          "velocity": 0.5669291338582677
        },
        {
          "duration": 0.18299531249999745,
          "durationTicks": 130,
          "midi": 62,
          "name": "D4",
          "ticks": 52416,
          "time": 73.78371,
          "velocity": 0.6850393700787402
        },
        {
          "duration": 0.7319812499999898,
          "durationTicks": 520,
          "midi": 61,
          "name": "C#4",
          "ticks": 52800,
          "time": 74.32425,
          "velocity": 0.6771653543307087
        },
        {
          "duration": 0.7629496874999973,
          "durationTicks": 542,
          "midi": 64,
          "name": "E4",
          "ticks": 52800,
          "time": 74.32425,
          "velocity": 0.6850393700787402
        },
        {
          "duration": 0.7488731249999887,
          "durationTicks": 532,
          "midi": 57,
          "name": "A3",
          "ticks": 52800,
          "time": 74.32425,
          "velocity": 0.6456692913385826
        },
        {
          "duration": 0.4335581250000047,
          "durationTicks": 308,
          "midi": 66,
          "name": "F#4",
          "ticks": 55296,
          "time": 77.83776,
          "velocity": 0.5669291338582677
        },
        {
          "duration": 0.447634687499999,
          "durationTicks": 318,
          "midi": 62,
          "name": "D4",
          "ticks": 55296,
          "time": 77.83776,
          "velocity": 0.5354330708661418
        },
        {
          "duration": 0.4054050000000018,
          "durationTicks": 288,
          "midi": 66,
          "name": "F#4",
          "ticks": 58368,
          "time": 82.16208,
          "velocity": 0.5196850393700787
        },
        {
          "duration": 0.4335581250000047,
          "durationTicks": 308,
          "midi": 62,
          "name": "D4",
          "ticks": 58368,
          "time": 82.16208,
          "velocity": 0.49606299212598426
        },
        {
          "duration": 0.4054050000000018,
          "durationTicks": 288,
          "midi": 66,
          "name": "F#4",
          "ticks": 61440,
          "time": 86.4864,
          "velocity": 0.5354330708661418
        },
        {
          "duration": 0.4054050000000018,
          "durationTicks": 288,
          "midi": 62,
          "name": "D4",
          "ticks": 61440,
          "time": 86.4864,
          "velocity": 0.49606299212598426
        },
        {
          "duration": 0.4335581250000047,
          "durationTicks": 308,
          "midi": 62,
          "name": "D4",
          "ticks": 64512,
          "time": 90.81072,
          "velocity": 0.4881889763779528
        },
        {
          "duration": 0.4222968750000007,
          "durationTicks": 300,
          "midi": 66,
          "name": "F#4",
          "ticks": 64512,
          "time": 90.81072,
          "velocity": 0.5196850393700787
        },
        {
          "duration": 0.5715084375000004,
          "durationTicks": 406,
          "midi": 66,
          "name": "F#4",
          "ticks": 66048,
          "time": 92.97288,
          "velocity": 0.5354330708661418
        },
        {
          "duration": 0.5996615625000032,
          "durationTicks": 426,
          "midi": 57,
          "name": "A3",
          "ticks": 66048,
          "time": 92.97288,
          "velocity": 0.49606299212598426
        },
        {
          "duration": 0.5715084375000004,
          "durationTicks": 406,
          "midi": 62,
          "name": "D4",
          "ticks": 66048,
          "time": 92.97288,
          "velocity": 0.5748031496062992
        },
        {
          "duration": 0.8586703124999957,
          "durationTicks": 610,
          "midi": 55,
          "name": "G3",
          "ticks": 66624,
          "time": 93.78369,
          "velocity": 0.49606299212598426
        },
        {
          "duration": 0.8614856250000003,
          "durationTicks": 612,
          "midi": 59,
          "name": "B3",
          "ticks": 66624,
          "time": 93.78369,
          "velocity": 0.6062992125984252
        },
        {
          "duration": 0.8811928125000037,
          "durationTicks": 626,
          "midi": 62,
          "name": "D4",
          "ticks": 66624,
          "time": 93.78369,
          "velocity": 0.49606299212598426
        },
        {
          "duration": 0.51238687499999,
          "durationTicks": 364,
          "midi": 66,
          "name": "F#4",
          "ticks": 67584,
          "time": 95.13504,
          "velocity": 0.5511811023622047
        },
        {
          "duration": 0.557431875000006,
          "durationTicks": 396,
          "midi": 59,
          "name": "B3",
          "ticks": 67584,
          "time": 95.13504,
          "velocity": 0.5511811023622047
        },
        {
          "duration": 0.5602471875000106,
          "durationTicks": 398,
          "midi": 62,
          "name": "D4",
          "ticks": 67584,
          "time": 95.13504,
          "velocity": 0.6062992125984252
        },
        {
          "duration": 0.9740981249999976,
          "durationTicks": 692,
          "midi": 61,
          "name": "C#4",
          "ticks": 68160,
          "time": 95.94585000000001,
          "velocity": 0.4409448818897638
        },
        {
          "duration": 0.9909899999999965,
          "durationTicks": 704,
          "midi": 64,
          "name": "E4",
          "ticks": 68160,
          "time": 95.94585000000001,
          "velocity": 0.49606299212598426
        },
        {
          "duration": 0.9938053124999868,
          "durationTicks": 706,
          "midi": 57,
          "name": "A3",
          "ticks": 68160,
          "time": 95.94585000000001,
          "velocity": 0.4645669291338583
        },
        {
          "duration": 0.5658778125000055,
          "durationTicks": 402,
          "midi": 57,
          "name": "A3",
          "ticks": 69120,
          "time": 97.2972,
          "velocity": 0.5196850393700787
        },
        {
          "duration": 0.5405399999999929,
          "durationTicks": 384,
          "midi": 66,
          "name": "F#4",
          "ticks": 69120,
          "time": 97.2972,
          "velocity": 0.48031496062992124
        },
        {
          "duration": 0.5461706249999878,
          "durationTicks": 388,
          "midi": 62,
          "name": "D4",
          "ticks": 69120,
          "time": 97.2972,
          "velocity": 0.5669291338582677
        },
        {
          "duration": 0.785472187499991,
          "durationTicks": 558,
          "midi": 59,
          "name": "B3",
          "ticks": 69696,
          "time": 98.10801000000001,
          "velocity": 0.5905511811023622
        },
        {
          "duration": 0.7911028124999859,
          "durationTicks": 562,
          "midi": 55,
          "name": "G3",
          "ticks": 69696,
          "time": 98.10801000000001,
          "velocity": 0.5275590551181102
        },
        {
          "duration": 0.8051793750000087,
          "durationTicks": 572,
          "midi": 62,
          "name": "D4",
          "ticks": 69696,
          "time": 98.10801000000001,
          "velocity": 0.5984251968503937
        },
        {
          "duration": 0.4757878125000019,
          "durationTicks": 338,
          "midi": 62,
          "name": "D4",
          "ticks": 70656,
          "time": 99.45936,
          "velocity": 0.6220472440944882
        },
        {
          "duration": 0.4926796875000008,
          "durationTicks": 350,
          "midi": 59,
          "name": "B3",
          "ticks": 70656,
          "time": 99.45936,
          "velocity": 0.5118110236220472
        },
        {
          "duration": 0.46171124999999336,
          "durationTicks": 328,
          "midi": 66,
          "name": "F#4",
          "ticks": 70656,
          "time": 99.45936,
          "velocity": 0.5354330708661418
        },
        {
          "duration": 0.830517187500007,
          "durationTicks": 590,
          "midi": 57,
          "name": "A3",
          "ticks": 71232,
          "time": 100.27017000000001,
          "velocity": 0.49606299212598426
        },
        {
          "duration": 0.8277018750000025,
          "durationTicks": 588,
          "midi": 61,
          "name": "C#4",
          "ticks": 71232,
          "time": 100.27017000000001,
          "velocity": 0.5118110236220472
        },
        {
          "duration": 0.8333324999999974,
          "durationTicks": 592,
          "midi": 64,
          "name": "E4",
          "ticks": 71232,
          "time": 100.27017000000001,
          "velocity": 0.5433070866141733
        },
        {
          "duration": 0.4926796875000008,
          "durationTicks": 350,
          "midi": 62,
          "name": "D4",
          "ticks": 72192,
          "time": 101.62152,
          "velocity": 0.6062992125984252
        },
        {
          "duration": 0.47860312499999225,
          "durationTicks": 340,
          "midi": 66,
          "name": "F#4",
          "ticks": 72192,
          "time": 101.62152,
          "velocity": 0.5354330708661418
        },
        {
          "duration": 0.5377246874999884,
          "durationTicks": 382,
          "midi": 57,
          "name": "A3",
          "ticks": 72192,
          "time": 101.62152,
          "velocity": 0.5118110236220472
        },
        {
          "duration": 0.7770262499999916,
          "durationTicks": 552,
          "midi": 59,
          "name": "B3",
          "ticks": 72768,
          "time": 102.43233000000001,
          "velocity": 0.5511811023622047
        },
        {
          "duration": 0.7770262499999916,
          "durationTicks": 552,
          "midi": 55,
          "name": "G3",
          "ticks": 72768,
          "time": 102.43233000000001,
          "velocity": 0.5039370078740157
        },
        {
          "duration": 0.796733437499995,
          "durationTicks": 566,
          "midi": 62,
          "name": "D4",
          "ticks": 72768,
          "time": 102.43233000000001,
          "velocity": 0.5669291338582677
        },
        {
          "duration": 0.4757878125000019,
          "durationTicks": 338,
          "midi": 66,
          "name": "F#4",
          "ticks": 73728,
          "time": 103.78368,
          "velocity": 0.5196850393700787
        },
        {
          "duration": 0.5067562499999951,
          "durationTicks": 360,
          "midi": 62,
          "name": "D4",
          "ticks": 73728,
          "time": 103.78368,
          "velocity": 0.5905511811023622
        },
        {
          "duration": 0.5377246874999884,
          "durationTicks": 382,
          "midi": 59,
          "name": "B3",
          "ticks": 73728,
          "time": 103.78368,
          "velocity": 0.49606299212598426
        },
        {
          "duration": 0.8164406249999843,
          "durationTicks": 580,
          "midi": 57,
          "name": "A3",
          "ticks": 74304,
          "time": 104.59449000000001,
          "velocity": 0.49606299212598426
        },
        {
          "duration": 0.8164406249999843,
          "durationTicks": 580,
          "midi": 64,
          "name": "E4",
          "ticks": 74304,
          "time": 104.59449000000001,
          "velocity": 0.5433070866141733
        },
        {
          "duration": 0.8023640624999899,
          "durationTicks": 570,
          "midi": 61,
          "name": "C#4",
          "ticks": 74304,
          "time": 104.59449000000001,
          "velocity": 0.5354330708661418
        },
        {
          "duration": 0.5180174999999991,
          "durationTicks": 368,
          "midi": 57,
          "name": "A3",
          "ticks": 75264,
          "time": 105.94584,
          "velocity": 0.5590551181102362
        },
        {
          "duration": 0.4645265624999979,
          "durationTicks": 330,
          "midi": 66,
          "name": "F#4",
          "ticks": 75264,
          "time": 105.94584,
          "velocity": 0.5118110236220472
        },
        {
          "duration": 0.47860312499999225,
          "durationTicks": 340,
          "midi": 62,
          "name": "D4",
          "ticks": 75264,
          "time": 105.94584,
          "velocity": 0.5984251968503937
        },
        {
          "duration": 0.7291659374999995,
          "durationTicks": 518,
          "midi": 62,
          "name": "D4",
          "ticks": 75840,
          "time": 106.75665000000001,
          "velocity": 0.5748031496062992
        },
        {
          "duration": 0.709458749999996,
          "durationTicks": 504,
          "midi": 59,
          "name": "B3",
          "ticks": 75840,
          "time": 106.75665000000001,
          "velocity": 0.5590551181102362
        },
        {
          "duration": 0.7122740625000006,
          "durationTicks": 506,
          "midi": 55,
          "name": "G3",
          "ticks": 75840,
          "time": 106.75665000000001,
          "velocity": 0.5433070866141733
        },
        {
          "duration": 0.5067562499999951,
          "durationTicks": 360,
          "midi": 59,
          "name": "B3",
          "ticks": 76800,
          "time": 108.108,
          "velocity": 0.49606299212598426
        },
        {
          "duration": 0.47860312499999225,
          "durationTicks": 340,
          "midi": 66,
          "name": "F#4",
          "ticks": 76800,
          "time": 108.108,
          "velocity": 0.5354330708661418
        },
        {
          "duration": 0.4814184374999968,
          "durationTicks": 342,
          "midi": 62,
          "name": "D4",
          "ticks": 76800,
          "time": 108.108,
          "velocity": 0.6299212598425197
        },
        {
          "duration": 0.819255937500003,
          "durationTicks": 582,
          "midi": 57,
          "name": "A3",
          "ticks": 77376,
          "time": 108.91881000000001,
          "velocity": 0.5354330708661418
        },
        {
          "duration": 0.8023640624999899,
          "durationTicks": 570,
          "midi": 61,
          "name": "C#4",
          "ticks": 77376,
          "time": 108.91881000000001,
          "velocity": 0.5826771653543307
        },
        {
          "duration": 0.8474090625000059,
          "durationTicks": 602,
          "midi": 64,
          "name": "E4",
          "ticks": 77376,
          "time": 108.91881000000001,
          "velocity": 0.5748031496062992
        },
        {
          "duration": 0.3490987500000102,
          "durationTicks": 248,
          "midi": 62,
          "name": "D4",
          "ticks": 78336,
          "time": 110.27016,
          "velocity": 0.6299212598425197
        },
        {
          "duration": 0.3659906250000091,
          "durationTicks": 260,
          "midi": 57,
          "name": "A3",
          "ticks": 78336,
          "time": 110.27016,
          "velocity": 0.5984251968503937
        },
        {
          "duration": 0.3350221875000017,
          "durationTicks": 238,
          "midi": 66,
          "name": "F#4",
          "ticks": 78336,
          "time": 110.27016,
          "velocity": 0.6141732283464567
        },
        {
          "duration": 0.29842312500001356,
          "durationTicks": 212,
          "midi": 66,
          "name": "F#4",
          "ticks": 78720,
          "time": 110.8107,
          "velocity": 0.6141732283464567
        },
        {
          "duration": 0.3293915625000068,
          "durationTicks": 234,
          "midi": 62,
          "name": "D4",
          "ticks": 78720,
          "time": 110.8107,
          "velocity": 0.6850393700787402
        },
        {
          "duration": 0.3462834375000057,
          "durationTicks": 246,
          "midi": 57,
          "name": "A3",
          "ticks": 78720,
          "time": 110.8107,
          "velocity": 0.6456692913385826
        },
        {
          "duration": 0.15765749999999912,
          "durationTicks": 112,
          "midi": 55,
          "name": "G3",
          "ticks": 79104,
          "time": 111.35124,
          "velocity": 0.7007874015748031
        },
        {
          "duration": 0.12950437500001044,
          "durationTicks": 92,
          "midi": 62,
          "name": "D4",
          "ticks": 79104,
          "time": 111.35124,
          "velocity": 0.7165354330708661
        },
        {
          "duration": 0.12950437500001044,
          "durationTicks": 92,
          "midi": 59,
          "name": "B3",
          "ticks": 79104,
          "time": 111.35124,
          "velocity": 0.7401574803149606
        },
        {
          "duration": 0.25337812499999757,
          "durationTicks": 180,
          "midi": 59,
          "name": "B3",
          "ticks": 79296,
          "time": 111.62151,
          "velocity": 0.6692913385826772
        },
        {
          "duration": 0.28716187500000956,
          "durationTicks": 204,
          "midi": 62,
          "name": "D4",
          "ticks": 79296,
          "time": 111.62151,
          "velocity": 0.6535433070866141
        },
        {
          "duration": 0.2561934375000021,
          "durationTicks": 182,
          "midi": 55,
          "name": "G3",
          "ticks": 79296,
          "time": 111.62151,
          "velocity": 0.5511811023622047
        },
        {
          "duration": 0.2027025000000009,
          "durationTicks": 144,
          "midi": 59,
          "name": "B3",
          "ticks": 79872,
          "time": 112.43232,
          "velocity": 0.7007874015748031
        },
        {
          "duration": 0.13231968750000078,
          "durationTicks": 94,
          "midi": 66,
          "name": "F#4",
          "ticks": 79872,
          "time": 112.43232,
          "velocity": 0.6141732283464567
        },
        {
          "duration": 0.1914412499999969,
          "durationTicks": 136,
          "midi": 62,
          "name": "D4",
          "ticks": 79872,
          "time": 112.43232,
          "velocity": 0.7559055118110236
        },
        {
          "duration": 0.17736468750000256,
          "durationTicks": 126,
          "midi": 62,
          "name": "D4",
          "ticks": 80064,
          "time": 112.70259,
          "velocity": 0.7007874015748031
        },
        {
          "duration": 0.197071875000006,
          "durationTicks": 140,
          "midi": 66,
          "name": "F#4",
          "ticks": 80064,
          "time": 112.70259,
          "velocity": 0.6771653543307087
        },
        {
          "duration": 0.22522499999999468,
          "durationTicks": 160,
          "midi": 59,
          "name": "B3",
          "ticks": 80064,
          "time": 112.70259,
          "velocity": 0.6692913385826772
        },
        {
          "duration": 0.9487603124999993,
          "durationTicks": 674,
          "midi": 64,
          "name": "E4",
          "ticks": 80448,
          "time": 113.24313000000001,
          "velocity": 0.6850393700787402
        },
        {
          "duration": 0.9318684375000004,
          "durationTicks": 662,
          "midi": 61,
          "name": "C#4",
          "ticks": 80448,
          "time": 113.24313000000001,
          "velocity": 0.7322834645669292
        },
        {
          "duration": 0.9487603124999993,
          "durationTicks": 674,
          "midi": 57,
          "name": "A3",
          "ticks": 80448,
          "time": 113.24313000000001,
          "velocity": 0.6535433070866141
        },
        {
          "duration": 0.38569781249999835,
          "durationTicks": 274,
          "midi": 66,
          "name": "F#4",
          "ticks": 81408,
          "time": 114.59448,
          "velocity": 0.6535433070866141
        },
        {
          "duration": 0.3885131250000029,
          "durationTicks": 276,
          "midi": 62,
          "name": "D4",
          "ticks": 81408,
          "time": 114.59448,
          "velocity": 0.7559055118110236
        },
        {
          "duration": 0.4054050000000018,
          "durationTicks": 288,
          "midi": 57,
          "name": "A3",
          "ticks": 81408,
          "time": 114.59448,
          "velocity": 0.6692913385826772
        },
        {
          "duration": 0.2899771875000141,
          "durationTicks": 206,
          "midi": 66,
          "name": "F#4",
          "ticks": 81792,
          "time": 115.13502,
          "velocity": 0.6771653543307087
        },
        {
          "duration": 0.306869062500013,
          "durationTicks": 218,
          "midi": 62,
          "name": "D4",
          "ticks": 81792,
          "time": 115.13502,
          "velocity": 0.7716535433070866
        },
        {
          "duration": 0.32094562500000734,
          "durationTicks": 228,
          "midi": 57,
          "name": "A3",
          "ticks": 81792,
          "time": 115.13502,
          "velocity": 0.7007874015748031
        },
        {
          "duration": 0.1914412499999969,
          "durationTicks": 136,
          "midi": 55,
          "name": "G3",
          "ticks": 82176,
          "time": 115.67556,
          "velocity": 0.6850393700787402
        },
        {
          "duration": 0.17736468750000256,
          "durationTicks": 126,
          "midi": 59,
          "name": "B3",
          "ticks": 82176,
          "time": 115.67556,
          "velocity": 0.7401574803149606
        },
        {
          "duration": 0.16047281250000367,
          "durationTicks": 114,
          "midi": 62,
          "name": "D4",
          "ticks": 82176,
          "time": 115.67556,
          "velocity": 0.7165354330708661
        },
        {
          "duration": 0.21114843750000034,
          "durationTicks": 150,
          "midi": 59,
          "name": "B3",
          "ticks": 82368,
          "time": 115.94583,
          "velocity": 0.7165354330708661
        },
        {
          "duration": 0.2139637500000049,
          "durationTicks": 152,
          "midi": 55,
          "name": "G3",
          "ticks": 82368,
          "time": 115.94583,
          "velocity": 0.6456692913385826
        },
        {
          "duration": 0.21677906249999523,
          "durationTicks": 154,
          "midi": 62,
          "name": "D4",
          "ticks": 82368,
          "time": 115.94583,
          "velocity": 0.7401574803149606
        },
        {
          "duration": 0.1801800000000071,
          "durationTicks": 128,
          "midi": 66,
          "name": "F#4",
          "ticks": 82944,
          "time": 116.75664,
          "velocity": 0.6771653543307087
        },
        {
          "duration": 0.18299531249999745,
          "durationTicks": 130,
          "midi": 62,
          "name": "D4",
          "ticks": 82944,
          "time": 116.75664,
          "velocity": 0.7716535433070866
        },
        {
          "duration": 0.185810625000002,
          "durationTicks": 132,
          "midi": 59,
          "name": "B3",
          "ticks": 82944,
          "time": 116.75664,
          "velocity": 0.7007874015748031
        },
        {
          "duration": 0.1914412499999969,
          "durationTicks": 136,
          "midi": 62,
          "name": "D4",
          "ticks": 83136,
          "time": 117.02691,
          "velocity": 0.7559055118110236
        },
        {
          "duration": 0.22804031249999923,
          "durationTicks": 162,
          "midi": 59,
          "name": "B3",
          "ticks": 83136,
          "time": 117.02691,
          "velocity": 0.7007874015748031
        },
        {
          "duration": 0.197071875000006,
          "durationTicks": 140,
          "midi": 66,
          "name": "F#4",
          "ticks": 83136,
          "time": 117.02691,
          "velocity": 0.7007874015748031
        },
        {
          "duration": 0.8924540624999935,
          "durationTicks": 634,
          "midi": 61,
          "name": "C#4",
          "ticks": 83520,
          "time": 117.56745000000001,
          "velocity": 0.7322834645669292
        },
        {
          "duration": 0.9093459374999924,
          "durationTicks": 646,
          "midi": 64,
          "name": "E4",
          "ticks": 83520,
          "time": 117.56745000000001,
          "velocity": 0.7165354330708661
        },
        {
          "duration": 0.895269374999998,
          "durationTicks": 636,
          "midi": 57,
          "name": "A3",
          "ticks": 83520,
          "time": 117.56745000000001,
          "velocity": 0.6535433070866141
        },
        {
          "duration": 0.3350221875000017,
          "durationTicks": 238,
          "midi": 66,
          "name": "F#4",
          "ticks": 84480,
          "time": 118.9188,
          "velocity": 0.6771653543307087
        },
        {
          "duration": 0.33783750000000623,
          "durationTicks": 240,
          "midi": 62,
          "name": "D4",
          "ticks": 84480,
          "time": 118.9188,
          "velocity": 0.7401574803149606
        },
        {
          "duration": 0.3547293750000051,
          "durationTicks": 252,
          "midi": 57,
          "name": "A3",
          "ticks": 84480,
          "time": 118.9188,
          "velocity": 0.6535433070866141
        },
        {
          "duration": 0.33220687500001134,
          "durationTicks": 236,
          "midi": 62,
          "name": "D4",
          "ticks": 84864,
          "time": 119.45934,
          "velocity": 0.7559055118110236
        },
        {
          "duration": 0.3293915625000068,
          "durationTicks": 234,
          "midi": 66,
          "name": "F#4",
          "ticks": 84864,
          "time": 119.45934,
          "velocity": 0.6771653543307087
        },
        {
          "duration": 0.3490987500000102,
          "durationTicks": 248,
          "midi": 57,
          "name": "A3",
          "ticks": 84864,
          "time": 119.45934,
          "velocity": 0.6850393700787402
        },
        {
          "duration": 0.174549374999998,
          "durationTicks": 124,
          "midi": 59,
          "name": "B3",
          "ticks": 85248,
          "time": 119.99988,
          "velocity": 0.7716535433070866
        },
        {
          "duration": 0.1801800000000071,
          "durationTicks": 128,
          "midi": 62,
          "name": "D4",
          "ticks": 85248,
          "time": 119.99988,
          "velocity": 0.7559055118110236
        },
        {
          "duration": 0.197071875000006,
          "durationTicks": 140,
          "midi": 55,
          "name": "G3",
          "ticks": 85248,
          "time": 119.99988,
          "velocity": 0.6850393700787402
        },
        {
          "duration": 0.21114843750000034,
          "durationTicks": 150,
          "midi": 59,
          "name": "B3",
          "ticks": 85440,
          "time": 120.27015,
          "velocity": 0.7007874015748031
        },
        {
          "duration": 0.22804031249999923,
          "durationTicks": 162,
          "midi": 55,
          "name": "G3",
          "ticks": 85440,
          "time": 120.27015,
          "velocity": 0.6299212598425197
        },
        {
          "duration": 0.22804031249999923,
          "durationTicks": 162,
          "midi": 62,
          "name": "D4",
          "ticks": 85440,
          "time": 120.27015,
          "velocity": 0.7165354330708661
        },
        {
          "duration": 0.17736468750000256,
          "durationTicks": 126,
          "midi": 62,
          "name": "D4",
          "ticks": 86016,
          "time": 121.08096,
          "velocity": 0.7401574803149606
        },
        {
          "duration": 0.19425656250000145,
          "durationTicks": 138,
          "midi": 59,
          "name": "B3",
          "ticks": 86016,
          "time": 121.08096,
          "velocity": 0.6220472440944882
        },
        {
          "duration": 0.17736468750000256,
          "durationTicks": 126,
          "midi": 66,
          "name": "F#4",
          "ticks": 86016,
          "time": 121.08096,
          "velocity": 0.6535433070866141
        },
        {
          "duration": 0.2083331249999958,
          "durationTicks": 148,
          "midi": 62,
          "name": "D4",
          "ticks": 86208,
          "time": 121.35123,
          "velocity": 0.7165354330708661
        },
        {
          "duration": 0.24211687499999357,
          "durationTicks": 172,
          "midi": 59,
          "name": "B3",
          "ticks": 86208,
          "time": 121.35123,
          "velocity": 0.6456692913385826
        },
        {
          "duration": 0.197071875000006,
          "durationTicks": 140,
          "midi": 66,
          "name": "F#4",
          "ticks": 86208,
          "time": 121.35123,
          "velocity": 0.6771653543307087
        },
        {
          "duration": 0.8671162499999951,
          "durationTicks": 616,
          "midi": 61,
          "name": "C#4",
          "ticks": 86592,
          "time": 121.89177000000001,
          "velocity": 0.7007874015748031
        },
        {
          "duration": 0.8811928125000037,
          "durationTicks": 626,
          "midi": 64,
          "name": "E4",
          "ticks": 86592,
          "time": 121.89177000000001,
          "velocity": 0.6850393700787402
        },
        {
          "duration": 0.8980846875000026,
          "durationTicks": 638,
          "midi": 57,
          "name": "A3",
          "ticks": 86592,
          "time": 121.89177000000001,
          "velocity": 0.6535433070866141
        },
        {
          "duration": 0.3237609375000119,
          "durationTicks": 230,
          "midi": 66,
          "name": "F#4",
          "ticks": 87552,
          "time": 123.24312,
          "velocity": 0.6771653543307087
        },
        {
          "duration": 0.3237609375000119,
          "durationTicks": 230,
          "midi": 57,
          "name": "A3",
          "ticks": 87552,
          "time": 123.24312,
          "velocity": 0.6535433070866141
        },
        {
          "duration": 0.326576249999988,
          "durationTicks": 232,
          "midi": 62,
          "name": "D4",
          "ticks": 87552,
          "time": 123.24312,
          "velocity": 0.7401574803149606
        },
        {
          "duration": 0.306869062500013,
          "durationTicks": 218,
          "midi": 62,
          "name": "D4",
          "ticks": 87936,
          "time": 123.78366,
          "velocity": 0.7716535433070866
        },
        {
          "duration": 0.2899771875000141,
          "durationTicks": 206,
          "midi": 66,
          "name": "F#4",
          "ticks": 87936,
          "time": 123.78366,
          "velocity": 0.6535433070866141
        },
        {
          "duration": 0.32657625000000223,
          "durationTicks": 232,
          "midi": 57,
          "name": "A3",
          "ticks": 87936,
          "time": 123.78366,
          "velocity": 0.6692913385826772
        },
        {
          "duration": 0.18299531249999745,
          "durationTicks": 130,
          "midi": 62,
          "name": "D4",
          "ticks": 88320,
          "time": 124.3242,
          "velocity": 0.7165354330708661
        },
        {
          "duration": 0.18299531249999745,
          "durationTicks": 130,
          "midi": 59,
          "name": "B3",
          "ticks": 88320,
          "time": 124.3242,
          "velocity": 0.7165354330708661
        },
        {
          "duration": 0.2027025000000009,
          "durationTicks": 144,
          "midi": 55,
          "name": "G3",
          "ticks": 88320,
          "time": 124.3242,
          "velocity": 0.6692913385826772
        },
        {
          "duration": 0.22522499999999468,
          "durationTicks": 160,
          "midi": 62,
          "name": "D4",
          "ticks": 88512,
          "time": 124.59447,
          "velocity": 0.7007874015748031
        },
        {
          "duration": 0.2083331249999958,
          "durationTicks": 148,
          "midi": 59,
          "name": "B3",
          "ticks": 88512,
          "time": 124.59447,
          "velocity": 0.7007874015748031
        },
        {
          "duration": 0.2139637500000049,
          "durationTicks": 152,
          "midi": 55,
          "name": "G3",
          "ticks": 88512,
          "time": 124.59447,
          "velocity": 0.6220472440944882
        },
        {
          "duration": 0.16891875000000312,
          "durationTicks": 120,
          "midi": 59,
          "name": "B3",
          "ticks": 89088,
          "time": 125.40528,
          "velocity": 0.6692913385826772
        },
        {
          "duration": 0.15765749999999912,
          "durationTicks": 112,
          "midi": 62,
          "name": "D4",
          "ticks": 89088,
          "time": 125.40528,
          "velocity": 0.7165354330708661
        },
        {
          "duration": 0.14076562500000023,
          "durationTicks": 100,
          "midi": 66,
          "name": "F#4",
          "ticks": 89088,
          "time": 125.40528,
          "velocity": 0.6535433070866141
        },
        {
          "duration": 0.17736468750000256,
          "durationTicks": 126,
          "midi": 66,
          "name": "F#4",
          "ticks": 89280,
          "time": 125.67555,
          "velocity": 0.6141732283464567
        },
        {
          "duration": 0.21114843750000034,
          "durationTicks": 150,
          "midi": 59,
          "name": "B3",
          "ticks": 89280,
          "time": 125.67555,
          "velocity": 0.5669291338582677
        },
        {
          "duration": 0.18299531249999745,
          "durationTicks": 130,
          "midi": 62,
          "name": "D4",
          "ticks": 89280,
          "time": 125.67555,
          "velocity": 0.6850393700787402
        },
        {
          "duration": 0.7319812499999898,
          "durationTicks": 520,
          "midi": 61,
          "name": "C#4",
          "ticks": 89664,
          "time": 126.21609000000001,
          "velocity": 0.6771653543307087
        },
        {
          "duration": 0.7629496874999973,
          "durationTicks": 542,
          "midi": 64,
          "name": "E4",
          "ticks": 89664,
          "time": 126.21609000000001,
          "velocity": 0.6850393700787402
        },
        {
          "duration": 0.7488731249999887,
          "durationTicks": 532,
          "midi": 57,
          "name": "A3",
          "ticks": 89664,
          "time": 126.21609000000001,
          "velocity": 0.6456692913385826
        },
        {
          "duration": 0.5715084375000004,
          "durationTicks": 406,
          "midi": 66,
          "name": "F#4",
          "ticks": 90624,
          "time": 127.56744,
          "velocity": 0.5354330708661418
        },
        {
          "duration": 0.599661562499989,
          "durationTicks": 426,
          "midi": 57,
          "name": "A3",
          "ticks": 90624,
          "time": 127.56744,
          "velocity": 0.49606299212598426
        },
        {
          "duration": 0.5715084375000004,
          "durationTicks": 406,
          "midi": 62,
          "name": "D4",
          "ticks": 90624,
          "time": 127.56744,
          "velocity": 0.5748031496062992
        },
        {
          "duration": 0.8586703124999815,
          "durationTicks": 610,
          "midi": 55,
          "name": "G3",
          "ticks": 91200,
          "time": 128.37825,
          "velocity": 0.49606299212598426
        },
        {
          "duration": 0.8614856250000003,
          "durationTicks": 612,
          "midi": 59,
          "name": "B3",
          "ticks": 91200,
          "time": 128.37825,
          "velocity": 0.6062992125984252
        },
        {
          "duration": 0.8811928124999895,
          "durationTicks": 626,
          "midi": 62,
          "name": "D4",
          "ticks": 91200,
          "time": 128.37825,
          "velocity": 0.49606299212598426
        },
        {
          "duration": 0.5123868750000042,
          "durationTicks": 364,
          "midi": 66,
          "name": "F#4",
          "ticks": 92160,
          "time": 129.7296,
          "velocity": 0.5511811023622047
        },
        {
          "duration": 0.5574318749999918,
          "durationTicks": 396,
          "midi": 59,
          "name": "B3",
          "ticks": 92160,
          "time": 129.7296,
          "velocity": 0.5511811023622047
        },
        {
          "duration": 0.5602471875000106,
          "durationTicks": 398,
          "midi": 62,
          "name": "D4",
          "ticks": 92160,
          "time": 129.7296,
          "velocity": 0.6062992125984252
        },
        {
          "duration": 0.9740981250000118,
          "durationTicks": 692,
          "midi": 61,
          "name": "C#4",
          "ticks": 92736,
          "time": 130.54041,
          "velocity": 0.4409448818897638
        },
        {
          "duration": 0.9909900000000107,
          "durationTicks": 704,
          "midi": 64,
          "name": "E4",
          "ticks": 92736,
          "time": 130.54041,
          "velocity": 0.49606299212598426
        },
        {
          "duration": 0.993805312500001,
          "durationTicks": 706,
          "midi": 57,
          "name": "A3",
          "ticks": 92736,
          "time": 130.54041,
          "velocity": 0.4645669291338583
        },
        {
          "duration": 0.5658778124999913,
          "durationTicks": 402,
          "midi": 57,
          "name": "A3",
          "ticks": 93696,
          "time": 131.89176,
          "velocity": 0.5196850393700787
        },
        {
          "duration": 0.5405399999999929,
          "durationTicks": 384,
          "midi": 66,
          "name": "F#4",
          "ticks": 93696,
          "time": 131.89176,
          "velocity": 0.48031496062992124
        },
        {
          "duration": 0.546170625000002,
          "durationTicks": 388,
          "midi": 62,
          "name": "D4",
          "ticks": 93696,
          "time": 131.89176,
          "velocity": 0.5669291338582677
        },
        {
          "duration": 0.7854721875000052,
          "durationTicks": 558,
          "midi": 59,
          "name": "B3",
          "ticks": 94272,
          "time": 132.70257,
          "velocity": 0.5905511811023622
        },
        {
          "duration": 0.7911028124999859,
          "durationTicks": 562,
          "midi": 55,
          "name": "G3",
          "ticks": 94272,
          "time": 132.70257,
          "velocity": 0.5275590551181102
        },
        {
          "duration": 0.8051793749999945,
          "durationTicks": 572,
          "midi": 62,
          "name": "D4",
          "ticks": 94272,
          "time": 132.70257,
          "velocity": 0.5984251968503937
        },
        {
          "duration": 0.4757878125000161,
          "durationTicks": 338,
          "midi": 62,
          "name": "D4",
          "ticks": 95232,
          "time": 134.05392,
          "velocity": 0.6220472440944882
        },
        {
          "duration": 0.492679687500015,
          "durationTicks": 350,
          "midi": 59,
          "name": "B3",
          "ticks": 95232,
          "time": 134.05392,
          "velocity": 0.5118110236220472
        },
        {
          "duration": 0.46171125000000757,
          "durationTicks": 328,
          "midi": 66,
          "name": "F#4",
          "ticks": 95232,
          "time": 134.05392,
          "velocity": 0.5354330708661418
        },
        {
          "duration": 0.8305171874999928,
          "durationTicks": 590,
          "midi": 57,
          "name": "A3",
          "ticks": 95808,
          "time": 134.86473,
          "velocity": 0.49606299212598426
        },
        {
          "duration": 0.8277018750000025,
          "durationTicks": 588,
          "midi": 61,
          "name": "C#4",
          "ticks": 95808,
          "time": 134.86473,
          "velocity": 0.5118110236220472
        },
        {
          "duration": 0.8333324999999832,
          "durationTicks": 592,
          "midi": 64,
          "name": "E4",
          "ticks": 95808,
          "time": 134.86473,
          "velocity": 0.5433070866141733
        },
        {
          "duration": 0.492679687500015,
          "durationTicks": 350,
          "midi": 62,
          "name": "D4",
          "ticks": 96768,
          "time": 136.21608,
          "velocity": 0.6062992125984252
        },
        {
          "duration": 0.47860312500000646,
          "durationTicks": 340,
          "midi": 66,
          "name": "F#4",
          "ticks": 96768,
          "time": 136.21608,
          "velocity": 0.5354330708661418
        },
        {
          "duration": 0.5377246875000026,
          "durationTicks": 382,
          "midi": 57,
          "name": "A3",
          "ticks": 96768,
          "time": 136.21608,
          "velocity": 0.5118110236220472
        },
        {
          "duration": 0.7770262500000058,
          "durationTicks": 552,
          "midi": 59,
          "name": "B3",
          "ticks": 97344,
          "time": 137.02689,
          "velocity": 0.5511811023622047
        },
        {
          "duration": 0.7770262500000058,
          "durationTicks": 552,
          "midi": 55,
          "name": "G3",
          "ticks": 97344,
          "time": 137.02689,
          "velocity": 0.5039370078740157
        },
        {
          "duration": 0.796733437499995,
          "durationTicks": 566,
          "midi": 62,
          "name": "D4",
          "ticks": 97344,
          "time": 137.02689,
          "velocity": 0.5669291338582677
        },
        {
          "duration": 0.4757878124999877,
          "durationTicks": 338,
          "midi": 66,
          "name": "F#4",
          "ticks": 98304,
          "time": 138.37824,
          "velocity": 0.5196850393700787
        },
        {
          "duration": 0.5067562499999951,
          "durationTicks": 360,
          "midi": 62,
          "name": "D4",
          "ticks": 98304,
          "time": 138.37824,
          "velocity": 0.5905511811023622
        },
        {
          "duration": 0.5377246875000026,
          "durationTicks": 382,
          "midi": 59,
          "name": "B3",
          "ticks": 98304,
          "time": 138.37824,
          "velocity": 0.49606299212598426
        },
        {
          "duration": 0.8164406250000127,
          "durationTicks": 580,
          "midi": 57,
          "name": "A3",
          "ticks": 98880,
          "time": 139.18905,
          "velocity": 0.49606299212598426
        },
        {
          "duration": 0.8164406250000127,
          "durationTicks": 580,
          "midi": 64,
          "name": "E4",
          "ticks": 98880,
          "time": 139.18905,
          "velocity": 0.5433070866141733
        },
        {
          "duration": 0.8023640625000041,
          "durationTicks": 570,
          "midi": 61,
          "name": "C#4",
          "ticks": 98880,
          "time": 139.18905,
          "velocity": 0.5354330708661418
        },
        {
          "duration": 0.5180174999999849,
          "durationTicks": 368,
          "midi": 57,
          "name": "A3",
          "ticks": 99840,
          "time": 140.5404,
          "velocity": 0.5590551181102362
        },
        {
          "duration": 0.4645265624999979,
          "durationTicks": 330,
          "midi": 66,
          "name": "F#4",
          "ticks": 99840,
          "time": 140.5404,
          "velocity": 0.5118110236220472
        },
        {
          "duration": 0.47860312500000646,
          "durationTicks": 340,
          "midi": 62,
          "name": "D4",
          "ticks": 99840,
          "time": 140.5404,
          "velocity": 0.5984251968503937
        },
        {
          "duration": 0.7291659374999995,
          "durationTicks": 518,
          "midi": 62,
          "name": "D4",
          "ticks": 100416,
          "time": 141.35121,
          "velocity": 0.5748031496062992
        },
        {
          "duration": 0.7094587500000102,
          "durationTicks": 504,
          "midi": 59,
          "name": "B3",
          "ticks": 100416,
          "time": 141.35121,
          "velocity": 0.5590551181102362
        },
        {
          "duration": 0.7122740624999722,
          "durationTicks": 506,
          "midi": 55,
          "name": "G3",
          "ticks": 100416,
          "time": 141.35121,
          "velocity": 0.5433070866141733
        },
        {
          "duration": 0.5067562499999951,
          "durationTicks": 360,
          "midi": 59,
          "name": "B3",
          "ticks": 101376,
          "time": 142.70256,
          "velocity": 0.49606299212598426
        },
        {
          "duration": 0.47860312500000646,
          "durationTicks": 340,
          "midi": 66,
          "name": "F#4",
          "ticks": 101376,
          "time": 142.70256,
          "velocity": 0.5354330708661418
        },
        {
          "duration": 0.4814184374999968,
          "durationTicks": 342,
          "midi": 62,
          "name": "D4",
          "ticks": 101376,
          "time": 142.70256,
          "velocity": 0.6299212598425197
        },
        {
          "duration": 0.819255937500003,
          "durationTicks": 582,
          "midi": 57,
          "name": "A3",
          "ticks": 101952,
          "time": 143.51337,
          "velocity": 0.5354330708661418
        },
        {
          "duration": 0.8023640625000041,
          "durationTicks": 570,
          "midi": 61,
          "name": "C#4",
          "ticks": 101952,
          "time": 143.51337,
          "velocity": 0.5826771653543307
        },
        {
          "duration": 0.8474090624999917,
          "durationTicks": 602,
          "midi": 64,
          "name": "E4",
          "ticks": 101952,
          "time": 143.51337,
          "velocity": 0.5748031496062992
        },
        {
          "duration": 0.5715084375000004,
          "durationTicks": 406,
          "midi": 66,
          "name": "F#4",
          "ticks": 102912,
          "time": 144.86472,
          "velocity": 0.5354330708661418
        },
        {
          "duration": 0.599661562499989,
          "durationTicks": 426,
          "midi": 57,
          "name": "A3",
          "ticks": 102912,
          "time": 144.86472,
          "velocity": 0.49606299212598426
        },
        {
          "duration": 0.5715084375000004,
          "durationTicks": 406,
          "midi": 62,
          "name": "D4",
          "ticks": 102912,
          "time": 144.86472,
          "velocity": 0.5748031496062992
        },
        {
          "duration": 0.8586703125000099,
          "durationTicks": 610,
          "midi": 55,
          "name": "G3",
          "ticks": 103488,
          "time": 145.67553,
          "velocity": 0.49606299212598426
        },
        {
          "duration": 0.8614856250000003,
          "durationTicks": 612,
          "midi": 59,
          "name": "B3",
          "ticks": 103488,
          "time": 145.67553,
          "velocity": 0.6062992125984252
        },
        {
          "duration": 0.8811928124999895,
          "durationTicks": 626,
          "midi": 62,
          "name": "D4",
          "ticks": 103488,
          "time": 145.67553,
          "velocity": 0.49606299212598426
        },
        {
          "duration": 0.5123868750000042,
          "durationTicks": 364,
          "midi": 66,
          "name": "F#4",
          "ticks": 104448,
          "time": 147.02688,
          "velocity": 0.5511811023622047
        },
        {
          "duration": 0.5574318749999918,
          "durationTicks": 396,
          "midi": 59,
          "name": "B3",
          "ticks": 104448,
          "time": 147.02688,
          "velocity": 0.5511811023622047
        },
        {
          "duration": 0.5602471874999821,
          "durationTicks": 398,
          "midi": 62,
          "name": "D4",
          "ticks": 104448,
          "time": 147.02688,
          "velocity": 0.6062992125984252
        },
        {
          "duration": 0.9740981249999834,
          "durationTicks": 692,
          "midi": 61,
          "name": "C#4",
          "ticks": 105024,
          "time": 147.83769,
          "velocity": 0.4409448818897638
        },
        {
          "duration": 0.9909899999999823,
          "durationTicks": 704,
          "midi": 64,
          "name": "E4",
          "ticks": 105024,
          "time": 147.83769,
          "velocity": 0.49606299212598426
        },
        {
          "duration": 0.993805312500001,
          "durationTicks": 706,
          "midi": 57,
          "name": "A3",
          "ticks": 105024,
          "time": 147.83769,
          "velocity": 0.4645669291338583
        },
        {
          "duration": 0.5658778124999913,
          "durationTicks": 402,
          "midi": 57,
          "name": "A3",
          "ticks": 105984,
          "time": 149.18904,
          "velocity": 0.5196850393700787
        },
        {
          "duration": 0.5405399999999929,
          "durationTicks": 384,
          "midi": 66,
          "name": "F#4",
          "ticks": 105984,
          "time": 149.18904,
          "velocity": 0.48031496062992124
        },
        {
          "duration": 0.546170625000002,
          "durationTicks": 388,
          "midi": 62,
          "name": "D4",
          "ticks": 105984,
          "time": 149.18904,
          "velocity": 0.5669291338582677
        },
        {
          "duration": 0.7854721875000052,
          "durationTicks": 558,
          "midi": 59,
          "name": "B3",
          "ticks": 106560,
          "time": 149.99985,
          "velocity": 0.5905511811023622
        },
        {
          "duration": 0.7911028125000144,
          "durationTicks": 562,
          "midi": 55,
          "name": "G3",
          "ticks": 106560,
          "time": 149.99985,
          "velocity": 0.5275590551181102
        },
        {
          "duration": 0.8051793749999945,
          "durationTicks": 572,
          "midi": 62,
          "name": "D4",
          "ticks": 106560,
          "time": 149.99985,
          "velocity": 0.5984251968503937
        },
        {
          "duration": 0.4757878124999877,
          "durationTicks": 338,
          "midi": 62,
          "name": "D4",
          "ticks": 107520,
          "time": 151.3512,
          "velocity": 0.6220472440944882
        },
        {
          "duration": 0.4926796874999866,
          "durationTicks": 350,
          "midi": 59,
          "name": "B3",
          "ticks": 107520,
          "time": 151.3512,
          "velocity": 0.5118110236220472
        },
        {
          "duration": 0.46171125000000757,
          "durationTicks": 328,
          "midi": 66,
          "name": "F#4",
          "ticks": 107520,
          "time": 151.3512,
          "velocity": 0.5354330708661418
        },
        {
          "duration": 0.8305171874999928,
          "durationTicks": 590,
          "midi": 57,
          "name": "A3",
          "ticks": 108096,
          "time": 152.16201,
          "velocity": 0.49606299212598426
        },
        {
          "duration": 0.8277018750000025,
          "durationTicks": 588,
          "midi": 61,
          "name": "C#4",
          "ticks": 108096,
          "time": 152.16201,
          "velocity": 0.5118110236220472
        },
        {
          "duration": 0.8333325000000116,
          "durationTicks": 592,
          "midi": 64,
          "name": "E4",
          "ticks": 108096,
          "time": 152.16201,
          "velocity": 0.5433070866141733
        },
        {
          "duration": 0.4926796874999866,
          "durationTicks": 350,
          "midi": 62,
          "name": "D4",
          "ticks": 109056,
          "time": 153.51336,
          "velocity": 0.6062992125984252
        },
        {
          "duration": 0.47860312500000646,
          "durationTicks": 340,
          "midi": 66,
          "name": "F#4",
          "ticks": 109056,
          "time": 153.51336,
          "velocity": 0.5354330708661418
        },
        {
          "duration": 0.5377246875000026,
          "durationTicks": 382,
          "midi": 57,
          "name": "A3",
          "ticks": 109056,
          "time": 153.51336,
          "velocity": 0.5118110236220472
        },
        {
          "duration": 0.7770262500000058,
          "durationTicks": 552,
          "midi": 59,
          "name": "B3",
          "ticks": 109632,
          "time": 154.32417,
          "velocity": 0.5511811023622047
        },
        {
          "duration": 0.7770262500000058,
          "durationTicks": 552,
          "midi": 55,
          "name": "G3",
          "ticks": 109632,
          "time": 154.32417,
          "velocity": 0.5039370078740157
        },
        {
          "duration": 0.796733437499995,
          "durationTicks": 566,
          "midi": 62,
          "name": "D4",
          "ticks": 109632,
          "time": 154.32417,
          "velocity": 0.5669291338582677
        },
        {
          "duration": 0.4757878124999877,
          "durationTicks": 338,
          "midi": 66,
          "name": "F#4",
          "ticks": 110592,
          "time": 155.67552,
          "velocity": 0.5196850393700787
        },
        {
          "duration": 0.5067562499999951,
          "durationTicks": 360,
          "midi": 62,
          "name": "D4",
          "ticks": 110592,
          "time": 155.67552,
          "velocity": 0.5905511811023622
        },
        {
          "duration": 0.5377246875000026,
          "durationTicks": 382,
          "midi": 59,
          "name": "B3",
          "ticks": 110592,
          "time": 155.67552,
          "velocity": 0.49606299212598426
        },
        {
          "duration": 0.8164406250000127,
          "durationTicks": 580,
          "midi": 57,
          "name": "A3",
          "ticks": 111168,
          "time": 156.48633,
          "velocity": 0.49606299212598426
        },
        {
          "duration": 0.8164406250000127,
          "durationTicks": 580,
          "midi": 64,
          "name": "E4",
          "ticks": 111168,
          "time": 156.48633,
          "velocity": 0.5433070866141733
        },
        {
          "duration": 0.8023640625000041,
          "durationTicks": 570,
          "midi": 61,
          "name": "C#4",
          "ticks": 111168,
          "time": 156.48633,
          "velocity": 0.5354330708661418
        },
        {
          "duration": 0.5180174999999849,
          "durationTicks": 368,
          "midi": 57,
          "name": "A3",
          "ticks": 112128,
          "time": 157.83768,
          "velocity": 0.5590551181102362
        },
        {
          "duration": 0.4645265624999979,
          "durationTicks": 330,
          "midi": 66,
          "name": "F#4",
          "ticks": 112128,
          "time": 157.83768,
          "velocity": 0.5118110236220472
        },
        {
          "duration": 0.47860312500000646,
          "durationTicks": 340,
          "midi": 62,
          "name": "D4",
          "ticks": 112128,
          "time": 157.83768,
          "velocity": 0.5984251968503937
        },
        {
          "duration": 0.7291659374999995,
          "durationTicks": 518,
          "midi": 62,
          "name": "D4",
          "ticks": 112704,
          "time": 158.64849,
          "velocity": 0.5748031496062992
        },
        {
          "duration": 0.7094587500000102,
          "durationTicks": 504,
          "midi": 59,
          "name": "B3",
          "ticks": 112704,
          "time": 158.64849,
          "velocity": 0.5590551181102362
        },
        {
          "duration": 0.7122740624999722,
          "durationTicks": 506,
          "midi": 55,
          "name": "G3",
          "ticks": 112704,
          "time": 158.64849,
          "velocity": 0.5433070866141733
        },
        {
          "duration": 0.5067562499999951,
          "durationTicks": 360,
          "midi": 59,
          "name": "B3",
          "ticks": 113664,
          "time": 159.99984,
          "velocity": 0.49606299212598426
        },
        {
          "duration": 0.47860312500000646,
          "durationTicks": 340,
          "midi": 66,
          "name": "F#4",
          "ticks": 113664,
          "time": 159.99984,
          "velocity": 0.5354330708661418
        },
        {
          "duration": 0.4814184374999968,
          "durationTicks": 342,
          "midi": 62,
          "name": "D4",
          "ticks": 113664,
          "time": 159.99984,
          "velocity": 0.6299212598425197
        },
        {
          "duration": 0.819255937500003,
          "durationTicks": 582,
          "midi": 57,
          "name": "A3",
          "ticks": 114240,
          "time": 160.81065,
          "velocity": 0.5354330708661418
        },
        {
          "duration": 0.8023640625000041,
          "durationTicks": 570,
          "midi": 61,
          "name": "C#4",
          "ticks": 114240,
          "time": 160.81065,
          "velocity": 0.5826771653543307
        },
        {
          "duration": 0.8474090624999917,
          "durationTicks": 602,
          "midi": 64,
          "name": "E4",
          "ticks": 114240,
          "time": 160.81065,
          "velocity": 0.5748031496062992
        },
        {
          "duration": 0.349098749999996,
          "durationTicks": 248,
          "midi": 62,
          "name": "D4",
          "ticks": 115200,
          "time": 162.162,
          "velocity": 0.6299212598425197
        },
        {
          "duration": 0.3659906249999949,
          "durationTicks": 260,
          "midi": 57,
          "name": "A3",
          "ticks": 115200,
          "time": 162.162,
          "velocity": 0.5984251968503937
        },
        {
          "duration": 0.3350221875000159,
          "durationTicks": 238,
          "midi": 66,
          "name": "F#4",
          "ticks": 115200,
          "time": 162.162,
          "velocity": 0.6141732283464567
        },
        {
          "duration": 0.29842312499999935,
          "durationTicks": 212,
          "midi": 66,
          "name": "F#4",
          "ticks": 115584,
          "time": 162.70254,
          "velocity": 0.6141732283464567
        },
        {
          "duration": 0.3293915625000068,
          "durationTicks": 234,
          "midi": 62,
          "name": "D4",
          "ticks": 115584,
          "time": 162.70254,
          "velocity": 0.6850393700787402
        },
        {
          "duration": 0.3462834375000057,
          "durationTicks": 246,
          "midi": 57,
          "name": "A3",
          "ticks": 115584,
          "time": 162.70254,
          "velocity": 0.6456692913385826
        },
        {
          "duration": 0.15765749999999912,
          "durationTicks": 112,
          "midi": 55,
          "name": "G3",
          "ticks": 115968,
          "time": 163.24308000000002,
          "velocity": 0.7007874015748031
        },
        {
          "duration": 0.12950437499998202,
          "durationTicks": 92,
          "midi": 62,
          "name": "D4",
          "ticks": 115968,
          "time": 163.24308000000002,
          "velocity": 0.7165354330708661
        },
        {
          "duration": 0.12950437499998202,
          "durationTicks": 92,
          "midi": 59,
          "name": "B3",
          "ticks": 115968,
          "time": 163.24308000000002,
          "velocity": 0.7401574803149606
        },
        {
          "duration": 0.2533781250000118,
          "durationTicks": 180,
          "midi": 59,
          "name": "B3",
          "ticks": 116160,
          "time": 163.51335,
          "velocity": 0.6692913385826772
        },
        {
          "duration": 0.28716187500000956,
          "durationTicks": 204,
          "midi": 62,
          "name": "D4",
          "ticks": 116160,
          "time": 163.51335,
          "velocity": 0.6535433070866141
        },
        {
          "duration": 0.2561934375000021,
          "durationTicks": 182,
          "midi": 55,
          "name": "G3",
          "ticks": 116160,
          "time": 163.51335,
          "velocity": 0.5511811023622047
        },
        {
          "duration": 0.20270249999998668,
          "durationTicks": 144,
          "midi": 59,
          "name": "B3",
          "ticks": 116736,
          "time": 164.32416,
          "velocity": 0.7007874015748031
        },
        {
          "duration": 0.13231968750000078,
          "durationTicks": 94,
          "midi": 66,
          "name": "F#4",
          "ticks": 116736,
          "time": 164.32416,
          "velocity": 0.6141732283464567
        },
        {
          "duration": 0.1914412499999969,
          "durationTicks": 136,
          "midi": 62,
          "name": "D4",
          "ticks": 116736,
          "time": 164.32416,
          "velocity": 0.7559055118110236
        },
        {
          "duration": 0.17736468749998835,
          "durationTicks": 126,
          "midi": 62,
          "name": "D4",
          "ticks": 116928,
          "time": 164.59443000000002,
          "velocity": 0.7007874015748031
        },
        {
          "duration": 0.19707187499997758,
          "durationTicks": 140,
          "midi": 66,
          "name": "F#4",
          "ticks": 116928,
          "time": 164.59443000000002,
          "velocity": 0.6771653543307087
        },
        {
          "duration": 0.22522499999999468,
          "durationTicks": 160,
          "midi": 59,
          "name": "B3",
          "ticks": 116928,
          "time": 164.59443000000002,
          "velocity": 0.6692913385826772
        },
        {
          "duration": 0.948760312499985,
          "durationTicks": 674,
          "midi": 64,
          "name": "E4",
          "ticks": 117312,
          "time": 165.13497,
          "velocity": 0.6850393700787402
        },
        {
          "duration": 0.9318684374999862,
          "durationTicks": 662,
          "midi": 61,
          "name": "C#4",
          "ticks": 117312,
          "time": 165.13497,
          "velocity": 0.7322834645669292
        },
        {
          "duration": 0.948760312499985,
          "durationTicks": 674,
          "midi": 57,
          "name": "A3",
          "ticks": 117312,
          "time": 165.13497,
          "velocity": 0.6535433070866141
        },
        {
          "duration": 0.38569781250001256,
          "durationTicks": 274,
          "midi": 66,
          "name": "F#4",
          "ticks": 118272,
          "time": 166.48632,
          "velocity": 0.6535433070866141
        },
        {
          "duration": 0.3885131250000029,
          "durationTicks": 276,
          "midi": 62,
          "name": "D4",
          "ticks": 118272,
          "time": 166.48632,
          "velocity": 0.7559055118110236
        },
        {
          "duration": 0.4054050000000018,
          "durationTicks": 288,
          "midi": 57,
          "name": "A3",
          "ticks": 118272,
          "time": 166.48632,
          "velocity": 0.6692913385826772
        },
        {
          "duration": 0.2899771874999999,
          "durationTicks": 206,
          "midi": 66,
          "name": "F#4",
          "ticks": 118656,
          "time": 167.02686,
          "velocity": 0.6771653543307087
        },
        {
          "duration": 0.3068690624999988,
          "durationTicks": 218,
          "midi": 62,
          "name": "D4",
          "ticks": 118656,
          "time": 167.02686,
          "velocity": 0.7716535433070866
        },
        {
          "duration": 0.32094562500000734,
          "durationTicks": 228,
          "midi": 57,
          "name": "A3",
          "ticks": 118656,
          "time": 167.02686,
          "velocity": 0.7007874015748031
        },
        {
          "duration": 0.1914412499999969,
          "durationTicks": 136,
          "midi": 55,
          "name": "G3",
          "ticks": 119040,
          "time": 167.56740000000002,
          "velocity": 0.6850393700787402
        },
        {
          "duration": 0.17736468749998835,
          "durationTicks": 126,
          "midi": 59,
          "name": "B3",
          "ticks": 119040,
          "time": 167.56740000000002,
          "velocity": 0.7401574803149606
        },
        {
          "duration": 0.16047281249998946,
          "durationTicks": 114,
          "midi": 62,
          "name": "D4",
          "ticks": 119040,
          "time": 167.56740000000002,
          "velocity": 0.7165354330708661
        },
        {
          "duration": 0.21114843750001455,
          "durationTicks": 150,
          "midi": 59,
          "name": "B3",
          "ticks": 119232,
          "time": 167.83767,
          "velocity": 0.7165354330708661
        },
        {
          "duration": 0.2139637500000049,
          "durationTicks": 152,
          "midi": 55,
          "name": "G3",
          "ticks": 119232,
          "time": 167.83767,
          "velocity": 0.6456692913385826
        },
        {
          "duration": 0.21677906250002366,
          "durationTicks": 154,
          "midi": 62,
          "name": "D4",
          "ticks": 119232,
          "time": 167.83767,
          "velocity": 0.7401574803149606
        },
        {
          "duration": 0.1801799999999787,
          "durationTicks": 128,
          "midi": 66,
          "name": "F#4",
          "ticks": 119808,
          "time": 168.64848,
          "velocity": 0.6771653543307087
        },
        {
          "duration": 0.18299531249999745,
          "durationTicks": 130,
          "midi": 62,
          "name": "D4",
          "ticks": 119808,
          "time": 168.64848,
          "velocity": 0.7716535433070866
        },
        {
          "duration": 0.1858106249999878,
          "durationTicks": 132,
          "midi": 59,
          "name": "B3",
          "ticks": 119808,
          "time": 168.64848,
          "velocity": 0.7007874015748031
        },
        {
          "duration": 0.1914412499999969,
          "durationTicks": 136,
          "midi": 62,
          "name": "D4",
          "ticks": 120000,
          "time": 168.91875000000002,
          "velocity": 0.7559055118110236
        },
        {
          "duration": 0.22804031249998502,
          "durationTicks": 162,
          "midi": 59,
          "name": "B3",
          "ticks": 120000,
          "time": 168.91875000000002,
          "velocity": 0.7007874015748031
        },
        {
          "duration": 0.19707187499997758,
          "durationTicks": 140,
          "midi": 66,
          "name": "F#4",
          "ticks": 120000,
          "time": 168.91875000000002,
          "velocity": 0.7007874015748031
        },
        {
          "duration": 0.8924540625000077,
          "durationTicks": 634,
          "midi": 61,
          "name": "C#4",
          "ticks": 120384,
          "time": 169.45929,
          "velocity": 0.7322834645669292
        },
        {
          "duration": 0.9093459375000066,
          "durationTicks": 646,
          "midi": 64,
          "name": "E4",
          "ticks": 120384,
          "time": 169.45929,
          "velocity": 0.7165354330708661
        },
        {
          "duration": 0.895269374999998,
          "durationTicks": 636,
          "midi": 57,
          "name": "A3",
          "ticks": 120384,
          "time": 169.45929,
          "velocity": 0.6535433070866141
        },
        {
          "duration": 0.3350221875000159,
          "durationTicks": 238,
          "midi": 66,
          "name": "F#4",
          "ticks": 121344,
          "time": 170.81064,
          "velocity": 0.6771653543307087
        },
        {
          "duration": 0.33783750000000623,
          "durationTicks": 240,
          "midi": 62,
          "name": "D4",
          "ticks": 121344,
          "time": 170.81064,
          "velocity": 0.7401574803149606
        },
        {
          "duration": 0.3547293750000051,
          "durationTicks": 252,
          "midi": 57,
          "name": "A3",
          "ticks": 121344,
          "time": 170.81064,
          "velocity": 0.6535433070866141
        },
        {
          "duration": 0.3322068749999971,
          "durationTicks": 236,
          "midi": 62,
          "name": "D4",
          "ticks": 121728,
          "time": 171.35118,
          "velocity": 0.7559055118110236
        },
        {
          "duration": 0.3293915625000068,
          "durationTicks": 234,
          "midi": 66,
          "name": "F#4",
          "ticks": 121728,
          "time": 171.35118,
          "velocity": 0.6771653543307087
        },
        {
          "duration": 0.349098749999996,
          "durationTicks": 248,
          "midi": 57,
          "name": "A3",
          "ticks": 121728,
          "time": 171.35118,
          "velocity": 0.6850393700787402
        },
        {
          "duration": 0.174549374999998,
          "durationTicks": 124,
          "midi": 59,
          "name": "B3",
          "ticks": 122112,
          "time": 171.89172000000002,
          "velocity": 0.7716535433070866
        },
        {
          "duration": 0.1801799999999787,
          "durationTicks": 128,
          "midi": 62,
          "name": "D4",
          "ticks": 122112,
          "time": 171.89172000000002,
          "velocity": 0.7559055118110236
        },
        {
          "duration": 0.19707187499997758,
          "durationTicks": 140,
          "midi": 55,
          "name": "G3",
          "ticks": 122112,
          "time": 171.89172000000002,
          "velocity": 0.6850393700787402
        },
        {
          "duration": 0.21114843750001455,
          "durationTicks": 150,
          "midi": 59,
          "name": "B3",
          "ticks": 122304,
          "time": 172.16199,
          "velocity": 0.7007874015748031
        },
        {
          "duration": 0.22804031250001344,
          "durationTicks": 162,
          "midi": 55,
          "name": "G3",
          "ticks": 122304,
          "time": 172.16199,
          "velocity": 0.6299212598425197
        },
        {
          "duration": 0.22804031250001344,
          "durationTicks": 162,
          "midi": 62,
          "name": "D4",
          "ticks": 122304,
          "time": 172.16199,
          "velocity": 0.7165354330708661
        },
        {
          "duration": 0.17736468749998835,
          "durationTicks": 126,
          "midi": 62,
          "name": "D4",
          "ticks": 122880,
          "time": 172.9728,
          "velocity": 0.7401574803149606
        },
        {
          "duration": 0.19425656249998724,
          "durationTicks": 138,
          "midi": 59,
          "name": "B3",
          "ticks": 122880,
          "time": 172.9728,
          "velocity": 0.6220472440944882
        },
        {
          "duration": 0.17736468749998835,
          "durationTicks": 126,
          "midi": 66,
          "name": "F#4",
          "ticks": 122880,
          "time": 172.9728,
          "velocity": 0.6535433070866141
        },
        {
          "duration": 0.2083331249999958,
          "durationTicks": 148,
          "midi": 62,
          "name": "D4",
          "ticks": 123072,
          "time": 173.24307000000002,
          "velocity": 0.7165354330708661
        },
        {
          "duration": 0.24211687499999357,
          "durationTicks": 172,
          "midi": 59,
          "name": "B3",
          "ticks": 123072,
          "time": 173.24307000000002,
          "velocity": 0.6456692913385826
        },
        {
          "duration": 0.19707187499997758,
          "durationTicks": 140,
          "midi": 66,
          "name": "F#4",
          "ticks": 123072,
          "time": 173.24307000000002,
          "velocity": 0.6771653543307087
        },
        {
          "duration": 0.8671162500000094,
          "durationTicks": 616,
          "midi": 61,
          "name": "C#4",
          "ticks": 123456,
          "time": 173.78361,
          "velocity": 0.7007874015748031
        },
        {
          "duration": 0.8811928124999895,
          "durationTicks": 626,
          "midi": 64,
          "name": "E4",
          "ticks": 123456,
          "time": 173.78361,
          "velocity": 0.6850393700787402
        },
        {
          "duration": 0.8980846874999884,
          "durationTicks": 638,
          "midi": 57,
          "name": "A3",
          "ticks": 123456,
          "time": 173.78361,
          "velocity": 0.6535433070866141
        },
        {
          "duration": 0.3237609374999977,
          "durationTicks": 230,
          "midi": 66,
          "name": "F#4",
          "ticks": 124416,
          "time": 175.13496,
          "velocity": 0.6771653543307087
        },
        {
          "duration": 0.3237609374999977,
          "durationTicks": 230,
          "midi": 57,
          "name": "A3",
          "ticks": 124416,
          "time": 175.13496,
          "velocity": 0.6535433070866141
        },
        {
          "duration": 0.32657625000001644,
          "durationTicks": 232,
          "midi": 62,
          "name": "D4",
          "ticks": 124416,
          "time": 175.13496,
          "velocity": 0.7401574803149606
        },
        {
          "duration": 0.3068690624999988,
          "durationTicks": 218,
          "midi": 62,
          "name": "D4",
          "ticks": 124800,
          "time": 175.6755,
          "velocity": 0.7716535433070866
        },
        {
          "duration": 0.2899771874999999,
          "durationTicks": 206,
          "midi": 66,
          "name": "F#4",
          "ticks": 124800,
          "time": 175.6755,
          "velocity": 0.6535433070866141
        },
        {
          "duration": 0.32657625000001644,
          "durationTicks": 232,
          "midi": 57,
          "name": "A3",
          "ticks": 124800,
          "time": 175.6755,
          "velocity": 0.6692913385826772
        },
        {
          "duration": 0.18299531249999745,
          "durationTicks": 130,
          "midi": 62,
          "name": "D4",
          "ticks": 125184,
          "time": 176.21604000000002,
          "velocity": 0.7165354330708661
        },
        {
          "duration": 0.18299531249999745,
          "durationTicks": 130,
          "midi": 59,
          "name": "B3",
          "ticks": 125184,
          "time": 176.21604000000002,
          "velocity": 0.7165354330708661
        },
        {
          "duration": 0.20270249999998668,
          "durationTicks": 144,
          "midi": 55,
          "name": "G3",
          "ticks": 125184,
          "time": 176.21604000000002,
          "velocity": 0.6692913385826772
        },
        {
          "duration": 0.2252250000000231,
          "durationTicks": 160,
          "midi": 62,
          "name": "D4",
          "ticks": 125376,
          "time": 176.48631,
          "velocity": 0.7007874015748031
        },
        {
          "duration": 0.2083331250000242,
          "durationTicks": 148,
          "midi": 59,
          "name": "B3",
          "ticks": 125376,
          "time": 176.48631,
          "velocity": 0.7007874015748031
        },
        {
          "duration": 0.2139637500000049,
          "durationTicks": 152,
          "midi": 55,
          "name": "G3",
          "ticks": 125376,
          "time": 176.48631,
          "velocity": 0.6220472440944882
        },
        {
          "duration": 0.1689187499999889,
          "durationTicks": 120,
          "midi": 59,
          "name": "B3",
          "ticks": 125952,
          "time": 177.29712,
          "velocity": 0.6692913385826772
        },
        {
          "duration": 0.15765749999999912,
          "durationTicks": 112,
          "midi": 62,
          "name": "D4",
          "ticks": 125952,
          "time": 177.29712,
          "velocity": 0.7165354330708661
        },
        {
          "duration": 0.14076562500000023,
          "durationTicks": 100,
          "midi": 66,
          "name": "F#4",
          "ticks": 125952,
          "time": 177.29712,
          "velocity": 0.6535433070866141
        },
        {
          "duration": 0.17736468749998835,
          "durationTicks": 126,
          "midi": 66,
          "name": "F#4",
          "ticks": 126144,
          "time": 177.56739000000002,
          "velocity": 0.6141732283464567
        },
        {
          "duration": 0.21114843749998613,
          "durationTicks": 150,
          "midi": 59,
          "name": "B3",
          "ticks": 126144,
          "time": 177.56739000000002,
          "velocity": 0.5669291338582677
        },
        {
          "duration": 0.18299531249999745,
          "durationTicks": 130,
          "midi": 62,
          "name": "D4",
          "ticks": 126144,
          "time": 177.56739000000002,
          "velocity": 0.6850393700787402
        },
        {
          "duration": 0.7319812500000182,
          "durationTicks": 520,
          "midi": 61,
          "name": "C#4",
          "ticks": 126528,
          "time": 178.10793,
          "velocity": 0.6771653543307087
        },
        {
          "duration": 0.7629496874999973,
          "durationTicks": 542,
          "midi": 64,
          "name": "E4",
          "ticks": 126528,
          "time": 178.10793,
          "velocity": 0.6850393700787402
        },
        {
          "duration": 0.7488731250000171,
          "durationTicks": 532,
          "midi": 57,
          "name": "A3",
          "ticks": 126528,
          "time": 178.10793,
          "velocity": 0.6456692913385826
        },
        {
          "duration": 0.349098749999996,
          "durationTicks": 248,
          "midi": 62,
          "name": "D4",
          "ticks": 127488,
          "time": 179.45928,
          "velocity": 0.6299212598425197
        },
        {
          "duration": 0.3659906249999949,
          "durationTicks": 260,
          "midi": 57,
          "name": "A3",
          "ticks": 127488,
          "time": 179.45928,
          "velocity": 0.5984251968503937
        },
        {
          "duration": 0.3350221875000159,
          "durationTicks": 238,
          "midi": 66,
          "name": "F#4",
          "ticks": 127488,
          "time": 179.45928,
          "velocity": 0.6141732283464567
        },
        {
          "duration": 0.29842312499999935,
          "durationTicks": 212,
          "midi": 66,
          "name": "F#4",
          "ticks": 127872,
          "time": 179.99982,
          "velocity": 0.6141732283464567
        },
        {
          "duration": 0.3293915625000068,
          "durationTicks": 234,
          "midi": 62,
          "name": "D4",
          "ticks": 127872,
          "time": 179.99982,
          "velocity": 0.6850393700787402
        },
        {
          "duration": 0.3462834375000057,
          "durationTicks": 246,
          "midi": 57,
          "name": "A3",
          "ticks": 127872,
          "time": 179.99982,
          "velocity": 0.6456692913385826
        },
        {
          "duration": 0.15765749999999912,
          "durationTicks": 112,
          "midi": 55,
          "name": "G3",
          "ticks": 128256,
          "time": 180.54036000000002,
          "velocity": 0.7007874015748031
        },
        {
          "duration": 0.12950437499998202,
          "durationTicks": 92,
          "midi": 62,
          "name": "D4",
          "ticks": 128256,
          "time": 180.54036000000002,
          "velocity": 0.7165354330708661
        },
        {
          "duration": 0.12950437499998202,
          "durationTicks": 92,
          "midi": 59,
          "name": "B3",
          "ticks": 128256,
          "time": 180.54036000000002,
          "velocity": 0.7401574803149606
        },
        {
          "duration": 0.2533781250000118,
          "durationTicks": 180,
          "midi": 59,
          "name": "B3",
          "ticks": 128448,
          "time": 180.81063,
          "velocity": 0.6692913385826772
        },
        {
          "duration": 0.28716187500000956,
          "durationTicks": 204,
          "midi": 62,
          "name": "D4",
          "ticks": 128448,
          "time": 180.81063,
          "velocity": 0.6535433070866141
        },
        {
          "duration": 0.2561934375000021,
          "durationTicks": 182,
          "midi": 55,
          "name": "G3",
          "ticks": 128448,
          "time": 180.81063,
          "velocity": 0.5511811023622047
        },
        {
          "duration": 0.20270249999998668,
          "durationTicks": 144,
          "midi": 59,
          "name": "B3",
          "ticks": 129024,
          "time": 181.62144,
          "velocity": 0.7007874015748031
        },
        {
          "duration": 0.13231968750000078,
          "durationTicks": 94,
          "midi": 66,
          "name": "F#4",
          "ticks": 129024,
          "time": 181.62144,
          "velocity": 0.6141732283464567
        },
        {
          "duration": 0.1914412499999969,
          "durationTicks": 136,
          "midi": 62,
          "name": "D4",
          "ticks": 129024,
          "time": 181.62144,
          "velocity": 0.7559055118110236
        },
        {
          "duration": 0.17736468749998835,
          "durationTicks": 126,
          "midi": 62,
          "name": "D4",
          "ticks": 129216,
          "time": 181.89171000000002,
          "velocity": 0.7007874015748031
        },
        {
          "duration": 0.19707187499997758,
          "durationTicks": 140,
          "midi": 66,
          "name": "F#4",
          "ticks": 129216,
          "time": 181.89171000000002,
          "velocity": 0.6771653543307087
        },
        {
          "duration": 0.22522499999999468,
          "durationTicks": 160,
          "midi": 59,
          "name": "B3",
          "ticks": 129216,
          "time": 181.89171000000002,
          "velocity": 0.6692913385826772
        },
        {
          "duration": 0.948760312499985,
          "durationTicks": 674,
          "midi": 64,
          "name": "E4",
          "ticks": 129600,
          "time": 182.43225,
          "velocity": 0.6850393700787402
        },
        {
          "duration": 0.9318684374999862,
          "durationTicks": 662,
          "midi": 61,
          "name": "C#4",
          "ticks": 129600,
          "time": 182.43225,
          "velocity": 0.7322834645669292
        },
        {
          "duration": 0.948760312499985,
          "durationTicks": 674,
          "midi": 57,
          "name": "A3",
          "ticks": 129600,
          "time": 182.43225,
          "velocity": 0.6535433070866141
        },
        {
          "duration": 0.38569781250001256,
          "durationTicks": 274,
          "midi": 66,
          "name": "F#4",
          "ticks": 130560,
          "time": 183.7836,
          "velocity": 0.6535433070866141
        },
        {
          "duration": 0.3885131250000029,
          "durationTicks": 276,
          "midi": 62,
          "name": "D4",
          "ticks": 130560,
          "time": 183.7836,
          "velocity": 0.7559055118110236
        },
        {
          "duration": 0.4054050000000018,
          "durationTicks": 288,
          "midi": 57,
          "name": "A3",
          "ticks": 130560,
          "time": 183.7836,
          "velocity": 0.6692913385826772
        },
        {
          "duration": 0.2899771874999999,
          "durationTicks": 206,
          "midi": 66,
          "name": "F#4",
          "ticks": 130944,
          "time": 184.32414,
          "velocity": 0.6771653543307087
        },
        {
          "duration": 0.3068690624999988,
          "durationTicks": 218,
          "midi": 62,
          "name": "D4",
          "ticks": 130944,
          "time": 184.32414,
          "velocity": 0.7716535433070866
        },
        {
          "duration": 0.32094562500000734,
          "durationTicks": 228,
          "midi": 57,
          "name": "A3",
          "ticks": 130944,
          "time": 184.32414,
          "velocity": 0.7007874015748031
        },
        {
          "duration": 0.1914412499999969,
          "durationTicks": 136,
          "midi": 55,
          "name": "G3",
          "ticks": 131328,
          "time": 184.86468000000002,
          "velocity": 0.6850393700787402
        },
        {
          "duration": 0.17736468749998835,
          "durationTicks": 126,
          "midi": 59,
          "name": "B3",
          "ticks": 131328,
          "time": 184.86468000000002,
          "velocity": 0.7401574803149606
        },
        {
          "duration": 0.16047281249998946,
          "durationTicks": 114,
          "midi": 62,
          "name": "D4",
          "ticks": 131328,
          "time": 184.86468000000002,
          "velocity": 0.7165354330708661
        },
        {
          "duration": 0.21114843750001455,
          "durationTicks": 150,
          "midi": 59,
          "name": "B3",
          "ticks": 131520,
          "time": 185.13495,
          "velocity": 0.7165354330708661
        },
        {
          "duration": 0.2139637500000049,
          "durationTicks": 152,
          "midi": 55,
          "name": "G3",
          "ticks": 131520,
          "time": 185.13495,
          "velocity": 0.6456692913385826
        },
        {
          "duration": 0.21677906250002366,
          "durationTicks": 154,
          "midi": 62,
          "name": "D4",
          "ticks": 131520,
          "time": 185.13495,
          "velocity": 0.7401574803149606
        },
        {
          "duration": 0.1801799999999787,
          "durationTicks": 128,
          "midi": 66,
          "name": "F#4",
          "ticks": 132096,
          "time": 185.94576,
          "velocity": 0.6771653543307087
        },
        {
          "duration": 0.18299531249999745,
          "durationTicks": 130,
          "midi": 62,
          "name": "D4",
          "ticks": 132096,
          "time": 185.94576,
          "velocity": 0.7716535433070866
        },
        {
          "duration": 0.1858106249999878,
          "durationTicks": 132,
          "midi": 59,
          "name": "B3",
          "ticks": 132096,
          "time": 185.94576,
          "velocity": 0.7007874015748031
        },
        {
          "duration": 0.1914412499999969,
          "durationTicks": 136,
          "midi": 62,
          "name": "D4",
          "ticks": 132288,
          "time": 186.21603000000002,
          "velocity": 0.7559055118110236
        },
        {
          "duration": 0.22804031249998502,
          "durationTicks": 162,
          "midi": 59,
          "name": "B3",
          "ticks": 132288,
          "time": 186.21603000000002,
          "velocity": 0.7007874015748031
        },
        {
          "duration": 0.19707187499997758,
          "durationTicks": 140,
          "midi": 66,
          "name": "F#4",
          "ticks": 132288,
          "time": 186.21603000000002,
          "velocity": 0.7007874015748031
        },
        {
          "duration": 0.8924540625000077,
          "durationTicks": 634,
          "midi": 61,
          "name": "C#4",
          "ticks": 132672,
          "time": 186.75657,
          "velocity": 0.7322834645669292
        },
        {
          "duration": 0.9093459375000066,
          "durationTicks": 646,
          "midi": 64,
          "name": "E4",
          "ticks": 132672,
          "time": 186.75657,
          "velocity": 0.7165354330708661
        },
        {
          "duration": 0.895269374999998,
          "durationTicks": 636,
          "midi": 57,
          "name": "A3",
          "ticks": 132672,
          "time": 186.75657,
          "velocity": 0.6535433070866141
        },
        {
          "duration": 0.3350221875000159,
          "durationTicks": 238,
          "midi": 66,
          "name": "F#4",
          "ticks": 133632,
          "time": 188.10792,
          "velocity": 0.6771653543307087
        },
        {
          "duration": 0.33783750000000623,
          "durationTicks": 240,
          "midi": 62,
          "name": "D4",
          "ticks": 133632,
          "time": 188.10792,
          "velocity": 0.7401574803149606
        },
        {
          "duration": 0.3547293750000051,
          "durationTicks": 252,
          "midi": 57,
          "name": "A3",
          "ticks": 133632,
          "time": 188.10792,
          "velocity": 0.6535433070866141
        },
        {
          "duration": 0.3322068749999971,
          "durationTicks": 236,
          "midi": 62,
          "name": "D4",
          "ticks": 134016,
          "time": 188.64846,
          "velocity": 0.7559055118110236
        },
        {
          "duration": 0.3293915625000068,
          "durationTicks": 234,
          "midi": 66,
          "name": "F#4",
          "ticks": 134016,
          "time": 188.64846,
          "velocity": 0.6771653543307087
        },
        {
          "duration": 0.349098749999996,
          "durationTicks": 248,
          "midi": 57,
          "name": "A3",
          "ticks": 134016,
          "time": 188.64846,
          "velocity": 0.6850393700787402
        },
        {
          "duration": 0.174549374999998,
          "durationTicks": 124,
          "midi": 59,
          "name": "B3",
          "ticks": 134400,
          "time": 189.18900000000002,
          "velocity": 0.7716535433070866
        },
        {
          "duration": 0.1801799999999787,
          "durationTicks": 128,
          "midi": 62,
          "name": "D4",
          "ticks": 134400,
          "time": 189.18900000000002,
          "velocity": 0.7559055118110236
        },
        {
          "duration": 0.19707187499997758,
          "durationTicks": 140,
          "midi": 55,
          "name": "G3",
          "ticks": 134400,
          "time": 189.18900000000002,
          "velocity": 0.6850393700787402
        },
        {
          "duration": 0.21114843750001455,
          "durationTicks": 150,
          "midi": 59,
          "name": "B3",
          "ticks": 134592,
          "time": 189.45927,
          "velocity": 0.7007874015748031
        },
        {
          "duration": 0.22804031250001344,
          "durationTicks": 162,
          "midi": 55,
          "name": "G3",
          "ticks": 134592,
          "time": 189.45927,
          "velocity": 0.6299212598425197
        },
        {
          "duration": 0.22804031250001344,
          "durationTicks": 162,
          "midi": 62,
          "name": "D4",
          "ticks": 134592,
          "time": 189.45927,
          "velocity": 0.7165354330708661
        },
        {
          "duration": 0.17736468749998835,
          "durationTicks": 126,
          "midi": 62,
          "name": "D4",
          "ticks": 135168,
          "time": 190.27008,
          "velocity": 0.7401574803149606
        },
        {
          "duration": 0.19425656249998724,
          "durationTicks": 138,
          "midi": 59,
          "name": "B3",
          "ticks": 135168,
          "time": 190.27008,
          "velocity": 0.6220472440944882
        },
        {
          "duration": 0.17736468749998835,
          "durationTicks": 126,
          "midi": 66,
          "name": "F#4",
          "ticks": 135168,
          "time": 190.27008,
          "velocity": 0.6535433070866141
        },
        {
          "duration": 0.2083331249999958,
          "durationTicks": 148,
          "midi": 62,
          "name": "D4",
          "ticks": 135360,
          "time": 190.54035000000002,
          "velocity": 0.7165354330708661
        },
        {
          "duration": 0.24211687499999357,
          "durationTicks": 172,
          "midi": 59,
          "name": "B3",
          "ticks": 135360,
          "time": 190.54035000000002,
          "velocity": 0.6456692913385826
        },
        {
          "duration": 0.19707187499997758,
          "durationTicks": 140,
          "midi": 66,
          "name": "F#4",
          "ticks": 135360,
          "time": 190.54035000000002,
          "velocity": 0.6771653543307087
        },
        {
          "duration": 0.8671162500000094,
          "durationTicks": 616,
          "midi": 61,
          "name": "C#4",
          "ticks": 135744,
          "time": 191.08089,
          "velocity": 0.7007874015748031
        },
        {
          "duration": 0.8811928124999895,
          "durationTicks": 626,
          "midi": 64,
          "name": "E4",
          "ticks": 135744,
          "time": 191.08089,
          "velocity": 0.6850393700787402
        },
        {
          "duration": 0.8980846874999884,
          "durationTicks": 638,
          "midi": 57,
          "name": "A3",
          "ticks": 135744,
          "time": 191.08089,
          "velocity": 0.6535433070866141
        },
        {
          "duration": 0.3237609374999977,
          "durationTicks": 230,
          "midi": 66,
          "name": "F#4",
          "ticks": 136704,
          "time": 192.43224,
          "velocity": 0.6771653543307087
        },
        {
          "duration": 0.3237609374999977,
          "durationTicks": 230,
          "midi": 57,
          "name": "A3",
          "ticks": 136704,
          "time": 192.43224,
          "velocity": 0.6535433070866141
        },
        {
          "duration": 0.32657625000001644,
          "durationTicks": 232,
          "midi": 62,
          "name": "D4",
          "ticks": 136704,
          "time": 192.43224,
          "velocity": 0.7401574803149606
        },
        {
          "duration": 0.3068690624999988,
          "durationTicks": 218,
          "midi": 62,
          "name": "D4",
          "ticks": 137088,
          "time": 192.97278,
          "velocity": 0.7716535433070866
        },
        {
          "duration": 0.2899771874999999,
          "durationTicks": 206,
          "midi": 66,
          "name": "F#4",
          "ticks": 137088,
          "time": 192.97278,
          "velocity": 0.6535433070866141
        },
        {
          "duration": 0.32657625000001644,
          "durationTicks": 232,
          "midi": 57,
          "name": "A3",
          "ticks": 137088,
          "time": 192.97278,
          "velocity": 0.6692913385826772
        },
        {
          "duration": 0.18299531249999745,
          "durationTicks": 130,
          "midi": 62,
          "name": "D4",
          "ticks": 137472,
          "time": 193.51332000000002,
          "velocity": 0.7165354330708661
        },
        {
          "duration": 0.18299531249999745,
          "durationTicks": 130,
          "midi": 59,
          "name": "B3",
          "ticks": 137472,
          "time": 193.51332000000002,
          "velocity": 0.7165354330708661
        },
        {
          "duration": 0.20270249999998668,
          "durationTicks": 144,
          "midi": 55,
          "name": "G3",
          "ticks": 137472,
          "time": 193.51332000000002,
          "velocity": 0.6692913385826772
        },
        {
          "duration": 0.2252250000000231,
          "durationTicks": 160,
          "midi": 62,
          "name": "D4",
          "ticks": 137664,
          "time": 193.78359,
          "velocity": 0.7007874015748031
        },
        {
          "duration": 0.2083331250000242,
          "durationTicks": 148,
          "midi": 59,
          "name": "B3",
          "ticks": 137664,
          "time": 193.78359,
          "velocity": 0.7007874015748031
        },
        {
          "duration": 0.2139637500000049,
          "durationTicks": 152,
          "midi": 55,
          "name": "G3",
          "ticks": 137664,
          "time": 193.78359,
          "velocity": 0.6220472440944882
        },
        {
          "duration": 0.1689187499999889,
          "durationTicks": 120,
          "midi": 59,
          "name": "B3",
          "ticks": 138240,
          "time": 194.5944,
          "velocity": 0.6692913385826772
        },
        {
          "duration": 0.15765749999999912,
          "durationTicks": 112,
          "midi": 62,
          "name": "D4",
          "ticks": 138240,
          "time": 194.5944,
          "velocity": 0.7165354330708661
        },
        {
          "duration": 0.14076562500000023,
          "durationTicks": 100,
          "midi": 66,
          "name": "F#4",
          "ticks": 138240,
          "time": 194.5944,
          "velocity": 0.6535433070866141
        },
        {
          "duration": 0.17736468749998835,
          "durationTicks": 126,
          "midi": 66,
          "name": "F#4",
          "ticks": 138432,
          "time": 194.86467000000002,
          "velocity": 0.6141732283464567
        },
        {
          "duration": 0.21114843749998613,
          "durationTicks": 150,
          "midi": 59,
          "name": "B3",
          "ticks": 138432,
          "time": 194.86467000000002,
          "velocity": 0.5669291338582677
        },
        {
          "duration": 0.18299531249999745,
          "durationTicks": 130,
          "midi": 62,
          "name": "D4",
          "ticks": 138432,
          "time": 194.86467000000002,
          "velocity": 0.6850393700787402
        },
        {
          "duration": 0.7319812500000182,
          "durationTicks": 520,
          "midi": 61,
          "name": "C#4",
          "ticks": 138816,
          "time": 195.40521,
          "velocity": 0.6771653543307087
        },
        {
          "duration": 0.7629496874999973,
          "durationTicks": 542,
          "midi": 64,
          "name": "E4",
          "ticks": 138816,
          "time": 195.40521,
          "velocity": 0.6850393700787402
        },
        {
          "duration": 0.7488731250000171,
          "durationTicks": 532,
          "midi": 57,
          "name": "A3",
          "ticks": 138816,
          "time": 195.40521,
          "velocity": 0.6456692913385826
        },
        {
          "duration": 0.349098749999996,
          "durationTicks": 248,
          "midi": 62,
          "name": "D4",
          "ticks": 139776,
          "time": 196.75656,
          "velocity": 0.6299212598425197
        },
        {
          "duration": 0.3659906249999949,
          "durationTicks": 260,
          "midi": 57,
          "name": "A3",
          "ticks": 139776,
          "time": 196.75656,
          "velocity": 0.5984251968503937
        },
        {
          "duration": 0.3350221875000159,
          "durationTicks": 238,
          "midi": 66,
          "name": "F#4",
          "ticks": 139776,
          "time": 196.75656,
          "velocity": 0.6141732283464567
        },
        {
          "duration": 0.29842312499999935,
          "durationTicks": 212,
          "midi": 66,
          "name": "F#4",
          "ticks": 140160,
          "time": 197.2971,
          "velocity": 0.6141732283464567
        },
        {
          "duration": 0.3293915625000068,
          "durationTicks": 234,
          "midi": 62,
          "name": "D4",
          "ticks": 140160,
          "time": 197.2971,
          "velocity": 0.6850393700787402
        },
        {
          "duration": 0.3462834375000057,
          "durationTicks": 246,
          "midi": 57,
          "name": "A3",
          "ticks": 140160,
          "time": 197.2971,
          "velocity": 0.6456692913385826
        },
        {
          "duration": 0.15765749999999912,
          "durationTicks": 112,
          "midi": 55,
          "name": "G3",
          "ticks": 140544,
          "time": 197.83764000000002,
          "velocity": 0.7007874015748031
        },
        {
          "duration": 0.12950437499998202,
          "durationTicks": 92,
          "midi": 62,
          "name": "D4",
          "ticks": 140544,
          "time": 197.83764000000002,
          "velocity": 0.7165354330708661
        },
        {
          "duration": 0.12950437499998202,
          "durationTicks": 92,
          "midi": 59,
          "name": "B3",
          "ticks": 140544,
          "time": 197.83764000000002,
          "velocity": 0.7401574803149606
        },
        {
          "duration": 0.2533781250000118,
          "durationTicks": 180,
          "midi": 59,
          "name": "B3",
          "ticks": 140736,
          "time": 198.10791,
          "velocity": 0.6692913385826772
        },
        {
          "duration": 0.28716187500000956,
          "durationTicks": 204,
          "midi": 62,
          "name": "D4",
          "ticks": 140736,
          "time": 198.10791,
          "velocity": 0.6535433070866141
        },
        {
          "duration": 0.2561934375000021,
          "durationTicks": 182,
          "midi": 55,
          "name": "G3",
          "ticks": 140736,
          "time": 198.10791,
          "velocity": 0.5511811023622047
        },
        {
          "duration": 0.20270249999998668,
          "durationTicks": 144,
          "midi": 59,
          "name": "B3",
          "ticks": 141312,
          "time": 198.91872,
          "velocity": 0.7007874015748031
        },
        {
          "duration": 0.13231968750000078,
          "durationTicks": 94,
          "midi": 66,
          "name": "F#4",
          "ticks": 141312,
          "time": 198.91872,
          "velocity": 0.6141732283464567
        },
        {
          "duration": 0.1914412499999969,
          "durationTicks": 136,
          "midi": 62,
          "name": "D4",
          "ticks": 141312,
          "time": 198.91872,
          "velocity": 0.7559055118110236
        },
        {
          "duration": 0.17736468749998835,
          "durationTicks": 126,
          "midi": 62,
          "name": "D4",
          "ticks": 141504,
          "time": 199.18899000000002,
          "velocity": 0.7007874015748031
        },
        {
          "duration": 0.19707187499997758,
          "durationTicks": 140,
          "midi": 66,
          "name": "F#4",
          "ticks": 141504,
          "time": 199.18899000000002,
          "velocity": 0.6771653543307087
        },
        {
          "duration": 0.22522499999999468,
          "durationTicks": 160,
          "midi": 59,
          "name": "B3",
          "ticks": 141504,
          "time": 199.18899000000002,
          "velocity": 0.6692913385826772
        },
        {
          "duration": 0.948760312499985,
          "durationTicks": 674,
          "midi": 64,
          "name": "E4",
          "ticks": 141888,
          "time": 199.72953,
          "velocity": 0.6850393700787402
        },
        {
          "duration": 0.9318684374999862,
          "durationTicks": 662,
          "midi": 61,
          "name": "C#4",
          "ticks": 141888,
          "time": 199.72953,
          "velocity": 0.7322834645669292
        },
        {
          "duration": 0.948760312499985,
          "durationTicks": 674,
          "midi": 57,
          "name": "A3",
          "ticks": 141888,
          "time": 199.72953,
          "velocity": 0.6535433070866141
        },
        {
          "duration": 0.38569781250001256,
          "durationTicks": 274,
          "midi": 66,
          "name": "F#4",
          "ticks": 142848,
          "time": 201.08088,
          "velocity": 0.6535433070866141
        },
        {
          "duration": 0.3885131250000029,
          "durationTicks": 276,
          "midi": 62,
          "name": "D4",
          "ticks": 142848,
          "time": 201.08088,
          "velocity": 0.7559055118110236
        },
        {
          "duration": 0.4054050000000018,
          "durationTicks": 288,
          "midi": 57,
          "name": "A3",
          "ticks": 142848,
          "time": 201.08088,
          "velocity": 0.6692913385826772
        },
        {
          "duration": 0.2899771874999999,
          "durationTicks": 206,
          "midi": 66,
          "name": "F#4",
          "ticks": 143232,
          "time": 201.62142,
          "velocity": 0.6771653543307087
        },
        {
          "duration": 0.3068690624999988,
          "durationTicks": 218,
          "midi": 62,
          "name": "D4",
          "ticks": 143232,
          "time": 201.62142,
          "velocity": 0.7716535433070866
        },
        {
          "duration": 0.32094562500000734,
          "durationTicks": 228,
          "midi": 57,
          "name": "A3",
          "ticks": 143232,
          "time": 201.62142,
          "velocity": 0.7007874015748031
        },
        {
          "duration": 0.1914412499999969,
          "durationTicks": 136,
          "midi": 55,
          "name": "G3",
          "ticks": 143616,
          "time": 202.16196000000002,
          "velocity": 0.6850393700787402
        },
        {
          "duration": 0.17736468749998835,
          "durationTicks": 126,
          "midi": 59,
          "name": "B3",
          "ticks": 143616,
          "time": 202.16196000000002,
          "velocity": 0.7401574803149606
        },
        {
          "duration": 0.16047281249998946,
          "durationTicks": 114,
          "midi": 62,
          "name": "D4",
          "ticks": 143616,
          "time": 202.16196000000002,
          "velocity": 0.7165354330708661
        },
        {
          "duration": 0.21114843750001455,
          "durationTicks": 150,
          "midi": 59,
          "name": "B3",
          "ticks": 143808,
          "time": 202.43223,
          "velocity": 0.7165354330708661
        },
        {
          "duration": 0.2139637500000049,
          "durationTicks": 152,
          "midi": 55,
          "name": "G3",
          "ticks": 143808,
          "time": 202.43223,
          "velocity": 0.6456692913385826
        },
        {
          "duration": 0.21677906250002366,
          "durationTicks": 154,
          "midi": 62,
          "name": "D4",
          "ticks": 143808,
          "time": 202.43223,
          "velocity": 0.7401574803149606
        },
        {
          "duration": 0.1801799999999787,
          "durationTicks": 128,
          "midi": 66,
          "name": "F#4",
          "ticks": 144384,
          "time": 203.24304,
          "velocity": 0.6771653543307087
        },
        {
          "duration": 0.18299531249999745,
          "durationTicks": 130,
          "midi": 62,
          "name": "D4",
          "ticks": 144384,
          "time": 203.24304,
          "velocity": 0.7716535433070866
        },
        {
          "duration": 0.1858106249999878,
          "durationTicks": 132,
          "midi": 59,
          "name": "B3",
          "ticks": 144384,
          "time": 203.24304,
          "velocity": 0.7007874015748031
        },
        {
          "duration": 0.1914412499999969,
          "durationTicks": 136,
          "midi": 62,
          "name": "D4",
          "ticks": 144576,
          "time": 203.51331000000002,
          "velocity": 0.7559055118110236
        },
        {
          "duration": 0.22804031249998502,
          "durationTicks": 162,
          "midi": 59,
          "name": "B3",
          "ticks": 144576,
          "time": 203.51331000000002,
          "velocity": 0.7007874015748031
        },
        {
          "duration": 0.19707187499997758,
          "durationTicks": 140,
          "midi": 66,
          "name": "F#4",
          "ticks": 144576,
          "time": 203.51331000000002,
          "velocity": 0.7007874015748031
        },
        {
          "duration": 0.8924540625000077,
          "durationTicks": 634,
          "midi": 61,
          "name": "C#4",
          "ticks": 144960,
          "time": 204.05385,
          "velocity": 0.7322834645669292
        },
        {
          "duration": 0.9093459375000066,
          "durationTicks": 646,
          "midi": 64,
          "name": "E4",
          "ticks": 144960,
          "time": 204.05385,
          "velocity": 0.7165354330708661
        },
        {
          "duration": 0.895269374999998,
          "durationTicks": 636,
          "midi": 57,
          "name": "A3",
          "ticks": 144960,
          "time": 204.05385,
          "velocity": 0.6535433070866141
        },
        {
          "duration": 0.3350221875000159,
          "durationTicks": 238,
          "midi": 66,
          "name": "F#4",
          "ticks": 145920,
          "time": 205.4052,
          "velocity": 0.6771653543307087
        },
        {
          "duration": 0.33783750000000623,
          "durationTicks": 240,
          "midi": 62,
          "name": "D4",
          "ticks": 145920,
          "time": 205.4052,
          "velocity": 0.7401574803149606
        },
        {
          "duration": 0.3547293750000051,
          "durationTicks": 252,
          "midi": 57,
          "name": "A3",
          "ticks": 145920,
          "time": 205.4052,
          "velocity": 0.6535433070866141
        },
        {
          "duration": 0.3322068749999971,
          "durationTicks": 236,
          "midi": 62,
          "name": "D4",
          "ticks": 146304,
          "time": 205.94574,
          "velocity": 0.7559055118110236
        },
        {
          "duration": 0.3293915625000068,
          "durationTicks": 234,
          "midi": 66,
          "name": "F#4",
          "ticks": 146304,
          "time": 205.94574,
          "velocity": 0.6771653543307087
        },
        {
          "duration": 0.349098749999996,
          "durationTicks": 248,
          "midi": 57,
          "name": "A3",
          "ticks": 146304,
          "time": 205.94574,
          "velocity": 0.6850393700787402
        },
        {
          "duration": 0.174549374999998,
          "durationTicks": 124,
          "midi": 59,
          "name": "B3",
          "ticks": 146688,
          "time": 206.48628000000002,
          "velocity": 0.7716535433070866
        },
        {
          "duration": 0.1801799999999787,
          "durationTicks": 128,
          "midi": 62,
          "name": "D4",
          "ticks": 146688,
          "time": 206.48628000000002,
          "velocity": 0.7559055118110236
        },
        {
          "duration": 0.19707187499997758,
          "durationTicks": 140,
          "midi": 55,
          "name": "G3",
          "ticks": 146688,
          "time": 206.48628000000002,
          "velocity": 0.6850393700787402
        },
        {
          "duration": 0.21114843750001455,
          "durationTicks": 150,
          "midi": 59,
          "name": "B3",
          "ticks": 146880,
          "time": 206.75655,
          "velocity": 0.7007874015748031
        },
        {
          "duration": 0.22804031250001344,
          "durationTicks": 162,
          "midi": 55,
          "name": "G3",
          "ticks": 146880,
          "time": 206.75655,
          "velocity": 0.6299212598425197
        },
        {
          "duration": 0.22804031250001344,
          "durationTicks": 162,
          "midi": 62,
          "name": "D4",
          "ticks": 146880,
          "time": 206.75655,
          "velocity": 0.7165354330708661
        },
        {
          "duration": 0.17736468749998835,
          "durationTicks": 126,
          "midi": 62,
          "name": "D4",
          "ticks": 147456,
          "time": 207.56736,
          "velocity": 0.7401574803149606
        },
        {
          "duration": 0.19425656249998724,
          "durationTicks": 138,
          "midi": 59,
          "name": "B3",
          "ticks": 147456,
          "time": 207.56736,
          "velocity": 0.6220472440944882
        },
        {
          "duration": 0.17736468749998835,
          "durationTicks": 126,
          "midi": 66,
          "name": "F#4",
          "ticks": 147456,
          "time": 207.56736,
          "velocity": 0.6535433070866141
        },
        {
          "duration": 0.2083331249999958,
          "durationTicks": 148,
          "midi": 62,
          "name": "D4",
          "ticks": 147648,
          "time": 207.83763000000002,
          "velocity": 0.7165354330708661
        },
        {
          "duration": 0.24211687499999357,
          "durationTicks": 172,
          "midi": 59,
          "name": "B3",
          "ticks": 147648,
          "time": 207.83763000000002,
          "velocity": 0.6456692913385826
        },
        {
          "duration": 0.19707187499997758,
          "durationTicks": 140,
          "midi": 66,
          "name": "F#4",
          "ticks": 147648,
          "time": 207.83763000000002,
          "velocity": 0.6771653543307087
        },
        {
          "duration": 0.8671162500000094,
          "durationTicks": 616,
          "midi": 61,
          "name": "C#4",
          "ticks": 148032,
          "time": 208.37817,
          "velocity": 0.7007874015748031
        },
        {
          "duration": 0.8811928124999895,
          "durationTicks": 626,
          "midi": 64,
          "name": "E4",
          "ticks": 148032,
          "time": 208.37817,
          "velocity": 0.6850393700787402
        },
        {
          "duration": 0.8980846874999884,
          "durationTicks": 638,
          "midi": 57,
          "name": "A3",
          "ticks": 148032,
          "time": 208.37817,
          "velocity": 0.6535433070866141
        },
        {
          "duration": 0.3237609374999977,
          "durationTicks": 230,
          "midi": 66,
          "name": "F#4",
          "ticks": 148992,
          "time": 209.72952,
          "velocity": 0.6771653543307087
        },
        {
          "duration": 0.3237609374999977,
          "durationTicks": 230,
          "midi": 57,
          "name": "A3",
          "ticks": 148992,
          "time": 209.72952,
          "velocity": 0.6535433070866141
        },
        {
          "duration": 0.32657625000001644,
          "durationTicks": 232,
          "midi": 62,
          "name": "D4",
          "ticks": 148992,
          "time": 209.72952,
          "velocity": 0.7401574803149606
        },
        {
          "duration": 0.3068690624999988,
          "durationTicks": 218,
          "midi": 62,
          "name": "D4",
          "ticks": 149376,
          "time": 210.27006,
          "velocity": 0.7716535433070866
        },
        {
          "duration": 0.2899771874999999,
          "durationTicks": 206,
          "midi": 66,
          "name": "F#4",
          "ticks": 149376,
          "time": 210.27006,
          "velocity": 0.6535433070866141
        },
        {
          "duration": 0.32657625000001644,
          "durationTicks": 232,
          "midi": 57,
          "name": "A3",
          "ticks": 149376,
          "time": 210.27006,
          "velocity": 0.6692913385826772
        },
        {
          "duration": 0.18299531249999745,
          "durationTicks": 130,
          "midi": 62,
          "name": "D4",
          "ticks": 149760,
          "time": 210.81060000000002,
          "velocity": 0.7165354330708661
        },
        {
          "duration": 0.18299531249999745,
          "durationTicks": 130,
          "midi": 59,
          "name": "B3",
          "ticks": 149760,
          "time": 210.81060000000002,
          "velocity": 0.7165354330708661
        },
        {
          "duration": 0.20270249999998668,
          "durationTicks": 144,
          "midi": 55,
          "name": "G3",
          "ticks": 149760,
          "time": 210.81060000000002,
          "velocity": 0.6692913385826772
        },
        {
          "duration": 0.2252250000000231,
          "durationTicks": 160,
          "midi": 62,
          "name": "D4",
          "ticks": 149952,
          "time": 211.08087,
          "velocity": 0.7007874015748031
        },
        {
          "duration": 0.2083331250000242,
          "durationTicks": 148,
          "midi": 59,
          "name": "B3",
          "ticks": 149952,
          "time": 211.08087,
          "velocity": 0.7007874015748031
        },
        {
          "duration": 0.2139637500000049,
          "durationTicks": 152,
          "midi": 55,
          "name": "G3",
          "ticks": 149952,
          "time": 211.08087,
          "velocity": 0.6220472440944882
        },
        {
          "duration": 0.1689187499999889,
          "durationTicks": 120,
          "midi": 59,
          "name": "B3",
          "ticks": 150528,
          "time": 211.89168,
          "velocity": 0.6692913385826772
        },
        {
          "duration": 0.15765749999999912,
          "durationTicks": 112,
          "midi": 62,
          "name": "D4",
          "ticks": 150528,
          "time": 211.89168,
          "velocity": 0.7165354330708661
        },
        {
          "duration": 0.14076562500000023,
          "durationTicks": 100,
          "midi": 66,
          "name": "F#4",
          "ticks": 150528,
          "time": 211.89168,
          "velocity": 0.6535433070866141
        },
        {
          "duration": 0.17736468749998835,
          "durationTicks": 126,
          "midi": 66,
          "name": "F#4",
          "ticks": 150720,
          "time": 212.16195000000002,
          "velocity": 0.6141732283464567
        },
        {
          "duration": 0.21114843749998613,
          "durationTicks": 150,
          "midi": 59,
          "name": "B3",
          "ticks": 150720,
          "time": 212.16195000000002,
          "velocity": 0.5669291338582677
        },
        {
          "duration": 0.18299531249999745,
          "durationTicks": 130,
          "midi": 62,
          "name": "D4",
          "ticks": 150720,
          "time": 212.16195000000002,
          "velocity": 0.6850393700787402
        },
        {
          "duration": 0.2027025000000151,
          "durationTicks": 144,
          "midi": 57,
          "name": "A3",
          "ticks": 150912,
          "time": 212.43222,
          "velocity": 0.6456692913385826
        },
        {
          "duration": 0.2027025000000151,
          "durationTicks": 144,
          "midi": 61,
          "name": "C#4",
          "ticks": 150912,
          "time": 212.43222,
          "velocity": 0.6771653543307087
        },
        {
          "duration": 0.2027025000000151,
          "durationTicks": 144,
          "midi": 64,
          "name": "E4",
          "ticks": 150912,
          "time": 212.43222,
          "velocity": 0.6850393700787402
        },
        {
          "duration": 0.22522499999999468,
          "durationTicks": 160,
          "midi": 57,
          "name": "A3",
          "ticks": 151104,
          "time": 212.70249,
          "velocity": 0.6141732283464567
        },
        {
          "duration": 0.22522499999999468,
          "durationTicks": 160,
          "midi": 62,
          "name": "D4",
          "ticks": 151104,
          "time": 212.70249,
          "velocity": 0.6141732283464567
        },
        {
          "duration": 0.22522499999999468,
          "durationTicks": 160,
          "midi": 66,
          "name": "F#4",
          "ticks": 151104,
          "time": 212.70249,
          "velocity": 0.6141732283464567
        }
      ]
    },
    {
      "channel": 0,
      "controlChanges": {
        "0": [
          {
            "number": 0,
            "ticks": 480,
            "time": 0.675675,
            "value": 0
          }
        ],
        "32": [
          {
            "number": 32,
            "ticks": 484,
            "time": 0.681305625,
            "value": 0
          }
        ],
        "121": [
          {
            "number": 121,
            "ticks": 388,
            "time": 0.546170625,
            "value": 0
          }
        ]
      },
      "pitchBends": [],
      "instrument": {
        "family": "piano",
        "name": "acoustic grand piano",
        "number": 0
      },
      "name": "HevyGuitr",
      "notes": []
    },
    {
      "channel": 1,
      "controlChanges": {
        "6": [
          {
            "number": 6,
            "ticks": 1188,
            "time": 1.672295625,
            "value": 0.015748031496062992
          },
          {
            "number": 6,
            "ticks": 1200,
            "time": 1.6891875,
            "value": 0.5039370078740157
          }
        ],
        "7": [
          {
            "number": 7,
            "ticks": 492,
            "time": 0.692566875,
            "value": 0.7086614173228346
          }
        ],
        "10": [
          {
            "number": 10,
            "ticks": 496,
            "time": 0.6981975,
            "value": 0.30708661417322836
          }
        ],
        "11": [
          {
            "number": 11,
            "ticks": 500,
            "time": 0.703828125,
            "value": 1
          }
        ],
        "91": [
          {
            "number": 91,
            "ticks": 504,
            "time": 0.70945875,
            "value": 1
          }
        ],
        "93": [
          {
            "number": 93,
            "ticks": 508,
            "time": 0.715089375,
            "value": 1
          }
        ],
        "100": [
          {
            "number": 100,
            "ticks": 1184,
            "time": 1.666665,
            "value": 0
          },
          {
            "number": 100,
            "ticks": 1196,
            "time": 1.683556875,
            "value": 0.015748031496062992
          },
          {
            "number": 100,
            "ticks": 1208,
            "time": 1.70044875,
            "value": 1
          }
        ],
        "101": [
          {
            "number": 101,
            "ticks": 1180,
            "time": 1.661034375,
            "value": 0
          },
          {
            "number": 101,
            "ticks": 1192,
            "time": 1.67792625,
            "value": 0
          },
          {
            "number": 101,
            "ticks": 1204,
            "time": 1.694818125,
            "value": 1
          }
        ]
      },
      "pitchBends": [],
      "instrument": {
        "family": "guitar",
        "name": "overdriven guitar",
        "number": 29
      },
      "name": "",
      "notes": [
        {
          "duration": 0.225225,
          "durationTicks": 160,
          "midi": 62,
          "name": "D4",
          "ticks": 4608,
          "time": 6.48648,
          "velocity": 0.7952755905511811
        },
        {
          "duration": 0.225225,
          "durationTicks": 160,
          "midi": 50,
          "name": "D3",
          "ticks": 4608,
          "time": 6.48648,
          "velocity": 0.7952755905511811
        },
        {
          "duration": 0.2477475,
          "durationTicks": 176,
          "midi": 50,
          "name": "D3",
          "ticks": 4800,
          "time": 6.75675,
          "velocity": 0.7480314960629921
        },
        {
          "duration": 0.2674546874999999,
          "durationTicks": 190,
          "midi": 62,
          "name": "D4",
          "ticks": 4800,
          "time": 6.75675,
          "velocity": 0.7795275590551181
        },
        {
          "duration": 0.18018,
          "durationTicks": 128,
          "midi": 60,
          "name": "C4",
          "ticks": 4992,
          "time": 7.02702,
          "velocity": 0.8503937007874016
        },
        {
          "duration": 0.18581062500000023,
          "durationTicks": 132,
          "midi": 48,
          "name": "C3",
          "ticks": 4992,
          "time": 7.02702,
          "velocity": 0.7086614173228346
        },
        {
          "duration": 0.22804031250000012,
          "durationTicks": 162,
          "midi": 60,
          "name": "C4",
          "ticks": 5184,
          "time": 7.29729,
          "velocity": 0.8976377952755905
        },
        {
          "duration": 0.23085562500000023,
          "durationTicks": 164,
          "midi": 48,
          "name": "C3",
          "ticks": 5184,
          "time": 7.29729,
          "velocity": 0.8740157480314961
        },
        {
          "duration": 0.225225,
          "durationTicks": 160,
          "midi": 62,
          "name": "D4",
          "ticks": 7680,
          "time": 10.8108,
          "velocity": 0.8503937007874016
        },
        {
          "duration": 0.225225,
          "durationTicks": 160,
          "midi": 50,
          "name": "D3",
          "ticks": 7680,
          "time": 10.8108,
          "velocity": 0.8503937007874016
        },
        {
          "duration": 0.27871593749999946,
          "durationTicks": 198,
          "midi": 50,
          "name": "D3",
          "ticks": 7872,
          "time": 11.08107,
          "velocity": 0.8503937007874016
        },
        {
          "duration": 0.2899771874999999,
          "durationTicks": 206,
          "midi": 62,
          "name": "D4",
          "ticks": 7872,
          "time": 11.08107,
          "velocity": 0.8740157480314961
        },
        {
          "duration": 0.18862593749999945,
          "durationTicks": 134,
          "midi": 48,
          "name": "C3",
          "ticks": 8064,
          "time": 11.35134,
          "velocity": 0.7795275590551181
        },
        {
          "duration": 0.18862593749999945,
          "durationTicks": 134,
          "midi": 60,
          "name": "C4",
          "ticks": 8064,
          "time": 11.35134,
          "velocity": 0.8346456692913385
        },
        {
          "duration": 0.2674546875000008,
          "durationTicks": 190,
          "midi": 60,
          "name": "C4",
          "ticks": 8256,
          "time": 11.62161,
          "velocity": 0.9212598425196851
        },
        {
          "duration": 0.2871618750000007,
          "durationTicks": 204,
          "midi": 48,
          "name": "C3",
          "ticks": 8256,
          "time": 11.62161,
          "velocity": 0.9212598425196851
        },
        {
          "duration": 0.588400312500001,
          "durationTicks": 418,
          "midi": 54,
          "name": "F#3",
          "ticks": 10752,
          "time": 15.13512,
          "velocity": 0.7559055118110236
        },
        {
          "duration": 0.585585,
          "durationTicks": 416,
          "midi": 62,
          "name": "D4",
          "ticks": 10752,
          "time": 15.13512,
          "velocity": 0.8188976377952756
        },
        {
          "duration": 0.6052921874999999,
          "durationTicks": 430,
          "midi": 57,
          "name": "A3",
          "ticks": 10752,
          "time": 15.13512,
          "velocity": 0.8188976377952756
        },
        {
          "duration": 0.5658778124999984,
          "durationTicks": 402,
          "midi": 55,
          "name": "G3",
          "ticks": 11520,
          "time": 16.2162,
          "velocity": 0.7952755905511811
        },
        {
          "duration": 0.5658778124999984,
          "durationTicks": 402,
          "midi": 59,
          "name": "B3",
          "ticks": 11520,
          "time": 16.2162,
          "velocity": 0.8503937007874016
        },
        {
          "duration": 0.5884003124999992,
          "durationTicks": 418,
          "midi": 50,
          "name": "D3",
          "ticks": 11520,
          "time": 16.2162,
          "velocity": 0.8188976377952756
        },
        {
          "duration": 0.5799543749999998,
          "durationTicks": 412,
          "midi": 62,
          "name": "D4",
          "ticks": 12288,
          "time": 17.29728,
          "velocity": 0.8503937007874016
        },
        {
          "duration": 0.5968462499999987,
          "durationTicks": 424,
          "midi": 59,
          "name": "B3",
          "ticks": 12288,
          "time": 17.29728,
          "velocity": 0.8188976377952756
        },
        {
          "duration": 0.5799543749999998,
          "durationTicks": 412,
          "midi": 66,
          "name": "F#4",
          "ticks": 12288,
          "time": 17.29728,
          "velocity": 0.84251968503937
        },
        {
          "duration": 0.8220712500000005,
          "durationTicks": 584,
          "midi": 64,
          "name": "E4",
          "ticks": 12864,
          "time": 18.10809,
          "velocity": 0.8188976377952756
        },
        {
          "duration": 0.8051793750000016,
          "durationTicks": 572,
          "midi": 61,
          "name": "C#4",
          "ticks": 12864,
          "time": 18.10809,
          "velocity": 0.8740157480314961
        },
        {
          "duration": 0.8220712500000005,
          "durationTicks": 584,
          "midi": 57,
          "name": "A3",
          "ticks": 12864,
          "time": 18.10809,
          "velocity": 0.7637795275590551
        },
        {
          "duration": 0.6193687499999996,
          "durationTicks": 440,
          "midi": 54,
          "name": "F#3",
          "ticks": 13824,
          "time": 19.45944,
          "velocity": 0.7322834645669292
        },
        {
          "duration": 0.6249993750000016,
          "durationTicks": 444,
          "midi": 57,
          "name": "A3",
          "ticks": 13824,
          "time": 19.45944,
          "velocity": 0.7795275590551181
        },
        {
          "duration": 0.6447065625000015,
          "durationTicks": 458,
          "midi": 62,
          "name": "D4",
          "ticks": 13824,
          "time": 19.45944,
          "velocity": 0.7795275590551181
        },
        {
          "duration": 0.5686931250000029,
          "durationTicks": 404,
          "midi": 50,
          "name": "D3",
          "ticks": 14592,
          "time": 20.54052,
          "velocity": 0.7795275590551181
        },
        {
          "duration": 0.5912156250000002,
          "durationTicks": 420,
          "midi": 59,
          "name": "B3",
          "ticks": 14592,
          "time": 20.54052,
          "velocity": 0.8188976377952756
        },
        {
          "duration": 0.5912156250000002,
          "durationTicks": 420,
          "midi": 55,
          "name": "G3",
          "ticks": 14592,
          "time": 20.54052,
          "velocity": 0.7637795275590551
        },
        {
          "duration": 0.6109228125000001,
          "durationTicks": 434,
          "midi": 59,
          "name": "B3",
          "ticks": 15360,
          "time": 21.6216,
          "velocity": 0.8188976377952756
        },
        {
          "duration": 0.5940309375000012,
          "durationTicks": 422,
          "midi": 62,
          "name": "D4",
          "ticks": 15360,
          "time": 21.6216,
          "velocity": 0.8503937007874016
        },
        {
          "duration": 0.5658778124999984,
          "durationTicks": 402,
          "midi": 66,
          "name": "F#4",
          "ticks": 15360,
          "time": 21.6216,
          "velocity": 0.84251968503937
        },
        {
          "duration": 0.813625312500001,
          "durationTicks": 578,
          "midi": 57,
          "name": "A3",
          "ticks": 15936,
          "time": 22.43241,
          "velocity": 0.7637795275590551
        },
        {
          "duration": 0.7939181250000011,
          "durationTicks": 564,
          "midi": 61,
          "name": "C#4",
          "ticks": 15936,
          "time": 22.43241,
          "velocity": 0.8740157480314961
        },
        {
          "duration": 0.81081,
          "durationTicks": 576,
          "midi": 64,
          "name": "E4",
          "ticks": 15936,
          "time": 22.43241,
          "velocity": 0.8346456692913385
        },
        {
          "duration": 0.5884003124999992,
          "durationTicks": 418,
          "midi": 54,
          "name": "F#3",
          "ticks": 41472,
          "time": 58.37832,
          "velocity": 0.7559055118110236
        },
        {
          "duration": 0.5855849999999947,
          "durationTicks": 416,
          "midi": 62,
          "name": "D4",
          "ticks": 41472,
          "time": 58.37832,
          "velocity": 0.8188976377952756
        },
        {
          "duration": 0.6052921875000052,
          "durationTicks": 430,
          "midi": 57,
          "name": "A3",
          "ticks": 41472,
          "time": 58.37832,
          "velocity": 0.8188976377952756
        },
        {
          "duration": 0.5658778124999984,
          "durationTicks": 402,
          "midi": 55,
          "name": "G3",
          "ticks": 42240,
          "time": 59.4594,
          "velocity": 0.7952755905511811
        },
        {
          "duration": 0.5658778124999984,
          "durationTicks": 402,
          "midi": 59,
          "name": "B3",
          "ticks": 42240,
          "time": 59.4594,
          "velocity": 0.8503937007874016
        },
        {
          "duration": 0.5884003124999992,
          "durationTicks": 418,
          "midi": 50,
          "name": "D3",
          "ticks": 42240,
          "time": 59.4594,
          "velocity": 0.8188976377952756
        },
        {
          "duration": 0.5799543749999998,
          "durationTicks": 412,
          "midi": 62,
          "name": "D4",
          "ticks": 43008,
          "time": 60.54048,
          "velocity": 0.8503937007874016
        },
        {
          "duration": 0.5968462500000058,
          "durationTicks": 424,
          "midi": 59,
          "name": "B3",
          "ticks": 43008,
          "time": 60.54048,
          "velocity": 0.8188976377952756
        },
        {
          "duration": 0.5799543749999998,
          "durationTicks": 412,
          "midi": 66,
          "name": "F#4",
          "ticks": 43008,
          "time": 60.54048,
          "velocity": 0.84251968503937
        },
        {
          "duration": 0.8220712499999934,
          "durationTicks": 584,
          "midi": 64,
          "name": "E4",
          "ticks": 43584,
          "time": 61.351290000000006,
          "velocity": 0.8188976377952756
        },
        {
          "duration": 0.8051793749999945,
          "durationTicks": 572,
          "midi": 61,
          "name": "C#4",
          "ticks": 43584,
          "time": 61.351290000000006,
          "velocity": 0.8740157480314961
        },
        {
          "duration": 0.8220712499999934,
          "durationTicks": 584,
          "midi": 57,
          "name": "A3",
          "ticks": 43584,
          "time": 61.351290000000006,
          "velocity": 0.7637795275590551
        },
        {
          "duration": 0.6193687499999996,
          "durationTicks": 440,
          "midi": 54,
          "name": "F#3",
          "ticks": 44544,
          "time": 62.70264,
          "velocity": 0.7322834645669292
        },
        {
          "duration": 0.6249993750000016,
          "durationTicks": 444,
          "midi": 57,
          "name": "A3",
          "ticks": 44544,
          "time": 62.70264,
          "velocity": 0.7795275590551181
        },
        {
          "duration": 0.6447065624999979,
          "durationTicks": 458,
          "midi": 62,
          "name": "D4",
          "ticks": 44544,
          "time": 62.70264,
          "velocity": 0.7795275590551181
        },
        {
          "duration": 0.5686931249999958,
          "durationTicks": 404,
          "midi": 50,
          "name": "D3",
          "ticks": 45312,
          "time": 63.78372,
          "velocity": 0.7795275590551181
        },
        {
          "duration": 0.5912156250000038,
          "durationTicks": 420,
          "midi": 59,
          "name": "B3",
          "ticks": 45312,
          "time": 63.78372,
          "velocity": 0.8188976377952756
        },
        {
          "duration": 0.5912156250000038,
          "durationTicks": 420,
          "midi": 55,
          "name": "G3",
          "ticks": 45312,
          "time": 63.78372,
          "velocity": 0.7637795275590551
        },
        {
          "duration": 0.610922812499993,
          "durationTicks": 434,
          "midi": 59,
          "name": "B3",
          "ticks": 46080,
          "time": 64.8648,
          "velocity": 0.8188976377952756
        },
        {
          "duration": 0.5940309374999941,
          "durationTicks": 422,
          "midi": 62,
          "name": "D4",
          "ticks": 46080,
          "time": 64.8648,
          "velocity": 0.8503937007874016
        },
        {
          "duration": 0.5658778125000055,
          "durationTicks": 402,
          "midi": 66,
          "name": "F#4",
          "ticks": 46080,
          "time": 64.8648,
          "velocity": 0.84251968503937
        },
        {
          "duration": 0.8136253124999939,
          "durationTicks": 578,
          "midi": 57,
          "name": "A3",
          "ticks": 46656,
          "time": 65.67561,
          "velocity": 0.7637795275590551
        },
        {
          "duration": 0.7939181249999905,
          "durationTicks": 564,
          "midi": 61,
          "name": "C#4",
          "ticks": 46656,
          "time": 65.67561,
          "velocity": 0.8740157480314961
        },
        {
          "duration": 0.8108100000000036,
          "durationTicks": 576,
          "midi": 64,
          "name": "E4",
          "ticks": 46656,
          "time": 65.67561,
          "velocity": 0.8346456692913385
        },
        {
          "duration": 0.5884003124999992,
          "durationTicks": 418,
          "midi": 54,
          "name": "F#3",
          "ticks": 47616,
          "time": 67.02696,
          "velocity": 0.7559055118110236
        },
        {
          "duration": 0.5855849999999947,
          "durationTicks": 416,
          "midi": 62,
          "name": "D4",
          "ticks": 47616,
          "time": 67.02696,
          "velocity": 0.8188976377952756
        },
        {
          "duration": 0.6052921874999981,
          "durationTicks": 430,
          "midi": 57,
          "name": "A3",
          "ticks": 47616,
          "time": 67.02696,
          "velocity": 0.8188976377952756
        },
        {
          "duration": 0.5658778125000055,
          "durationTicks": 402,
          "midi": 55,
          "name": "G3",
          "ticks": 48384,
          "time": 68.10804,
          "velocity": 0.7952755905511811
        },
        {
          "duration": 0.5658778125000055,
          "durationTicks": 402,
          "midi": 59,
          "name": "B3",
          "ticks": 48384,
          "time": 68.10804,
          "velocity": 0.8503937007874016
        },
        {
          "duration": 0.5884003124999992,
          "durationTicks": 418,
          "midi": 50,
          "name": "D3",
          "ticks": 48384,
          "time": 68.10804,
          "velocity": 0.8188976377952756
        },
        {
          "duration": 0.5799543749999998,
          "durationTicks": 412,
          "midi": 62,
          "name": "D4",
          "ticks": 49152,
          "time": 69.18912,
          "velocity": 0.8503937007874016
        },
        {
          "duration": 0.5968462499999987,
          "durationTicks": 424,
          "midi": 59,
          "name": "B3",
          "ticks": 49152,
          "time": 69.18912,
          "velocity": 0.8188976377952756
        },
        {
          "duration": 0.5799543749999998,
          "durationTicks": 412,
          "midi": 66,
          "name": "F#4",
          "ticks": 49152,
          "time": 69.18912,
          "velocity": 0.84251968503937
        },
        {
          "duration": 0.8220712500000076,
          "durationTicks": 584,
          "midi": 64,
          "name": "E4",
          "ticks": 49728,
          "time": 69.99993,
          "velocity": 0.8188976377952756
        },
        {
          "duration": 0.8051793750000087,
          "durationTicks": 572,
          "midi": 61,
          "name": "C#4",
          "ticks": 49728,
          "time": 69.99993,
          "velocity": 0.8740157480314961
        },
        {
          "duration": 0.8220712500000076,
          "durationTicks": 584,
          "midi": 57,
          "name": "A3",
          "ticks": 49728,
          "time": 69.99993,
          "velocity": 0.7637795275590551
        },
        {
          "duration": 0.6193687500000067,
          "durationTicks": 440,
          "midi": 54,
          "name": "F#3",
          "ticks": 50688,
          "time": 71.35128,
          "velocity": 0.7322834645669292
        },
        {
          "duration": 0.6249993750000016,
          "durationTicks": 444,
          "midi": 57,
          "name": "A3",
          "ticks": 50688,
          "time": 71.35128,
          "velocity": 0.7795275590551181
        },
        {
          "duration": 0.644706562500005,
          "durationTicks": 458,
          "midi": 62,
          "name": "D4",
          "ticks": 50688,
          "time": 71.35128,
          "velocity": 0.7795275590551181
        },
        {
          "duration": 0.56869312500001,
          "durationTicks": 404,
          "midi": 50,
          "name": "D3",
          "ticks": 51456,
          "time": 72.43236,
          "velocity": 0.7795275590551181
        },
        {
          "duration": 0.5912156250000038,
          "durationTicks": 420,
          "midi": 59,
          "name": "B3",
          "ticks": 51456,
          "time": 72.43236,
          "velocity": 0.8188976377952756
        },
        {
          "duration": 0.5912156250000038,
          "durationTicks": 420,
          "midi": 55,
          "name": "G3",
          "ticks": 51456,
          "time": 72.43236,
          "velocity": 0.7637795275590551
        },
        {
          "duration": 0.6109228125000072,
          "durationTicks": 434,
          "midi": 59,
          "name": "B3",
          "ticks": 52224,
          "time": 73.51344,
          "velocity": 0.8188976377952756
        },
        {
          "duration": 0.5940309375000083,
          "durationTicks": 422,
          "midi": 62,
          "name": "D4",
          "ticks": 52224,
          "time": 73.51344,
          "velocity": 0.8503937007874016
        },
        {
          "duration": 0.5658778125000055,
          "durationTicks": 402,
          "midi": 66,
          "name": "F#4",
          "ticks": 52224,
          "time": 73.51344,
          "velocity": 0.84251968503937
        },
        {
          "duration": 0.8136253125000081,
          "durationTicks": 578,
          "midi": 57,
          "name": "A3",
          "ticks": 52800,
          "time": 74.32425,
          "velocity": 0.7637795275590551
        },
        {
          "duration": 0.7939181249999905,
          "durationTicks": 564,
          "midi": 61,
          "name": "C#4",
          "ticks": 52800,
          "time": 74.32425,
          "velocity": 0.8740157480314961
        },
        {
          "duration": 0.8108100000000036,
          "durationTicks": 576,
          "midi": 64,
          "name": "E4",
          "ticks": 52800,
          "time": 74.32425,
          "velocity": 0.8346456692913385
        },
        {
          "duration": 0.5884003124999992,
          "durationTicks": 418,
          "midi": 54,
          "name": "F#3",
          "ticks": 78336,
          "time": 110.27016,
          "velocity": 0.7559055118110236
        },
        {
          "duration": 0.5855850000000089,
          "durationTicks": 416,
          "midi": 62,
          "name": "D4",
          "ticks": 78336,
          "time": 110.27016,
          "velocity": 0.8188976377952756
        },
        {
          "duration": 0.6052921874999981,
          "durationTicks": 430,
          "midi": 57,
          "name": "A3",
          "ticks": 78336,
          "time": 110.27016,
          "velocity": 0.8188976377952756
        },
        {
          "duration": 0.5658778125000055,
          "durationTicks": 402,
          "midi": 55,
          "name": "G3",
          "ticks": 79104,
          "time": 111.35124,
          "velocity": 0.7952755905511811
        },
        {
          "duration": 0.5658778125000055,
          "durationTicks": 402,
          "midi": 59,
          "name": "B3",
          "ticks": 79104,
          "time": 111.35124,
          "velocity": 0.8503937007874016
        },
        {
          "duration": 0.5884003124999992,
          "durationTicks": 418,
          "midi": 50,
          "name": "D3",
          "ticks": 79104,
          "time": 111.35124,
          "velocity": 0.8188976377952756
        },
        {
          "duration": 0.5799543749999998,
          "durationTicks": 412,
          "midi": 62,
          "name": "D4",
          "ticks": 79872,
          "time": 112.43232,
          "velocity": 0.8503937007874016
        },
        {
          "duration": 0.5968462499999987,
          "durationTicks": 424,
          "midi": 59,
          "name": "B3",
          "ticks": 79872,
          "time": 112.43232,
          "velocity": 0.8188976377952756
        },
        {
          "duration": 0.5799543749999998,
          "durationTicks": 412,
          "midi": 66,
          "name": "F#4",
          "ticks": 79872,
          "time": 112.43232,
          "velocity": 0.84251968503937
        },
        {
          "duration": 0.8220712500000076,
          "durationTicks": 584,
          "midi": 64,
          "name": "E4",
          "ticks": 80448,
          "time": 113.24313000000001,
          "velocity": 0.8188976377952756
        },
        {
          "duration": 0.8051793750000087,
          "durationTicks": 572,
          "midi": 61,
          "name": "C#4",
          "ticks": 80448,
          "time": 113.24313000000001,
          "velocity": 0.8740157480314961
        },
        {
          "duration": 0.8220712500000076,
          "durationTicks": 584,
          "midi": 57,
          "name": "A3",
          "ticks": 80448,
          "time": 113.24313000000001,
          "velocity": 0.7637795275590551
        },
        {
          "duration": 0.6193687500000067,
          "durationTicks": 440,
          "midi": 54,
          "name": "F#3",
          "ticks": 81408,
          "time": 114.59448,
          "velocity": 0.7322834645669292
        },
        {
          "duration": 0.6249993750000016,
          "durationTicks": 444,
          "midi": 57,
          "name": "A3",
          "ticks": 81408,
          "time": 114.59448,
          "velocity": 0.7795275590551181
        },
        {
          "duration": 0.644706562500005,
          "durationTicks": 458,
          "midi": 62,
          "name": "D4",
          "ticks": 81408,
          "time": 114.59448,
          "velocity": 0.7795275590551181
        },
        {
          "duration": 0.56869312500001,
          "durationTicks": 404,
          "midi": 50,
          "name": "D3",
          "ticks": 82176,
          "time": 115.67556,
          "velocity": 0.7795275590551181
        },
        {
          "duration": 0.5912156250000038,
          "durationTicks": 420,
          "midi": 59,
          "name": "B3",
          "ticks": 82176,
          "time": 115.67556,
          "velocity": 0.8188976377952756
        },
        {
          "duration": 0.5912156250000038,
          "durationTicks": 420,
          "midi": 55,
          "name": "G3",
          "ticks": 82176,
          "time": 115.67556,
          "velocity": 0.7637795275590551
        },
        {
          "duration": 0.6109228125000072,
          "durationTicks": 434,
          "midi": 59,
          "name": "B3",
          "ticks": 82944,
          "time": 116.75664,
          "velocity": 0.8188976377952756
        },
        {
          "duration": 0.5940309375000083,
          "durationTicks": 422,
          "midi": 62,
          "name": "D4",
          "ticks": 82944,
          "time": 116.75664,
          "velocity": 0.8503937007874016
        },
        {
          "duration": 0.5658778125000055,
          "durationTicks": 402,
          "midi": 66,
          "name": "F#4",
          "ticks": 82944,
          "time": 116.75664,
          "velocity": 0.84251968503937
        },
        {
          "duration": 0.8136253125000081,
          "durationTicks": 578,
          "midi": 57,
          "name": "A3",
          "ticks": 83520,
          "time": 117.56745000000001,
          "velocity": 0.7637795275590551
        },
        {
          "duration": 0.7939181249999905,
          "durationTicks": 564,
          "midi": 61,
          "name": "C#4",
          "ticks": 83520,
          "time": 117.56745000000001,
          "velocity": 0.8740157480314961
        },
        {
          "duration": 0.8108100000000036,
          "durationTicks": 576,
          "midi": 64,
          "name": "E4",
          "ticks": 83520,
          "time": 117.56745000000001,
          "velocity": 0.8346456692913385
        },
        {
          "duration": 0.5884003124999992,
          "durationTicks": 418,
          "midi": 54,
          "name": "F#3",
          "ticks": 84480,
          "time": 118.9188,
          "velocity": 0.7559055118110236
        },
        {
          "duration": 0.5855850000000089,
          "durationTicks": 416,
          "midi": 62,
          "name": "D4",
          "ticks": 84480,
          "time": 118.9188,
          "velocity": 0.8188976377952756
        },
        {
          "duration": 0.6052921874999981,
          "durationTicks": 430,
          "midi": 57,
          "name": "A3",
          "ticks": 84480,
          "time": 118.9188,
          "velocity": 0.8188976377952756
        },
        {
          "duration": 0.5658778125000055,
          "durationTicks": 402,
          "midi": 55,
          "name": "G3",
          "ticks": 85248,
          "time": 119.99988,
          "velocity": 0.7952755905511811
        },
        {
          "duration": 0.5658778125000055,
          "durationTicks": 402,
          "midi": 59,
          "name": "B3",
          "ticks": 85248,
          "time": 119.99988,
          "velocity": 0.8503937007874016
        },
        {
          "duration": 0.5884003124999992,
          "durationTicks": 418,
          "midi": 50,
          "name": "D3",
          "ticks": 85248,
          "time": 119.99988,
          "velocity": 0.8188976377952756
        },
        {
          "duration": 0.5799543749999998,
          "durationTicks": 412,
          "midi": 62,
          "name": "D4",
          "ticks": 86016,
          "time": 121.08096,
          "velocity": 0.8503937007874016
        },
        {
          "duration": 0.5968462499999987,
          "durationTicks": 424,
          "midi": 59,
          "name": "B3",
          "ticks": 86016,
          "time": 121.08096,
          "velocity": 0.8188976377952756
        },
        {
          "duration": 0.5799543749999998,
          "durationTicks": 412,
          "midi": 66,
          "name": "F#4",
          "ticks": 86016,
          "time": 121.08096,
          "velocity": 0.84251968503937
        },
        {
          "duration": 0.8220712500000076,
          "durationTicks": 584,
          "midi": 64,
          "name": "E4",
          "ticks": 86592,
          "time": 121.89177000000001,
          "velocity": 0.8188976377952756
        },
        {
          "duration": 0.8051793750000087,
          "durationTicks": 572,
          "midi": 61,
          "name": "C#4",
          "ticks": 86592,
          "time": 121.89177000000001,
          "velocity": 0.8740157480314961
        },
        {
          "duration": 0.8220712500000076,
          "durationTicks": 584,
          "midi": 57,
          "name": "A3",
          "ticks": 86592,
          "time": 121.89177000000001,
          "velocity": 0.7637795275590551
        },
        {
          "duration": 0.6193687500000067,
          "durationTicks": 440,
          "midi": 54,
          "name": "F#3",
          "ticks": 87552,
          "time": 123.24312,
          "velocity": 0.7322834645669292
        },
        {
          "duration": 0.6249993750000016,
          "durationTicks": 444,
          "midi": 57,
          "name": "A3",
          "ticks": 87552,
          "time": 123.24312,
          "velocity": 0.7795275590551181
        },
        {
          "duration": 0.644706562500005,
          "durationTicks": 458,
          "midi": 62,
          "name": "D4",
          "ticks": 87552,
          "time": 123.24312,
          "velocity": 0.7795275590551181
        },
        {
          "duration": 0.56869312500001,
          "durationTicks": 404,
          "midi": 50,
          "name": "D3",
          "ticks": 88320,
          "time": 124.3242,
          "velocity": 0.7795275590551181
        },
        {
          "duration": 0.5912156250000038,
          "durationTicks": 420,
          "midi": 59,
          "name": "B3",
          "ticks": 88320,
          "time": 124.3242,
          "velocity": 0.8188976377952756
        },
        {
          "duration": 0.5912156250000038,
          "durationTicks": 420,
          "midi": 55,
          "name": "G3",
          "ticks": 88320,
          "time": 124.3242,
          "velocity": 0.7637795275590551
        },
        {
          "duration": 0.6109228125000072,
          "durationTicks": 434,
          "midi": 59,
          "name": "B3",
          "ticks": 89088,
          "time": 125.40528,
          "velocity": 0.8188976377952756
        },
        {
          "duration": 0.5940309375000083,
          "durationTicks": 422,
          "midi": 62,
          "name": "D4",
          "ticks": 89088,
          "time": 125.40528,
          "velocity": 0.8503937007874016
        },
        {
          "duration": 0.5658778125000055,
          "durationTicks": 402,
          "midi": 66,
          "name": "F#4",
          "ticks": 89088,
          "time": 125.40528,
          "velocity": 0.84251968503937
        },
        {
          "duration": 0.8136253125000081,
          "durationTicks": 578,
          "midi": 57,
          "name": "A3",
          "ticks": 89664,
          "time": 126.21609000000001,
          "velocity": 0.7637795275590551
        },
        {
          "duration": 0.7939181249999905,
          "durationTicks": 564,
          "midi": 61,
          "name": "C#4",
          "ticks": 89664,
          "time": 126.21609000000001,
          "velocity": 0.8740157480314961
        },
        {
          "duration": 0.8108100000000036,
          "durationTicks": 576,
          "midi": 64,
          "name": "E4",
          "ticks": 89664,
          "time": 126.21609000000001,
          "velocity": 0.8346456692913385
        },
        {
          "duration": 0.22522499999999468,
          "durationTicks": 160,
          "midi": 62,
          "name": "D4",
          "ticks": 90624,
          "time": 127.56744,
          "velocity": 0.7952755905511811
        },
        {
          "duration": 0.22522499999999468,
          "durationTicks": 160,
          "midi": 50,
          "name": "D3",
          "ticks": 90624,
          "time": 127.56744,
          "velocity": 0.7952755905511811
        },
        {
          "duration": 0.24774750000001688,
          "durationTicks": 176,
          "midi": 50,
          "name": "D3",
          "ticks": 90816,
          "time": 127.83771,
          "velocity": 0.7480314960629921
        },
        {
          "duration": 0.2674546875000061,
          "durationTicks": 190,
          "midi": 62,
          "name": "D4",
          "ticks": 90816,
          "time": 127.83771,
          "velocity": 0.7795275590551181
        },
        {
          "duration": 0.1801800000000071,
          "durationTicks": 128,
          "midi": 60,
          "name": "C4",
          "ticks": 91008,
          "time": 128.10798,
          "velocity": 0.8503937007874016
        },
        {
          "duration": 0.18581062500001622,
          "durationTicks": 132,
          "midi": 48,
          "name": "C3",
          "ticks": 91008,
          "time": 128.10798,
          "velocity": 0.7086614173228346
        },
        {
          "duration": 0.22804031249998502,
          "durationTicks": 162,
          "midi": 60,
          "name": "C4",
          "ticks": 91200,
          "time": 128.37825,
          "velocity": 0.8976377952755905
        },
        {
          "duration": 0.23085562500000378,
          "durationTicks": 164,
          "midi": 48,
          "name": "C3",
          "ticks": 91200,
          "time": 128.37825,
          "velocity": 0.8740157480314961
        },
        {
          "duration": 0.22522499999999468,
          "durationTicks": 160,
          "midi": 62,
          "name": "D4",
          "ticks": 93696,
          "time": 131.89176,
          "velocity": 0.8503937007874016
        },
        {
          "duration": 0.22522499999999468,
          "durationTicks": 160,
          "midi": 50,
          "name": "D3",
          "ticks": 93696,
          "time": 131.89176,
          "velocity": 0.8503937007874016
        },
        {
          "duration": 0.3068690624999988,
          "durationTicks": 218,
          "midi": 50,
          "name": "D3",
          "ticks": 93888,
          "time": 132.16203000000002,
          "velocity": 0.8503937007874016
        },
        {
          "duration": 0.2899771874999999,
          "durationTicks": 206,
          "midi": 62,
          "name": "D4",
          "ticks": 93888,
          "time": 132.16203000000002,
          "velocity": 0.8740157480314961
        },
        {
          "duration": 0.18862593750000656,
          "durationTicks": 134,
          "midi": 48,
          "name": "C3",
          "ticks": 94080,
          "time": 132.4323,
          "velocity": 0.7795275590551181
        },
        {
          "duration": 0.18862593750000656,
          "durationTicks": 134,
          "midi": 60,
          "name": "C4",
          "ticks": 94080,
          "time": 132.4323,
          "velocity": 0.8346456692913385
        },
        {
          "duration": 0.2674546874999919,
          "durationTicks": 190,
          "midi": 60,
          "name": "C4",
          "ticks": 94272,
          "time": 132.70257,
          "velocity": 0.9212598425196851
        },
        {
          "duration": 0.28716187500000956,
          "durationTicks": 204,
          "midi": 48,
          "name": "C3",
          "ticks": 94272,
          "time": 132.70257,
          "velocity": 0.9212598425196851
        },
        {
          "duration": 0.22522499999999468,
          "durationTicks": 160,
          "midi": 62,
          "name": "D4",
          "ticks": 96768,
          "time": 136.21608,
          "velocity": 0.7952755905511811
        },
        {
          "duration": 0.22522499999999468,
          "durationTicks": 160,
          "midi": 50,
          "name": "D3",
          "ticks": 96768,
          "time": 136.21608,
          "velocity": 0.7952755905511811
        },
        {
          "duration": 0.24774750000000267,
          "durationTicks": 176,
          "midi": 50,
          "name": "D3",
          "ticks": 96960,
          "time": 136.48635000000002,
          "velocity": 0.7480314960629921
        },
        {
          "duration": 0.2674546874999919,
          "durationTicks": 190,
          "midi": 62,
          "name": "D4",
          "ticks": 96960,
          "time": 136.48635000000002,
          "velocity": 0.7795275590551181
        },
        {
          "duration": 0.1801800000000071,
          "durationTicks": 128,
          "midi": 60,
          "name": "C4",
          "ticks": 97152,
          "time": 136.75662,
          "velocity": 0.8503937007874016
        },
        {
          "duration": 0.18581062500001622,
          "durationTicks": 132,
          "midi": 48,
          "name": "C3",
          "ticks": 97152,
          "time": 136.75662,
          "velocity": 0.7086614173228346
        },
        {
          "duration": 0.22804031249998502,
          "durationTicks": 162,
          "midi": 60,
          "name": "C4",
          "ticks": 97344,
          "time": 137.02689,
          "velocity": 0.8976377952755905
        },
        {
          "duration": 0.23085562500000378,
          "durationTicks": 164,
          "midi": 48,
          "name": "C3",
          "ticks": 97344,
          "time": 137.02689,
          "velocity": 0.8740157480314961
        },
        {
          "duration": 0.2252250000000231,
          "durationTicks": 160,
          "midi": 62,
          "name": "D4",
          "ticks": 99840,
          "time": 140.5404,
          "velocity": 0.8503937007874016
        },
        {
          "duration": 0.2252250000000231,
          "durationTicks": 160,
          "midi": 50,
          "name": "D3",
          "ticks": 99840,
          "time": 140.5404,
          "velocity": 0.8503937007874016
        },
        {
          "duration": 0.28153124999997203,
          "durationTicks": 200,
          "midi": 50,
          "name": "D3",
          "ticks": 100032,
          "time": 140.81067000000002,
          "velocity": 0.8503937007874016
        },
        {
          "duration": 0.2899771874999715,
          "durationTicks": 206,
          "midi": 62,
          "name": "D4",
          "ticks": 100032,
          "time": 140.81067000000002,
          "velocity": 0.8740157480314961
        },
        {
          "duration": 0.18862593750000656,
          "durationTicks": 134,
          "midi": 48,
          "name": "C3",
          "ticks": 100224,
          "time": 141.08094,
          "velocity": 0.7795275590551181
        },
        {
          "duration": 0.18862593750000656,
          "durationTicks": 134,
          "midi": 60,
          "name": "C4",
          "ticks": 100224,
          "time": 141.08094,
          "velocity": 0.8346456692913385
        },
        {
          "duration": 0.2674546875000203,
          "durationTicks": 190,
          "midi": 60,
          "name": "C4",
          "ticks": 100416,
          "time": 141.35121,
          "velocity": 0.9212598425196851
        },
        {
          "duration": 0.28716187500000956,
          "durationTicks": 204,
          "midi": 48,
          "name": "C3",
          "ticks": 100416,
          "time": 141.35121,
          "velocity": 0.9212598425196851
        },
        {
          "duration": 0.5884003124999992,
          "durationTicks": 418,
          "midi": 54,
          "name": "F#3",
          "ticks": 115200,
          "time": 162.162,
          "velocity": 0.7559055118110236
        },
        {
          "duration": 0.5855849999999805,
          "durationTicks": 416,
          "midi": 62,
          "name": "D4",
          "ticks": 115200,
          "time": 162.162,
          "velocity": 0.8188976377952756
        },
        {
          "duration": 0.6052921874999981,
          "durationTicks": 430,
          "midi": 57,
          "name": "A3",
          "ticks": 115200,
          "time": 162.162,
          "velocity": 0.8188976377952756
        },
        {
          "duration": 0.5658778124999913,
          "durationTicks": 402,
          "midi": 55,
          "name": "G3",
          "ticks": 115968,
          "time": 163.24308000000002,
          "velocity": 0.7952755905511811
        },
        {
          "duration": 0.5658778124999913,
          "durationTicks": 402,
          "midi": 59,
          "name": "B3",
          "ticks": 115968,
          "time": 163.24308000000002,
          "velocity": 0.8503937007874016
        },
        {
          "duration": 0.5884003124999992,
          "durationTicks": 418,
          "midi": 50,
          "name": "D3",
          "ticks": 115968,
          "time": 163.24308000000002,
          "velocity": 0.8188976377952756
        },
        {
          "duration": 0.5799543749999998,
          "durationTicks": 412,
          "midi": 62,
          "name": "D4",
          "ticks": 116736,
          "time": 164.32416,
          "velocity": 0.8503937007874016
        },
        {
          "duration": 0.5968462499999987,
          "durationTicks": 424,
          "midi": 59,
          "name": "B3",
          "ticks": 116736,
          "time": 164.32416,
          "velocity": 0.8188976377952756
        },
        {
          "duration": 0.5799543749999998,
          "durationTicks": 412,
          "midi": 66,
          "name": "F#4",
          "ticks": 116736,
          "time": 164.32416,
          "velocity": 0.84251968503937
        },
        {
          "duration": 0.8220712499999934,
          "durationTicks": 584,
          "midi": 64,
          "name": "E4",
          "ticks": 117312,
          "time": 165.13497,
          "velocity": 0.8188976377952756
        },
        {
          "duration": 0.8051793749999945,
          "durationTicks": 572,
          "midi": 61,
          "name": "C#4",
          "ticks": 117312,
          "time": 165.13497,
          "velocity": 0.8740157480314961
        },
        {
          "duration": 0.8220712499999934,
          "durationTicks": 584,
          "midi": 57,
          "name": "A3",
          "ticks": 117312,
          "time": 165.13497,
          "velocity": 0.7637795275590551
        },
        {
          "duration": 0.6193687499999783,
          "durationTicks": 440,
          "midi": 54,
          "name": "F#3",
          "ticks": 118272,
          "time": 166.48632,
          "velocity": 0.7322834645669292
        },
        {
          "duration": 0.6249993749999874,
          "durationTicks": 444,
          "midi": 57,
          "name": "A3",
          "ticks": 118272,
          "time": 166.48632,
          "velocity": 0.7795275590551181
        },
        {
          "duration": 0.6447065624999766,
          "durationTicks": 458,
          "midi": 62,
          "name": "D4",
          "ticks": 118272,
          "time": 166.48632,
          "velocity": 0.7795275590551181
        },
        {
          "duration": 0.5686931249999816,
          "durationTicks": 404,
          "midi": 50,
          "name": "D3",
          "ticks": 119040,
          "time": 167.56740000000002,
          "velocity": 0.7795275590551181
        },
        {
          "duration": 0.5912156249999896,
          "durationTicks": 420,
          "midi": 59,
          "name": "B3",
          "ticks": 119040,
          "time": 167.56740000000002,
          "velocity": 0.8188976377952756
        },
        {
          "duration": 0.5912156249999896,
          "durationTicks": 420,
          "midi": 55,
          "name": "G3",
          "ticks": 119040,
          "time": 167.56740000000002,
          "velocity": 0.7637795275590551
        },
        {
          "duration": 0.6109228124999788,
          "durationTicks": 434,
          "midi": 59,
          "name": "B3",
          "ticks": 119808,
          "time": 168.64848,
          "velocity": 0.8188976377952756
        },
        {
          "duration": 0.5940309374999799,
          "durationTicks": 422,
          "midi": 62,
          "name": "D4",
          "ticks": 119808,
          "time": 168.64848,
          "velocity": 0.8503937007874016
        },
        {
          "duration": 0.5658778124999913,
          "durationTicks": 402,
          "midi": 66,
          "name": "F#4",
          "ticks": 119808,
          "time": 168.64848,
          "velocity": 0.84251968503937
        },
        {
          "duration": 0.8136253124999939,
          "durationTicks": 578,
          "midi": 57,
          "name": "A3",
          "ticks": 120384,
          "time": 169.45929,
          "velocity": 0.7637795275590551
        },
        {
          "duration": 0.7939181250000047,
          "durationTicks": 564,
          "midi": 61,
          "name": "C#4",
          "ticks": 120384,
          "time": 169.45929,
          "velocity": 0.8740157480314961
        },
        {
          "duration": 0.8108100000000036,
          "durationTicks": 576,
          "midi": 64,
          "name": "E4",
          "ticks": 120384,
          "time": 169.45929,
          "velocity": 0.8346456692913385
        },
        {
          "duration": 0.5884003124999992,
          "durationTicks": 418,
          "midi": 54,
          "name": "F#3",
          "ticks": 121344,
          "time": 170.81064,
          "velocity": 0.7559055118110236
        },
        {
          "duration": 0.5855849999999805,
          "durationTicks": 416,
          "midi": 62,
          "name": "D4",
          "ticks": 121344,
          "time": 170.81064,
          "velocity": 0.8188976377952756
        },
        {
          "duration": 0.6052921874999981,
          "durationTicks": 430,
          "midi": 57,
          "name": "A3",
          "ticks": 121344,
          "time": 170.81064,
          "velocity": 0.8188976377952756
        },
        {
          "duration": 0.5658778124999913,
          "durationTicks": 402,
          "midi": 55,
          "name": "G3",
          "ticks": 122112,
          "time": 171.89172000000002,
          "velocity": 0.7952755905511811
        },
        {
          "duration": 0.5658778124999913,
          "durationTicks": 402,
          "midi": 59,
          "name": "B3",
          "ticks": 122112,
          "time": 171.89172000000002,
          "velocity": 0.8503937007874016
        },
        {
          "duration": 0.5884003124999992,
          "durationTicks": 418,
          "midi": 50,
          "name": "D3",
          "ticks": 122112,
          "time": 171.89172000000002,
          "velocity": 0.8188976377952756
        },
        {
          "duration": 0.5799543749999998,
          "durationTicks": 412,
          "midi": 62,
          "name": "D4",
          "ticks": 122880,
          "time": 172.9728,
          "velocity": 0.8503937007874016
        },
        {
          "duration": 0.5968462499999987,
          "durationTicks": 424,
          "midi": 59,
          "name": "B3",
          "ticks": 122880,
          "time": 172.9728,
          "velocity": 0.8188976377952756
        },
        {
          "duration": 0.5799543749999998,
          "durationTicks": 412,
          "midi": 66,
          "name": "F#4",
          "ticks": 122880,
          "time": 172.9728,
          "velocity": 0.84251968503937
        },
        {
          "duration": 0.8220712499999934,
          "durationTicks": 584,
          "midi": 64,
          "name": "E4",
          "ticks": 123456,
          "time": 173.78361,
          "velocity": 0.8188976377952756
        },
        {
          "duration": 0.8051793749999945,
          "durationTicks": 572,
          "midi": 61,
          "name": "C#4",
          "ticks": 123456,
          "time": 173.78361,
          "velocity": 0.8740157480314961
        },
        {
          "duration": 0.8220712499999934,
          "durationTicks": 584,
          "midi": 57,
          "name": "A3",
          "ticks": 123456,
          "time": 173.78361,
          "velocity": 0.7637795275590551
        },
        {
          "duration": 0.6193687499999783,
          "durationTicks": 440,
          "midi": 54,
          "name": "F#3",
          "ticks": 124416,
          "time": 175.13496,
          "velocity": 0.7322834645669292
        },
        {
          "duration": 0.6249993749999874,
          "durationTicks": 444,
          "midi": 57,
          "name": "A3",
          "ticks": 124416,
          "time": 175.13496,
          "velocity": 0.7795275590551181
        },
        {
          "duration": 0.6447065624999766,
          "durationTicks": 458,
          "midi": 62,
          "name": "D4",
          "ticks": 124416,
          "time": 175.13496,
          "velocity": 0.7795275590551181
        },
        {
          "duration": 0.5686931249999816,
          "durationTicks": 404,
          "midi": 50,
          "name": "D3",
          "ticks": 125184,
          "time": 176.21604000000002,
          "velocity": 0.7795275590551181
        },
        {
          "duration": 0.5912156249999896,
          "durationTicks": 420,
          "midi": 59,
          "name": "B3",
          "ticks": 125184,
          "time": 176.21604000000002,
          "velocity": 0.8188976377952756
        },
        {
          "duration": 0.5912156249999896,
          "durationTicks": 420,
          "midi": 55,
          "name": "G3",
          "ticks": 125184,
          "time": 176.21604000000002,
          "velocity": 0.7637795275590551
        },
        {
          "duration": 0.6109228124999788,
          "durationTicks": 434,
          "midi": 59,
          "name": "B3",
          "ticks": 125952,
          "time": 177.29712,
          "velocity": 0.8188976377952756
        },
        {
          "duration": 0.5940309374999799,
          "durationTicks": 422,
          "midi": 62,
          "name": "D4",
          "ticks": 125952,
          "time": 177.29712,
          "velocity": 0.8503937007874016
        },
        {
          "duration": 0.5658778124999913,
          "durationTicks": 402,
          "midi": 66,
          "name": "F#4",
          "ticks": 125952,
          "time": 177.29712,
          "velocity": 0.84251968503937
        },
        {
          "duration": 0.8136253124999939,
          "durationTicks": 578,
          "midi": 57,
          "name": "A3",
          "ticks": 126528,
          "time": 178.10793,
          "velocity": 0.7637795275590551
        },
        {
          "duration": 0.7939181250000047,
          "durationTicks": 564,
          "midi": 61,
          "name": "C#4",
          "ticks": 126528,
          "time": 178.10793,
          "velocity": 0.8740157480314961
        },
        {
          "duration": 0.8108100000000036,
          "durationTicks": 576,
          "midi": 64,
          "name": "E4",
          "ticks": 126528,
          "time": 178.10793,
          "velocity": 0.8346456692913385
        },
        {
          "duration": 0.5884003124999992,
          "durationTicks": 418,
          "midi": 54,
          "name": "F#3",
          "ticks": 127488,
          "time": 179.45928,
          "velocity": 0.7559055118110236
        },
        {
          "duration": 0.5855849999999805,
          "durationTicks": 416,
          "midi": 62,
          "name": "D4",
          "ticks": 127488,
          "time": 179.45928,
          "velocity": 0.8188976377952756
        },
        {
          "duration": 0.6052921874999981,
          "durationTicks": 430,
          "midi": 57,
          "name": "A3",
          "ticks": 127488,
          "time": 179.45928,
          "velocity": 0.8188976377952756
        },
        {
          "duration": 0.5658778124999913,
          "durationTicks": 402,
          "midi": 55,
          "name": "G3",
          "ticks": 128256,
          "time": 180.54036000000002,
          "velocity": 0.7952755905511811
        },
        {
          "duration": 0.5658778124999913,
          "durationTicks": 402,
          "midi": 59,
          "name": "B3",
          "ticks": 128256,
          "time": 180.54036000000002,
          "velocity": 0.8503937007874016
        },
        {
          "duration": 0.5884003124999992,
          "durationTicks": 418,
          "midi": 50,
          "name": "D3",
          "ticks": 128256,
          "time": 180.54036000000002,
          "velocity": 0.8188976377952756
        },
        {
          "duration": 0.5799543749999998,
          "durationTicks": 412,
          "midi": 62,
          "name": "D4",
          "ticks": 129024,
          "time": 181.62144,
          "velocity": 0.8503937007874016
        },
        {
          "duration": 0.5968462499999987,
          "durationTicks": 424,
          "midi": 59,
          "name": "B3",
          "ticks": 129024,
          "time": 181.62144,
          "velocity": 0.8188976377952756
        },
        {
          "duration": 0.5799543749999998,
          "durationTicks": 412,
          "midi": 66,
          "name": "F#4",
          "ticks": 129024,
          "time": 181.62144,
          "velocity": 0.84251968503937
        },
        {
          "duration": 0.8220712499999934,
          "durationTicks": 584,
          "midi": 64,
          "name": "E4",
          "ticks": 129600,
          "time": 182.43225,
          "velocity": 0.8188976377952756
        },
        {
          "duration": 0.8051793749999945,
          "durationTicks": 572,
          "midi": 61,
          "name": "C#4",
          "ticks": 129600,
          "time": 182.43225,
          "velocity": 0.8740157480314961
        },
        {
          "duration": 0.8220712499999934,
          "durationTicks": 584,
          "midi": 57,
          "name": "A3",
          "ticks": 129600,
          "time": 182.43225,
          "velocity": 0.7637795275590551
        },
        {
          "duration": 0.6193687499999783,
          "durationTicks": 440,
          "midi": 54,
          "name": "F#3",
          "ticks": 130560,
          "time": 183.7836,
          "velocity": 0.7322834645669292
        },
        {
          "duration": 0.6249993749999874,
          "durationTicks": 444,
          "midi": 57,
          "name": "A3",
          "ticks": 130560,
          "time": 183.7836,
          "velocity": 0.7795275590551181
        },
        {
          "duration": 0.6447065624999766,
          "durationTicks": 458,
          "midi": 62,
          "name": "D4",
          "ticks": 130560,
          "time": 183.7836,
          "velocity": 0.7795275590551181
        },
        {
          "duration": 0.5686931249999816,
          "durationTicks": 404,
          "midi": 50,
          "name": "D3",
          "ticks": 131328,
          "time": 184.86468000000002,
          "velocity": 0.7795275590551181
        },
        {
          "duration": 0.5912156249999896,
          "durationTicks": 420,
          "midi": 59,
          "name": "B3",
          "ticks": 131328,
          "time": 184.86468000000002,
          "velocity": 0.8188976377952756
        },
        {
          "duration": 0.5912156249999896,
          "durationTicks": 420,
          "midi": 55,
          "name": "G3",
          "ticks": 131328,
          "time": 184.86468000000002,
          "velocity": 0.7637795275590551
        },
        {
          "duration": 0.6109228124999788,
          "durationTicks": 434,
          "midi": 59,
          "name": "B3",
          "ticks": 132096,
          "time": 185.94576,
          "velocity": 0.8188976377952756
        },
        {
          "duration": 0.5940309374999799,
          "durationTicks": 422,
          "midi": 62,
          "name": "D4",
          "ticks": 132096,
          "time": 185.94576,
          "velocity": 0.8503937007874016
        },
        {
          "duration": 0.5658778124999913,
          "durationTicks": 402,
          "midi": 66,
          "name": "F#4",
          "ticks": 132096,
          "time": 185.94576,
          "velocity": 0.84251968503937
        },
        {
          "duration": 0.8136253124999939,
          "durationTicks": 578,
          "midi": 57,
          "name": "A3",
          "ticks": 132672,
          "time": 186.75657,
          "velocity": 0.7637795275590551
        },
        {
          "duration": 0.7939181250000047,
          "durationTicks": 564,
          "midi": 61,
          "name": "C#4",
          "ticks": 132672,
          "time": 186.75657,
          "velocity": 0.8740157480314961
        },
        {
          "duration": 0.8108100000000036,
          "durationTicks": 576,
          "midi": 64,
          "name": "E4",
          "ticks": 132672,
          "time": 186.75657,
          "velocity": 0.8346456692913385
        },
        {
          "duration": 0.5884003124999992,
          "durationTicks": 418,
          "midi": 54,
          "name": "F#3",
          "ticks": 133632,
          "time": 188.10792,
          "velocity": 0.7559055118110236
        },
        {
          "duration": 0.5855849999999805,
          "durationTicks": 416,
          "midi": 62,
          "name": "D4",
          "ticks": 133632,
          "time": 188.10792,
          "velocity": 0.8188976377952756
        },
        {
          "duration": 0.6052921874999981,
          "durationTicks": 430,
          "midi": 57,
          "name": "A3",
          "ticks": 133632,
          "time": 188.10792,
          "velocity": 0.8188976377952756
        },
        {
          "duration": 0.5658778124999913,
          "durationTicks": 402,
          "midi": 55,
          "name": "G3",
          "ticks": 134400,
          "time": 189.18900000000002,
          "velocity": 0.7952755905511811
        },
        {
          "duration": 0.5658778124999913,
          "durationTicks": 402,
          "midi": 59,
          "name": "B3",
          "ticks": 134400,
          "time": 189.18900000000002,
          "velocity": 0.8503937007874016
        },
        {
          "duration": 0.5884003124999992,
          "durationTicks": 418,
          "midi": 50,
          "name": "D3",
          "ticks": 134400,
          "time": 189.18900000000002,
          "velocity": 0.8188976377952756
        },
        {
          "duration": 0.5799543749999998,
          "durationTicks": 412,
          "midi": 62,
          "name": "D4",
          "ticks": 135168,
          "time": 190.27008,
          "velocity": 0.8503937007874016
        },
        {
          "duration": 0.5968462499999987,
          "durationTicks": 424,
          "midi": 59,
          "name": "B3",
          "ticks": 135168,
          "time": 190.27008,
          "velocity": 0.8188976377952756
        },
        {
          "duration": 0.5799543749999998,
          "durationTicks": 412,
          "midi": 66,
          "name": "F#4",
          "ticks": 135168,
          "time": 190.27008,
          "velocity": 0.84251968503937
        },
        {
          "duration": 0.8220712499999934,
          "durationTicks": 584,
          "midi": 64,
          "name": "E4",
          "ticks": 135744,
          "time": 191.08089,
          "velocity": 0.8188976377952756
        },
        {
          "duration": 0.8051793749999945,
          "durationTicks": 572,
          "midi": 61,
          "name": "C#4",
          "ticks": 135744,
          "time": 191.08089,
          "velocity": 0.8740157480314961
        },
        {
          "duration": 0.8220712499999934,
          "durationTicks": 584,
          "midi": 57,
          "name": "A3",
          "ticks": 135744,
          "time": 191.08089,
          "velocity": 0.7637795275590551
        },
        {
          "duration": 0.6193687499999783,
          "durationTicks": 440,
          "midi": 54,
          "name": "F#3",
          "ticks": 136704,
          "time": 192.43224,
          "velocity": 0.7322834645669292
        },
        {
          "duration": 0.6249993749999874,
          "durationTicks": 444,
          "midi": 57,
          "name": "A3",
          "ticks": 136704,
          "time": 192.43224,
          "velocity": 0.7795275590551181
        },
        {
          "duration": 0.6447065624999766,
          "durationTicks": 458,
          "midi": 62,
          "name": "D4",
          "ticks": 136704,
          "time": 192.43224,
          "velocity": 0.7795275590551181
        },
        {
          "duration": 0.5686931249999816,
          "durationTicks": 404,
          "midi": 50,
          "name": "D3",
          "ticks": 137472,
          "time": 193.51332000000002,
          "velocity": 0.7795275590551181
        },
        {
          "duration": 0.5912156249999896,
          "durationTicks": 420,
          "midi": 59,
          "name": "B3",
          "ticks": 137472,
          "time": 193.51332000000002,
          "velocity": 0.8188976377952756
        },
        {
          "duration": 0.5912156249999896,
          "durationTicks": 420,
          "midi": 55,
          "name": "G3",
          "ticks": 137472,
          "time": 193.51332000000002,
          "velocity": 0.7637795275590551
        },
        {
          "duration": 0.6109228124999788,
          "durationTicks": 434,
          "midi": 59,
          "name": "B3",
          "ticks": 138240,
          "time": 194.5944,
          "velocity": 0.8188976377952756
        },
        {
          "duration": 0.5940309374999799,
          "durationTicks": 422,
          "midi": 62,
          "name": "D4",
          "ticks": 138240,
          "time": 194.5944,
          "velocity": 0.8503937007874016
        },
        {
          "duration": 0.5658778124999913,
          "durationTicks": 402,
          "midi": 66,
          "name": "F#4",
          "ticks": 138240,
          "time": 194.5944,
          "velocity": 0.84251968503937
        },
        {
          "duration": 0.8136253124999939,
          "durationTicks": 578,
          "midi": 57,
          "name": "A3",
          "ticks": 138816,
          "time": 195.40521,
          "velocity": 0.7637795275590551
        },
        {
          "duration": 0.7939181250000047,
          "durationTicks": 564,
          "midi": 61,
          "name": "C#4",
          "ticks": 138816,
          "time": 195.40521,
          "velocity": 0.8740157480314961
        },
        {
          "duration": 0.8108100000000036,
          "durationTicks": 576,
          "midi": 64,
          "name": "E4",
          "ticks": 138816,
          "time": 195.40521,
          "velocity": 0.8346456692913385
        },
        {
          "duration": 0.5884003124999992,
          "durationTicks": 418,
          "midi": 54,
          "name": "F#3",
          "ticks": 139776,
          "time": 196.75656,
          "velocity": 0.7559055118110236
        },
        {
          "duration": 0.5855849999999805,
          "durationTicks": 416,
          "midi": 62,
          "name": "D4",
          "ticks": 139776,
          "time": 196.75656,
          "velocity": 0.8188976377952756
        },
        {
          "duration": 0.6052921874999981,
          "durationTicks": 430,
          "midi": 57,
          "name": "A3",
          "ticks": 139776,
          "time": 196.75656,
          "velocity": 0.8188976377952756
        },
        {
          "duration": 0.5658778124999913,
          "durationTicks": 402,
          "midi": 55,
          "name": "G3",
          "ticks": 140544,
          "time": 197.83764000000002,
          "velocity": 0.7952755905511811
        },
        {
          "duration": 0.5658778124999913,
          "durationTicks": 402,
          "midi": 59,
          "name": "B3",
          "ticks": 140544,
          "time": 197.83764000000002,
          "velocity": 0.8503937007874016
        },
        {
          "duration": 0.5884003124999992,
          "durationTicks": 418,
          "midi": 50,
          "name": "D3",
          "ticks": 140544,
          "time": 197.83764000000002,
          "velocity": 0.8188976377952756
        },
        {
          "duration": 0.5799543749999998,
          "durationTicks": 412,
          "midi": 62,
          "name": "D4",
          "ticks": 141312,
          "time": 198.91872,
          "velocity": 0.8503937007874016
        },
        {
          "duration": 0.5968462499999987,
          "durationTicks": 424,
          "midi": 59,
          "name": "B3",
          "ticks": 141312,
          "time": 198.91872,
          "velocity": 0.8188976377952756
        },
        {
          "duration": 0.5799543749999998,
          "durationTicks": 412,
          "midi": 66,
          "name": "F#4",
          "ticks": 141312,
          "time": 198.91872,
          "velocity": 0.84251968503937
        },
        {
          "duration": 0.8220712499999934,
          "durationTicks": 584,
          "midi": 64,
          "name": "E4",
          "ticks": 141888,
          "time": 199.72953,
          "velocity": 0.8188976377952756
        },
        {
          "duration": 0.8051793749999945,
          "durationTicks": 572,
          "midi": 61,
          "name": "C#4",
          "ticks": 141888,
          "time": 199.72953,
          "velocity": 0.8740157480314961
        },
        {
          "duration": 0.8220712499999934,
          "durationTicks": 584,
          "midi": 57,
          "name": "A3",
          "ticks": 141888,
          "time": 199.72953,
          "velocity": 0.7637795275590551
        },
        {
          "duration": 0.6193687499999783,
          "durationTicks": 440,
          "midi": 54,
          "name": "F#3",
          "ticks": 142848,
          "time": 201.08088,
          "velocity": 0.7322834645669292
        },
        {
          "duration": 0.6249993749999874,
          "durationTicks": 444,
          "midi": 57,
          "name": "A3",
          "ticks": 142848,
          "time": 201.08088,
          "velocity": 0.7795275590551181
        },
        {
          "duration": 0.6447065624999766,
          "durationTicks": 458,
          "midi": 62,
          "name": "D4",
          "ticks": 142848,
          "time": 201.08088,
          "velocity": 0.7795275590551181
        },
        {
          "duration": 0.5686931249999816,
          "durationTicks": 404,
          "midi": 50,
          "name": "D3",
          "ticks": 143616,
          "time": 202.16196000000002,
          "velocity": 0.7795275590551181
        },
        {
          "duration": 0.5912156249999896,
          "durationTicks": 420,
          "midi": 59,
          "name": "B3",
          "ticks": 143616,
          "time": 202.16196000000002,
          "velocity": 0.8188976377952756
        },
        {
          "duration": 0.5912156249999896,
          "durationTicks": 420,
          "midi": 55,
          "name": "G3",
          "ticks": 143616,
          "time": 202.16196000000002,
          "velocity": 0.7637795275590551
        },
        {
          "duration": 0.6109228124999788,
          "durationTicks": 434,
          "midi": 59,
          "name": "B3",
          "ticks": 144384,
          "time": 203.24304,
          "velocity": 0.8188976377952756
        },
        {
          "duration": 0.5940309374999799,
          "durationTicks": 422,
          "midi": 62,
          "name": "D4",
          "ticks": 144384,
          "time": 203.24304,
          "velocity": 0.8503937007874016
        },
        {
          "duration": 0.5658778124999913,
          "durationTicks": 402,
          "midi": 66,
          "name": "F#4",
          "ticks": 144384,
          "time": 203.24304,
          "velocity": 0.84251968503937
        },
        {
          "duration": 0.8136253124999939,
          "durationTicks": 578,
          "midi": 57,
          "name": "A3",
          "ticks": 144960,
          "time": 204.05385,
          "velocity": 0.7637795275590551
        },
        {
          "duration": 0.7939181250000047,
          "durationTicks": 564,
          "midi": 61,
          "name": "C#4",
          "ticks": 144960,
          "time": 204.05385,
          "velocity": 0.8740157480314961
        },
        {
          "duration": 0.8108100000000036,
          "durationTicks": 576,
          "midi": 64,
          "name": "E4",
          "ticks": 144960,
          "time": 204.05385,
          "velocity": 0.8346456692913385
        },
        {
          "duration": 0.5884003124999992,
          "durationTicks": 418,
          "midi": 54,
          "name": "F#3",
          "ticks": 145920,
          "time": 205.4052,
          "velocity": 0.7559055118110236
        },
        {
          "duration": 0.5855849999999805,
          "durationTicks": 416,
          "midi": 62,
          "name": "D4",
          "ticks": 145920,
          "time": 205.4052,
          "velocity": 0.8188976377952756
        },
        {
          "duration": 0.6052921874999981,
          "durationTicks": 430,
          "midi": 57,
          "name": "A3",
          "ticks": 145920,
          "time": 205.4052,
          "velocity": 0.8188976377952756
        },
        {
          "duration": 0.5658778124999913,
          "durationTicks": 402,
          "midi": 55,
          "name": "G3",
          "ticks": 146688,
          "time": 206.48628000000002,
          "velocity": 0.7952755905511811
        },
        {
          "duration": 0.5658778124999913,
          "durationTicks": 402,
          "midi": 59,
          "name": "B3",
          "ticks": 146688,
          "time": 206.48628000000002,
          "velocity": 0.8503937007874016
        },
        {
          "duration": 0.5884003124999992,
          "durationTicks": 418,
          "midi": 50,
          "name": "D3",
          "ticks": 146688,
          "time": 206.48628000000002,
          "velocity": 0.8188976377952756
        },
        {
          "duration": 0.5799543749999998,
          "durationTicks": 412,
          "midi": 62,
          "name": "D4",
          "ticks": 147456,
          "time": 207.56736,
          "velocity": 0.8503937007874016
        },
        {
          "duration": 0.5968462499999987,
          "durationTicks": 424,
          "midi": 59,
          "name": "B3",
          "ticks": 147456,
          "time": 207.56736,
          "velocity": 0.8188976377952756
        },
        {
          "duration": 0.5799543749999998,
          "durationTicks": 412,
          "midi": 66,
          "name": "F#4",
          "ticks": 147456,
          "time": 207.56736,
          "velocity": 0.84251968503937
        },
        {
          "duration": 0.8220712499999934,
          "durationTicks": 584,
          "midi": 64,
          "name": "E4",
          "ticks": 148032,
          "time": 208.37817,
          "velocity": 0.8188976377952756
        },
        {
          "duration": 0.8051793749999945,
          "durationTicks": 572,
          "midi": 61,
          "name": "C#4",
          "ticks": 148032,
          "time": 208.37817,
          "velocity": 0.8740157480314961
        },
        {
          "duration": 0.8220712499999934,
          "durationTicks": 584,
          "midi": 57,
          "name": "A3",
          "ticks": 148032,
          "time": 208.37817,
          "velocity": 0.7637795275590551
        },
        {
          "duration": 0.6193687499999783,
          "durationTicks": 440,
          "midi": 54,
          "name": "F#3",
          "ticks": 148992,
          "time": 209.72952,
          "velocity": 0.7322834645669292
        },
        {
          "duration": 0.6249993749999874,
          "durationTicks": 444,
          "midi": 57,
          "name": "A3",
          "ticks": 148992,
          "time": 209.72952,
          "velocity": 0.7795275590551181
        },
        {
          "duration": 0.6447065624999766,
          "durationTicks": 458,
          "midi": 62,
          "name": "D4",
          "ticks": 148992,
          "time": 209.72952,
          "velocity": 0.7795275590551181
        },
        {
          "duration": 0.5686931249999816,
          "durationTicks": 404,
          "midi": 50,
          "name": "D3",
          "ticks": 149760,
          "time": 210.81060000000002,
          "velocity": 0.7795275590551181
        },
        {
          "duration": 0.5912156249999896,
          "durationTicks": 420,
          "midi": 59,
          "name": "B3",
          "ticks": 149760,
          "time": 210.81060000000002,
          "velocity": 0.8188976377952756
        },
        {
          "duration": 0.5912156249999896,
          "durationTicks": 420,
          "midi": 55,
          "name": "G3",
          "ticks": 149760,
          "time": 210.81060000000002,
          "velocity": 0.7637795275590551
        },
        {
          "duration": 0.5123868750000042,
          "durationTicks": 364,
          "midi": 59,
          "name": "B3",
          "ticks": 150528,
          "time": 211.89168,
          "velocity": 0.8188976377952756
        },
        {
          "duration": 0.5123868750000042,
          "durationTicks": 364,
          "midi": 62,
          "name": "D4",
          "ticks": 150528,
          "time": 211.89168,
          "velocity": 0.8503937007874016
        },
        {
          "duration": 0.5123868750000042,
          "durationTicks": 364,
          "midi": 66,
          "name": "F#4",
          "ticks": 150528,
          "time": 211.89168,
          "velocity": 0.84251968503937
        },
        {
          "duration": 0.2252250000000231,
          "durationTicks": 160,
          "midi": 57,
          "name": "A3",
          "ticks": 150912,
          "time": 212.43222,
          "velocity": 0.7637795275590551
        },
        {
          "duration": 0.2252250000000231,
          "durationTicks": 160,
          "midi": 61,
          "name": "C#4",
          "ticks": 150912,
          "time": 212.43222,
          "velocity": 0.8740157480314961
        },
        {
          "duration": 0.2252250000000231,
          "durationTicks": 160,
          "midi": 64,
          "name": "E4",
          "ticks": 150912,
          "time": 212.43222,
          "velocity": 0.8346456692913385
        },
        {
          "duration": 0.22522499999999468,
          "durationTicks": 160,
          "midi": 57,
          "name": "A3",
          "ticks": 151104,
          "time": 212.70249,
          "velocity": 0.7637795275590551
        },
        {
          "duration": 0.22522499999999468,
          "durationTicks": 160,
          "midi": 62,
          "name": "D4",
          "ticks": 151104,
          "time": 212.70249,
          "velocity": 0.7637795275590551
        },
        {
          "duration": 0.22522499999999468,
          "durationTicks": 160,
          "midi": 66,
          "name": "F#4",
          "ticks": 151104,
          "time": 212.70249,
          "velocity": 0.7637795275590551
        }
      ]
    },
    {
      "channel": 0,
      "controlChanges": {
        "0": [
          {
            "number": 0,
            "ticks": 640,
            "time": 0.9009,
            "value": 0
          }
        ],
        "32": [
          {
            "number": 32,
            "ticks": 644,
            "time": 0.906530625,
            "value": 0
          }
        ],
        "121": [
          {
            "number": 121,
            "ticks": 408,
            "time": 0.57432375,
            "value": 0
          }
        ]
      },
      "pitchBends": [],
      "instrument": {
        "family": "piano",
        "name": "acoustic grand piano",
        "number": 0
      },
      "name": "BassSynth",
      "notes": []
    },
    {
      "channel": 6,
      "controlChanges": {
        "6": [
          {
            "number": 6,
            "ticks": 1348,
            "time": 1.897520625,
            "value": 0.015748031496062992
          },
          {
            "number": 6,
            "ticks": 1360,
            "time": 1.9144125,
            "value": 0.5039370078740157
          }
        ],
        "7": [
          {
            "number": 7,
            "ticks": 652,
            "time": 0.917791875,
            "value": 1
          }
        ],
        "10": [
          {
            "number": 10,
            "ticks": 656,
            "time": 0.9234225,
            "value": 0.5039370078740157
          }
        ],
        "11": [
          {
            "number": 11,
            "ticks": 660,
            "time": 0.929053125,
            "value": 1
          }
        ],
        "91": [
          {
            "number": 91,
            "ticks": 664,
            "time": 0.93468375,
            "value": 0.23622047244094488
          }
        ],
        "93": [
          {
            "number": 93,
            "ticks": 668,
            "time": 0.940314375,
            "value": 0.47244094488188976
          }
        ],
        "100": [
          {
            "number": 100,
            "ticks": 1344,
            "time": 1.89189,
            "value": 0
          },
          {
            "number": 100,
            "ticks": 1356,
            "time": 1.908781875,
            "value": 0.015748031496062992
          },
          {
            "number": 100,
            "ticks": 1368,
            "time": 1.92567375,
            "value": 1
          }
        ],
        "101": [
          {
            "number": 101,
            "ticks": 1340,
            "time": 1.886259375,
            "value": 0
          },
          {
            "number": 101,
            "ticks": 1352,
            "time": 1.90315125,
            "value": 0
          },
          {
            "number": 101,
            "ticks": 1364,
            "time": 1.920043125,
            "value": 1
          }
        ]
      },
      "pitchBends": [],
      "instrument": {
        "family": "bass",
        "name": "synth bass 1",
        "number": 38
      },
      "name": "",
      "notes": [
        {
          "duration": 0.12668906249999878,
          "durationTicks": 90,
          "midi": 38,
          "name": "D2",
          "ticks": 16896,
          "time": 23.78376,
          "velocity": 0.7795275590551181
        },
        {
          "duration": 0.12668906249999878,
          "durationTicks": 90,
          "midi": 38,
          "name": "D2",
          "ticks": 17184,
          "time": 24.189165000000003,
          "velocity": 0.8110236220472441
        },
        {
          "duration": 0.12950437499999978,
          "durationTicks": 92,
          "midi": 31,
          "name": "G1",
          "ticks": 17472,
          "time": 24.59457,
          "velocity": 0.8110236220472441
        },
        {
          "duration": 0.11261250000000089,
          "durationTicks": 80,
          "midi": 35,
          "name": "B1",
          "ticks": 18432,
          "time": 25.94592,
          "velocity": 0.7559055118110236
        },
        {
          "duration": 0.12668906249999878,
          "durationTicks": 90,
          "midi": 35,
          "name": "B1",
          "ticks": 18720,
          "time": 26.351325000000003,
          "velocity": 0.7952755905511811
        },
        {
          "duration": 0.15765749999999912,
          "durationTicks": 112,
          "midi": 33,
          "name": "A1",
          "ticks": 19008,
          "time": 26.75673,
          "velocity": 0.8110236220472441
        },
        {
          "duration": 0.15202687500000067,
          "durationTicks": 108,
          "midi": 38,
          "name": "D2",
          "ticks": 19968,
          "time": 28.10808,
          "velocity": 0.8503937007874016
        },
        {
          "duration": 0.13795031249999923,
          "durationTicks": 98,
          "midi": 38,
          "name": "D2",
          "ticks": 20256,
          "time": 28.513485000000003,
          "velocity": 0.8503937007874016
        },
        {
          "duration": 0.16047281250000012,
          "durationTicks": 114,
          "midi": 31,
          "name": "G1",
          "ticks": 20544,
          "time": 28.91889,
          "velocity": 0.905511811023622
        },
        {
          "duration": 0.15484218750000167,
          "durationTicks": 110,
          "midi": 35,
          "name": "B1",
          "ticks": 21504,
          "time": 30.27024,
          "velocity": 0.8503937007874016
        },
        {
          "duration": 0.12387374999999778,
          "durationTicks": 88,
          "midi": 35,
          "name": "B1",
          "ticks": 21792,
          "time": 30.675645000000003,
          "velocity": 0.8267716535433071
        },
        {
          "duration": 0.14358093750000123,
          "durationTicks": 102,
          "midi": 33,
          "name": "A1",
          "ticks": 22080,
          "time": 31.08105,
          "velocity": 0.8818897637795275
        },
        {
          "duration": 0.11261250000000445,
          "durationTicks": 80,
          "midi": 38,
          "name": "D2",
          "ticks": 23040,
          "time": 32.4324,
          "velocity": 0.7952755905511811
        },
        {
          "duration": 0.11261249999999734,
          "durationTicks": 80,
          "midi": 38,
          "name": "D2",
          "ticks": 23328,
          "time": 32.837805,
          "velocity": 0.8267716535433071
        },
        {
          "duration": 0.12387374999999423,
          "durationTicks": 88,
          "midi": 31,
          "name": "G1",
          "ticks": 23616,
          "time": 33.243210000000005,
          "velocity": 0.8110236220472441
        },
        {
          "duration": 0.13795031249999568,
          "durationTicks": 98,
          "midi": 35,
          "name": "B1",
          "ticks": 24576,
          "time": 34.59456,
          "velocity": 0.8661417322834646
        },
        {
          "duration": 0.12387375000000134,
          "durationTicks": 88,
          "midi": 35,
          "name": "B1",
          "ticks": 24864,
          "time": 34.999965,
          "velocity": 0.8661417322834646
        },
        {
          "duration": 0.15765749999999912,
          "durationTicks": 112,
          "midi": 33,
          "name": "A1",
          "ticks": 25152,
          "time": 35.405370000000005,
          "velocity": 0.8503937007874016
        },
        {
          "duration": 0.14076562500000023,
          "durationTicks": 100,
          "midi": 38,
          "name": "D2",
          "ticks": 26112,
          "time": 36.75672,
          "velocity": 0.8818897637795275
        },
        {
          "duration": 0.12387375000000134,
          "durationTicks": 88,
          "midi": 38,
          "name": "D2",
          "ticks": 26400,
          "time": 37.162125,
          "velocity": 0.8818897637795275
        },
        {
          "duration": 0.14076562500000023,
          "durationTicks": 100,
          "midi": 31,
          "name": "G1",
          "ticks": 26688,
          "time": 37.567530000000005,
          "velocity": 0.8267716535433071
        },
        {
          "duration": 0.1097971874999999,
          "durationTicks": 78,
          "midi": 35,
          "name": "B1",
          "ticks": 27648,
          "time": 38.91888,
          "velocity": 0.8267716535433071
        },
        {
          "duration": 0.13795031249999568,
          "durationTicks": 98,
          "midi": 35,
          "name": "B1",
          "ticks": 27936,
          "time": 39.324285,
          "velocity": 0.7795275590551181
        },
        {
          "duration": 0.15202687499999712,
          "durationTicks": 108,
          "midi": 33,
          "name": "A1",
          "ticks": 28224,
          "time": 39.729690000000005,
          "velocity": 0.8110236220472441
        },
        {
          "duration": 0.12668906249999878,
          "durationTicks": 90,
          "midi": 38,
          "name": "D2",
          "ticks": 29184,
          "time": 41.08104,
          "velocity": 0.905511811023622
        },
        {
          "duration": 0.14076562500000023,
          "durationTicks": 100,
          "midi": 38,
          "name": "D2",
          "ticks": 29472,
          "time": 41.486445,
          "velocity": 0.8661417322834646
        },
        {
          "duration": 0.14358093749999767,
          "durationTicks": 102,
          "midi": 31,
          "name": "G1",
          "ticks": 29760,
          "time": 41.891850000000005,
          "velocity": 0.8661417322834646
        },
        {
          "duration": 0.11542781250000189,
          "durationTicks": 82,
          "midi": 35,
          "name": "B1",
          "ticks": 30720,
          "time": 43.2432,
          "velocity": 0.9291338582677166
        },
        {
          "duration": 0.14358093749999767,
          "durationTicks": 102,
          "midi": 35,
          "name": "B1",
          "ticks": 31008,
          "time": 43.648605,
          "velocity": 0.8661417322834646
        },
        {
          "duration": 0.163288124999994,
          "durationTicks": 116,
          "midi": 33,
          "name": "A1",
          "ticks": 31296,
          "time": 44.054010000000005,
          "velocity": 0.8818897637795275
        },
        {
          "duration": 0.12668906249999878,
          "durationTicks": 90,
          "midi": 38,
          "name": "D2",
          "ticks": 32256,
          "time": 45.40536,
          "velocity": 0.9763779527559056
        },
        {
          "duration": 0.12668906249999878,
          "durationTicks": 90,
          "midi": 38,
          "name": "D2",
          "ticks": 32544,
          "time": 45.810765,
          "velocity": 0.905511811023622
        },
        {
          "duration": 0.13513499999999823,
          "durationTicks": 96,
          "midi": 31,
          "name": "G1",
          "ticks": 32832,
          "time": 46.216170000000005,
          "velocity": 0.8503937007874016
        },
        {
          "duration": 0.12387375000000134,
          "durationTicks": 88,
          "midi": 35,
          "name": "B1",
          "ticks": 33792,
          "time": 47.56752,
          "velocity": 0.8818897637795275
        },
        {
          "duration": 0.12668906249999878,
          "durationTicks": 90,
          "midi": 35,
          "name": "B1",
          "ticks": 34080,
          "time": 47.972925000000004,
          "velocity": 0.8503937007874016
        },
        {
          "duration": 0.14639624999999512,
          "durationTicks": 104,
          "midi": 33,
          "name": "A1",
          "ticks": 34368,
          "time": 48.378330000000005,
          "velocity": 0.8503937007874016
        },
        {
          "duration": 0.14358093749999767,
          "durationTicks": 102,
          "midi": 38,
          "name": "D2",
          "ticks": 35328,
          "time": 49.72968,
          "velocity": 0.905511811023622
        },
        {
          "duration": 0.13795031249999568,
          "durationTicks": 98,
          "midi": 38,
          "name": "D2",
          "ticks": 35616,
          "time": 50.135085000000004,
          "velocity": 0.8818897637795275
        },
        {
          "duration": 0.15202687499999712,
          "durationTicks": 108,
          "midi": 31,
          "name": "G1",
          "ticks": 35904,
          "time": 50.540490000000005,
          "velocity": 0.8818897637795275
        },
        {
          "duration": 0.12387375000000134,
          "durationTicks": 88,
          "midi": 35,
          "name": "B1",
          "ticks": 36864,
          "time": 51.89184,
          "velocity": 0.8818897637795275
        },
        {
          "duration": 0.13795031249999568,
          "durationTicks": 98,
          "midi": 35,
          "name": "B1",
          "ticks": 37152,
          "time": 52.297245000000004,
          "velocity": 0.8503937007874016
        },
        {
          "duration": 0.18299531249999745,
          "durationTicks": 130,
          "midi": 33,
          "name": "A1",
          "ticks": 37440,
          "time": 52.702650000000006,
          "velocity": 0.8267716535433071
        },
        {
          "duration": 0.14076562500000023,
          "durationTicks": 100,
          "midi": 38,
          "name": "D2",
          "ticks": 38400,
          "time": 54.054,
          "velocity": 0.905511811023622
        },
        {
          "duration": 0.14076562500000023,
          "durationTicks": 100,
          "midi": 38,
          "name": "D2",
          "ticks": 38688,
          "time": 54.459405000000004,
          "velocity": 0.8661417322834646
        },
        {
          "duration": 0.14358093749999767,
          "durationTicks": 102,
          "midi": 31,
          "name": "G1",
          "ticks": 38976,
          "time": 54.864810000000006,
          "velocity": 0.8818897637795275
        },
        {
          "duration": 0.14076562500000023,
          "durationTicks": 100,
          "midi": 35,
          "name": "B1",
          "ticks": 39936,
          "time": 56.21616,
          "velocity": 0.8503937007874016
        },
        {
          "duration": 0.15765749999999912,
          "durationTicks": 112,
          "midi": 35,
          "name": "B1",
          "ticks": 40224,
          "time": 56.621565000000004,
          "velocity": 0.8267716535433071
        },
        {
          "duration": 0.17173406249999346,
          "durationTicks": 122,
          "midi": 33,
          "name": "A1",
          "ticks": 40512,
          "time": 57.026970000000006,
          "velocity": 0.8503937007874016
        },
        {
          "duration": 0.3181303125000028,
          "durationTicks": 226,
          "midi": 38,
          "name": "D2",
          "ticks": 41472,
          "time": 58.37832,
          "velocity": 0.8110236220472441
        },
        {
          "duration": 0.23648624999999868,
          "durationTicks": 168,
          "midi": 38,
          "name": "D2",
          "ticks": 41856,
          "time": 58.91886,
          "velocity": 0.8818897637795275
        },
        {
          "duration": 0.11542781250000189,
          "durationTicks": 82,
          "midi": 31,
          "name": "G1",
          "ticks": 42240,
          "time": 59.4594,
          "velocity": 0.8661417322834646
        },
        {
          "duration": 0.16047281250000367,
          "durationTicks": 114,
          "midi": 31,
          "name": "G1",
          "ticks": 42432,
          "time": 59.72967,
          "velocity": 0.8503937007874016
        },
        {
          "duration": 0.07319812499999756,
          "durationTicks": 52,
          "midi": 31,
          "name": "G1",
          "ticks": 42816,
          "time": 60.270210000000006,
          "velocity": 0.7559055118110236
        },
        {
          "duration": 0.12668906249999878,
          "durationTicks": 90,
          "midi": 35,
          "name": "B1",
          "ticks": 43008,
          "time": 60.54048,
          "velocity": 0.8661417322834646
        },
        {
          "duration": 0.19425656250000145,
          "durationTicks": 138,
          "midi": 35,
          "name": "B1",
          "ticks": 43200,
          "time": 60.81075,
          "velocity": 0.7795275590551181
        },
        {
          "duration": 0.6925668749999971,
          "durationTicks": 492,
          "midi": 33,
          "name": "A1",
          "ticks": 43584,
          "time": 61.351290000000006,
          "velocity": 0.8267716535433071
        },
        {
          "duration": 0.0872746874999919,
          "durationTicks": 62,
          "midi": 33,
          "name": "A1",
          "ticks": 44352,
          "time": 62.432370000000006,
          "velocity": 0.8503937007874016
        },
        {
          "duration": 0.27026999999999646,
          "durationTicks": 192,
          "midi": 38,
          "name": "D2",
          "ticks": 44544,
          "time": 62.70264,
          "velocity": 0.905511811023622
        },
        {
          "duration": 0.185810625000002,
          "durationTicks": 132,
          "midi": 38,
          "name": "D2",
          "ticks": 44928,
          "time": 63.24318,
          "velocity": 0.8818897637795275
        },
        {
          "duration": 0.11542781250000189,
          "durationTicks": 82,
          "midi": 31,
          "name": "G1",
          "ticks": 45312,
          "time": 63.78372,
          "velocity": 0.8503937007874016
        },
        {
          "duration": 0.17736468750000256,
          "durationTicks": 126,
          "midi": 31,
          "name": "G1",
          "ticks": 45504,
          "time": 64.05399,
          "velocity": 0.8818897637795275
        },
        {
          "duration": 0.07319812500000467,
          "durationTicks": 52,
          "midi": 31,
          "name": "G1",
          "ticks": 45888,
          "time": 64.59453,
          "velocity": 0.7007874015748031
        },
        {
          "duration": 0.14076562500000023,
          "durationTicks": 100,
          "midi": 35,
          "name": "B1",
          "ticks": 46080,
          "time": 64.8648,
          "velocity": 0.8110236220472441
        },
        {
          "duration": 0.24774750000000267,
          "durationTicks": 176,
          "midi": 35,
          "name": "B1",
          "ticks": 46272,
          "time": 65.13507,
          "velocity": 0.8661417322834646
        },
        {
          "duration": 0.5602471874999964,
          "durationTicks": 398,
          "midi": 33,
          "name": "A1",
          "ticks": 46656,
          "time": 65.67561,
          "velocity": 0.8110236220472441
        },
        {
          "duration": 0.098535937500003,
          "durationTicks": 70,
          "midi": 33,
          "name": "A1",
          "ticks": 47424,
          "time": 66.75669,
          "velocity": 0.8503937007874016
        },
        {
          "duration": 0.2083331249999958,
          "durationTicks": 148,
          "midi": 38,
          "name": "D2",
          "ticks": 47616,
          "time": 67.02696,
          "velocity": 0.8818897637795275
        },
        {
          "duration": 0.19988718750001055,
          "durationTicks": 142,
          "midi": 38,
          "name": "D2",
          "ticks": 48000,
          "time": 67.5675,
          "velocity": 0.9291338582677166
        },
        {
          "duration": 0.11542781250000189,
          "durationTicks": 82,
          "midi": 31,
          "name": "G1",
          "ticks": 48384,
          "time": 68.10804,
          "velocity": 0.8818897637795275
        },
        {
          "duration": 0.1914412500000111,
          "durationTicks": 136,
          "midi": 31,
          "name": "G1",
          "ticks": 48576,
          "time": 68.37831,
          "velocity": 0.8661417322834646
        },
        {
          "duration": 0.087274687499999,
          "durationTicks": 62,
          "midi": 31,
          "name": "G1",
          "ticks": 48960,
          "time": 68.91885,
          "velocity": 0.8267716535433071
        },
        {
          "duration": 0.12950437500001044,
          "durationTicks": 92,
          "midi": 35,
          "name": "B1",
          "ticks": 49152,
          "time": 69.18912,
          "velocity": 0.8818897637795275
        },
        {
          "duration": 0.15484218750000878,
          "durationTicks": 110,
          "midi": 35,
          "name": "B1",
          "ticks": 49344,
          "time": 69.45939,
          "velocity": 0.8661417322834646
        },
        {
          "duration": 0.30968437499998913,
          "durationTicks": 220,
          "midi": 33,
          "name": "A1",
          "ticks": 49728,
          "time": 69.99993,
          "velocity": 0.8503937007874016
        },
        {
          "duration": 0.09853593749998879,
          "durationTicks": 70,
          "midi": 33,
          "name": "A1",
          "ticks": 50496,
          "time": 71.08101,
          "velocity": 0.7637795275590551
        },
        {
          "duration": 0.30405374999999424,
          "durationTicks": 216,
          "midi": 38,
          "name": "D2",
          "ticks": 50688,
          "time": 71.35128,
          "velocity": 0.8818897637795275
        },
        {
          "duration": 0.21114843750000034,
          "durationTicks": 150,
          "midi": 38,
          "name": "D2",
          "ticks": 51072,
          "time": 71.89182,
          "velocity": 0.8661417322834646
        },
        {
          "duration": 0.11261250000001155,
          "durationTicks": 80,
          "midi": 31,
          "name": "G1",
          "ticks": 51456,
          "time": 72.43236,
          "velocity": 0.8503937007874016
        },
        {
          "duration": 0.14358093750000478,
          "durationTicks": 102,
          "midi": 31,
          "name": "G1",
          "ticks": 51648,
          "time": 72.70263,
          "velocity": 0.8661417322834646
        },
        {
          "duration": 0.087274687499999,
          "durationTicks": 62,
          "midi": 31,
          "name": "G1",
          "ticks": 52032,
          "time": 73.24317,
          "velocity": 0.7086614173228346
        },
        {
          "duration": 0.11261250000001155,
          "durationTicks": 80,
          "midi": 35,
          "name": "B1",
          "ticks": 52224,
          "time": 73.51344,
          "velocity": 0.8661417322834646
        },
        {
          "duration": 0.22240968750000434,
          "durationTicks": 158,
          "midi": 35,
          "name": "B1",
          "ticks": 52416,
          "time": 73.78371,
          "velocity": 0.8503937007874016
        },
        {
          "duration": 0.5461706249999878,
          "durationTicks": 388,
          "midi": 33,
          "name": "A1",
          "ticks": 52800,
          "time": 74.32425,
          "velocity": 0.8503937007874016
        },
        {
          "duration": 0.1266890625000059,
          "durationTicks": 90,
          "midi": 38,
          "name": "D2",
          "ticks": 53760,
          "time": 75.6756,
          "velocity": 0.7795275590551181
        },
        {
          "duration": 0.12668906249999168,
          "durationTicks": 90,
          "midi": 38,
          "name": "D2",
          "ticks": 54048,
          "time": 76.081005,
          "velocity": 0.8110236220472441
        },
        {
          "duration": 0.12950437499999623,
          "durationTicks": 92,
          "midi": 31,
          "name": "G1",
          "ticks": 54336,
          "time": 76.48641,
          "velocity": 0.8110236220472441
        },
        {
          "duration": 0.11261250000001155,
          "durationTicks": 80,
          "midi": 35,
          "name": "B1",
          "ticks": 55296,
          "time": 77.83776,
          "velocity": 0.7559055118110236
        },
        {
          "duration": 0.12668906249999168,
          "durationTicks": 90,
          "midi": 35,
          "name": "B1",
          "ticks": 55584,
          "time": 78.243165,
          "velocity": 0.7952755905511811
        },
        {
          "duration": 0.1576574999999849,
          "durationTicks": 112,
          "midi": 33,
          "name": "A1",
          "ticks": 55872,
          "time": 78.64857,
          "velocity": 0.8110236220472441
        },
        {
          "duration": 0.15202687500000422,
          "durationTicks": 108,
          "midi": 38,
          "name": "D2",
          "ticks": 56832,
          "time": 79.99992,
          "velocity": 0.8503937007874016
        },
        {
          "duration": 0.1379503125000099,
          "durationTicks": 98,
          "midi": 38,
          "name": "D2",
          "ticks": 57120,
          "time": 80.405325,
          "velocity": 0.8503937007874016
        },
        {
          "duration": 0.16047281249998946,
          "durationTicks": 114,
          "midi": 31,
          "name": "G1",
          "ticks": 57408,
          "time": 80.81073,
          "velocity": 0.905511811023622
        },
        {
          "duration": 0.15484218750000878,
          "durationTicks": 110,
          "midi": 35,
          "name": "B1",
          "ticks": 58368,
          "time": 82.16208,
          "velocity": 0.8503937007874016
        },
        {
          "duration": 0.12387374999998713,
          "durationTicks": 88,
          "midi": 35,
          "name": "B1",
          "ticks": 58656,
          "time": 82.567485,
          "velocity": 0.8267716535433071
        },
        {
          "duration": 0.14358093749999057,
          "durationTicks": 102,
          "midi": 33,
          "name": "A1",
          "ticks": 58944,
          "time": 82.97289,
          "velocity": 0.8818897637795275
        },
        {
          "duration": 0.11261250000001155,
          "durationTicks": 80,
          "midi": 38,
          "name": "D2",
          "ticks": 59904,
          "time": 84.32424,
          "velocity": 0.7952755905511811
        },
        {
          "duration": 0.11261249999999734,
          "durationTicks": 80,
          "midi": 38,
          "name": "D2",
          "ticks": 60192,
          "time": 84.729645,
          "velocity": 0.8267716535433071
        },
        {
          "duration": 0.12387374999998713,
          "durationTicks": 88,
          "midi": 31,
          "name": "G1",
          "ticks": 60480,
          "time": 85.13505,
          "velocity": 0.8110236220472441
        },
        {
          "duration": 0.1379503125000099,
          "durationTicks": 98,
          "midi": 35,
          "name": "B1",
          "ticks": 61440,
          "time": 86.4864,
          "velocity": 0.8661417322834646
        },
        {
          "duration": 0.12387374999998713,
          "durationTicks": 88,
          "midi": 35,
          "name": "B1",
          "ticks": 61728,
          "time": 86.891805,
          "velocity": 0.8661417322834646
        },
        {
          "duration": 0.1576574999999849,
          "durationTicks": 112,
          "midi": 33,
          "name": "A1",
          "ticks": 62016,
          "time": 87.29721,
          "velocity": 0.8503937007874016
        },
        {
          "duration": 0.14076562500000023,
          "durationTicks": 100,
          "midi": 38,
          "name": "D2",
          "ticks": 62976,
          "time": 88.64856,
          "velocity": 0.8818897637795275
        },
        {
          "duration": 0.12387374999998713,
          "durationTicks": 88,
          "midi": 38,
          "name": "D2",
          "ticks": 63264,
          "time": 89.053965,
          "velocity": 0.8818897637795275
        },
        {
          "duration": 0.14076562499998602,
          "durationTicks": 100,
          "midi": 31,
          "name": "G1",
          "ticks": 63552,
          "time": 89.45937,
          "velocity": 0.8267716535433071
        },
        {
          "duration": 0.109797187500007,
          "durationTicks": 78,
          "midi": 35,
          "name": "B1",
          "ticks": 64512,
          "time": 90.81072,
          "velocity": 0.8267716535433071
        },
        {
          "duration": 0.1379503125000099,
          "durationTicks": 98,
          "midi": 35,
          "name": "B1",
          "ticks": 64800,
          "time": 91.216125,
          "velocity": 0.7795275590551181
        },
        {
          "duration": 0.15202687499999,
          "durationTicks": 108,
          "midi": 33,
          "name": "A1",
          "ticks": 65088,
          "time": 91.62153,
          "velocity": 0.8110236220472441
        },
        {
          "duration": 0.1266890625000059,
          "durationTicks": 90,
          "midi": 38,
          "name": "D2",
          "ticks": 66048,
          "time": 92.97288,
          "velocity": 0.905511811023622
        },
        {
          "duration": 0.14076562499998602,
          "durationTicks": 100,
          "midi": 38,
          "name": "D2",
          "ticks": 66336,
          "time": 93.378285,
          "velocity": 0.8661417322834646
        },
        {
          "duration": 0.14358093749999057,
          "durationTicks": 102,
          "midi": 31,
          "name": "G1",
          "ticks": 66624,
          "time": 93.78369,
          "velocity": 0.8661417322834646
        },
        {
          "duration": 0.11542781250000189,
          "durationTicks": 82,
          "midi": 35,
          "name": "B1",
          "ticks": 67584,
          "time": 95.13504,
          "velocity": 0.9291338582677166
        },
        {
          "duration": 0.14358093750000478,
          "durationTicks": 102,
          "midi": 35,
          "name": "B1",
          "ticks": 67872,
          "time": 95.540445,
          "velocity": 0.8661417322834646
        },
        {
          "duration": 0.16328812500000822,
          "durationTicks": 116,
          "midi": 33,
          "name": "A1",
          "ticks": 68160,
          "time": 95.94585000000001,
          "velocity": 0.8818897637795275
        },
        {
          "duration": 0.1266890625000059,
          "durationTicks": 90,
          "midi": 38,
          "name": "D2",
          "ticks": 69120,
          "time": 97.2972,
          "velocity": 0.9763779527559056
        },
        {
          "duration": 0.12668906249999168,
          "durationTicks": 90,
          "midi": 38,
          "name": "D2",
          "ticks": 69408,
          "time": 97.702605,
          "velocity": 0.905511811023622
        },
        {
          "duration": 0.13513499999999112,
          "durationTicks": 96,
          "midi": 31,
          "name": "G1",
          "ticks": 69696,
          "time": 98.10801000000001,
          "velocity": 0.8503937007874016
        },
        {
          "duration": 0.12387375000000134,
          "durationTicks": 88,
          "midi": 35,
          "name": "B1",
          "ticks": 70656,
          "time": 99.45936,
          "velocity": 0.8818897637795275
        },
        {
          "duration": 0.12668906249999168,
          "durationTicks": 90,
          "midi": 35,
          "name": "B1",
          "ticks": 70944,
          "time": 99.864765,
          "velocity": 0.8503937007874016
        },
        {
          "duration": 0.14639624999999512,
          "durationTicks": 104,
          "midi": 33,
          "name": "A1",
          "ticks": 71232,
          "time": 100.27017000000001,
          "velocity": 0.8503937007874016
        },
        {
          "duration": 0.14358093750000478,
          "durationTicks": 102,
          "midi": 38,
          "name": "D2",
          "ticks": 72192,
          "time": 101.62152,
          "velocity": 0.905511811023622
        },
        {
          "duration": 0.1379503125000099,
          "durationTicks": 98,
          "midi": 38,
          "name": "D2",
          "ticks": 72480,
          "time": 102.026925,
          "velocity": 0.8818897637795275
        },
        {
          "duration": 0.15202687499999,
          "durationTicks": 108,
          "midi": 31,
          "name": "G1",
          "ticks": 72768,
          "time": 102.43233000000001,
          "velocity": 0.8818897637795275
        },
        {
          "duration": 0.12387375000000134,
          "durationTicks": 88,
          "midi": 35,
          "name": "B1",
          "ticks": 73728,
          "time": 103.78368,
          "velocity": 0.8818897637795275
        },
        {
          "duration": 0.1379503125000099,
          "durationTicks": 98,
          "midi": 35,
          "name": "B1",
          "ticks": 74016,
          "time": 104.189085,
          "velocity": 0.8503937007874016
        },
        {
          "duration": 0.18299531249999745,
          "durationTicks": 130,
          "midi": 33,
          "name": "A1",
          "ticks": 74304,
          "time": 104.59449000000001,
          "velocity": 0.8267716535433071
        },
        {
          "duration": 0.14076562500000023,
          "durationTicks": 100,
          "midi": 38,
          "name": "D2",
          "ticks": 75264,
          "time": 105.94584,
          "velocity": 0.905511811023622
        },
        {
          "duration": 0.14076562499998602,
          "durationTicks": 100,
          "midi": 38,
          "name": "D2",
          "ticks": 75552,
          "time": 106.351245,
          "velocity": 0.8661417322834646
        },
        {
          "duration": 0.14358093749999057,
          "durationTicks": 102,
          "midi": 31,
          "name": "G1",
          "ticks": 75840,
          "time": 106.75665000000001,
          "velocity": 0.8818897637795275
        },
        {
          "duration": 0.14076562500000023,
          "durationTicks": 100,
          "midi": 35,
          "name": "B1",
          "ticks": 76800,
          "time": 108.108,
          "velocity": 0.8503937007874016
        },
        {
          "duration": 0.15765749999999912,
          "durationTicks": 112,
          "midi": 35,
          "name": "B1",
          "ticks": 77088,
          "time": 108.513405,
          "velocity": 0.8267716535433071
        },
        {
          "duration": 0.17173406250000767,
          "durationTicks": 122,
          "midi": 33,
          "name": "A1",
          "ticks": 77376,
          "time": 108.91881000000001,
          "velocity": 0.8503937007874016
        },
        {
          "duration": 0.3181303124999886,
          "durationTicks": 226,
          "midi": 38,
          "name": "D2",
          "ticks": 78336,
          "time": 110.27016,
          "velocity": 0.8110236220472441
        },
        {
          "duration": 0.2364862500000129,
          "durationTicks": 168,
          "midi": 38,
          "name": "D2",
          "ticks": 78720,
          "time": 110.8107,
          "velocity": 0.8818897637795275
        },
        {
          "duration": 0.11542781250000189,
          "durationTicks": 82,
          "midi": 31,
          "name": "G1",
          "ticks": 79104,
          "time": 111.35124,
          "velocity": 0.8661417322834646
        },
        {
          "duration": 0.16047281250000367,
          "durationTicks": 114,
          "midi": 31,
          "name": "G1",
          "ticks": 79296,
          "time": 111.62151,
          "velocity": 0.8503937007874016
        },
        {
          "duration": 0.07319812499999045,
          "durationTicks": 52,
          "midi": 31,
          "name": "G1",
          "ticks": 79680,
          "time": 112.16205000000001,
          "velocity": 0.7559055118110236
        },
        {
          "duration": 0.1266890625000059,
          "durationTicks": 90,
          "midi": 35,
          "name": "B1",
          "ticks": 79872,
          "time": 112.43232,
          "velocity": 0.8661417322834646
        },
        {
          "duration": 0.19425656250000145,
          "durationTicks": 138,
          "midi": 35,
          "name": "B1",
          "ticks": 80064,
          "time": 112.70259,
          "velocity": 0.7795275590551181
        },
        {
          "duration": 0.6925668749999971,
          "durationTicks": 492,
          "midi": 33,
          "name": "A1",
          "ticks": 80448,
          "time": 113.24313000000001,
          "velocity": 0.8267716535433071
        },
        {
          "duration": 0.087274687499999,
          "durationTicks": 62,
          "midi": 33,
          "name": "A1",
          "ticks": 81216,
          "time": 114.32421000000001,
          "velocity": 0.8503937007874016
        },
        {
          "duration": 0.27026999999999646,
          "durationTicks": 192,
          "midi": 38,
          "name": "D2",
          "ticks": 81408,
          "time": 114.59448,
          "velocity": 0.905511811023622
        },
        {
          "duration": 0.185810625000002,
          "durationTicks": 132,
          "midi": 38,
          "name": "D2",
          "ticks": 81792,
          "time": 115.13502,
          "velocity": 0.8818897637795275
        },
        {
          "duration": 0.11542781250000189,
          "durationTicks": 82,
          "midi": 31,
          "name": "G1",
          "ticks": 82176,
          "time": 115.67556,
          "velocity": 0.8503937007874016
        },
        {
          "duration": 0.17736468750000256,
          "durationTicks": 126,
          "midi": 31,
          "name": "G1",
          "ticks": 82368,
          "time": 115.94583,
          "velocity": 0.8818897637795275
        },
        {
          "duration": 0.07319812499999045,
          "durationTicks": 52,
          "midi": 31,
          "name": "G1",
          "ticks": 82752,
          "time": 116.48637000000001,
          "velocity": 0.7007874015748031
        },
        {
          "duration": 0.14076562500000023,
          "durationTicks": 100,
          "midi": 35,
          "name": "B1",
          "ticks": 82944,
          "time": 116.75664,
          "velocity": 0.8110236220472441
        },
        {
          "duration": 0.24774750000000267,
          "durationTicks": 176,
          "midi": 35,
          "name": "B1",
          "ticks": 83136,
          "time": 117.02691,
          "velocity": 0.8661417322834646
        },
        {
          "duration": 0.5602471874999964,
          "durationTicks": 398,
          "midi": 33,
          "name": "A1",
          "ticks": 83520,
          "time": 117.56745000000001,
          "velocity": 0.8110236220472441
        },
        {
          "duration": 0.09853593749998879,
          "durationTicks": 70,
          "midi": 33,
          "name": "A1",
          "ticks": 84288,
          "time": 118.64853000000001,
          "velocity": 0.8503937007874016
        },
        {
          "duration": 0.2083331249999958,
          "durationTicks": 148,
          "midi": 38,
          "name": "D2",
          "ticks": 84480,
          "time": 118.9188,
          "velocity": 0.8818897637795275
        },
        {
          "duration": 0.19988718749999634,
          "durationTicks": 142,
          "midi": 38,
          "name": "D2",
          "ticks": 84864,
          "time": 119.45934,
          "velocity": 0.9291338582677166
        },
        {
          "duration": 0.11542781250000189,
          "durationTicks": 82,
          "midi": 31,
          "name": "G1",
          "ticks": 85248,
          "time": 119.99988,
          "velocity": 0.8818897637795275
        },
        {
          "duration": 0.1914412499999969,
          "durationTicks": 136,
          "midi": 31,
          "name": "G1",
          "ticks": 85440,
          "time": 120.27015,
          "velocity": 0.8661417322834646
        },
        {
          "duration": 0.087274687499999,
          "durationTicks": 62,
          "midi": 31,
          "name": "G1",
          "ticks": 85824,
          "time": 120.81069000000001,
          "velocity": 0.8267716535433071
        },
        {
          "duration": 0.12950437500001044,
          "durationTicks": 92,
          "midi": 35,
          "name": "B1",
          "ticks": 86016,
          "time": 121.08096,
          "velocity": 0.8818897637795275
        },
        {
          "duration": 0.15484218750000878,
          "durationTicks": 110,
          "midi": 35,
          "name": "B1",
          "ticks": 86208,
          "time": 121.35123,
          "velocity": 0.8661417322834646
        },
        {
          "duration": 0.30968437499998913,
          "durationTicks": 220,
          "midi": 33,
          "name": "A1",
          "ticks": 86592,
          "time": 121.89177000000001,
          "velocity": 0.8503937007874016
        },
        {
          "duration": 0.09853593749998879,
          "durationTicks": 70,
          "midi": 33,
          "name": "A1",
          "ticks": 87360,
          "time": 122.97285000000001,
          "velocity": 0.7637795275590551
        },
        {
          "duration": 0.30405374999999424,
          "durationTicks": 216,
          "midi": 38,
          "name": "D2",
          "ticks": 87552,
          "time": 123.24312,
          "velocity": 0.8818897637795275
        },
        {
          "duration": 0.21114843750000034,
          "durationTicks": 150,
          "midi": 38,
          "name": "D2",
          "ticks": 87936,
          "time": 123.78366,
          "velocity": 0.8661417322834646
        },
        {
          "duration": 0.11261250000001155,
          "durationTicks": 80,
          "midi": 31,
          "name": "G1",
          "ticks": 88320,
          "time": 124.3242,
          "velocity": 0.8503937007874016
        },
        {
          "duration": 0.14358093750000478,
          "durationTicks": 102,
          "midi": 31,
          "name": "G1",
          "ticks": 88512,
          "time": 124.59447,
          "velocity": 0.8661417322834646
        },
        {
          "duration": 0.087274687499999,
          "durationTicks": 62,
          "midi": 31,
          "name": "G1",
          "ticks": 88896,
          "time": 125.13501000000001,
          "velocity": 0.7086614173228346
        },
        {
          "duration": 0.11261250000001155,
          "durationTicks": 80,
          "midi": 35,
          "name": "B1",
          "ticks": 89088,
          "time": 125.40528,
          "velocity": 0.8661417322834646
        },
        {
          "duration": 0.22240968750000434,
          "durationTicks": 158,
          "midi": 35,
          "name": "B1",
          "ticks": 89280,
          "time": 125.67555,
          "velocity": 0.8503937007874016
        },
        {
          "duration": 0.5461706249999878,
          "durationTicks": 388,
          "midi": 33,
          "name": "A1",
          "ticks": 89664,
          "time": 126.21609000000001,
          "velocity": 0.8503937007874016
        },
        {
          "duration": 0.1266890625000059,
          "durationTicks": 90,
          "midi": 38,
          "name": "D2",
          "ticks": 90624,
          "time": 127.56744,
          "velocity": 0.7795275590551181
        },
        {
          "duration": 0.12668906249999168,
          "durationTicks": 90,
          "midi": 38,
          "name": "D2",
          "ticks": 90912,
          "time": 127.972845,
          "velocity": 0.8110236220472441
        },
        {
          "duration": 0.12950437500001044,
          "durationTicks": 92,
          "midi": 31,
          "name": "G1",
          "ticks": 91200,
          "time": 128.37825,
          "velocity": 0.8110236220472441
        },
        {
          "duration": 0.11261250000001155,
          "durationTicks": 80,
          "midi": 35,
          "name": "B1",
          "ticks": 92160,
          "time": 129.7296,
          "velocity": 0.7559055118110236
        },
        {
          "duration": 0.12668906249999168,
          "durationTicks": 90,
          "midi": 35,
          "name": "B1",
          "ticks": 92448,
          "time": 130.135005,
          "velocity": 0.7952755905511811
        },
        {
          "duration": 0.15765749999999912,
          "durationTicks": 112,
          "midi": 33,
          "name": "A1",
          "ticks": 92736,
          "time": 130.54041,
          "velocity": 0.8110236220472441
        },
        {
          "duration": 0.15202687499999,
          "durationTicks": 108,
          "midi": 38,
          "name": "D2",
          "ticks": 93696,
          "time": 131.89176,
          "velocity": 0.8503937007874016
        },
        {
          "duration": 0.1379503125000099,
          "durationTicks": 98,
          "midi": 38,
          "name": "D2",
          "ticks": 93984,
          "time": 132.297165,
          "velocity": 0.8503937007874016
        },
        {
          "duration": 0.16047281249998946,
          "durationTicks": 114,
          "midi": 31,
          "name": "G1",
          "ticks": 94272,
          "time": 132.70257,
          "velocity": 0.905511811023622
        },
        {
          "duration": 0.15484218750000878,
          "durationTicks": 110,
          "midi": 35,
          "name": "B1",
          "ticks": 95232,
          "time": 134.05392,
          "velocity": 0.8503937007874016
        },
        {
          "duration": 0.12387375000000134,
          "durationTicks": 88,
          "midi": 35,
          "name": "B1",
          "ticks": 95520,
          "time": 134.459325,
          "velocity": 0.8267716535433071
        },
        {
          "duration": 0.14358093749999057,
          "durationTicks": 102,
          "midi": 33,
          "name": "A1",
          "ticks": 95808,
          "time": 134.86473,
          "velocity": 0.8818897637795275
        },
        {
          "duration": 0.11261250000001155,
          "durationTicks": 80,
          "midi": 38,
          "name": "D2",
          "ticks": 96768,
          "time": 136.21608,
          "velocity": 0.7952755905511811
        },
        {
          "duration": 0.11261250000001155,
          "durationTicks": 80,
          "midi": 38,
          "name": "D2",
          "ticks": 97056,
          "time": 136.621485,
          "velocity": 0.8267716535433071
        },
        {
          "duration": 0.12387375000000134,
          "durationTicks": 88,
          "midi": 31,
          "name": "G1",
          "ticks": 97344,
          "time": 137.02689,
          "velocity": 0.8110236220472441
        },
        {
          "duration": 0.13795031249998146,
          "durationTicks": 98,
          "midi": 35,
          "name": "B1",
          "ticks": 98304,
          "time": 138.37824,
          "velocity": 0.8661417322834646
        },
        {
          "duration": 0.12387375000000134,
          "durationTicks": 88,
          "midi": 35,
          "name": "B1",
          "ticks": 98592,
          "time": 138.783645,
          "velocity": 0.8661417322834646
        },
        {
          "duration": 0.15765749999999912,
          "durationTicks": 112,
          "midi": 33,
          "name": "A1",
          "ticks": 98880,
          "time": 139.18905,
          "velocity": 0.8503937007874016
        },
        {
          "duration": 0.14076562500000023,
          "durationTicks": 100,
          "midi": 38,
          "name": "D2",
          "ticks": 99840,
          "time": 140.5404,
          "velocity": 0.8818897637795275
        },
        {
          "duration": 0.12387375000000134,
          "durationTicks": 88,
          "midi": 38,
          "name": "D2",
          "ticks": 100128,
          "time": 140.945805,
          "velocity": 0.8818897637795275
        },
        {
          "duration": 0.14076562500000023,
          "durationTicks": 100,
          "midi": 31,
          "name": "G1",
          "ticks": 100416,
          "time": 141.35121,
          "velocity": 0.8267716535433071
        },
        {
          "duration": 0.10979718749999279,
          "durationTicks": 78,
          "midi": 35,
          "name": "B1",
          "ticks": 101376,
          "time": 142.70256,
          "velocity": 0.8267716535433071
        },
        {
          "duration": 0.13795031249998146,
          "durationTicks": 98,
          "midi": 35,
          "name": "B1",
          "ticks": 101664,
          "time": 143.107965,
          "velocity": 0.7795275590551181
        },
        {
          "duration": 0.15202687499999,
          "durationTicks": 108,
          "midi": 33,
          "name": "A1",
          "ticks": 101952,
          "time": 143.51337,
          "velocity": 0.8110236220472441
        },
        {
          "duration": 0.12668906249999168,
          "durationTicks": 90,
          "midi": 38,
          "name": "D2",
          "ticks": 102912,
          "time": 144.86472,
          "velocity": 0.905511811023622
        },
        {
          "duration": 0.14076562500000023,
          "durationTicks": 100,
          "midi": 38,
          "name": "D2",
          "ticks": 103200,
          "time": 145.270125,
          "velocity": 0.8661417322834646
        },
        {
          "duration": 0.14358093749999057,
          "durationTicks": 102,
          "midi": 31,
          "name": "G1",
          "ticks": 103488,
          "time": 145.67553,
          "velocity": 0.8661417322834646
        },
        {
          "duration": 0.11542781250000189,
          "durationTicks": 82,
          "midi": 35,
          "name": "B1",
          "ticks": 104448,
          "time": 147.02688,
          "velocity": 0.9291338582677166
        },
        {
          "duration": 0.14358093749999057,
          "durationTicks": 102,
          "midi": 35,
          "name": "B1",
          "ticks": 104736,
          "time": 147.432285,
          "velocity": 0.8661417322834646
        },
        {
          "duration": 0.1632881249999798,
          "durationTicks": 116,
          "midi": 33,
          "name": "A1",
          "ticks": 105024,
          "time": 147.83769,
          "velocity": 0.8818897637795275
        },
        {
          "duration": 0.12668906249999168,
          "durationTicks": 90,
          "midi": 38,
          "name": "D2",
          "ticks": 105984,
          "time": 149.18904,
          "velocity": 0.9763779527559056
        },
        {
          "duration": 0.12668906249999168,
          "durationTicks": 90,
          "midi": 38,
          "name": "D2",
          "ticks": 106272,
          "time": 149.594445,
          "velocity": 0.905511811023622
        },
        {
          "duration": 0.13513499999999112,
          "durationTicks": 96,
          "midi": 31,
          "name": "G1",
          "ticks": 106560,
          "time": 149.99985,
          "velocity": 0.8503937007874016
        },
        {
          "duration": 0.12387375000000134,
          "durationTicks": 88,
          "midi": 35,
          "name": "B1",
          "ticks": 107520,
          "time": 151.3512,
          "velocity": 0.8818897637795275
        },
        {
          "duration": 0.12668906249999168,
          "durationTicks": 90,
          "midi": 35,
          "name": "B1",
          "ticks": 107808,
          "time": 151.756605,
          "velocity": 0.8503937007874016
        },
        {
          "duration": 0.1463962499999809,
          "durationTicks": 104,
          "midi": 33,
          "name": "A1",
          "ticks": 108096,
          "time": 152.16201,
          "velocity": 0.8503937007874016
        },
        {
          "duration": 0.14358093749999057,
          "durationTicks": 102,
          "midi": 38,
          "name": "D2",
          "ticks": 109056,
          "time": 153.51336,
          "velocity": 0.905511811023622
        },
        {
          "duration": 0.13795031249998146,
          "durationTicks": 98,
          "midi": 38,
          "name": "D2",
          "ticks": 109344,
          "time": 153.918765,
          "velocity": 0.8818897637795275
        },
        {
          "duration": 0.15202687499999,
          "durationTicks": 108,
          "midi": 31,
          "name": "G1",
          "ticks": 109632,
          "time": 154.32417,
          "velocity": 0.8818897637795275
        },
        {
          "duration": 0.12387375000000134,
          "durationTicks": 88,
          "midi": 35,
          "name": "B1",
          "ticks": 110592,
          "time": 155.67552,
          "velocity": 0.8818897637795275
        },
        {
          "duration": 0.13795031249998146,
          "durationTicks": 98,
          "midi": 35,
          "name": "B1",
          "ticks": 110880,
          "time": 156.080925,
          "velocity": 0.8503937007874016
        },
        {
          "duration": 0.18299531249999745,
          "durationTicks": 130,
          "midi": 33,
          "name": "A1",
          "ticks": 111168,
          "time": 156.48633,
          "velocity": 0.8267716535433071
        },
        {
          "duration": 0.14076562500000023,
          "durationTicks": 100,
          "midi": 38,
          "name": "D2",
          "ticks": 112128,
          "time": 157.83768,
          "velocity": 0.905511811023622
        },
        {
          "duration": 0.14076562500000023,
          "durationTicks": 100,
          "midi": 38,
          "name": "D2",
          "ticks": 112416,
          "time": 158.243085,
          "velocity": 0.8661417322834646
        },
        {
          "duration": 0.14358093749999057,
          "durationTicks": 102,
          "midi": 31,
          "name": "G1",
          "ticks": 112704,
          "time": 158.64849,
          "velocity": 0.8818897637795275
        },
        {
          "duration": 0.14076562500000023,
          "durationTicks": 100,
          "midi": 35,
          "name": "B1",
          "ticks": 113664,
          "time": 159.99984,
          "velocity": 0.8503937007874016
        },
        {
          "duration": 0.15765749999999912,
          "durationTicks": 112,
          "midi": 35,
          "name": "B1",
          "ticks": 113952,
          "time": 160.405245,
          "velocity": 0.8267716535433071
        },
        {
          "duration": 0.17173406249997925,
          "durationTicks": 122,
          "midi": 33,
          "name": "A1",
          "ticks": 114240,
          "time": 160.81065,
          "velocity": 0.8503937007874016
        },
        {
          "duration": 0.318130312500017,
          "durationTicks": 226,
          "midi": 38,
          "name": "D2",
          "ticks": 115200,
          "time": 162.162,
          "velocity": 0.8110236220472441
        },
        {
          "duration": 0.2364862500000129,
          "durationTicks": 168,
          "midi": 38,
          "name": "D2",
          "ticks": 115584,
          "time": 162.70254,
          "velocity": 0.8818897637795275
        },
        {
          "duration": 0.11542781250000189,
          "durationTicks": 82,
          "midi": 31,
          "name": "G1",
          "ticks": 115968,
          "time": 163.24308000000002,
          "velocity": 0.8661417322834646
        },
        {
          "duration": 0.16047281249998946,
          "durationTicks": 114,
          "midi": 31,
          "name": "G1",
          "ticks": 116160,
          "time": 163.51335,
          "velocity": 0.8503937007874016
        },
        {
          "duration": 0.07319812500003309,
          "durationTicks": 52,
          "midi": 31,
          "name": "G1",
          "ticks": 116544,
          "time": 164.05389,
          "velocity": 0.7559055118110236
        },
        {
          "duration": 0.12668906249999168,
          "durationTicks": 90,
          "midi": 35,
          "name": "B1",
          "ticks": 116736,
          "time": 164.32416,
          "velocity": 0.8661417322834646
        },
        {
          "duration": 0.19425656249998724,
          "durationTicks": 138,
          "midi": 35,
          "name": "B1",
          "ticks": 116928,
          "time": 164.59443000000002,
          "velocity": 0.7795275590551181
        },
        {
          "duration": 0.6925668749999829,
          "durationTicks": 492,
          "midi": 33,
          "name": "A1",
          "ticks": 117312,
          "time": 165.13497,
          "velocity": 0.8267716535433071
        },
        {
          "duration": 0.08727468750001321,
          "durationTicks": 62,
          "midi": 33,
          "name": "A1",
          "ticks": 118080,
          "time": 166.21605,
          "velocity": 0.8503937007874016
        },
        {
          "duration": 0.27027000000001067,
          "durationTicks": 192,
          "midi": 38,
          "name": "D2",
          "ticks": 118272,
          "time": 166.48632,
          "velocity": 0.905511811023622
        },
        {
          "duration": 0.18581062500001622,
          "durationTicks": 132,
          "midi": 38,
          "name": "D2",
          "ticks": 118656,
          "time": 167.02686,
          "velocity": 0.8818897637795275
        },
        {
          "duration": 0.11542781250000189,
          "durationTicks": 82,
          "midi": 31,
          "name": "G1",
          "ticks": 119040,
          "time": 167.56740000000002,
          "velocity": 0.8503937007874016
        },
        {
          "duration": 0.17736468750001677,
          "durationTicks": 126,
          "midi": 31,
          "name": "G1",
          "ticks": 119232,
          "time": 167.83767,
          "velocity": 0.8818897637795275
        },
        {
          "duration": 0.07319812500003309,
          "durationTicks": 52,
          "midi": 31,
          "name": "G1",
          "ticks": 119616,
          "time": 168.37821,
          "velocity": 0.7007874015748031
        },
        {
          "duration": 0.14076562500000023,
          "durationTicks": 100,
          "midi": 35,
          "name": "B1",
          "ticks": 119808,
          "time": 168.64848,
          "velocity": 0.8110236220472441
        },
        {
          "duration": 0.24774749999997425,
          "durationTicks": 176,
          "midi": 35,
          "name": "B1",
          "ticks": 120000,
          "time": 168.91875000000002,
          "velocity": 0.8661417322834646
        },
        {
          "duration": 0.5602471874999821,
          "durationTicks": 398,
          "midi": 33,
          "name": "A1",
          "ticks": 120384,
          "time": 169.45929,
          "velocity": 0.8110236220472441
        },
        {
          "duration": 0.09853593750003142,
          "durationTicks": 70,
          "midi": 33,
          "name": "A1",
          "ticks": 121152,
          "time": 170.54037,
          "velocity": 0.8503937007874016
        },
        {
          "duration": 0.2083331250000242,
          "durationTicks": 148,
          "midi": 38,
          "name": "D2",
          "ticks": 121344,
          "time": 170.81064,
          "velocity": 0.8818897637795275
        },
        {
          "duration": 0.19988718750002477,
          "durationTicks": 142,
          "midi": 38,
          "name": "D2",
          "ticks": 121728,
          "time": 171.35118,
          "velocity": 0.9291338582677166
        },
        {
          "duration": 0.11542781250000189,
          "durationTicks": 82,
          "midi": 31,
          "name": "G1",
          "ticks": 122112,
          "time": 171.89172000000002,
          "velocity": 0.8818897637795275
        },
        {
          "duration": 0.19144125000002532,
          "durationTicks": 136,
          "midi": 31,
          "name": "G1",
          "ticks": 122304,
          "time": 172.16199,
          "velocity": 0.8661417322834646
        },
        {
          "duration": 0.08727468750001321,
          "durationTicks": 62,
          "midi": 31,
          "name": "G1",
          "ticks": 122688,
          "time": 172.70253,
          "velocity": 0.8267716535433071
        },
        {
          "duration": 0.12950437499998202,
          "durationTicks": 92,
          "midi": 35,
          "name": "B1",
          "ticks": 122880,
          "time": 172.9728,
          "velocity": 0.8818897637795275
        },
        {
          "duration": 0.15484218749998035,
          "durationTicks": 110,
          "midi": 35,
          "name": "B1",
          "ticks": 123072,
          "time": 173.24307000000002,
          "velocity": 0.8661417322834646
        },
        {
          "duration": 0.30968437500001755,
          "durationTicks": 220,
          "midi": 33,
          "name": "A1",
          "ticks": 123456,
          "time": 173.78361,
          "velocity": 0.8503937007874016
        },
        {
          "duration": 0.09853593750003142,
          "durationTicks": 70,
          "midi": 33,
          "name": "A1",
          "ticks": 124224,
          "time": 174.86469,
          "velocity": 0.7637795275590551
        },
        {
          "duration": 0.30405375000000845,
          "durationTicks": 216,
          "midi": 38,
          "name": "D2",
          "ticks": 124416,
          "time": 175.13496,
          "velocity": 0.8818897637795275
        },
        {
          "duration": 0.21114843750001455,
          "durationTicks": 150,
          "midi": 38,
          "name": "D2",
          "ticks": 124800,
          "time": 175.6755,
          "velocity": 0.8661417322834646
        },
        {
          "duration": 0.11261249999998313,
          "durationTicks": 80,
          "midi": 31,
          "name": "G1",
          "ticks": 125184,
          "time": 176.21604000000002,
          "velocity": 0.8503937007874016
        },
        {
          "duration": 0.14358093749999057,
          "durationTicks": 102,
          "midi": 31,
          "name": "G1",
          "ticks": 125376,
          "time": 176.48631,
          "velocity": 0.8661417322834646
        },
        {
          "duration": 0.08727468750001321,
          "durationTicks": 62,
          "midi": 31,
          "name": "G1",
          "ticks": 125760,
          "time": 177.02685,
          "velocity": 0.7086614173228346
        },
        {
          "duration": 0.11261249999998313,
          "durationTicks": 80,
          "midi": 35,
          "name": "B1",
          "ticks": 125952,
          "time": 177.29712,
          "velocity": 0.8661417322834646
        },
        {
          "duration": 0.22240968749997592,
          "durationTicks": 158,
          "midi": 35,
          "name": "B1",
          "ticks": 126144,
          "time": 177.56739000000002,
          "velocity": 0.8503937007874016
        },
        {
          "duration": 0.546170625000002,
          "durationTicks": 388,
          "midi": 33,
          "name": "A1",
          "ticks": 126528,
          "time": 178.10793,
          "velocity": 0.8503937007874016
        },
        {
          "duration": 0.318130312500017,
          "durationTicks": 226,
          "midi": 38,
          "name": "D2",
          "ticks": 127488,
          "time": 179.45928,
          "velocity": 0.8110236220472441
        },
        {
          "duration": 0.2364862500000129,
          "durationTicks": 168,
          "midi": 38,
          "name": "D2",
          "ticks": 127872,
          "time": 179.99982,
          "velocity": 0.8818897637795275
        },
        {
          "duration": 0.11542781250000189,
          "durationTicks": 82,
          "midi": 31,
          "name": "G1",
          "ticks": 128256,
          "time": 180.54036000000002,
          "velocity": 0.8661417322834646
        },
        {
          "duration": 0.16047281249998946,
          "durationTicks": 114,
          "midi": 31,
          "name": "G1",
          "ticks": 128448,
          "time": 180.81063,
          "velocity": 0.8503937007874016
        },
        {
          "duration": 0.07319812500003309,
          "durationTicks": 52,
          "midi": 31,
          "name": "G1",
          "ticks": 128832,
          "time": 181.35117,
          "velocity": 0.7559055118110236
        },
        {
          "duration": 0.12668906249999168,
          "durationTicks": 90,
          "midi": 35,
          "name": "B1",
          "ticks": 129024,
          "time": 181.62144,
          "velocity": 0.8661417322834646
        },
        {
          "duration": 0.19425656249998724,
          "durationTicks": 138,
          "midi": 35,
          "name": "B1",
          "ticks": 129216,
          "time": 181.89171000000002,
          "velocity": 0.7795275590551181
        },
        {
          "duration": 0.6925668749999829,
          "durationTicks": 492,
          "midi": 33,
          "name": "A1",
          "ticks": 129600,
          "time": 182.43225,
          "velocity": 0.8267716535433071
        },
        {
          "duration": 0.08727468750001321,
          "durationTicks": 62,
          "midi": 33,
          "name": "A1",
          "ticks": 130368,
          "time": 183.51333,
          "velocity": 0.8503937007874016
        },
        {
          "duration": 0.27027000000001067,
          "durationTicks": 192,
          "midi": 38,
          "name": "D2",
          "ticks": 130560,
          "time": 183.7836,
          "velocity": 0.905511811023622
        },
        {
          "duration": 0.18581062500001622,
          "durationTicks": 132,
          "midi": 38,
          "name": "D2",
          "ticks": 130944,
          "time": 184.32414,
          "velocity": 0.8818897637795275
        },
        {
          "duration": 0.11542781250000189,
          "durationTicks": 82,
          "midi": 31,
          "name": "G1",
          "ticks": 131328,
          "time": 184.86468000000002,
          "velocity": 0.8503937007874016
        },
        {
          "duration": 0.17736468750001677,
          "durationTicks": 126,
          "midi": 31,
          "name": "G1",
          "ticks": 131520,
          "time": 185.13495,
          "velocity": 0.8818897637795275
        },
        {
          "duration": 0.07319812500003309,
          "durationTicks": 52,
          "midi": 31,
          "name": "G1",
          "ticks": 131904,
          "time": 185.67549,
          "velocity": 0.7007874015748031
        },
        {
          "duration": 0.14076562500000023,
          "durationTicks": 100,
          "midi": 35,
          "name": "B1",
          "ticks": 132096,
          "time": 185.94576,
          "velocity": 0.8110236220472441
        },
        {
          "duration": 0.24774749999997425,
          "durationTicks": 176,
          "midi": 35,
          "name": "B1",
          "ticks": 132288,
          "time": 186.21603000000002,
          "velocity": 0.8661417322834646
        },
        {
          "duration": 0.5602471874999821,
          "durationTicks": 398,
          "midi": 33,
          "name": "A1",
          "ticks": 132672,
          "time": 186.75657,
          "velocity": 0.8110236220472441
        },
        {
          "duration": 0.09853593750003142,
          "durationTicks": 70,
          "midi": 33,
          "name": "A1",
          "ticks": 133440,
          "time": 187.83765,
          "velocity": 0.8503937007874016
        },
        {
          "duration": 0.2083331250000242,
          "durationTicks": 148,
          "midi": 38,
          "name": "D2",
          "ticks": 133632,
          "time": 188.10792,
          "velocity": 0.8818897637795275
        },
        {
          "duration": 0.19988718750002477,
          "durationTicks": 142,
          "midi": 38,
          "name": "D2",
          "ticks": 134016,
          "time": 188.64846,
          "velocity": 0.9291338582677166
        },
        {
          "duration": 0.11542781250000189,
          "durationTicks": 82,
          "midi": 31,
          "name": "G1",
          "ticks": 134400,
          "time": 189.18900000000002,
          "velocity": 0.8818897637795275
        },
        {
          "duration": 0.19144125000002532,
          "durationTicks": 136,
          "midi": 31,
          "name": "G1",
          "ticks": 134592,
          "time": 189.45927,
          "velocity": 0.8661417322834646
        },
        {
          "duration": 0.08727468750001321,
          "durationTicks": 62,
          "midi": 31,
          "name": "G1",
          "ticks": 134976,
          "time": 189.99981,
          "velocity": 0.8267716535433071
        },
        {
          "duration": 0.12950437499998202,
          "durationTicks": 92,
          "midi": 35,
          "name": "B1",
          "ticks": 135168,
          "time": 190.27008,
          "velocity": 0.8818897637795275
        },
        {
          "duration": 0.15484218749998035,
          "durationTicks": 110,
          "midi": 35,
          "name": "B1",
          "ticks": 135360,
          "time": 190.54035000000002,
          "velocity": 0.8661417322834646
        },
        {
          "duration": 0.30968437500001755,
          "durationTicks": 220,
          "midi": 33,
          "name": "A1",
          "ticks": 135744,
          "time": 191.08089,
          "velocity": 0.8503937007874016
        },
        {
          "duration": 0.09853593750003142,
          "durationTicks": 70,
          "midi": 33,
          "name": "A1",
          "ticks": 136512,
          "time": 192.16197,
          "velocity": 0.7637795275590551
        },
        {
          "duration": 0.30405375000000845,
          "durationTicks": 216,
          "midi": 38,
          "name": "D2",
          "ticks": 136704,
          "time": 192.43224,
          "velocity": 0.8818897637795275
        },
        {
          "duration": 0.21114843750001455,
          "durationTicks": 150,
          "midi": 38,
          "name": "D2",
          "ticks": 137088,
          "time": 192.97278,
          "velocity": 0.8661417322834646
        },
        {
          "duration": 0.11261249999998313,
          "durationTicks": 80,
          "midi": 31,
          "name": "G1",
          "ticks": 137472,
          "time": 193.51332000000002,
          "velocity": 0.8503937007874016
        },
        {
          "duration": 0.14358093749999057,
          "durationTicks": 102,
          "midi": 31,
          "name": "G1",
          "ticks": 137664,
          "time": 193.78359,
          "velocity": 0.8661417322834646
        },
        {
          "duration": 0.08727468750001321,
          "durationTicks": 62,
          "midi": 31,
          "name": "G1",
          "ticks": 138048,
          "time": 194.32413,
          "velocity": 0.7086614173228346
        },
        {
          "duration": 0.11261249999998313,
          "durationTicks": 80,
          "midi": 35,
          "name": "B1",
          "ticks": 138240,
          "time": 194.5944,
          "velocity": 0.8661417322834646
        },
        {
          "duration": 0.22240968749997592,
          "durationTicks": 158,
          "midi": 35,
          "name": "B1",
          "ticks": 138432,
          "time": 194.86467000000002,
          "velocity": 0.8503937007874016
        },
        {
          "duration": 0.546170625000002,
          "durationTicks": 388,
          "midi": 33,
          "name": "A1",
          "ticks": 138816,
          "time": 195.40521,
          "velocity": 0.8503937007874016
        },
        {
          "duration": 0.318130312500017,
          "durationTicks": 226,
          "midi": 38,
          "name": "D2",
          "ticks": 139776,
          "time": 196.75656,
          "velocity": 0.8110236220472441
        },
        {
          "duration": 0.2364862500000129,
          "durationTicks": 168,
          "midi": 38,
          "name": "D2",
          "ticks": 140160,
          "time": 197.2971,
          "velocity": 0.8818897637795275
        },
        {
          "duration": 0.11542781250000189,
          "durationTicks": 82,
          "midi": 31,
          "name": "G1",
          "ticks": 140544,
          "time": 197.83764000000002,
          "velocity": 0.8661417322834646
        },
        {
          "duration": 0.16047281249998946,
          "durationTicks": 114,
          "midi": 31,
          "name": "G1",
          "ticks": 140736,
          "time": 198.10791,
          "velocity": 0.8503937007874016
        },
        {
          "duration": 0.07319812500003309,
          "durationTicks": 52,
          "midi": 31,
          "name": "G1",
          "ticks": 141120,
          "time": 198.64845,
          "velocity": 0.7559055118110236
        },
        {
          "duration": 0.12668906249999168,
          "durationTicks": 90,
          "midi": 35,
          "name": "B1",
          "ticks": 141312,
          "time": 198.91872,
          "velocity": 0.8661417322834646
        },
        {
          "duration": 0.19425656249998724,
          "durationTicks": 138,
          "midi": 35,
          "name": "B1",
          "ticks": 141504,
          "time": 199.18899000000002,
          "velocity": 0.7795275590551181
        },
        {
          "duration": 0.6925668749999829,
          "durationTicks": 492,
          "midi": 33,
          "name": "A1",
          "ticks": 141888,
          "time": 199.72953,
          "velocity": 0.8267716535433071
        },
        {
          "duration": 0.08727468750001321,
          "durationTicks": 62,
          "midi": 33,
          "name": "A1",
          "ticks": 142656,
          "time": 200.81061,
          "velocity": 0.8503937007874016
        },
        {
          "duration": 0.27027000000001067,
          "durationTicks": 192,
          "midi": 38,
          "name": "D2",
          "ticks": 142848,
          "time": 201.08088,
          "velocity": 0.905511811023622
        },
        {
          "duration": 0.18581062500001622,
          "durationTicks": 132,
          "midi": 38,
          "name": "D2",
          "ticks": 143232,
          "time": 201.62142,
          "velocity": 0.8818897637795275
        },
        {
          "duration": 0.11542781250000189,
          "durationTicks": 82,
          "midi": 31,
          "name": "G1",
          "ticks": 143616,
          "time": 202.16196000000002,
          "velocity": 0.8503937007874016
        },
        {
          "duration": 0.17736468750001677,
          "durationTicks": 126,
          "midi": 31,
          "name": "G1",
          "ticks": 143808,
          "time": 202.43223,
          "velocity": 0.8818897637795275
        },
        {
          "duration": 0.07319812500003309,
          "durationTicks": 52,
          "midi": 31,
          "name": "G1",
          "ticks": 144192,
          "time": 202.97277,
          "velocity": 0.7007874015748031
        },
        {
          "duration": 0.14076562500000023,
          "durationTicks": 100,
          "midi": 35,
          "name": "B1",
          "ticks": 144384,
          "time": 203.24304,
          "velocity": 0.8110236220472441
        },
        {
          "duration": 0.24774749999997425,
          "durationTicks": 176,
          "midi": 35,
          "name": "B1",
          "ticks": 144576,
          "time": 203.51331000000002,
          "velocity": 0.8661417322834646
        },
        {
          "duration": 0.5602471874999821,
          "durationTicks": 398,
          "midi": 33,
          "name": "A1",
          "ticks": 144960,
          "time": 204.05385,
          "velocity": 0.8110236220472441
        },
        {
          "duration": 0.09853593750003142,
          "durationTicks": 70,
          "midi": 33,
          "name": "A1",
          "ticks": 145728,
          "time": 205.13493,
          "velocity": 0.8503937007874016
        },
        {
          "duration": 0.2083331250000242,
          "durationTicks": 148,
          "midi": 38,
          "name": "D2",
          "ticks": 145920,
          "time": 205.4052,
          "velocity": 0.8818897637795275
        },
        {
          "duration": 0.19988718750002477,
          "durationTicks": 142,
          "midi": 38,
          "name": "D2",
          "ticks": 146304,
          "time": 205.94574,
          "velocity": 0.9291338582677166
        },
        {
          "duration": 0.11542781250000189,
          "durationTicks": 82,
          "midi": 31,
          "name": "G1",
          "ticks": 146688,
          "time": 206.48628000000002,
          "velocity": 0.8818897637795275
        },
        {
          "duration": 0.19144125000002532,
          "durationTicks": 136,
          "midi": 31,
          "name": "G1",
          "ticks": 146880,
          "time": 206.75655,
          "velocity": 0.8661417322834646
        },
        {
          "duration": 0.08727468750001321,
          "durationTicks": 62,
          "midi": 31,
          "name": "G1",
          "ticks": 147264,
          "time": 207.29709,
          "velocity": 0.8267716535433071
        },
        {
          "duration": 0.12950437499998202,
          "durationTicks": 92,
          "midi": 35,
          "name": "B1",
          "ticks": 147456,
          "time": 207.56736,
          "velocity": 0.8818897637795275
        },
        {
          "duration": 0.15484218749998035,
          "durationTicks": 110,
          "midi": 35,
          "name": "B1",
          "ticks": 147648,
          "time": 207.83763000000002,
          "velocity": 0.8661417322834646
        },
        {
          "duration": 0.30968437500001755,
          "durationTicks": 220,
          "midi": 33,
          "name": "A1",
          "ticks": 148032,
          "time": 208.37817,
          "velocity": 0.8503937007874016
        },
        {
          "duration": 0.09853593750003142,
          "durationTicks": 70,
          "midi": 33,
          "name": "A1",
          "ticks": 148800,
          "time": 209.45925,
          "velocity": 0.7637795275590551
        },
        {
          "duration": 0.30405375000000845,
          "durationTicks": 216,
          "midi": 38,
          "name": "D2",
          "ticks": 148992,
          "time": 209.72952,
          "velocity": 0.8818897637795275
        },
        {
          "duration": 0.21114843750001455,
          "durationTicks": 150,
          "midi": 38,
          "name": "D2",
          "ticks": 149376,
          "time": 210.27006,
          "velocity": 0.8661417322834646
        },
        {
          "duration": 0.11261249999998313,
          "durationTicks": 80,
          "midi": 31,
          "name": "G1",
          "ticks": 149760,
          "time": 210.81060000000002,
          "velocity": 0.8503937007874016
        },
        {
          "duration": 0.14358093749999057,
          "durationTicks": 102,
          "midi": 31,
          "name": "G1",
          "ticks": 149952,
          "time": 211.08087,
          "velocity": 0.8661417322834646
        },
        {
          "duration": 0.08727468750001321,
          "durationTicks": 62,
          "midi": 31,
          "name": "G1",
          "ticks": 150336,
          "time": 211.62141,
          "velocity": 0.7086614173228346
        },
        {
          "duration": 0.11261249999998313,
          "durationTicks": 80,
          "midi": 35,
          "name": "B1",
          "ticks": 150528,
          "time": 211.89168,
          "velocity": 0.8661417322834646
        },
        {
          "duration": 0.22240968749997592,
          "durationTicks": 158,
          "midi": 35,
          "name": "B1",
          "ticks": 150720,
          "time": 212.16195000000002,
          "velocity": 0.8503937007874016
        },
        {
          "duration": 0.2027025000000151,
          "durationTicks": 144,
          "midi": 33,
          "name": "A1",
          "ticks": 150912,
          "time": 212.43222,
          "velocity": 0.8503937007874016
        },
        {
          "duration": 0.22522499999999468,
          "durationTicks": 160,
          "midi": 38,
          "name": "D2",
          "ticks": 151104,
          "time": 212.70249,
          "velocity": 0.8188976377952756
        }
      ]
    },
    {
      "channel": 6,
      "controlChanges": {},
      "pitchBends": [],
      "instrument": {
        "family": "piano",
        "name": "acoustic grand piano",
        "number": 0
      },
      "name": "Pizzicato",
      "notes": [
        {
          "duration": 0.05630624999999956,
          "durationTicks": 40,
          "midi": 74,
          "name": "D5",
          "ticks": 5184,
          "time": 7.29729,
          "velocity": 0.6456692913385826
        },
        {
          "duration": 0.05630624999999956,
          "durationTicks": 40,
          "midi": 62,
          "name": "D4",
          "ticks": 5184,
          "time": 7.29729,
          "velocity": 0.6456692913385826
        },
        {
          "duration": 0.06475218749999989,
          "durationTicks": 46,
          "midi": 74,
          "name": "D5",
          "ticks": 5376,
          "time": 7.56756,
          "velocity": 0.6692913385826772
        },
        {
          "duration": 0.06475218749999989,
          "durationTicks": 46,
          "midi": 62,
          "name": "D4",
          "ticks": 5376,
          "time": 7.56756,
          "velocity": 0.6692913385826772
        },
        {
          "duration": 0.06475218749999989,
          "durationTicks": 46,
          "midi": 74,
          "name": "D5",
          "ticks": 5472,
          "time": 7.702695,
          "velocity": 0.6456692913385826
        },
        {
          "duration": 0.06475218749999989,
          "durationTicks": 46,
          "midi": 62,
          "name": "D4",
          "ticks": 5472,
          "time": 7.702695,
          "velocity": 0.6456692913385826
        },
        {
          "duration": 0.06475218749999989,
          "durationTicks": 46,
          "midi": 74,
          "name": "D5",
          "ticks": 5664,
          "time": 7.972965,
          "velocity": 0.6456692913385826
        },
        {
          "duration": 0.06475218749999989,
          "durationTicks": 46,
          "midi": 62,
          "name": "D4",
          "ticks": 5664,
          "time": 7.972965,
          "velocity": 0.6456692913385826
        },
        {
          "duration": 0.056306250000000446,
          "durationTicks": 40,
          "midi": 74,
          "name": "D5",
          "ticks": 6720,
          "time": 9.45945,
          "velocity": 0.6456692913385826
        },
        {
          "duration": 0.056306250000000446,
          "durationTicks": 40,
          "midi": 62,
          "name": "D4",
          "ticks": 6720,
          "time": 9.45945,
          "velocity": 0.6456692913385826
        },
        {
          "duration": 0.06475218749999989,
          "durationTicks": 46,
          "midi": 74,
          "name": "D5",
          "ticks": 6912,
          "time": 9.72972,
          "velocity": 0.6692913385826772
        },
        {
          "duration": 0.06475218749999989,
          "durationTicks": 46,
          "midi": 62,
          "name": "D4",
          "ticks": 6912,
          "time": 9.72972,
          "velocity": 0.6692913385826772
        },
        {
          "duration": 0.06475218749999989,
          "durationTicks": 46,
          "midi": 74,
          "name": "D5",
          "ticks": 7008,
          "time": 9.864855,
          "velocity": 0.6456692913385826
        },
        {
          "duration": 0.06475218749999989,
          "durationTicks": 46,
          "midi": 62,
          "name": "D4",
          "ticks": 7008,
          "time": 9.864855,
          "velocity": 0.6456692913385826
        },
        {
          "duration": 0.06475218749999989,
          "durationTicks": 46,
          "midi": 74,
          "name": "D5",
          "ticks": 7200,
          "time": 10.135125,
          "velocity": 0.6456692913385826
        },
        {
          "duration": 0.06475218749999989,
          "durationTicks": 46,
          "midi": 62,
          "name": "D4",
          "ticks": 7200,
          "time": 10.135125,
          "velocity": 0.6456692913385826
        },
        {
          "duration": 0.056306250000000446,
          "durationTicks": 40,
          "midi": 74,
          "name": "D5",
          "ticks": 8256,
          "time": 11.62161,
          "velocity": 0.6456692913385826
        },
        {
          "duration": 0.056306250000000446,
          "durationTicks": 40,
          "midi": 62,
          "name": "D4",
          "ticks": 8256,
          "time": 11.62161,
          "velocity": 0.6456692913385826
        },
        {
          "duration": 0.06475218749999989,
          "durationTicks": 46,
          "midi": 74,
          "name": "D5",
          "ticks": 8448,
          "time": 11.89188,
          "velocity": 0.6692913385826772
        },
        {
          "duration": 0.06475218749999989,
          "durationTicks": 46,
          "midi": 62,
          "name": "D4",
          "ticks": 8448,
          "time": 11.89188,
          "velocity": 0.6692913385826772
        },
        {
          "duration": 0.06475218749999989,
          "durationTicks": 46,
          "midi": 74,
          "name": "D5",
          "ticks": 8544,
          "time": 12.027015,
          "velocity": 0.6456692913385826
        },
        {
          "duration": 0.06475218749999989,
          "durationTicks": 46,
          "midi": 62,
          "name": "D4",
          "ticks": 8544,
          "time": 12.027015,
          "velocity": 0.6456692913385826
        },
        {
          "duration": 0.06475218749999989,
          "durationTicks": 46,
          "midi": 74,
          "name": "D5",
          "ticks": 8736,
          "time": 12.297285,
          "velocity": 0.6456692913385826
        },
        {
          "duration": 0.06475218749999989,
          "durationTicks": 46,
          "midi": 62,
          "name": "D4",
          "ticks": 8736,
          "time": 12.297285,
          "velocity": 0.6456692913385826
        },
        {
          "duration": 0.056306250000000446,
          "durationTicks": 40,
          "midi": 74,
          "name": "D5",
          "ticks": 9792,
          "time": 13.78377,
          "velocity": 0.6456692913385826
        },
        {
          "duration": 0.056306250000000446,
          "durationTicks": 40,
          "midi": 62,
          "name": "D4",
          "ticks": 9792,
          "time": 13.78377,
          "velocity": 0.6456692913385826
        },
        {
          "duration": 0.06475218749999989,
          "durationTicks": 46,
          "midi": 74,
          "name": "D5",
          "ticks": 9984,
          "time": 14.05404,
          "velocity": 0.6692913385826772
        },
        {
          "duration": 0.06475218749999989,
          "durationTicks": 46,
          "midi": 62,
          "name": "D4",
          "ticks": 9984,
          "time": 14.05404,
          "velocity": 0.6692913385826772
        },
        {
          "duration": 0.06475218749999989,
          "durationTicks": 46,
          "midi": 74,
          "name": "D5",
          "ticks": 10080,
          "time": 14.189175,
          "velocity": 0.6456692913385826
        },
        {
          "duration": 0.06475218749999989,
          "durationTicks": 46,
          "midi": 62,
          "name": "D4",
          "ticks": 10080,
          "time": 14.189175,
          "velocity": 0.6456692913385826
        },
        {
          "duration": 0.06475218749999989,
          "durationTicks": 46,
          "midi": 74,
          "name": "D5",
          "ticks": 10272,
          "time": 14.459445,
          "velocity": 0.6456692913385826
        },
        {
          "duration": 0.06475218749999989,
          "durationTicks": 46,
          "midi": 62,
          "name": "D4",
          "ticks": 10272,
          "time": 14.459445,
          "velocity": 0.6456692913385826
        },
        {
          "duration": 0.05630625000000222,
          "durationTicks": 40,
          "midi": 74,
          "name": "D5",
          "ticks": 11328,
          "time": 15.94593,
          "velocity": 0.6456692913385826
        },
        {
          "duration": 0.05630625000000222,
          "durationTicks": 40,
          "midi": 62,
          "name": "D4",
          "ticks": 11328,
          "time": 15.94593,
          "velocity": 0.6456692913385826
        },
        {
          "duration": 0.06475218750000167,
          "durationTicks": 46,
          "midi": 74,
          "name": "D5",
          "ticks": 11520,
          "time": 16.2162,
          "velocity": 0.6692913385826772
        },
        {
          "duration": 0.06475218750000167,
          "durationTicks": 46,
          "midi": 62,
          "name": "D4",
          "ticks": 11520,
          "time": 16.2162,
          "velocity": 0.6692913385826772
        },
        {
          "duration": 0.06475218750000167,
          "durationTicks": 46,
          "midi": 74,
          "name": "D5",
          "ticks": 11616,
          "time": 16.351335,
          "velocity": 0.6456692913385826
        },
        {
          "duration": 0.06475218750000167,
          "durationTicks": 46,
          "midi": 62,
          "name": "D4",
          "ticks": 11616,
          "time": 16.351335,
          "velocity": 0.6456692913385826
        },
        {
          "duration": 0.06475218749999812,
          "durationTicks": 46,
          "midi": 74,
          "name": "D5",
          "ticks": 11808,
          "time": 16.621605000000002,
          "velocity": 0.6456692913385826
        },
        {
          "duration": 0.06475218749999812,
          "durationTicks": 46,
          "midi": 62,
          "name": "D4",
          "ticks": 11808,
          "time": 16.621605000000002,
          "velocity": 0.6456692913385826
        },
        {
          "duration": 0.05630624999999867,
          "durationTicks": 40,
          "midi": 74,
          "name": "D5",
          "ticks": 12864,
          "time": 18.10809,
          "velocity": 0.6456692913385826
        },
        {
          "duration": 0.05630624999999867,
          "durationTicks": 40,
          "midi": 62,
          "name": "D4",
          "ticks": 12864,
          "time": 18.10809,
          "velocity": 0.6456692913385826
        },
        {
          "duration": 0.06475218749999812,
          "durationTicks": 46,
          "midi": 74,
          "name": "D5",
          "ticks": 13056,
          "time": 18.37836,
          "velocity": 0.6692913385826772
        },
        {
          "duration": 0.06475218749999812,
          "durationTicks": 46,
          "midi": 62,
          "name": "D4",
          "ticks": 13056,
          "time": 18.37836,
          "velocity": 0.6692913385826772
        },
        {
          "duration": 0.06475218750000167,
          "durationTicks": 46,
          "midi": 74,
          "name": "D5",
          "ticks": 13152,
          "time": 18.513495,
          "velocity": 0.6456692913385826
        },
        {
          "duration": 0.06475218750000167,
          "durationTicks": 46,
          "midi": 62,
          "name": "D4",
          "ticks": 13152,
          "time": 18.513495,
          "velocity": 0.6456692913385826
        },
        {
          "duration": 0.06475218749999812,
          "durationTicks": 46,
          "midi": 74,
          "name": "D5",
          "ticks": 13344,
          "time": 18.783765000000002,
          "velocity": 0.6456692913385826
        },
        {
          "duration": 0.06475218749999812,
          "durationTicks": 46,
          "midi": 62,
          "name": "D4",
          "ticks": 13344,
          "time": 18.783765000000002,
          "velocity": 0.6456692913385826
        },
        {
          "duration": 0.05630624999999867,
          "durationTicks": 40,
          "midi": 74,
          "name": "D5",
          "ticks": 14400,
          "time": 20.27025,
          "velocity": 0.6456692913385826
        },
        {
          "duration": 0.05630624999999867,
          "durationTicks": 40,
          "midi": 62,
          "name": "D4",
          "ticks": 14400,
          "time": 20.27025,
          "velocity": 0.6456692913385826
        },
        {
          "duration": 0.06475218749999812,
          "durationTicks": 46,
          "midi": 74,
          "name": "D5",
          "ticks": 14592,
          "time": 20.54052,
          "velocity": 0.6692913385826772
        },
        {
          "duration": 0.06475218749999812,
          "durationTicks": 46,
          "midi": 62,
          "name": "D4",
          "ticks": 14592,
          "time": 20.54052,
          "velocity": 0.6692913385826772
        },
        {
          "duration": 0.06475218750000167,
          "durationTicks": 46,
          "midi": 74,
          "name": "D5",
          "ticks": 14688,
          "time": 20.675655,
          "velocity": 0.6456692913385826
        },
        {
          "duration": 0.06475218750000167,
          "durationTicks": 46,
          "midi": 62,
          "name": "D4",
          "ticks": 14688,
          "time": 20.675655,
          "velocity": 0.6456692913385826
        },
        {
          "duration": 0.06475218749999812,
          "durationTicks": 46,
          "midi": 74,
          "name": "D5",
          "ticks": 14880,
          "time": 20.945925000000003,
          "velocity": 0.6456692913385826
        },
        {
          "duration": 0.06475218749999812,
          "durationTicks": 46,
          "midi": 62,
          "name": "D4",
          "ticks": 14880,
          "time": 20.945925000000003,
          "velocity": 0.6456692913385826
        },
        {
          "duration": 0.05630624999999867,
          "durationTicks": 40,
          "midi": 74,
          "name": "D5",
          "ticks": 15936,
          "time": 22.43241,
          "velocity": 0.6456692913385826
        },
        {
          "duration": 0.05630624999999867,
          "durationTicks": 40,
          "midi": 62,
          "name": "D4",
          "ticks": 15936,
          "time": 22.43241,
          "velocity": 0.6456692913385826
        },
        {
          "duration": 0.06475218749999812,
          "durationTicks": 46,
          "midi": 74,
          "name": "D5",
          "ticks": 16128,
          "time": 22.70268,
          "velocity": 0.6692913385826772
        },
        {
          "duration": 0.06475218749999812,
          "durationTicks": 46,
          "midi": 62,
          "name": "D4",
          "ticks": 16128,
          "time": 22.70268,
          "velocity": 0.6692913385826772
        },
        {
          "duration": 0.06475218750000167,
          "durationTicks": 46,
          "midi": 74,
          "name": "D5",
          "ticks": 16224,
          "time": 22.837815,
          "velocity": 0.6456692913385826
        },
        {
          "duration": 0.06475218750000167,
          "durationTicks": 46,
          "midi": 62,
          "name": "D4",
          "ticks": 16224,
          "time": 22.837815,
          "velocity": 0.6456692913385826
        },
        {
          "duration": 0.06475218749999812,
          "durationTicks": 46,
          "midi": 74,
          "name": "D5",
          "ticks": 16416,
          "time": 23.108085000000003,
          "velocity": 0.6456692913385826
        },
        {
          "duration": 0.06475218749999812,
          "durationTicks": 46,
          "midi": 62,
          "name": "D4",
          "ticks": 16416,
          "time": 23.108085000000003,
          "velocity": 0.6456692913385826
        },
        {
          "duration": 0.05630624999999867,
          "durationTicks": 40,
          "midi": 74,
          "name": "D5",
          "ticks": 17472,
          "time": 24.59457,
          "velocity": 0.6456692913385826
        },
        {
          "duration": 0.05630624999999867,
          "durationTicks": 40,
          "midi": 62,
          "name": "D4",
          "ticks": 17472,
          "time": 24.59457,
          "velocity": 0.6456692913385826
        },
        {
          "duration": 0.06475218749999812,
          "durationTicks": 46,
          "midi": 74,
          "name": "D5",
          "ticks": 17664,
          "time": 24.86484,
          "velocity": 0.6692913385826772
        },
        {
          "duration": 0.06475218749999812,
          "durationTicks": 46,
          "midi": 62,
          "name": "D4",
          "ticks": 17664,
          "time": 24.86484,
          "velocity": 0.6692913385826772
        },
        {
          "duration": 0.06475218750000167,
          "durationTicks": 46,
          "midi": 74,
          "name": "D5",
          "ticks": 17760,
          "time": 24.999975,
          "velocity": 0.6456692913385826
        },
        {
          "duration": 0.06475218750000167,
          "durationTicks": 46,
          "midi": 62,
          "name": "D4",
          "ticks": 17760,
          "time": 24.999975,
          "velocity": 0.6456692913385826
        },
        {
          "duration": 0.06475218749999812,
          "durationTicks": 46,
          "midi": 74,
          "name": "D5",
          "ticks": 17952,
          "time": 25.270245000000003,
          "velocity": 0.6456692913385826
        },
        {
          "duration": 0.06475218749999812,
          "durationTicks": 46,
          "midi": 62,
          "name": "D4",
          "ticks": 17952,
          "time": 25.270245000000003,
          "velocity": 0.6456692913385826
        },
        {
          "duration": 0.05630624999999867,
          "durationTicks": 40,
          "midi": 74,
          "name": "D5",
          "ticks": 19008,
          "time": 26.75673,
          "velocity": 0.6456692913385826
        },
        {
          "duration": 0.05630624999999867,
          "durationTicks": 40,
          "midi": 62,
          "name": "D4",
          "ticks": 19008,
          "time": 26.75673,
          "velocity": 0.6456692913385826
        },
        {
          "duration": 0.06475218749999812,
          "durationTicks": 46,
          "midi": 74,
          "name": "D5",
          "ticks": 19200,
          "time": 27.027,
          "velocity": 0.6692913385826772
        },
        {
          "duration": 0.06475218749999812,
          "durationTicks": 46,
          "midi": 62,
          "name": "D4",
          "ticks": 19200,
          "time": 27.027,
          "velocity": 0.6692913385826772
        },
        {
          "duration": 0.06475218750000167,
          "durationTicks": 46,
          "midi": 74,
          "name": "D5",
          "ticks": 19296,
          "time": 27.162135,
          "velocity": 0.6456692913385826
        },
        {
          "duration": 0.06475218750000167,
          "durationTicks": 46,
          "midi": 62,
          "name": "D4",
          "ticks": 19296,
          "time": 27.162135,
          "velocity": 0.6456692913385826
        },
        {
          "duration": 0.06475218749999812,
          "durationTicks": 46,
          "midi": 74,
          "name": "D5",
          "ticks": 19488,
          "time": 27.432405000000003,
          "velocity": 0.6456692913385826
        },
        {
          "duration": 0.06475218749999812,
          "durationTicks": 46,
          "midi": 62,
          "name": "D4",
          "ticks": 19488,
          "time": 27.432405000000003,
          "velocity": 0.6456692913385826
        },
        {
          "duration": 0.05630624999999867,
          "durationTicks": 40,
          "midi": 74,
          "name": "D5",
          "ticks": 20544,
          "time": 28.91889,
          "velocity": 0.6456692913385826
        },
        {
          "duration": 0.05630624999999867,
          "durationTicks": 40,
          "midi": 62,
          "name": "D4",
          "ticks": 20544,
          "time": 28.91889,
          "velocity": 0.6456692913385826
        },
        {
          "duration": 0.06475218749999812,
          "durationTicks": 46,
          "midi": 74,
          "name": "D5",
          "ticks": 20736,
          "time": 29.18916,
          "velocity": 0.6692913385826772
        },
        {
          "duration": 0.06475218749999812,
          "durationTicks": 46,
          "midi": 62,
          "name": "D4",
          "ticks": 20736,
          "time": 29.18916,
          "velocity": 0.6692913385826772
        },
        {
          "duration": 0.06475218750000167,
          "durationTicks": 46,
          "midi": 74,
          "name": "D5",
          "ticks": 20832,
          "time": 29.324295,
          "velocity": 0.6456692913385826
        },
        {
          "duration": 0.06475218750000167,
          "durationTicks": 46,
          "midi": 62,
          "name": "D4",
          "ticks": 20832,
          "time": 29.324295,
          "velocity": 0.6456692913385826
        },
        {
          "duration": 0.06475218749999812,
          "durationTicks": 46,
          "midi": 74,
          "name": "D5",
          "ticks": 21024,
          "time": 29.594565000000003,
          "velocity": 0.6456692913385826
        },
        {
          "duration": 0.06475218749999812,
          "durationTicks": 46,
          "midi": 62,
          "name": "D4",
          "ticks": 21024,
          "time": 29.594565000000003,
          "velocity": 0.6456692913385826
        },
        {
          "duration": 0.05630624999999867,
          "durationTicks": 40,
          "midi": 74,
          "name": "D5",
          "ticks": 22080,
          "time": 31.08105,
          "velocity": 0.6456692913385826
        },
        {
          "duration": 0.05630624999999867,
          "durationTicks": 40,
          "midi": 62,
          "name": "D4",
          "ticks": 22080,
          "time": 31.08105,
          "velocity": 0.6456692913385826
        },
        {
          "duration": 0.06475218749999812,
          "durationTicks": 46,
          "midi": 74,
          "name": "D5",
          "ticks": 22272,
          "time": 31.35132,
          "velocity": 0.6692913385826772
        },
        {
          "duration": 0.06475218749999812,
          "durationTicks": 46,
          "midi": 62,
          "name": "D4",
          "ticks": 22272,
          "time": 31.35132,
          "velocity": 0.6692913385826772
        },
        {
          "duration": 0.06475218750000167,
          "durationTicks": 46,
          "midi": 74,
          "name": "D5",
          "ticks": 22368,
          "time": 31.486455,
          "velocity": 0.6456692913385826
        },
        {
          "duration": 0.06475218750000167,
          "durationTicks": 46,
          "midi": 62,
          "name": "D4",
          "ticks": 22368,
          "time": 31.486455,
          "velocity": 0.6456692913385826
        },
        {
          "duration": 0.06475218749999812,
          "durationTicks": 46,
          "midi": 74,
          "name": "D5",
          "ticks": 22560,
          "time": 31.756725000000003,
          "velocity": 0.6456692913385826
        },
        {
          "duration": 0.06475218749999812,
          "durationTicks": 46,
          "midi": 62,
          "name": "D4",
          "ticks": 22560,
          "time": 31.756725000000003,
          "velocity": 0.6456692913385826
        },
        {
          "duration": 0.05630624999999867,
          "durationTicks": 40,
          "midi": 74,
          "name": "D5",
          "ticks": 23616,
          "time": 33.243210000000005,
          "velocity": 0.6456692913385826
        },
        {
          "duration": 0.05630624999999867,
          "durationTicks": 40,
          "midi": 62,
          "name": "D4",
          "ticks": 23616,
          "time": 33.243210000000005,
          "velocity": 0.6456692913385826
        },
        {
          "duration": 0.06475218749999812,
          "durationTicks": 46,
          "midi": 74,
          "name": "D5",
          "ticks": 23808,
          "time": 33.51348,
          "velocity": 0.6692913385826772
        },
        {
          "duration": 0.06475218749999812,
          "durationTicks": 46,
          "midi": 62,
          "name": "D4",
          "ticks": 23808,
          "time": 33.51348,
          "velocity": 0.6692913385826772
        },
        {
          "duration": 0.06475218749999812,
          "durationTicks": 46,
          "midi": 74,
          "name": "D5",
          "ticks": 23904,
          "time": 33.648615,
          "velocity": 0.6456692913385826
        },
        {
          "duration": 0.06475218749999812,
          "durationTicks": 46,
          "midi": 62,
          "name": "D4",
          "ticks": 23904,
          "time": 33.648615,
          "velocity": 0.6456692913385826
        },
        {
          "duration": 0.06475218749999812,
          "durationTicks": 46,
          "midi": 74,
          "name": "D5",
          "ticks": 24096,
          "time": 33.918885,
          "velocity": 0.6456692913385826
        },
        {
          "duration": 0.06475218749999812,
          "durationTicks": 46,
          "midi": 62,
          "name": "D4",
          "ticks": 24096,
          "time": 33.918885,
          "velocity": 0.6456692913385826
        },
        {
          "duration": 0.05630624999999867,
          "durationTicks": 40,
          "midi": 74,
          "name": "D5",
          "ticks": 25152,
          "time": 35.405370000000005,
          "velocity": 0.6456692913385826
        },
        {
          "duration": 0.05630624999999867,
          "durationTicks": 40,
          "midi": 62,
          "name": "D4",
          "ticks": 25152,
          "time": 35.405370000000005,
          "velocity": 0.6456692913385826
        },
        {
          "duration": 0.06475218750000522,
          "durationTicks": 46,
          "midi": 74,
          "name": "D5",
          "ticks": 25344,
          "time": 35.67564,
          "velocity": 0.6692913385826772
        },
        {
          "duration": 0.06475218750000522,
          "durationTicks": 46,
          "midi": 62,
          "name": "D4",
          "ticks": 25344,
          "time": 35.67564,
          "velocity": 0.6692913385826772
        },
        {
          "duration": 0.06475218750000522,
          "durationTicks": 46,
          "midi": 74,
          "name": "D5",
          "ticks": 25440,
          "time": 35.810775,
          "velocity": 0.6456692913385826
        },
        {
          "duration": 0.06475218750000522,
          "durationTicks": 46,
          "midi": 62,
          "name": "D4",
          "ticks": 25440,
          "time": 35.810775,
          "velocity": 0.6456692913385826
        },
        {
          "duration": 0.06475218749999812,
          "durationTicks": 46,
          "midi": 74,
          "name": "D5",
          "ticks": 25632,
          "time": 36.081045,
          "velocity": 0.6456692913385826
        },
        {
          "duration": 0.06475218749999812,
          "durationTicks": 46,
          "midi": 62,
          "name": "D4",
          "ticks": 25632,
          "time": 36.081045,
          "velocity": 0.6456692913385826
        },
        {
          "duration": 0.05630624999999867,
          "durationTicks": 40,
          "midi": 74,
          "name": "D5",
          "ticks": 26688,
          "time": 37.567530000000005,
          "velocity": 0.6456692913385826
        },
        {
          "duration": 0.05630624999999867,
          "durationTicks": 40,
          "midi": 62,
          "name": "D4",
          "ticks": 26688,
          "time": 37.567530000000005,
          "velocity": 0.6456692913385826
        },
        {
          "duration": 0.06475218750000522,
          "durationTicks": 46,
          "midi": 74,
          "name": "D5",
          "ticks": 26880,
          "time": 37.8378,
          "velocity": 0.6692913385826772
        },
        {
          "duration": 0.06475218750000522,
          "durationTicks": 46,
          "midi": 62,
          "name": "D4",
          "ticks": 26880,
          "time": 37.8378,
          "velocity": 0.6692913385826772
        },
        {
          "duration": 0.06475218750000522,
          "durationTicks": 46,
          "midi": 74,
          "name": "D5",
          "ticks": 26976,
          "time": 37.972935,
          "velocity": 0.6456692913385826
        },
        {
          "duration": 0.06475218750000522,
          "durationTicks": 46,
          "midi": 62,
          "name": "D4",
          "ticks": 26976,
          "time": 37.972935,
          "velocity": 0.6456692913385826
        },
        {
          "duration": 0.06475218749999812,
          "durationTicks": 46,
          "midi": 74,
          "name": "D5",
          "ticks": 27168,
          "time": 38.243205,
          "velocity": 0.6456692913385826
        },
        {
          "duration": 0.06475218749999812,
          "durationTicks": 46,
          "midi": 62,
          "name": "D4",
          "ticks": 27168,
          "time": 38.243205,
          "velocity": 0.6456692913385826
        },
        {
          "duration": 0.05630624999999867,
          "durationTicks": 40,
          "midi": 74,
          "name": "D5",
          "ticks": 28224,
          "time": 39.729690000000005,
          "velocity": 0.6456692913385826
        },
        {
          "duration": 0.05630624999999867,
          "durationTicks": 40,
          "midi": 62,
          "name": "D4",
          "ticks": 28224,
          "time": 39.729690000000005,
          "velocity": 0.6456692913385826
        },
        {
          "duration": 0.06475218750000522,
          "durationTicks": 46,
          "midi": 74,
          "name": "D5",
          "ticks": 28416,
          "time": 39.99996,
          "velocity": 0.6692913385826772
        },
        {
          "duration": 0.06475218750000522,
          "durationTicks": 46,
          "midi": 62,
          "name": "D4",
          "ticks": 28416,
          "time": 39.99996,
          "velocity": 0.6692913385826772
        },
        {
          "duration": 0.06475218750000522,
          "durationTicks": 46,
          "midi": 74,
          "name": "D5",
          "ticks": 28512,
          "time": 40.135095,
          "velocity": 0.6456692913385826
        },
        {
          "duration": 0.06475218750000522,
          "durationTicks": 46,
          "midi": 62,
          "name": "D4",
          "ticks": 28512,
          "time": 40.135095,
          "velocity": 0.6456692913385826
        },
        {
          "duration": 0.06475218749999812,
          "durationTicks": 46,
          "midi": 74,
          "name": "D5",
          "ticks": 28704,
          "time": 40.405365,
          "velocity": 0.6456692913385826
        },
        {
          "duration": 0.06475218749999812,
          "durationTicks": 46,
          "midi": 62,
          "name": "D4",
          "ticks": 28704,
          "time": 40.405365,
          "velocity": 0.6456692913385826
        },
        {
          "duration": 0.05630624999999867,
          "durationTicks": 40,
          "midi": 74,
          "name": "D5",
          "ticks": 29760,
          "time": 41.891850000000005,
          "velocity": 0.6456692913385826
        },
        {
          "duration": 0.05630624999999867,
          "durationTicks": 40,
          "midi": 62,
          "name": "D4",
          "ticks": 29760,
          "time": 41.891850000000005,
          "velocity": 0.6456692913385826
        },
        {
          "duration": 0.06475218750000522,
          "durationTicks": 46,
          "midi": 74,
          "name": "D5",
          "ticks": 29952,
          "time": 42.16212,
          "velocity": 0.6692913385826772
        },
        {
          "duration": 0.06475218750000522,
          "durationTicks": 46,
          "midi": 62,
          "name": "D4",
          "ticks": 29952,
          "time": 42.16212,
          "velocity": 0.6692913385826772
        },
        {
          "duration": 0.06475218750000522,
          "durationTicks": 46,
          "midi": 74,
          "name": "D5",
          "ticks": 30048,
          "time": 42.297255,
          "velocity": 0.6456692913385826
        },
        {
          "duration": 0.06475218750000522,
          "durationTicks": 46,
          "midi": 62,
          "name": "D4",
          "ticks": 30048,
          "time": 42.297255,
          "velocity": 0.6456692913385826
        },
        {
          "duration": 0.06475218749999812,
          "durationTicks": 46,
          "midi": 74,
          "name": "D5",
          "ticks": 30240,
          "time": 42.567525,
          "velocity": 0.6456692913385826
        },
        {
          "duration": 0.06475218749999812,
          "durationTicks": 46,
          "midi": 62,
          "name": "D4",
          "ticks": 30240,
          "time": 42.567525,
          "velocity": 0.6456692913385826
        },
        {
          "duration": 0.05630624999999867,
          "durationTicks": 40,
          "midi": 74,
          "name": "D5",
          "ticks": 31296,
          "time": 44.054010000000005,
          "velocity": 0.6456692913385826
        },
        {
          "duration": 0.05630624999999867,
          "durationTicks": 40,
          "midi": 62,
          "name": "D4",
          "ticks": 31296,
          "time": 44.054010000000005,
          "velocity": 0.6456692913385826
        },
        {
          "duration": 0.06475218750000522,
          "durationTicks": 46,
          "midi": 74,
          "name": "D5",
          "ticks": 31488,
          "time": 44.32428,
          "velocity": 0.6692913385826772
        },
        {
          "duration": 0.06475218750000522,
          "durationTicks": 46,
          "midi": 62,
          "name": "D4",
          "ticks": 31488,
          "time": 44.32428,
          "velocity": 0.6692913385826772
        },
        {
          "duration": 0.06475218750000522,
          "durationTicks": 46,
          "midi": 74,
          "name": "D5",
          "ticks": 31584,
          "time": 44.459415,
          "velocity": 0.6456692913385826
        },
        {
          "duration": 0.06475218750000522,
          "durationTicks": 46,
          "midi": 62,
          "name": "D4",
          "ticks": 31584,
          "time": 44.459415,
          "velocity": 0.6456692913385826
        },
        {
          "duration": 0.06475218749999812,
          "durationTicks": 46,
          "midi": 74,
          "name": "D5",
          "ticks": 31776,
          "time": 44.729685,
          "velocity": 0.6456692913385826
        },
        {
          "duration": 0.06475218749999812,
          "durationTicks": 46,
          "midi": 62,
          "name": "D4",
          "ticks": 31776,
          "time": 44.729685,
          "velocity": 0.6456692913385826
        },
        {
          "duration": 0.05630624999999867,
          "durationTicks": 40,
          "midi": 74,
          "name": "D5",
          "ticks": 32832,
          "time": 46.216170000000005,
          "velocity": 0.6456692913385826
        },
        {
          "duration": 0.05630624999999867,
          "durationTicks": 40,
          "midi": 62,
          "name": "D4",
          "ticks": 32832,
          "time": 46.216170000000005,
          "velocity": 0.6456692913385826
        },
        {
          "duration": 0.06475218750000522,
          "durationTicks": 46,
          "midi": 74,
          "name": "D5",
          "ticks": 33024,
          "time": 46.48644,
          "velocity": 0.6692913385826772
        },
        {
          "duration": 0.06475218750000522,
          "durationTicks": 46,
          "midi": 62,
          "name": "D4",
          "ticks": 33024,
          "time": 46.48644,
          "velocity": 0.6692913385826772
        },
        {
          "duration": 0.06475218750000522,
          "durationTicks": 46,
          "midi": 74,
          "name": "D5",
          "ticks": 33120,
          "time": 46.621575,
          "velocity": 0.6456692913385826
        },
        {
          "duration": 0.06475218750000522,
          "durationTicks": 46,
          "midi": 62,
          "name": "D4",
          "ticks": 33120,
          "time": 46.621575,
          "velocity": 0.6456692913385826
        },
        {
          "duration": 0.06475218749999812,
          "durationTicks": 46,
          "midi": 74,
          "name": "D5",
          "ticks": 33312,
          "time": 46.891845,
          "velocity": 0.6456692913385826
        },
        {
          "duration": 0.06475218749999812,
          "durationTicks": 46,
          "midi": 62,
          "name": "D4",
          "ticks": 33312,
          "time": 46.891845,
          "velocity": 0.6456692913385826
        },
        {
          "duration": 0.05630624999999867,
          "durationTicks": 40,
          "midi": 74,
          "name": "D5",
          "ticks": 34368,
          "time": 48.378330000000005,
          "velocity": 0.6456692913385826
        },
        {
          "duration": 0.05630624999999867,
          "durationTicks": 40,
          "midi": 62,
          "name": "D4",
          "ticks": 34368,
          "time": 48.378330000000005,
          "velocity": 0.6456692913385826
        },
        {
          "duration": 0.06475218750000522,
          "durationTicks": 46,
          "midi": 74,
          "name": "D5",
          "ticks": 34560,
          "time": 48.6486,
          "velocity": 0.6692913385826772
        },
        {
          "duration": 0.06475218750000522,
          "durationTicks": 46,
          "midi": 62,
          "name": "D4",
          "ticks": 34560,
          "time": 48.6486,
          "velocity": 0.6692913385826772
        },
        {
          "duration": 0.06475218750000522,
          "durationTicks": 46,
          "midi": 74,
          "name": "D5",
          "ticks": 34656,
          "time": 48.783735,
          "velocity": 0.6456692913385826
        },
        {
          "duration": 0.06475218750000522,
          "durationTicks": 46,
          "midi": 62,
          "name": "D4",
          "ticks": 34656,
          "time": 48.783735,
          "velocity": 0.6456692913385826
        },
        {
          "duration": 0.06475218749999812,
          "durationTicks": 46,
          "midi": 74,
          "name": "D5",
          "ticks": 34848,
          "time": 49.054005000000004,
          "velocity": 0.6456692913385826
        },
        {
          "duration": 0.06475218749999812,
          "durationTicks": 46,
          "midi": 62,
          "name": "D4",
          "ticks": 34848,
          "time": 49.054005000000004,
          "velocity": 0.6456692913385826
        },
        {
          "duration": 0.05630624999999867,
          "durationTicks": 40,
          "midi": 74,
          "name": "D5",
          "ticks": 35904,
          "time": 50.540490000000005,
          "velocity": 0.6456692913385826
        },
        {
          "duration": 0.05630624999999867,
          "durationTicks": 40,
          "midi": 62,
          "name": "D4",
          "ticks": 35904,
          "time": 50.540490000000005,
          "velocity": 0.6456692913385826
        },
        {
          "duration": 0.06475218750000522,
          "durationTicks": 46,
          "midi": 74,
          "name": "D5",
          "ticks": 36096,
          "time": 50.81076,
          "velocity": 0.6692913385826772
        },
        {
          "duration": 0.06475218750000522,
          "durationTicks": 46,
          "midi": 62,
          "name": "D4",
          "ticks": 36096,
          "time": 50.81076,
          "velocity": 0.6692913385826772
        },
        {
          "duration": 0.06475218750000522,
          "durationTicks": 46,
          "midi": 74,
          "name": "D5",
          "ticks": 36192,
          "time": 50.945895,
          "velocity": 0.6456692913385826
        },
        {
          "duration": 0.06475218750000522,
          "durationTicks": 46,
          "midi": 62,
          "name": "D4",
          "ticks": 36192,
          "time": 50.945895,
          "velocity": 0.6456692913385826
        },
        {
          "duration": 0.06475218749999812,
          "durationTicks": 46,
          "midi": 74,
          "name": "D5",
          "ticks": 36384,
          "time": 51.216165000000004,
          "velocity": 0.6456692913385826
        },
        {
          "duration": 0.06475218749999812,
          "durationTicks": 46,
          "midi": 62,
          "name": "D4",
          "ticks": 36384,
          "time": 51.216165000000004,
          "velocity": 0.6456692913385826
        },
        {
          "duration": 0.05630624999999867,
          "durationTicks": 40,
          "midi": 74,
          "name": "D5",
          "ticks": 37440,
          "time": 52.702650000000006,
          "velocity": 0.6456692913385826
        },
        {
          "duration": 0.05630624999999867,
          "durationTicks": 40,
          "midi": 62,
          "name": "D4",
          "ticks": 37440,
          "time": 52.702650000000006,
          "velocity": 0.6456692913385826
        },
        {
          "duration": 0.06475218750000522,
          "durationTicks": 46,
          "midi": 74,
          "name": "D5",
          "ticks": 37632,
          "time": 52.97292,
          "velocity": 0.6692913385826772
        },
        {
          "duration": 0.06475218750000522,
          "durationTicks": 46,
          "midi": 62,
          "name": "D4",
          "ticks": 37632,
          "time": 52.97292,
          "velocity": 0.6692913385826772
        },
        {
          "duration": 0.06475218750000522,
          "durationTicks": 46,
          "midi": 74,
          "name": "D5",
          "ticks": 37728,
          "time": 53.108055,
          "velocity": 0.6456692913385826
        },
        {
          "duration": 0.06475218750000522,
          "durationTicks": 46,
          "midi": 62,
          "name": "D4",
          "ticks": 37728,
          "time": 53.108055,
          "velocity": 0.6456692913385826
        },
        {
          "duration": 0.06475218749999812,
          "durationTicks": 46,
          "midi": 74,
          "name": "D5",
          "ticks": 37920,
          "time": 53.378325000000004,
          "velocity": 0.6456692913385826
        },
        {
          "duration": 0.06475218749999812,
          "durationTicks": 46,
          "midi": 62,
          "name": "D4",
          "ticks": 37920,
          "time": 53.378325000000004,
          "velocity": 0.6456692913385826
        },
        {
          "duration": 0.05630624999999867,
          "durationTicks": 40,
          "midi": 74,
          "name": "D5",
          "ticks": 38976,
          "time": 54.864810000000006,
          "velocity": 0.6456692913385826
        },
        {
          "duration": 0.05630624999999867,
          "durationTicks": 40,
          "midi": 62,
          "name": "D4",
          "ticks": 38976,
          "time": 54.864810000000006,
          "velocity": 0.6456692913385826
        },
        {
          "duration": 0.06475218750000522,
          "durationTicks": 46,
          "midi": 74,
          "name": "D5",
          "ticks": 39168,
          "time": 55.13508,
          "velocity": 0.6692913385826772
        },
        {
          "duration": 0.06475218750000522,
          "durationTicks": 46,
          "midi": 62,
          "name": "D4",
          "ticks": 39168,
          "time": 55.13508,
          "velocity": 0.6692913385826772
        },
        {
          "duration": 0.06475218750000522,
          "durationTicks": 46,
          "midi": 74,
          "name": "D5",
          "ticks": 39264,
          "time": 55.270215,
          "velocity": 0.6456692913385826
        },
        {
          "duration": 0.06475218750000522,
          "durationTicks": 46,
          "midi": 62,
          "name": "D4",
          "ticks": 39264,
          "time": 55.270215,
          "velocity": 0.6456692913385826
        },
        {
          "duration": 0.06475218749999812,
          "durationTicks": 46,
          "midi": 74,
          "name": "D5",
          "ticks": 39456,
          "time": 55.540485000000004,
          "velocity": 0.6456692913385826
        },
        {
          "duration": 0.06475218749999812,
          "durationTicks": 46,
          "midi": 62,
          "name": "D4",
          "ticks": 39456,
          "time": 55.540485000000004,
          "velocity": 0.6456692913385826
        },
        {
          "duration": 0.05630624999999867,
          "durationTicks": 40,
          "midi": 74,
          "name": "D5",
          "ticks": 40512,
          "time": 57.026970000000006,
          "velocity": 0.6456692913385826
        },
        {
          "duration": 0.05630624999999867,
          "durationTicks": 40,
          "midi": 62,
          "name": "D4",
          "ticks": 40512,
          "time": 57.026970000000006,
          "velocity": 0.6456692913385826
        },
        {
          "duration": 0.06475218750000522,
          "durationTicks": 46,
          "midi": 74,
          "name": "D5",
          "ticks": 40704,
          "time": 57.29724,
          "velocity": 0.6692913385826772
        },
        {
          "duration": 0.06475218750000522,
          "durationTicks": 46,
          "midi": 62,
          "name": "D4",
          "ticks": 40704,
          "time": 57.29724,
          "velocity": 0.6692913385826772
        },
        {
          "duration": 0.06475218750000522,
          "durationTicks": 46,
          "midi": 74,
          "name": "D5",
          "ticks": 40800,
          "time": 57.432375,
          "velocity": 0.6456692913385826
        },
        {
          "duration": 0.06475218750000522,
          "durationTicks": 46,
          "midi": 62,
          "name": "D4",
          "ticks": 40800,
          "time": 57.432375,
          "velocity": 0.6456692913385826
        },
        {
          "duration": 0.06475218749999812,
          "durationTicks": 46,
          "midi": 74,
          "name": "D5",
          "ticks": 40992,
          "time": 57.702645000000004,
          "velocity": 0.6456692913385826
        },
        {
          "duration": 0.06475218749999812,
          "durationTicks": 46,
          "midi": 62,
          "name": "D4",
          "ticks": 40992,
          "time": 57.702645000000004,
          "velocity": 0.6456692913385826
        },
        {
          "duration": 0.05630624999999867,
          "durationTicks": 40,
          "midi": 74,
          "name": "D5",
          "ticks": 42048,
          "time": 59.189130000000006,
          "velocity": 0.6456692913385826
        },
        {
          "duration": 0.05630624999999867,
          "durationTicks": 40,
          "midi": 62,
          "name": "D4",
          "ticks": 42048,
          "time": 59.189130000000006,
          "velocity": 0.6456692913385826
        },
        {
          "duration": 0.06475218750000522,
          "durationTicks": 46,
          "midi": 74,
          "name": "D5",
          "ticks": 42240,
          "time": 59.4594,
          "velocity": 0.6692913385826772
        },
        {
          "duration": 0.06475218750000522,
          "durationTicks": 46,
          "midi": 62,
          "name": "D4",
          "ticks": 42240,
          "time": 59.4594,
          "velocity": 0.6692913385826772
        },
        {
          "duration": 0.06475218750000522,
          "durationTicks": 46,
          "midi": 74,
          "name": "D5",
          "ticks": 42336,
          "time": 59.594535,
          "velocity": 0.6456692913385826
        },
        {
          "duration": 0.06475218750000522,
          "durationTicks": 46,
          "midi": 62,
          "name": "D4",
          "ticks": 42336,
          "time": 59.594535,
          "velocity": 0.6456692913385826
        },
        {
          "duration": 0.06475218749999812,
          "durationTicks": 46,
          "midi": 74,
          "name": "D5",
          "ticks": 42528,
          "time": 59.864805000000004,
          "velocity": 0.6456692913385826
        },
        {
          "duration": 0.06475218749999812,
          "durationTicks": 46,
          "midi": 62,
          "name": "D4",
          "ticks": 42528,
          "time": 59.864805000000004,
          "velocity": 0.6456692913385826
        },
        {
          "duration": 0.05630624999999867,
          "durationTicks": 40,
          "midi": 74,
          "name": "D5",
          "ticks": 43584,
          "time": 61.351290000000006,
          "velocity": 0.6456692913385826
        },
        {
          "duration": 0.05630624999999867,
          "durationTicks": 40,
          "midi": 62,
          "name": "D4",
          "ticks": 43584,
          "time": 61.351290000000006,
          "velocity": 0.6456692913385826
        },
        {
          "duration": 0.06475218750000522,
          "durationTicks": 46,
          "midi": 74,
          "name": "D5",
          "ticks": 43776,
          "time": 61.62156,
          "velocity": 0.6692913385826772
        },
        {
          "duration": 0.06475218750000522,
          "durationTicks": 46,
          "midi": 62,
          "name": "D4",
          "ticks": 43776,
          "time": 61.62156,
          "velocity": 0.6692913385826772
        },
        {
          "duration": 0.06475218750000522,
          "durationTicks": 46,
          "midi": 74,
          "name": "D5",
          "ticks": 43872,
          "time": 61.756695,
          "velocity": 0.6456692913385826
        },
        {
          "duration": 0.06475218750000522,
          "durationTicks": 46,
          "midi": 62,
          "name": "D4",
          "ticks": 43872,
          "time": 61.756695,
          "velocity": 0.6456692913385826
        },
        {
          "duration": 0.06475218749999812,
          "durationTicks": 46,
          "midi": 74,
          "name": "D5",
          "ticks": 44064,
          "time": 62.026965000000004,
          "velocity": 0.6456692913385826
        },
        {
          "duration": 0.06475218749999812,
          "durationTicks": 46,
          "midi": 62,
          "name": "D4",
          "ticks": 44064,
          "time": 62.026965000000004,
          "velocity": 0.6456692913385826
        },
        {
          "duration": 0.05630624999999867,
          "durationTicks": 40,
          "midi": 74,
          "name": "D5",
          "ticks": 45120,
          "time": 63.513450000000006,
          "velocity": 0.6456692913385826
        },
        {
          "duration": 0.05630624999999867,
          "durationTicks": 40,
          "midi": 62,
          "name": "D4",
          "ticks": 45120,
          "time": 63.513450000000006,
          "velocity": 0.6456692913385826
        },
        {
          "duration": 0.06475218750000522,
          "durationTicks": 46,
          "midi": 74,
          "name": "D5",
          "ticks": 45312,
          "time": 63.78372,
          "velocity": 0.6692913385826772
        },
        {
          "duration": 0.06475218750000522,
          "durationTicks": 46,
          "midi": 62,
          "name": "D4",
          "ticks": 45312,
          "time": 63.78372,
          "velocity": 0.6692913385826772
        },
        {
          "duration": 0.06475218750000522,
          "durationTicks": 46,
          "midi": 74,
          "name": "D5",
          "ticks": 45408,
          "time": 63.918855,
          "velocity": 0.6456692913385826
        },
        {
          "duration": 0.06475218750000522,
          "durationTicks": 46,
          "midi": 62,
          "name": "D4",
          "ticks": 45408,
          "time": 63.918855,
          "velocity": 0.6456692913385826
        },
        {
          "duration": 0.06475218750000522,
          "durationTicks": 46,
          "midi": 74,
          "name": "D5",
          "ticks": 45600,
          "time": 64.189125,
          "velocity": 0.6456692913385826
        },
        {
          "duration": 0.06475218750000522,
          "durationTicks": 46,
          "midi": 62,
          "name": "D4",
          "ticks": 45600,
          "time": 64.189125,
          "velocity": 0.6456692913385826
        },
        {
          "duration": 0.056306250000005775,
          "durationTicks": 40,
          "midi": 74,
          "name": "D5",
          "ticks": 46656,
          "time": 65.67561,
          "velocity": 0.6456692913385826
        },
        {
          "duration": 0.056306250000005775,
          "durationTicks": 40,
          "midi": 62,
          "name": "D4",
          "ticks": 46656,
          "time": 65.67561,
          "velocity": 0.6456692913385826
        },
        {
          "duration": 0.06475218750000522,
          "durationTicks": 46,
          "midi": 74,
          "name": "D5",
          "ticks": 46848,
          "time": 65.94588,
          "velocity": 0.6692913385826772
        },
        {
          "duration": 0.06475218750000522,
          "durationTicks": 46,
          "midi": 62,
          "name": "D4",
          "ticks": 46848,
          "time": 65.94588,
          "velocity": 0.6692913385826772
        },
        {
          "duration": 0.06475218749999101,
          "durationTicks": 46,
          "midi": 74,
          "name": "D5",
          "ticks": 46944,
          "time": 66.08101500000001,
          "velocity": 0.6456692913385826
        },
        {
          "duration": 0.06475218749999101,
          "durationTicks": 46,
          "midi": 62,
          "name": "D4",
          "ticks": 46944,
          "time": 66.08101500000001,
          "velocity": 0.6456692913385826
        },
        {
          "duration": 0.06475218750000522,
          "durationTicks": 46,
          "midi": 74,
          "name": "D5",
          "ticks": 47136,
          "time": 66.351285,
          "velocity": 0.6456692913385826
        },
        {
          "duration": 0.06475218750000522,
          "durationTicks": 46,
          "midi": 62,
          "name": "D4",
          "ticks": 47136,
          "time": 66.351285,
          "velocity": 0.6456692913385826
        },
        {
          "duration": 0.056306250000005775,
          "durationTicks": 40,
          "midi": 74,
          "name": "D5",
          "ticks": 48192,
          "time": 67.83777,
          "velocity": 0.6456692913385826
        },
        {
          "duration": 0.056306250000005775,
          "durationTicks": 40,
          "midi": 62,
          "name": "D4",
          "ticks": 48192,
          "time": 67.83777,
          "velocity": 0.6456692913385826
        },
        {
          "duration": 0.06475218750000522,
          "durationTicks": 46,
          "midi": 74,
          "name": "D5",
          "ticks": 48384,
          "time": 68.10804,
          "velocity": 0.6692913385826772
        },
        {
          "duration": 0.06475218750000522,
          "durationTicks": 46,
          "midi": 62,
          "name": "D4",
          "ticks": 48384,
          "time": 68.10804,
          "velocity": 0.6692913385826772
        },
        {
          "duration": 0.06475218749999101,
          "durationTicks": 46,
          "midi": 74,
          "name": "D5",
          "ticks": 48480,
          "time": 68.24317500000001,
          "velocity": 0.6456692913385826
        },
        {
          "duration": 0.06475218749999101,
          "durationTicks": 46,
          "midi": 62,
          "name": "D4",
          "ticks": 48480,
          "time": 68.24317500000001,
          "velocity": 0.6456692913385826
        },
        {
          "duration": 0.06475218750000522,
          "durationTicks": 46,
          "midi": 74,
          "name": "D5",
          "ticks": 48672,
          "time": 68.513445,
          "velocity": 0.6456692913385826
        },
        {
          "duration": 0.06475218750000522,
          "durationTicks": 46,
          "midi": 62,
          "name": "D4",
          "ticks": 48672,
          "time": 68.513445,
          "velocity": 0.6456692913385826
        },
        {
          "duration": 0.056306249999991564,
          "durationTicks": 40,
          "midi": 74,
          "name": "D5",
          "ticks": 49728,
          "time": 69.99993,
          "velocity": 0.6456692913385826
        },
        {
          "duration": 0.056306249999991564,
          "durationTicks": 40,
          "midi": 62,
          "name": "D4",
          "ticks": 49728,
          "time": 69.99993,
          "velocity": 0.6456692913385826
        },
        {
          "duration": 0.06475218749999101,
          "durationTicks": 46,
          "midi": 74,
          "name": "D5",
          "ticks": 49920,
          "time": 70.2702,
          "velocity": 0.6692913385826772
        },
        {
          "duration": 0.06475218749999101,
          "durationTicks": 46,
          "midi": 62,
          "name": "D4",
          "ticks": 49920,
          "time": 70.2702,
          "velocity": 0.6692913385826772
        },
        {
          "duration": 0.06475218749999101,
          "durationTicks": 46,
          "midi": 74,
          "name": "D5",
          "ticks": 50016,
          "time": 70.40533500000001,
          "velocity": 0.6456692913385826
        },
        {
          "duration": 0.06475218749999101,
          "durationTicks": 46,
          "midi": 62,
          "name": "D4",
          "ticks": 50016,
          "time": 70.40533500000001,
          "velocity": 0.6456692913385826
        },
        {
          "duration": 0.06475218749999101,
          "durationTicks": 46,
          "midi": 74,
          "name": "D5",
          "ticks": 50208,
          "time": 70.675605,
          "velocity": 0.6456692913385826
        },
        {
          "duration": 0.06475218749999101,
          "durationTicks": 46,
          "midi": 62,
          "name": "D4",
          "ticks": 50208,
          "time": 70.675605,
          "velocity": 0.6456692913385826
        },
        {
          "duration": 0.056306249999991564,
          "durationTicks": 40,
          "midi": 74,
          "name": "D5",
          "ticks": 51264,
          "time": 72.16209,
          "velocity": 0.6456692913385826
        },
        {
          "duration": 0.056306249999991564,
          "durationTicks": 40,
          "midi": 62,
          "name": "D4",
          "ticks": 51264,
          "time": 72.16209,
          "velocity": 0.6456692913385826
        },
        {
          "duration": 0.06475218749999101,
          "durationTicks": 46,
          "midi": 74,
          "name": "D5",
          "ticks": 51456,
          "time": 72.43236,
          "velocity": 0.6692913385826772
        },
        {
          "duration": 0.06475218749999101,
          "durationTicks": 46,
          "midi": 62,
          "name": "D4",
          "ticks": 51456,
          "time": 72.43236,
          "velocity": 0.6692913385826772
        },
        {
          "duration": 0.06475218749999101,
          "durationTicks": 46,
          "midi": 74,
          "name": "D5",
          "ticks": 51552,
          "time": 72.56749500000001,
          "velocity": 0.6456692913385826
        },
        {
          "duration": 0.06475218749999101,
          "durationTicks": 46,
          "midi": 62,
          "name": "D4",
          "ticks": 51552,
          "time": 72.56749500000001,
          "velocity": 0.6456692913385826
        },
        {
          "duration": 0.06475218749999101,
          "durationTicks": 46,
          "midi": 74,
          "name": "D5",
          "ticks": 51744,
          "time": 72.837765,
          "velocity": 0.6456692913385826
        },
        {
          "duration": 0.06475218749999101,
          "durationTicks": 46,
          "midi": 62,
          "name": "D4",
          "ticks": 51744,
          "time": 72.837765,
          "velocity": 0.6456692913385826
        },
        {
          "duration": 0.056306249999991564,
          "durationTicks": 40,
          "midi": 74,
          "name": "D5",
          "ticks": 52800,
          "time": 74.32425,
          "velocity": 0.6456692913385826
        },
        {
          "duration": 0.056306249999991564,
          "durationTicks": 40,
          "midi": 62,
          "name": "D4",
          "ticks": 52800,
          "time": 74.32425,
          "velocity": 0.6456692913385826
        },
        {
          "duration": 0.06475218749999101,
          "durationTicks": 46,
          "midi": 74,
          "name": "D5",
          "ticks": 52992,
          "time": 74.59452,
          "velocity": 0.6692913385826772
        },
        {
          "duration": 0.06475218749999101,
          "durationTicks": 46,
          "midi": 62,
          "name": "D4",
          "ticks": 52992,
          "time": 74.59452,
          "velocity": 0.6692913385826772
        },
        {
          "duration": 0.06475218749999101,
          "durationTicks": 46,
          "midi": 74,
          "name": "D5",
          "ticks": 53088,
          "time": 74.72965500000001,
          "velocity": 0.6456692913385826
        },
        {
          "duration": 0.06475218749999101,
          "durationTicks": 46,
          "midi": 62,
          "name": "D4",
          "ticks": 53088,
          "time": 74.72965500000001,
          "velocity": 0.6456692913385826
        },
        {
          "duration": 0.06475218749999101,
          "durationTicks": 46,
          "midi": 74,
          "name": "D5",
          "ticks": 53280,
          "time": 74.999925,
          "velocity": 0.6456692913385826
        },
        {
          "duration": 0.06475218749999101,
          "durationTicks": 46,
          "midi": 62,
          "name": "D4",
          "ticks": 53280,
          "time": 74.999925,
          "velocity": 0.6456692913385826
        },
        {
          "duration": 0.056306249999991564,
          "durationTicks": 40,
          "midi": 74,
          "name": "D5",
          "ticks": 54336,
          "time": 76.48641,
          "velocity": 0.6456692913385826
        },
        {
          "duration": 0.056306249999991564,
          "durationTicks": 40,
          "midi": 62,
          "name": "D4",
          "ticks": 54336,
          "time": 76.48641,
          "velocity": 0.6456692913385826
        },
        {
          "duration": 0.06475218749999101,
          "durationTicks": 46,
          "midi": 74,
          "name": "D5",
          "ticks": 54528,
          "time": 76.75668,
          "velocity": 0.6692913385826772
        },
        {
          "duration": 0.06475218749999101,
          "durationTicks": 46,
          "midi": 62,
          "name": "D4",
          "ticks": 54528,
          "time": 76.75668,
          "velocity": 0.6692913385826772
        },
        {
          "duration": 0.06475218749999101,
          "durationTicks": 46,
          "midi": 74,
          "name": "D5",
          "ticks": 54624,
          "time": 76.89181500000001,
          "velocity": 0.6456692913385826
        },
        {
          "duration": 0.06475218749999101,
          "durationTicks": 46,
          "midi": 62,
          "name": "D4",
          "ticks": 54624,
          "time": 76.89181500000001,
          "velocity": 0.6456692913385826
        },
        {
          "duration": 0.06475218749999101,
          "durationTicks": 46,
          "midi": 74,
          "name": "D5",
          "ticks": 54816,
          "time": 77.162085,
          "velocity": 0.6456692913385826
        },
        {
          "duration": 0.06475218749999101,
          "durationTicks": 46,
          "midi": 62,
          "name": "D4",
          "ticks": 54816,
          "time": 77.162085,
          "velocity": 0.6456692913385826
        },
        {
          "duration": 0.056306249999991564,
          "durationTicks": 40,
          "midi": 74,
          "name": "D5",
          "ticks": 55872,
          "time": 78.64857,
          "velocity": 0.6456692913385826
        },
        {
          "duration": 0.056306249999991564,
          "durationTicks": 40,
          "midi": 62,
          "name": "D4",
          "ticks": 55872,
          "time": 78.64857,
          "velocity": 0.6456692913385826
        },
        {
          "duration": 0.06475218749999101,
          "durationTicks": 46,
          "midi": 74,
          "name": "D5",
          "ticks": 56064,
          "time": 78.91884,
          "velocity": 0.6692913385826772
        },
        {
          "duration": 0.06475218749999101,
          "durationTicks": 46,
          "midi": 62,
          "name": "D4",
          "ticks": 56064,
          "time": 78.91884,
          "velocity": 0.6692913385826772
        },
        {
          "duration": 0.06475218749999101,
          "durationTicks": 46,
          "midi": 74,
          "name": "D5",
          "ticks": 56160,
          "time": 79.05397500000001,
          "velocity": 0.6456692913385826
        },
        {
          "duration": 0.06475218749999101,
          "durationTicks": 46,
          "midi": 62,
          "name": "D4",
          "ticks": 56160,
          "time": 79.05397500000001,
          "velocity": 0.6456692913385826
        },
        {
          "duration": 0.06475218749999101,
          "durationTicks": 46,
          "midi": 74,
          "name": "D5",
          "ticks": 56352,
          "time": 79.324245,
          "velocity": 0.6456692913385826
        },
        {
          "duration": 0.06475218749999101,
          "durationTicks": 46,
          "midi": 62,
          "name": "D4",
          "ticks": 56352,
          "time": 79.324245,
          "velocity": 0.6456692913385826
        },
        {
          "duration": 0.056306249999991564,
          "durationTicks": 40,
          "midi": 74,
          "name": "D5",
          "ticks": 57408,
          "time": 80.81073,
          "velocity": 0.6456692913385826
        },
        {
          "duration": 0.056306249999991564,
          "durationTicks": 40,
          "midi": 62,
          "name": "D4",
          "ticks": 57408,
          "time": 80.81073,
          "velocity": 0.6456692913385826
        },
        {
          "duration": 0.06475218749999101,
          "durationTicks": 46,
          "midi": 74,
          "name": "D5",
          "ticks": 57600,
          "time": 81.081,
          "velocity": 0.6692913385826772
        },
        {
          "duration": 0.06475218749999101,
          "durationTicks": 46,
          "midi": 62,
          "name": "D4",
          "ticks": 57600,
          "time": 81.081,
          "velocity": 0.6692913385826772
        },
        {
          "duration": 0.06475218749999101,
          "durationTicks": 46,
          "midi": 74,
          "name": "D5",
          "ticks": 57696,
          "time": 81.21613500000001,
          "velocity": 0.6456692913385826
        },
        {
          "duration": 0.06475218749999101,
          "durationTicks": 46,
          "midi": 62,
          "name": "D4",
          "ticks": 57696,
          "time": 81.21613500000001,
          "velocity": 0.6456692913385826
        },
        {
          "duration": 0.06475218749999101,
          "durationTicks": 46,
          "midi": 74,
          "name": "D5",
          "ticks": 57888,
          "time": 81.486405,
          "velocity": 0.6456692913385826
        },
        {
          "duration": 0.06475218749999101,
          "durationTicks": 46,
          "midi": 62,
          "name": "D4",
          "ticks": 57888,
          "time": 81.486405,
          "velocity": 0.6456692913385826
        },
        {
          "duration": 0.056306249999991564,
          "durationTicks": 40,
          "midi": 74,
          "name": "D5",
          "ticks": 58944,
          "time": 82.97289,
          "velocity": 0.6456692913385826
        },
        {
          "duration": 0.056306249999991564,
          "durationTicks": 40,
          "midi": 62,
          "name": "D4",
          "ticks": 58944,
          "time": 82.97289,
          "velocity": 0.6456692913385826
        },
        {
          "duration": 0.06475218749999101,
          "durationTicks": 46,
          "midi": 74,
          "name": "D5",
          "ticks": 59136,
          "time": 83.24316,
          "velocity": 0.6692913385826772
        },
        {
          "duration": 0.06475218749999101,
          "durationTicks": 46,
          "midi": 62,
          "name": "D4",
          "ticks": 59136,
          "time": 83.24316,
          "velocity": 0.6692913385826772
        },
        {
          "duration": 0.06475218749999101,
          "durationTicks": 46,
          "midi": 74,
          "name": "D5",
          "ticks": 59232,
          "time": 83.37829500000001,
          "velocity": 0.6456692913385826
        },
        {
          "duration": 0.06475218749999101,
          "durationTicks": 46,
          "midi": 62,
          "name": "D4",
          "ticks": 59232,
          "time": 83.37829500000001,
          "velocity": 0.6456692913385826
        },
        {
          "duration": 0.06475218749999101,
          "durationTicks": 46,
          "midi": 74,
          "name": "D5",
          "ticks": 59424,
          "time": 83.648565,
          "velocity": 0.6456692913385826
        },
        {
          "duration": 0.06475218749999101,
          "durationTicks": 46,
          "midi": 62,
          "name": "D4",
          "ticks": 59424,
          "time": 83.648565,
          "velocity": 0.6456692913385826
        },
        {
          "duration": 0.056306249999991564,
          "durationTicks": 40,
          "midi": 74,
          "name": "D5",
          "ticks": 60480,
          "time": 85.13505,
          "velocity": 0.6456692913385826
        },
        {
          "duration": 0.056306249999991564,
          "durationTicks": 40,
          "midi": 62,
          "name": "D4",
          "ticks": 60480,
          "time": 85.13505,
          "velocity": 0.6456692913385826
        },
        {
          "duration": 0.06475218749999101,
          "durationTicks": 46,
          "midi": 74,
          "name": "D5",
          "ticks": 60672,
          "time": 85.40532,
          "velocity": 0.6692913385826772
        },
        {
          "duration": 0.06475218749999101,
          "durationTicks": 46,
          "midi": 62,
          "name": "D4",
          "ticks": 60672,
          "time": 85.40532,
          "velocity": 0.6692913385826772
        },
        {
          "duration": 0.06475218749999101,
          "durationTicks": 46,
          "midi": 74,
          "name": "D5",
          "ticks": 60768,
          "time": 85.54045500000001,
          "velocity": 0.6456692913385826
        },
        {
          "duration": 0.06475218749999101,
          "durationTicks": 46,
          "midi": 62,
          "name": "D4",
          "ticks": 60768,
          "time": 85.54045500000001,
          "velocity": 0.6456692913385826
        },
        {
          "duration": 0.06475218749999101,
          "durationTicks": 46,
          "midi": 74,
          "name": "D5",
          "ticks": 60960,
          "time": 85.810725,
          "velocity": 0.6456692913385826
        },
        {
          "duration": 0.06475218749999101,
          "durationTicks": 46,
          "midi": 62,
          "name": "D4",
          "ticks": 60960,
          "time": 85.810725,
          "velocity": 0.6456692913385826
        },
        {
          "duration": 0.056306249999991564,
          "durationTicks": 40,
          "midi": 74,
          "name": "D5",
          "ticks": 62016,
          "time": 87.29721,
          "velocity": 0.6456692913385826
        },
        {
          "duration": 0.056306249999991564,
          "durationTicks": 40,
          "midi": 62,
          "name": "D4",
          "ticks": 62016,
          "time": 87.29721,
          "velocity": 0.6456692913385826
        },
        {
          "duration": 0.06475218749999101,
          "durationTicks": 46,
          "midi": 74,
          "name": "D5",
          "ticks": 62208,
          "time": 87.56748,
          "velocity": 0.6692913385826772
        },
        {
          "duration": 0.06475218749999101,
          "durationTicks": 46,
          "midi": 62,
          "name": "D4",
          "ticks": 62208,
          "time": 87.56748,
          "velocity": 0.6692913385826772
        },
        {
          "duration": 0.06475218749999101,
          "durationTicks": 46,
          "midi": 74,
          "name": "D5",
          "ticks": 62304,
          "time": 87.70261500000001,
          "velocity": 0.6456692913385826
        },
        {
          "duration": 0.06475218749999101,
          "durationTicks": 46,
          "midi": 62,
          "name": "D4",
          "ticks": 62304,
          "time": 87.70261500000001,
          "velocity": 0.6456692913385826
        },
        {
          "duration": 0.06475218749999101,
          "durationTicks": 46,
          "midi": 74,
          "name": "D5",
          "ticks": 62496,
          "time": 87.972885,
          "velocity": 0.6456692913385826
        },
        {
          "duration": 0.06475218749999101,
          "durationTicks": 46,
          "midi": 62,
          "name": "D4",
          "ticks": 62496,
          "time": 87.972885,
          "velocity": 0.6456692913385826
        },
        {
          "duration": 0.056306249999991564,
          "durationTicks": 40,
          "midi": 74,
          "name": "D5",
          "ticks": 63552,
          "time": 89.45937,
          "velocity": 0.6456692913385826
        },
        {
          "duration": 0.056306249999991564,
          "durationTicks": 40,
          "midi": 62,
          "name": "D4",
          "ticks": 63552,
          "time": 89.45937,
          "velocity": 0.6456692913385826
        },
        {
          "duration": 0.06475218749999101,
          "durationTicks": 46,
          "midi": 74,
          "name": "D5",
          "ticks": 63744,
          "time": 89.72964,
          "velocity": 0.6692913385826772
        },
        {
          "duration": 0.06475218749999101,
          "durationTicks": 46,
          "midi": 62,
          "name": "D4",
          "ticks": 63744,
          "time": 89.72964,
          "velocity": 0.6692913385826772
        },
        {
          "duration": 0.06475218749999101,
          "durationTicks": 46,
          "midi": 74,
          "name": "D5",
          "ticks": 63840,
          "time": 89.86477500000001,
          "velocity": 0.6456692913385826
        },
        {
          "duration": 0.06475218749999101,
          "durationTicks": 46,
          "midi": 62,
          "name": "D4",
          "ticks": 63840,
          "time": 89.86477500000001,
          "velocity": 0.6456692913385826
        },
        {
          "duration": 0.06475218749999101,
          "durationTicks": 46,
          "midi": 74,
          "name": "D5",
          "ticks": 64032,
          "time": 90.135045,
          "velocity": 0.6456692913385826
        },
        {
          "duration": 0.06475218749999101,
          "durationTicks": 46,
          "midi": 62,
          "name": "D4",
          "ticks": 64032,
          "time": 90.135045,
          "velocity": 0.6456692913385826
        },
        {
          "duration": 0.056306249999991564,
          "durationTicks": 40,
          "midi": 74,
          "name": "D5",
          "ticks": 65088,
          "time": 91.62153,
          "velocity": 0.6456692913385826
        },
        {
          "duration": 0.056306249999991564,
          "durationTicks": 40,
          "midi": 62,
          "name": "D4",
          "ticks": 65088,
          "time": 91.62153,
          "velocity": 0.6456692913385826
        },
        {
          "duration": 0.06475218749999101,
          "durationTicks": 46,
          "midi": 74,
          "name": "D5",
          "ticks": 65280,
          "time": 91.8918,
          "velocity": 0.6692913385826772
        },
        {
          "duration": 0.06475218749999101,
          "durationTicks": 46,
          "midi": 62,
          "name": "D4",
          "ticks": 65280,
          "time": 91.8918,
          "velocity": 0.6692913385826772
        },
        {
          "duration": 0.06475218749999101,
          "durationTicks": 46,
          "midi": 74,
          "name": "D5",
          "ticks": 65376,
          "time": 92.02693500000001,
          "velocity": 0.6456692913385826
        },
        {
          "duration": 0.06475218749999101,
          "durationTicks": 46,
          "midi": 62,
          "name": "D4",
          "ticks": 65376,
          "time": 92.02693500000001,
          "velocity": 0.6456692913385826
        },
        {
          "duration": 0.06475218749999101,
          "durationTicks": 46,
          "midi": 74,
          "name": "D5",
          "ticks": 65568,
          "time": 92.297205,
          "velocity": 0.6456692913385826
        },
        {
          "duration": 0.06475218749999101,
          "durationTicks": 46,
          "midi": 62,
          "name": "D4",
          "ticks": 65568,
          "time": 92.297205,
          "velocity": 0.6456692913385826
        },
        {
          "duration": 0.056306249999991564,
          "durationTicks": 40,
          "midi": 74,
          "name": "D5",
          "ticks": 66624,
          "time": 93.78369,
          "velocity": 0.6456692913385826
        },
        {
          "duration": 0.056306249999991564,
          "durationTicks": 40,
          "midi": 62,
          "name": "D4",
          "ticks": 66624,
          "time": 93.78369,
          "velocity": 0.6456692913385826
        },
        {
          "duration": 0.06475218749999101,
          "durationTicks": 46,
          "midi": 74,
          "name": "D5",
          "ticks": 66816,
          "time": 94.05396,
          "velocity": 0.6692913385826772
        },
        {
          "duration": 0.06475218749999101,
          "durationTicks": 46,
          "midi": 62,
          "name": "D4",
          "ticks": 66816,
          "time": 94.05396,
          "velocity": 0.6692913385826772
        },
        {
          "duration": 0.06475218749999101,
          "durationTicks": 46,
          "midi": 74,
          "name": "D5",
          "ticks": 66912,
          "time": 94.18909500000001,
          "velocity": 0.6456692913385826
        },
        {
          "duration": 0.06475218749999101,
          "durationTicks": 46,
          "midi": 62,
          "name": "D4",
          "ticks": 66912,
          "time": 94.18909500000001,
          "velocity": 0.6456692913385826
        },
        {
          "duration": 0.06475218749999101,
          "durationTicks": 46,
          "midi": 74,
          "name": "D5",
          "ticks": 67104,
          "time": 94.459365,
          "velocity": 0.6456692913385826
        },
        {
          "duration": 0.06475218749999101,
          "durationTicks": 46,
          "midi": 62,
          "name": "D4",
          "ticks": 67104,
          "time": 94.459365,
          "velocity": 0.6456692913385826
        },
        {
          "duration": 0.056306249999991564,
          "durationTicks": 40,
          "midi": 74,
          "name": "D5",
          "ticks": 68160,
          "time": 95.94585000000001,
          "velocity": 0.6456692913385826
        },
        {
          "duration": 0.056306249999991564,
          "durationTicks": 40,
          "midi": 62,
          "name": "D4",
          "ticks": 68160,
          "time": 95.94585000000001,
          "velocity": 0.6456692913385826
        },
        {
          "duration": 0.06475218749999101,
          "durationTicks": 46,
          "midi": 74,
          "name": "D5",
          "ticks": 68352,
          "time": 96.21612,
          "velocity": 0.6692913385826772
        },
        {
          "duration": 0.06475218749999101,
          "durationTicks": 46,
          "midi": 62,
          "name": "D4",
          "ticks": 68352,
          "time": 96.21612,
          "velocity": 0.6692913385826772
        },
        {
          "duration": 0.06475218749999101,
          "durationTicks": 46,
          "midi": 74,
          "name": "D5",
          "ticks": 68448,
          "time": 96.35125500000001,
          "velocity": 0.6456692913385826
        },
        {
          "duration": 0.06475218749999101,
          "durationTicks": 46,
          "midi": 62,
          "name": "D4",
          "ticks": 68448,
          "time": 96.35125500000001,
          "velocity": 0.6456692913385826
        },
        {
          "duration": 0.06475218749999101,
          "durationTicks": 46,
          "midi": 74,
          "name": "D5",
          "ticks": 68640,
          "time": 96.621525,
          "velocity": 0.6456692913385826
        },
        {
          "duration": 0.06475218749999101,
          "durationTicks": 46,
          "midi": 62,
          "name": "D4",
          "ticks": 68640,
          "time": 96.621525,
          "velocity": 0.6456692913385826
        },
        {
          "duration": 0.056306249999991564,
          "durationTicks": 40,
          "midi": 74,
          "name": "D5",
          "ticks": 69696,
          "time": 98.10801000000001,
          "velocity": 0.6456692913385826
        },
        {
          "duration": 0.056306249999991564,
          "durationTicks": 40,
          "midi": 62,
          "name": "D4",
          "ticks": 69696,
          "time": 98.10801000000001,
          "velocity": 0.6456692913385826
        },
        {
          "duration": 0.06475218749999101,
          "durationTicks": 46,
          "midi": 74,
          "name": "D5",
          "ticks": 69888,
          "time": 98.37828,
          "velocity": 0.6692913385826772
        },
        {
          "duration": 0.06475218749999101,
          "durationTicks": 46,
          "midi": 62,
          "name": "D4",
          "ticks": 69888,
          "time": 98.37828,
          "velocity": 0.6692913385826772
        },
        {
          "duration": 0.06475218749999101,
          "durationTicks": 46,
          "midi": 74,
          "name": "D5",
          "ticks": 69984,
          "time": 98.51341500000001,
          "velocity": 0.6456692913385826
        },
        {
          "duration": 0.06475218749999101,
          "durationTicks": 46,
          "midi": 62,
          "name": "D4",
          "ticks": 69984,
          "time": 98.51341500000001,
          "velocity": 0.6456692913385826
        },
        {
          "duration": 0.06475218749999101,
          "durationTicks": 46,
          "midi": 74,
          "name": "D5",
          "ticks": 70176,
          "time": 98.783685,
          "velocity": 0.6456692913385826
        },
        {
          "duration": 0.06475218749999101,
          "durationTicks": 46,
          "midi": 62,
          "name": "D4",
          "ticks": 70176,
          "time": 98.783685,
          "velocity": 0.6456692913385826
        },
        {
          "duration": 0.056306249999991564,
          "durationTicks": 40,
          "midi": 74,
          "name": "D5",
          "ticks": 71232,
          "time": 100.27017000000001,
          "velocity": 0.6456692913385826
        },
        {
          "duration": 0.056306249999991564,
          "durationTicks": 40,
          "midi": 62,
          "name": "D4",
          "ticks": 71232,
          "time": 100.27017000000001,
          "velocity": 0.6456692913385826
        },
        {
          "duration": 0.06475218749999101,
          "durationTicks": 46,
          "midi": 74,
          "name": "D5",
          "ticks": 71424,
          "time": 100.54044,
          "velocity": 0.6692913385826772
        },
        {
          "duration": 0.06475218749999101,
          "durationTicks": 46,
          "midi": 62,
          "name": "D4",
          "ticks": 71424,
          "time": 100.54044,
          "velocity": 0.6692913385826772
        },
        {
          "duration": 0.06475218749999101,
          "durationTicks": 46,
          "midi": 74,
          "name": "D5",
          "ticks": 71520,
          "time": 100.67557500000001,
          "velocity": 0.6456692913385826
        },
        {
          "duration": 0.06475218749999101,
          "durationTicks": 46,
          "midi": 62,
          "name": "D4",
          "ticks": 71520,
          "time": 100.67557500000001,
          "velocity": 0.6456692913385826
        },
        {
          "duration": 0.06475218749999101,
          "durationTicks": 46,
          "midi": 74,
          "name": "D5",
          "ticks": 71712,
          "time": 100.945845,
          "velocity": 0.6456692913385826
        },
        {
          "duration": 0.06475218749999101,
          "durationTicks": 46,
          "midi": 62,
          "name": "D4",
          "ticks": 71712,
          "time": 100.945845,
          "velocity": 0.6456692913385826
        },
        {
          "duration": 0.056306249999991564,
          "durationTicks": 40,
          "midi": 74,
          "name": "D5",
          "ticks": 72768,
          "time": 102.43233000000001,
          "velocity": 0.6456692913385826
        },
        {
          "duration": 0.056306249999991564,
          "durationTicks": 40,
          "midi": 62,
          "name": "D4",
          "ticks": 72768,
          "time": 102.43233000000001,
          "velocity": 0.6456692913385826
        },
        {
          "duration": 0.06475218749999101,
          "durationTicks": 46,
          "midi": 74,
          "name": "D5",
          "ticks": 72960,
          "time": 102.7026,
          "velocity": 0.6692913385826772
        },
        {
          "duration": 0.06475218749999101,
          "durationTicks": 46,
          "midi": 62,
          "name": "D4",
          "ticks": 72960,
          "time": 102.7026,
          "velocity": 0.6692913385826772
        },
        {
          "duration": 0.06475218749999101,
          "durationTicks": 46,
          "midi": 74,
          "name": "D5",
          "ticks": 73056,
          "time": 102.83773500000001,
          "velocity": 0.6456692913385826
        },
        {
          "duration": 0.06475218749999101,
          "durationTicks": 46,
          "midi": 62,
          "name": "D4",
          "ticks": 73056,
          "time": 102.83773500000001,
          "velocity": 0.6456692913385826
        },
        {
          "duration": 0.06475218749999101,
          "durationTicks": 46,
          "midi": 74,
          "name": "D5",
          "ticks": 73248,
          "time": 103.108005,
          "velocity": 0.6456692913385826
        },
        {
          "duration": 0.06475218749999101,
          "durationTicks": 46,
          "midi": 62,
          "name": "D4",
          "ticks": 73248,
          "time": 103.108005,
          "velocity": 0.6456692913385826
        },
        {
          "duration": 0.056306249999991564,
          "durationTicks": 40,
          "midi": 74,
          "name": "D5",
          "ticks": 74304,
          "time": 104.59449000000001,
          "velocity": 0.6456692913385826
        },
        {
          "duration": 0.056306249999991564,
          "durationTicks": 40,
          "midi": 62,
          "name": "D4",
          "ticks": 74304,
          "time": 104.59449000000001,
          "velocity": 0.6456692913385826
        },
        {
          "duration": 0.06475218749999101,
          "durationTicks": 46,
          "midi": 74,
          "name": "D5",
          "ticks": 74496,
          "time": 104.86476,
          "velocity": 0.6692913385826772
        },
        {
          "duration": 0.06475218749999101,
          "durationTicks": 46,
          "midi": 62,
          "name": "D4",
          "ticks": 74496,
          "time": 104.86476,
          "velocity": 0.6692913385826772
        },
        {
          "duration": 0.06475218749999101,
          "durationTicks": 46,
          "midi": 74,
          "name": "D5",
          "ticks": 74592,
          "time": 104.99989500000001,
          "velocity": 0.6456692913385826
        },
        {
          "duration": 0.06475218749999101,
          "durationTicks": 46,
          "midi": 62,
          "name": "D4",
          "ticks": 74592,
          "time": 104.99989500000001,
          "velocity": 0.6456692913385826
        },
        {
          "duration": 0.06475218749999101,
          "durationTicks": 46,
          "midi": 74,
          "name": "D5",
          "ticks": 74784,
          "time": 105.270165,
          "velocity": 0.6456692913385826
        },
        {
          "duration": 0.06475218749999101,
          "durationTicks": 46,
          "midi": 62,
          "name": "D4",
          "ticks": 74784,
          "time": 105.270165,
          "velocity": 0.6456692913385826
        },
        {
          "duration": 0.056306249999991564,
          "durationTicks": 40,
          "midi": 74,
          "name": "D5",
          "ticks": 75840,
          "time": 106.75665000000001,
          "velocity": 0.6456692913385826
        },
        {
          "duration": 0.056306249999991564,
          "durationTicks": 40,
          "midi": 62,
          "name": "D4",
          "ticks": 75840,
          "time": 106.75665000000001,
          "velocity": 0.6456692913385826
        },
        {
          "duration": 0.06475218749999101,
          "durationTicks": 46,
          "midi": 74,
          "name": "D5",
          "ticks": 76032,
          "time": 107.02692,
          "velocity": 0.6692913385826772
        },
        {
          "duration": 0.06475218749999101,
          "durationTicks": 46,
          "midi": 62,
          "name": "D4",
          "ticks": 76032,
          "time": 107.02692,
          "velocity": 0.6692913385826772
        },
        {
          "duration": 0.06475218749999101,
          "durationTicks": 46,
          "midi": 74,
          "name": "D5",
          "ticks": 76128,
          "time": 107.16205500000001,
          "velocity": 0.6456692913385826
        },
        {
          "duration": 0.06475218749999101,
          "durationTicks": 46,
          "midi": 62,
          "name": "D4",
          "ticks": 76128,
          "time": 107.16205500000001,
          "velocity": 0.6456692913385826
        },
        {
          "duration": 0.06475218749999101,
          "durationTicks": 46,
          "midi": 74,
          "name": "D5",
          "ticks": 76320,
          "time": 107.432325,
          "velocity": 0.6456692913385826
        },
        {
          "duration": 0.06475218749999101,
          "durationTicks": 46,
          "midi": 62,
          "name": "D4",
          "ticks": 76320,
          "time": 107.432325,
          "velocity": 0.6456692913385826
        },
        {
          "duration": 0.056306249999991564,
          "durationTicks": 40,
          "midi": 74,
          "name": "D5",
          "ticks": 77376,
          "time": 108.91881000000001,
          "velocity": 0.6456692913385826
        },
        {
          "duration": 0.056306249999991564,
          "durationTicks": 40,
          "midi": 62,
          "name": "D4",
          "ticks": 77376,
          "time": 108.91881000000001,
          "velocity": 0.6456692913385826
        },
        {
          "duration": 0.06475218749999101,
          "durationTicks": 46,
          "midi": 74,
          "name": "D5",
          "ticks": 77568,
          "time": 109.18908,
          "velocity": 0.6692913385826772
        },
        {
          "duration": 0.06475218749999101,
          "durationTicks": 46,
          "midi": 62,
          "name": "D4",
          "ticks": 77568,
          "time": 109.18908,
          "velocity": 0.6692913385826772
        },
        {
          "duration": 0.06475218749999101,
          "durationTicks": 46,
          "midi": 74,
          "name": "D5",
          "ticks": 77664,
          "time": 109.32421500000001,
          "velocity": 0.6456692913385826
        },
        {
          "duration": 0.06475218749999101,
          "durationTicks": 46,
          "midi": 62,
          "name": "D4",
          "ticks": 77664,
          "time": 109.32421500000001,
          "velocity": 0.6456692913385826
        },
        {
          "duration": 0.06475218749999101,
          "durationTicks": 46,
          "midi": 74,
          "name": "D5",
          "ticks": 77856,
          "time": 109.594485,
          "velocity": 0.6456692913385826
        },
        {
          "duration": 0.06475218749999101,
          "durationTicks": 46,
          "midi": 62,
          "name": "D4",
          "ticks": 77856,
          "time": 109.594485,
          "velocity": 0.6456692913385826
        },
        {
          "duration": 0.056306249999991564,
          "durationTicks": 40,
          "midi": 74,
          "name": "D5",
          "ticks": 78912,
          "time": 111.08097000000001,
          "velocity": 0.6456692913385826
        },
        {
          "duration": 0.056306249999991564,
          "durationTicks": 40,
          "midi": 62,
          "name": "D4",
          "ticks": 78912,
          "time": 111.08097000000001,
          "velocity": 0.6456692913385826
        },
        {
          "duration": 0.06475218749999101,
          "durationTicks": 46,
          "midi": 74,
          "name": "D5",
          "ticks": 79104,
          "time": 111.35124,
          "velocity": 0.6692913385826772
        },
        {
          "duration": 0.06475218749999101,
          "durationTicks": 46,
          "midi": 62,
          "name": "D4",
          "ticks": 79104,
          "time": 111.35124,
          "velocity": 0.6692913385826772
        },
        {
          "duration": 0.06475218749999101,
          "durationTicks": 46,
          "midi": 74,
          "name": "D5",
          "ticks": 79200,
          "time": 111.48637500000001,
          "velocity": 0.6456692913385826
        },
        {
          "duration": 0.06475218749999101,
          "durationTicks": 46,
          "midi": 62,
          "name": "D4",
          "ticks": 79200,
          "time": 111.48637500000001,
          "velocity": 0.6456692913385826
        },
        {
          "duration": 0.06475218749999101,
          "durationTicks": 46,
          "midi": 74,
          "name": "D5",
          "ticks": 79392,
          "time": 111.756645,
          "velocity": 0.6456692913385826
        },
        {
          "duration": 0.06475218749999101,
          "durationTicks": 46,
          "midi": 62,
          "name": "D4",
          "ticks": 79392,
          "time": 111.756645,
          "velocity": 0.6456692913385826
        },
        {
          "duration": 0.056306249999991564,
          "durationTicks": 40,
          "midi": 74,
          "name": "D5",
          "ticks": 80448,
          "time": 113.24313000000001,
          "velocity": 0.6456692913385826
        },
        {
          "duration": 0.056306249999991564,
          "durationTicks": 40,
          "midi": 62,
          "name": "D4",
          "ticks": 80448,
          "time": 113.24313000000001,
          "velocity": 0.6456692913385826
        },
        {
          "duration": 0.06475218749999101,
          "durationTicks": 46,
          "midi": 74,
          "name": "D5",
          "ticks": 80640,
          "time": 113.5134,
          "velocity": 0.6692913385826772
        },
        {
          "duration": 0.06475218749999101,
          "durationTicks": 46,
          "midi": 62,
          "name": "D4",
          "ticks": 80640,
          "time": 113.5134,
          "velocity": 0.6692913385826772
        },
        {
          "duration": 0.06475218749999101,
          "durationTicks": 46,
          "midi": 74,
          "name": "D5",
          "ticks": 80736,
          "time": 113.64853500000001,
          "velocity": 0.6456692913385826
        },
        {
          "duration": 0.06475218749999101,
          "durationTicks": 46,
          "midi": 62,
          "name": "D4",
          "ticks": 80736,
          "time": 113.64853500000001,
          "velocity": 0.6456692913385826
        },
        {
          "duration": 0.06475218749999101,
          "durationTicks": 46,
          "midi": 74,
          "name": "D5",
          "ticks": 80928,
          "time": 113.918805,
          "velocity": 0.6456692913385826
        },
        {
          "duration": 0.06475218749999101,
          "durationTicks": 46,
          "midi": 62,
          "name": "D4",
          "ticks": 80928,
          "time": 113.918805,
          "velocity": 0.6456692913385826
        },
        {
          "duration": 0.056306249999991564,
          "durationTicks": 40,
          "midi": 74,
          "name": "D5",
          "ticks": 81984,
          "time": 115.40529000000001,
          "velocity": 0.6456692913385826
        },
        {
          "duration": 0.056306249999991564,
          "durationTicks": 40,
          "midi": 62,
          "name": "D4",
          "ticks": 81984,
          "time": 115.40529000000001,
          "velocity": 0.6456692913385826
        },
        {
          "duration": 0.06475218749999101,
          "durationTicks": 46,
          "midi": 74,
          "name": "D5",
          "ticks": 82176,
          "time": 115.67556,
          "velocity": 0.6692913385826772
        },
        {
          "duration": 0.06475218749999101,
          "durationTicks": 46,
          "midi": 62,
          "name": "D4",
          "ticks": 82176,
          "time": 115.67556,
          "velocity": 0.6692913385826772
        },
        {
          "duration": 0.06475218749999101,
          "durationTicks": 46,
          "midi": 74,
          "name": "D5",
          "ticks": 82272,
          "time": 115.81069500000001,
          "velocity": 0.6456692913385826
        },
        {
          "duration": 0.06475218749999101,
          "durationTicks": 46,
          "midi": 62,
          "name": "D4",
          "ticks": 82272,
          "time": 115.81069500000001,
          "velocity": 0.6456692913385826
        },
        {
          "duration": 0.06475218749999101,
          "durationTicks": 46,
          "midi": 74,
          "name": "D5",
          "ticks": 82464,
          "time": 116.080965,
          "velocity": 0.6456692913385826
        },
        {
          "duration": 0.06475218749999101,
          "durationTicks": 46,
          "midi": 62,
          "name": "D4",
          "ticks": 82464,
          "time": 116.080965,
          "velocity": 0.6456692913385826
        },
        {
          "duration": 0.056306249999991564,
          "durationTicks": 40,
          "midi": 74,
          "name": "D5",
          "ticks": 83520,
          "time": 117.56745000000001,
          "velocity": 0.6456692913385826
        },
        {
          "duration": 0.056306249999991564,
          "durationTicks": 40,
          "midi": 62,
          "name": "D4",
          "ticks": 83520,
          "time": 117.56745000000001,
          "velocity": 0.6456692913385826
        },
        {
          "duration": 0.06475218749999101,
          "durationTicks": 46,
          "midi": 74,
          "name": "D5",
          "ticks": 83712,
          "time": 117.83772,
          "velocity": 0.6692913385826772
        },
        {
          "duration": 0.06475218749999101,
          "durationTicks": 46,
          "midi": 62,
          "name": "D4",
          "ticks": 83712,
          "time": 117.83772,
          "velocity": 0.6692913385826772
        },
        {
          "duration": 0.06475218749999101,
          "durationTicks": 46,
          "midi": 74,
          "name": "D5",
          "ticks": 83808,
          "time": 117.97285500000001,
          "velocity": 0.6456692913385826
        },
        {
          "duration": 0.06475218749999101,
          "durationTicks": 46,
          "midi": 62,
          "name": "D4",
          "ticks": 83808,
          "time": 117.97285500000001,
          "velocity": 0.6456692913385826
        },
        {
          "duration": 0.06475218749999101,
          "durationTicks": 46,
          "midi": 74,
          "name": "D5",
          "ticks": 84000,
          "time": 118.243125,
          "velocity": 0.6456692913385826
        },
        {
          "duration": 0.06475218749999101,
          "durationTicks": 46,
          "midi": 62,
          "name": "D4",
          "ticks": 84000,
          "time": 118.243125,
          "velocity": 0.6456692913385826
        },
        {
          "duration": 0.056306249999991564,
          "durationTicks": 40,
          "midi": 74,
          "name": "D5",
          "ticks": 85056,
          "time": 119.72961000000001,
          "velocity": 0.6456692913385826
        },
        {
          "duration": 0.056306249999991564,
          "durationTicks": 40,
          "midi": 62,
          "name": "D4",
          "ticks": 85056,
          "time": 119.72961000000001,
          "velocity": 0.6456692913385826
        },
        {
          "duration": 0.06475218749999101,
          "durationTicks": 46,
          "midi": 74,
          "name": "D5",
          "ticks": 85248,
          "time": 119.99988,
          "velocity": 0.6692913385826772
        },
        {
          "duration": 0.06475218749999101,
          "durationTicks": 46,
          "midi": 62,
          "name": "D4",
          "ticks": 85248,
          "time": 119.99988,
          "velocity": 0.6692913385826772
        },
        {
          "duration": 0.06475218749999101,
          "durationTicks": 46,
          "midi": 74,
          "name": "D5",
          "ticks": 85344,
          "time": 120.13501500000001,
          "velocity": 0.6456692913385826
        },
        {
          "duration": 0.06475218749999101,
          "durationTicks": 46,
          "midi": 62,
          "name": "D4",
          "ticks": 85344,
          "time": 120.13501500000001,
          "velocity": 0.6456692913385826
        },
        {
          "duration": 0.06475218749999101,
          "durationTicks": 46,
          "midi": 74,
          "name": "D5",
          "ticks": 85536,
          "time": 120.405285,
          "velocity": 0.6456692913385826
        },
        {
          "duration": 0.06475218749999101,
          "durationTicks": 46,
          "midi": 62,
          "name": "D4",
          "ticks": 85536,
          "time": 120.405285,
          "velocity": 0.6456692913385826
        },
        {
          "duration": 0.056306249999991564,
          "durationTicks": 40,
          "midi": 74,
          "name": "D5",
          "ticks": 86592,
          "time": 121.89177000000001,
          "velocity": 0.6456692913385826
        },
        {
          "duration": 0.056306249999991564,
          "durationTicks": 40,
          "midi": 62,
          "name": "D4",
          "ticks": 86592,
          "time": 121.89177000000001,
          "velocity": 0.6456692913385826
        },
        {
          "duration": 0.06475218749999101,
          "durationTicks": 46,
          "midi": 74,
          "name": "D5",
          "ticks": 86784,
          "time": 122.16204,
          "velocity": 0.6692913385826772
        },
        {
          "duration": 0.06475218749999101,
          "durationTicks": 46,
          "midi": 62,
          "name": "D4",
          "ticks": 86784,
          "time": 122.16204,
          "velocity": 0.6692913385826772
        },
        {
          "duration": 0.06475218749999101,
          "durationTicks": 46,
          "midi": 74,
          "name": "D5",
          "ticks": 86880,
          "time": 122.29717500000001,
          "velocity": 0.6456692913385826
        },
        {
          "duration": 0.06475218749999101,
          "durationTicks": 46,
          "midi": 62,
          "name": "D4",
          "ticks": 86880,
          "time": 122.29717500000001,
          "velocity": 0.6456692913385826
        },
        {
          "duration": 0.06475218749999101,
          "durationTicks": 46,
          "midi": 74,
          "name": "D5",
          "ticks": 87072,
          "time": 122.567445,
          "velocity": 0.6456692913385826
        },
        {
          "duration": 0.06475218749999101,
          "durationTicks": 46,
          "midi": 62,
          "name": "D4",
          "ticks": 87072,
          "time": 122.567445,
          "velocity": 0.6456692913385826
        },
        {
          "duration": 0.056306249999991564,
          "durationTicks": 40,
          "midi": 74,
          "name": "D5",
          "ticks": 88128,
          "time": 124.05393000000001,
          "velocity": 0.6456692913385826
        },
        {
          "duration": 0.056306249999991564,
          "durationTicks": 40,
          "midi": 62,
          "name": "D4",
          "ticks": 88128,
          "time": 124.05393000000001,
          "velocity": 0.6456692913385826
        },
        {
          "duration": 0.06475218749999101,
          "durationTicks": 46,
          "midi": 74,
          "name": "D5",
          "ticks": 88320,
          "time": 124.3242,
          "velocity": 0.6692913385826772
        },
        {
          "duration": 0.06475218749999101,
          "durationTicks": 46,
          "midi": 62,
          "name": "D4",
          "ticks": 88320,
          "time": 124.3242,
          "velocity": 0.6692913385826772
        },
        {
          "duration": 0.06475218749999101,
          "durationTicks": 46,
          "midi": 74,
          "name": "D5",
          "ticks": 88416,
          "time": 124.45933500000001,
          "velocity": 0.6456692913385826
        },
        {
          "duration": 0.06475218749999101,
          "durationTicks": 46,
          "midi": 62,
          "name": "D4",
          "ticks": 88416,
          "time": 124.45933500000001,
          "velocity": 0.6456692913385826
        },
        {
          "duration": 0.06475218749999101,
          "durationTicks": 46,
          "midi": 74,
          "name": "D5",
          "ticks": 88608,
          "time": 124.729605,
          "velocity": 0.6456692913385826
        },
        {
          "duration": 0.06475218749999101,
          "durationTicks": 46,
          "midi": 62,
          "name": "D4",
          "ticks": 88608,
          "time": 124.729605,
          "velocity": 0.6456692913385826
        },
        {
          "duration": 0.056306249999991564,
          "durationTicks": 40,
          "midi": 74,
          "name": "D5",
          "ticks": 89664,
          "time": 126.21609000000001,
          "velocity": 0.6456692913385826
        },
        {
          "duration": 0.056306249999991564,
          "durationTicks": 40,
          "midi": 62,
          "name": "D4",
          "ticks": 89664,
          "time": 126.21609000000001,
          "velocity": 0.6456692913385826
        },
        {
          "duration": 0.06475218749999101,
          "durationTicks": 46,
          "midi": 74,
          "name": "D5",
          "ticks": 89856,
          "time": 126.48636,
          "velocity": 0.6692913385826772
        },
        {
          "duration": 0.06475218749999101,
          "durationTicks": 46,
          "midi": 62,
          "name": "D4",
          "ticks": 89856,
          "time": 126.48636,
          "velocity": 0.6692913385826772
        },
        {
          "duration": 0.06475218749999101,
          "durationTicks": 46,
          "midi": 74,
          "name": "D5",
          "ticks": 89952,
          "time": 126.62149500000001,
          "velocity": 0.6456692913385826
        },
        {
          "duration": 0.06475218749999101,
          "durationTicks": 46,
          "midi": 62,
          "name": "D4",
          "ticks": 89952,
          "time": 126.62149500000001,
          "velocity": 0.6456692913385826
        },
        {
          "duration": 0.06475218749999101,
          "durationTicks": 46,
          "midi": 74,
          "name": "D5",
          "ticks": 90144,
          "time": 126.891765,
          "velocity": 0.6456692913385826
        },
        {
          "duration": 0.06475218749999101,
          "durationTicks": 46,
          "midi": 62,
          "name": "D4",
          "ticks": 90144,
          "time": 126.891765,
          "velocity": 0.6456692913385826
        },
        {
          "duration": 0.056306249999977354,
          "durationTicks": 40,
          "midi": 74,
          "name": "D5",
          "ticks": 91200,
          "time": 128.37825,
          "velocity": 0.6456692913385826
        },
        {
          "duration": 0.056306249999977354,
          "durationTicks": 40,
          "midi": 62,
          "name": "D4",
          "ticks": 91200,
          "time": 128.37825,
          "velocity": 0.6456692913385826
        },
        {
          "duration": 0.0647521874999768,
          "durationTicks": 46,
          "midi": 74,
          "name": "D5",
          "ticks": 91392,
          "time": 128.64852000000002,
          "velocity": 0.6692913385826772
        },
        {
          "duration": 0.0647521874999768,
          "durationTicks": 46,
          "midi": 62,
          "name": "D4",
          "ticks": 91392,
          "time": 128.64852000000002,
          "velocity": 0.6692913385826772
        },
        {
          "duration": 0.0647521874999768,
          "durationTicks": 46,
          "midi": 74,
          "name": "D5",
          "ticks": 91488,
          "time": 128.783655,
          "velocity": 0.6456692913385826
        },
        {
          "duration": 0.0647521874999768,
          "durationTicks": 46,
          "midi": 62,
          "name": "D4",
          "ticks": 91488,
          "time": 128.783655,
          "velocity": 0.6456692913385826
        },
        {
          "duration": 0.06475218750000522,
          "durationTicks": 46,
          "midi": 74,
          "name": "D5",
          "ticks": 91680,
          "time": 129.053925,
          "velocity": 0.6456692913385826
        },
        {
          "duration": 0.06475218750000522,
          "durationTicks": 46,
          "midi": 62,
          "name": "D4",
          "ticks": 91680,
          "time": 129.053925,
          "velocity": 0.6456692913385826
        },
        {
          "duration": 0.056306249999977354,
          "durationTicks": 40,
          "midi": 74,
          "name": "D5",
          "ticks": 92736,
          "time": 130.54041,
          "velocity": 0.6456692913385826
        },
        {
          "duration": 0.056306249999977354,
          "durationTicks": 40,
          "midi": 62,
          "name": "D4",
          "ticks": 92736,
          "time": 130.54041,
          "velocity": 0.6456692913385826
        },
        {
          "duration": 0.06475218750000522,
          "durationTicks": 46,
          "midi": 74,
          "name": "D5",
          "ticks": 92928,
          "time": 130.81068,
          "velocity": 0.6692913385826772
        },
        {
          "duration": 0.06475218750000522,
          "durationTicks": 46,
          "midi": 62,
          "name": "D4",
          "ticks": 92928,
          "time": 130.81068,
          "velocity": 0.6692913385826772
        },
        {
          "duration": 0.0647521874999768,
          "durationTicks": 46,
          "midi": 74,
          "name": "D5",
          "ticks": 93024,
          "time": 130.945815,
          "velocity": 0.6456692913385826
        },
        {
          "duration": 0.0647521874999768,
          "durationTicks": 46,
          "midi": 62,
          "name": "D4",
          "ticks": 93024,
          "time": 130.945815,
          "velocity": 0.6456692913385826
        },
        {
          "duration": 0.06475218750000522,
          "durationTicks": 46,
          "midi": 74,
          "name": "D5",
          "ticks": 93216,
          "time": 131.216085,
          "velocity": 0.6456692913385826
        },
        {
          "duration": 0.06475218750000522,
          "durationTicks": 46,
          "midi": 62,
          "name": "D4",
          "ticks": 93216,
          "time": 131.216085,
          "velocity": 0.6456692913385826
        },
        {
          "duration": 0.056306249999977354,
          "durationTicks": 40,
          "midi": 74,
          "name": "D5",
          "ticks": 94272,
          "time": 132.70257,
          "velocity": 0.6456692913385826
        },
        {
          "duration": 0.056306249999977354,
          "durationTicks": 40,
          "midi": 62,
          "name": "D4",
          "ticks": 94272,
          "time": 132.70257,
          "velocity": 0.6456692913385826
        },
        {
          "duration": 0.0647521874999768,
          "durationTicks": 46,
          "midi": 74,
          "name": "D5",
          "ticks": 94464,
          "time": 132.97284000000002,
          "velocity": 0.6692913385826772
        },
        {
          "duration": 0.0647521874999768,
          "durationTicks": 46,
          "midi": 62,
          "name": "D4",
          "ticks": 94464,
          "time": 132.97284000000002,
          "velocity": 0.6692913385826772
        },
        {
          "duration": 0.0647521874999768,
          "durationTicks": 46,
          "midi": 74,
          "name": "D5",
          "ticks": 94560,
          "time": 133.107975,
          "velocity": 0.6456692913385826
        },
        {
          "duration": 0.0647521874999768,
          "durationTicks": 46,
          "midi": 62,
          "name": "D4",
          "ticks": 94560,
          "time": 133.107975,
          "velocity": 0.6456692913385826
        },
        {
          "duration": 0.06475218750000522,
          "durationTicks": 46,
          "midi": 74,
          "name": "D5",
          "ticks": 94752,
          "time": 133.378245,
          "velocity": 0.6456692913385826
        },
        {
          "duration": 0.06475218750000522,
          "durationTicks": 46,
          "midi": 62,
          "name": "D4",
          "ticks": 94752,
          "time": 133.378245,
          "velocity": 0.6456692913385826
        },
        {
          "duration": 0.056306249999977354,
          "durationTicks": 40,
          "midi": 74,
          "name": "D5",
          "ticks": 95808,
          "time": 134.86473,
          "velocity": 0.6456692913385826
        },
        {
          "duration": 0.056306249999977354,
          "durationTicks": 40,
          "midi": 62,
          "name": "D4",
          "ticks": 95808,
          "time": 134.86473,
          "velocity": 0.6456692913385826
        },
        {
          "duration": 0.06475218750000522,
          "durationTicks": 46,
          "midi": 74,
          "name": "D5",
          "ticks": 96000,
          "time": 135.135,
          "velocity": 0.6692913385826772
        },
        {
          "duration": 0.06475218750000522,
          "durationTicks": 46,
          "midi": 62,
          "name": "D4",
          "ticks": 96000,
          "time": 135.135,
          "velocity": 0.6692913385826772
        },
        {
          "duration": 0.0647521874999768,
          "durationTicks": 46,
          "midi": 74,
          "name": "D5",
          "ticks": 96096,
          "time": 135.270135,
          "velocity": 0.6456692913385826
        },
        {
          "duration": 0.0647521874999768,
          "durationTicks": 46,
          "midi": 62,
          "name": "D4",
          "ticks": 96096,
          "time": 135.270135,
          "velocity": 0.6456692913385826
        },
        {
          "duration": 0.06475218750000522,
          "durationTicks": 46,
          "midi": 74,
          "name": "D5",
          "ticks": 96288,
          "time": 135.540405,
          "velocity": 0.6456692913385826
        },
        {
          "duration": 0.06475218750000522,
          "durationTicks": 46,
          "midi": 62,
          "name": "D4",
          "ticks": 96288,
          "time": 135.540405,
          "velocity": 0.6456692913385826
        },
        {
          "duration": 0.056306249999977354,
          "durationTicks": 40,
          "midi": 74,
          "name": "D5",
          "ticks": 97344,
          "time": 137.02689,
          "velocity": 0.6456692913385826
        },
        {
          "duration": 0.056306249999977354,
          "durationTicks": 40,
          "midi": 62,
          "name": "D4",
          "ticks": 97344,
          "time": 137.02689,
          "velocity": 0.6456692913385826
        },
        {
          "duration": 0.0647521874999768,
          "durationTicks": 46,
          "midi": 74,
          "name": "D5",
          "ticks": 97536,
          "time": 137.29716000000002,
          "velocity": 0.6692913385826772
        },
        {
          "duration": 0.0647521874999768,
          "durationTicks": 46,
          "midi": 62,
          "name": "D4",
          "ticks": 97536,
          "time": 137.29716000000002,
          "velocity": 0.6692913385826772
        },
        {
          "duration": 0.0647521874999768,
          "durationTicks": 46,
          "midi": 74,
          "name": "D5",
          "ticks": 97632,
          "time": 137.432295,
          "velocity": 0.6456692913385826
        },
        {
          "duration": 0.0647521874999768,
          "durationTicks": 46,
          "midi": 62,
          "name": "D4",
          "ticks": 97632,
          "time": 137.432295,
          "velocity": 0.6456692913385826
        },
        {
          "duration": 0.06475218750000522,
          "durationTicks": 46,
          "midi": 74,
          "name": "D5",
          "ticks": 97824,
          "time": 137.702565,
          "velocity": 0.6456692913385826
        },
        {
          "duration": 0.06475218750000522,
          "durationTicks": 46,
          "midi": 62,
          "name": "D4",
          "ticks": 97824,
          "time": 137.702565,
          "velocity": 0.6456692913385826
        },
        {
          "duration": 0.056306250000005775,
          "durationTicks": 40,
          "midi": 74,
          "name": "D5",
          "ticks": 98880,
          "time": 139.18905,
          "velocity": 0.6456692913385826
        },
        {
          "duration": 0.056306250000005775,
          "durationTicks": 40,
          "midi": 62,
          "name": "D4",
          "ticks": 98880,
          "time": 139.18905,
          "velocity": 0.6456692913385826
        },
        {
          "duration": 0.06475218750003364,
          "durationTicks": 46,
          "midi": 74,
          "name": "D5",
          "ticks": 99072,
          "time": 139.45932,
          "velocity": 0.6692913385826772
        },
        {
          "duration": 0.06475218750003364,
          "durationTicks": 46,
          "midi": 62,
          "name": "D4",
          "ticks": 99072,
          "time": 139.45932,
          "velocity": 0.6692913385826772
        },
        {
          "duration": 0.06475218750000522,
          "durationTicks": 46,
          "midi": 74,
          "name": "D5",
          "ticks": 99168,
          "time": 139.594455,
          "velocity": 0.6456692913385826
        },
        {
          "duration": 0.06475218750000522,
          "durationTicks": 46,
          "midi": 62,
          "name": "D4",
          "ticks": 99168,
          "time": 139.594455,
          "velocity": 0.6456692913385826
        },
        {
          "duration": 0.06475218750003364,
          "durationTicks": 46,
          "midi": 74,
          "name": "D5",
          "ticks": 99360,
          "time": 139.864725,
          "velocity": 0.6456692913385826
        },
        {
          "duration": 0.06475218750003364,
          "durationTicks": 46,
          "midi": 62,
          "name": "D4",
          "ticks": 99360,
          "time": 139.864725,
          "velocity": 0.6456692913385826
        },
        {
          "duration": 0.056306250000005775,
          "durationTicks": 40,
          "midi": 74,
          "name": "D5",
          "ticks": 100416,
          "time": 141.35121,
          "velocity": 0.6456692913385826
        },
        {
          "duration": 0.056306250000005775,
          "durationTicks": 40,
          "midi": 62,
          "name": "D4",
          "ticks": 100416,
          "time": 141.35121,
          "velocity": 0.6456692913385826
        },
        {
          "duration": 0.06475218750000522,
          "durationTicks": 46,
          "midi": 74,
          "name": "D5",
          "ticks": 100608,
          "time": 141.62148000000002,
          "velocity": 0.6692913385826772
        },
        {
          "duration": 0.06475218750000522,
          "durationTicks": 46,
          "midi": 62,
          "name": "D4",
          "ticks": 100608,
          "time": 141.62148000000002,
          "velocity": 0.6692913385826772
        },
        {
          "duration": 0.06475218750000522,
          "durationTicks": 46,
          "midi": 74,
          "name": "D5",
          "ticks": 100704,
          "time": 141.756615,
          "velocity": 0.6456692913385826
        },
        {
          "duration": 0.06475218750000522,
          "durationTicks": 46,
          "midi": 62,
          "name": "D4",
          "ticks": 100704,
          "time": 141.756615,
          "velocity": 0.6456692913385826
        },
        {
          "duration": 0.06475218750003364,
          "durationTicks": 46,
          "midi": 74,
          "name": "D5",
          "ticks": 100896,
          "time": 142.026885,
          "velocity": 0.6456692913385826
        },
        {
          "duration": 0.06475218750003364,
          "durationTicks": 46,
          "midi": 62,
          "name": "D4",
          "ticks": 100896,
          "time": 142.026885,
          "velocity": 0.6456692913385826
        },
        {
          "duration": 0.056306250000005775,
          "durationTicks": 40,
          "midi": 74,
          "name": "D5",
          "ticks": 101952,
          "time": 143.51337,
          "velocity": 0.6456692913385826
        },
        {
          "duration": 0.056306250000005775,
          "durationTicks": 40,
          "midi": 62,
          "name": "D4",
          "ticks": 101952,
          "time": 143.51337,
          "velocity": 0.6456692913385826
        },
        {
          "duration": 0.06475218750003364,
          "durationTicks": 46,
          "midi": 74,
          "name": "D5",
          "ticks": 102144,
          "time": 143.78364,
          "velocity": 0.6692913385826772
        },
        {
          "duration": 0.06475218750003364,
          "durationTicks": 46,
          "midi": 62,
          "name": "D4",
          "ticks": 102144,
          "time": 143.78364,
          "velocity": 0.6692913385826772
        },
        {
          "duration": 0.06475218750000522,
          "durationTicks": 46,
          "midi": 74,
          "name": "D5",
          "ticks": 102240,
          "time": 143.918775,
          "velocity": 0.6456692913385826
        },
        {
          "duration": 0.06475218750000522,
          "durationTicks": 46,
          "midi": 62,
          "name": "D4",
          "ticks": 102240,
          "time": 143.918775,
          "velocity": 0.6456692913385826
        },
        {
          "duration": 0.06475218750003364,
          "durationTicks": 46,
          "midi": 74,
          "name": "D5",
          "ticks": 102432,
          "time": 144.189045,
          "velocity": 0.6456692913385826
        },
        {
          "duration": 0.06475218750003364,
          "durationTicks": 46,
          "midi": 62,
          "name": "D4",
          "ticks": 102432,
          "time": 144.189045,
          "velocity": 0.6456692913385826
        },
        {
          "duration": 0.056306250000005775,
          "durationTicks": 40,
          "midi": 74,
          "name": "D5",
          "ticks": 103488,
          "time": 145.67553,
          "velocity": 0.6456692913385826
        },
        {
          "duration": 0.056306250000005775,
          "durationTicks": 40,
          "midi": 62,
          "name": "D4",
          "ticks": 103488,
          "time": 145.67553,
          "velocity": 0.6456692913385826
        },
        {
          "duration": 0.06475218750000522,
          "durationTicks": 46,
          "midi": 74,
          "name": "D5",
          "ticks": 103680,
          "time": 145.94580000000002,
          "velocity": 0.6692913385826772
        },
        {
          "duration": 0.06475218750000522,
          "durationTicks": 46,
          "midi": 62,
          "name": "D4",
          "ticks": 103680,
          "time": 145.94580000000002,
          "velocity": 0.6692913385826772
        },
        {
          "duration": 0.06475218750000522,
          "durationTicks": 46,
          "midi": 74,
          "name": "D5",
          "ticks": 103776,
          "time": 146.080935,
          "velocity": 0.6456692913385826
        },
        {
          "duration": 0.06475218750000522,
          "durationTicks": 46,
          "midi": 62,
          "name": "D4",
          "ticks": 103776,
          "time": 146.080935,
          "velocity": 0.6456692913385826
        },
        {
          "duration": 0.06475218750003364,
          "durationTicks": 46,
          "midi": 74,
          "name": "D5",
          "ticks": 103968,
          "time": 146.351205,
          "velocity": 0.6456692913385826
        },
        {
          "duration": 0.06475218750003364,
          "durationTicks": 46,
          "midi": 62,
          "name": "D4",
          "ticks": 103968,
          "time": 146.351205,
          "velocity": 0.6456692913385826
        },
        {
          "duration": 0.056306250000005775,
          "durationTicks": 40,
          "midi": 74,
          "name": "D5",
          "ticks": 105024,
          "time": 147.83769,
          "velocity": 0.6456692913385826
        },
        {
          "duration": 0.056306250000005775,
          "durationTicks": 40,
          "midi": 62,
          "name": "D4",
          "ticks": 105024,
          "time": 147.83769,
          "velocity": 0.6456692913385826
        },
        {
          "duration": 0.06475218750003364,
          "durationTicks": 46,
          "midi": 74,
          "name": "D5",
          "ticks": 105216,
          "time": 148.10796,
          "velocity": 0.6692913385826772
        },
        {
          "duration": 0.06475218750003364,
          "durationTicks": 46,
          "midi": 62,
          "name": "D4",
          "ticks": 105216,
          "time": 148.10796,
          "velocity": 0.6692913385826772
        },
        {
          "duration": 0.06475218750000522,
          "durationTicks": 46,
          "midi": 74,
          "name": "D5",
          "ticks": 105312,
          "time": 148.243095,
          "velocity": 0.6456692913385826
        },
        {
          "duration": 0.06475218750000522,
          "durationTicks": 46,
          "midi": 62,
          "name": "D4",
          "ticks": 105312,
          "time": 148.243095,
          "velocity": 0.6456692913385826
        },
        {
          "duration": 0.06475218750003364,
          "durationTicks": 46,
          "midi": 74,
          "name": "D5",
          "ticks": 105504,
          "time": 148.513365,
          "velocity": 0.6456692913385826
        },
        {
          "duration": 0.06475218750003364,
          "durationTicks": 46,
          "midi": 62,
          "name": "D4",
          "ticks": 105504,
          "time": 148.513365,
          "velocity": 0.6456692913385826
        },
        {
          "duration": 0.056306250000005775,
          "durationTicks": 40,
          "midi": 74,
          "name": "D5",
          "ticks": 106560,
          "time": 149.99985,
          "velocity": 0.6456692913385826
        },
        {
          "duration": 0.056306250000005775,
          "durationTicks": 40,
          "midi": 62,
          "name": "D4",
          "ticks": 106560,
          "time": 149.99985,
          "velocity": 0.6456692913385826
        },
        {
          "duration": 0.06475218750000522,
          "durationTicks": 46,
          "midi": 74,
          "name": "D5",
          "ticks": 106752,
          "time": 150.27012000000002,
          "velocity": 0.6692913385826772
        },
        {
          "duration": 0.06475218750000522,
          "durationTicks": 46,
          "midi": 62,
          "name": "D4",
          "ticks": 106752,
          "time": 150.27012000000002,
          "velocity": 0.6692913385826772
        },
        {
          "duration": 0.06475218750000522,
          "durationTicks": 46,
          "midi": 74,
          "name": "D5",
          "ticks": 106848,
          "time": 150.405255,
          "velocity": 0.6456692913385826
        },
        {
          "duration": 0.06475218750000522,
          "durationTicks": 46,
          "midi": 62,
          "name": "D4",
          "ticks": 106848,
          "time": 150.405255,
          "velocity": 0.6456692913385826
        },
        {
          "duration": 0.06475218750003364,
          "durationTicks": 46,
          "midi": 74,
          "name": "D5",
          "ticks": 107040,
          "time": 150.675525,
          "velocity": 0.6456692913385826
        },
        {
          "duration": 0.06475218750003364,
          "durationTicks": 46,
          "midi": 62,
          "name": "D4",
          "ticks": 107040,
          "time": 150.675525,
          "velocity": 0.6456692913385826
        },
        {
          "duration": 0.056306250000005775,
          "durationTicks": 40,
          "midi": 74,
          "name": "D5",
          "ticks": 108096,
          "time": 152.16201,
          "velocity": 0.6456692913385826
        },
        {
          "duration": 0.056306250000005775,
          "durationTicks": 40,
          "midi": 62,
          "name": "D4",
          "ticks": 108096,
          "time": 152.16201,
          "velocity": 0.6456692913385826
        },
        {
          "duration": 0.06475218750003364,
          "durationTicks": 46,
          "midi": 74,
          "name": "D5",
          "ticks": 108288,
          "time": 152.43228,
          "velocity": 0.6692913385826772
        },
        {
          "duration": 0.06475218750003364,
          "durationTicks": 46,
          "midi": 62,
          "name": "D4",
          "ticks": 108288,
          "time": 152.43228,
          "velocity": 0.6692913385826772
        },
        {
          "duration": 0.06475218750000522,
          "durationTicks": 46,
          "midi": 74,
          "name": "D5",
          "ticks": 108384,
          "time": 152.567415,
          "velocity": 0.6456692913385826
        },
        {
          "duration": 0.06475218750000522,
          "durationTicks": 46,
          "midi": 62,
          "name": "D4",
          "ticks": 108384,
          "time": 152.567415,
          "velocity": 0.6456692913385826
        },
        {
          "duration": 0.06475218750003364,
          "durationTicks": 46,
          "midi": 74,
          "name": "D5",
          "ticks": 108576,
          "time": 152.837685,
          "velocity": 0.6456692913385826
        },
        {
          "duration": 0.06475218750003364,
          "durationTicks": 46,
          "midi": 62,
          "name": "D4",
          "ticks": 108576,
          "time": 152.837685,
          "velocity": 0.6456692913385826
        },
        {
          "duration": 0.056306250000005775,
          "durationTicks": 40,
          "midi": 74,
          "name": "D5",
          "ticks": 109632,
          "time": 154.32417,
          "velocity": 0.6456692913385826
        },
        {
          "duration": 0.056306250000005775,
          "durationTicks": 40,
          "midi": 62,
          "name": "D4",
          "ticks": 109632,
          "time": 154.32417,
          "velocity": 0.6456692913385826
        },
        {
          "duration": 0.06475218750000522,
          "durationTicks": 46,
          "midi": 74,
          "name": "D5",
          "ticks": 109824,
          "time": 154.59444000000002,
          "velocity": 0.6692913385826772
        },
        {
          "duration": 0.06475218750000522,
          "durationTicks": 46,
          "midi": 62,
          "name": "D4",
          "ticks": 109824,
          "time": 154.59444000000002,
          "velocity": 0.6692913385826772
        },
        {
          "duration": 0.06475218750000522,
          "durationTicks": 46,
          "midi": 74,
          "name": "D5",
          "ticks": 109920,
          "time": 154.729575,
          "velocity": 0.6456692913385826
        },
        {
          "duration": 0.06475218750000522,
          "durationTicks": 46,
          "midi": 62,
          "name": "D4",
          "ticks": 109920,
          "time": 154.729575,
          "velocity": 0.6456692913385826
        },
        {
          "duration": 0.06475218750003364,
          "durationTicks": 46,
          "midi": 74,
          "name": "D5",
          "ticks": 110112,
          "time": 154.999845,
          "velocity": 0.6456692913385826
        },
        {
          "duration": 0.06475218750003364,
          "durationTicks": 46,
          "midi": 62,
          "name": "D4",
          "ticks": 110112,
          "time": 154.999845,
          "velocity": 0.6456692913385826
        },
        {
          "duration": 0.056306250000005775,
          "durationTicks": 40,
          "midi": 74,
          "name": "D5",
          "ticks": 111168,
          "time": 156.48633,
          "velocity": 0.6456692913385826
        },
        {
          "duration": 0.056306250000005775,
          "durationTicks": 40,
          "midi": 62,
          "name": "D4",
          "ticks": 111168,
          "time": 156.48633,
          "velocity": 0.6456692913385826
        },
        {
          "duration": 0.06475218750003364,
          "durationTicks": 46,
          "midi": 74,
          "name": "D5",
          "ticks": 111360,
          "time": 156.7566,
          "velocity": 0.6692913385826772
        },
        {
          "duration": 0.06475218750003364,
          "durationTicks": 46,
          "midi": 62,
          "name": "D4",
          "ticks": 111360,
          "time": 156.7566,
          "velocity": 0.6692913385826772
        },
        {
          "duration": 0.06475218750000522,
          "durationTicks": 46,
          "midi": 74,
          "name": "D5",
          "ticks": 111456,
          "time": 156.891735,
          "velocity": 0.6456692913385826
        },
        {
          "duration": 0.06475218750000522,
          "durationTicks": 46,
          "midi": 62,
          "name": "D4",
          "ticks": 111456,
          "time": 156.891735,
          "velocity": 0.6456692913385826
        },
        {
          "duration": 0.06475218750003364,
          "durationTicks": 46,
          "midi": 74,
          "name": "D5",
          "ticks": 111648,
          "time": 157.162005,
          "velocity": 0.6456692913385826
        },
        {
          "duration": 0.06475218750003364,
          "durationTicks": 46,
          "midi": 62,
          "name": "D4",
          "ticks": 111648,
          "time": 157.162005,
          "velocity": 0.6456692913385826
        },
        {
          "duration": 0.056306250000005775,
          "durationTicks": 40,
          "midi": 74,
          "name": "D5",
          "ticks": 112704,
          "time": 158.64849,
          "velocity": 0.6456692913385826
        },
        {
          "duration": 0.056306250000005775,
          "durationTicks": 40,
          "midi": 62,
          "name": "D4",
          "ticks": 112704,
          "time": 158.64849,
          "velocity": 0.6456692913385826
        },
        {
          "duration": 0.06475218750000522,
          "durationTicks": 46,
          "midi": 74,
          "name": "D5",
          "ticks": 112896,
          "time": 158.91876000000002,
          "velocity": 0.6692913385826772
        },
        {
          "duration": 0.06475218750000522,
          "durationTicks": 46,
          "midi": 62,
          "name": "D4",
          "ticks": 112896,
          "time": 158.91876000000002,
          "velocity": 0.6692913385826772
        },
        {
          "duration": 0.06475218750000522,
          "durationTicks": 46,
          "midi": 74,
          "name": "D5",
          "ticks": 112992,
          "time": 159.053895,
          "velocity": 0.6456692913385826
        },
        {
          "duration": 0.06475218750000522,
          "durationTicks": 46,
          "midi": 62,
          "name": "D4",
          "ticks": 112992,
          "time": 159.053895,
          "velocity": 0.6456692913385826
        },
        {
          "duration": 0.06475218750003364,
          "durationTicks": 46,
          "midi": 74,
          "name": "D5",
          "ticks": 113184,
          "time": 159.324165,
          "velocity": 0.6456692913385826
        },
        {
          "duration": 0.06475218750003364,
          "durationTicks": 46,
          "midi": 62,
          "name": "D4",
          "ticks": 113184,
          "time": 159.324165,
          "velocity": 0.6456692913385826
        },
        {
          "duration": 0.056306250000005775,
          "durationTicks": 40,
          "midi": 74,
          "name": "D5",
          "ticks": 114240,
          "time": 160.81065,
          "velocity": 0.6456692913385826
        },
        {
          "duration": 0.056306250000005775,
          "durationTicks": 40,
          "midi": 62,
          "name": "D4",
          "ticks": 114240,
          "time": 160.81065,
          "velocity": 0.6456692913385826
        },
        {
          "duration": 0.06475218750003364,
          "durationTicks": 46,
          "midi": 74,
          "name": "D5",
          "ticks": 114432,
          "time": 161.08092,
          "velocity": 0.6692913385826772
        },
        {
          "duration": 0.06475218750003364,
          "durationTicks": 46,
          "midi": 62,
          "name": "D4",
          "ticks": 114432,
          "time": 161.08092,
          "velocity": 0.6692913385826772
        },
        {
          "duration": 0.06475218750000522,
          "durationTicks": 46,
          "midi": 74,
          "name": "D5",
          "ticks": 114528,
          "time": 161.216055,
          "velocity": 0.6456692913385826
        },
        {
          "duration": 0.06475218750000522,
          "durationTicks": 46,
          "midi": 62,
          "name": "D4",
          "ticks": 114528,
          "time": 161.216055,
          "velocity": 0.6456692913385826
        },
        {
          "duration": 0.06475218750003364,
          "durationTicks": 46,
          "midi": 74,
          "name": "D5",
          "ticks": 114720,
          "time": 161.486325,
          "velocity": 0.6456692913385826
        },
        {
          "duration": 0.06475218750003364,
          "durationTicks": 46,
          "midi": 62,
          "name": "D4",
          "ticks": 114720,
          "time": 161.486325,
          "velocity": 0.6456692913385826
        },
        {
          "duration": 0.056306250000005775,
          "durationTicks": 40,
          "midi": 74,
          "name": "D5",
          "ticks": 115776,
          "time": 162.97281,
          "velocity": 0.6456692913385826
        },
        {
          "duration": 0.056306250000005775,
          "durationTicks": 40,
          "midi": 62,
          "name": "D4",
          "ticks": 115776,
          "time": 162.97281,
          "velocity": 0.6456692913385826
        },
        {
          "duration": 0.06475218750000522,
          "durationTicks": 46,
          "midi": 74,
          "name": "D5",
          "ticks": 115968,
          "time": 163.24308000000002,
          "velocity": 0.6692913385826772
        },
        {
          "duration": 0.06475218750000522,
          "durationTicks": 46,
          "midi": 62,
          "name": "D4",
          "ticks": 115968,
          "time": 163.24308000000002,
          "velocity": 0.6692913385826772
        },
        {
          "duration": 0.06475218750000522,
          "durationTicks": 46,
          "midi": 74,
          "name": "D5",
          "ticks": 116064,
          "time": 163.378215,
          "velocity": 0.6456692913385826
        },
        {
          "duration": 0.06475218750000522,
          "durationTicks": 46,
          "midi": 62,
          "name": "D4",
          "ticks": 116064,
          "time": 163.378215,
          "velocity": 0.6456692913385826
        },
        {
          "duration": 0.06475218750003364,
          "durationTicks": 46,
          "midi": 74,
          "name": "D5",
          "ticks": 116256,
          "time": 163.648485,
          "velocity": 0.6456692913385826
        },
        {
          "duration": 0.06475218750003364,
          "durationTicks": 46,
          "midi": 62,
          "name": "D4",
          "ticks": 116256,
          "time": 163.648485,
          "velocity": 0.6456692913385826
        },
        {
          "duration": 0.056306250000005775,
          "durationTicks": 40,
          "midi": 74,
          "name": "D5",
          "ticks": 117312,
          "time": 165.13497,
          "velocity": 0.6456692913385826
        },
        {
          "duration": 0.056306250000005775,
          "durationTicks": 40,
          "midi": 62,
          "name": "D4",
          "ticks": 117312,
          "time": 165.13497,
          "velocity": 0.6456692913385826
        },
        {
          "duration": 0.06475218750003364,
          "durationTicks": 46,
          "midi": 74,
          "name": "D5",
          "ticks": 117504,
          "time": 165.40524,
          "velocity": 0.6692913385826772
        },
        {
          "duration": 0.06475218750003364,
          "durationTicks": 46,
          "midi": 62,
          "name": "D4",
          "ticks": 117504,
          "time": 165.40524,
          "velocity": 0.6692913385826772
        },
        {
          "duration": 0.06475218750000522,
          "durationTicks": 46,
          "midi": 74,
          "name": "D5",
          "ticks": 117600,
          "time": 165.540375,
          "velocity": 0.6456692913385826
        },
        {
          "duration": 0.06475218750000522,
          "durationTicks": 46,
          "midi": 62,
          "name": "D4",
          "ticks": 117600,
          "time": 165.540375,
          "velocity": 0.6456692913385826
        },
        {
          "duration": 0.06475218750003364,
          "durationTicks": 46,
          "midi": 74,
          "name": "D5",
          "ticks": 117792,
          "time": 165.810645,
          "velocity": 0.6456692913385826
        },
        {
          "duration": 0.06475218750003364,
          "durationTicks": 46,
          "midi": 62,
          "name": "D4",
          "ticks": 117792,
          "time": 165.810645,
          "velocity": 0.6456692913385826
        },
        {
          "duration": 0.056306250000005775,
          "durationTicks": 40,
          "midi": 74,
          "name": "D5",
          "ticks": 118848,
          "time": 167.29713,
          "velocity": 0.6456692913385826
        },
        {
          "duration": 0.056306250000005775,
          "durationTicks": 40,
          "midi": 62,
          "name": "D4",
          "ticks": 118848,
          "time": 167.29713,
          "velocity": 0.6456692913385826
        },
        {
          "duration": 0.06475218750000522,
          "durationTicks": 46,
          "midi": 74,
          "name": "D5",
          "ticks": 119040,
          "time": 167.56740000000002,
          "velocity": 0.6692913385826772
        },
        {
          "duration": 0.06475218750000522,
          "durationTicks": 46,
          "midi": 62,
          "name": "D4",
          "ticks": 119040,
          "time": 167.56740000000002,
          "velocity": 0.6692913385826772
        },
        {
          "duration": 0.06475218750000522,
          "durationTicks": 46,
          "midi": 74,
          "name": "D5",
          "ticks": 119136,
          "time": 167.702535,
          "velocity": 0.6456692913385826
        },
        {
          "duration": 0.06475218750000522,
          "durationTicks": 46,
          "midi": 62,
          "name": "D4",
          "ticks": 119136,
          "time": 167.702535,
          "velocity": 0.6456692913385826
        },
        {
          "duration": 0.06475218750003364,
          "durationTicks": 46,
          "midi": 74,
          "name": "D5",
          "ticks": 119328,
          "time": 167.972805,
          "velocity": 0.6456692913385826
        },
        {
          "duration": 0.06475218750003364,
          "durationTicks": 46,
          "midi": 62,
          "name": "D4",
          "ticks": 119328,
          "time": 167.972805,
          "velocity": 0.6456692913385826
        },
        {
          "duration": 0.056306250000005775,
          "durationTicks": 40,
          "midi": 74,
          "name": "D5",
          "ticks": 120384,
          "time": 169.45929,
          "velocity": 0.6456692913385826
        },
        {
          "duration": 0.056306250000005775,
          "durationTicks": 40,
          "midi": 62,
          "name": "D4",
          "ticks": 120384,
          "time": 169.45929,
          "velocity": 0.6456692913385826
        },
        {
          "duration": 0.06475218750003364,
          "durationTicks": 46,
          "midi": 74,
          "name": "D5",
          "ticks": 120576,
          "time": 169.72956,
          "velocity": 0.6692913385826772
        },
        {
          "duration": 0.06475218750003364,
          "durationTicks": 46,
          "midi": 62,
          "name": "D4",
          "ticks": 120576,
          "time": 169.72956,
          "velocity": 0.6692913385826772
        },
        {
          "duration": 0.06475218750000522,
          "durationTicks": 46,
          "midi": 74,
          "name": "D5",
          "ticks": 120672,
          "time": 169.864695,
          "velocity": 0.6456692913385826
        },
        {
          "duration": 0.06475218750000522,
          "durationTicks": 46,
          "midi": 62,
          "name": "D4",
          "ticks": 120672,
          "time": 169.864695,
          "velocity": 0.6456692913385826
        },
        {
          "duration": 0.06475218750003364,
          "durationTicks": 46,
          "midi": 74,
          "name": "D5",
          "ticks": 120864,
          "time": 170.134965,
          "velocity": 0.6456692913385826
        },
        {
          "duration": 0.06475218750003364,
          "durationTicks": 46,
          "midi": 62,
          "name": "D4",
          "ticks": 120864,
          "time": 170.134965,
          "velocity": 0.6456692913385826
        },
        {
          "duration": 0.056306250000005775,
          "durationTicks": 40,
          "midi": 74,
          "name": "D5",
          "ticks": 121920,
          "time": 171.62145,
          "velocity": 0.6456692913385826
        },
        {
          "duration": 0.056306250000005775,
          "durationTicks": 40,
          "midi": 62,
          "name": "D4",
          "ticks": 121920,
          "time": 171.62145,
          "velocity": 0.6456692913385826
        },
        {
          "duration": 0.06475218750000522,
          "durationTicks": 46,
          "midi": 74,
          "name": "D5",
          "ticks": 122112,
          "time": 171.89172000000002,
          "velocity": 0.6692913385826772
        },
        {
          "duration": 0.06475218750000522,
          "durationTicks": 46,
          "midi": 62,
          "name": "D4",
          "ticks": 122112,
          "time": 171.89172000000002,
          "velocity": 0.6692913385826772
        },
        {
          "duration": 0.06475218750000522,
          "durationTicks": 46,
          "midi": 74,
          "name": "D5",
          "ticks": 122208,
          "time": 172.026855,
          "velocity": 0.6456692913385826
        },
        {
          "duration": 0.06475218750000522,
          "durationTicks": 46,
          "midi": 62,
          "name": "D4",
          "ticks": 122208,
          "time": 172.026855,
          "velocity": 0.6456692913385826
        },
        {
          "duration": 0.06475218750003364,
          "durationTicks": 46,
          "midi": 74,
          "name": "D5",
          "ticks": 122400,
          "time": 172.297125,
          "velocity": 0.6456692913385826
        },
        {
          "duration": 0.06475218750003364,
          "durationTicks": 46,
          "midi": 62,
          "name": "D4",
          "ticks": 122400,
          "time": 172.297125,
          "velocity": 0.6456692913385826
        },
        {
          "duration": 0.056306250000005775,
          "durationTicks": 40,
          "midi": 74,
          "name": "D5",
          "ticks": 123456,
          "time": 173.78361,
          "velocity": 0.6456692913385826
        },
        {
          "duration": 0.056306250000005775,
          "durationTicks": 40,
          "midi": 62,
          "name": "D4",
          "ticks": 123456,
          "time": 173.78361,
          "velocity": 0.6456692913385826
        },
        {
          "duration": 0.06475218750003364,
          "durationTicks": 46,
          "midi": 74,
          "name": "D5",
          "ticks": 123648,
          "time": 174.05388,
          "velocity": 0.6692913385826772
        },
        {
          "duration": 0.06475218750003364,
          "durationTicks": 46,
          "midi": 62,
          "name": "D4",
          "ticks": 123648,
          "time": 174.05388,
          "velocity": 0.6692913385826772
        },
        {
          "duration": 0.06475218750000522,
          "durationTicks": 46,
          "midi": 74,
          "name": "D5",
          "ticks": 123744,
          "time": 174.189015,
          "velocity": 0.6456692913385826
        },
        {
          "duration": 0.06475218750000522,
          "durationTicks": 46,
          "midi": 62,
          "name": "D4",
          "ticks": 123744,
          "time": 174.189015,
          "velocity": 0.6456692913385826
        },
        {
          "duration": 0.06475218750003364,
          "durationTicks": 46,
          "midi": 74,
          "name": "D5",
          "ticks": 123936,
          "time": 174.459285,
          "velocity": 0.6456692913385826
        },
        {
          "duration": 0.06475218750003364,
          "durationTicks": 46,
          "midi": 62,
          "name": "D4",
          "ticks": 123936,
          "time": 174.459285,
          "velocity": 0.6456692913385826
        },
        {
          "duration": 0.056306250000005775,
          "durationTicks": 40,
          "midi": 74,
          "name": "D5",
          "ticks": 124992,
          "time": 175.94577,
          "velocity": 0.6456692913385826
        },
        {
          "duration": 0.056306250000005775,
          "durationTicks": 40,
          "midi": 62,
          "name": "D4",
          "ticks": 124992,
          "time": 175.94577,
          "velocity": 0.6456692913385826
        },
        {
          "duration": 0.06475218750000522,
          "durationTicks": 46,
          "midi": 74,
          "name": "D5",
          "ticks": 125184,
          "time": 176.21604000000002,
          "velocity": 0.6692913385826772
        },
        {
          "duration": 0.06475218750000522,
          "durationTicks": 46,
          "midi": 62,
          "name": "D4",
          "ticks": 125184,
          "time": 176.21604000000002,
          "velocity": 0.6692913385826772
        },
        {
          "duration": 0.06475218750000522,
          "durationTicks": 46,
          "midi": 74,
          "name": "D5",
          "ticks": 125280,
          "time": 176.351175,
          "velocity": 0.6456692913385826
        },
        {
          "duration": 0.06475218750000522,
          "durationTicks": 46,
          "midi": 62,
          "name": "D4",
          "ticks": 125280,
          "time": 176.351175,
          "velocity": 0.6456692913385826
        },
        {
          "duration": 0.06475218750003364,
          "durationTicks": 46,
          "midi": 74,
          "name": "D5",
          "ticks": 125472,
          "time": 176.621445,
          "velocity": 0.6456692913385826
        },
        {
          "duration": 0.06475218750003364,
          "durationTicks": 46,
          "midi": 62,
          "name": "D4",
          "ticks": 125472,
          "time": 176.621445,
          "velocity": 0.6456692913385826
        },
        {
          "duration": 0.056306250000005775,
          "durationTicks": 40,
          "midi": 74,
          "name": "D5",
          "ticks": 126528,
          "time": 178.10793,
          "velocity": 0.6456692913385826
        },
        {
          "duration": 0.056306250000005775,
          "durationTicks": 40,
          "midi": 62,
          "name": "D4",
          "ticks": 126528,
          "time": 178.10793,
          "velocity": 0.6456692913385826
        },
        {
          "duration": 0.06475218750003364,
          "durationTicks": 46,
          "midi": 74,
          "name": "D5",
          "ticks": 126720,
          "time": 178.3782,
          "velocity": 0.6692913385826772
        },
        {
          "duration": 0.06475218750003364,
          "durationTicks": 46,
          "midi": 62,
          "name": "D4",
          "ticks": 126720,
          "time": 178.3782,
          "velocity": 0.6692913385826772
        },
        {
          "duration": 0.06475218750000522,
          "durationTicks": 46,
          "midi": 74,
          "name": "D5",
          "ticks": 126816,
          "time": 178.513335,
          "velocity": 0.6456692913385826
        },
        {
          "duration": 0.06475218750000522,
          "durationTicks": 46,
          "midi": 62,
          "name": "D4",
          "ticks": 126816,
          "time": 178.513335,
          "velocity": 0.6456692913385826
        },
        {
          "duration": 0.06475218750003364,
          "durationTicks": 46,
          "midi": 74,
          "name": "D5",
          "ticks": 127008,
          "time": 178.783605,
          "velocity": 0.6456692913385826
        },
        {
          "duration": 0.06475218750003364,
          "durationTicks": 46,
          "midi": 62,
          "name": "D4",
          "ticks": 127008,
          "time": 178.783605,
          "velocity": 0.6456692913385826
        },
        {
          "duration": 0.056306250000005775,
          "durationTicks": 40,
          "midi": 74,
          "name": "D5",
          "ticks": 128064,
          "time": 180.27009,
          "velocity": 0.6456692913385826
        },
        {
          "duration": 0.056306250000005775,
          "durationTicks": 40,
          "midi": 62,
          "name": "D4",
          "ticks": 128064,
          "time": 180.27009,
          "velocity": 0.6456692913385826
        },
        {
          "duration": 0.06475218750000522,
          "durationTicks": 46,
          "midi": 74,
          "name": "D5",
          "ticks": 128256,
          "time": 180.54036000000002,
          "velocity": 0.6692913385826772
        },
        {
          "duration": 0.06475218750000522,
          "durationTicks": 46,
          "midi": 62,
          "name": "D4",
          "ticks": 128256,
          "time": 180.54036000000002,
          "velocity": 0.6692913385826772
        },
        {
          "duration": 0.06475218750000522,
          "durationTicks": 46,
          "midi": 74,
          "name": "D5",
          "ticks": 128352,
          "time": 180.675495,
          "velocity": 0.6456692913385826
        },
        {
          "duration": 0.06475218750000522,
          "durationTicks": 46,
          "midi": 62,
          "name": "D4",
          "ticks": 128352,
          "time": 180.675495,
          "velocity": 0.6456692913385826
        },
        {
          "duration": 0.06475218750003364,
          "durationTicks": 46,
          "midi": 74,
          "name": "D5",
          "ticks": 128544,
          "time": 180.945765,
          "velocity": 0.6456692913385826
        },
        {
          "duration": 0.06475218750003364,
          "durationTicks": 46,
          "midi": 62,
          "name": "D4",
          "ticks": 128544,
          "time": 180.945765,
          "velocity": 0.6456692913385826
        },
        {
          "duration": 0.056306250000005775,
          "durationTicks": 40,
          "midi": 74,
          "name": "D5",
          "ticks": 129600,
          "time": 182.43225,
          "velocity": 0.6456692913385826
        },
        {
          "duration": 0.056306250000005775,
          "durationTicks": 40,
          "midi": 62,
          "name": "D4",
          "ticks": 129600,
          "time": 182.43225,
          "velocity": 0.6456692913385826
        },
        {
          "duration": 0.06475218750003364,
          "durationTicks": 46,
          "midi": 74,
          "name": "D5",
          "ticks": 129792,
          "time": 182.70252,
          "velocity": 0.6692913385826772
        },
        {
          "duration": 0.06475218750003364,
          "durationTicks": 46,
          "midi": 62,
          "name": "D4",
          "ticks": 129792,
          "time": 182.70252,
          "velocity": 0.6692913385826772
        },
        {
          "duration": 0.06475218750000522,
          "durationTicks": 46,
          "midi": 74,
          "name": "D5",
          "ticks": 129888,
          "time": 182.837655,
          "velocity": 0.6456692913385826
        },
        {
          "duration": 0.06475218750000522,
          "durationTicks": 46,
          "midi": 62,
          "name": "D4",
          "ticks": 129888,
          "time": 182.837655,
          "velocity": 0.6456692913385826
        },
        {
          "duration": 0.06475218750003364,
          "durationTicks": 46,
          "midi": 74,
          "name": "D5",
          "ticks": 130080,
          "time": 183.107925,
          "velocity": 0.6456692913385826
        },
        {
          "duration": 0.06475218750003364,
          "durationTicks": 46,
          "midi": 62,
          "name": "D4",
          "ticks": 130080,
          "time": 183.107925,
          "velocity": 0.6456692913385826
        },
        {
          "duration": 0.056306250000005775,
          "durationTicks": 40,
          "midi": 74,
          "name": "D5",
          "ticks": 131136,
          "time": 184.59441,
          "velocity": 0.6456692913385826
        },
        {
          "duration": 0.056306250000005775,
          "durationTicks": 40,
          "midi": 62,
          "name": "D4",
          "ticks": 131136,
          "time": 184.59441,
          "velocity": 0.6456692913385826
        },
        {
          "duration": 0.06475218750000522,
          "durationTicks": 46,
          "midi": 74,
          "name": "D5",
          "ticks": 131328,
          "time": 184.86468000000002,
          "velocity": 0.6692913385826772
        },
        {
          "duration": 0.06475218750000522,
          "durationTicks": 46,
          "midi": 62,
          "name": "D4",
          "ticks": 131328,
          "time": 184.86468000000002,
          "velocity": 0.6692913385826772
        },
        {
          "duration": 0.06475218750000522,
          "durationTicks": 46,
          "midi": 74,
          "name": "D5",
          "ticks": 131424,
          "time": 184.999815,
          "velocity": 0.6456692913385826
        },
        {
          "duration": 0.06475218750000522,
          "durationTicks": 46,
          "midi": 62,
          "name": "D4",
          "ticks": 131424,
          "time": 184.999815,
          "velocity": 0.6456692913385826
        },
        {
          "duration": 0.06475218750003364,
          "durationTicks": 46,
          "midi": 74,
          "name": "D5",
          "ticks": 131616,
          "time": 185.270085,
          "velocity": 0.6456692913385826
        },
        {
          "duration": 0.06475218750003364,
          "durationTicks": 46,
          "midi": 62,
          "name": "D4",
          "ticks": 131616,
          "time": 185.270085,
          "velocity": 0.6456692913385826
        },
        {
          "duration": 0.056306250000005775,
          "durationTicks": 40,
          "midi": 74,
          "name": "D5",
          "ticks": 132672,
          "time": 186.75657,
          "velocity": 0.6456692913385826
        },
        {
          "duration": 0.056306250000005775,
          "durationTicks": 40,
          "midi": 62,
          "name": "D4",
          "ticks": 132672,
          "time": 186.75657,
          "velocity": 0.6456692913385826
        },
        {
          "duration": 0.06475218750003364,
          "durationTicks": 46,
          "midi": 74,
          "name": "D5",
          "ticks": 132864,
          "time": 187.02684,
          "velocity": 0.6692913385826772
        },
        {
          "duration": 0.06475218750003364,
          "durationTicks": 46,
          "midi": 62,
          "name": "D4",
          "ticks": 132864,
          "time": 187.02684,
          "velocity": 0.6692913385826772
        },
        {
          "duration": 0.06475218750000522,
          "durationTicks": 46,
          "midi": 74,
          "name": "D5",
          "ticks": 132960,
          "time": 187.161975,
          "velocity": 0.6456692913385826
        },
        {
          "duration": 0.06475218750000522,
          "durationTicks": 46,
          "midi": 62,
          "name": "D4",
          "ticks": 132960,
          "time": 187.161975,
          "velocity": 0.6456692913385826
        },
        {
          "duration": 0.06475218750003364,
          "durationTicks": 46,
          "midi": 74,
          "name": "D5",
          "ticks": 133152,
          "time": 187.432245,
          "velocity": 0.6456692913385826
        },
        {
          "duration": 0.06475218750003364,
          "durationTicks": 46,
          "midi": 62,
          "name": "D4",
          "ticks": 133152,
          "time": 187.432245,
          "velocity": 0.6456692913385826
        },
        {
          "duration": 0.056306250000005775,
          "durationTicks": 40,
          "midi": 74,
          "name": "D5",
          "ticks": 134208,
          "time": 188.91873,
          "velocity": 0.6456692913385826
        },
        {
          "duration": 0.056306250000005775,
          "durationTicks": 40,
          "midi": 62,
          "name": "D4",
          "ticks": 134208,
          "time": 188.91873,
          "velocity": 0.6456692913385826
        },
        {
          "duration": 0.06475218750000522,
          "durationTicks": 46,
          "midi": 74,
          "name": "D5",
          "ticks": 134400,
          "time": 189.18900000000002,
          "velocity": 0.6692913385826772
        },
        {
          "duration": 0.06475218750000522,
          "durationTicks": 46,
          "midi": 62,
          "name": "D4",
          "ticks": 134400,
          "time": 189.18900000000002,
          "velocity": 0.6692913385826772
        },
        {
          "duration": 0.06475218750000522,
          "durationTicks": 46,
          "midi": 74,
          "name": "D5",
          "ticks": 134496,
          "time": 189.324135,
          "velocity": 0.6456692913385826
        },
        {
          "duration": 0.06475218750000522,
          "durationTicks": 46,
          "midi": 62,
          "name": "D4",
          "ticks": 134496,
          "time": 189.324135,
          "velocity": 0.6456692913385826
        },
        {
          "duration": 0.06475218750003364,
          "durationTicks": 46,
          "midi": 74,
          "name": "D5",
          "ticks": 134688,
          "time": 189.594405,
          "velocity": 0.6456692913385826
        },
        {
          "duration": 0.06475218750003364,
          "durationTicks": 46,
          "midi": 62,
          "name": "D4",
          "ticks": 134688,
          "time": 189.594405,
          "velocity": 0.6456692913385826
        },
        {
          "duration": 0.056306250000005775,
          "durationTicks": 40,
          "midi": 74,
          "name": "D5",
          "ticks": 135744,
          "time": 191.08089,
          "velocity": 0.6456692913385826
        },
        {
          "duration": 0.056306250000005775,
          "durationTicks": 40,
          "midi": 62,
          "name": "D4",
          "ticks": 135744,
          "time": 191.08089,
          "velocity": 0.6456692913385826
        },
        {
          "duration": 0.06475218750003364,
          "durationTicks": 46,
          "midi": 74,
          "name": "D5",
          "ticks": 135936,
          "time": 191.35116,
          "velocity": 0.6692913385826772
        },
        {
          "duration": 0.06475218750003364,
          "durationTicks": 46,
          "midi": 62,
          "name": "D4",
          "ticks": 135936,
          "time": 191.35116,
          "velocity": 0.6692913385826772
        },
        {
          "duration": 0.06475218750000522,
          "durationTicks": 46,
          "midi": 74,
          "name": "D5",
          "ticks": 136032,
          "time": 191.486295,
          "velocity": 0.6456692913385826
        },
        {
          "duration": 0.06475218750000522,
          "durationTicks": 46,
          "midi": 62,
          "name": "D4",
          "ticks": 136032,
          "time": 191.486295,
          "velocity": 0.6456692913385826
        },
        {
          "duration": 0.06475218750003364,
          "durationTicks": 46,
          "midi": 74,
          "name": "D5",
          "ticks": 136224,
          "time": 191.756565,
          "velocity": 0.6456692913385826
        },
        {
          "duration": 0.06475218750003364,
          "durationTicks": 46,
          "midi": 62,
          "name": "D4",
          "ticks": 136224,
          "time": 191.756565,
          "velocity": 0.6456692913385826
        },
        {
          "duration": 0.056306250000005775,
          "durationTicks": 40,
          "midi": 74,
          "name": "D5",
          "ticks": 137280,
          "time": 193.24305,
          "velocity": 0.6456692913385826
        },
        {
          "duration": 0.056306250000005775,
          "durationTicks": 40,
          "midi": 62,
          "name": "D4",
          "ticks": 137280,
          "time": 193.24305,
          "velocity": 0.6456692913385826
        },
        {
          "duration": 0.06475218750000522,
          "durationTicks": 46,
          "midi": 74,
          "name": "D5",
          "ticks": 137472,
          "time": 193.51332000000002,
          "velocity": 0.6692913385826772
        },
        {
          "duration": 0.06475218750000522,
          "durationTicks": 46,
          "midi": 62,
          "name": "D4",
          "ticks": 137472,
          "time": 193.51332000000002,
          "velocity": 0.6692913385826772
        },
        {
          "duration": 0.06475218750000522,
          "durationTicks": 46,
          "midi": 74,
          "name": "D5",
          "ticks": 137568,
          "time": 193.648455,
          "velocity": 0.6456692913385826
        },
        {
          "duration": 0.06475218750000522,
          "durationTicks": 46,
          "midi": 62,
          "name": "D4",
          "ticks": 137568,
          "time": 193.648455,
          "velocity": 0.6456692913385826
        },
        {
          "duration": 0.06475218750003364,
          "durationTicks": 46,
          "midi": 74,
          "name": "D5",
          "ticks": 137760,
          "time": 193.918725,
          "velocity": 0.6456692913385826
        },
        {
          "duration": 0.06475218750003364,
          "durationTicks": 46,
          "midi": 62,
          "name": "D4",
          "ticks": 137760,
          "time": 193.918725,
          "velocity": 0.6456692913385826
        },
        {
          "duration": 0.056306250000005775,
          "durationTicks": 40,
          "midi": 74,
          "name": "D5",
          "ticks": 138816,
          "time": 195.40521,
          "velocity": 0.6456692913385826
        },
        {
          "duration": 0.056306250000005775,
          "durationTicks": 40,
          "midi": 62,
          "name": "D4",
          "ticks": 138816,
          "time": 195.40521,
          "velocity": 0.6456692913385826
        },
        {
          "duration": 0.06475218750003364,
          "durationTicks": 46,
          "midi": 74,
          "name": "D5",
          "ticks": 139008,
          "time": 195.67548,
          "velocity": 0.6692913385826772
        },
        {
          "duration": 0.06475218750003364,
          "durationTicks": 46,
          "midi": 62,
          "name": "D4",
          "ticks": 139008,
          "time": 195.67548,
          "velocity": 0.6692913385826772
        },
        {
          "duration": 0.06475218750000522,
          "durationTicks": 46,
          "midi": 74,
          "name": "D5",
          "ticks": 139104,
          "time": 195.810615,
          "velocity": 0.6456692913385826
        },
        {
          "duration": 0.06475218750000522,
          "durationTicks": 46,
          "midi": 62,
          "name": "D4",
          "ticks": 139104,
          "time": 195.810615,
          "velocity": 0.6456692913385826
        },
        {
          "duration": 0.06475218750003364,
          "durationTicks": 46,
          "midi": 74,
          "name": "D5",
          "ticks": 139296,
          "time": 196.080885,
          "velocity": 0.6456692913385826
        },
        {
          "duration": 0.06475218750003364,
          "durationTicks": 46,
          "midi": 62,
          "name": "D4",
          "ticks": 139296,
          "time": 196.080885,
          "velocity": 0.6456692913385826
        },
        {
          "duration": 0.056306250000005775,
          "durationTicks": 40,
          "midi": 74,
          "name": "D5",
          "ticks": 140352,
          "time": 197.56737,
          "velocity": 0.6456692913385826
        },
        {
          "duration": 0.056306250000005775,
          "durationTicks": 40,
          "midi": 62,
          "name": "D4",
          "ticks": 140352,
          "time": 197.56737,
          "velocity": 0.6456692913385826
        },
        {
          "duration": 0.06475218750000522,
          "durationTicks": 46,
          "midi": 74,
          "name": "D5",
          "ticks": 140544,
          "time": 197.83764000000002,
          "velocity": 0.6692913385826772
        },
        {
          "duration": 0.06475218750000522,
          "durationTicks": 46,
          "midi": 62,
          "name": "D4",
          "ticks": 140544,
          "time": 197.83764000000002,
          "velocity": 0.6692913385826772
        },
        {
          "duration": 0.06475218750000522,
          "durationTicks": 46,
          "midi": 74,
          "name": "D5",
          "ticks": 140640,
          "time": 197.972775,
          "velocity": 0.6456692913385826
        },
        {
          "duration": 0.06475218750000522,
          "durationTicks": 46,
          "midi": 62,
          "name": "D4",
          "ticks": 140640,
          "time": 197.972775,
          "velocity": 0.6456692913385826
        },
        {
          "duration": 0.06475218750003364,
          "durationTicks": 46,
          "midi": 74,
          "name": "D5",
          "ticks": 140832,
          "time": 198.243045,
          "velocity": 0.6456692913385826
        },
        {
          "duration": 0.06475218750003364,
          "durationTicks": 46,
          "midi": 62,
          "name": "D4",
          "ticks": 140832,
          "time": 198.243045,
          "velocity": 0.6456692913385826
        },
        {
          "duration": 0.056306250000005775,
          "durationTicks": 40,
          "midi": 74,
          "name": "D5",
          "ticks": 141888,
          "time": 199.72953,
          "velocity": 0.6456692913385826
        },
        {
          "duration": 0.056306250000005775,
          "durationTicks": 40,
          "midi": 62,
          "name": "D4",
          "ticks": 141888,
          "time": 199.72953,
          "velocity": 0.6456692913385826
        },
        {
          "duration": 0.06475218750003364,
          "durationTicks": 46,
          "midi": 74,
          "name": "D5",
          "ticks": 142080,
          "time": 199.9998,
          "velocity": 0.6692913385826772
        },
        {
          "duration": 0.06475218750003364,
          "durationTicks": 46,
          "midi": 62,
          "name": "D4",
          "ticks": 142080,
          "time": 199.9998,
          "velocity": 0.6692913385826772
        },
        {
          "duration": 0.06475218750000522,
          "durationTicks": 46,
          "midi": 74,
          "name": "D5",
          "ticks": 142176,
          "time": 200.134935,
          "velocity": 0.6456692913385826
        },
        {
          "duration": 0.06475218750000522,
          "durationTicks": 46,
          "midi": 62,
          "name": "D4",
          "ticks": 142176,
          "time": 200.134935,
          "velocity": 0.6456692913385826
        },
        {
          "duration": 0.06475218750003364,
          "durationTicks": 46,
          "midi": 74,
          "name": "D5",
          "ticks": 142368,
          "time": 200.405205,
          "velocity": 0.6456692913385826
        },
        {
          "duration": 0.06475218750003364,
          "durationTicks": 46,
          "midi": 62,
          "name": "D4",
          "ticks": 142368,
          "time": 200.405205,
          "velocity": 0.6456692913385826
        },
        {
          "duration": 0.056306250000005775,
          "durationTicks": 40,
          "midi": 74,
          "name": "D5",
          "ticks": 143424,
          "time": 201.89169,
          "velocity": 0.6456692913385826
        },
        {
          "duration": 0.056306250000005775,
          "durationTicks": 40,
          "midi": 62,
          "name": "D4",
          "ticks": 143424,
          "time": 201.89169,
          "velocity": 0.6456692913385826
        },
        {
          "duration": 0.06475218750000522,
          "durationTicks": 46,
          "midi": 74,
          "name": "D5",
          "ticks": 143616,
          "time": 202.16196000000002,
          "velocity": 0.6692913385826772
        },
        {
          "duration": 0.06475218750000522,
          "durationTicks": 46,
          "midi": 62,
          "name": "D4",
          "ticks": 143616,
          "time": 202.16196000000002,
          "velocity": 0.6692913385826772
        },
        {
          "duration": 0.06475218750000522,
          "durationTicks": 46,
          "midi": 74,
          "name": "D5",
          "ticks": 143712,
          "time": 202.297095,
          "velocity": 0.6456692913385826
        },
        {
          "duration": 0.06475218750000522,
          "durationTicks": 46,
          "midi": 62,
          "name": "D4",
          "ticks": 143712,
          "time": 202.297095,
          "velocity": 0.6456692913385826
        },
        {
          "duration": 0.06475218750003364,
          "durationTicks": 46,
          "midi": 74,
          "name": "D5",
          "ticks": 143904,
          "time": 202.567365,
          "velocity": 0.6456692913385826
        },
        {
          "duration": 0.06475218750003364,
          "durationTicks": 46,
          "midi": 62,
          "name": "D4",
          "ticks": 143904,
          "time": 202.567365,
          "velocity": 0.6456692913385826
        },
        {
          "duration": 0.056306250000005775,
          "durationTicks": 40,
          "midi": 74,
          "name": "D5",
          "ticks": 144960,
          "time": 204.05385,
          "velocity": 0.6456692913385826
        },
        {
          "duration": 0.056306250000005775,
          "durationTicks": 40,
          "midi": 62,
          "name": "D4",
          "ticks": 144960,
          "time": 204.05385,
          "velocity": 0.6456692913385826
        },
        {
          "duration": 0.06475218750003364,
          "durationTicks": 46,
          "midi": 74,
          "name": "D5",
          "ticks": 145152,
          "time": 204.32412,
          "velocity": 0.6692913385826772
        },
        {
          "duration": 0.06475218750003364,
          "durationTicks": 46,
          "midi": 62,
          "name": "D4",
          "ticks": 145152,
          "time": 204.32412,
          "velocity": 0.6692913385826772
        },
        {
          "duration": 0.06475218750000522,
          "durationTicks": 46,
          "midi": 74,
          "name": "D5",
          "ticks": 145248,
          "time": 204.459255,
          "velocity": 0.6456692913385826
        },
        {
          "duration": 0.06475218750000522,
          "durationTicks": 46,
          "midi": 62,
          "name": "D4",
          "ticks": 145248,
          "time": 204.459255,
          "velocity": 0.6456692913385826
        },
        {
          "duration": 0.06475218750003364,
          "durationTicks": 46,
          "midi": 74,
          "name": "D5",
          "ticks": 145440,
          "time": 204.729525,
          "velocity": 0.6456692913385826
        },
        {
          "duration": 0.06475218750003364,
          "durationTicks": 46,
          "midi": 62,
          "name": "D4",
          "ticks": 145440,
          "time": 204.729525,
          "velocity": 0.6456692913385826
        },
        {
          "duration": 0.056306250000005775,
          "durationTicks": 40,
          "midi": 74,
          "name": "D5",
          "ticks": 146496,
          "time": 206.21601,
          "velocity": 0.6456692913385826
        },
        {
          "duration": 0.056306250000005775,
          "durationTicks": 40,
          "midi": 62,
          "name": "D4",
          "ticks": 146496,
          "time": 206.21601,
          "velocity": 0.6456692913385826
        },
        {
          "duration": 0.06475218750000522,
          "durationTicks": 46,
          "midi": 74,
          "name": "D5",
          "ticks": 146688,
          "time": 206.48628000000002,
          "velocity": 0.6692913385826772
        },
        {
          "duration": 0.06475218750000522,
          "durationTicks": 46,
          "midi": 62,
          "name": "D4",
          "ticks": 146688,
          "time": 206.48628000000002,
          "velocity": 0.6692913385826772
        },
        {
          "duration": 0.06475218750000522,
          "durationTicks": 46,
          "midi": 74,
          "name": "D5",
          "ticks": 146784,
          "time": 206.621415,
          "velocity": 0.6456692913385826
        },
        {
          "duration": 0.06475218750000522,
          "durationTicks": 46,
          "midi": 62,
          "name": "D4",
          "ticks": 146784,
          "time": 206.621415,
          "velocity": 0.6456692913385826
        },
        {
          "duration": 0.06475218750003364,
          "durationTicks": 46,
          "midi": 74,
          "name": "D5",
          "ticks": 146976,
          "time": 206.891685,
          "velocity": 0.6456692913385826
        },
        {
          "duration": 0.06475218750003364,
          "durationTicks": 46,
          "midi": 62,
          "name": "D4",
          "ticks": 146976,
          "time": 206.891685,
          "velocity": 0.6456692913385826
        },
        {
          "duration": 0.056306250000005775,
          "durationTicks": 40,
          "midi": 74,
          "name": "D5",
          "ticks": 148032,
          "time": 208.37817,
          "velocity": 0.6456692913385826
        },
        {
          "duration": 0.056306250000005775,
          "durationTicks": 40,
          "midi": 62,
          "name": "D4",
          "ticks": 148032,
          "time": 208.37817,
          "velocity": 0.6456692913385826
        },
        {
          "duration": 0.06475218750003364,
          "durationTicks": 46,
          "midi": 74,
          "name": "D5",
          "ticks": 148224,
          "time": 208.64844,
          "velocity": 0.6692913385826772
        },
        {
          "duration": 0.06475218750003364,
          "durationTicks": 46,
          "midi": 62,
          "name": "D4",
          "ticks": 148224,
          "time": 208.64844,
          "velocity": 0.6692913385826772
        },
        {
          "duration": 0.06475218750000522,
          "durationTicks": 46,
          "midi": 74,
          "name": "D5",
          "ticks": 148320,
          "time": 208.783575,
          "velocity": 0.6456692913385826
        },
        {
          "duration": 0.06475218750000522,
          "durationTicks": 46,
          "midi": 62,
          "name": "D4",
          "ticks": 148320,
          "time": 208.783575,
          "velocity": 0.6456692913385826
        },
        {
          "duration": 0.06475218750003364,
          "durationTicks": 46,
          "midi": 74,
          "name": "D5",
          "ticks": 148512,
          "time": 209.053845,
          "velocity": 0.6456692913385826
        },
        {
          "duration": 0.06475218750003364,
          "durationTicks": 46,
          "midi": 62,
          "name": "D4",
          "ticks": 148512,
          "time": 209.053845,
          "velocity": 0.6456692913385826
        },
        {
          "duration": 0.056306250000005775,
          "durationTicks": 40,
          "midi": 74,
          "name": "D5",
          "ticks": 149568,
          "time": 210.54033,
          "velocity": 0.6456692913385826
        },
        {
          "duration": 0.056306250000005775,
          "durationTicks": 40,
          "midi": 62,
          "name": "D4",
          "ticks": 149568,
          "time": 210.54033,
          "velocity": 0.6456692913385826
        },
        {
          "duration": 0.06475218750000522,
          "durationTicks": 46,
          "midi": 74,
          "name": "D5",
          "ticks": 149760,
          "time": 210.81060000000002,
          "velocity": 0.6692913385826772
        },
        {
          "duration": 0.06475218750000522,
          "durationTicks": 46,
          "midi": 62,
          "name": "D4",
          "ticks": 149760,
          "time": 210.81060000000002,
          "velocity": 0.6692913385826772
        },
        {
          "duration": 0.06475218750000522,
          "durationTicks": 46,
          "midi": 74,
          "name": "D5",
          "ticks": 149856,
          "time": 210.945735,
          "velocity": 0.6456692913385826
        },
        {
          "duration": 0.06475218750000522,
          "durationTicks": 46,
          "midi": 62,
          "name": "D4",
          "ticks": 149856,
          "time": 210.945735,
          "velocity": 0.6456692913385826
        },
        {
          "duration": 0.06475218750003364,
          "durationTicks": 46,
          "midi": 74,
          "name": "D5",
          "ticks": 150048,
          "time": 211.216005,
          "velocity": 0.6456692913385826
        },
        {
          "duration": 0.06475218750003364,
          "durationTicks": 46,
          "midi": 62,
          "name": "D4",
          "ticks": 150048,
          "time": 211.216005,
          "velocity": 0.6456692913385826
        }
      ]
    },
    {
      "channel": 0,
      "controlChanges": {
        "0": [
          {
            "number": 0,
            "ticks": 928,
            "time": 1.306305,
            "value": 0
          }
        ],
        "32": [
          {
            "number": 32,
            "ticks": 932,
            "time": 1.311935625,
            "value": 0
          }
        ],
        "121": [
          {
            "number": 121,
            "ticks": 444,
            "time": 0.624999375,
            "value": 0
          }
        ]
      },
      "pitchBends": [],
      "instrument": {
        "family": "piano",
        "name": "acoustic grand piano",
        "number": 0
      },
      "name": "Guitar   ",
      "notes": []
    },
    {
      "channel": 15,
      "controlChanges": {
        "6": [
          {
            "number": 6,
            "ticks": 1636,
            "time": 2.3029256250000003,
            "value": 0.015748031496062992
          },
          {
            "number": 6,
            "ticks": 1648,
            "time": 2.3198175,
            "value": 0.5039370078740157
          }
        ],
        "7": [
          {
            "number": 7,
            "ticks": 940,
            "time": 1.323196875,
            "value": 0.9212598425196851
          }
        ],
        "10": [
          {
            "number": 10,
            "ticks": 944,
            "time": 1.3288275,
            "value": 0.25196850393700787
          }
        ],
        "11": [
          {
            "number": 11,
            "ticks": 948,
            "time": 1.334458125,
            "value": 1
          }
        ],
        "91": [
          {
            "number": 91,
            "ticks": 952,
            "time": 1.34008875,
            "value": 0.6299212598425197
          }
        ],
        "93": [
          {
            "number": 93,
            "ticks": 956,
            "time": 1.345719375,
            "value": 1
          }
        ],
        "100": [
          {
            "number": 100,
            "ticks": 1632,
            "time": 2.297295,
            "value": 0
          },
          {
            "number": 100,
            "ticks": 1644,
            "time": 2.314186875,
            "value": 0.015748031496062992
          },
          {
            "number": 100,
            "ticks": 1656,
            "time": 2.33107875,
            "value": 1
          }
        ],
        "101": [
          {
            "number": 101,
            "ticks": 1628,
            "time": 2.291664375,
            "value": 0
          },
          {
            "number": 101,
            "ticks": 1640,
            "time": 2.30855625,
            "value": 0
          },
          {
            "number": 101,
            "ticks": 1652,
            "time": 2.325448125,
            "value": 1
          }
        ]
      },
      "pitchBends": [],
      "instrument": {
        "family": "guitar",
        "name": "electric guitar (clean)",
        "number": 27
      },
      "name": "",
      "notes": [
        {
          "duration": 0.09009000000000356,
          "durationTicks": 64,
          "midi": 69,
          "name": "A4",
          "ticks": 92160,
          "time": 129.7296,
          "velocity": 0.7637795275590551
        },
        {
          "duration": 0.09009000000000356,
          "durationTicks": 64,
          "midi": 65,
          "name": "F4",
          "ticks": 92160,
          "time": 129.7296,
          "velocity": 0.7007874015748031
        },
        {
          "duration": 0.09009000000000356,
          "durationTicks": 64,
          "midi": 74,
          "name": "D5",
          "ticks": 92160,
          "time": 129.7296,
          "velocity": 0.6850393700787402
        },
        {
          "duration": 0.09009000000000356,
          "durationTicks": 64,
          "midi": 74,
          "name": "D5",
          "ticks": 92256,
          "time": 129.864735,
          "velocity": 0.6929133858267716
        },
        {
          "duration": 0.09009000000000356,
          "durationTicks": 64,
          "midi": 65,
          "name": "F4",
          "ticks": 92256,
          "time": 129.864735,
          "velocity": 0.6929133858267716
        },
        {
          "duration": 0.09009000000000356,
          "durationTicks": 64,
          "midi": 69,
          "name": "A4",
          "ticks": 92256,
          "time": 129.864735,
          "velocity": 0.6929133858267716
        },
        {
          "duration": 0.09008999999997513,
          "durationTicks": 64,
          "midi": 74,
          "name": "D5",
          "ticks": 92352,
          "time": 129.99987000000002,
          "velocity": 0.7165354330708661
        },
        {
          "duration": 0.09008999999997513,
          "durationTicks": 64,
          "midi": 65,
          "name": "F4",
          "ticks": 92352,
          "time": 129.99987000000002,
          "velocity": 0.7165354330708661
        },
        {
          "duration": 0.09008999999997513,
          "durationTicks": 64,
          "midi": 69,
          "name": "A4",
          "ticks": 92352,
          "time": 129.99987000000002,
          "velocity": 0.7165354330708661
        },
        {
          "duration": 0.09009000000000356,
          "durationTicks": 64,
          "midi": 65,
          "name": "F4",
          "ticks": 92448,
          "time": 130.135005,
          "velocity": 0.7637795275590551
        },
        {
          "duration": 0.09009000000000356,
          "durationTicks": 64,
          "midi": 69,
          "name": "A4",
          "ticks": 92448,
          "time": 130.135005,
          "velocity": 0.7637795275590551
        },
        {
          "duration": 0.09009000000000356,
          "durationTicks": 64,
          "midi": 74,
          "name": "D5",
          "ticks": 92448,
          "time": 130.135005,
          "velocity": 0.7637795275590551
        },
        {
          "duration": 0.09009000000000356,
          "durationTicks": 64,
          "midi": 74,
          "name": "D5",
          "ticks": 92736,
          "time": 130.54041,
          "velocity": 0.6929133858267716
        },
        {
          "duration": 0.09009000000000356,
          "durationTicks": 64,
          "midi": 65,
          "name": "F4",
          "ticks": 92736,
          "time": 130.54041,
          "velocity": 0.6929133858267716
        },
        {
          "duration": 0.09009000000000356,
          "durationTicks": 64,
          "midi": 69,
          "name": "A4",
          "ticks": 92736,
          "time": 130.54041,
          "velocity": 0.6929133858267716
        },
        {
          "duration": 0.09009000000000356,
          "durationTicks": 64,
          "midi": 65,
          "name": "F4",
          "ticks": 92832,
          "time": 130.675545,
          "velocity": 0.6535433070866141
        },
        {
          "duration": 0.09009000000000356,
          "durationTicks": 64,
          "midi": 69,
          "name": "A4",
          "ticks": 92832,
          "time": 130.675545,
          "velocity": 0.6535433070866141
        },
        {
          "duration": 0.09009000000000356,
          "durationTicks": 64,
          "midi": 74,
          "name": "D5",
          "ticks": 92832,
          "time": 130.675545,
          "velocity": 0.6535433070866141
        },
        {
          "duration": 0.09009000000000356,
          "durationTicks": 64,
          "midi": 76,
          "name": "E5",
          "ticks": 93024,
          "time": 130.945815,
          "velocity": 0.7007874015748031
        },
        {
          "duration": 0.09009000000000356,
          "durationTicks": 64,
          "midi": 67,
          "name": "G4",
          "ticks": 93024,
          "time": 130.945815,
          "velocity": 0.6614173228346457
        },
        {
          "duration": 0.09009000000000356,
          "durationTicks": 64,
          "midi": 71,
          "name": "B4",
          "ticks": 93024,
          "time": 130.945815,
          "velocity": 0.7165354330708661
        },
        {
          "duration": 0.09008999999997513,
          "durationTicks": 64,
          "midi": 71,
          "name": "B4",
          "ticks": 93312,
          "time": 131.35122,
          "velocity": 0.7165354330708661
        },
        {
          "duration": 0.09008999999997513,
          "durationTicks": 64,
          "midi": 67,
          "name": "G4",
          "ticks": 93312,
          "time": 131.35122,
          "velocity": 0.6850393700787402
        },
        {
          "duration": 0.09008999999997513,
          "durationTicks": 64,
          "midi": 76,
          "name": "E5",
          "ticks": 93312,
          "time": 131.35122,
          "velocity": 0.6614173228346457
        },
        {
          "duration": 0.09009000000000356,
          "durationTicks": 64,
          "midi": 67,
          "name": "G4",
          "ticks": 93408,
          "time": 131.486355,
          "velocity": 0.7401574803149606
        },
        {
          "duration": 0.09009000000000356,
          "durationTicks": 64,
          "midi": 71,
          "name": "B4",
          "ticks": 93408,
          "time": 131.486355,
          "velocity": 0.7401574803149606
        },
        {
          "duration": 0.09009000000000356,
          "durationTicks": 64,
          "midi": 76,
          "name": "E5",
          "ticks": 93408,
          "time": 131.486355,
          "velocity": 0.7401574803149606
        },
        {
          "duration": 0.09009000000000356,
          "durationTicks": 64,
          "midi": 69,
          "name": "A4",
          "ticks": 95232,
          "time": 134.05392,
          "velocity": 0.7637795275590551
        },
        {
          "duration": 0.09009000000000356,
          "durationTicks": 64,
          "midi": 65,
          "name": "F4",
          "ticks": 95232,
          "time": 134.05392,
          "velocity": 0.7007874015748031
        },
        {
          "duration": 0.09009000000000356,
          "durationTicks": 64,
          "midi": 74,
          "name": "D5",
          "ticks": 95232,
          "time": 134.05392,
          "velocity": 0.6850393700787402
        },
        {
          "duration": 0.09009000000000356,
          "durationTicks": 64,
          "midi": 74,
          "name": "D5",
          "ticks": 95328,
          "time": 134.189055,
          "velocity": 0.6929133858267716
        },
        {
          "duration": 0.09009000000000356,
          "durationTicks": 64,
          "midi": 65,
          "name": "F4",
          "ticks": 95328,
          "time": 134.189055,
          "velocity": 0.6929133858267716
        },
        {
          "duration": 0.09009000000000356,
          "durationTicks": 64,
          "midi": 69,
          "name": "A4",
          "ticks": 95328,
          "time": 134.189055,
          "velocity": 0.6929133858267716
        },
        {
          "duration": 0.09008999999997513,
          "durationTicks": 64,
          "midi": 74,
          "name": "D5",
          "ticks": 95424,
          "time": 134.32419000000002,
          "velocity": 0.7165354330708661
        },
        {
          "duration": 0.09008999999997513,
          "durationTicks": 64,
          "midi": 65,
          "name": "F4",
          "ticks": 95424,
          "time": 134.32419000000002,
          "velocity": 0.7165354330708661
        },
        {
          "duration": 0.09008999999997513,
          "durationTicks": 64,
          "midi": 69,
          "name": "A4",
          "ticks": 95424,
          "time": 134.32419000000002,
          "velocity": 0.7165354330708661
        },
        {
          "duration": 0.09009000000000356,
          "durationTicks": 64,
          "midi": 65,
          "name": "F4",
          "ticks": 95520,
          "time": 134.459325,
          "velocity": 0.7637795275590551
        },
        {
          "duration": 0.09009000000000356,
          "durationTicks": 64,
          "midi": 69,
          "name": "A4",
          "ticks": 95520,
          "time": 134.459325,
          "velocity": 0.7637795275590551
        },
        {
          "duration": 0.09009000000000356,
          "durationTicks": 64,
          "midi": 74,
          "name": "D5",
          "ticks": 95520,
          "time": 134.459325,
          "velocity": 0.7637795275590551
        },
        {
          "duration": 0.09009000000000356,
          "durationTicks": 64,
          "midi": 74,
          "name": "D5",
          "ticks": 95808,
          "time": 134.86473,
          "velocity": 0.6929133858267716
        },
        {
          "duration": 0.09009000000000356,
          "durationTicks": 64,
          "midi": 65,
          "name": "F4",
          "ticks": 95808,
          "time": 134.86473,
          "velocity": 0.6929133858267716
        },
        {
          "duration": 0.09009000000000356,
          "durationTicks": 64,
          "midi": 69,
          "name": "A4",
          "ticks": 95808,
          "time": 134.86473,
          "velocity": 0.6929133858267716
        },
        {
          "duration": 0.09009000000000356,
          "durationTicks": 64,
          "midi": 65,
          "name": "F4",
          "ticks": 95904,
          "time": 134.999865,
          "velocity": 0.6535433070866141
        },
        {
          "duration": 0.09009000000000356,
          "durationTicks": 64,
          "midi": 69,
          "name": "A4",
          "ticks": 95904,
          "time": 134.999865,
          "velocity": 0.6535433070866141
        },
        {
          "duration": 0.09009000000000356,
          "durationTicks": 64,
          "midi": 74,
          "name": "D5",
          "ticks": 95904,
          "time": 134.999865,
          "velocity": 0.6535433070866141
        },
        {
          "duration": 0.09009000000000356,
          "durationTicks": 64,
          "midi": 76,
          "name": "E5",
          "ticks": 96096,
          "time": 135.270135,
          "velocity": 0.7007874015748031
        },
        {
          "duration": 0.09009000000000356,
          "durationTicks": 64,
          "midi": 67,
          "name": "G4",
          "ticks": 96096,
          "time": 135.270135,
          "velocity": 0.6614173228346457
        },
        {
          "duration": 0.09009000000000356,
          "durationTicks": 64,
          "midi": 71,
          "name": "B4",
          "ticks": 96096,
          "time": 135.270135,
          "velocity": 0.7165354330708661
        },
        {
          "duration": 0.09008999999997513,
          "durationTicks": 64,
          "midi": 71,
          "name": "B4",
          "ticks": 96384,
          "time": 135.67554,
          "velocity": 0.7165354330708661
        },
        {
          "duration": 0.09008999999997513,
          "durationTicks": 64,
          "midi": 67,
          "name": "G4",
          "ticks": 96384,
          "time": 135.67554,
          "velocity": 0.6850393700787402
        },
        {
          "duration": 0.09008999999997513,
          "durationTicks": 64,
          "midi": 76,
          "name": "E5",
          "ticks": 96384,
          "time": 135.67554,
          "velocity": 0.6614173228346457
        },
        {
          "duration": 0.09009000000000356,
          "durationTicks": 64,
          "midi": 67,
          "name": "G4",
          "ticks": 96480,
          "time": 135.810675,
          "velocity": 0.7401574803149606
        },
        {
          "duration": 0.09009000000000356,
          "durationTicks": 64,
          "midi": 71,
          "name": "B4",
          "ticks": 96480,
          "time": 135.810675,
          "velocity": 0.7401574803149606
        },
        {
          "duration": 0.09009000000000356,
          "durationTicks": 64,
          "midi": 76,
          "name": "E5",
          "ticks": 96480,
          "time": 135.810675,
          "velocity": 0.7401574803149606
        },
        {
          "duration": 0.09009000000000356,
          "durationTicks": 64,
          "midi": 69,
          "name": "A4",
          "ticks": 98304,
          "time": 138.37824,
          "velocity": 0.7637795275590551
        },
        {
          "duration": 0.09009000000000356,
          "durationTicks": 64,
          "midi": 65,
          "name": "F4",
          "ticks": 98304,
          "time": 138.37824,
          "velocity": 0.7007874015748031
        },
        {
          "duration": 0.09009000000000356,
          "durationTicks": 64,
          "midi": 74,
          "name": "D5",
          "ticks": 98304,
          "time": 138.37824,
          "velocity": 0.6850393700787402
        },
        {
          "duration": 0.09009000000003198,
          "durationTicks": 64,
          "midi": 74,
          "name": "D5",
          "ticks": 98400,
          "time": 138.513375,
          "velocity": 0.6929133858267716
        },
        {
          "duration": 0.09009000000003198,
          "durationTicks": 64,
          "midi": 65,
          "name": "F4",
          "ticks": 98400,
          "time": 138.513375,
          "velocity": 0.6929133858267716
        },
        {
          "duration": 0.09009000000003198,
          "durationTicks": 64,
          "midi": 69,
          "name": "A4",
          "ticks": 98400,
          "time": 138.513375,
          "velocity": 0.6929133858267716
        },
        {
          "duration": 0.09009000000000356,
          "durationTicks": 64,
          "midi": 74,
          "name": "D5",
          "ticks": 98496,
          "time": 138.64851000000002,
          "velocity": 0.7165354330708661
        },
        {
          "duration": 0.09009000000000356,
          "durationTicks": 64,
          "midi": 65,
          "name": "F4",
          "ticks": 98496,
          "time": 138.64851000000002,
          "velocity": 0.7165354330708661
        },
        {
          "duration": 0.09009000000000356,
          "durationTicks": 64,
          "midi": 69,
          "name": "A4",
          "ticks": 98496,
          "time": 138.64851000000002,
          "velocity": 0.7165354330708661
        },
        {
          "duration": 0.09009000000000356,
          "durationTicks": 64,
          "midi": 65,
          "name": "F4",
          "ticks": 98592,
          "time": 138.783645,
          "velocity": 0.7637795275590551
        },
        {
          "duration": 0.09009000000000356,
          "durationTicks": 64,
          "midi": 69,
          "name": "A4",
          "ticks": 98592,
          "time": 138.783645,
          "velocity": 0.7637795275590551
        },
        {
          "duration": 0.09009000000000356,
          "durationTicks": 64,
          "midi": 74,
          "name": "D5",
          "ticks": 98592,
          "time": 138.783645,
          "velocity": 0.7637795275590551
        },
        {
          "duration": 0.09009000000000356,
          "durationTicks": 64,
          "midi": 74,
          "name": "D5",
          "ticks": 98880,
          "time": 139.18905,
          "velocity": 0.6929133858267716
        },
        {
          "duration": 0.09009000000000356,
          "durationTicks": 64,
          "midi": 65,
          "name": "F4",
          "ticks": 98880,
          "time": 139.18905,
          "velocity": 0.6929133858267716
        },
        {
          "duration": 0.09009000000000356,
          "durationTicks": 64,
          "midi": 69,
          "name": "A4",
          "ticks": 98880,
          "time": 139.18905,
          "velocity": 0.6929133858267716
        },
        {
          "duration": 0.09009000000000356,
          "durationTicks": 64,
          "midi": 65,
          "name": "F4",
          "ticks": 98976,
          "time": 139.324185,
          "velocity": 0.6535433070866141
        },
        {
          "duration": 0.09009000000000356,
          "durationTicks": 64,
          "midi": 69,
          "name": "A4",
          "ticks": 98976,
          "time": 139.324185,
          "velocity": 0.6535433070866141
        },
        {
          "duration": 0.09009000000000356,
          "durationTicks": 64,
          "midi": 74,
          "name": "D5",
          "ticks": 98976,
          "time": 139.324185,
          "velocity": 0.6535433070866141
        },
        {
          "duration": 0.09009000000000356,
          "durationTicks": 64,
          "midi": 76,
          "name": "E5",
          "ticks": 99168,
          "time": 139.594455,
          "velocity": 0.7007874015748031
        },
        {
          "duration": 0.09009000000000356,
          "durationTicks": 64,
          "midi": 67,
          "name": "G4",
          "ticks": 99168,
          "time": 139.594455,
          "velocity": 0.6614173228346457
        },
        {
          "duration": 0.09009000000000356,
          "durationTicks": 64,
          "midi": 71,
          "name": "B4",
          "ticks": 99168,
          "time": 139.594455,
          "velocity": 0.7165354330708661
        },
        {
          "duration": 0.09009000000000356,
          "durationTicks": 64,
          "midi": 71,
          "name": "B4",
          "ticks": 99456,
          "time": 139.99986,
          "velocity": 0.7165354330708661
        },
        {
          "duration": 0.09009000000000356,
          "durationTicks": 64,
          "midi": 67,
          "name": "G4",
          "ticks": 99456,
          "time": 139.99986,
          "velocity": 0.6850393700787402
        },
        {
          "duration": 0.09009000000000356,
          "durationTicks": 64,
          "midi": 76,
          "name": "E5",
          "ticks": 99456,
          "time": 139.99986,
          "velocity": 0.6614173228346457
        },
        {
          "duration": 0.09009000000000356,
          "durationTicks": 64,
          "midi": 67,
          "name": "G4",
          "ticks": 99552,
          "time": 140.134995,
          "velocity": 0.7401574803149606
        },
        {
          "duration": 0.09009000000000356,
          "durationTicks": 64,
          "midi": 71,
          "name": "B4",
          "ticks": 99552,
          "time": 140.134995,
          "velocity": 0.7401574803149606
        },
        {
          "duration": 0.09009000000000356,
          "durationTicks": 64,
          "midi": 76,
          "name": "E5",
          "ticks": 99552,
          "time": 140.134995,
          "velocity": 0.7401574803149606
        },
        {
          "duration": 0.09009000000000356,
          "durationTicks": 64,
          "midi": 69,
          "name": "A4",
          "ticks": 101376,
          "time": 142.70256,
          "velocity": 0.7637795275590551
        },
        {
          "duration": 0.09009000000000356,
          "durationTicks": 64,
          "midi": 65,
          "name": "F4",
          "ticks": 101376,
          "time": 142.70256,
          "velocity": 0.7007874015748031
        },
        {
          "duration": 0.09009000000000356,
          "durationTicks": 64,
          "midi": 74,
          "name": "D5",
          "ticks": 101376,
          "time": 142.70256,
          "velocity": 0.6850393700787402
        },
        {
          "duration": 0.09009000000003198,
          "durationTicks": 64,
          "midi": 74,
          "name": "D5",
          "ticks": 101472,
          "time": 142.837695,
          "velocity": 0.6929133858267716
        },
        {
          "duration": 0.09009000000003198,
          "durationTicks": 64,
          "midi": 65,
          "name": "F4",
          "ticks": 101472,
          "time": 142.837695,
          "velocity": 0.6929133858267716
        },
        {
          "duration": 0.09009000000003198,
          "durationTicks": 64,
          "midi": 69,
          "name": "A4",
          "ticks": 101472,
          "time": 142.837695,
          "velocity": 0.6929133858267716
        },
        {
          "duration": 0.09009000000000356,
          "durationTicks": 64,
          "midi": 74,
          "name": "D5",
          "ticks": 101568,
          "time": 142.97283000000002,
          "velocity": 0.7165354330708661
        },
        {
          "duration": 0.09009000000000356,
          "durationTicks": 64,
          "midi": 65,
          "name": "F4",
          "ticks": 101568,
          "time": 142.97283000000002,
          "velocity": 0.7165354330708661
        },
        {
          "duration": 0.09009000000000356,
          "durationTicks": 64,
          "midi": 69,
          "name": "A4",
          "ticks": 101568,
          "time": 142.97283000000002,
          "velocity": 0.7165354330708661
        },
        {
          "duration": 0.09009000000000356,
          "durationTicks": 64,
          "midi": 65,
          "name": "F4",
          "ticks": 101664,
          "time": 143.107965,
          "velocity": 0.7637795275590551
        },
        {
          "duration": 0.09009000000000356,
          "durationTicks": 64,
          "midi": 69,
          "name": "A4",
          "ticks": 101664,
          "time": 143.107965,
          "velocity": 0.7637795275590551
        },
        {
          "duration": 0.09009000000000356,
          "durationTicks": 64,
          "midi": 74,
          "name": "D5",
          "ticks": 101664,
          "time": 143.107965,
          "velocity": 0.7637795275590551
        },
        {
          "duration": 0.09009000000000356,
          "durationTicks": 64,
          "midi": 74,
          "name": "D5",
          "ticks": 101952,
          "time": 143.51337,
          "velocity": 0.6929133858267716
        },
        {
          "duration": 0.09009000000000356,
          "durationTicks": 64,
          "midi": 65,
          "name": "F4",
          "ticks": 101952,
          "time": 143.51337,
          "velocity": 0.6929133858267716
        },
        {
          "duration": 0.09009000000000356,
          "durationTicks": 64,
          "midi": 69,
          "name": "A4",
          "ticks": 101952,
          "time": 143.51337,
          "velocity": 0.6929133858267716
        },
        {
          "duration": 0.09009000000000356,
          "durationTicks": 64,
          "midi": 65,
          "name": "F4",
          "ticks": 102048,
          "time": 143.648505,
          "velocity": 0.6535433070866141
        },
        {
          "duration": 0.09009000000000356,
          "durationTicks": 64,
          "midi": 69,
          "name": "A4",
          "ticks": 102048,
          "time": 143.648505,
          "velocity": 0.6535433070866141
        },
        {
          "duration": 0.09009000000000356,
          "durationTicks": 64,
          "midi": 74,
          "name": "D5",
          "ticks": 102048,
          "time": 143.648505,
          "velocity": 0.6535433070866141
        },
        {
          "duration": 0.09009000000000356,
          "durationTicks": 64,
          "midi": 76,
          "name": "E5",
          "ticks": 102240,
          "time": 143.918775,
          "velocity": 0.7007874015748031
        },
        {
          "duration": 0.09009000000000356,
          "durationTicks": 64,
          "midi": 67,
          "name": "G4",
          "ticks": 102240,
          "time": 143.918775,
          "velocity": 0.6614173228346457
        },
        {
          "duration": 0.09009000000000356,
          "durationTicks": 64,
          "midi": 71,
          "name": "B4",
          "ticks": 102240,
          "time": 143.918775,
          "velocity": 0.7165354330708661
        },
        {
          "duration": 0.09009000000000356,
          "durationTicks": 64,
          "midi": 71,
          "name": "B4",
          "ticks": 102528,
          "time": 144.32418,
          "velocity": 0.7165354330708661
        },
        {
          "duration": 0.09009000000000356,
          "durationTicks": 64,
          "midi": 67,
          "name": "G4",
          "ticks": 102528,
          "time": 144.32418,
          "velocity": 0.6850393700787402
        },
        {
          "duration": 0.09009000000000356,
          "durationTicks": 64,
          "midi": 76,
          "name": "E5",
          "ticks": 102528,
          "time": 144.32418,
          "velocity": 0.6614173228346457
        },
        {
          "duration": 0.09009000000000356,
          "durationTicks": 64,
          "midi": 67,
          "name": "G4",
          "ticks": 102624,
          "time": 144.459315,
          "velocity": 0.7401574803149606
        },
        {
          "duration": 0.09009000000000356,
          "durationTicks": 64,
          "midi": 71,
          "name": "B4",
          "ticks": 102624,
          "time": 144.459315,
          "velocity": 0.7401574803149606
        },
        {
          "duration": 0.09009000000000356,
          "durationTicks": 64,
          "midi": 76,
          "name": "E5",
          "ticks": 102624,
          "time": 144.459315,
          "velocity": 0.7401574803149606
        },
        {
          "duration": 0.09009000000000356,
          "durationTicks": 64,
          "midi": 69,
          "name": "A4",
          "ticks": 104448,
          "time": 147.02688,
          "velocity": 0.7637795275590551
        },
        {
          "duration": 0.09009000000000356,
          "durationTicks": 64,
          "midi": 65,
          "name": "F4",
          "ticks": 104448,
          "time": 147.02688,
          "velocity": 0.7007874015748031
        },
        {
          "duration": 0.09009000000000356,
          "durationTicks": 64,
          "midi": 74,
          "name": "D5",
          "ticks": 104448,
          "time": 147.02688,
          "velocity": 0.6850393700787402
        },
        {
          "duration": 0.09009000000003198,
          "durationTicks": 64,
          "midi": 74,
          "name": "D5",
          "ticks": 104544,
          "time": 147.162015,
          "velocity": 0.6929133858267716
        },
        {
          "duration": 0.09009000000003198,
          "durationTicks": 64,
          "midi": 65,
          "name": "F4",
          "ticks": 104544,
          "time": 147.162015,
          "velocity": 0.6929133858267716
        },
        {
          "duration": 0.09009000000003198,
          "durationTicks": 64,
          "midi": 69,
          "name": "A4",
          "ticks": 104544,
          "time": 147.162015,
          "velocity": 0.6929133858267716
        },
        {
          "duration": 0.09009000000000356,
          "durationTicks": 64,
          "midi": 74,
          "name": "D5",
          "ticks": 104640,
          "time": 147.29715000000002,
          "velocity": 0.7165354330708661
        },
        {
          "duration": 0.09009000000000356,
          "durationTicks": 64,
          "midi": 65,
          "name": "F4",
          "ticks": 104640,
          "time": 147.29715000000002,
          "velocity": 0.7165354330708661
        },
        {
          "duration": 0.09009000000000356,
          "durationTicks": 64,
          "midi": 69,
          "name": "A4",
          "ticks": 104640,
          "time": 147.29715000000002,
          "velocity": 0.7165354330708661
        },
        {
          "duration": 0.09009000000000356,
          "durationTicks": 64,
          "midi": 65,
          "name": "F4",
          "ticks": 104736,
          "time": 147.432285,
          "velocity": 0.7637795275590551
        },
        {
          "duration": 0.09009000000000356,
          "durationTicks": 64,
          "midi": 69,
          "name": "A4",
          "ticks": 104736,
          "time": 147.432285,
          "velocity": 0.7637795275590551
        },
        {
          "duration": 0.09009000000000356,
          "durationTicks": 64,
          "midi": 74,
          "name": "D5",
          "ticks": 104736,
          "time": 147.432285,
          "velocity": 0.7637795275590551
        },
        {
          "duration": 0.09009000000000356,
          "durationTicks": 64,
          "midi": 74,
          "name": "D5",
          "ticks": 105024,
          "time": 147.83769,
          "velocity": 0.6929133858267716
        },
        {
          "duration": 0.09009000000000356,
          "durationTicks": 64,
          "midi": 65,
          "name": "F4",
          "ticks": 105024,
          "time": 147.83769,
          "velocity": 0.6929133858267716
        },
        {
          "duration": 0.09009000000000356,
          "durationTicks": 64,
          "midi": 69,
          "name": "A4",
          "ticks": 105024,
          "time": 147.83769,
          "velocity": 0.6929133858267716
        },
        {
          "duration": 0.09009000000000356,
          "durationTicks": 64,
          "midi": 65,
          "name": "F4",
          "ticks": 105120,
          "time": 147.972825,
          "velocity": 0.6535433070866141
        },
        {
          "duration": 0.09009000000000356,
          "durationTicks": 64,
          "midi": 69,
          "name": "A4",
          "ticks": 105120,
          "time": 147.972825,
          "velocity": 0.6535433070866141
        },
        {
          "duration": 0.09009000000000356,
          "durationTicks": 64,
          "midi": 74,
          "name": "D5",
          "ticks": 105120,
          "time": 147.972825,
          "velocity": 0.6535433070866141
        },
        {
          "duration": 0.09009000000000356,
          "durationTicks": 64,
          "midi": 76,
          "name": "E5",
          "ticks": 105312,
          "time": 148.243095,
          "velocity": 0.7007874015748031
        },
        {
          "duration": 0.09009000000000356,
          "durationTicks": 64,
          "midi": 67,
          "name": "G4",
          "ticks": 105312,
          "time": 148.243095,
          "velocity": 0.6614173228346457
        },
        {
          "duration": 0.09009000000000356,
          "durationTicks": 64,
          "midi": 71,
          "name": "B4",
          "ticks": 105312,
          "time": 148.243095,
          "velocity": 0.7165354330708661
        },
        {
          "duration": 0.09009000000000356,
          "durationTicks": 64,
          "midi": 71,
          "name": "B4",
          "ticks": 105600,
          "time": 148.6485,
          "velocity": 0.7165354330708661
        },
        {
          "duration": 0.09009000000000356,
          "durationTicks": 64,
          "midi": 67,
          "name": "G4",
          "ticks": 105600,
          "time": 148.6485,
          "velocity": 0.6850393700787402
        },
        {
          "duration": 0.09009000000000356,
          "durationTicks": 64,
          "midi": 76,
          "name": "E5",
          "ticks": 105600,
          "time": 148.6485,
          "velocity": 0.6614173228346457
        },
        {
          "duration": 0.09009000000000356,
          "durationTicks": 64,
          "midi": 67,
          "name": "G4",
          "ticks": 105696,
          "time": 148.783635,
          "velocity": 0.7401574803149606
        },
        {
          "duration": 0.09009000000000356,
          "durationTicks": 64,
          "midi": 71,
          "name": "B4",
          "ticks": 105696,
          "time": 148.783635,
          "velocity": 0.7401574803149606
        },
        {
          "duration": 0.09009000000000356,
          "durationTicks": 64,
          "midi": 76,
          "name": "E5",
          "ticks": 105696,
          "time": 148.783635,
          "velocity": 0.7401574803149606
        },
        {
          "duration": 0.09009000000000356,
          "durationTicks": 64,
          "midi": 69,
          "name": "A4",
          "ticks": 107520,
          "time": 151.3512,
          "velocity": 0.7637795275590551
        },
        {
          "duration": 0.09009000000000356,
          "durationTicks": 64,
          "midi": 65,
          "name": "F4",
          "ticks": 107520,
          "time": 151.3512,
          "velocity": 0.7007874015748031
        },
        {
          "duration": 0.09009000000000356,
          "durationTicks": 64,
          "midi": 74,
          "name": "D5",
          "ticks": 107520,
          "time": 151.3512,
          "velocity": 0.6850393700787402
        },
        {
          "duration": 0.09009000000003198,
          "durationTicks": 64,
          "midi": 74,
          "name": "D5",
          "ticks": 107616,
          "time": 151.486335,
          "velocity": 0.6929133858267716
        },
        {
          "duration": 0.09009000000003198,
          "durationTicks": 64,
          "midi": 65,
          "name": "F4",
          "ticks": 107616,
          "time": 151.486335,
          "velocity": 0.6929133858267716
        },
        {
          "duration": 0.09009000000003198,
          "durationTicks": 64,
          "midi": 69,
          "name": "A4",
          "ticks": 107616,
          "time": 151.486335,
          "velocity": 0.6929133858267716
        },
        {
          "duration": 0.09009000000000356,
          "durationTicks": 64,
          "midi": 74,
          "name": "D5",
          "ticks": 107712,
          "time": 151.62147000000002,
          "velocity": 0.7165354330708661
        },
        {
          "duration": 0.09009000000000356,
          "durationTicks": 64,
          "midi": 65,
          "name": "F4",
          "ticks": 107712,
          "time": 151.62147000000002,
          "velocity": 0.7165354330708661
        },
        {
          "duration": 0.09009000000000356,
          "durationTicks": 64,
          "midi": 69,
          "name": "A4",
          "ticks": 107712,
          "time": 151.62147000000002,
          "velocity": 0.7165354330708661
        },
        {
          "duration": 0.09009000000000356,
          "durationTicks": 64,
          "midi": 65,
          "name": "F4",
          "ticks": 107808,
          "time": 151.756605,
          "velocity": 0.7637795275590551
        },
        {
          "duration": 0.09009000000000356,
          "durationTicks": 64,
          "midi": 69,
          "name": "A4",
          "ticks": 107808,
          "time": 151.756605,
          "velocity": 0.7637795275590551
        },
        {
          "duration": 0.09009000000000356,
          "durationTicks": 64,
          "midi": 74,
          "name": "D5",
          "ticks": 107808,
          "time": 151.756605,
          "velocity": 0.7637795275590551
        },
        {
          "duration": 0.09009000000000356,
          "durationTicks": 64,
          "midi": 74,
          "name": "D5",
          "ticks": 108096,
          "time": 152.16201,
          "velocity": 0.6929133858267716
        },
        {
          "duration": 0.09009000000000356,
          "durationTicks": 64,
          "midi": 65,
          "name": "F4",
          "ticks": 108096,
          "time": 152.16201,
          "velocity": 0.6929133858267716
        },
        {
          "duration": 0.09009000000000356,
          "durationTicks": 64,
          "midi": 69,
          "name": "A4",
          "ticks": 108096,
          "time": 152.16201,
          "velocity": 0.6929133858267716
        },
        {
          "duration": 0.09009000000000356,
          "durationTicks": 64,
          "midi": 65,
          "name": "F4",
          "ticks": 108192,
          "time": 152.297145,
          "velocity": 0.6535433070866141
        },
        {
          "duration": 0.09009000000000356,
          "durationTicks": 64,
          "midi": 69,
          "name": "A4",
          "ticks": 108192,
          "time": 152.297145,
          "velocity": 0.6535433070866141
        },
        {
          "duration": 0.09009000000000356,
          "durationTicks": 64,
          "midi": 74,
          "name": "D5",
          "ticks": 108192,
          "time": 152.297145,
          "velocity": 0.6535433070866141
        },
        {
          "duration": 0.09009000000000356,
          "durationTicks": 64,
          "midi": 76,
          "name": "E5",
          "ticks": 108384,
          "time": 152.567415,
          "velocity": 0.7007874015748031
        },
        {
          "duration": 0.09009000000000356,
          "durationTicks": 64,
          "midi": 67,
          "name": "G4",
          "ticks": 108384,
          "time": 152.567415,
          "velocity": 0.6614173228346457
        },
        {
          "duration": 0.09009000000000356,
          "durationTicks": 64,
          "midi": 71,
          "name": "B4",
          "ticks": 108384,
          "time": 152.567415,
          "velocity": 0.7165354330708661
        },
        {
          "duration": 0.09009000000000356,
          "durationTicks": 64,
          "midi": 71,
          "name": "B4",
          "ticks": 108672,
          "time": 152.97282,
          "velocity": 0.7165354330708661
        },
        {
          "duration": 0.09009000000000356,
          "durationTicks": 64,
          "midi": 67,
          "name": "G4",
          "ticks": 108672,
          "time": 152.97282,
          "velocity": 0.6850393700787402
        },
        {
          "duration": 0.09009000000000356,
          "durationTicks": 64,
          "midi": 76,
          "name": "E5",
          "ticks": 108672,
          "time": 152.97282,
          "velocity": 0.6614173228346457
        },
        {
          "duration": 0.09009000000000356,
          "durationTicks": 64,
          "midi": 67,
          "name": "G4",
          "ticks": 108768,
          "time": 153.107955,
          "velocity": 0.7401574803149606
        },
        {
          "duration": 0.09009000000000356,
          "durationTicks": 64,
          "midi": 71,
          "name": "B4",
          "ticks": 108768,
          "time": 153.107955,
          "velocity": 0.7401574803149606
        },
        {
          "duration": 0.09009000000000356,
          "durationTicks": 64,
          "midi": 76,
          "name": "E5",
          "ticks": 108768,
          "time": 153.107955,
          "velocity": 0.7401574803149606
        },
        {
          "duration": 0.09009000000000356,
          "durationTicks": 64,
          "midi": 69,
          "name": "A4",
          "ticks": 110592,
          "time": 155.67552,
          "velocity": 0.7637795275590551
        },
        {
          "duration": 0.09009000000000356,
          "durationTicks": 64,
          "midi": 65,
          "name": "F4",
          "ticks": 110592,
          "time": 155.67552,
          "velocity": 0.7007874015748031
        },
        {
          "duration": 0.09009000000000356,
          "durationTicks": 64,
          "midi": 74,
          "name": "D5",
          "ticks": 110592,
          "time": 155.67552,
          "velocity": 0.6850393700787402
        },
        {
          "duration": 0.09009000000003198,
          "durationTicks": 64,
          "midi": 74,
          "name": "D5",
          "ticks": 110688,
          "time": 155.810655,
          "velocity": 0.6929133858267716
        },
        {
          "duration": 0.09009000000003198,
          "durationTicks": 64,
          "midi": 65,
          "name": "F4",
          "ticks": 110688,
          "time": 155.810655,
          "velocity": 0.6929133858267716
        },
        {
          "duration": 0.09009000000003198,
          "durationTicks": 64,
          "midi": 69,
          "name": "A4",
          "ticks": 110688,
          "time": 155.810655,
          "velocity": 0.6929133858267716
        },
        {
          "duration": 0.09009000000000356,
          "durationTicks": 64,
          "midi": 74,
          "name": "D5",
          "ticks": 110784,
          "time": 155.94579000000002,
          "velocity": 0.7165354330708661
        },
        {
          "duration": 0.09009000000000356,
          "durationTicks": 64,
          "midi": 65,
          "name": "F4",
          "ticks": 110784,
          "time": 155.94579000000002,
          "velocity": 0.7165354330708661
        },
        {
          "duration": 0.09009000000000356,
          "durationTicks": 64,
          "midi": 69,
          "name": "A4",
          "ticks": 110784,
          "time": 155.94579000000002,
          "velocity": 0.7165354330708661
        },
        {
          "duration": 0.09009000000000356,
          "durationTicks": 64,
          "midi": 65,
          "name": "F4",
          "ticks": 110880,
          "time": 156.080925,
          "velocity": 0.7637795275590551
        },
        {
          "duration": 0.09009000000000356,
          "durationTicks": 64,
          "midi": 69,
          "name": "A4",
          "ticks": 110880,
          "time": 156.080925,
          "velocity": 0.7637795275590551
        },
        {
          "duration": 0.09009000000000356,
          "durationTicks": 64,
          "midi": 74,
          "name": "D5",
          "ticks": 110880,
          "time": 156.080925,
          "velocity": 0.7637795275590551
        },
        {
          "duration": 0.09009000000000356,
          "durationTicks": 64,
          "midi": 74,
          "name": "D5",
          "ticks": 111168,
          "time": 156.48633,
          "velocity": 0.6929133858267716
        },
        {
          "duration": 0.09009000000000356,
          "durationTicks": 64,
          "midi": 65,
          "name": "F4",
          "ticks": 111168,
          "time": 156.48633,
          "velocity": 0.6929133858267716
        },
        {
          "duration": 0.09009000000000356,
          "durationTicks": 64,
          "midi": 69,
          "name": "A4",
          "ticks": 111168,
          "time": 156.48633,
          "velocity": 0.6929133858267716
        },
        {
          "duration": 0.09009000000000356,
          "durationTicks": 64,
          "midi": 65,
          "name": "F4",
          "ticks": 111264,
          "time": 156.621465,
          "velocity": 0.6535433070866141
        },
        {
          "duration": 0.09009000000000356,
          "durationTicks": 64,
          "midi": 69,
          "name": "A4",
          "ticks": 111264,
          "time": 156.621465,
          "velocity": 0.6535433070866141
        },
        {
          "duration": 0.09009000000000356,
          "durationTicks": 64,
          "midi": 74,
          "name": "D5",
          "ticks": 111264,
          "time": 156.621465,
          "velocity": 0.6535433070866141
        },
        {
          "duration": 0.09009000000000356,
          "durationTicks": 64,
          "midi": 76,
          "name": "E5",
          "ticks": 111456,
          "time": 156.891735,
          "velocity": 0.7007874015748031
        },
        {
          "duration": 0.09009000000000356,
          "durationTicks": 64,
          "midi": 67,
          "name": "G4",
          "ticks": 111456,
          "time": 156.891735,
          "velocity": 0.6614173228346457
        },
        {
          "duration": 0.09009000000000356,
          "durationTicks": 64,
          "midi": 71,
          "name": "B4",
          "ticks": 111456,
          "time": 156.891735,
          "velocity": 0.7165354330708661
        },
        {
          "duration": 0.09009000000000356,
          "durationTicks": 64,
          "midi": 71,
          "name": "B4",
          "ticks": 111744,
          "time": 157.29714,
          "velocity": 0.7165354330708661
        },
        {
          "duration": 0.09009000000000356,
          "durationTicks": 64,
          "midi": 67,
          "name": "G4",
          "ticks": 111744,
          "time": 157.29714,
          "velocity": 0.6850393700787402
        },
        {
          "duration": 0.09009000000000356,
          "durationTicks": 64,
          "midi": 76,
          "name": "E5",
          "ticks": 111744,
          "time": 157.29714,
          "velocity": 0.6614173228346457
        },
        {
          "duration": 0.09009000000000356,
          "durationTicks": 64,
          "midi": 67,
          "name": "G4",
          "ticks": 111840,
          "time": 157.432275,
          "velocity": 0.7401574803149606
        },
        {
          "duration": 0.09009000000000356,
          "durationTicks": 64,
          "midi": 71,
          "name": "B4",
          "ticks": 111840,
          "time": 157.432275,
          "velocity": 0.7401574803149606
        },
        {
          "duration": 0.09009000000000356,
          "durationTicks": 64,
          "midi": 76,
          "name": "E5",
          "ticks": 111840,
          "time": 157.432275,
          "velocity": 0.7401574803149606
        },
        {
          "duration": 0.09009000000000356,
          "durationTicks": 64,
          "midi": 69,
          "name": "A4",
          "ticks": 113664,
          "time": 159.99984,
          "velocity": 0.7637795275590551
        },
        {
          "duration": 0.09009000000000356,
          "durationTicks": 64,
          "midi": 65,
          "name": "F4",
          "ticks": 113664,
          "time": 159.99984,
          "velocity": 0.7007874015748031
        },
        {
          "duration": 0.09009000000000356,
          "durationTicks": 64,
          "midi": 74,
          "name": "D5",
          "ticks": 113664,
          "time": 159.99984,
          "velocity": 0.6850393700787402
        },
        {
          "duration": 0.09009000000003198,
          "durationTicks": 64,
          "midi": 74,
          "name": "D5",
          "ticks": 113760,
          "time": 160.134975,
          "velocity": 0.6929133858267716
        },
        {
          "duration": 0.09009000000003198,
          "durationTicks": 64,
          "midi": 65,
          "name": "F4",
          "ticks": 113760,
          "time": 160.134975,
          "velocity": 0.6929133858267716
        },
        {
          "duration": 0.09009000000003198,
          "durationTicks": 64,
          "midi": 69,
          "name": "A4",
          "ticks": 113760,
          "time": 160.134975,
          "velocity": 0.6929133858267716
        },
        {
          "duration": 0.09009000000000356,
          "durationTicks": 64,
          "midi": 74,
          "name": "D5",
          "ticks": 113856,
          "time": 160.27011000000002,
          "velocity": 0.7165354330708661
        },
        {
          "duration": 0.09009000000000356,
          "durationTicks": 64,
          "midi": 65,
          "name": "F4",
          "ticks": 113856,
          "time": 160.27011000000002,
          "velocity": 0.7165354330708661
        },
        {
          "duration": 0.09009000000000356,
          "durationTicks": 64,
          "midi": 69,
          "name": "A4",
          "ticks": 113856,
          "time": 160.27011000000002,
          "velocity": 0.7165354330708661
        },
        {
          "duration": 0.09009000000000356,
          "durationTicks": 64,
          "midi": 65,
          "name": "F4",
          "ticks": 113952,
          "time": 160.405245,
          "velocity": 0.7637795275590551
        },
        {
          "duration": 0.09009000000000356,
          "durationTicks": 64,
          "midi": 69,
          "name": "A4",
          "ticks": 113952,
          "time": 160.405245,
          "velocity": 0.7637795275590551
        },
        {
          "duration": 0.09009000000000356,
          "durationTicks": 64,
          "midi": 74,
          "name": "D5",
          "ticks": 113952,
          "time": 160.405245,
          "velocity": 0.7637795275590551
        },
        {
          "duration": 0.09009000000000356,
          "durationTicks": 64,
          "midi": 74,
          "name": "D5",
          "ticks": 114240,
          "time": 160.81065,
          "velocity": 0.6929133858267716
        },
        {
          "duration": 0.09009000000000356,
          "durationTicks": 64,
          "midi": 65,
          "name": "F4",
          "ticks": 114240,
          "time": 160.81065,
          "velocity": 0.6929133858267716
        },
        {
          "duration": 0.09009000000000356,
          "durationTicks": 64,
          "midi": 69,
          "name": "A4",
          "ticks": 114240,
          "time": 160.81065,
          "velocity": 0.6929133858267716
        },
        {
          "duration": 0.09009000000000356,
          "durationTicks": 64,
          "midi": 65,
          "name": "F4",
          "ticks": 114336,
          "time": 160.945785,
          "velocity": 0.6535433070866141
        },
        {
          "duration": 0.09009000000000356,
          "durationTicks": 64,
          "midi": 69,
          "name": "A4",
          "ticks": 114336,
          "time": 160.945785,
          "velocity": 0.6535433070866141
        },
        {
          "duration": 0.09009000000000356,
          "durationTicks": 64,
          "midi": 74,
          "name": "D5",
          "ticks": 114336,
          "time": 160.945785,
          "velocity": 0.6535433070866141
        },
        {
          "duration": 0.09009000000000356,
          "durationTicks": 64,
          "midi": 76,
          "name": "E5",
          "ticks": 114528,
          "time": 161.216055,
          "velocity": 0.7007874015748031
        },
        {
          "duration": 0.09009000000000356,
          "durationTicks": 64,
          "midi": 67,
          "name": "G4",
          "ticks": 114528,
          "time": 161.216055,
          "velocity": 0.6614173228346457
        },
        {
          "duration": 0.09009000000000356,
          "durationTicks": 64,
          "midi": 71,
          "name": "B4",
          "ticks": 114528,
          "time": 161.216055,
          "velocity": 0.7165354330708661
        },
        {
          "duration": 0.09009000000000356,
          "durationTicks": 64,
          "midi": 71,
          "name": "B4",
          "ticks": 114816,
          "time": 161.62146,
          "velocity": 0.7165354330708661
        },
        {
          "duration": 0.09009000000000356,
          "durationTicks": 64,
          "midi": 67,
          "name": "G4",
          "ticks": 114816,
          "time": 161.62146,
          "velocity": 0.6850393700787402
        },
        {
          "duration": 0.09009000000000356,
          "durationTicks": 64,
          "midi": 76,
          "name": "E5",
          "ticks": 114816,
          "time": 161.62146,
          "velocity": 0.6614173228346457
        },
        {
          "duration": 0.09009000000000356,
          "durationTicks": 64,
          "midi": 67,
          "name": "G4",
          "ticks": 114912,
          "time": 161.756595,
          "velocity": 0.7401574803149606
        },
        {
          "duration": 0.09009000000000356,
          "durationTicks": 64,
          "midi": 71,
          "name": "B4",
          "ticks": 114912,
          "time": 161.756595,
          "velocity": 0.7401574803149606
        },
        {
          "duration": 0.09009000000000356,
          "durationTicks": 64,
          "midi": 76,
          "name": "E5",
          "ticks": 114912,
          "time": 161.756595,
          "velocity": 0.7401574803149606
        }
      ]
    },
    {
      "channel": 0,
      "controlChanges": {
        "0": [
          {
            "number": 0,
            "ticks": 512,
            "time": 0.72072,
            "value": 0
          }
        ],
        "32": [
          {
            "number": 32,
            "ticks": 516,
            "time": 0.726350625,
            "value": 0
          }
        ],
        "121": [
          {
            "number": 121,
            "ticks": 392,
            "time": 0.55180125,
            "value": 0
          }
        ]
      },
      "pitchBends": [],
      "instrument": {
        "family": "piano",
        "name": "acoustic grand piano",
        "number": 0
      },
      "name": "GS/GM    ",
      "notes": []
    },
    {
      "channel": 0,
      "controlChanges": {
        "6": [
          {
            "number": 6,
            "ticks": 1220,
            "time": 1.717340625,
            "value": 0.015748031496062992
          },
          {
            "number": 6,
            "ticks": 1232,
            "time": 1.7342325,
            "value": 0.5039370078740157
          }
        ],
        "7": [
          {
            "number": 7,
            "ticks": 524,
            "time": 0.737611875,
            "value": 0.7874015748031497
          }
        ],
        "10": [
          {
            "number": 10,
            "ticks": 528,
            "time": 0.7432425,
            "value": 0.7244094488188977
          }
        ],
        "11": [
          {
            "number": 11,
            "ticks": 532,
            "time": 0.748873125,
            "value": 1
          }
        ],
        "91": [
          {
            "number": 91,
            "ticks": 536,
            "time": 0.75450375,
            "value": 0.7874015748031497
          }
        ],
        "93": [
          {
            "number": 93,
            "ticks": 540,
            "time": 0.760134375,
            "value": 0.7086614173228346
          }
        ],
        "100": [
          {
            "number": 100,
            "ticks": 1216,
            "time": 1.71171,
            "value": 0
          },
          {
            "number": 100,
            "ticks": 1228,
            "time": 1.728601875,
            "value": 0.015748031496062992
          },
          {
            "number": 100,
            "ticks": 1240,
            "time": 1.74549375,
            "value": 1
          }
        ],
        "101": [
          {
            "number": 101,
            "ticks": 1212,
            "time": 1.706079375,
            "value": 0
          },
          {
            "number": 101,
            "ticks": 1224,
            "time": 1.72297125,
            "value": 0
          },
          {
            "number": 101,
            "ticks": 1236,
            "time": 1.739863125,
            "value": 1
          }
        ]
      },
      "pitchBends": [],
      "instrument": {
        "family": "brass",
        "name": "synthbrass 1",
        "number": 62
      },
      "name": "",
      "notes": []
    },
    {
      "channel": 0,
      "controlChanges": {
        "0": [
          {
            "number": 0,
            "ticks": 544,
            "time": 0.765765,
            "value": 0
          }
        ],
        "32": [
          {
            "number": 32,
            "ticks": 548,
            "time": 0.771395625,
            "value": 0
          }
        ],
        "121": [
          {
            "number": 121,
            "ticks": 396,
            "time": 0.557431875,
            "value": 0
          }
        ]
      },
      "pitchBends": [],
      "instrument": {
        "family": "piano",
        "name": "acoustic grand piano",
        "number": 0
      },
      "name": "GS/GM    ",
      "notes": []
    },
    {
      "channel": 0,
      "controlChanges": {
        "6": [
          {
            "number": 6,
            "ticks": 1252,
            "time": 1.762385625,
            "value": 0.015748031496062992
          },
          {
            "number": 6,
            "ticks": 1264,
            "time": 1.7792775,
            "value": 0.5039370078740157
          }
        ],
        "7": [
          {
            "number": 7,
            "ticks": 556,
            "time": 0.782656875,
            "value": 0.7874015748031497
          }
        ],
        "10": [
          {
            "number": 10,
            "ticks": 560,
            "time": 0.7882875,
            "value": 0.31496062992125984
          }
        ],
        "11": [
          {
            "number": 11,
            "ticks": 564,
            "time": 0.793918125,
            "value": 1
          }
        ],
        "91": [
          {
            "number": 91,
            "ticks": 568,
            "time": 0.79954875,
            "value": 0.6299212598425197
          }
        ],
        "93": [
          {
            "number": 93,
            "ticks": 572,
            "time": 0.805179375,
            "value": 0.47244094488188976
          }
        ],
        "100": [
          {
            "number": 100,
            "ticks": 1248,
            "time": 1.756755,
            "value": 0
          },
          {
            "number": 100,
            "ticks": 1260,
            "time": 1.773646875,
            "value": 0.015748031496062992
          },
          {
            "number": 100,
            "ticks": 1272,
            "time": 1.79053875,
            "value": 1
          }
        ],
        "101": [
          {
            "number": 101,
            "ticks": 1244,
            "time": 1.751124375,
            "value": 0
          },
          {
            "number": 101,
            "ticks": 1256,
            "time": 1.76801625,
            "value": 0
          },
          {
            "number": 101,
            "ticks": 1268,
            "time": 1.784908125,
            "value": 1
          }
        ]
      },
      "pitchBends": [],
      "instrument": {
        "family": "ensemble",
        "name": "string ensemble 1",
        "number": 48
      },
      "name": "",
      "notes": []
    },
    {
      "channel": 0,
      "controlChanges": {
        "0": [
          {
            "number": 0,
            "ticks": 576,
            "time": 0.81081,
            "value": 0
          }
        ],
        "32": [
          {
            "number": 32,
            "ticks": 580,
            "time": 0.816440625,
            "value": 0
          }
        ],
        "121": [
          {
            "number": 121,
            "ticks": 400,
            "time": 0.5630625,
            "value": 0
          }
        ]
      },
      "pitchBends": [],
      "instrument": {
        "family": "piano",
        "name": "acoustic grand piano",
        "number": 0
      },
      "name": "GS/GM    ",
      "notes": []
    },
    {
      "channel": 0,
      "controlChanges": {
        "6": [
          {
            "number": 6,
            "ticks": 1284,
            "time": 1.807430625,
            "value": 0.015748031496062992
          },
          {
            "number": 6,
            "ticks": 1296,
            "time": 1.8243225,
            "value": 0.5039370078740157
          }
        ],
        "7": [
          {
            "number": 7,
            "ticks": 588,
            "time": 0.827701875,
            "value": 1
          }
        ],
        "10": [
          {
            "number": 10,
            "ticks": 592,
            "time": 0.8333325,
            "value": 0.7559055118110236
          }
        ],
        "11": [
          {
            "number": 11,
            "ticks": 596,
            "time": 0.838963125,
            "value": 1
          }
        ],
        "91": [
          {
            "number": 91,
            "ticks": 600,
            "time": 0.84459375,
            "value": 0.5511811023622047
          }
        ],
        "93": [
          {
            "number": 93,
            "ticks": 604,
            "time": 0.850224375,
            "value": 0.3937007874015748
          }
        ],
        "100": [
          {
            "number": 100,
            "ticks": 1280,
            "time": 1.8018,
            "value": 0
          },
          {
            "number": 100,
            "ticks": 1292,
            "time": 1.818691875,
            "value": 0.015748031496062992
          },
          {
            "number": 100,
            "ticks": 1304,
            "time": 1.83558375,
            "value": 1
          }
        ],
        "101": [
          {
            "number": 101,
            "ticks": 1276,
            "time": 1.796169375,
            "value": 0
          },
          {
            "number": 101,
            "ticks": 1288,
            "time": 1.81306125,
            "value": 0
          },
          {
            "number": 101,
            "ticks": 1300,
            "time": 1.829953125,
            "value": 1
          }
        ]
      },
      "pitchBends": [],
      "instrument": {
        "family": "pipe",
        "name": "flute",
        "number": 73
      },
      "name": "",
      "notes": []
    },
    {
      "channel": 0,
      "controlChanges": {
        "0": [
          {
            "number": 0,
            "ticks": 608,
            "time": 0.855855,
            "value": 0
          }
        ],
        "32": [
          {
            "number": 32,
            "ticks": 612,
            "time": 0.861485625,
            "value": 0
          }
        ],
        "121": [
          {
            "number": 121,
            "ticks": 404,
            "time": 0.568693125,
            "value": 0
          }
        ]
      },
      "pitchBends": [],
      "instrument": {
        "family": "piano",
        "name": "acoustic grand piano",
        "number": 0
      },
      "name": "GS/GM    ",
      "notes": []
    },
    {
      "channel": 0,
      "controlChanges": {
        "6": [
          {
            "number": 6,
            "ticks": 1316,
            "time": 1.852475625,
            "value": 0.015748031496062992
          },
          {
            "number": 6,
            "ticks": 1328,
            "time": 1.8693675,
            "value": 0.5039370078740157
          }
        ],
        "7": [
          {
            "number": 7,
            "ticks": 620,
            "time": 0.872746875,
            "value": 1
          }
        ],
        "10": [
          {
            "number": 10,
            "ticks": 624,
            "time": 0.8783775,
            "value": 0.31496062992125984
          }
        ],
        "11": [
          {
            "number": 11,
            "ticks": 628,
            "time": 0.884008125,
            "value": 1
          }
        ],
        "91": [
          {
            "number": 91,
            "ticks": 632,
            "time": 0.88963875,
            "value": 0.6299212598425197
          }
        ],
        "93": [
          {
            "number": 93,
            "ticks": 636,
            "time": 0.895269375,
            "value": 0.6299212598425197
          }
        ],
        "100": [
          {
            "number": 100,
            "ticks": 1312,
            "time": 1.846845,
            "value": 0
          },
          {
            "number": 100,
            "ticks": 1324,
            "time": 1.863736875,
            "value": 0.015748031496062992
          },
          {
            "number": 100,
            "ticks": 1336,
            "time": 1.88062875,
            "value": 1
          }
        ],
        "101": [
          {
            "number": 101,
            "ticks": 1308,
            "time": 1.841214375,
            "value": 0
          },
          {
            "number": 101,
            "ticks": 1320,
            "time": 1.85810625,
            "value": 0
          },
          {
            "number": 101,
            "ticks": 1332,
            "time": 1.874998125,
            "value": 1
          }
        ]
      },
      "pitchBends": [],
      "instrument": {
        "family": "chromatic percussion",
        "name": "marimba",
        "number": 12
      },
      "name": "",
      "notes": []
    },
    {
      "channel": 0,
      "controlChanges": {
        "0": [
          {
            "number": 0,
            "ticks": 672,
            "time": 0.945945,
            "value": 0
          }
        ],
        "32": [
          {
            "number": 32,
            "ticks": 676,
            "time": 0.951575625,
            "value": 0
          }
        ],
        "121": [
          {
            "number": 121,
            "ticks": 412,
            "time": 0.579954375,
            "value": 0
          }
        ]
      },
      "pitchBends": [],
      "instrument": {
        "family": "piano",
        "name": "acoustic grand piano",
        "number": 0
      },
      "name": "GS/GM    ",
      "notes": []
    },
    {
      "channel": 0,
      "controlChanges": {
        "6": [
          {
            "number": 6,
            "ticks": 1380,
            "time": 1.942565625,
            "value": 0.015748031496062992
          },
          {
            "number": 6,
            "ticks": 1392,
            "time": 1.9594575,
            "value": 0.5039370078740157
          }
        ],
        "7": [
          {
            "number": 7,
            "ticks": 684,
            "time": 0.962836875,
            "value": 0.7874015748031497
          }
        ],
        "10": [
          {
            "number": 10,
            "ticks": 688,
            "time": 0.9684675,
            "value": 0.6929133858267716
          }
        ],
        "11": [
          {
            "number": 11,
            "ticks": 692,
            "time": 0.974098125,
            "value": 1
          }
        ],
        "91": [
          {
            "number": 91,
            "ticks": 696,
            "time": 0.97972875,
            "value": 0.7874015748031497
          }
        ],
        "93": [
          {
            "number": 93,
            "ticks": 700,
            "time": 0.985359375,
            "value": 0.5511811023622047
          }
        ],
        "100": [
          {
            "number": 100,
            "ticks": 1376,
            "time": 1.936935,
            "value": 0
          },
          {
            "number": 100,
            "ticks": 1388,
            "time": 1.953826875,
            "value": 0.015748031496062992
          },
          {
            "number": 100,
            "ticks": 1400,
            "time": 1.97071875,
            "value": 1
          }
        ],
        "101": [
          {
            "number": 101,
            "ticks": 1372,
            "time": 1.931304375,
            "value": 0
          },
          {
            "number": 101,
            "ticks": 1384,
            "time": 1.94819625,
            "value": 0
          },
          {
            "number": 101,
            "ticks": 1396,
            "time": 1.965088125,
            "value": 1
          }
        ]
      },
      "pitchBends": [],
      "instrument": {
        "family": "ensemble",
        "name": "string ensemble 2",
        "number": 49
      },
      "name": "",
      "notes": []
    },
    {
      "channel": 0,
      "controlChanges": {
        "0": [
          {
            "number": 0,
            "ticks": 704,
            "time": 0.99099,
            "value": 0
          }
        ],
        "32": [
          {
            "number": 32,
            "ticks": 708,
            "time": 0.996620625,
            "value": 0
          }
        ],
        "121": [
          {
            "number": 121,
            "ticks": 416,
            "time": 0.585585,
            "value": 0
          }
        ]
      },
      "pitchBends": [],
      "instrument": {
        "family": "piano",
        "name": "acoustic grand piano",
        "number": 0
      },
      "name": "GS/GM    ",
      "notes": []
    },
    {
      "channel": 0,
      "controlChanges": {
        "6": [
          {
            "number": 6,
            "ticks": 1412,
            "time": 1.987610625,
            "value": 0.015748031496062992
          },
          {
            "number": 6,
            "ticks": 1424,
            "time": 2.0045025,
            "value": 0.5039370078740157
          }
        ],
        "7": [
          {
            "number": 7,
            "ticks": 716,
            "time": 1.007881875,
            "value": 0.905511811023622
          }
        ],
        "10": [
          {
            "number": 10,
            "ticks": 720,
            "time": 1.0135125,
            "value": 0.6456692913385826
          }
        ],
        "11": [
          {
            "number": 11,
            "ticks": 724,
            "time": 1.019143125,
            "value": 1
          }
        ],
        "91": [
          {
            "number": 91,
            "ticks": 728,
            "time": 1.02477375,
            "value": 1
          }
        ],
        "93": [
          {
            "number": 93,
            "ticks": 732,
            "time": 1.030404375,
            "value": 1
          }
        ],
        "100": [
          {
            "number": 100,
            "ticks": 1408,
            "time": 1.98198,
            "value": 0
          },
          {
            "number": 100,
            "ticks": 1420,
            "time": 1.998871875,
            "value": 0.015748031496062992
          },
          {
            "number": 100,
            "ticks": 1432,
            "time": 2.01576375,
            "value": 1
          }
        ],
        "101": [
          {
            "number": 101,
            "ticks": 1404,
            "time": 1.976349375,
            "value": 0
          },
          {
            "number": 101,
            "ticks": 1416,
            "time": 1.99324125,
            "value": 0
          },
          {
            "number": 101,
            "ticks": 1428,
            "time": 2.0101331250000003,
            "value": 1
          }
        ]
      },
      "pitchBends": [],
      "instrument": {
        "family": "guitar",
        "name": "distortion guitar",
        "number": 30
      },
      "name": "",
      "notes": []
    },
    {
      "channel": 0,
      "controlChanges": {
        "0": [
          {
            "number": 0,
            "ticks": 768,
            "time": 1.08108,
            "value": 0
          }
        ],
        "32": [
          {
            "number": 32,
            "ticks": 772,
            "time": 1.086710625,
            "value": 0
          }
        ],
        "121": [
          {
            "number": 121,
            "ticks": 424,
            "time": 0.59684625,
            "value": 0
          }
        ]
      },
      "pitchBends": [],
      "instrument": {
        "family": "piano",
        "name": "acoustic grand piano",
        "number": 0
      },
      "name": "GS/GM    ",
      "notes": []
    },
    {
      "channel": 0,
      "controlChanges": {
        "6": [
          {
            "number": 6,
            "ticks": 1476,
            "time": 2.0777006250000003,
            "value": 0.015748031496062992
          },
          {
            "number": 6,
            "ticks": 1488,
            "time": 2.0945925,
            "value": 0.5039370078740157
          }
        ],
        "7": [
          {
            "number": 7,
            "ticks": 780,
            "time": 1.097971875,
            "value": 0.7874015748031497
          }
        ],
        "10": [
          {
            "number": 10,
            "ticks": 784,
            "time": 1.1036025,
            "value": 0.6929133858267716
          }
        ],
        "11": [
          {
            "number": 11,
            "ticks": 788,
            "time": 1.109233125,
            "value": 1
          }
        ],
        "91": [
          {
            "number": 91,
            "ticks": 792,
            "time": 1.11486375,
            "value": 0.3937007874015748
          }
        ],
        "93": [
          {
            "number": 93,
            "ticks": 796,
            "time": 1.120494375,
            "value": 0.6299212598425197
          }
        ],
        "100": [
          {
            "number": 100,
            "ticks": 1472,
            "time": 2.07207,
            "value": 0
          },
          {
            "number": 100,
            "ticks": 1484,
            "time": 2.0889618750000003,
            "value": 0.015748031496062992
          },
          {
            "number": 100,
            "ticks": 1496,
            "time": 2.10585375,
            "value": 1
          }
        ],
        "101": [
          {
            "number": 101,
            "ticks": 1468,
            "time": 2.066439375,
            "value": 0
          },
          {
            "number": 101,
            "ticks": 1480,
            "time": 2.08333125,
            "value": 0
          },
          {
            "number": 101,
            "ticks": 1492,
            "time": 2.100223125,
            "value": 1
          }
        ]
      },
      "pitchBends": [],
      "instrument": {
        "family": "organ",
        "name": "percussive organ",
        "number": 17
      },
      "name": "",
      "notes": []
    },
    {
      "channel": 0,
      "controlChanges": {
        "0": [
          {
            "number": 0,
            "ticks": 800,
            "time": 1.126125,
            "value": 0
          }
        ],
        "32": [
          {
            "number": 32,
            "ticks": 804,
            "time": 1.131755625,
            "value": 0
          }
        ],
        "121": [
          {
            "number": 121,
            "ticks": 428,
            "time": 0.602476875,
            "value": 0
          }
        ]
      },
      "pitchBends": [],
      "instrument": {
        "family": "piano",
        "name": "acoustic grand piano",
        "number": 0
      },
      "name": "GS/GM    ",
      "notes": []
    },
    {
      "channel": 0,
      "controlChanges": {
        "6": [
          {
            "number": 6,
            "ticks": 1508,
            "time": 2.1227456250000003,
            "value": 0.015748031496062992
          },
          {
            "number": 6,
            "ticks": 1520,
            "time": 2.1396375,
            "value": 0.5039370078740157
          }
        ],
        "7": [
          {
            "number": 7,
            "ticks": 812,
            "time": 1.143016875,
            "value": 1
          }
        ],
        "10": [
          {
            "number": 10,
            "ticks": 816,
            "time": 1.1486475,
            "value": 0.6929133858267716
          }
        ],
        "11": [
          {
            "number": 11,
            "ticks": 820,
            "time": 1.154278125,
            "value": 1
          }
        ],
        "91": [
          {
            "number": 91,
            "ticks": 824,
            "time": 1.15990875,
            "value": 0.3937007874015748
          }
        ],
        "93": [
          {
            "number": 93,
            "ticks": 828,
            "time": 1.165539375,
            "value": 0
          }
        ],
        "100": [
          {
            "number": 100,
            "ticks": 1504,
            "time": 2.117115,
            "value": 0
          },
          {
            "number": 100,
            "ticks": 1516,
            "time": 2.134006875,
            "value": 0.015748031496062992
          },
          {
            "number": 100,
            "ticks": 1528,
            "time": 2.15089875,
            "value": 1
          }
        ],
        "101": [
          {
            "number": 101,
            "ticks": 1500,
            "time": 2.111484375,
            "value": 0
          },
          {
            "number": 101,
            "ticks": 1512,
            "time": 2.12837625,
            "value": 0
          },
          {
            "number": 101,
            "ticks": 1524,
            "time": 2.1452681250000003,
            "value": 1
          }
        ]
      },
      "pitchBends": [],
      "instrument": {
        "family": "piano",
        "name": "bright acoustic piano",
        "number": 1
      },
      "name": "",
      "notes": []
    },
    {
      "channel": 0,
      "controlChanges": {
        "0": [
          {
            "number": 0,
            "ticks": 832,
            "time": 1.17117,
            "value": 0
          }
        ],
        "32": [
          {
            "number": 32,
            "ticks": 836,
            "time": 1.176800625,
            "value": 0
          }
        ],
        "121": [
          {
            "number": 121,
            "ticks": 432,
            "time": 0.6081075,
            "value": 0
          }
        ]
      },
      "pitchBends": [],
      "instrument": {
        "family": "piano",
        "name": "acoustic grand piano",
        "number": 0
      },
      "name": "GS/GM    ",
      "notes": []
    },
    {
      "channel": 0,
      "controlChanges": {
        "6": [
          {
            "number": 6,
            "ticks": 1540,
            "time": 2.1677906250000003,
            "value": 0.015748031496062992
          },
          {
            "number": 6,
            "ticks": 1552,
            "time": 2.1846825,
            "value": 0.5039370078740157
          }
        ],
        "7": [
          {
            "number": 7,
            "ticks": 844,
            "time": 1.188061875,
            "value": 1
          }
        ],
        "10": [
          {
            "number": 10,
            "ticks": 848,
            "time": 1.1936925,
            "value": 0.28346456692913385
          }
        ],
        "11": [
          {
            "number": 11,
            "ticks": 852,
            "time": 1.199323125,
            "value": 1
          }
        ],
        "91": [
          {
            "number": 91,
            "ticks": 856,
            "time": 1.20495375,
            "value": 0.6299212598425197
          }
        ],
        "93": [
          {
            "number": 93,
            "ticks": 860,
            "time": 1.210584375,
            "value": 0.3937007874015748
          }
        ],
        "100": [
          {
            "number": 100,
            "ticks": 1536,
            "time": 2.16216,
            "value": 0
          },
          {
            "number": 100,
            "ticks": 1548,
            "time": 2.179051875,
            "value": 0.015748031496062992
          },
          {
            "number": 100,
            "ticks": 1560,
            "time": 2.19594375,
            "value": 1
          }
        ],
        "101": [
          {
            "number": 101,
            "ticks": 1532,
            "time": 2.1565293750000003,
            "value": 0
          },
          {
            "number": 101,
            "ticks": 1544,
            "time": 2.17342125,
            "value": 0
          },
          {
            "number": 101,
            "ticks": 1556,
            "time": 2.190313125,
            "value": 1
          }
        ]
      },
      "pitchBends": [],
      "instrument": {
        "family": "brass",
        "name": "brass section",
        "number": 61
      },
      "name": "",
      "notes": []
    },
    {
      "channel": 0,
      "controlChanges": {
        "0": [
          {
            "number": 0,
            "ticks": 864,
            "time": 1.216215,
            "value": 0
          }
        ],
        "32": [
          {
            "number": 32,
            "ticks": 868,
            "time": 1.221845625,
            "value": 0
          }
        ],
        "121": [
          {
            "number": 121,
            "ticks": 436,
            "time": 0.613738125,
            "value": 0
          }
        ]
      },
      "pitchBends": [],
      "instrument": {
        "family": "piano",
        "name": "acoustic grand piano",
        "number": 0
      },
      "name": "GS/GM    ",
      "notes": []
    },
    {
      "channel": 0,
      "controlChanges": {
        "6": [
          {
            "number": 6,
            "ticks": 1572,
            "time": 2.2128356250000003,
            "value": 0.015748031496062992
          },
          {
            "number": 6,
            "ticks": 1584,
            "time": 2.2297275,
            "value": 0.5039370078740157
          }
        ],
        "7": [
          {
            "number": 7,
            "ticks": 876,
            "time": 1.233106875,
            "value": 0.9448818897637795
          }
        ],
        "10": [
          {
            "number": 10,
            "ticks": 880,
            "time": 1.2387375,
            "value": 0.25196850393700787
          }
        ],
        "11": [
          {
            "number": 11,
            "ticks": 884,
            "time": 1.244368125,
            "value": 1
          }
        ],
        "91": [
          {
            "number": 91,
            "ticks": 888,
            "time": 1.24999875,
            "value": 0.7874015748031497
          }
        ],
        "93": [
          {
            "number": 93,
            "ticks": 892,
            "time": 1.255629375,
            "value": 0.1968503937007874
          }
        ],
        "100": [
          {
            "number": 100,
            "ticks": 1568,
            "time": 2.207205,
            "value": 0
          },
          {
            "number": 100,
            "ticks": 1580,
            "time": 2.224096875,
            "value": 0.015748031496062992
          },
          {
            "number": 100,
            "ticks": 1592,
            "time": 2.24098875,
            "value": 1
          }
        ],
        "101": [
          {
            "number": 101,
            "ticks": 1564,
            "time": 2.2015743750000003,
            "value": 0
          },
          {
            "number": 101,
            "ticks": 1576,
            "time": 2.21846625,
            "value": 0
          },
          {
            "number": 101,
            "ticks": 1588,
            "time": 2.2353581250000003,
            "value": 1
          }
        ]
      },
      "pitchBends": [],
      "instrument": {
        "family": "guitar",
        "name": "acoustic guitar (steel)",
        "number": 25
      },
      "name": "",
      "notes": []
    },
    {
      "channel": 0,
      "controlChanges": {
        "0": [
          {
            "number": 0,
            "ticks": 896,
            "time": 1.26126,
            "value": 0
          }
        ],
        "32": [
          {
            "number": 32,
            "ticks": 900,
            "time": 1.266890625,
            "value": 0
          }
        ],
        "121": [
          {
            "number": 121,
            "ticks": 440,
            "time": 0.61936875,
            "value": 0
          }
        ]
      },
      "pitchBends": [],
      "instrument": {
        "family": "piano",
        "name": "acoustic grand piano",
        "number": 0
      },
      "name": "GS/GM    ",
      "notes": []
    },
    {
      "channel": 0,
      "controlChanges": {
        "6": [
          {
            "number": 6,
            "ticks": 1604,
            "time": 2.257880625,
            "value": 0.015748031496062992
          },
          {
            "number": 6,
            "ticks": 1616,
            "time": 2.2747725,
            "value": 0.5039370078740157
          }
        ],
        "7": [
          {
            "number": 7,
            "ticks": 908,
            "time": 1.278151875,
            "value": 0.8661417322834646
          }
        ],
        "10": [
          {
            "number": 10,
            "ticks": 912,
            "time": 1.2837825,
            "value": 0.36220472440944884
          }
        ],
        "11": [
          {
            "number": 11,
            "ticks": 916,
            "time": 1.289413125,
            "value": 1
          }
        ],
        "91": [
          {
            "number": 91,
            "ticks": 920,
            "time": 1.29504375,
            "value": 0.7086614173228346
          }
        ],
        "93": [
          {
            "number": 93,
            "ticks": 924,
            "time": 1.300674375,
            "value": 0.4330708661417323
          }
        ],
        "100": [
          {
            "number": 100,
            "ticks": 1600,
            "time": 2.25225,
            "value": 0
          },
          {
            "number": 100,
            "ticks": 1612,
            "time": 2.2691418750000003,
            "value": 0.015748031496062992
          },
          {
            "number": 100,
            "ticks": 1624,
            "time": 2.28603375,
            "value": 1
          }
        ],
        "101": [
          {
            "number": 101,
            "ticks": 1596,
            "time": 2.246619375,
            "value": 0
          },
          {
            "number": 101,
            "ticks": 1608,
            "time": 2.26351125,
            "value": 0
          },
          {
            "number": 101,
            "ticks": 1620,
            "time": 2.2804031250000003,
            "value": 1
          }
        ]
      },
      "pitchBends": [],
      "instrument": {
        "family": "ensemble",
        "name": "choir aahs",
        "number": 52
      },
      "name": "",
      "notes": []
    }
  ]
}