{
  "header": {
    "keySignatures": [
      {
        "key": "C",
        "scale": "major",
        "ticks": 0
      }
    ],
    "meta": [
      {
        "ticks": 0,
        "type": "unknownMeta"
      },
      {
        "ticks": 0,
        "type": "unknownMeta"
      }
    ],
    "name": "",
    "ppq": 480,
    "tempos": [],
    "timeSignatures": [
      {
        "ticks": 0,
        "timeSignature": [
          4,
          4
        ],
        "measures": 0
      }
    ]
  },
  "tracks": [
    {
      "channel": 0,
      "controlChanges": {
        "7": [
          {
            "number": 7,
            "ticks": 2,
            "time": 0.0020833333333333333,
            "value": 0.7874015748031497
          }
        ],
        "10": [
          {
            "number": 10,
            "ticks": 4,
            "time": 0.004166666666666667,
            "value": 0.5039370078740157
          }
        ],
        "91": [
          {
            "number": 91,
            "ticks": 6,
            "time": 0.00625,
            "value": 0.23622047244094488
          }
        ],
        "93": [
          {
            "number": 93,
            "ticks": 8,
            "time": 0.008333333333333333,
            "value": 0.23622047244094488
          }
        ]
      },
      "pitchBends": [],
      "instrument": {
        "family": "strings",
        "name": "violin",
        "number": 40
      },
      "name": "",
      "notes": [
        {
          "duration": 0.12395833333333334,
          "durationTicks": 119,
          "midi": 76,
          "name": "E5",
          "ticks": 0,
          "time": 0,
          "velocity": 0.6299212598425197
        },
        {
          "duration": 0.12395833333333334,
          "durationTicks": 119,
          "midi": 72,
          "name": "C5",
          "ticks": 0,
          "time": 0,
          "velocity": 0.6299212598425197
        },
        {
          "duration": 0.24895833333333334,
          "durationTicks": 239,
          "midi": 76,
          "name": "E5",
          "ticks": 120,
          "time": 0.125,
          "velocity": 0.6299212598425197
        },
        {
          "duration": 0.24895833333333334,
          "durationTicks": 239,
          "midi": 72,
          "name": "C5",
          "ticks": 120,
          "time": 0.125,
          "velocity": 0.6299212598425197
        },
        {
          "duration": 0.12395833333333334,
          "durationTicks": 119,
          "midi": 76,
          "name": "E5",
          "ticks": 360,
          "time": 0.375,
          "velocity": 0.6299212598425197
        },
        {
          "duration": 0.12395833333333334,
          "durationTicks": 119,
          "midi": 72,
          "name": "C5",
          "ticks": 360,
          "time": 0.375,
          "velocity": 0.6299212598425197
        },
        {
          "duration": 0.12395833333333328,
          "durationTicks": 119,
          "midi": 72,
          "name": "C5",
          "ticks": 600,
          "time": 0.625,
          "velocity": 0.6299212598425197
        },
        {
          "duration": 0.12395833333333328,
          "durationTicks": 119,
          "midi": 76,
          "name": "E5",
          "ticks": 720,
          "time": 0.75,
          "velocity": 0.6299212598425197
        },
        {
          "duration": 0.2489583333333334,
          "durationTicks": 239,
          "midi": 79,
          "name": "G5",
          "ticks": 960,
          "time": 1,
          "velocity": 0.6299212598425197
        },
        {
          "duration": 0.2489583333333334,
          "durationTicks": 239,
          "midi": 71,
          "name": "B4",
          "ticks": 960,
          "time": 1,
          "velocity": 0.6299212598425197
        },
        {
          "duration": 0.2489583333333334,
          "durationTicks": 239,
          "midi": 67,
          "name": "G4",
          "ticks": 1440,
          "time": 1.5,
          "velocity": 0.6299212598425197
        },
        {
          "duration": 0.2489583333333334,
          "durationTicks": 239,
          "midi": 59,
          "name": "B3",
          "ticks": 1440,
          "time": 1.5,
          "velocity": 0.6299212598425197
        },
        {
          "duration": 0.2489583333333334,
          "durationTicks": 239,
          "midi": 72,
          "name": "C5",
          "ticks": 1920,
          "time": 2,
          "velocity": 0.6299212598425197
        },
        {
          "duration": 0.2489583333333334,
          "durationTicks": 239,
          "midi": 67,
          "name": "G4",
          "ticks": 2280,
          "time": 2.375,
          "velocity": 0.6299212598425197
        },
        {
          "duration": 0.2489583333333334,
          "durationTicks": 239,
          "midi": 64,
          "name": "E4",
          "ticks": 2640,
          "time": 2.75,
          "velocity": 0.6299212598425197
        },
        {
          "duration": 0.2489583333333334,
          "durationTicks": 239,
          "midi": 69,
          "name": "A4",
          "ticks": 3000,
          "time": 3.125,
          "velocity": 0.6299212598425197
        },
        {
          "duration": 0.2489583333333334,
          "durationTicks": 239,
          "midi": 71,
          "name": "B4",
          "ticks": 3240,
          "time": 3.375,
          "velocity": 0.6299212598425197
        },
        {
          "duration": 0.12395833333333339,
          "durationTicks": 119,
          "midi": 70,
          "name": "A#4",
          "ticks": 3480,
          "time": 3.625,
          "velocity": 0.6299212598425197
        },
        {
          "duration": 0.12395833333333339,
          "durationTicks": 119,
          "midi": 69,
          "name": "A4",
          "ticks": 3600,
          "time": 3.75,
          "velocity": 0.6299212598425197
        },
        {
          "duration": 0.16562500000000036,
          "durationTicks": 159,
          "midi": 67,
          "name": "G4",
          "ticks": 3840,
          "time": 4,
          "velocity": 0.6299212598425197
        },
        {
          "duration": 0.16562499999999947,
          "durationTicks": 159,
          "midi": 76,
          "name": "E5",
          "ticks": 4000,
          "time": 4.166666666666667,
          "velocity": 0.6299212598425197
        },
        {
          "duration": 0.16562500000000036,
          "durationTicks": 159,
          "midi": 79,
          "name": "G5",
          "ticks": 4160,
          "time": 4.333333333333333,
          "velocity": 0.6299212598425197
        },
        {
          "duration": 0.2489583333333334,
          "durationTicks": 239,
          "midi": 81,
          "name": "A5",
          "ticks": 4320,
          "time": 4.5,
          "velocity": 0.6299212598425197
        },
        {
          "duration": 0.12395833333333339,
          "durationTicks": 119,
          "midi": 77,
          "name": "F5",
          "ticks": 4560,
          "time": 4.75,
          "velocity": 0.6299212598425197
        },
        {
          "duration": 0.12395833333333339,
          "durationTicks": 119,
          "midi": 79,
          "name": "G5",
          "ticks": 4680,
          "time": 4.875,
          "velocity": 0.6299212598425197
        },
        {
          "duration": 0.2489583333333334,
          "durationTicks": 239,
          "midi": 76,
          "name": "E5",
          "ticks": 4920,
          "time": 5.125,
          "velocity": 0.6299212598425197
        },
        {
          "duration": 0.12395833333333339,
          "durationTicks": 119,
          "midi": 72,
          "name": "C5",
          "ticks": 5160,
          "time": 5.375,
          "velocity": 0.6299212598425197
        },
        {
          "duration": 0.12395833333333339,
          "durationTicks": 119,
          "midi": 74,
          "name": "D5",
          "ticks": 5280,
          "time": 5.5,
          "velocity": 0.6299212598425197
        },
        {
          "duration": 0.12395833333333339,
          "durationTicks": 119,
          "midi": 71,
          "name": "B4",
          "ticks": 5400,
          "time": 5.625,
          "velocity": 0.6299212598425197
        },
        {
          "duration": 0.2489583333333334,
          "durationTicks": 239,
          "midi": 72,
          "name": "C5",
          "ticks": 5760,
          "time": 6,
          "velocity": 0.6299212598425197
        },
        {
          "duration": 0.2489583333333334,
          "durationTicks": 239,
          "midi": 67,
          "name": "G4",
          "ticks": 6120,
          "time": 6.375,
          "velocity": 0.6299212598425197
        },
        {
          "duration": 0.2489583333333334,
          "durationTicks": 239,
          "midi": 64,
          "name": "E4",
          "ticks": 6480,
          "time": 6.75,
          "velocity": 0.6299212598425197
        },
        {
          "duration": 0.2489583333333334,
          "durationTicks": 239,
          "midi": 69,
          "name": "A4",
          "ticks": 6840,
          "time": 7.125,
          "velocity": 0.6299212598425197
        },
        {
          "duration": 0.2489583333333334,
          "durationTicks": 239,
          "midi": 71,
          "name": "B4",
          "ticks": 7080,
          "time": 7.375,
          "velocity": 0.6299212598425197
        },
        {
          "duration": 0.12395833333333339,
          "durationTicks": 119,
          "midi": 70,
          "name": "A#4",
          "ticks": 7320,
          "time": 7.625,
          "velocity": 0.6299212598425197
        },
        {
          "duration": 0.12395833333333339,
          "durationTicks": 119,
          "midi": 69,
          "name": "A4",
          "ticks": 7440,
          "time": 7.75,
          "velocity": 0.6299212598425197
        },
        {
          "duration": 0.16562500000000036,
          "durationTicks": 159,
          "midi": 67,
          "name": "G4",
          "ticks": 7680,
          "time": 8,
          "velocity": 0.6299212598425197
        },
        {
          "duration": 0.16562500000000036,
          "durationTicks": 159,
          "midi": 76,
          "name": "E5",
          "ticks": 7840,
          "time": 8.166666666666666,
          "velocity": 0.6299212598425197
        },
        {
          "duration": 0.16562499999999858,
          "durationTicks": 159,
          "midi": 79,
          "name": "G5",
          "ticks": 8000,
          "time": 8.333333333333334,
          "velocity": 0.6299212598425197
        },
        {
          "duration": 0.2489583333333325,
          "durationTicks": 239,
          "midi": 81,
          "name": "A5",
          "ticks": 8160,
          "time": 8.5,
          "velocity": 0.6299212598425197
        },
        {
          "duration": 0.1239583333333325,
          "durationTicks": 119,
          "midi": 77,
          "name": "F5",
          "ticks": 8400,
          "time": 8.75,
          "velocity": 0.6299212598425197
        },
        {
          "duration": 0.1239583333333325,
          "durationTicks": 119,
          "midi": 79,
          "name": "G5",
          "ticks": 8520,
          "time": 8.875,
          "velocity": 0.6299212598425197
        },
        {
          "duration": 0.2489583333333325,
          "durationTicks": 239,
          "midi": 76,
          "name": "E5",
          "ticks": 8760,
          "time": 9.125,
          "velocity": 0.6299212598425197
        },
        {
          "duration": 0.1239583333333325,
          "durationTicks": 119,
          "midi": 72,
          "name": "C5",
          "ticks": 9000,
          "time": 9.375,
          "velocity": 0.6299212598425197
        },
        {
          "duration": 0.1239583333333325,
          "durationTicks": 119,
          "midi": 74,
          "name": "D5",
          "ticks": 9120,
          "time": 9.5,
          "velocity": 0.6299212598425197
        },
        {
          "duration": 0.1239583333333325,
          "durationTicks": 119,
          "midi": 71,
          "name": "B4",
          "ticks": 9240,
          "time": 9.625,
          "velocity": 0.6299212598425197
        },
        {
          "duration": 0.1239583333333325,
          "durationTicks": 119,
          "midi": 60,
          "name": "C4",
          "ticks": 9600,
          "time": 10,
          "velocity": 0.6299212598425197
        },
        {
          "duration": 0.1239583333333325,
          "durationTicks": 119,
          "midi": 79,
          "name": "G5",
          "ticks": 9840,
          "time": 10.25,
          "velocity": 0.6299212598425197
        },
        {
          "duration": 0.1239583333333325,
          "durationTicks": 119,
          "midi": 78,
          "name": "F#5",
          "ticks": 9960,
          "time": 10.375,
          "velocity": 0.6299212598425197
        },
        {
          "duration": 0.1239583333333325,
          "durationTicks": 119,
          "midi": 77,
          "name": "F5",
          "ticks": 10080,
          "time": 10.5,
          "velocity": 0.6299212598425197
        },
        {
          "duration": 0.1239583333333325,
          "durationTicks": 119,
          "midi": 75,
          "name": "D#5",
          "ticks": 10200,
          "time": 10.625,
          "velocity": 0.6299212598425197
        },
        {
          "duration": 0.1239583333333325,
          "durationTicks": 119,
          "midi": 76,
          "name": "E5",
          "ticks": 10440,
          "time": 10.875,
          "velocity": 0.6299212598425197
        },
        {
          "duration": 0.1239583333333325,
          "durationTicks": 119,
          "midi": 72,
          "name": "C5",
          "ticks": 10440,
          "time": 10.875,
          "velocity": 0.6299212598425197
        },
        {
          "duration": 0.1239583333333325,
          "durationTicks": 119,
          "midi": 68,
          "name": "G#4",
          "ticks": 10680,
          "time": 11.125,
          "velocity": 0.6299212598425197
        },
        {
          "duration": 0.1239583333333325,
          "durationTicks": 119,
          "midi": 69,
          "name": "A4",
          "ticks": 10800,
          "time": 11.25,
          "velocity": 0.6299212598425197
        },
        {
          "duration": 0.1239583333333325,
          "durationTicks": 119,
          "midi": 72,
          "name": "C5",
          "ticks": 10920,
          "time": 11.375,
          "velocity": 0.6299212598425197
        },
        {
          "duration": 0.1239583333333325,
          "durationTicks": 119,
          "midi": 69,
          "name": "A4",
          "ticks": 11160,
          "time": 11.625,
          "velocity": 0.6299212598425197
        },
        {
          "duration": 0.1239583333333325,
          "durationTicks": 119,
          "midi": 72,
          "name": "C5",
          "ticks": 11280,
          "time": 11.75,
          "velocity": 0.6299212598425197
        },
        {
          "duration": 0.1239583333333325,
          "durationTicks": 119,
          "midi": 74,
          "name": "D5",
          "ticks": 11400,
          "time": 11.875,
          "velocity": 0.6299212598425197
        },
        {
          "duration": 0.1239583333333325,
          "durationTicks": 119,
          "midi": 60,
          "name": "C4",
          "ticks": 11520,
          "time": 12,
          "velocity": 0.6299212598425197
        },
        {
          "duration": 0.1239583333333325,
          "durationTicks": 119,
          "midi": 79,
          "name": "G5",
          "ticks": 11760,
          "time": 12.25,
          "velocity": 0.6299212598425197
        },
        {
          "duration": 0.1239583333333325,
          "durationTicks": 119,
          "midi": 78,
          "name": "F#5",
          "ticks": 11880,
          "time": 12.375,
          "velocity": 0.6299212598425197
        },
        {
          "duration": 0.1239583333333325,
          "durationTicks": 119,
          "midi": 77,
          "name": "F5",
          "ticks": 12000,
          "time": 12.5,
          "velocity": 0.6299212598425197
        },
        {
          "duration": 0.1239583333333325,
          "durationTicks": 119,
          "midi": 75,
          "name": "D#5",
          "ticks": 12120,
          "time": 12.625,
          "velocity": 0.6299212598425197
        },
        {
          "duration": 0.1239583333333325,
          "durationTicks": 119,
          "midi": 76,
          "name": "E5",
          "ticks": 12360,
          "time": 12.875,
          "velocity": 0.6299212598425197
        },
        {
          "duration": 0.1239583333333325,
          "durationTicks": 119,
          "midi": 72,
          "name": "C5",
          "ticks": 12360,
          "time": 12.875,
          "velocity": 0.6299212598425197
        },
        {
          "duration": 0.1239583333333325,
          "durationTicks": 119,
          "midi": 84,
          "name": "C6",
          "ticks": 12600,
          "time": 13.125,
          "velocity": 0.6299212598425197
        },
        {
          "duration": 0.1239583333333325,
          "durationTicks": 119,
          "midi": 76,
          "name": "E5",
          "ticks": 12600,
          "time": 13.125,
          "velocity": 0.6299212598425197
        },
        {
          "duration": 0.1239583333333325,
          "durationTicks": 119,
          "midi": 84,
          "name": "C6",
          "ticks": 12840,
          "time": 13.375,
          "velocity": 0.6299212598425197
        },
        {
          "duration": 0.1239583333333325,
          "durationTicks": 119,
          "midi": 76,
          "name": "E5",
          "ticks": 12840,
          "time": 13.375,
          "velocity": 0.6299212598425197
        },
        {
          "duration": 0.1239583333333325,
          "durationTicks": 119,
          "midi": 84,
          "name": "C6",
          "ticks": 12960,
          "time": 13.5,
          "velocity": 0.6299212598425197
        },
        {
          "duration": 0.1239583333333325,
          "durationTicks": 119,
          "midi": 76,
          "name": "E5",
          "ticks": 12960,
          "time": 13.5,
          "velocity": 0.6299212598425197
        },
        {
          "duration": 0.1239583333333325,
          "durationTicks": 119,
          "midi": 67,
          "name": "G4",
          "ticks": 13200,
          "time": 13.75,
          "velocity": 0.6299212598425197
        },
        {
          "duration": 0.1239583333333325,
          "durationTicks": 119,
          "midi": 60,
          "name": "C4",
          "ticks": 13440,
          "time": 14,
          "velocity": 0.6299212598425197
        },
        {
          "duration": 0.1239583333333325,
          "durationTicks": 119,
          "midi": 79,
          "name": "G5",
          "ticks": 13680,
          "time": 14.25,
          "velocity": 0.6299212598425197
        },
        {
          "duration": 0.1239583333333325,
          "durationTicks": 119,
          "midi": 78,
          "name": "F#5",
          "ticks": 13800,
          "time": 14.375,
          "velocity": 0.6299212598425197
        },
        {
          "duration": 0.1239583333333325,
          "durationTicks": 119,
          "midi": 77,
          "name": "F5",
          "ticks": 13920,
          "time": 14.5,
          "velocity": 0.6299212598425197
        },
        {
          "duration": 0.1239583333333325,
          "durationTicks": 119,
          "midi": 75,
          "name": "D#5",
          "ticks": 14040,
          "time": 14.625,
          "velocity": 0.6299212598425197
        },
        {
          "duration": 0.1239583333333325,
          "durationTicks": 119,
          "midi": 76,
          "name": "E5",
          "ticks": 14280,
          "time": 14.875,
          "velocity": 0.6299212598425197
        },
        {
          "duration": 0.1239583333333325,
          "durationTicks": 119,
          "midi": 72,
          "name": "C5",
          "ticks": 14280,
          "time": 14.875,
          "velocity": 0.6299212598425197
        },
        {
          "duration": 0.1239583333333325,
          "durationTicks": 119,
          "midi": 68,
          "name": "G#4",
          "ticks": 14520,
          "time": 15.125,
          "velocity": 0.6299212598425197
        },
        {
          "duration": 0.1239583333333325,
          "durationTicks": 119,
          "midi": 69,
          "name": "A4",
          "ticks": 14640,
          "time": 15.25,
          "velocity": 0.6299212598425197
        },
        {
          "duration": 0.1239583333333325,
          "durationTicks": 119,
          "midi": 72,
          "name": "C5",
          "ticks": 14760,
          "time": 15.375,
          "velocity": 0.6299212598425197
        },
        {
          "duration": 0.1239583333333325,
          "durationTicks": 119,
          "midi": 69,
          "name": "A4",
          "ticks": 15000,
          "time": 15.625,
          "velocity": 0.6299212598425197
        },
        {
          "duration": 0.1239583333333325,
          "durationTicks": 119,
          "midi": 72,
          "name": "C5",
          "ticks": 15120,
          "time": 15.75,
          "velocity": 0.6299212598425197
        },
        {
          "duration": 0.1239583333333325,
          "durationTicks": 119,
          "midi": 74,
          "name": "D5",
          "ticks": 15240,
          "time": 15.875,
          "velocity": 0.6299212598425197
        },
        {
          "duration": 0.12395833333333428,
          "durationTicks": 119,
          "midi": 75,
          "name": "D#5",
          "ticks": 15600,
          "time": 16.25,
          "velocity": 0.6299212598425197
        },
        {
          "duration": 0.12395833333333428,
          "durationTicks": 119,
          "midi": 68,
          "name": "G#4",
          "ticks": 15600,
          "time": 16.25,
          "velocity": 0.6299212598425197
        },
        {
          "duration": 0.12395833333333428,
          "durationTicks": 119,
          "midi": 74,
          "name": "D5",
          "ticks": 15960,
          "time": 16.625,
          "velocity": 0.6299212598425197
        },
        {
          "duration": 0.12395833333333428,
          "durationTicks": 119,
          "midi": 67,
          "name": "G4",
          "ticks": 15960,
          "time": 16.625,
          "velocity": 0.6299212598425197
        },
        {
          "duration": 0.12395833333333428,
          "durationTicks": 119,
          "midi": 72,
          "name": "C5",
          "ticks": 16320,
          "time": 17,
          "velocity": 0.6299212598425197
        },
        {
          "duration": 0.12395833333333428,
          "durationTicks": 119,
          "midi": 64,
          "name": "E4",
          "ticks": 16320,
          "time": 17,
          "velocity": 0.6299212598425197
        },
        {
          "duration": 0.12395833333333428,
          "durationTicks": 119,
          "midi": 67,
          "name": "G4",
          "ticks": 16680,
          "time": 17.375,
          "velocity": 0.6299212598425197
        },
        {
          "duration": 0.12395833333333428,
          "durationTicks": 119,
          "midi": 67,
          "name": "G4",
          "ticks": 16800,
          "time": 17.5,
          "velocity": 0.6299212598425197
        },
        {
          "duration": 0.12395833333333428,
          "durationTicks": 119,
          "midi": 60,
          "name": "C4",
          "ticks": 17040,
          "time": 17.75,
          "velocity": 0.6299212598425197
        },
        {
          "duration": 0.12395833333333428,
          "durationTicks": 119,
          "midi": 60,
          "name": "C4",
          "ticks": 17280,
          "time": 18,
          "velocity": 0.6299212598425197
        },
        {
          "duration": 0.12395833333333428,
          "durationTicks": 119,
          "midi": 79,
          "name": "G5",
          "ticks": 17520,
          "time": 18.25,
          "velocity": 0.6299212598425197
        },
        {
          "duration": 0.12395833333333428,
          "durationTicks": 119,
          "midi": 78,
          "name": "F#5",
          "ticks": 17640,
          "time": 18.375,
          "velocity": 0.6299212598425197
        },
        {
          "duration": 0.12395833333333428,
          "durationTicks": 119,
          "midi": 77,
          "name": "F5",
          "ticks": 17760,
          "time": 18.5,
          "velocity": 0.6299212598425197
        },
        {
          "duration": 0.12395833333333428,
          "durationTicks": 119,
          "midi": 75,
          "name": "D#5",
          "ticks": 17880,
          "time": 18.625,
          "velocity": 0.6299212598425197
        },
        {
          "duration": 0.12395833333333428,
          "durationTicks": 119,
          "midi": 76,
          "name": "E5",
          "ticks": 18120,
          "time": 18.875,
          "velocity": 0.6299212598425197
        },
        {
          "duration": 0.12395833333333428,
          "durationTicks": 119,
          "midi": 72,
          "name": "C5",
          "ticks": 18120,
          "time": 18.875,
          "velocity": 0.6299212598425197
        },
        {
          "duration": 0.12395833333333428,
          "durationTicks": 119,
          "midi": 68,
          "name": "G#4",
          "ticks": 18360,
          "time": 19.125,
          "velocity": 0.6299212598425197
        },
        {
          "duration": 0.12395833333333428,
          "durationTicks": 119,
          "midi": 69,
          "name": "A4",
          "ticks": 18480,
          "time": 19.25,
          "velocity": 0.6299212598425197
        },
        {
          "duration": 0.12395833333333428,
          "durationTicks": 119,
          "midi": 72,
          "name": "C5",
          "ticks": 18600,
          "time": 19.375,
          "velocity": 0.6299212598425197
        },
        {
          "duration": 0.12395833333333428,
          "durationTicks": 119,
          "midi": 69,
          "name": "A4",
          "ticks": 18840,
          "time": 19.625,
          "velocity": 0.6299212598425197
        },
        {
          "duration": 0.12395833333333428,
          "durationTicks": 119,
          "midi": 72,
          "name": "C5",
          "ticks": 18960,
          "time": 19.75,
          "velocity": 0.6299212598425197
        },
        {
          "duration": 0.12395833333333428,
          "durationTicks": 119,
          "midi": 74,
          "name": "D5",
          "ticks": 19080,
          "time": 19.875,
          "velocity": 0.6299212598425197
        },
        {
          "duration": 0.12395833333333428,
          "durationTicks": 119,
          "midi": 60,
          "name": "C4",
          "ticks": 19200,
          "time": 20,
          "velocity": 0.6299212598425197
        },
        {
          "duration": 0.12395833333333428,
          "durationTicks": 119,
          "midi": 79,
          "name": "G5",
          "ticks": 19440,
          "time": 20.25,
          "velocity": 0.6299212598425197
        },
        {
          "duration": 0.12395833333333428,
          "durationTicks": 119,
          "midi": 78,
          "name": "F#5",
          "ticks": 19560,
          "time": 20.375,
          "velocity": 0.6299212598425197
        },
        {
          "duration": 0.12395833333333428,
          "durationTicks": 119,
          "midi": 77,
          "name": "F5",
          "ticks": 19680,
          "time": 20.5,
          "velocity": 0.6299212598425197
        },
        {
          "duration": 0.12395833333333428,
          "durationTicks": 119,
          "midi": 75,
          "name": "D#5",
          "ticks": 19800,
          "time": 20.625,
          "velocity": 0.6299212598425197
        },
        {
          "duration": 0.12395833333333428,
          "durationTicks": 119,
          "midi": 76,
          "name": "E5",
          "ticks": 20040,
          "time": 20.875,
          "velocity": 0.6299212598425197
        },
        {
          "duration": 0.12395833333333428,
          "durationTicks": 119,
          "midi": 72,
          "name": "C5",
          "ticks": 20040,
          "time": 20.875,
          "velocity": 0.6299212598425197
        },
        {
          "duration": 0.12395833333333428,
          "durationTicks": 119,
          "midi": 84,
          "name": "C6",
          "ticks": 20280,
          "time": 21.125,
          "velocity": 0.6299212598425197
        },
        {
          "duration": 0.12395833333333428,
          "durationTicks": 119,
          "midi": 76,
          "name": "E5",
          "ticks": 20280,
          "time": 21.125,
          "velocity": 0.6299212598425197
        },
        {
          "duration": 0.12395833333333428,
          "durationTicks": 119,
          "midi": 84,
          "name": "C6",
          "ticks": 20520,
          "time": 21.375,
          "velocity": 0.6299212598425197
        },
        {
          "duration": 0.12395833333333428,
          "durationTicks": 119,
          "midi": 76,
          "name": "E5",
          "ticks": 20520,
          "time": 21.375,
          "velocity": 0.6299212598425197
        },
        {
          "duration": 0.12395833333333428,
          "durationTicks": 119,
          "midi": 84,
          "name": "C6",
          "ticks": 20640,
          "time": 21.5,
          "velocity": 0.6299212598425197
        },
        {
          "duration": 0.12395833333333428,
          "durationTicks": 119,
          "midi": 76,
          "name": "E5",
          "ticks": 20640,
          "time": 21.5,
          "velocity": 0.6299212598425197
        },
        {
          "duration": 0.12395833333333428,
          "durationTicks": 119,
          "midi": 67,
          "name": "G4",
          "ticks": 20880,
          "time": 21.75,
          "velocity": 0.6299212598425197
        },
        {
          "duration": 0.12395833333333428,
          "durationTicks": 119,
          "midi": 60,
          "name": "C4",
          "ticks": 21120,
          "time": 22,
          "velocity": 0.6299212598425197
        },
        {
          "duration": 0.12395833333333428,
          "durationTicks": 119,
          "midi": 79,
          "name": "G5",
          "ticks": 21360,
          "time": 22.25,
          "velocity": 0.6299212598425197
        },
        {
          "duration": 0.12395833333333428,
          "durationTicks": 119,
          "midi": 78,
          "name": "F#5",
          "ticks": 21480,
          "time": 22.375,
          "velocity": 0.6299212598425197
        },
        {
          "duration": 0.12395833333333428,
          "durationTicks": 119,
          "midi": 77,
          "name": "F5",
          "ticks": 21600,
          "time": 22.5,
          "velocity": 0.6299212598425197
        },
        {
          "duration": 0.12395833333333428,
          "durationTicks": 119,
          "midi": 75,
          "name": "D#5",
          "ticks": 21720,
          "time": 22.625,
          "velocity": 0.6299212598425197
        },
        {
          "duration": 0.12395833333333428,
          "durationTicks": 119,
          "midi": 76,
          "name": "E5",
          "ticks": 21960,
          "time": 22.875,
          "velocity": 0.6299212598425197
        },
        {
          "duration": 0.12395833333333428,
          "durationTicks": 119,
          "midi": 72,
          "name": "C5",
          "ticks": 21960,
          "time": 22.875,
          "velocity": 0.6299212598425197
        },
        {
          "duration": 0.12395833333333428,
          "durationTicks": 119,
          "midi": 68,
          "name": "G#4",
          "ticks": 22200,
          "time": 23.125,
          "velocity": 0.6299212598425197
        },
        {
          "duration": 0.12395833333333428,
          "durationTicks": 119,
          "midi": 69,
          "name": "A4",
          "ticks": 22320,
          "time": 23.25,
          "velocity": 0.6299212598425197
        },
        {
          "duration": 0.12395833333333428,
          "durationTicks": 119,
          "midi": 72,
          "name": "C5",
          "ticks": 22440,
          "time": 23.375,
          "velocity": 0.6299212598425197
        },
        {
          "duration": 0.12395833333333428,
          "durationTicks": 119,
          "midi": 69,
          "name": "A4",
          "ticks": 22680,
          "time": 23.625,
          "velocity": 0.6299212598425197
        },
        {
          "duration": 0.12395833333333428,
          "durationTicks": 119,
          "midi": 72,
          "name": "C5",
          "ticks": 22800,
          "time": 23.75,
          "velocity": 0.6299212598425197
        },
        {
          "duration": 0.12395833333333428,
          "durationTicks": 119,
          "midi": 74,
          "name": "D5",
          "ticks": 22920,
          "time": 23.875,
          "velocity": 0.6299212598425197
        },
        {
          "duration": 0.12395833333333428,
          "durationTicks": 119,
          "midi": 75,
          "name": "D#5",
          "ticks": 23280,
          "time": 24.25,
          "velocity": 0.6299212598425197
        },
        {
          "duration": 0.12395833333333428,
          "durationTicks": 119,
          "midi": 68,
          "name": "G#4",
          "ticks": 23280,
          "time": 24.25,
          "velocity": 0.6299212598425197
        },
        {
          "duration": 0.12395833333333428,
          "durationTicks": 119,
          "midi": 74,
          "name": "D5",
          "ticks": 23640,
          "time": 24.625,
          "velocity": 0.6299212598425197
        },
        {
          "duration": 0.12395833333333428,
          "durationTicks": 119,
          "midi": 67,
          "name": "G4",
          "ticks": 23640,
          "time": 24.625,
          "velocity": 0.6299212598425197
        },
        {
          "duration": 0.12395833333333428,
          "durationTicks": 119,
          "midi": 72,
          "name": "C5",
          "ticks": 24000,
          "time": 25,
          "velocity": 0.6299212598425197
        },
        {
          "duration": 0.12395833333333428,
          "durationTicks": 119,
          "midi": 64,
          "name": "E4",
          "ticks": 24000,
          "time": 25,
          "velocity": 0.6299212598425197
        },
        {
          "duration": 0.12395833333333428,
          "durationTicks": 119,
          "midi": 67,
          "name": "G4",
          "ticks": 24360,
          "time": 25.375,
          "velocity": 0.6299212598425197
        },
        {
          "duration": 0.12395833333333428,
          "durationTicks": 119,
          "midi": 67,
          "name": "G4",
          "ticks": 24480,
          "time": 25.5,
          "velocity": 0.6299212598425197
        },
        {
          "duration": 0.12395833333333428,
          "durationTicks": 119,
          "midi": 60,
          "name": "C4",
          "ticks": 24720,
          "time": 25.75,
          "velocity": 0.6299212598425197
        },
        {
          "duration": 0.12395833333333428,
          "durationTicks": 119,
          "midi": 72,
          "name": "C5",
          "ticks": 24960,
          "time": 26,
          "velocity": 0.6299212598425197
        },
        {
          "duration": 0.12395833333333428,
          "durationTicks": 119,
          "midi": 64,
          "name": "E4",
          "ticks": 24960,
          "time": 26,
          "velocity": 0.6299212598425197
        },
        {
          "duration": 0.12395833333333428,
          "durationTicks": 119,
          "midi": 72,
          "name": "C5",
          "ticks": 25080,
          "time": 26.125,
          "velocity": 0.6299212598425197
        },
        {
          "duration": 0.12395833333333428,
          "durationTicks": 119,
          "midi": 72,
          "name": "C5",
          "ticks": 25320,
          "time": 26.375,
          "velocity": 0.6299212598425197
        },
        {
          "duration": 0.12395833333333428,
          "durationTicks": 119,
          "midi": 72,
          "name": "C5",
          "ticks": 25560,
          "time": 26.625,
          "velocity": 0.6299212598425197
        },
        {
          "duration": 0.12395833333333428,
          "durationTicks": 119,
          "midi": 74,
          "name": "D5",
          "ticks": 25680,
          "time": 26.75,
          "velocity": 0.6299212598425197
        },
        {
          "duration": 0.12395833333333428,
          "durationTicks": 119,
          "midi": 76,
          "name": "E5",
          "ticks": 25920,
          "time": 27,
          "velocity": 0.6299212598425197
        },
        {
          "duration": 0.12395833333333428,
          "durationTicks": 119,
          "midi": 72,
          "name": "C5",
          "ticks": 26040,
          "time": 27.125,
          "velocity": 0.6299212598425197
        },
        {
          "duration": 0.12395833333333428,
          "durationTicks": 119,
          "midi": 69,
          "name": "A4",
          "ticks": 26280,
          "time": 27.375,
          "velocity": 0.6299212598425197
        },
        {
          "duration": 0.12395833333333428,
          "durationTicks": 119,
          "midi": 67,
          "name": "G4",
          "ticks": 26400,
          "time": 27.5,
          "velocity": 0.6299212598425197
        },
        {
          "duration": 0.12395833333333428,
          "durationTicks": 119,
          "midi": 60,
          "name": "C4",
          "ticks": 26640,
          "time": 27.75,
          "velocity": 0.6299212598425197
        },
        {
          "duration": 0.12395833333333428,
          "durationTicks": 119,
          "midi": 72,
          "name": "C5",
          "ticks": 26880,
          "time": 28,
          "velocity": 0.6299212598425197
        },
        {
          "duration": 0.12395833333333428,
          "durationTicks": 119,
          "midi": 64,
          "name": "E4",
          "ticks": 26880,
          "time": 28,
          "velocity": 0.6299212598425197
        },
        {
          "duration": 0.12395833333333428,
          "durationTicks": 119,
          "midi": 72,
          "name": "C5",
          "ticks": 27000,
          "time": 28.125,
          "velocity": 0.6299212598425197
        },
        {
          "duration": 0.12395833333333428,
          "durationTicks": 119,
          "midi": 72,
          "name": "C5",
          "ticks": 27240,
          "time": 28.375,
          "velocity": 0.6299212598425197
        },
        {
          "duration": 0.12395833333333428,
          "durationTicks": 119,
          "midi": 72,
          "name": "C5",
          "ticks": 27480,
          "time": 28.625,
          "velocity": 0.6299212598425197
        },
        {
          "duration": 0.12395833333333428,
          "durationTicks": 119,
          "midi": 74,
          "name": "D5",
          "ticks": 27600,
          "time": 28.75,
          "velocity": 0.6299212598425197
        },
        {
          "duration": 0.12395833333333428,
          "durationTicks": 119,
          "midi": 76,
          "name": "E5",
          "ticks": 27720,
          "time": 28.875,
          "velocity": 0.6299212598425197
        },
        {
          "duration": 0.12395833333333428,
          "durationTicks": 119,
          "midi": 67,
          "name": "G4",
          "ticks": 27840,
          "time": 29,
          "velocity": 0.6299212598425197
        },
        {
          "duration": 0.12395833333333428,
          "durationTicks": 119,
          "midi": 60,
          "name": "C4",
          "ticks": 28200,
          "time": 29.375,
          "velocity": 0.6299212598425197
        },
        {
          "duration": 0.12395833333333428,
          "durationTicks": 119,
          "midi": 60,
          "name": "C4",
          "ticks": 28560,
          "time": 29.75,
          "velocity": 0.6299212598425197
        },
        {
          "duration": 0.12395833333333428,
          "durationTicks": 119,
          "midi": 72,
          "name": "C5",
          "ticks": 28800,
          "time": 30,
          "velocity": 0.6299212598425197
        },
        {
          "duration": 0.12395833333333428,
          "durationTicks": 119,
          "midi": 64,
          "name": "E4",
          "ticks": 28800,
          "time": 30,
          "velocity": 0.6299212598425197
        },
        {
          "duration": 0.12395833333333428,
          "durationTicks": 119,
          "midi": 72,
          "name": "C5",
          "ticks": 28920,
          "time": 30.125,
          "velocity": 0.6299212598425197
        },
        {
          "duration": 0.12395833333333428,
          "durationTicks": 119,
          "midi": 72,
          "name": "C5",
          "ticks": 29160,
          "time": 30.375,
          "velocity": 0.6299212598425197
        },
        {
          "duration": 0.12395833333333428,
          "durationTicks": 119,
          "midi": 72,
          "name": "C5",
          "ticks": 29400,
          "time": 30.625,
          "velocity": 0.6299212598425197
        },
        {
          "duration": 0.12395833333333428,
          "durationTicks": 119,
          "midi": 74,
          "name": "D5",
          "ticks": 29520,
          "time": 30.75,
          "velocity": 0.6299212598425197
        },
        {
          "duration": 0.12395833333333428,
          "durationTicks": 119,
          "midi": 76,
          "name": "E5",
          "ticks": 29760,
          "time": 31,
          "velocity": 0.6299212598425197
        },
        {
          "duration": 0.12395833333333428,
          "durationTicks": 119,
          "midi": 72,
          "name": "C5",
          "ticks": 29880,
          "time": 31.125,
          "velocity": 0.6299212598425197
        },
        {
          "duration": 0.12395833333333428,
          "durationTicks": 119,
          "midi": 69,
          "name": "A4",
          "ticks": 30120,
          "time": 31.375,
          "velocity": 0.6299212598425197
        },
        {
          "duration": 0.12395833333333428,
          "durationTicks": 119,
          "midi": 67,
          "name": "G4",
          "ticks": 30240,
          "time": 31.5,
          "velocity": 0.6299212598425197
        },
        {
          "duration": 0.12395833333333428,
          "durationTicks": 119,
          "midi": 60,
          "name": "C4",
          "ticks": 30480,
          "time": 31.75,
          "velocity": 0.6299212598425197
        },
        {
          "duration": 0.12395833333333428,
          "durationTicks": 119,
          "midi": 76,
          "name": "E5",
          "ticks": 30720,
          "time": 32,
          "velocity": 0.6299212598425197
        },
        {
          "duration": 0.12395833333333428,
          "durationTicks": 119,
          "midi": 72,
          "name": "C5",
          "ticks": 30720,
          "time": 32,
          "velocity": 0.6299212598425197
        },
        {
          "duration": 0.12395833333333428,
          "durationTicks": 119,
          "midi": 76,
          "name": "E5",
          "ticks": 30840,
          "time": 32.125,
          "velocity": 0.6299212598425197
        },
        {
          "duration": 0.12395833333333428,
          "durationTicks": 119,
          "midi": 72,
          "name": "C5",
          "ticks": 30840,
          "time": 32.125,
          "velocity": 0.6299212598425197
        },
        {
          "duration": 0.12395833333333428,
          "durationTicks": 119,
          "midi": 76,
          "name": "E5",
          "ticks": 31080,
          "time": 32.375,
          "velocity": 0.6299212598425197
        },
        {
          "duration": 0.12395833333333428,
          "durationTicks": 119,
          "midi": 72,
          "name": "C5",
          "ticks": 31080,
          "time": 32.375,
          "velocity": 0.6299212598425197
        },
        {
          "duration": 0.12395833333333428,
          "durationTicks": 119,
          "midi": 72,
          "name": "C5",
          "ticks": 31320,
          "time": 32.625,
          "velocity": 0.6299212598425197
        },
        {
          "duration": 0.12395833333333428,
          "durationTicks": 119,
          "midi": 76,
          "name": "E5",
          "ticks": 31440,
          "time": 32.75,
          "velocity": 0.6299212598425197
        },
        {
          "duration": 0.24895833333333428,
          "durationTicks": 239,
          "midi": 79,
          "name": "G5",
          "ticks": 31680,
          "time": 33,
          "velocity": 0.6299212598425197
        },
        {
          "duration": 0.24895833333333428,
          "durationTicks": 239,
          "midi": 71,
          "name": "B4",
          "ticks": 31680,
          "time": 33,
          "velocity": 0.6299212598425197
        },
        {
          "duration": 0.24895833333333428,
          "durationTicks": 239,
          "midi": 67,
          "name": "G4",
          "ticks": 32160,
          "time": 33.5,
          "velocity": 0.6299212598425197
        },
        {
          "duration": 0.24895833333333428,
          "durationTicks": 239,
          "midi": 59,
          "name": "B3",
          "ticks": 32160,
          "time": 33.5,
          "velocity": 0.6299212598425197
        },
        {
          "duration": 0.24895833333333428,
          "durationTicks": 239,
          "midi": 72,
          "name": "C5",
          "ticks": 32640,
          "time": 34,
          "velocity": 0.6299212598425197
        },
        {
          "duration": 0.24895833333333428,
          "durationTicks": 239,
          "midi": 67,
          "name": "G4",
          "ticks": 33000,
          "time": 34.375,
          "velocity": 0.6299212598425197
        },
        {
          "duration": 0.24895833333333428,
          "durationTicks": 239,
          "midi": 64,
          "name": "E4",
          "ticks": 33360,
          "time": 34.75,
          "velocity": 0.6299212598425197
        },
        {
          "duration": 0.24895833333333428,
          "durationTicks": 239,
          "midi": 69,
          "name": "A4",
          "ticks": 33720,
          "time": 35.125,
          "velocity": 0.6299212598425197
        },
        {
          "duration": 0.24895833333333428,
          "durationTicks": 239,
          "midi": 71,
          "name": "B4",
          "ticks": 33960,
          "time": 35.375,
          "velocity": 0.6299212598425197
        },
        {
          "duration": 0.12395833333333428,
          "durationTicks": 119,
          "midi": 70,
          "name": "A#4",
          "ticks": 34200,
          "time": 35.625,
          "velocity": 0.6299212598425197
        },
        {
          "duration": 0.12395833333333428,
          "durationTicks": 119,
          "midi": 69,
          "name": "A4",
          "ticks": 34320,
          "time": 35.75,
          "velocity": 0.6299212598425197
        },
        {
          "duration": 0.16562499999999858,
          "durationTicks": 159,
          "midi": 67,
          "name": "G4",
          "ticks": 34560,
          "time": 36,
          "velocity": 0.6299212598425197
        },
        {
          "duration": 0.16562500000000568,
          "durationTicks": 159,
          "midi": 76,
          "name": "E5",
          "ticks": 34720,
          "time": 36.166666666666664,
          "velocity": 0.6299212598425197
        },
        {
          "duration": 0.16562499999999858,
          "durationTicks": 159,
          "midi": 79,
          "name": "G5",
          "ticks": 34880,
          "time": 36.333333333333336,
          "velocity": 0.6299212598425197
        },
        {
          "duration": 0.24895833333333428,
          "durationTicks": 239,
          "midi": 81,
          "name": "A5",
          "ticks": 35040,
          "time": 36.5,
          "velocity": 0.6299212598425197
        },
        {
          "duration": 0.12395833333333428,
          "durationTicks": 119,
          "midi": 77,
          "name": "F5",
          "ticks": 35280,
          "time": 36.75,
          "velocity": 0.6299212598425197
        },
        {
          "duration": 0.12395833333333428,
          "durationTicks": 119,
          "midi": 79,
          "name": "G5",
          "ticks": 35400,
          "time": 36.875,
          "velocity": 0.6299212598425197
        },
        {
          "duration": 0.24895833333333428,
          "durationTicks": 239,
          "midi": 76,
          "name": "E5",
          "ticks": 35640,
          "time": 37.125,
          "velocity": 0.6299212598425197
        },
        {
          "duration": 0.12395833333333428,
          "durationTicks": 119,
          "midi": 72,
          "name": "C5",
          "ticks": 35880,
          "time": 37.375,
          "velocity": 0.6299212598425197
        },
        {
          "duration": 0.12395833333333428,
          "durationTicks": 119,
          "midi": 74,
          "name": "D5",
          "ticks": 36000,
          "time": 37.5,
          "velocity": 0.6299212598425197
        },
        {
          "duration": 0.12395833333333428,
          "durationTicks": 119,
          "midi": 71,
          "name": "B4",
          "ticks": 36120,
          "time": 37.625,
          "velocity": 0.6299212598425197
        },
        {
          "duration": 0.24895833333333428,
          "durationTicks": 239,
          "midi": 72,
          "name": "C5",
          "ticks": 36480,
          "time": 38,
          "velocity": 0.6299212598425197
        },
        {
          "duration": 0.24895833333333428,
          "durationTicks": 239,
          "midi": 67,
          "name": "G4",
          "ticks": 36840,
          "time": 38.375,
          "velocity": 0.6299212598425197
        },
        {
          "duration": 0.24895833333333428,
          "durationTicks": 239,
          "midi": 64,
          "name": "E4",
          "ticks": 37200,
          "time": 38.75,
          "velocity": 0.6299212598425197
        },
        {
          "duration": 0.24895833333333428,
          "durationTicks": 239,
          "midi": 69,
          "name": "A4",
          "ticks": 37560,
          "time": 39.125,
          "velocity": 0.6299212598425197
        },
        {
          "duration": 0.24895833333333428,
          "durationTicks": 239,
          "midi": 71,
          "name": "B4",
          "ticks": 37800,
          "time": 39.375,
          "velocity": 0.6299212598425197
        },
        {
          "duration": 0.12395833333333428,
          "durationTicks": 119,
          "midi": 70,
          "name": "A#4",
          "ticks": 38040,
          "time": 39.625,
          "velocity": 0.6299212598425197
        },
        {
          "duration": 0.12395833333333428,
          "durationTicks": 119,
          "midi": 69,
          "name": "A4",
          "ticks": 38160,
          "time": 39.75,
          "velocity": 0.6299212598425197
        },
        {
          "duration": 0.16562499999999858,
          "durationTicks": 159,
          "midi": 67,
          "name": "G4",
          "ticks": 38400,
          "time": 40,
          "velocity": 0.6299212598425197
        },
        {
          "duration": 0.16562500000000568,
          "durationTicks": 159,
          "midi": 76,
          "name": "E5",
          "ticks": 38560,
          "time": 40.166666666666664,
          "velocity": 0.6299212598425197
        },
        {
          "duration": 0.16562499999999858,
          "durationTicks": 159,
          "midi": 79,
          "name": "G5",
          "ticks": 38720,
          "time": 40.333333333333336,
          "velocity": 0.6299212598425197
        },
        {
          "duration": 0.24895833333333428,
          "durationTicks": 239,
          "midi": 81,
          "name": "A5",
          "ticks": 38880,
          "time": 40.5,
          "velocity": 0.6299212598425197
        },
        {
          "duration": 0.12395833333333428,
          "durationTicks": 119,
          "midi": 77,
          "name": "F5",
          "ticks": 39120,
          "time": 40.75,
          "velocity": 0.6299212598425197
        },
        {
          "duration": 0.12395833333333428,
          "durationTicks": 119,
          "midi": 79,
          "name": "G5",
          "ticks": 39240,
          "time": 40.875,
          "velocity": 0.6299212598425197
        },
        {
          "duration": 0.24895833333333428,
          "durationTicks": 239,
          "midi": 76,
          "name": "E5",
          "ticks": 39480,
          "time": 41.125,
          "velocity": 0.6299212598425197
        },
        {
          "duration": 0.12395833333333428,
          "durationTicks": 119,
          "midi": 72,
          "name": "C5",
          "ticks": 39720,
          "time": 41.375,
          "velocity": 0.6299212598425197
        },
        {
          "duration": 0.12395833333333428,
          "durationTicks": 119,
          "midi": 74,
          "name": "D5",
          "ticks": 39840,
          "time": 41.5,
          "velocity": 0.6299212598425197
        },
        {
          "duration": 0.12395833333333428,
          "durationTicks": 119,
          "midi": 71,
          "name": "B4",
          "ticks": 39960,
          "time": 41.625,
          "velocity": 0.6299212598425197
        },
        {
          "duration": 0.12395833333333428,
          "durationTicks": 119,
          "midi": 76,
          "name": "E5",
          "ticks": 40320,
          "time": 42,
          "velocity": 0.6299212598425197
        },
        {
          "duration": 0.12395833333333428,
          "durationTicks": 119,
          "midi": 72,
          "name": "C5",
          "ticks": 40440,
          "time": 42.125,
          "velocity": 0.6299212598425197
        },
        {
          "duration": 0.24895833333333428,
          "durationTicks": 239,
          "midi": 67,
          "name": "G4",
          "ticks": 40680,
          "time": 42.375,
          "velocity": 0.6299212598425197
        },
        {
          "duration": 0.24895833333333428,
          "durationTicks": 239,
          "midi": 68,
          "name": "G#4",
          "ticks": 41040,
          "time": 42.75,
          "velocity": 0.6299212598425197
        },
        {
          "duration": 0.12395833333333428,
          "durationTicks": 119,
          "midi": 69,
          "name": "A4",
          "ticks": 41280,
          "time": 43,
          "velocity": 0.6299212598425197
        },
        {
          "duration": 0.12395833333333428,
          "durationTicks": 119,
          "midi": 77,
          "name": "F5",
          "ticks": 41400,
          "time": 43.125,
          "velocity": 0.6299212598425197
        },
        {
          "duration": 0.12395833333333428,
          "durationTicks": 119,
          "midi": 77,
          "name": "F5",
          "ticks": 41640,
          "time": 43.375,
          "velocity": 0.6299212598425197
        },
        {
          "duration": 0.12395833333333428,
          "durationTicks": 119,
          "midi": 69,
          "name": "A4",
          "ticks": 41760,
          "time": 43.5,
          "velocity": 0.6299212598425197
        },
        {
          "duration": 0.12395833333333428,
          "durationTicks": 119,
          "midi": 60,
          "name": "C4",
          "ticks": 42000,
          "time": 43.75,
          "velocity": 0.6299212598425197
        },
        {
          "duration": 0.16562499999999858,
          "durationTicks": 159,
          "midi": 71,
          "name": "B4",
          "ticks": 42240,
          "time": 44,
          "velocity": 0.6299212598425197
        },
        {
          "duration": 0.16562499999999858,
          "durationTicks": 159,
          "midi": 67,
          "name": "G4",
          "ticks": 42240,
          "time": 44,
          "velocity": 0.6299212598425197
        },
        {
          "duration": 0.16562500000000568,
          "durationTicks": 159,
          "midi": 81,
          "name": "A5",
          "ticks": 42400,
          "time": 44.166666666666664,
          "velocity": 0.6299212598425197
        },
        {
          "duration": 0.16562500000000568,
          "durationTicks": 159,
          "midi": 77,
          "name": "F5",
          "ticks": 42400,
          "time": 44.166666666666664,
          "velocity": 0.6299212598425197
        },
        {
          "duration": 0.16562499999999858,
          "durationTicks": 159,
          "midi": 81,
          "name": "A5",
          "ticks": 42560,
          "time": 44.333333333333336,
          "velocity": 0.6299212598425197
        },
        {
          "duration": 0.16562499999999858,
          "durationTicks": 159,
          "midi": 77,
          "name": "F5",
          "ticks": 42560,
          "time": 44.333333333333336,
          "velocity": 0.6299212598425197
        },
        {
          "duration": 0.16562499999999858,
          "durationTicks": 159,
          "midi": 81,
          "name": "A5",
          "ticks": 42720,
          "time": 44.5,
          "velocity": 0.6299212598425197
        },
        {
          "duration": 0.16562499999999858,
          "durationTicks": 159,
          "midi": 77,
          "name": "F5",
          "ticks": 42720,
          "time": 44.5,
          "velocity": 0.6299212598425197
        },
        {
          "duration": 0.16562500000000568,
          "durationTicks": 159,
          "midi": 79,
          "name": "G5",
          "ticks": 42880,
          "time": 44.666666666666664,
          "velocity": 0.6299212598425197
        },
        {
          "duration": 0.16562500000000568,
          "durationTicks": 159,
          "midi": 71,
          "name": "B4",
          "ticks": 42880,
          "time": 44.666666666666664,
          "velocity": 0.6299212598425197
        },
        {
          "duration": 0.16562499999999858,
          "durationTicks": 159,
          "midi": 77,
          "name": "F5",
          "ticks": 43040,
          "time": 44.833333333333336,
          "velocity": 0.6299212598425197
        },
        {
          "duration": 0.12395833333333428,
          "durationTicks": 119,
          "midi": 76,
          "name": "E5",
          "ticks": 43200,
          "time": 45,
          "velocity": 0.6299212598425197
        },
        {
          "duration": 0.12395833333333428,
          "durationTicks": 119,
          "midi": 72,
          "name": "C5",
          "ticks": 43320,
          "time": 45.125,
          "velocity": 0.6299212598425197
        },
        {
          "duration": 0.12395833333333428,
          "durationTicks": 119,
          "midi": 69,
          "name": "A4",
          "ticks": 43560,
          "time": 45.375,
          "velocity": 0.6299212598425197
        },
        {
          "duration": 0.12395833333333428,
          "durationTicks": 119,
          "midi": 67,
          "name": "G4",
          "ticks": 43680,
          "time": 45.5,
          "velocity": 0.6299212598425197
        },
        {
          "duration": 0.12395833333333428,
          "durationTicks": 119,
          "midi": 60,
          "name": "C4",
          "ticks": 43920,
          "time": 45.75,
          "velocity": 0.6299212598425197
        },
        {
          "duration": 0.12395833333333428,
          "durationTicks": 119,
          "midi": 76,
          "name": "E5",
          "ticks": 44160,
          "time": 46,
          "velocity": 0.6299212598425197
        },
        {
          "duration": 0.12395833333333428,
          "durationTicks": 119,
          "midi": 72,
          "name": "C5",
          "ticks": 44280,
          "time": 46.125,
          "velocity": 0.6299212598425197
        },
        {
          "duration": 0.24895833333333428,
          "durationTicks": 239,
          "midi": 67,
          "name": "G4",
          "ticks": 44520,
          "time": 46.375,
          "velocity": 0.6299212598425197
        },
        {
          "duration": 0.24895833333333428,
          "durationTicks": 239,
          "midi": 68,
          "name": "G#4",
          "ticks": 44880,
          "time": 46.75,
          "velocity": 0.6299212598425197
        },
        {
          "duration": 0.12395833333333428,
          "durationTicks": 119,
          "midi": 69,
          "name": "A4",
          "ticks": 45120,
          "time": 47,
          "velocity": 0.6299212598425197
        },
        {
          "duration": 0.12395833333333428,
          "durationTicks": 119,
          "midi": 77,
          "name": "F5",
          "ticks": 45240,
          "time": 47.125,
          "velocity": 0.6299212598425197
        },
        {
          "duration": 0.12395833333333428,
          "durationTicks": 119,
          "midi": 77,
          "name": "F5",
          "ticks": 45480,
          "time": 47.375,
          "velocity": 0.6299212598425197
        },
        {
          "duration": 0.12395833333333428,
          "durationTicks": 119,
          "midi": 69,
          "name": "A4",
          "ticks": 45600,
          "time": 47.5,
          "velocity": 0.6299212598425197
        },
        {
          "duration": 0.12395833333333428,
          "durationTicks": 119,
          "midi": 60,
          "name": "C4",
          "ticks": 45840,
          "time": 47.75,
          "velocity": 0.6299212598425197
        },
        {
          "duration": 0.12395833333333428,
          "durationTicks": 119,
          "midi": 71,
          "name": "B4",
          "ticks": 46080,
          "time": 48,
          "velocity": 0.6299212598425197
        },
        {
          "duration": 0.12395833333333428,
          "durationTicks": 119,
          "midi": 67,
          "name": "G4",
          "ticks": 46080,
          "time": 48,
          "velocity": 0.6299212598425197
        },
        {
          "duration": 0.12395833333333428,
          "durationTicks": 119,
          "midi": 77,
          "name": "F5",
          "ticks": 46200,
          "time": 48.125,
          "velocity": 0.6299212598425197
        },
        {
          "duration": 0.12395833333333428,
          "durationTicks": 119,
          "midi": 69,
          "name": "A4",
          "ticks": 46200,
          "time": 48.125,
          "velocity": 0.6299212598425197
        },
        {
          "duration": 0.12395833333333428,
          "durationTicks": 119,
          "midi": 77,
          "name": "F5",
          "ticks": 46440,
          "time": 48.375,
          "velocity": 0.6299212598425197
        },
        {
          "duration": 0.12395833333333428,
          "durationTicks": 119,
          "midi": 69,
          "name": "A4",
          "ticks": 46440,
          "time": 48.375,
          "velocity": 0.6299212598425197
        },
        {
          "duration": 0.16562499999999858,
          "durationTicks": 159,
          "midi": 77,
          "name": "F5",
          "ticks": 46560,
          "time": 48.5,
          "velocity": 0.6299212598425197
        },
        {
          "duration": 0.16562499999999858,
          "durationTicks": 159,
          "midi": 69,
          "name": "A4",
          "ticks": 46560,
          "time": 48.5,
          "velocity": 0.6299212598425197
        },
        {
          "duration": 0.16562500000000568,
          "durationTicks": 159,
          "midi": 76,
          "name": "E5",
          "ticks": 46720,
          "time": 48.666666666666664,
          "velocity": 0.6299212598425197
        },
        {
          "duration": 0.16562500000000568,
          "durationTicks": 159,
          "midi": 67,
          "name": "G4",
          "ticks": 46720,
          "time": 48.666666666666664,
          "velocity": 0.6299212598425197
        },
        {
          "duration": 0.16562499999999858,
          "durationTicks": 159,
          "midi": 74,
          "name": "D5",
          "ticks": 46880,
          "time": 48.833333333333336,
          "velocity": 0.6299212598425197
        },
        {
          "duration": 0.16562499999999858,
          "durationTicks": 159,
          "midi": 65,
          "name": "F4",
          "ticks": 46880,
          "time": 48.833333333333336,
          "velocity": 0.6299212598425197
        },
        {
          "duration": 0.12395833333333428,
          "durationTicks": 119,
          "midi": 72,
          "name": "C5",
          "ticks": 47040,
          "time": 49,
          "velocity": 0.6299212598425197
        },
        {
          "duration": 0.12395833333333428,
          "durationTicks": 119,
          "midi": 64,
          "name": "E4",
          "ticks": 47040,
          "time": 49,
          "velocity": 0.6299212598425197
        },
        {
          "duration": 0.12395833333333428,
          "durationTicks": 119,
          "midi": 67,
          "name": "G4",
          "ticks": 47160,
          "time": 49.125,
          "velocity": 0.6299212598425197
        },
        {
          "duration": 0.12395833333333428,
          "durationTicks": 119,
          "midi": 67,
          "name": "G4",
          "ticks": 47400,
          "time": 49.375,
          "velocity": 0.6299212598425197
        },
        {
          "duration": 0.24895833333333428,
          "durationTicks": 239,
          "midi": 60,
          "name": "C4",
          "ticks": 47520,
          "time": 49.5,
          "velocity": 0.6299212598425197
        },
        {
          "duration": 0.12395833333333428,
          "durationTicks": 119,
          "midi": 76,
          "name": "E5",
          "ticks": 48000,
          "time": 50,
          "velocity": 0.6299212598425197
        },
        {
          "duration": 0.12395833333333428,
          "durationTicks": 119,
          "midi": 72,
          "name": "C5",
          "ticks": 48120,
          "time": 50.125,
          "velocity": 0.6299212598425197
        },
        {
          "duration": 0.24895833333333428,
          "durationTicks": 239,
          "midi": 67,
          "name": "G4",
          "ticks": 48360,
          "time": 50.375,
          "velocity": 0.6299212598425197
        },
        {
          "duration": 0.24895833333333428,
          "durationTicks": 239,
          "midi": 68,
          "name": "G#4",
          "ticks": 48720,
          "time": 50.75,
          "velocity": 0.6299212598425197
        },
        {
          "duration": 0.12395833333333428,
          "durationTicks": 119,
          "midi": 69,
          "name": "A4",
          "ticks": 48960,
          "time": 51,
          "velocity": 0.6299212598425197
        },
        {
          "duration": 0.12395833333333428,
          "durationTicks": 119,
          "midi": 77,
          "name": "F5",
          "ticks": 49080,
          "time": 51.125,
          "velocity": 0.6299212598425197
        },
        {
          "duration": 0.12395833333333428,
          "durationTicks": 119,
          "midi": 77,
          "name": "F5",
          "ticks": 49320,
          "time": 51.375,
          "velocity": 0.6299212598425197
        },
        {
          "duration": 0.12395833333333428,
          "durationTicks": 119,
          "midi": 69,
          "name": "A4",
          "ticks": 49440,
          "time": 51.5,
          "velocity": 0.6299212598425197
        },
        {
          "duration": 0.12395833333333428,
          "durationTicks": 119,
          "midi": 60,
          "name": "C4",
          "ticks": 49680,
          "time": 51.75,
          "velocity": 0.6299212598425197
        },
        {
          "duration": 0.16562499999999858,
          "durationTicks": 159,
          "midi": 71,
          "name": "B4",
          "ticks": 49920,
          "time": 52,
          "velocity": 0.6299212598425197
        },
        {
          "duration": 0.16562499999999858,
          "durationTicks": 159,
          "midi": 67,
          "name": "G4",
          "ticks": 49920,
          "time": 52,
          "velocity": 0.6299212598425197
        },
        {
          "duration": 0.16562500000000568,
          "durationTicks": 159,
          "midi": 81,
          "name": "A5",
          "ticks": 50080,
          "time": 52.166666666666664,
          "velocity": 0.6299212598425197
        },
        {
          "duration": 0.16562500000000568,
          "durationTicks": 159,
          "midi": 77,
          "name": "F5",
          "ticks": 50080,
          "time": 52.166666666666664,
          "velocity": 0.6299212598425197
        },
        {
          "duration": 0.16562499999999858,
          "durationTicks": 159,
          "midi": 81,
          "name": "A5",
          "ticks": 50240,
          "time": 52.333333333333336,
          "velocity": 0.6299212598425197
        },
        {
          "duration": 0.16562499999999858,
          "durationTicks": 159,
          "midi": 77,
          "name": "F5",
          "ticks": 50240,
          "time": 52.333333333333336,
          "velocity": 0.6299212598425197
        },
        {
          "duration": 0.16562499999999858,
          "durationTicks": 159,
          "midi": 81,
          "name": "A5",
          "ticks": 50400,
          "time": 52.5,
          "velocity": 0.6299212598425197
        },
        {
          "duration": 0.16562499999999858,
          "durationTicks": 159,
          "midi": 77,
          "name": "F5",
          "ticks": 50400,
          "time": 52.5,
          "velocity": 0.6299212598425197
        },
        {
          "duration": 0.16562500000000568,
          "durationTicks": 159,
          "midi": 79,
          "name": "G5",
          "ticks": 50560,
          "time": 52.666666666666664,
          "velocity": 0.6299212598425197
        },
        {
          "duration": 0.16562500000000568,
          "durationTicks": 159,
          "midi": 71,
          "name": "B4",
          "ticks": 50560,
          "time": 52.666666666666664,
          "velocity": 0.6299212598425197
        },
        {
          "duration": 0.16562499999999858,
          "durationTicks": 159,
          "midi": 77,
          "name": "F5",
          "ticks": 50720,
          "time": 52.833333333333336,
          "velocity": 0.6299212598425197
        },
        {
          "duration": 0.12395833333333428,
          "durationTicks": 119,
          "midi": 76,
          "name": "E5",
          "ticks": 50880,
          "time": 53,
          "velocity": 0.6299212598425197
        },
        {
          "duration": 0.12395833333333428,
          "durationTicks": 119,
          "midi": 72,
          "name": "C5",
          "ticks": 51000,
          "time": 53.125,
          "velocity": 0.6299212598425197
        },
        {
          "duration": 0.12395833333333428,
          "durationTicks": 119,
          "midi": 69,
          "name": "A4",
          "ticks": 51240,
          "time": 53.375,
          "velocity": 0.6299212598425197
        },
        {
          "duration": 0.12395833333333428,
          "durationTicks": 119,
          "midi": 67,
          "name": "G4",
          "ticks": 51360,
          "time": 53.5,
          "velocity": 0.6299212598425197
        },
        {
          "duration": 0.12395833333333428,
          "durationTicks": 119,
          "midi": 60,
          "name": "C4",
          "ticks": 51600,
          "time": 53.75,
          "velocity": 0.6299212598425197
        },
        {
          "duration": 0.12395833333333428,
          "durationTicks": 119,
          "midi": 76,
          "name": "E5",
          "ticks": 51840,
          "time": 54,
          "velocity": 0.6299212598425197
        },
        {
          "duration": 0.12395833333333428,
          "durationTicks": 119,
          "midi": 72,
          "name": "C5",
          "ticks": 51960,
          "time": 54.125,
          "velocity": 0.6299212598425197
        },
        {
          "duration": 0.24895833333333428,
          "durationTicks": 239,
          "midi": 67,
          "name": "G4",
          "ticks": 52200,
          "time": 54.375,
          "velocity": 0.6299212598425197
        },
        {
          "duration": 0.24895833333333428,
          "durationTicks": 239,
          "midi": 68,
          "name": "G#4",
          "ticks": 52560,
          "time": 54.75,
          "velocity": 0.6299212598425197
        },
        {
          "duration": 0.12395833333333428,
          "durationTicks": 119,
          "midi": 69,
          "name": "A4",
          "ticks": 52800,
          "time": 55,
          "velocity": 0.6299212598425197
        },
        {
          "duration": 0.12395833333333428,
          "durationTicks": 119,
          "midi": 77,
          "name": "F5",
          "ticks": 52920,
          "time": 55.125,
          "velocity": 0.6299212598425197
        },
        {
          "duration": 0.12395833333333428,
          "durationTicks": 119,
          "midi": 77,
          "name": "F5",
          "ticks": 53160,
          "time": 55.375,
          "velocity": 0.6299212598425197
        },
        {
          "duration": 0.12395833333333428,
          "durationTicks": 119,
          "midi": 69,
          "name": "A4",
          "ticks": 53280,
          "time": 55.5,
          "velocity": 0.6299212598425197
        },
        {
          "duration": 0.12395833333333428,
          "durationTicks": 119,
          "midi": 60,
          "name": "C4",
          "ticks": 53520,
          "time": 55.75,
          "velocity": 0.6299212598425197
        },
        {
          "duration": 0.12395833333333428,
          "durationTicks": 119,
          "midi": 71,
          "name": "B4",
          "ticks": 53760,
          "time": 56,
          "velocity": 0.6299212598425197
        },
        {
          "duration": 0.12395833333333428,
          "durationTicks": 119,
          "midi": 67,
          "name": "G4",
          "ticks": 53760,
          "time": 56,
          "velocity": 0.6299212598425197
        },
        {
          "duration": 0.12395833333333428,
          "durationTicks": 119,
          "midi": 77,
          "name": "F5",
          "ticks": 53880,
          "time": 56.125,
          "velocity": 0.6299212598425197
        },
        {
          "duration": 0.12395833333333428,
          "durationTicks": 119,
          "midi": 69,
          "name": "A4",
          "ticks": 53880,
          "time": 56.125,
          "velocity": 0.6299212598425197
        },
        {
          "duration": 0.12395833333333428,
          "durationTicks": 119,
          "midi": 77,
          "name": "F5",
          "ticks": 54120,
          "time": 56.375,
          "velocity": 0.6299212598425197
        },
        {
          "duration": 0.12395833333333428,
          "durationTicks": 119,
          "midi": 69,
          "name": "A4",
          "ticks": 54120,
          "time": 56.375,
          "velocity": 0.6299212598425197
        },
        {
          "duration": 0.16562499999999858,
          "durationTicks": 159,
          "midi": 77,
          "name": "F5",
          "ticks": 54240,
          "time": 56.5,
          "velocity": 0.6299212598425197
        },
        {
          "duration": 0.16562499999999858,
          "durationTicks": 159,
          "midi": 69,
          "name": "A4",
          "ticks": 54240,
          "time": 56.5,
          "velocity": 0.6299212598425197
        },
        {
          "duration": 0.16562500000000568,
          "durationTicks": 159,
          "midi": 76,
          "name": "E5",
          "ticks": 54400,
          "time": 56.666666666666664,
          "velocity": 0.6299212598425197
        },
        {
          "duration": 0.16562500000000568,
          "durationTicks": 159,
          "midi": 67,
          "name": "G4",
          "ticks": 54400,
          "time": 56.666666666666664,
          "velocity": 0.6299212598425197
        },
        {
          "duration": 0.16562499999999858,
          "durationTicks": 159,
          "midi": 74,
          "name": "D5",
          "ticks": 54560,
          "time": 56.833333333333336,
          "velocity": 0.6299212598425197
        },
        {
          "duration": 0.16562499999999858,
          "durationTicks": 159,
          "midi": 65,
          "name": "F4",
          "ticks": 54560,
          "time": 56.833333333333336,
          "velocity": 0.6299212598425197
        },
        {
          "duration": 0.12395833333333428,
          "durationTicks": 119,
          "midi": 72,
          "name": "C5",
          "ticks": 54720,
          "time": 57,
          "velocity": 0.6299212598425197
        },
        {
          "duration": 0.12395833333333428,
          "durationTicks": 119,
          "midi": 64,
          "name": "E4",
          "ticks": 54720,
          "time": 57,
          "velocity": 0.6299212598425197
        },
        {
          "duration": 0.12395833333333428,
          "durationTicks": 119,
          "midi": 67,
          "name": "G4",
          "ticks": 54840,
          "time": 57.125,
          "velocity": 0.6299212598425197
        },
        {
          "duration": 0.12395833333333428,
          "durationTicks": 119,
          "midi": 67,
          "name": "G4",
          "ticks": 55080,
          "time": 57.375,
          "velocity": 0.6299212598425197
        },
        {
          "duration": 0.24895833333333428,
          "durationTicks": 239,
          "midi": 60,
          "name": "C4",
          "ticks": 55200,
          "time": 57.5,
          "velocity": 0.6299212598425197
        },
        {
          "duration": 0.12395833333333428,
          "durationTicks": 119,
          "midi": 72,
          "name": "C5",
          "ticks": 55680,
          "time": 58,
          "velocity": 0.6299212598425197
        },
        {
          "duration": 0.12395833333333428,
          "durationTicks": 119,
          "midi": 64,
          "name": "E4",
          "ticks": 55680,
          "time": 58,
          "velocity": 0.6299212598425197
        },
        {
          "duration": 0.12395833333333428,
          "durationTicks": 119,
          "midi": 72,
          "name": "C5",
          "ticks": 55800,
          "time": 58.125,
          "velocity": 0.6299212598425197
        },
        {
          "duration": 0.12395833333333428,
          "durationTicks": 119,
          "midi": 72,
          "name": "C5",
          "ticks": 56040,
          "time": 58.375,
          "velocity": 0.6299212598425197
        },
        {
          "duration": 0.12395833333333428,
          "durationTicks": 119,
          "midi": 72,
          "name": "C5",
          "ticks": 56280,
          "time": 58.625,
          "velocity": 0.6299212598425197
        },
        {
          "duration": 0.12395833333333428,
          "durationTicks": 119,
          "midi": 74,
          "name": "D5",
          "ticks": 56400,
          "time": 58.75,
          "velocity": 0.6299212598425197
        },
        {
          "duration": 0.12395833333333428,
          "durationTicks": 119,
          "midi": 76,
          "name": "E5",
          "ticks": 56640,
          "time": 59,
          "velocity": 0.6299212598425197
        },
        {
          "duration": 0.12395833333333428,
          "durationTicks": 119,
          "midi": 72,
          "name": "C5",
          "ticks": 56760,
          "time": 59.125,
          "velocity": 0.6299212598425197
        },
        {
          "duration": 0.12395833333333428,
          "durationTicks": 119,
          "midi": 69,
          "name": "A4",
          "ticks": 57000,
          "time": 59.375,
          "velocity": 0.6299212598425197
        },
        {
          "duration": 0.12395833333333428,
          "durationTicks": 119,
          "midi": 67,
          "name": "G4",
          "ticks": 57120,
          "time": 59.5,
          "velocity": 0.6299212598425197
        },
        {
          "duration": 0.12395833333333428,
          "durationTicks": 119,
          "midi": 60,
          "name": "C4",
          "ticks": 57360,
          "time": 59.75,
          "velocity": 0.6299212598425197
        },
        {
          "duration": 0.12395833333333428,
          "durationTicks": 119,
          "midi": 72,
          "name": "C5",
          "ticks": 57600,
          "time": 60,
          "velocity": 0.6299212598425197
        },
        {
          "duration": 0.12395833333333428,
          "durationTicks": 119,
          "midi": 64,
          "name": "E4",
          "ticks": 57600,
          "time": 60,
          "velocity": 0.6299212598425197
        },
        {
          "duration": 0.12395833333333428,
          "durationTicks": 119,
          "midi": 72,
          "name": "C5",
          "ticks": 57720,
          "time": 60.125,
          "velocity": 0.6299212598425197
        },
        {
          "duration": 0.12395833333333428,
          "durationTicks": 119,
          "midi": 72,
          "name": "C5",
          "ticks": 57960,
          "time": 60.375,
          "velocity": 0.6299212598425197
        },
        {
          "duration": 0.12395833333333428,
          "durationTicks": 119,
          "midi": 72,
          "name": "C5",
          "ticks": 58200,
          "time": 60.625,
          "velocity": 0.6299212598425197
        },
        {
          "duration": 0.12395833333333428,
          "durationTicks": 119,
          "midi": 74,
          "name": "D5",
          "ticks": 58320,
          "time": 60.75,
          "velocity": 0.6299212598425197
        },
        {
          "duration": 0.12395833333333428,
          "durationTicks": 119,
          "midi": 76,
          "name": "E5",
          "ticks": 58440,
          "time": 60.875,
          "velocity": 0.6299212598425197
        },
        {
          "duration": 0.12395833333333428,
          "durationTicks": 119,
          "midi": 67,
          "name": "G4",
          "ticks": 58560,
          "time": 61,
          "velocity": 0.6299212598425197
        },
        {
          "duration": 0.12395833333333428,
          "durationTicks": 119,
          "midi": 60,
          "name": "C4",
          "ticks": 58920,
          "time": 61.375,
          "velocity": 0.6299212598425197
        },
        {
          "duration": 0.12395833333333428,
          "durationTicks": 119,
          "midi": 60,
          "name": "C4",
          "ticks": 59280,
          "time": 61.75,
          "velocity": 0.6299212598425197
        },
        {
          "duration": 0.12395833333333428,
          "durationTicks": 119,
          "midi": 72,
          "name": "C5",
          "ticks": 59520,
          "time": 62,
          "velocity": 0.6299212598425197
        },
        {
          "duration": 0.12395833333333428,
          "durationTicks": 119,
          "midi": 64,
          "name": "E4",
          "ticks": 59520,
          "time": 62,
          "velocity": 0.6299212598425197
        },
        {
          "duration": 0.12395833333333428,
          "durationTicks": 119,
          "midi": 72,
          "name": "C5",
          "ticks": 59640,
          "time": 62.125,
          "velocity": 0.6299212598425197
        },
        {
          "duration": 0.12395833333333428,
          "durationTicks": 119,
          "midi": 72,
          "name": "C5",
          "ticks": 59880,
          "time": 62.375,
          "velocity": 0.6299212598425197
        },
        {
          "duration": 0.12395833333333428,
          "durationTicks": 119,
          "midi": 72,
          "name": "C5",
          "ticks": 60120,
          "time": 62.625,
          "velocity": 0.6299212598425197
        },
        {
          "duration": 0.12395833333333428,
          "durationTicks": 119,
          "midi": 74,
          "name": "D5",
          "ticks": 60240,
          "time": 62.75,
          "velocity": 0.6299212598425197
        },
        {
          "duration": 0.12395833333333428,
          "durationTicks": 119,
          "midi": 76,
          "name": "E5",
          "ticks": 60480,
          "time": 63,
          "velocity": 0.6299212598425197
        },
        {
          "duration": 0.12395833333333428,
          "durationTicks": 119,
          "midi": 72,
          "name": "C5",
          "ticks": 60600,
          "time": 63.125,
          "velocity": 0.6299212598425197
        },
        {
          "duration": 0.12395833333333428,
          "durationTicks": 119,
          "midi": 69,
          "name": "A4",
          "ticks": 60840,
          "time": 63.375,
          "velocity": 0.6299212598425197
        },
        {
          "duration": 0.12395833333333428,
          "durationTicks": 119,
          "midi": 67,
          "name": "G4",
          "ticks": 60960,
          "time": 63.5,
          "velocity": 0.6299212598425197
        },
        {
          "duration": 0.12395833333333428,
          "durationTicks": 119,
          "midi": 60,
          "name": "C4",
          "ticks": 61200,
          "time": 63.75,
          "velocity": 0.6299212598425197
        },
        {
          "duration": 0.12395833333333428,
          "durationTicks": 119,
          "midi": 76,
          "name": "E5",
          "ticks": 61440,
          "time": 64,
          "velocity": 0.6299212598425197
        },
        {
          "duration": 0.12395833333333428,
          "durationTicks": 119,
          "midi": 72,
          "name": "C5",
          "ticks": 61440,
          "time": 64,
          "velocity": 0.6299212598425197
        },
        {
          "duration": 0.12395833333333428,
          "durationTicks": 119,
          "midi": 76,
          "name": "E5",
          "ticks": 61560,
          "time": 64.125,
          "velocity": 0.6299212598425197
        },
        {
          "duration": 0.12395833333333428,
          "durationTicks": 119,
          "midi": 72,
          "name": "C5",
          "ticks": 61560,
          "time": 64.125,
          "velocity": 0.6299212598425197
        },
        {
          "duration": 0.12395833333333428,
          "durationTicks": 119,
          "midi": 76,
          "name": "E5",
          "ticks": 61800,
          "time": 64.375,
          "velocity": 0.6299212598425197
        },
        {
          "duration": 0.12395833333333428,
          "durationTicks": 119,
          "midi": 72,
          "name": "C5",
          "ticks": 61800,
          "time": 64.375,
          "velocity": 0.6299212598425197
        },
        {
          "duration": 0.12395833333333428,
          "durationTicks": 119,
          "midi": 72,
          "name": "C5",
          "ticks": 62040,
          "time": 64.625,
          "velocity": 0.6299212598425197
        },
        {
          "duration": 0.12395833333333428,
          "durationTicks": 119,
          "midi": 76,
          "name": "E5",
          "ticks": 62160,
          "time": 64.75,
          "velocity": 0.6299212598425197
        },
        {
          "duration": 0.24895833333333428,
          "durationTicks": 239,
          "midi": 79,
          "name": "G5",
          "ticks": 62400,
          "time": 65,
          "velocity": 0.6299212598425197
        },
        {
          "duration": 0.24895833333333428,
          "durationTicks": 239,
          "midi": 71,
          "name": "B4",
          "ticks": 62400,
          "time": 65,
          "velocity": 0.6299212598425197
        },
        {
          "duration": 0.24895833333333428,
          "durationTicks": 239,
          "midi": 67,
          "name": "G4",
          "ticks": 62880,
          "time": 65.5,
          "velocity": 0.6299212598425197
        },
        {
          "duration": 0.24895833333333428,
          "durationTicks": 239,
          "midi": 59,
          "name": "B3",
          "ticks": 62880,
          "time": 65.5,
          "velocity": 0.6299212598425197
        },
        {
          "duration": 0.12395833333333428,
          "durationTicks": 119,
          "midi": 76,
          "name": "E5",
          "ticks": 63360,
          "time": 66,
          "velocity": 0.6299212598425197
        },
        {
          "duration": 0.12395833333333428,
          "durationTicks": 119,
          "midi": 72,
          "name": "C5",
          "ticks": 63480,
          "time": 66.125,
          "velocity": 0.6299212598425197
        },
        {
          "duration": 0.24895833333333428,
          "durationTicks": 239,
          "midi": 67,
          "name": "G4",
          "ticks": 63720,
          "time": 66.375,
          "velocity": 0.6299212598425197
        },
        {
          "duration": 0.24895833333333428,
          "durationTicks": 239,
          "midi": 68,
          "name": "G#4",
          "ticks": 64080,
          "time": 66.75,
          "velocity": 0.6299212598425197
        },
        {
          "duration": 0.12395833333333428,
          "durationTicks": 119,
          "midi": 69,
          "name": "A4",
          "ticks": 64320,
          "time": 67,
          "velocity": 0.6299212598425197
        },
        {
          "duration": 0.12395833333333428,
          "durationTicks": 119,
          "midi": 77,
          "name": "F5",
          "ticks": 64440,
          "time": 67.125,
          "velocity": 0.6299212598425197
        },
        {
          "duration": 0.12395833333333428,
          "durationTicks": 119,
          "midi": 77,
          "name": "F5",
          "ticks": 64680,
          "time": 67.375,
          "velocity": 0.6299212598425197
        },
        {
          "duration": 0.12395833333333428,
          "durationTicks": 119,
          "midi": 69,
          "name": "A4",
          "ticks": 64800,
          "time": 67.5,
          "velocity": 0.6299212598425197
        },
        {
          "duration": 0.12395833333333428,
          "durationTicks": 119,
          "midi": 60,
          "name": "C4",
          "ticks": 65040,
          "time": 67.75,
          "velocity": 0.6299212598425197
        },
        {
          "duration": 0.16562500000000568,
          "durationTicks": 159,
          "midi": 71,
          "name": "B4",
          "ticks": 65280,
          "time": 68,
          "velocity": 0.6299212598425197
        },
        {
          "duration": 0.16562500000000568,
          "durationTicks": 159,
          "midi": 67,
          "name": "G4",
          "ticks": 65280,
          "time": 68,
          "velocity": 0.6299212598425197
        },
        {
          "duration": 0.16562499999999147,
          "durationTicks": 159,
          "midi": 81,
          "name": "A5",
          "ticks": 65440,
          "time": 68.16666666666667,
          "velocity": 0.6299212598425197
        },
        {
          "duration": 0.16562499999999147,
          "durationTicks": 159,
          "midi": 77,
          "name": "F5",
          "ticks": 65440,
          "time": 68.16666666666667,
          "velocity": 0.6299212598425197
        },
        {
          "duration": 0.16562500000000568,
          "durationTicks": 159,
          "midi": 81,
          "name": "A5",
          "ticks": 65600,
          "time": 68.33333333333333,
          "velocity": 0.6299212598425197
        },
        {
          "duration": 0.16562500000000568,
          "durationTicks": 159,
          "midi": 77,
          "name": "F5",
          "ticks": 65600,
          "time": 68.33333333333333,
          "velocity": 0.6299212598425197
        },
        {
          "duration": 0.16562500000000568,
          "durationTicks": 159,
          "midi": 81,
          "name": "A5",
          "ticks": 65760,
          "time": 68.5,
          "velocity": 0.6299212598425197
        },
        {
          "duration": 0.16562500000000568,
          "durationTicks": 159,
          "midi": 77,
          "name": "F5",
          "ticks": 65760,
          "time": 68.5,
          "velocity": 0.6299212598425197
        },
        {
          "duration": 0.16562499999999147,
          "durationTicks": 159,
          "midi": 79,
          "name": "G5",
          "ticks": 65920,
          "time": 68.66666666666667,
          "velocity": 0.6299212598425197
        },
        {
          "duration": 0.16562499999999147,
          "durationTicks": 159,
          "midi": 71,
          "name": "B4",
          "ticks": 65920,
          "time": 68.66666666666667,
          "velocity": 0.6299212598425197
        },
        {
          "duration": 0.16562500000000568,
          "durationTicks": 159,
          "midi": 77,
          "name": "F5",
          "ticks": 66080,
          "time": 68.83333333333333,
          "velocity": 0.6299212598425197
        },
        {
          "duration": 0.12395833333333428,
          "durationTicks": 119,
          "midi": 76,
          "name": "E5",
          "ticks": 66240,
          "time": 69,
          "velocity": 0.6299212598425197
        },
        {
          "duration": 0.12395833333333428,
          "durationTicks": 119,
          "midi": 72,
          "name": "C5",
          "ticks": 66360,
          "time": 69.125,
          "velocity": 0.6299212598425197
        },
        {
          "duration": 0.12395833333333428,
          "durationTicks": 119,
          "midi": 69,
          "name": "A4",
          "ticks": 66600,
          "time": 69.375,
          "velocity": 0.6299212598425197
        },
        {
          "duration": 0.12395833333333428,
          "durationTicks": 119,
          "midi": 67,
          "name": "G4",
          "ticks": 66720,
          "time": 69.5,
          "velocity": 0.6299212598425197
        },
        {
          "duration": 0.12395833333333428,
          "durationTicks": 119,
          "midi": 60,
          "name": "C4",
          "ticks": 66960,
          "time": 69.75,
          "velocity": 0.6299212598425197
        },
        {
          "duration": 0.12395833333333428,
          "durationTicks": 119,
          "midi": 76,
          "name": "E5",
          "ticks": 67200,
          "time": 70,
          "velocity": 0.6299212598425197
        },
        {
          "duration": 0.12395833333333428,
          "durationTicks": 119,
          "midi": 72,
          "name": "C5",
          "ticks": 67320,
          "time": 70.125,
          "velocity": 0.6299212598425197
        },
        {
          "duration": 0.24895833333333428,
          "durationTicks": 239,
          "midi": 67,
          "name": "G4",
          "ticks": 67560,
          "time": 70.375,
          "velocity": 0.6299212598425197
        },
        {
          "duration": 0.24895833333333428,
          "durationTicks": 239,
          "midi": 68,
          "name": "G#4",
          "ticks": 67920,
          "time": 70.75,
          "velocity": 0.6299212598425197
        },
        {
          "duration": 0.12395833333333428,
          "durationTicks": 119,
          "midi": 69,
          "name": "A4",
          "ticks": 68160,
          "time": 71,
          "velocity": 0.6299212598425197
        },
        {
          "duration": 0.12395833333333428,
          "durationTicks": 119,
          "midi": 77,
          "name": "F5",
          "ticks": 68280,
          "time": 71.125,
          "velocity": 0.6299212598425197
        },
        {
          "duration": 0.12395833333333428,
          "durationTicks": 119,
          "midi": 77,
          "name": "F5",
          "ticks": 68520,
          "time": 71.375,
          "velocity": 0.6299212598425197
        },
        {
          "duration": 0.12395833333333428,
          "durationTicks": 119,
          "midi": 69,
          "name": "A4",
          "ticks": 68640,
          "time": 71.5,
          "velocity": 0.6299212598425197
        },
        {
          "duration": 0.12395833333333428,
          "durationTicks": 119,
          "midi": 60,
          "name": "C4",
          "ticks": 68880,
          "time": 71.75,
          "velocity": 0.6299212598425197
        },
        {
          "duration": 0.12395833333333428,
          "durationTicks": 119,
          "midi": 71,
          "name": "B4",
          "ticks": 69120,
          "time": 72,
          "velocity": 0.6299212598425197
        },
        {
          "duration": 0.12395833333333428,
          "durationTicks": 119,
          "midi": 67,
          "name": "G4",
          "ticks": 69120,
          "time": 72,
          "velocity": 0.6299212598425197
        },
        {
          "duration": 0.12395833333333428,
          "durationTicks": 119,
          "midi": 77,
          "name": "F5",
          "ticks": 69240,
          "time": 72.125,
          "velocity": 0.6299212598425197
        },
        {
          "duration": 0.12395833333333428,
          "durationTicks": 119,
          "midi": 69,
          "name": "A4",
          "ticks": 69240,
          "time": 72.125,
          "velocity": 0.6299212598425197
        },
        {
          "duration": 0.12395833333333428,
          "durationTicks": 119,
          "midi": 77,
          "name": "F5",
          "ticks": 69480,
          "time": 72.375,
          "velocity": 0.6299212598425197
        },
        {
          "duration": 0.12395833333333428,
          "durationTicks": 119,
          "midi": 69,
          "name": "A4",
          "ticks": 69480,
          "time": 72.375,
          "velocity": 0.6299212598425197
        },
        {
          "duration": 0.16562500000000568,
          "durationTicks": 159,
          "midi": 77,
          "name": "F5",
          "ticks": 69600,
          "time": 72.5,
          "velocity": 0.6299212598425197
        },
        {
          "duration": 0.16562500000000568,
          "durationTicks": 159,
          "midi": 69,
          "name": "A4",
          "ticks": 69600,
          "time": 72.5,
          "velocity": 0.6299212598425197
        },
        {
          "duration": 0.16562499999999147,
          "durationTicks": 159,
          "midi": 76,
          "name": "E5",
          "ticks": 69760,
          "time": 72.66666666666667,
          "velocity": 0.6299212598425197
        },
        {
          "duration": 0.16562499999999147,
          "durationTicks": 159,
          "midi": 67,
          "name": "G4",
          "ticks": 69760,
          "time": 72.66666666666667,
          "velocity": 0.6299212598425197
        },
        {
          "duration": 0.16562500000000568,
          "durationTicks": 159,
          "midi": 74,
          "name": "D5",
          "ticks": 69920,
          "time": 72.83333333333333,
          "velocity": 0.6299212598425197
        },
        {
          "duration": 0.16562500000000568,
          "durationTicks": 159,
          "midi": 65,
          "name": "F4",
          "ticks": 69920,
          "time": 72.83333333333333,
          "velocity": 0.6299212598425197
        },
        {
          "duration": 0.12395833333333428,
          "durationTicks": 119,
          "midi": 72,
          "name": "C5",
          "ticks": 70080,
          "time": 73,
          "velocity": 0.6299212598425197
        },
        {
          "duration": 0.12395833333333428,
          "durationTicks": 119,
          "midi": 64,
          "name": "E4",
          "ticks": 70080,
          "time": 73,
          "velocity": 0.6299212598425197
        },
        {
          "duration": 0.12395833333333428,
          "durationTicks": 119,
          "midi": 67,
          "name": "G4",
          "ticks": 70200,
          "time": 73.125,
          "velocity": 0.6299212598425197
        },
        {
          "duration": 0.12395833333333428,
          "durationTicks": 119,
          "midi": 67,
          "name": "G4",
          "ticks": 70440,
          "time": 73.375,
          "velocity": 0.6299212598425197
        },
        {
          "duration": 0.24895833333333428,
          "durationTicks": 239,
          "midi": 60,
          "name": "C4",
          "ticks": 70560,
          "time": 73.5,
          "velocity": 0.6299212598425197
        }
      ]
    }
  ]
}